<svg width="275" height="325" viewBox="0 0 275 325" fill="none" xmlns="http://www.w3.org/2000/svg">
<path d="M134.569 315.229C129.908 315.237 125.259 314.743 120.704 313.754C112.741 312.113 105.24 308.721 98.7418 303.823C92.2434 298.924 86.9091 292.641 83.1231 285.426C80.1188 278.678 77.8871 271.609 76.4706 264.356L76.1438 262.975C71.4754 243.029 65.5933 221.935 54.7393 202.878C52.9886 199.811 51.0746 196.745 49.2306 193.795C44.7693 187.116 40.9921 180.001 37.9564 172.561C33.288 159.802 34.1517 147.113 40.524 138.755C41.3635 137.457 42.4556 136.341 43.7351 135.476C45.0146 134.612 46.4551 134.015 47.9701 133.722C48.8933 133.61 49.8296 133.689 50.7209 133.955C51.6123 134.221 52.4397 134.667 53.152 135.267C53.7077 135.711 54.1633 136.268 54.4892 136.902C54.815 137.535 55.0036 138.231 55.0427 138.942H53.5255C53.489 138.446 53.3497 137.963 53.1166 137.523C52.8835 137.084 52.5617 136.698 52.1717 136.39C51.6175 135.929 50.9767 135.583 50.2871 135.374C49.5976 135.165 48.8732 135.097 48.1569 135.173C45.5271 135.774 43.2287 137.367 41.7378 139.621C35.6923 147.604 34.7352 159.708 39.4036 171.976C42.4136 179.363 46.1678 186.423 50.6078 193.046C52.4518 196.019 54.3658 199.086 56.1398 202.176C67.0171 221.373 72.9693 242.584 77.6377 262.647L77.9645 264.029C79.3513 271.161 81.544 278.113 84.5002 284.747C88.1793 291.759 93.3647 297.863 99.682 302.62C105.999 307.378 113.291 310.668 121.03 312.256C136.68 315.366 152.918 313.159 167.177 305.981C172.887 303.429 178.042 299.778 182.35 295.236C186.732 289.916 190.109 283.839 192.317 277.303C196.215 267.049 199.319 256.233 202.12 245.815C206.438 230.27 210.897 214.186 218.46 199.624C220.794 195.363 223.128 191.173 225.602 187.123C230.235 179.854 234.144 172.146 237.273 164.109C239.957 156.477 240.074 150.063 237.647 145.38C236.794 143.819 235.61 142.464 234.178 141.413C232.747 140.361 231.102 139.637 229.36 139.293C228.145 139.005 226.879 139.005 225.663 139.294C224.447 139.582 223.316 140.151 222.358 140.956L221.354 139.809C222.48 138.842 223.816 138.153 225.254 137.795C226.693 137.437 228.195 137.421 229.64 137.748C231.616 138.157 233.478 138.999 235.092 140.213C236.706 141.427 238.032 142.984 238.977 144.772C241.615 149.922 241.498 156.618 238.674 164.671C235.512 172.809 231.54 180.605 226.816 187.942C224.482 191.992 221.914 196.159 219.813 200.373C212.344 214.795 207.909 230.808 203.614 246.259C200.696 256.748 197.685 267.587 193.74 277.888C191.484 284.605 188.019 290.849 183.517 296.313C179.067 301 173.747 304.77 167.854 307.41C157.48 312.475 146.107 315.146 134.569 315.229V315.229Z" fill="#AB8DA8"/>
<path d="M151.701 42.628C152.908 40.7066 153.599 38.505 153.708 36.2367C153.84 35.218 153.747 34.1827 153.437 33.2038C153.126 32.2249 152.605 31.3262 151.911 30.5712C151.327 30.0093 150.604 29.5645 150.067 28.9558C149.53 28.3471 149.273 27.715 148.83 27.1297C148.349 26.5018 147.73 25.9935 147.022 25.6444C146.313 25.2952 145.534 25.1145 144.745 25.1164C143.134 25.1164 141.43 25.8655 140.077 25.1164C139.236 24.695 138.676 23.8522 137.742 23.3839C136.864 22.9354 135.856 22.8111 134.895 23.0328C134.055 23.3264 133.169 23.4613 132.28 23.4308C131.02 23.2435 130.156 22.1197 129.036 21.4876C128.46 21.1923 127.826 21.0269 127.18 21.003C126.534 20.9791 125.89 21.0974 125.294 21.3494C124.698 21.6015 124.164 21.9813 123.73 22.4621C123.295 22.943 122.971 23.5133 122.78 24.1331C122.628 24.7243 122.628 25.3446 122.78 25.9358C123.037 27.3638 124.017 28.511 124.087 29.9391C124.157 31.3672 123.294 32.608 124.087 33.8722C124.881 35.1364 126.048 35.1832 126.608 36.3772C127.355 37.9925 126.608 40.0996 127.285 41.832C127.635 42.9323 127.822 44.5009 128.849 45.2032C130.273 46.1865 133.377 45.3671 135.081 45.2032L141.687 44.6647C144.605 44.3838 148.2 44.6647 150.837 43.2133C151.156 43.068 151.448 42.8701 151.701 42.628V42.628Z" fill="#3B2645"/>
<path d="M129.293 41.5974C129.062 41.2782 128.758 41.0184 128.407 40.8393C128.056 40.6602 127.668 40.5669 127.274 40.5669C126.881 40.5669 126.493 40.6602 126.142 40.8393C125.791 41.0184 125.487 41.2782 125.255 41.5974C123.225 43.9385 126.656 48.6208 129.293 48.9017C129.447 46.4694 129.447 44.0297 129.293 41.5974V41.5974Z" fill="#E0855C"/>
<path d="M162.089 80.8123C161.473 84.7558 160.647 88.6633 159.614 92.5179C159.451 93.2437 159.311 93.946 159.218 94.6249C159.124 95.3039 159.031 95.8189 158.914 96.6851C158.914 96.849 158.914 97.0363 158.914 97.2002C158.914 97.762 158.751 98.3473 158.681 98.9794L155.74 126.488C137.463 131.521 118.393 126.488 118.393 126.488C118.393 126.488 118.393 126.136 118.393 125.458C118.089 122.344 117.155 112.441 116.222 101.274C116.222 101.274 116.222 101.11 116.222 101.04C116.231 100.868 116.231 100.696 116.222 100.525C115.825 95.8423 115.451 90.8791 115.148 86.1501C114.588 77.9327 114.238 70.3475 114.308 65.6418C114.308 63.9094 118.346 64.0967 121.1 63.7221C123.131 63.4412 125.208 63.2539 127.006 63.1602C128.803 63.0666 130.157 63.0198 131.067 63.0198H132.094C132.094 63.0198 132.328 60.3275 132.328 60.3041L132.958 53.7021C133.264 53.7813 133.577 53.8361 133.892 53.866C134.469 53.9745 135.055 54.0372 135.642 54.0533C136.413 54.0533 137.136 54.0533 137.813 54.0533L138.817 53.9362H139.4C140.054 53.8191 140.684 53.6787 141.268 53.5148C141.851 53.3509 142.038 53.2807 142.411 53.1636C144.117 52.6156 145.736 51.8273 147.22 50.8225L147.43 50.682L147.827 50.3777L148.107 50.167C148.107 50.4947 148.107 50.6352 148.107 50.7757C147.92 52.3208 147.71 54.2874 147.617 56.2305C147.617 57.5884 147.477 58.9228 147.43 60.0699C147.383 61.2171 147.01 62.8793 147.827 63.4646C148.118 63.6288 148.433 63.7473 148.76 63.8157C150.042 64.0186 151.338 64.1048 152.635 64.0733C153.032 64.0733 153.429 64.0733 153.826 64.0733C154.821 64.0151 155.818 64.0151 156.813 64.0733C157.509 64.0712 158.198 64.209 158.839 64.4784C159.48 64.7478 160.062 65.1434 160.548 65.6418C161.153 66.5202 161.537 67.5322 161.668 68.5916L161.949 70.5114C162.393 73.928 162.44 77.3848 162.089 80.8123V80.8123Z" fill="#FFEDE5"/>
<path d="M148.013 50.0024C147.698 51.6779 147.016 53.2623 146.017 54.6419C145.018 56.0215 143.726 57.1619 142.235 57.9812C140.744 58.8005 139.091 59.2783 137.394 59.3803C135.697 59.4823 133.999 59.2059 132.421 58.571L132.864 53.7248C135.508 54.2363 138.23 54.1684 140.845 53.5259C143.46 52.8834 145.905 51.6815 148.013 50.0024V50.0024Z" fill="#E0855C"/>
<path d="M129.761 34.5752C128.407 35.9799 128.29 39.117 128.197 42.5818C127.847 53.1169 130.998 56.3945 136.343 56.9798C141.688 57.565 147.314 55.4814 148.458 45.7424C149.041 40.8494 149.648 36.3779 147.874 34.2474C145.33 31.1103 133.869 30.2675 129.761 34.5752Z" fill="#FFEDE5"/>
<path d="M147.664 44.3145C147.664 44.3145 149.298 39.96 151.889 42.2777C154.48 44.5954 150.909 51.174 146.941 50.6823C146.987 50.6823 146.45 45.8128 147.664 44.3145Z" fill="#FFEDE5"/>
<path d="M150.745 44.2667C150.132 44.4587 149.583 44.8149 149.157 45.2968C148.675 45.7007 148.285 46.2036 148.014 46.7717C148.014 46.9356 148.177 47.0526 148.294 46.9356C148.623 46.6089 148.934 46.265 149.227 45.9055C149.44 46.141 149.704 46.325 149.998 46.4439C150.231 46.4439 150.418 46.2332 150.325 46.0459C150.163 45.798 149.947 45.59 149.694 45.4373C150.13 45.1574 150.544 44.8443 150.931 44.5008C150.939 44.4726 150.939 44.4432 150.933 44.4147C150.927 44.3863 150.915 44.3596 150.896 44.3369C150.878 44.3142 150.855 44.296 150.829 44.2838C150.802 44.2716 150.774 44.2658 150.745 44.2667Z" fill="#E0855C"/>
<path d="M132.795 42.3468C132.795 42.3468 131.884 42.6745 132.024 41.0592C132.164 39.4438 132.795 39.8184 132.795 39.8184C132.795 39.8184 133.425 39.8184 133.332 41.0826C133.238 42.3468 132.795 42.3468 132.795 42.3468Z" fill="#3B2645"/>
<path d="M141.968 42.3468C141.968 42.3468 141.081 42.6745 141.221 41.0592C141.361 39.4438 141.968 39.8184 141.968 39.8184C141.968 39.8184 142.598 39.8184 142.505 41.0826C142.412 42.3468 141.968 42.3468 141.968 42.3468Z" fill="#3B2645"/>
<path d="M133.775 37.4542C133.408 37.2459 132.985 37.1587 132.566 37.2049C132.148 37.2512 131.754 37.4285 131.441 37.7117C131.425 37.7438 131.418 37.7793 131.419 37.815C131.421 37.8507 131.431 37.8854 131.45 37.9158C131.469 37.9463 131.495 37.9714 131.526 37.989C131.557 38.0065 131.592 38.0158 131.628 38.0161C131.954 38.0161 132.234 37.8288 132.561 37.8054C132.904 37.789 133.245 37.8449 133.565 37.9693C133.868 38.0629 134.078 37.5947 133.775 37.4542Z" fill="#3B2645"/>
<path d="M143.345 38.2507C142.972 37.3143 141.361 37.2441 140.661 37.8059C140.627 37.8322 140.599 37.8659 140.58 37.9044C140.562 37.943 140.552 37.9854 140.552 38.0283C140.552 38.0713 140.562 38.1137 140.58 38.1522C140.599 38.1908 140.627 38.2245 140.661 38.2507C141.08 38.2858 141.502 38.2858 141.921 38.2507C142.261 38.3056 142.591 38.408 142.902 38.5551C142.942 38.6141 143.004 38.6546 143.074 38.6678C143.144 38.6809 143.216 38.6657 143.275 38.6253C143.334 38.585 143.374 38.5228 143.387 38.4526C143.401 38.3823 143.385 38.3097 143.345 38.2507V38.2507Z" fill="#3B2645"/>
<path d="M134.639 49.8856C136.608 50.1445 138.609 49.8018 140.381 48.9023C140.116 49.527 139.723 50.0893 139.229 50.5529C138.735 51.0166 138.149 51.3714 137.51 51.5946C135.479 52.1565 134.639 49.8856 134.639 49.8856Z" fill="white"/>
<path d="M122.851 65.618C128.219 69.3872 128.709 76.7149 126.095 82.5677C124.321 86.4774 121.03 89.2165 119.093 92.9155C117.074 96.503 114.73 99.8964 112.09 103.053C106.301 110.427 100.792 117.099 98.6683 119.628C91.3623 128.384 76.0033 139.949 70.4713 143.975C69.2108 144.912 68.4639 145.427 68.4639 145.427C68.4639 145.427 63.1652 142.641 64.5658 137.49C64.5658 137.49 85.5735 115.109 88.678 110.544C92.1087 104.61 95.2253 98.4994 98.0147 92.2366C101.594 85.2912 105.321 78.4396 109.196 71.6815C110.97 68.5678 113.234 64.6581 117.132 63.9558C118.705 63.7785 120.293 64.1151 121.66 64.9157C122.073 65.121 122.471 65.3557 122.851 65.618Z" fill="#FFEDE5"/>
<path d="M64.5662 137.514C65.1411 137.47 65.7186 137.47 66.2935 137.514C66.2935 137.514 71.3354 140.324 70.4717 143.976C70.4717 143.976 69.9349 144.467 69.0945 145.216C68.2542 145.966 67.3439 146.855 66.2468 147.979C65.1498 149.103 62.6522 152.661 61.5784 152.357C61.3282 152.264 61.1095 152.102 60.9482 151.889L58.7774 149.548C57.5636 148.19 55.5329 145.895 57.0734 144.093C55.953 144.772 53.3387 146.434 52.0549 145.638L51.5181 144.772C51.5181 144.772 55.3695 141.892 56.9567 140.464C59.098 138.663 61.7742 137.626 64.5662 137.514V137.514Z" fill="#FFEDE5"/>
<path d="M129.223 101.484C129.215 101.609 129.215 101.735 129.223 101.859C129.223 101.859 129.434 101.859 129.387 101.859L129.223 101.484Z" fill="#D6BED3"/>
<path d="M137.883 177.36C135.735 194.614 133.214 209.621 133.214 209.621C133.565 213.788 133.728 218.306 133.728 222.942C133.728 232.025 133.121 241.671 132.351 250.169C131.37 261.008 130.017 270.232 129.433 274.868V275.453C130.297 306.192 121.567 310.266 117.482 303.547C113.397 296.827 117.482 277.022 117.482 277.022C117.495 276.842 117.495 276.662 117.482 276.483C115.763 267.285 114.617 257.988 114.051 248.647C112.65 226.032 115.054 210.557 114.774 207.748C109.896 158.584 116.712 131.474 116.712 131.474C117.776 127.535 119.697 123.881 122.337 120.775C127.309 115.39 133.284 116.748 137.043 123.327C137.438 124.001 137.796 124.697 138.116 125.41C139.648 129.189 140.516 133.205 140.684 137.28C141.057 147.464 139.633 163.173 137.883 177.36Z" fill="#FFEDE5"/>
<path d="M161.996 247.453C161.453 256.989 160.315 266.481 158.588 275.874L158.378 277.022C158.378 277.022 162.463 296.898 158.378 303.546C154.293 310.195 145.657 306.309 146.427 275.874C146.427 275.734 146.427 275.593 146.427 275.476C145.773 271.075 144.466 261.547 143.439 250.262C142.645 241.694 142.039 232.095 142.039 223.012C142.039 218.33 142.225 213.835 142.575 209.644C142.575 209.644 139.984 194.637 137.907 177.407C136.156 163.196 134.709 147.487 135.316 137.397C135.491 133.32 136.367 129.304 137.907 125.527C138.213 124.792 138.572 124.08 138.981 123.397C143.299 115.882 150.488 115.226 155.787 123.701C157.305 126.158 158.497 128.802 159.335 131.568C159.335 131.568 166.151 158.608 161.272 207.841C160.922 210.604 163.233 225.54 161.996 247.453Z" fill="#FFEDE5"/>
<path d="M64.0061 152.708C64.4711 153.248 65.0488 153.679 65.6982 153.97C66.3476 154.262 67.0529 154.406 67.7641 154.394C68.09 154.318 68.397 154.176 68.6668 153.978C68.9365 153.78 69.1633 153.528 69.3335 153.239C69.5037 152.951 69.6137 152.63 69.6569 152.297C69.7001 151.965 69.6756 151.627 69.5848 151.304C69.3134 150.592 68.8727 149.957 68.301 149.454C64.7764 145.943 61.1584 142.431 57.4937 139.177C56.8813 138.484 56.0628 138.008 55.1595 137.819C54.3194 137.818 53.5064 138.117 52.8653 138.662C52.2241 139.206 51.7964 139.961 51.6582 140.792C51.6582 142.29 52.942 142.852 53.9924 143.695C57.307 146.645 60.6215 149.735 64.0061 152.708Z" fill="#3B2645"/>
<path d="M63.4921 148.563C63.6374 148.413 63.7558 148.239 63.8422 148.048C63.9014 147.806 63.9048 147.554 63.8522 147.311C63.7997 147.067 63.6925 146.839 63.5388 146.643C62.6751 145.215 60.9011 142.921 59.1505 142.71C58.5725 142.681 57.9969 142.804 57.4809 143.066C56.9649 143.329 56.5266 143.723 56.2094 144.209C55.6856 144.965 55.3525 145.837 55.2386 146.75C55.1248 147.663 55.2336 148.591 55.5558 149.453C56.0682 151.003 57.1206 152.317 58.5203 153.152C59.2187 153.449 60.0045 153.463 60.7135 153.193C61.4224 152.922 61.9998 152.388 62.325 151.7C62.6751 150.834 62.5584 149.781 63.1186 149.055C63.2249 148.878 63.3501 148.713 63.4921 148.563V148.563Z" fill="#FFEDE5"/>
<path d="M152.822 65.6183C147.43 69.3875 146.94 76.7152 149.578 82.568C151.328 86.4777 154.619 89.2168 156.58 92.9158C158.615 96.4929 160.959 99.8848 163.583 103.053C169.372 110.427 174.904 117.1 177.004 119.628C184.334 128.431 199.693 139.949 205.225 143.976L207.255 145.427C207.255 145.427 212.531 142.641 211.13 137.491C211.13 137.491 190.122 115.11 187.018 110.544C183.578 104.616 180.461 98.5042 177.681 92.2368C174.087 85.2135 170.375 78.4476 166.477 71.6818C164.703 68.5681 162.462 64.6584 158.541 63.9561C156.968 63.7804 155.38 64.117 154.013 64.9159C153.599 65.1202 153.201 65.355 152.822 65.6183Z" fill="#FFEDE5"/>
<path d="M211.107 137.514C210.525 137.47 209.94 137.47 209.357 137.514C209.357 137.514 204.315 140.323 205.179 143.975C205.179 143.975 205.739 144.467 206.556 145.216C207.373 145.965 208.33 146.855 209.403 147.979C210.477 149.102 213.021 152.661 214.072 152.357C214.319 152.258 214.536 152.096 214.702 151.888L216.85 149.547C218.087 148.189 220.094 145.895 218.577 144.092C219.674 144.771 222.288 146.434 223.595 145.638L224.039 144.771C224.039 144.771 220.187 141.892 218.577 140.464C216.477 138.686 213.852 137.649 211.107 137.514V137.514Z" fill="#FFEDE5"/>
<path d="M211.644 152.708C211.179 153.248 210.601 153.679 209.952 153.97C209.303 154.261 208.597 154.406 207.886 154.394C207.556 154.323 207.244 154.185 206.969 153.989C206.694 153.793 206.462 153.542 206.287 153.253C206.112 152.964 205.998 152.641 205.952 152.306C205.906 151.971 205.929 151.629 206.019 151.303C206.31 150.623 206.758 150.021 207.326 149.548C210.858 146.036 214.469 142.61 218.157 139.27C218.766 138.574 219.586 138.097 220.491 137.912C221.328 137.913 222.138 138.212 222.775 138.757C223.413 139.302 223.836 140.056 223.969 140.885C223.969 142.384 222.708 142.946 221.635 143.788C218.343 146.645 215.029 149.735 211.644 152.708Z" fill="#3B2645"/>
<path d="M212.181 148.563C212.022 148.42 211.894 148.244 211.807 148.048C211.758 147.804 211.762 147.552 211.818 147.31C211.875 147.068 211.982 146.84 212.134 146.643C212.975 145.215 214.748 142.921 216.499 142.71C217.077 142.681 217.653 142.804 218.169 143.066C218.685 143.329 219.123 143.723 219.44 144.209C219.958 144.968 220.282 145.843 220.384 146.758C220.486 147.672 220.362 148.598 220.024 149.453C219.527 151.012 218.47 152.33 217.059 153.152C216.361 153.449 215.575 153.463 214.866 153.193C214.157 152.922 213.58 152.388 213.255 151.7C212.928 150.834 213.045 149.781 212.461 149.055L212.181 148.563Z" fill="#FFEDE5"/>
<path d="M162.346 232.446V234.787C162.346 236.356 162.346 237.971 162.346 239.633V241.53C162.346 243.449 162.206 245.439 162.112 247.476C156.069 249.148 149.846 250.084 143.579 250.262C143.322 247.64 142.809 240.663 142.785 239.891C142.785 238.299 142.435 233.804 142.412 233.195C142.272 229.777 142.178 226.359 142.178 223.011C142.178 218.657 142.342 214.396 142.669 210.439C142.669 210.158 142.669 209.901 142.669 209.643C142.669 209.386 140.078 194.66 138 177.406C137.767 179.232 137.533 181.058 137.3 182.814C135.339 197.657 133.262 209.643 133.262 209.643C133.612 213.811 133.775 218.329 133.775 222.964C133.775 226.5 133.775 229.988 133.518 233.687C133.518 234.295 133.052 242.115 132.982 242.864C132.818 245.369 132.608 247.827 132.398 250.192C129.13 250.051 125.909 249.841 122.711 249.56C120.19 249.349 117.016 249.208 113.935 248.764C113.795 246.657 113.701 244.643 113.631 242.677C113.631 242.185 113.631 241.693 113.631 241.202C113.631 239.048 113.631 237.011 113.631 235.045V233.499C113.631 219.312 115.008 209.971 114.798 207.747C109.92 158.584 116.736 131.473 116.736 131.473C117.8 127.534 119.721 123.88 122.361 120.774C124.362 121.085 126.325 121.603 128.22 122.32C131.106 123.076 134.085 123.415 137.066 123.326H139.214C141.805 123.326 144.396 123.022 146.963 122.952H148.691C151.152 122.915 153.61 123.15 156.02 123.654C157.461 126.137 158.575 128.797 159.335 131.567C161.22 140.403 162.329 149.389 162.649 158.42C163.44 174.905 162.98 191.426 161.272 207.841C160.992 209.924 162.229 218.844 162.346 232.446Z" fill="#3B2645"/>
<path d="M129.293 275.453C129.62 287.557 128.476 295.516 126.702 300.316C123.995 307.737 119.7 307.643 117.366 303.64C116.735 302.529 116.301 301.317 116.082 300.058C114.378 291.7 117.366 277.115 117.366 277.115C117.379 276.936 117.379 276.756 117.366 276.577C118.527 277.426 119.844 278.039 121.24 278.379C122.808 278.765 124.458 278.632 125.943 277.999C127.428 277.366 128.669 276.267 129.48 274.868L129.293 275.453Z" fill="#AB8DA8"/>
<path d="M159.778 299.403C159.579 300.89 159.104 302.328 158.378 303.64C155.857 307.761 151.515 307.737 148.831 299.754C147.197 295.072 146.146 287.276 146.497 275.851C148.244 277.426 150.496 278.323 152.846 278.379C154.941 278.186 156.932 277.371 158.564 276.038C158.607 276.404 158.607 276.773 158.564 277.139C158.564 277.139 161.225 290.951 159.778 299.403Z" fill="#AB8DA8"/>
<path d="M125.769 282.64C124.586 281.933 123.235 281.56 121.859 281.56C120.482 281.56 119.131 281.933 117.949 282.64C117.905 282.689 117.876 282.749 117.864 282.814C117.853 282.878 117.86 282.945 117.884 283.006C117.908 283.067 117.949 283.12 118.002 283.158C118.055 283.197 118.117 283.22 118.182 283.225C119.349 283.225 120.517 282.734 121.614 282.757C122.898 282.867 124.166 283.118 125.395 283.506C125.5 283.52 125.607 283.498 125.699 283.445C125.791 283.393 125.863 283.311 125.905 283.214C125.947 283.116 125.957 283.007 125.932 282.904C125.908 282.801 125.85 282.708 125.769 282.64V282.64Z" fill="#291B30"/>
<path d="M125.395 286.385C123.402 285.22 121.063 284.797 118.789 285.191C118.019 285.191 117.996 286.479 118.789 286.409C119.887 286.303 120.995 286.35 122.08 286.549C123.084 286.737 123.994 287.158 124.998 287.369C125.122 287.395 125.251 287.377 125.362 287.318C125.474 287.259 125.561 287.162 125.608 287.044C125.656 286.927 125.66 286.796 125.621 286.676C125.582 286.555 125.502 286.452 125.395 286.385V286.385Z" fill="#291B30"/>
<path d="M156.3 282.641C154.526 282.032 150.675 281.798 149.297 283.437C149.111 283.647 149.297 284.092 149.554 284.069C150.651 283.928 151.608 283.483 152.752 283.437C153.896 283.39 155.086 283.694 156.16 283.624C156.224 283.633 156.29 283.629 156.353 283.613C156.416 283.597 156.475 283.569 156.527 283.529C156.579 283.49 156.623 283.441 156.656 283.385C156.689 283.329 156.711 283.267 156.72 283.202C156.729 283.138 156.726 283.072 156.71 283.009C156.693 282.946 156.665 282.886 156.626 282.834C156.587 282.782 156.538 282.738 156.482 282.705C156.426 282.672 156.364 282.65 156.3 282.641V282.641Z" fill="#291B30"/>
<path d="M157.164 286.596C155.227 285.73 150.395 285.098 149.415 287.72C149.275 288.071 149.718 288.352 149.998 288.188C151.007 287.624 152.131 287.299 153.284 287.238C154.437 287.177 155.589 287.382 156.651 287.837C157.351 288.118 157.888 286.9 157.164 286.596Z" fill="#291B30"/>
<path d="M68.7911 62.8319C68.7911 62.6914 68.511 62.6914 68.4876 62.8319C67.3206 70.8151 67.9975 79.2198 67.9975 87.3903C67.9975 96.0291 67.7174 104.738 68.2309 113.353C68.253 113.445 68.3053 113.527 68.3794 113.586C68.4535 113.644 68.545 113.676 68.6394 113.676C68.7337 113.676 68.8253 113.644 68.8994 113.586C68.9735 113.527 69.0258 113.445 69.0479 113.353C69.538 104.738 69.2579 96.0291 69.2579 87.3903C69.2579 79.4071 69.9348 70.8854 68.7911 62.8319Z" fill="#F7F8F8"/>
<path d="M78.9916 65.5475C78.9667 65.4325 78.9034 65.3295 78.8121 65.2557C78.7208 65.1819 78.607 65.1416 78.4897 65.1416C78.3724 65.1416 78.2587 65.1819 78.1674 65.2557C78.0761 65.3295 78.0127 65.4325 77.9879 65.5475C77.9879 73.2264 77.4977 81.0457 77.9879 88.7012C77.9879 88.8316 78.0395 88.9566 78.1314 89.0488C78.2234 89.141 78.3481 89.1928 78.4781 89.1928C78.6081 89.1928 78.7327 89.141 78.8247 89.0488C78.9166 88.9566 78.9682 88.8316 78.9682 88.7012C79.5051 81.0457 79.0383 73.2264 78.9916 65.5475Z" fill="#F7F8F8"/>
<path d="M183.353 145.942C183.334 145.872 183.293 145.811 183.236 145.768C183.179 145.724 183.109 145.701 183.038 145.701C182.966 145.701 182.896 145.724 182.839 145.768C182.783 145.811 182.741 145.872 182.722 145.942C182.065 155.995 181.932 166.075 182.326 176.142C182.326 186.209 182.326 196.252 182.699 206.319C182.719 206.394 182.763 206.46 182.824 206.508C182.885 206.555 182.96 206.58 183.038 206.58C183.115 206.58 183.19 206.555 183.251 206.508C183.312 206.46 183.356 206.394 183.376 206.319C183.703 196.252 183.703 186.209 183.749 176.142C184.131 166.075 183.998 155.995 183.353 145.942Z" fill="#F7F8F8"/>
<path d="M201.351 87.0631C201.278 80.3642 200.841 73.6743 200.043 67.0231C200.043 66.6251 199.413 66.7421 199.39 67.0231C199.21 74.2165 199.42 81.4143 200.02 88.5848C200.324 95.257 200.254 102.093 201.141 108.695C201.141 109.304 202.168 109.116 202.191 108.555C202.518 101.414 201.771 94.1333 201.351 87.0631Z" fill="#F7F8F8"/>
<path d="M206.018 90.7848C206.002 90.7324 205.969 90.6866 205.925 90.6541C205.881 90.6215 205.828 90.604 205.773 90.604C205.718 90.604 205.665 90.6215 205.621 90.6541C205.577 90.6866 205.544 90.7324 205.528 90.7848C204.91 100.403 204.863 110.05 205.388 119.674C205.374 119.733 205.373 119.794 205.385 119.853C205.398 119.912 205.424 119.968 205.461 120.015C205.498 120.063 205.545 120.101 205.599 120.128C205.654 120.154 205.713 120.168 205.773 120.168C205.833 120.168 205.893 120.154 205.947 120.128C206.001 120.101 206.049 120.063 206.086 120.015C206.123 119.968 206.149 119.912 206.161 119.853C206.174 119.794 206.173 119.733 206.158 119.674C206.684 110.05 206.637 100.403 206.018 90.7848V90.7848Z" fill="#F7F8F8"/>
<path d="M137.183 182.791C137.219 180.968 137.454 179.155 137.883 177.383C137.65 179.209 137.417 181.035 137.183 182.791Z" fill="#291B30"/>
<path d="M162.579 158.421C159.428 139.434 133.402 138.544 133.402 138.544C131.791 130.725 142.295 128.384 142.295 128.384L148.434 123.07C150.895 123.033 153.353 123.268 155.763 123.772C157.284 126.205 158.484 128.826 159.335 131.568C161.182 140.409 162.267 149.393 162.579 158.421V158.421Z" fill="#291B30"/>
<path d="M159.708 133.604C138.7 143.507 115.872 134.424 115.872 134.424C117.529 129.741 116.292 105.862 116.175 101.32C116.175 101.32 116.175 101.156 116.175 101.086C116.184 100.914 116.184 100.742 116.175 100.571C120.587 90.3167 121.077 70.5577 121.1 63.7684C123.084 63.4641 125.162 63.3002 126.959 63.2065C127.659 70.7918 130.157 90.2465 137.113 89.4037C144.069 88.5609 147.383 71.2366 148.597 63.6514C149.877 63.8667 151.175 63.9529 152.472 63.9089C152.869 63.9089 153.265 63.9089 153.662 63.9089C153.055 74.2801 158.797 96.0759 158.961 96.6846C158.961 96.8485 158.961 97.0358 158.961 97.1997C158.961 97.7615 158.797 98.3468 158.727 98.9789C158.727 98.9789 158.727 99.2364 158.727 99.3769C157.257 112.581 159.708 133.604 159.708 133.604Z" fill="#AB8DA8"/>
</svg>
