<svg width="275" height="325" viewBox="0 0 275 325" fill="none" xmlns="http://www.w3.org/2000/svg">
<path d="M121.234 70.8103C121.234 70.8103 116.676 73.7473 112.356 80.8647C108.035 87.9822 103.424 94.6763 103.424 94.6763C103.424 94.6763 101.738 80.2562 102.528 78.3511C103.319 76.4461 106.164 72.2391 106.823 70.8103C107.481 69.3815 110.617 67.3442 110.643 66.524C110.669 65.7038 110.327 63.1372 110.195 63.0579C110.063 62.9785 108.483 63.5606 108.246 64.4073C108.061 65.0158 107.929 65.545 107.929 65.545C107.929 65.545 105.795 66.7357 105.426 66.7621C105.058 66.7886 103.319 65.8625 103.292 65.7038C103.266 65.545 104.741 62.1053 105.189 61.9201C105.637 61.7349 108.114 63.6664 108.588 63.6664C109.062 63.6664 110.063 63.0314 110.116 62.661C110.169 62.2906 107.034 59.0626 106.77 59.0361C106.507 59.0097 103.819 58.5334 103.451 58.798C103.082 59.0626 101.079 60.8089 101.079 60.8089C101.079 60.8089 101.079 54.8027 101.079 53.5856C101.079 52.3685 100.816 48.6113 100.263 48.3467C99.7094 48.135 99.1034 48.0821 98.5238 48.1615C98.2603 48.2409 98.1022 49.9078 98.1022 49.9078C98.1022 49.9078 96.7059 49.6961 96.337 49.9872C95.9682 50.2782 95.2042 61.6555 95.2042 61.7614C95.2042 61.8672 93.2282 59.4595 92.9911 59.0097C92.754 58.5599 91.9372 55.8081 91.5684 55.7023C91.1995 55.5965 90.1457 55.5171 90.014 55.7817C89.8822 56.0463 90.7253 60.0151 90.778 60.4649C90.8307 60.9147 93.3336 66.2594 93.4653 67.0796C93.597 67.8998 94.124 74.7792 94.282 76.1815C94.4401 77.5838 92.6749 94.0677 92.2797 100.947C91.8845 107.826 92.227 113.991 92.6486 114.626C93.0701 115.261 96.5215 117.51 98.3657 116.584C100.21 115.658 105.295 111.663 110.142 107.006C114.99 102.349 120.707 96.2373 120.707 96.2373L121.234 70.8103Z" fill="#FFEDE5"/>
<path d="M103.398 94.6491C103.398 94.6491 103.872 98.3534 104.057 101.687C104.057 101.687 105.084 98.5386 104.584 92.9028L103.398 94.6491Z" fill="#DE835C"/>
<path d="M94.914 65.2009C94.8876 65.2009 94.8613 65.2009 94.8349 65.1745C94.7822 65.1216 94.7822 65.0422 94.8349 64.9893C95.6253 64.0897 100.131 61.2321 100.315 61.0998C100.368 61.0733 100.447 61.0734 100.499 61.1527C100.526 61.2056 100.526 61.285 100.447 61.3379C100.394 61.3644 95.7834 64.3013 95.0194 65.1745C94.993 65.2009 94.9403 65.2009 94.914 65.2009Z" fill="#472938"/>
<path d="M98.3656 60.1203C98.3656 60.1203 98.3393 60.1203 98.3656 60.1203C98.2866 60.1203 98.2339 60.0674 98.2339 59.988C98.2339 59.9087 98.5501 52.8706 98.471 51.6006C98.392 50.4099 98.0231 50.066 98.0231 50.066C97.9705 50.013 97.9705 49.9337 97.9968 49.8808C98.0495 49.8278 98.1285 49.8278 98.1812 49.8543C98.2339 49.8808 98.6291 50.2776 98.7081 51.5741C98.7872 52.8706 98.471 59.7235 98.471 60.0145C98.471 60.0674 98.4183 60.1203 98.3656 60.1203Z" fill="#472938"/>
<path d="M99.1825 71.1542C99.1562 71.1542 99.1562 71.1278 99.1825 71.1542C99.0771 71.1278 99.0508 71.0748 99.0508 70.9955C99.6041 67.8733 103.055 65.6772 103.187 65.5979C103.24 65.5714 103.319 65.5714 103.372 65.6508C103.398 65.7037 103.398 65.7831 103.319 65.836C103.293 65.8624 99.8148 68.0585 99.2879 71.0749C99.2879 71.1013 99.2352 71.1542 99.1825 71.1542Z" fill="#472938"/>
<path d="M124.158 300.976C124.264 301.532 125.502 303.357 131.746 303.913C137.99 304.469 145.631 302.193 149.398 301.77C152.56 301.426 156.591 300.235 157.803 299.838C158.013 299.785 158.171 299.574 158.171 299.336C158.171 298.965 158.145 298.357 158.119 297.616C153.008 297.695 145.789 299.6 137.121 300.791C130.587 301.69 126.187 299.971 124.264 298.939C124.158 299.627 124.132 300.288 124.158 300.976Z" fill="#3B2645"/>
<path d="M157.329 285.445C155.037 285.656 154.088 287.561 152.982 288.196C151.875 288.832 148.608 289.096 148.898 284.942C149.188 280.788 146 279.544 146 279.544C145.13 279.571 142.786 284.228 138.807 289.255C134.829 294.282 125.292 296.928 124.87 297.087C124.633 297.166 124.449 298.039 124.317 298.939C126.24 299.944 130.64 301.691 137.174 300.791C145.815 299.6 153.061 297.695 158.172 297.616C158.093 294.891 157.935 290.234 157.671 288.249C157.513 287.482 157.434 286.477 157.329 285.445Z" fill="#AB8DA8"/>
<path d="M148.898 284.969C148.634 289.123 151.875 288.858 152.981 288.223C154.088 287.588 155.063 285.683 157.328 285.472C157.118 282.799 156.96 279.942 156.96 279.942L145.973 279.571C145.999 279.571 149.161 280.841 148.898 284.969Z" fill="#FFEDE5"/>
<path d="M136.831 295.235C141.995 294.759 148.898 285.869 148.898 285.869C148.871 285.577 148.871 285.26 148.898 284.969C149.161 280.815 146 279.571 146 279.571C145.13 279.598 142.785 284.255 138.807 289.282C137.279 291.24 134.881 292.827 132.537 294.044C133.749 294.997 135.277 295.42 136.831 295.235Z" fill="#3B2645"/>
<path d="M105.716 299.389C106.164 300.791 109.036 301.294 115.385 301.294C121.735 301.294 124.764 289.969 127.346 287.667C129.928 285.392 135.277 277.56 135.277 276.211C135.277 275.814 134.486 274.835 133.353 273.618C132.22 276.052 129.691 280.947 125.976 284.466C122.894 287.403 122.762 297.272 115.095 299.098C111.512 299.944 108.166 298.992 105.637 297.748C105.532 298.304 105.584 298.859 105.716 299.389Z" fill="#3B2645"/>
<path d="M125.502 266.024C122.789 268.934 123.658 272.48 123.526 273.909C123.395 275.337 118.52 275.708 117.756 275.39C116.992 275.073 116.176 273.882 114.648 273.909C113.725 273.935 112.882 274.385 112.382 275.152C111.987 280.206 111.275 286.212 110.959 288.593C110.432 292.536 108.166 293.541 107.034 294.335C106.243 294.864 105.716 296.425 105.611 297.775C108.14 299.018 111.486 299.971 115.069 299.124C122.762 297.325 122.868 287.429 125.95 284.492C129.665 280.973 132.194 276.105 133.327 273.644C130.587 270.681 125.845 266.421 125.502 266.024Z" fill="#AB8DA8"/>
<path d="M114.621 273.882C116.175 273.856 116.966 275.046 117.73 275.364C118.494 275.681 123.368 275.311 123.499 273.882C123.631 272.453 122.762 268.908 125.475 265.997C125.001 265.415 123.368 262.373 123.368 262.373L112.539 267.744C112.724 269.014 112.592 271.871 112.329 275.126C112.856 274.358 113.725 273.909 114.621 273.882Z" fill="#FFEDE5"/>
<path d="M113.462 291.663C117.309 290.26 117.73 275.364 117.73 275.364C116.966 275.046 116.15 273.856 114.622 273.882C113.699 273.909 112.856 274.359 112.356 275.126C111.961 280.18 111.249 286.186 110.933 288.567C110.801 289.784 110.38 290.948 109.721 291.98C110.986 292.192 112.277 292.06 113.462 291.663Z" fill="#3B2645"/>
<path d="M158.935 126.956C158.935 126.956 172.846 150.61 172.846 162.596C172.846 174.582 160.885 214.667 160.674 220.065C160.464 225.463 164.705 237.263 163.362 249.17C162.018 261.076 156.959 279.915 156.959 279.915C156.959 279.915 150.162 280.947 145.973 279.545C145.973 279.545 145.789 244.143 143.312 229.67C140.836 215.197 138.912 184.531 138.912 184.531C138.912 184.531 113.488 212.127 112.671 216.705C111.855 221.282 116.518 224.298 118.731 238.11C120.944 251.921 123.394 262.399 123.394 262.399C123.394 262.399 118.389 268.326 112.566 267.77C112.566 267.77 90.8831 218.742 92.1214 212.339C93.3597 205.936 118.441 158.786 119.363 153.203C120.286 147.62 120.944 140.529 122.103 133.253L158.935 126.956Z" fill="#3B2645"/>
<path d="M141.705 142.857C150.505 141.376 157.487 136.084 161.729 132.009C160.095 128.94 158.936 126.982 158.936 126.982L122.078 133.253C121.814 134.893 121.577 136.534 121.366 138.148C124.765 140.741 131.668 144.551 141.705 142.857Z" fill="#3B2645"/>
<g opacity="0.5">
<path opacity="0.5" d="M138.939 184.53V173.418C138.939 173.418 135.619 166.803 135.303 161.273L136.067 177.572L128.848 195.802L138.939 184.53Z" fill="#543753"/>
</g>
<path d="M122.104 118.278C122.868 122.061 122.104 133.253 122.104 133.253C122.104 133.253 123.948 137.407 133.854 139.048C143.76 140.688 158.936 126.956 158.936 126.956C157.513 123.728 157.276 120.024 157.381 117.166C135.277 113.753 122.104 118.278 122.104 118.278Z" fill="#FFEDE5"/>
<path d="M157.961 123.992C157.46 121.743 157.276 119.468 157.381 117.166C154.72 116.742 152.191 116.451 149.793 116.24L150.399 121.584L157.961 123.992Z" fill="#DE835C"/>
<path d="M135.013 90.2572C148.977 88.9872 153.219 77.0542 154.483 70.3866L150.742 69.3282L132.51 67.4761L127.162 68.8519C124.343 78.6153 122.868 91.342 135.013 90.2572Z" fill="#FFEDE5"/>
<path d="M164.969 73.2705L159.383 71.7358C155.853 102.269 162.492 101.449 162.492 101.449L164.337 96.6072L164.969 73.2705Z" fill="#FFEDE5"/>
<path d="M157.855 112.562C162.571 108.329 162.492 101.449 162.492 101.449C162.492 101.449 155.826 102.27 159.383 71.736L154.483 70.3866C153.192 77.0542 148.95 89.0136 135.013 90.2572C122.867 91.342 124.343 78.6153 127.188 68.8784L121.682 70.3072C121.682 70.3072 115.28 91.2891 115.095 98.8828C114.963 103.751 117.862 110.34 119.996 114.441C134.302 108.329 157.855 112.562 157.855 112.562Z" fill="#AB8DA8"/>
<path d="M157.381 117.166C157.434 115.605 157.592 114.07 157.882 112.536C157.882 112.536 134.328 108.302 119.996 114.414C121.182 116.716 122.104 118.251 122.104 118.251C122.104 118.251 135.277 113.753 157.381 117.166Z" fill="#3B2645"/>
<path d="M159.384 71.71C159.384 71.71 161.966 86.1565 152.481 103.143L151.401 114.679L152.323 141.006C152.323 141.006 148.107 142.144 145.868 142.144C143.629 142.144 140.493 143.175 140.493 143.175L140.045 138.916L137.674 138.968C137.674 138.968 136.989 130.316 139.94 123.225C142.891 116.134 144.314 111.848 144.788 104.545C145.262 97.2428 143.629 87.453 149.03 72.5566L159.384 71.71Z" fill="white"/>
<path d="M164.363 96.6072L162.783 90.6011L162.519 101.423L164.363 96.6072Z" fill="#DE835C"/>
<path d="M133.801 137.434C134.078 137.434 134.302 137.09 134.302 136.666C134.302 136.242 134.078 135.899 133.801 135.899C133.525 135.899 133.301 136.242 133.301 136.666C133.301 137.09 133.525 137.434 133.801 137.434Z" fill="#DE835C"/>
<path d="M133.406 59.168C133.406 59.168 133.512 70.0691 127.663 84.5686C121.814 99.0681 121.34 104.175 122.71 118.251C124.08 132.327 120.707 143.572 120.707 143.572C120.707 143.572 105.11 146.826 98.9189 138.386C98.9189 138.386 106.559 120.711 109.984 99.5972C113.409 78.483 121.682 70.2543 121.682 70.2543C121.682 70.2543 123.263 65.7034 126.846 66.1796C126.846 66.2326 129.744 58.9828 133.406 59.168Z" fill="white"/>
<path d="M113.91 129.575C113.831 129.575 113.778 129.522 113.778 129.443C112.724 109.758 118.415 91.8714 121.471 82.2668L121.682 81.6318C121.708 81.5524 121.788 81.5259 121.84 81.5524C121.919 81.5789 121.946 81.6582 121.919 81.7112L121.708 82.3462C118.652 91.9508 112.988 109.784 114.042 129.417C114.042 129.522 113.989 129.575 113.91 129.575Z" fill="#472938"/>
<path d="M123.052 77.6896H123.026C122.947 77.6632 122.921 77.5838 122.947 77.5309C125.134 69.9901 126.714 66.2329 126.741 66.2065C126.767 66.1271 126.846 66.1007 126.925 66.1271C127.004 66.1536 127.031 66.2329 127.004 66.3123C126.978 66.3388 125.397 70.0959 123.237 77.6103C123.158 77.6367 123.105 77.6896 123.052 77.6896Z" fill="#472938"/>
<path d="M113.462 93.9615H113.435C113.356 93.9351 113.33 93.8821 113.33 93.8028C115.622 84.8861 121.497 70.4131 121.55 70.2543C121.576 70.175 121.655 70.1485 121.735 70.175C121.814 70.2014 121.84 70.2808 121.814 70.3602C121.761 70.4925 115.886 84.9655 113.594 93.8557C113.594 93.9086 113.541 93.9615 113.462 93.9615Z" fill="#472938"/>
<path d="M140.072 139.074C139.993 139.074 139.94 139.021 139.94 138.942C139.94 138.862 139.887 130.025 141.6 125.924C141.626 125.844 141.705 125.818 141.784 125.844C141.863 125.871 141.89 125.95 141.863 126.03C140.177 130.078 140.23 138.862 140.23 138.942C140.204 139.021 140.151 139.074 140.072 139.074Z" fill="#472938"/>
<path d="M142.812 137.566C142.733 137.566 142.68 137.513 142.68 137.434C142.68 137.355 142.39 129.973 143.971 124.416C145.552 118.913 145.973 109.52 145.973 109.44C145.973 109.361 146.026 109.308 146.105 109.308C146.184 109.308 146.237 109.361 146.237 109.44C146.237 109.546 145.815 118.939 144.234 124.496C142.654 129.999 142.944 137.355 142.944 137.407C142.944 137.487 142.891 137.566 142.812 137.566Z" fill="#472938"/>
<path d="M148.186 125.712C148.16 125.712 148.16 125.712 148.186 125.712C148.081 125.686 148.055 125.633 148.055 125.553C149.082 120.156 148.265 109.043 148.265 108.911C148.265 108.831 148.318 108.778 148.397 108.778C148.476 108.778 148.529 108.831 148.529 108.911C148.529 109.016 149.346 120.182 148.318 125.606C148.292 125.659 148.239 125.712 148.186 125.712Z" fill="#472938"/>
<path d="M150.136 104.387C150.031 104.36 150.004 104.307 150.004 104.228C150.031 104.122 151.664 94.0146 153.245 89.3579C153.271 89.2785 153.35 89.252 153.403 89.2785C153.482 89.3049 153.508 89.3843 153.482 89.4372C151.928 94.0675 150.268 104.148 150.268 104.254C150.268 104.334 150.215 104.387 150.136 104.387Z" fill="#472938"/>
<path d="M148.186 103.275C148.134 103.275 148.081 103.222 148.055 103.169C148.055 103.116 147.185 98.6446 148.318 90.5746C148.318 90.4953 148.397 90.4423 148.476 90.4688C148.555 90.4688 148.608 90.5482 148.582 90.6276C147.475 98.6711 148.318 103.09 148.318 103.143C148.318 103.196 148.265 103.275 148.186 103.275Z" fill="#472938"/>
<path d="M150.584 50.7544L150.742 69.3285H132.326L134.091 52.7653L150.584 50.7544Z" fill="#FFEDE5"/>
<path d="M134.091 52.7653C134.091 52.7653 136.779 70.3605 150.663 60.0415L150.584 50.7544L134.091 52.7653Z" fill="#DE835C"/>
<path d="M131.129 49.9438C132.319 49.6037 132.734 47.3912 132.057 45.0019C131.38 42.6126 129.866 40.9514 128.677 41.2914C127.487 41.6315 127.072 43.8441 127.749 46.2334C128.427 48.6227 129.94 50.2839 131.129 49.9438Z" fill="#DE835C"/>
<path d="M150.61 52.5007C150.61 52.5007 150.558 57.0252 150.347 60.0415C150.347 60.0415 148.187 66.8944 149.161 73.2709C150.136 79.6475 149.82 84.3572 148.292 86.6327L150.004 85.8125C150.004 85.8125 158.778 85.9183 158.672 73.0857C158.672 73.0857 163.099 65.8889 156.459 57.4485C149.82 49.0081 153.561 44.4043 153.561 44.4043C153.561 44.4043 150.821 45.7802 150.61 52.5007Z" fill="#3B2645"/>
<path d="M153.508 44.3774C153.508 44.3774 150.821 45.7798 150.584 52.5003C150.584 52.5003 150.531 57.0248 150.32 60.0411C151.374 57.2365 152.27 54.3789 153.008 51.4684C151.506 46.8381 153.508 44.3774 153.508 44.3774Z" fill="#3B2645"/>
<path d="M154.612 45.8392C155.327 43.4611 154.946 41.2422 153.762 40.8833C152.578 40.5243 151.039 42.1612 150.324 44.5393C149.609 46.9174 149.99 49.1362 151.174 49.4952C152.358 49.8541 153.897 48.2173 154.612 45.8392Z" fill="#FFEDE5"/>
<path d="M129.612 32.6296C129.612 32.6296 129.138 46.3882 130.956 52.1562C132.774 57.9243 137.305 61.5756 140.283 61.5756C143.26 61.5756 149.056 59.406 151.322 50.1454C153.587 40.8847 153.324 29.2693 143.602 26.2265C133.88 23.1837 129.612 29.5603 129.612 32.6296Z" fill="#FFEDE5"/>
<path d="M152.428 42.5784C152.428 42.5784 151.901 38.8477 149.899 36.8103C147.897 34.773 143.787 33.3971 144.551 30.1427C144.551 30.1427 141.916 31.7038 137.174 31.7038C132.431 31.7038 129.165 35.408 129.639 41.7052L129.033 41.2819C129.033 41.2819 126.767 32.3388 129.533 27.9995C132.326 23.6602 138.913 20.9085 144.235 22.4167C149.556 23.9248 155.537 27.4968 155.01 34.4819C154.852 36.7045 154.536 38.9006 154.062 41.0702C154.062 41.0437 152.534 41.2819 152.428 42.5784Z" fill="#3B2645"/>
<path d="M133.854 43.6632C133.432 43.6632 133.09 43.3457 133.063 42.9224L133.037 42.4461C133.037 42.0228 133.353 41.6788 133.775 41.6523C134.196 41.6523 134.539 41.9699 134.565 42.3932L134.592 42.8695C134.592 43.2928 134.275 43.6632 133.854 43.6632Z" fill="#472938"/>
<path d="M145.631 44.06C145.21 44.0071 144.92 43.6102 144.999 43.1868L145.078 42.7106C145.131 42.2872 145.526 41.9962 145.947 42.0756C146.369 42.1285 146.659 42.5254 146.58 42.9487L146.501 43.425C146.422 43.8483 146.026 44.1129 145.631 44.06Z" fill="#472938"/>
<path d="M131.114 40.4351C131.114 40.4351 131.826 39.6414 133.485 39.6149C135.145 39.5884 135.672 39.7472 135.778 39.218C135.883 38.6888 132.326 37.3394 131.114 40.4351Z" fill="#472938"/>
<path d="M148.424 40.1969C148.424 40.1969 147.633 39.4561 145.842 39.5354C144.05 39.6148 143.523 39.8 143.392 39.2973C143.26 38.7946 147.027 37.1806 148.424 40.1969Z" fill="#472938"/>
<path d="M143.734 51.8919L136.778 51.6538C136.778 51.6538 137.147 56.4429 140.256 56.3635C143.365 56.2841 143.734 51.8919 143.734 51.8919Z" fill="white"/>
<path d="M139.835 49.8017C139.387 49.8017 138.965 49.6959 138.623 49.5371C138.333 49.3784 138.175 49.1667 138.096 48.9286C137.938 48.32 138.254 46.8383 138.623 44.9862L138.755 44.4041C139.36 41.4143 137.727 40.594 137.648 40.5676C137.569 40.5411 137.543 40.4353 137.569 40.3559C137.595 40.2765 137.701 40.2501 137.78 40.2765C137.859 40.303 139.703 41.229 139.044 44.457L138.913 45.0391C138.544 46.7854 138.254 48.32 138.386 48.8492C138.438 49.008 138.544 49.1403 138.755 49.2725C139.255 49.5371 140.045 49.5901 140.783 49.3519C140.862 49.3255 140.968 49.3784 140.994 49.4578C141.02 49.5371 140.968 49.643 140.889 49.6694C140.546 49.7488 140.177 49.8017 139.835 49.8017Z" fill="#472938"/>
<path d="M164.969 73.271C164.969 73.271 170.475 73.5356 173.215 81.4203C175.955 89.2786 184.623 112.139 184.966 116.346C185.308 120.553 184.017 123.94 178.037 125.183C172.952 126.242 159.463 122.299 158.356 122.194C157.25 122.088 154.114 122.008 153.061 120.183C152.007 118.357 151.427 115.261 151.427 115.261C151.427 115.261 148.661 114.203 148.187 114.203C147.712 114.203 144.366 114.415 144.05 113.912C143.734 113.409 143.734 112.457 143.839 112.007C143.839 112.007 143.26 110.948 143.444 110.313C143.444 110.313 142.838 108.779 142.891 108.435C142.944 108.091 144.577 107.085 144.92 107.006C145.262 106.927 149.214 106.768 149.214 106.768C149.214 106.768 148.028 105.313 147.818 105.26C147.607 105.207 144.788 105.313 144.788 105.313L144.735 106.027C144.735 106.027 143.971 105.366 143.839 104.995C143.708 104.625 143.945 103.54 144.261 103.408C144.577 103.275 148.318 102.032 149.451 102.429C150.584 102.826 154.193 105.048 154.668 105.789C155.142 106.53 157.803 113.965 158.646 114.52C159.489 115.076 163.81 115.685 170.713 114.203L160.885 89.2522L164.969 73.271Z" fill="#FFEDE5"/>
</svg>
