<svg width="300" height="189" viewBox="0 0 300 189" fill="none" xmlns="http://www.w3.org/2000/svg">
<g clip-path="url(#clip0_1337_3235)">
<path fill-rule="evenodd" clip-rule="evenodd" d="M276.719 160.917C276.719 173.901 217.905 188.135 155.521 188.135C93.1371 188.135 42.1306 165.572 42.1306 152.589C42.1306 139.605 101.407 137.42 163.775 137.42C226.143 137.42 276.719 147.933 276.719 160.917Z" fill="#E2CAB3"/>
<path fill-rule="evenodd" clip-rule="evenodd" d="M286.375 174.171C286.55 181.106 271.524 187.122 252.801 187.597C234.078 188.072 218.749 182.847 218.574 175.896C218.398 168.945 233.425 162.944 252.148 162.469C270.871 161.994 286.2 167.22 286.375 174.171Z" fill="#E2CAB3"/>
<path fill-rule="evenodd" clip-rule="evenodd" d="M13.7666 124.817C3.79161 148.314 15.9337 160.617 32.1073 162.643C38.4812 163.435 48.0419 159.049 55.1168 156.31C60.8733 153.769 66.3383 150.621 71.4179 146.921C73.824 144.466 76.6604 141.125 77.234 137.42C77.3111 135.989 77.0031 134.562 76.3417 133.288C76.5215 132.754 76.785 132.252 77.1225 131.799C77.9829 130.216 75.6565 128.997 76.8197 127.223C78.6681 124.389 76.2301 121.333 75.035 118.816C74.6367 118.008 64.3589 108.936 63.8808 108.065C55.308 99.0554 52.9975 94.812 41.206 92.9595C26.4028 90.6161 12.0457 95.9837 13.7666 124.817Z" fill="#5F825C"/>
<g style="mix-blend-mode:multiply" opacity="0.4">
<path fill-rule="evenodd" clip-rule="evenodd" d="M19.1211 116.14C20.8102 116.346 21.6388 120.89 20.9376 126.337C20.2365 131.784 18.3244 135.964 16.6194 135.758C14.9144 135.552 14.1176 131.008 14.8028 125.561C15.488 120.114 17.3364 115.919 19.1211 116.14Z" fill="#5F825C"/>
</g>
<path fill-rule="evenodd" clip-rule="evenodd" d="M20.7143 141.616C17.0971 143.199 17.4317 147.839 18.8977 150.847C18.9337 150.895 18.9607 150.948 18.9774 151.005C19.3217 151.698 19.7497 152.347 20.2522 152.937C22.0279 155.184 24.4784 156.809 27.2474 157.576C30.7212 158.447 34.7048 157.861 36.7126 155.122C36.7617 155.038 36.8416 154.975 36.9356 154.948V154.6C36.4895 152.826 33.7487 152.478 32.2828 152.256C29.0958 151.765 28.1557 148.979 27.1837 146.398C26.2117 143.817 23.9012 140.159 20.7143 141.616Z" fill="#8DB54F"/>
<g style="mix-blend-mode:multiply" opacity="0.4">
<path fill-rule="evenodd" clip-rule="evenodd" d="M53.4437 106.719C50.4958 108.302 53.2365 111.88 54.6547 113.575C57.8416 117.501 62.2077 120.32 64.8687 124.785C67.5298 129.25 64.0561 136.169 68.3106 139.938C68.5157 140.12 68.7552 140.259 69.0151 140.348C69.275 140.437 69.5502 140.474 69.8246 140.456C70.099 140.439 70.3671 140.367 70.6133 140.245C70.8595 140.124 71.0788 139.954 71.2585 139.748C71.4449 139.448 71.5846 139.123 71.6728 138.782C72.1907 138.124 72.5946 137.386 72.8679 136.597C73.5848 134.12 73.4899 131.48 72.597 129.06C71.9278 126.891 73.4256 124.785 72.7723 122.616C72.4729 121.807 71.9936 121.076 71.37 120.478C70.7164 119.725 69.9664 119.059 69.1392 118.499C67.5968 117.224 66.1729 115.815 64.8847 114.287C63.3415 112.47 61.6464 110.785 59.8175 109.252C57.8894 107.431 55.3877 105.658 53.4437 106.719Z" fill="#5F825C"/>
</g>
<path fill-rule="evenodd" clip-rule="evenodd" d="M16.4759 126.274C14.8825 126.005 13.8786 125.372 8.73172 124.105C3.58485 122.838 0.971587 122.553 0.174859 122.078C-0.621869 121.603 1.60897 119.117 1.60897 119.117C1.60897 119.117 5.46513 120.59 8.63611 121.761C11.8071 122.933 17.6073 124.485 17.6073 124.485C17.6073 124.485 18.5155 124.991 18.149 125.815C17.7825 126.638 16.4759 126.274 16.4759 126.274Z" fill="#300D33"/>
<path fill-rule="evenodd" clip-rule="evenodd" d="M286.822 80.4985C282.504 81.496 278.855 84.0927 274.361 84.3144C269.581 84.5519 264.8 82.5727 260.132 81.6702C249.981 79.7068 239.592 78.6143 229.33 77.4901C208.615 75.2101 187.629 74.2284 166.835 71.8533C146.04 69.4783 125.405 66.7707 104.594 66.8657C94.5688 66.8908 84.5633 67.7594 74.6852 69.4624C66.5427 70.8716 58.2567 72.5183 51.4367 77.3793C46.1877 81.2159 42.232 86.5432 40.0913 92.6588C37.3187 100.101 51.9625 145.67 54.1774 148.662C73.4264 173.996 105.742 179.538 158.915 178.477C215.738 177.337 237.696 171.051 253.79 156.928C262.442 149.343 269.724 129.836 271.031 126.02C273.246 119.291 275.7 112.657 277.994 105.959C279.444 101.716 280.958 97.5197 282.775 93.4188C284.697 89.5661 286.296 85.5625 287.555 81.4485C287.591 81.3365 287.6 81.2174 287.579 81.1015C287.559 80.9856 287.511 80.8762 287.439 80.7829C287.367 80.6895 287.273 80.6148 287.166 80.5653C287.058 80.5158 286.94 80.4929 286.822 80.4985V80.4985Z" fill="#DA840D"/>
<path fill-rule="evenodd" clip-rule="evenodd" d="M278.217 83.6179C270.966 88.6847 260.529 88.8905 252.036 90.5531C231.066 94.6698 210.16 97.504 188.76 96.9974C167.822 96.5224 146.868 94.0681 126.01 92.3581C104.689 90.6164 83.3209 89.3655 61.9367 90.3314C57.2127 90.503 52.5264 91.2366 47.9781 92.5164C45.6516 93.1815 42.1779 94.0998 41.0147 96.4749C40.7277 97.0912 40.5705 97.7593 40.5526 98.4382V98.5491C39.5009 102.064 40.7278 105.009 41.9389 108.128C42.2257 109.443 42.5444 110.757 42.8471 112.071C42.3054 112.071 42.2257 112.894 42.8471 112.91H43.0224C43.0882 112.984 43.1691 113.044 43.2598 113.084C43.3504 113.125 43.4488 113.146 43.5483 113.146C43.6477 113.146 43.7461 113.125 43.8367 113.084C43.9274 113.044 44.0083 112.984 44.0741 112.91C47.8346 112.91 51.5633 112.214 55.3398 112.119C61.0125 111.96 65.8248 114.842 70.7804 117.217C79.6719 121.429 88.0694 126.353 97.0724 130.09C101.089 131.76 105.222 133.141 109.438 134.222C113.641 135.121 117.9 135.745 122.185 136.091C126.743 136.677 131.252 137.674 135.793 138.292C140.88 138.89 146.008 139.055 151.122 138.782C171.434 138.427 191.684 136.441 211.674 132.845C229.839 129.456 248.005 124.358 263.828 114.62C270.084 110.841 275.383 105.683 279.316 99.5466C281.133 96.7124 282.678 93.6565 284.367 90.7431C285.61 88.5739 287.108 85.993 286.885 83.4754C286.518 77.997 280.447 82.0821 278.217 83.6179Z" fill="#C66720"/>
<path opacity="0.4" fill-rule="evenodd" clip-rule="evenodd" d="M156.031 167.837C77.1549 178.921 53.5399 147.364 54.257 148.298C73.5059 173.632 105.837 179.174 158.995 178.113C215.818 176.989 238.907 170.323 255.017 156.199C263.175 149.027 272.21 122.569 274.011 117.423C234.541 149.692 223.275 158.337 156.031 167.837Z" fill="#C66720"/>
<path fill-rule="evenodd" clip-rule="evenodd" d="M299.919 54.6896C299.011 49.132 290.359 48.3561 286.088 46.7727C282.312 45.3794 279.714 42.0226 276.639 39.5051C273.32 36.779 269.629 34.5346 265.676 32.8391C256.673 28.9757 247.654 25.8881 239.448 20.4255C231.895 15.3746 222.621 14.7254 213.952 13.3162C208.594 12.4849 203.349 11.0452 198.321 9.02529C193.854 6.93943 189.136 5.43342 184.282 4.54437C179.279 3.87935 174.132 5.01938 169.128 5.22521C163.583 5.44688 158.484 3.64185 153.274 2.05848C149.02 0.527736 144.502 -0.145111 139.984 0.0792731C135.777 0.427614 132.017 2.64433 128.479 4.82937C128.391 4.87837 128.316 4.9493 128.263 5.03529C128.21 5.12128 128.18 5.21942 128.177 5.32022C124.177 7.39443 120.337 9.70614 116.321 11.7962C112.971 13.6326 109.377 14.9917 105.645 15.8338C101.072 16.7838 96.7697 16.0238 92.2283 15.4379C84.261 14.4087 76.724 14.2187 69.171 17.1163C60.1839 20.568 53.0293 27.5982 44.1219 31.3666C36.4573 34.5333 29.7808 38.2859 25.0004 45.3002C23.0107 48.2441 21.6544 51.5647 21.0167 55.0537C20.4272 58.8063 21.3354 62.2106 22.1322 65.884C23.1838 70.6341 22.2437 74.4342 20.8733 79.0101C19.7056 82.0273 19.7916 85.3819 21.1124 88.3361C22.3552 90.7428 25.0004 92.2945 27.3109 93.5295C29.6214 94.7646 35.5172 96.0946 36.0112 98.9763C38.1145 111.2 51.9457 105.468 60.0883 108.477C64.0879 109.981 67.7847 112.261 71.848 113.733C76.5168 115.428 81.4087 116.694 86.1891 117.977C95.7498 120.542 104.96 123.962 114.25 127.477C118.345 129.06 122.217 131.024 126.599 131.815C130.981 132.607 135.507 131.895 139.841 131.515C148.844 130.707 177.319 133.098 181.095 131.182C185.987 128.791 190.529 129.013 195.819 129.456C199.946 129.804 203.515 126.764 207.658 126.432C212.421 125.966 217.117 124.983 221.665 123.503C225.721 121.946 229.853 120.593 234.046 119.449C238.826 118.388 243.001 114.953 247.829 114.303C257.215 113.021 264.099 107.796 271.365 101.731C277.962 96.2371 293.562 77.3 294.916 73.5475C296.27 69.7949 297.274 65.6306 298.374 61.7514C298.979 59.5822 300.302 57.0013 299.919 54.6896Z" fill="#F0A508"/>
<g opacity="0.5">
<path opacity="0.5" fill-rule="evenodd" clip-rule="evenodd" d="M152.7 26.7743C151.378 28.5002 149.784 28.9752 149.928 39.7104C150.071 50.4457 151.107 54.4991 146.948 62.6376C142.789 70.7761 134.726 78.6771 131.874 87.3381C129.022 95.9991 125.42 110.218 129.069 115.744C132.718 121.27 146.008 123.993 164.125 124.484C182.243 124.975 202.113 122.03 213.284 118.578C224.454 115.126 230.907 113.701 233.441 110.661C235.974 107.621 223.338 81.6538 214.495 71.5203C205.651 61.3867 201.412 58.03 191.437 49.6381C181.462 41.2463 177.096 37.9054 172.172 31.1286C167.249 24.3518 165.974 23.9876 160.795 24.0668C157.87 24.0585 155.025 25.0103 152.7 26.7743V26.7743Z" fill="#E2CAB3"/>
<path opacity="0.5" fill-rule="evenodd" clip-rule="evenodd" d="M52.0576 95.0023C59.0848 78.8995 68.3587 71.5685 70.956 67.9267C78.1106 57.904 82.3492 53.5181 91.8303 52.0931C101.311 50.6681 96.1167 50.7156 106.888 49.2114C117.66 47.7072 126.695 45.3796 133.977 39.7112C141.259 34.0427 145.02 29.6251 148.892 28.2476C152.764 26.8701 158.74 23.7983 154.501 28.1368C150.262 32.4752 155.919 34.1219 147.952 45.8863C139.985 57.6507 136.192 63.7308 133.356 72.8035C130.519 81.8762 127.587 110.187 121.102 112.419C114.617 114.652 99.1443 115.048 84.7713 109.743C73.6184 105.393 62.6993 100.473 52.0576 95.0023V95.0023Z" fill="#E2CAB3"/>
<path opacity="0.5" fill-rule="evenodd" clip-rule="evenodd" d="M246.3 102.238C246.3 102.238 259.621 98.1051 267.27 91.5025C274.918 84.8998 282.567 78.7405 284.989 69.6678C287.411 60.5952 290.152 58.3309 287.188 55.6392C284.224 52.9475 268.369 38.6497 255.319 31.6037C242.268 24.5577 225.681 20.1085 210.925 17.0209C196.17 13.9334 188.346 15.7384 180.649 15.4376C172.953 15.1367 160.763 23.9561 160.938 24.0511C165.2 28.1231 169.94 31.6691 175.056 34.6121C181.972 38.2222 198.098 44.334 205.969 48.8624C213.841 53.3908 220.087 63.3977 221.904 68.0845C223.721 72.7712 226.27 74.2279 228.867 83.2056C231.465 92.1833 238.667 106.639 238.667 106.639L246.3 102.238Z" fill="#E2CAB3"/>
<path opacity="0.5" fill-rule="evenodd" clip-rule="evenodd" d="M30.3551 47.6909C30.3551 47.6909 24.2043 64.1104 27.3912 72.0114C29.6014 77.1939 32.6121 82.0019 36.3146 86.2617C36.3146 86.2617 44.2819 93.8302 49.7156 85.9925C55.1493 78.1549 66.9249 59.8512 76.2785 52.7894C85.6321 45.7275 97.2802 44.2075 105.917 43.1783C114.553 42.1491 134.838 38.6816 140.447 34.1373C146.056 29.593 160.939 24.0513 160.939 24.0513C154.5 21.1139 147.793 18.7969 140.909 17.1319C130.488 14.7569 113.82 21.1062 100.292 17.9395C86.7634 14.7727 73.5696 21.9137 58.5911 29.5139C48.6446 34.7109 39.1938 40.7949 30.3551 47.6909V47.6909Z" fill="#E2CAB3"/>
<path opacity="0.5" fill-rule="evenodd" clip-rule="evenodd" d="M119.589 14.0764C119.589 14.0764 133.595 0.95025 143.108 1.18775C155.139 1.50443 159.043 4.13282 164.795 5.93785C171.344 7.96456 173.958 8.77208 172.269 11.3846C170.579 13.9972 162.612 25.6349 162.612 25.6349C162.612 25.6349 143.491 16.3089 136.48 15.2322C130.887 14.4215 125.24 14.0351 119.589 14.0764V14.0764Z" fill="#E2CAB3"/>
</g>
<path opacity="0.4" fill-rule="evenodd" clip-rule="evenodd" d="M257.343 28.6114C253.566 27.028 249.774 25.7138 246.061 23.9563C241.713 21.7379 237.245 19.7609 232.676 18.0345C228.554 16.7779 224.324 15.9033 220.04 15.4219C210.352 13.8386 201.46 9.86432 192.17 7.01426C186.844 5.38593 181.278 4.66849 175.71 4.89255C170.866 5.20921 166.006 5.20921 161.162 4.89255C156.381 4.38587 152.175 2.18499 147.522 0.965797C141.865 -0.522567 137.164 0.965797 132.145 3.64169C124.735 7.4576 117.342 12.1127 109.311 14.5511C105.021 15.9411 100.533 16.6257 96.0213 16.5778C91.2409 16.4195 86.6836 15.4694 81.9829 15.1528C76.8044 14.6034 71.5763 15.5489 66.9248 17.8761C63.3943 19.7354 60.0675 21.9534 56.9975 24.4946C56.9816 24.7741 56.9816 25.0543 56.9975 25.3338C56.0709 28.0238 55.7393 30.8808 56.0255 33.7098C56.1657 36.5965 56.9266 39.4199 58.2569 41.99C59.5872 44.56 61.4561 46.8171 63.7378 48.6093C67.0522 51.396 70.526 53.5336 73.2986 56.8745C76.0712 60.2154 78.0789 63.6988 81.2659 66.3747C86.4605 70.7764 93.3602 71.1248 99.8934 71.1248C103.335 71.1248 106.761 70.9506 110.187 71.1248C114.889 71.6168 119.513 72.6803 123.955 74.2915C133.133 77.1416 142.136 81.0841 151.617 82.9367C161.098 84.7892 170.499 82.5567 179.71 80.1025C188.92 77.6482 198.002 76.0015 207.021 73.6265C215.176 71.6346 222.915 68.237 229.887 63.5879C237.329 58.2164 244.058 51.9336 249.917 44.8884C252.164 42.2917 254.299 39.5999 256.514 36.9715C258.484 34.9908 259.801 32.4617 260.291 29.7197C259.29 29.3998 258.306 29.0298 257.343 28.6114V28.6114Z" fill="#E2CAB3"/>
<path fill-rule="evenodd" clip-rule="evenodd" d="M130.201 39.4893C129.468 39.6476 128.735 39.7743 128.049 39.8693H127.826C122.823 40.8351 117.867 42.0385 112.72 41.6426C109.247 41.3893 95.6704 41.7535 98.8573 47.9761C98.895 48.0838 98.895 48.2009 98.8573 48.3086C101.662 50.082 107.892 49.3536 110.012 49.1953C111.808 49.0733 113.593 48.8139 115.35 48.4194C120.347 46.4499 125.101 43.9157 129.515 40.8668C129.801 40.4378 130.031 39.9751 130.201 39.4893Z" fill="#C66720"/>
<path fill-rule="evenodd" clip-rule="evenodd" d="M149.96 52.2512C150.289 48.9359 150.171 45.5918 149.609 42.3076C147.481 47.3323 144.752 52.0848 141.483 56.4629C139.571 58.8538 137.037 60.928 135.491 63.5881C134.663 65.0131 133.516 67.1348 134.121 68.8765C135.077 71.6157 136.766 71.5999 138.567 71.2357C141.658 69.3357 144.494 64.9022 146.024 62.6222C147.439 60.5101 148.59 58.2344 149.45 55.8454C149.625 54.6579 149.785 53.4703 149.96 52.2512Z" fill="#C66720"/>
<path fill-rule="evenodd" clip-rule="evenodd" d="M200.902 42.7515C197.166 41.2395 193.352 39.9235 189.477 38.8089C187.111 38.1975 184.799 37.398 182.562 36.418C180.845 35.3936 178.904 34.7961 176.905 34.6763C176.784 34.6684 176.663 34.6917 176.554 34.744C176.445 34.7962 176.352 34.8756 176.283 34.9745C176.214 35.0733 176.172 35.1882 176.161 35.308C176.15 35.4278 176.17 35.5484 176.22 35.658C176.378 36.1618 176.69 36.6044 177.112 36.9247C179.488 40.2268 182.12 43.3396 184.984 46.2349C187.549 49.1166 189.764 52.22 192.632 54.8959C196.52 58.6168 203.548 60.881 207.531 55.7509C211.929 50.035 205.938 44.8574 200.902 42.7515Z" fill="#C66720"/>
<path fill-rule="evenodd" clip-rule="evenodd" d="M184.84 14.6941C183.486 11.7965 179.088 11.8757 176.172 12.5565C175.935 12.5872 175.701 12.6348 175.471 12.699C171.435 14.7619 168.304 18.2279 166.675 22.4367V22.4367C171.455 21.0275 174.977 17.6866 180.028 17.1008C180.841 17.0058 185.764 16.6416 184.84 14.6941Z" fill="#C66720"/>
<path fill-rule="evenodd" clip-rule="evenodd" d="M117.405 19.9504C118.045 20.1531 118.709 20.2703 119.381 20.2987C120.959 20.0303 122.561 19.9242 124.161 19.9821C124.782 19.951 125.404 19.951 126.025 19.9821C128.112 20.0652 130.192 20.2661 132.256 20.5837L133.069 20.8054C134.203 20.9248 135.342 20.6137 136.255 19.9346C131.587 17.892 118.727 13.0469 116.975 19.3012C116.95 19.4434 116.981 19.5895 117.061 19.71C117.141 19.8304 117.264 19.9164 117.405 19.9504V19.9504Z" fill="#C66720"/>
<path fill-rule="evenodd" clip-rule="evenodd" d="M30.0047 88.4785C29.6315 89.3023 29.3639 90.1693 29.208 91.0594C28.9695 91.7217 28.8299 92.4152 28.7937 93.1177C28.8012 93.162 28.8191 93.2038 28.846 93.2399C28.8728 93.2759 28.9079 93.3051 28.9482 93.3252C28.9886 93.3453 29.0332 93.3556 29.0783 93.3553C29.1235 93.355 29.1679 93.3441 29.208 93.3236C29.686 93.0544 29.702 92.2469 29.7816 91.7402C29.9261 90.6642 30.1715 89.6041 30.5146 88.5735C30.6421 88.336 30.1481 88.1776 30.0047 88.4785Z" fill="#C66720"/>
<path fill-rule="evenodd" clip-rule="evenodd" d="M32.9997 90.9321C32.5928 91.7162 32.2978 92.5529 32.1233 93.418C31.9958 93.8771 31.6293 94.6055 31.7727 95.0013C31.7818 95.0526 31.8065 95.0999 31.8436 95.1368C31.8807 95.1736 31.9282 95.1982 31.9799 95.2072C32.5854 95.2072 32.6491 94.4155 32.7447 93.988C32.9678 93.0538 33.159 92.0879 33.4777 91.1696C33.5893 90.9004 33.159 90.6471 32.9997 90.9321Z" fill="#C66720"/>
<path fill-rule="evenodd" clip-rule="evenodd" d="M47.4053 101.731C47.2619 103.314 46.752 104.898 46.7679 106.576C46.7679 107.051 47.5169 107.13 47.5328 106.576C47.7736 104.944 47.9279 103.3 47.9949 101.652C47.979 101.335 47.4372 101.414 47.4053 101.731Z" fill="#C66720"/>
<path fill-rule="evenodd" clip-rule="evenodd" d="M51.3568 102.555C50.8358 103.803 50.5861 105.147 50.6238 106.497C50.6238 107.004 51.4365 107.099 51.4524 106.497C51.4995 105.19 51.6433 103.889 51.8827 102.602C51.9464 102.349 51.4684 102.27 51.3568 102.555Z" fill="#C66720"/>
<path fill-rule="evenodd" clip-rule="evenodd" d="M115.749 124.168C115.509 124.764 115.337 125.385 115.239 126.02C115.089 126.588 115.024 127.175 115.048 127.762C115.069 127.825 115.109 127.88 115.163 127.92C115.218 127.959 115.283 127.98 115.35 127.98C115.417 127.98 115.483 127.959 115.537 127.92C115.592 127.88 115.632 127.825 115.653 127.762C115.788 127.245 115.858 126.713 115.86 126.179C115.956 125.514 115.988 124.849 116.115 124.184C116.147 124.041 115.828 123.994 115.749 124.168Z" fill="#C66720"/>
<path fill-rule="evenodd" clip-rule="evenodd" d="M120.274 124.722C120.025 125.522 119.854 126.344 119.764 127.176C119.585 127.874 119.531 128.597 119.605 129.314C119.63 129.375 119.672 129.428 119.728 129.466C119.783 129.503 119.849 129.523 119.915 129.523C119.982 129.523 120.048 129.503 120.103 129.466C120.159 129.428 120.201 129.375 120.226 129.314C120.396 128.69 120.472 128.044 120.449 127.398C120.449 126.511 120.593 125.624 120.672 124.754C120.664 124.709 120.641 124.669 120.607 124.639C120.573 124.608 120.531 124.59 120.485 124.587C120.44 124.583 120.395 124.594 120.357 124.619C120.318 124.643 120.289 124.679 120.274 124.722V124.722Z" fill="#C66720"/>
<path fill-rule="evenodd" clip-rule="evenodd" d="M138.264 127.43C138.264 127.176 137.961 126.955 137.834 127.192C137.424 127.975 137.205 128.843 137.197 129.726C137.197 130.169 137.085 131.309 137.643 131.42C137.678 131.432 137.716 131.438 137.754 131.436C137.791 131.434 137.828 131.424 137.862 131.408C137.896 131.392 137.927 131.369 137.952 131.341C137.977 131.314 137.997 131.281 138.009 131.246C138.035 130.752 137.998 130.257 137.898 129.773C137.891 128.977 138.015 128.186 138.264 127.43V127.43Z" fill="#C66720"/>
<path fill-rule="evenodd" clip-rule="evenodd" d="M142.741 127.271C142.73 127.235 142.708 127.204 142.678 127.182C142.648 127.16 142.611 127.148 142.574 127.148C142.537 127.148 142.5 127.16 142.47 127.182C142.44 127.204 142.418 127.235 142.407 127.271C142.054 128.624 141.915 130.023 141.992 131.419C141.992 131.847 142.678 131.894 142.662 131.419C142.587 130.036 142.613 128.65 142.741 127.271V127.271Z" fill="#C66720"/>
<path fill-rule="evenodd" clip-rule="evenodd" d="M147.649 127.762C147.649 127.708 147.627 127.656 147.588 127.617C147.55 127.578 147.497 127.557 147.442 127.557C147.387 127.557 147.334 127.578 147.295 127.617C147.257 127.656 147.235 127.708 147.235 127.762C147.171 128.396 147.123 129.029 147.091 129.663C147.091 130.122 146.773 130.723 147.091 131.119C147.116 131.138 147.147 131.149 147.179 131.149C147.211 131.149 147.242 131.138 147.267 131.119C147.808 131.119 147.777 130.248 147.808 129.837C147.837 129.141 147.784 128.445 147.649 127.762V127.762Z" fill="#C66720"/>
<path fill-rule="evenodd" clip-rule="evenodd" d="M234.938 117.866C234.938 117.961 234.938 117.708 234.938 117.676C234.842 117.45 234.762 117.217 234.699 116.979C234.54 116.362 234.508 115.697 234.317 115.079C234.317 114.905 233.967 114.81 233.919 115.079C233.871 115.348 233.919 118.832 234.907 118.246C234.941 118.229 234.971 118.204 234.993 118.172C235.015 118.14 235.028 118.103 235.031 118.065C235.035 118.027 235.028 117.988 235.011 117.953C234.995 117.918 234.97 117.888 234.938 117.866V117.866Z" fill="#C66720"/>
<path fill-rule="evenodd" clip-rule="evenodd" d="M240.612 116.441C240.295 115.471 239.912 114.524 239.464 113.606C239.443 113.541 239.397 113.487 239.336 113.456C239.274 113.425 239.203 113.419 239.138 113.44C239.072 113.461 239.018 113.507 238.986 113.568C238.955 113.629 238.949 113.7 238.97 113.765C239.208 114.788 239.517 115.793 239.895 116.773C240.07 117.248 240.803 116.916 240.612 116.441Z" fill="#C66720"/>
<path fill-rule="evenodd" clip-rule="evenodd" d="M246.061 113.638C245.507 112.845 245.132 111.943 244.962 110.993C244.947 110.935 244.913 110.883 244.866 110.846C244.818 110.809 244.759 110.789 244.699 110.789C244.638 110.789 244.579 110.809 244.532 110.846C244.484 110.883 244.45 110.935 244.436 110.993C244.363 112.129 244.702 113.252 245.392 114.16C245.695 114.667 246.38 114.097 246.061 113.638Z" fill="#C66720"/>
<path fill-rule="evenodd" clip-rule="evenodd" d="M252.849 112.862C252.314 112.415 251.875 111.865 251.56 111.244C251.245 110.624 251.06 109.946 251.017 109.252C251.02 109.214 251.012 109.176 250.994 109.143C250.975 109.109 250.946 109.082 250.912 109.065C250.877 109.048 250.839 109.041 250.801 109.047C250.762 109.052 250.727 109.068 250.698 109.094C249.296 110.076 251.399 112.609 252.18 113.353C252.578 113.797 253.248 113.258 252.849 112.862Z" fill="#C66720"/>
<path fill-rule="evenodd" clip-rule="evenodd" d="M260.53 109.252C259.688 107.834 258.756 106.47 257.742 105.167C257.63 104.977 257.264 105.04 257.343 105.294C257.837 106.877 259.239 108.001 259.925 109.537C260.1 109.965 260.705 109.68 260.53 109.252Z" fill="#C66720"/>
<path fill-rule="evenodd" clip-rule="evenodd" d="M266.871 104.36C266.728 104.059 266.345 103.885 266.09 103.695L264.831 102.777C264.513 102.539 264.178 102.318 263.843 102.096C263.509 101.874 263.493 102.001 263.349 101.922C263.206 101.843 263.222 101.922 263.27 101.922C263.318 101.922 263.349 102.175 263.461 102.286C263.743 102.577 264.041 102.852 264.353 103.109C264.752 103.458 265.166 103.774 265.58 104.091C265.995 104.408 266.218 104.677 266.584 104.677C266.625 104.677 266.665 104.669 266.702 104.653C266.739 104.636 266.772 104.613 266.799 104.583C266.826 104.553 266.847 104.517 266.859 104.479C266.871 104.441 266.875 104.4 266.871 104.36V104.36Z" fill="#C66720"/>
<path fill-rule="evenodd" clip-rule="evenodd" d="M272.274 100.402C272.244 100.31 272.19 100.227 272.117 100.163C272.044 100.099 271.955 100.056 271.859 100.038C271.562 99.9007 271.288 99.7191 271.047 99.4992C270.485 99.0103 270.001 98.4389 269.613 97.805C269.437 97.5359 269.023 97.805 269.15 98.1059C269.49 98.8631 269.984 99.5423 270.6 100.101C270.983 100.449 271.7 101.035 272.194 100.703C272.237 100.667 272.268 100.619 272.282 100.565C272.296 100.511 272.293 100.454 272.274 100.402Z" fill="#C66720"/>
<path fill-rule="evenodd" clip-rule="evenodd" d="M290.264 80.0392C290.191 79.9536 290.101 79.884 290 79.835C289.898 79.7859 289.787 79.7584 289.675 79.7542C289.321 79.6933 288.984 79.5583 288.687 79.3583C288.053 78.9229 287.577 78.2952 287.332 77.5691C287.332 77.3316 286.918 77.4741 286.934 77.6958C287.033 78.5503 287.461 79.3335 288.129 79.8808C288.591 80.2608 289.722 80.8784 290.248 80.3242C290.284 80.2861 290.306 80.2367 290.308 80.1846C290.311 80.1324 290.296 80.0809 290.264 80.0392V80.0392Z" fill="#C66720"/>
<path fill-rule="evenodd" clip-rule="evenodd" d="M293.785 76.0012C292.439 75.3092 291.305 74.27 290.502 72.9927C290.359 72.7552 289.945 72.9927 290.088 73.1986C290.821 74.6604 292.02 75.8404 293.498 76.5553C293.817 76.682 294.104 76.1437 293.785 76.0012Z" fill="#C66720"/>
<path fill-rule="evenodd" clip-rule="evenodd" d="M295.968 70.4123C295.357 70.0167 294.771 69.5831 294.215 69.1139C293.673 68.6231 293.163 68.1322 292.622 67.6889C292.414 67.5306 292.144 67.8314 292.319 68.0372C293.149 69.3189 294.303 70.3617 295.665 71.0615C295.748 71.0821 295.835 71.0734 295.912 71.0369C295.989 71.0003 296.051 70.9383 296.087 70.8613C296.123 70.7844 296.13 70.6975 296.109 70.6155C296.087 70.5335 296.037 70.4617 295.968 70.4123Z" fill="#C66720"/>
<path fill-rule="evenodd" clip-rule="evenodd" d="M26.0529 84.2982C24.6733 86.1768 23.7416 88.3426 23.3281 90.6316C23.3281 90.8216 23.599 90.8375 23.6468 90.6316C24.1938 88.4576 25.1686 86.4126 26.515 84.6148C26.7063 84.314 26.2442 83.9973 26.0529 84.2982Z" fill="#C66720"/>
<path fill-rule="evenodd" clip-rule="evenodd" d="M23.5671 82.7309C23.2165 82.8893 23.0731 83.1901 22.8341 83.5068C22.5951 83.8235 22.1808 84.4251 21.8939 84.916C21.4875 85.4789 21.27 86.1549 21.2725 86.8477C21.2725 87.0852 21.639 87.0377 21.6549 86.8477C21.8401 86.1309 22.1769 85.4616 22.6429 84.8843C23.0253 84.2985 23.7742 83.6335 23.8539 82.9368C23.8567 82.9016 23.8503 82.8663 23.8354 82.8342C23.8204 82.8022 23.7975 82.7745 23.7687 82.7538C23.7398 82.7331 23.7062 82.7202 23.6709 82.7162C23.6356 82.7122 23.5998 82.7173 23.5671 82.7309V82.7309Z" fill="#C66720"/>
<path fill-rule="evenodd" clip-rule="evenodd" d="M28.1724 87.8773C27.7241 88.5933 27.3605 89.3584 27.0888 90.1573C26.7343 90.9028 26.4772 91.6903 26.324 92.5007C26.324 92.7065 26.6267 92.7699 26.6745 92.5007C26.8788 91.7203 27.1729 90.9658 27.5509 90.2523C28.0163 89.5327 28.3406 88.7323 28.507 87.8931C28.5091 87.849 28.4935 87.8059 28.4636 87.7732C28.4338 87.7406 28.392 87.721 28.3477 87.7189C28.3033 87.7168 28.2599 87.7323 28.227 87.762C28.1941 87.7917 28.1745 87.8332 28.1724 87.8773V87.8773Z" fill="#C66720"/>
<path fill-rule="evenodd" clip-rule="evenodd" d="M36.8082 93.4189C35.6131 93.7831 35.0554 95.3506 34.7367 96.4432C34.7246 96.4994 34.7336 96.5581 34.7618 96.6083C34.79 96.6585 34.8356 96.6968 34.8901 96.7162C34.9446 96.7355 35.0043 96.7346 35.0581 96.7135C35.112 96.6924 35.1563 96.6526 35.1828 96.6015C35.3738 96.0482 35.6249 95.5173 35.9318 95.0181C36.2345 94.5431 36.6647 94.1473 36.9834 93.6723C37.0472 93.5773 36.9516 93.4189 36.8082 93.4189Z" fill="#C66720"/>
<path fill-rule="evenodd" clip-rule="evenodd" d="M39.4534 98.1683C38.832 98.39 38.4973 99.1658 38.2105 99.7516C37.885 100.433 37.7371 101.184 37.7803 101.937C37.7803 102.19 38.1627 102.238 38.1787 101.937C38.2321 101.307 38.3937 100.691 38.6567 100.116C38.9116 99.4983 39.5331 99.0233 39.7084 98.4058C39.7205 98.3711 39.7223 98.3336 39.7135 98.2979C39.7046 98.2622 39.6855 98.2299 39.6586 98.2047C39.6316 98.1796 39.5978 98.1627 39.5614 98.1563C39.525 98.1498 39.4875 98.154 39.4534 98.1683Z" fill="#C66720"/>
<path fill-rule="evenodd" clip-rule="evenodd" d="M42.0187 99.8312C41.5079 100.641 41.1212 101.521 40.8714 102.444C40.5302 103.304 40.274 104.195 40.1065 105.104C40.0938 105.158 40.1035 105.216 40.1334 105.263C40.1633 105.311 40.2109 105.345 40.2659 105.357C40.3208 105.37 40.3785 105.36 40.4263 105.33C40.4742 105.301 40.5081 105.253 40.5208 105.199C40.758 104.317 41.0616 103.454 41.4291 102.618C41.8789 101.778 42.2011 100.876 42.3852 99.942C42.3925 99.9181 42.395 99.893 42.3926 99.8681C42.3901 99.8433 42.3828 99.8191 42.3709 99.7971C42.3591 99.775 42.343 99.7555 42.3236 99.7396C42.3041 99.7237 42.2818 99.7118 42.2577 99.7045C42.2336 99.6973 42.2084 99.6948 42.1833 99.6972C42.1583 99.6996 42.134 99.7069 42.1118 99.7187C42.0896 99.7304 42.0699 99.7464 42.054 99.7657C42.038 99.785 42.026 99.8073 42.0187 99.8312V99.8312Z" fill="#C66720"/>
<path fill-rule="evenodd" clip-rule="evenodd" d="M44.3611 102.381C43.8056 103.618 43.5753 104.974 43.6918 106.324C43.6918 106.593 44.1061 106.625 44.1061 106.324C44.1061 105.01 44.6957 103.711 44.616 102.413C44.6072 102.388 44.5915 102.366 44.5708 102.349C44.55 102.332 44.5249 102.322 44.4984 102.318C44.4719 102.315 44.445 102.319 44.4208 102.33C44.3965 102.341 44.3758 102.359 44.3611 102.381V102.381Z" fill="#C66720"/>
<path fill-rule="evenodd" clip-rule="evenodd" d="M124.911 125.941C124.347 127.408 124.134 128.985 124.289 130.548C124.289 130.754 124.656 130.738 124.672 130.548C124.672 129.788 124.783 128.965 124.879 128.284C125.063 127.533 125.154 126.762 125.15 125.988C125.15 125.83 124.958 125.846 124.911 125.941Z" fill="#C66720"/>
<path fill-rule="evenodd" clip-rule="evenodd" d="M129.069 128.98C129.069 128.252 129.42 127.603 129.484 126.875C129.475 126.85 129.458 126.829 129.437 126.815C129.416 126.8 129.39 126.792 129.364 126.792C129.338 126.792 129.313 126.8 129.291 126.815C129.27 126.829 129.254 126.85 129.245 126.875C128.782 127.616 128.512 128.46 128.459 129.33C128.406 130.201 128.572 131.071 128.942 131.862C129.053 132.1 129.372 131.862 129.292 131.704C129.008 130.825 128.931 129.893 129.069 128.98V128.98Z" fill="#C66720"/>
<path fill-rule="evenodd" clip-rule="evenodd" d="M132.894 129.519C132.943 128.796 132.879 128.069 132.703 127.366C132.685 127.333 132.659 127.305 132.627 127.285C132.594 127.266 132.557 127.256 132.52 127.256C132.482 127.256 132.445 127.266 132.412 127.285C132.38 127.305 132.354 127.333 132.336 127.366C132.201 128.083 132.201 128.818 132.336 129.535C132.382 130.362 132.527 131.18 132.766 131.973C132.766 132.242 133.26 132.179 133.197 131.973C133.029 131.165 132.927 130.344 132.894 129.519V129.519Z" fill="#C66720"/>
<path fill-rule="evenodd" clip-rule="evenodd" d="M276.289 93.4185C276.289 93.2444 276.05 93.1494 275.97 93.2919C275.839 93.4977 275.769 93.7366 275.769 93.9806C275.769 94.2246 275.839 94.4636 275.97 94.6694C276.225 95.1602 276.847 95.8886 277.452 95.8094C277.501 95.7981 277.542 95.7686 277.569 95.7273C277.596 95.686 277.605 95.636 277.596 95.5878C277.437 94.7327 276.082 94.3844 276.289 93.4185Z" fill="#C66720"/>
<path fill-rule="evenodd" clip-rule="evenodd" d="M282.042 90.8696C281.882 90.6163 281.739 90.5846 281.452 90.4896C281.06 90.3676 280.712 90.1369 280.448 89.8246C279.939 89.2269 279.583 88.515 279.412 87.7504C279.406 87.7192 279.394 87.6895 279.376 87.6631C279.358 87.6367 279.335 87.614 279.309 87.5963C279.282 87.5787 279.252 87.5664 279.221 87.5603C279.189 87.5541 279.157 87.5541 279.126 87.5604C279.094 87.5666 279.064 87.5789 279.038 87.5966C279.011 87.6143 278.988 87.6371 278.971 87.6635C278.953 87.69 278.941 87.7197 278.934 87.7509C278.928 87.7821 278.928 87.8142 278.934 87.8454C279.078 88.7192 279.434 89.5451 279.97 90.2521C280.369 90.7429 281.42 91.5504 282.058 91.1071C282.08 91.0707 282.091 91.0284 282.088 90.9858C282.085 90.9433 282.069 90.9027 282.042 90.8696V90.8696Z" fill="#C66720"/>
<path fill-rule="evenodd" clip-rule="evenodd" d="M284.75 85.5021C284.256 85.0112 283.73 84.5204 283.268 83.9979C283.077 83.7762 282.678 83.9979 282.822 84.2671C283.183 84.9043 283.621 85.4946 284.128 86.0246C284.559 86.4679 285.037 87.1805 285.722 87.228C285.755 87.2307 285.789 87.2259 285.82 87.2139C285.852 87.2019 285.88 87.183 285.903 87.1586C285.926 87.1343 285.943 87.1051 285.953 87.0732C285.963 87.0414 285.966 87.0077 285.961 86.9746C285.865 86.3571 285.228 85.9454 284.75 85.5021Z" fill="#C66720"/>
<path opacity="0.4" fill-rule="evenodd" clip-rule="evenodd" d="M168.3 30.3856C168.3 34.7398 161.592 38.3024 153.29 38.3024C144.988 38.3024 138.28 34.7715 138.28 30.3856C138.28 25.9997 144.988 22.4688 153.29 22.4688C161.592 22.4688 168.3 26.0313 168.3 30.3856Z" fill="#DA840D"/>
<path fill-rule="evenodd" clip-rule="evenodd" d="M250.49 96.5849C216.645 88.0505 202.48 106.782 203.037 128.822C203.26 137.436 211.164 149.311 216.359 158.289C220.967 165.462 226.341 172.119 232.389 178.144C236.213 180.852 241.312 183.971 246.427 183.971C248.388 183.779 250.263 183.074 251.861 181.928C252.61 182.074 253.334 182.324 254.012 182.672C256.434 183.496 257.502 180.139 260.147 181.327C264.369 183.242 268.018 179.347 271.173 177.226C272.193 176.545 282.328 160.933 283.427 160.11C293.864 146.793 299.123 142.867 299.234 126.7C299.362 106.497 289.148 88.3989 250.49 96.5849Z" fill="#C73A54"/>
<g style="mix-blend-mode:multiply">
<path fill-rule="evenodd" clip-rule="evenodd" d="M263.318 101.874C263.318 104.185 257.359 106.212 249.886 106.402C242.412 106.592 236.309 104.819 236.246 102.554C236.182 100.29 242.205 98.1685 249.678 98.026C257.152 97.8835 263.255 99.5619 263.318 101.874Z" fill="#ED6366"/>
</g>
<path fill-rule="evenodd" clip-rule="evenodd" d="M229.171 109.347C226.191 104.866 220.088 106.181 216.311 108.809L216.12 108.951C215.243 109.54 214.45 110.243 213.762 111.042C211.076 113.874 209.373 117.486 208.902 121.349C208.44 126.099 210.049 131.372 214.176 133.478C214.293 133.537 214.388 133.631 214.447 133.747C214.605 133.714 214.76 133.666 214.909 133.604C217.236 132.654 217.124 128.854 217.14 126.923C217.14 122.632 220.725 120.732 224.008 118.895C227.019 117.169 231.784 113.29 229.171 109.347Z" fill="#ED6366"/>
<g style="mix-blend-mode:multiply">
<path fill-rule="evenodd" clip-rule="evenodd" d="M283.092 145.924C280.288 142.329 276.081 146.715 274.074 148.932C269.405 154.078 266.489 160.427 260.975 164.892C255.462 169.357 245.455 166.111 241.169 172.603C240.968 172.916 240.832 173.265 240.768 173.63C240.703 173.995 240.712 174.37 240.793 174.731C240.875 175.093 241.027 175.436 241.242 175.739C241.457 176.042 241.73 176.3 242.045 176.498C242.491 176.672 242.956 176.789 243.431 176.847C244.423 177.399 245.5 177.785 246.618 177.987C250.114 178.441 253.664 177.775 256.753 176.087C259.557 174.757 262.728 176.308 265.517 174.994C266.547 174.436 267.436 173.65 268.114 172.698C269.008 171.668 269.759 170.523 270.345 169.294C271.747 166.987 273.347 164.805 275.125 162.771C277.287 160.332 279.243 157.722 280.973 154.965C283.045 152.004 284.925 148.299 283.092 145.924Z" fill="#ED6366"/>
</g>
<path fill-rule="evenodd" clip-rule="evenodd" d="M282.201 66.5021C280.321 65.8688 276.863 68.7188 275.397 69.5897C272.051 71.5847 268.657 73.5956 265.438 75.7806C260.549 79.1881 256.496 83.6478 253.582 88.8276C252.367 91.0333 251.553 93.4345 251.176 95.9211C250.682 97.2265 250.433 98.6113 250.443 100.006C250.435 100.104 250.445 100.202 250.475 100.296C250.505 100.39 250.553 100.477 250.617 100.552C250.68 100.627 250.758 100.689 250.846 100.733C250.934 100.778 251.03 100.806 251.129 100.814C259.287 100.909 267.637 95.6044 273.341 90.2684C276.33 87.65 278.698 84.4053 280.273 80.7682C281.058 78.7171 281.645 76.5964 282.026 74.4348C282.472 72.1231 281.803 69.3205 282.552 67.183C282.592 67.0465 282.579 66.8996 282.513 66.7728C282.448 66.6461 282.336 66.5491 282.201 66.5021V66.5021Z" fill="#8DB54F"/>
<path fill-rule="evenodd" clip-rule="evenodd" d="M249.072 100.528C249.072 98.2633 249.757 96.8541 250.411 89.729C251.064 82.6038 250.937 79.0412 251.415 77.8696C251.893 76.6979 255.717 79.1837 255.717 79.1837C255.717 79.1837 254.49 84.6464 253.582 89.1273C252.674 93.6082 251.765 101.668 251.765 101.668C251.765 101.668 251.271 102.982 250.076 102.649C248.881 102.317 249.072 100.528 249.072 100.528Z" fill="#300D33"/>
</g>
<defs>
<clipPath id="clip0_1337_3235">
<rect width="300" height="188.136" fill="white"/>
</clipPath>
</defs>
</svg>
