<svg width="250" height="257" viewBox="0 0 250 257" fill="none" xmlns="http://www.w3.org/2000/svg">
<path d="M243.963 25.7238C234.13 9.91192 199.481 0 116.136 0C87.8079 0 59.0117 3.30397 32.3225 13.4519C23.6603 16.9919 1.41927 26.1958 0.716925 48.6156C0.48281 53.3356 3.2922 57.3475 4.22866 62.0675L7.50628 75.0474C7.50628 74.5754 7.50628 74.3394 7.50628 73.8674C24.8308 154.815 129.246 147.971 189.414 125.079C211.889 116.583 229.214 104.547 239.983 82.3633C244.197 73.6314 248.177 61.5955 249.582 51.9196C250.05 48.8516 249.348 46.2556 249.816 43.1876C249.348 36.5797 247.007 30.6797 243.963 25.7238Z" fill="#688EAD"/>
<path d="M26.0015 44.601C29.7473 43.657 33.7273 43.657 37.239 42.713C42.3896 41.2971 46.3695 37.5211 50.5836 34.4531C57.8412 29.4971 66.2694 26.1932 74.9316 25.2492C84.0621 24.0692 93.6609 25.2492 102.791 23.8332C112.156 22.4172 121.287 18.4052 130.885 18.8772C140.016 19.3492 148.444 23.5972 157.574 24.3052C167.876 25.2492 178.879 21.4732 188.712 25.4852C193.394 27.3732 197.374 30.9131 202.291 32.3291C205.568 33.2731 209.08 33.2731 212.357 33.5091C219.849 34.4531 226.639 38.2291 233.428 41.769C238.578 44.601 243.963 47.669 246.304 53.097C249.114 59.9409 245.602 67.9648 240.451 73.3928C231.321 83.3047 217.976 87.7887 204.866 91.0926C176.07 98.1726 146.103 99.5886 116.37 100.297C93.4268 101.005 70.2493 101.241 47.5401 96.7566C39.1119 95.1046 30.4497 92.5086 24.3627 86.6087C13.8275 75.7528 5.39931 50.265 26.0015 44.601Z" fill="#F4D09F"/>
<path d="M194.331 37.287C193.863 38.939 192.224 40.119 190.819 41.063C188.478 42.715 185.669 44.1309 182.859 45.3109C181.689 45.7829 180.518 46.2549 179.582 47.1989C178.645 48.1429 178.411 49.7949 179.348 50.5029C179.816 50.9749 180.284 50.9749 180.752 51.2109C184.264 51.9189 187.308 49.5589 190.819 49.0869C193.395 48.6149 195.97 49.0869 198.545 49.3229C201.12 49.3229 203.93 49.0869 205.803 47.4349C206.505 46.9629 206.973 46.2549 206.973 45.3109C206.973 44.3669 206.505 43.6589 205.569 43.423C208.846 44.8389 212.592 45.3109 216.338 45.0749C217.274 45.0749 218.445 44.6029 218.913 43.6589C219.147 43.187 218.913 42.715 218.913 42.243C218.211 39.411 214.933 37.995 212.124 37.523C209.314 37.051 206.271 37.051 203.93 35.399C202.759 34.691 202.057 33.511 200.886 32.803C198.779 31.387 194.331 30.4431 192.224 32.095C193.629 33.275 195.033 35.163 194.331 37.287Z" fill="#F2C194"/>
<path d="M150.317 54.9867C149.38 56.8747 147.273 57.5827 145.166 58.2907C142.123 59.4707 139.547 60.8867 137.206 63.0107C136.972 63.2467 136.738 63.4826 136.504 63.9546C135.801 65.3706 137.674 66.5506 139.313 66.3146C140.718 66.0786 142.123 65.1346 143.527 65.1346C145.4 65.1346 146.805 66.3146 148.444 66.7866C149.614 67.0226 151.019 67.0226 152.19 66.7866C158.042 66.0786 163.661 65.3706 169.514 64.6626C171.621 64.4266 174.196 63.9546 175.367 62.0667C175.601 61.5947 175.835 61.1227 175.835 60.6507C175.601 59.7067 174.665 59.2347 173.962 58.9987C171.387 58.2907 168.578 58.0547 166.002 58.2907C165.534 55.9307 170.216 55.4587 170.451 52.8627C166.471 51.9187 162.256 51.2107 158.277 50.2668C154.062 49.3228 149.848 48.6148 145.868 49.0868C147.975 50.0308 151.955 51.6827 150.317 54.9867Z" fill="#F2C194"/>
<path d="M177.708 71.7419C181.219 69.8539 184.029 66.5499 184.731 62.538C191.286 62.538 198.544 62.538 203.695 58.29C204.865 57.346 205.802 56.166 206.972 55.458C208.377 54.514 210.25 54.278 212.123 54.042C217.039 53.334 221.721 52.626 226.638 51.682C227.106 51.682 227.808 51.446 228.277 51.682C229.213 52.154 229.447 53.57 229.213 54.514C228.277 58.054 224.765 60.414 221.253 61.358C217.741 62.302 213.996 62.538 210.484 63.7179C207.206 64.8979 204.397 67.2579 201.587 69.1459C197.607 71.7419 193.393 73.8659 188.711 75.5178C179.112 78.8218 168.811 79.0578 158.51 79.2938C153.126 79.5298 147.975 79.5298 142.824 78.5858C147.975 74.5739 155.233 76.4618 161.085 75.9898C166.47 75.2819 172.791 74.5739 177.708 71.7419Z" fill="#F2C194"/>
<path d="M84.0624 48.6138C85.4671 48.8498 87.1059 48.8498 88.5106 48.3778C89.9153 47.9058 91.32 46.7259 91.32 45.3099C91.32 44.1299 90.8518 43.1859 89.9153 42.2419C88.9789 41.5339 88.0424 41.0619 86.8718 40.5899C82.6577 39.1739 73.059 37.7579 70.952 43.1859C69.079 49.0858 81.2531 48.3778 84.0624 48.6138Z" fill="#BF9777"/>
<path d="M75.6341 46.9641C81.3232 46.9641 85.9352 42.3151 85.9352 36.5802C85.9352 30.8453 81.3232 26.1963 75.6341 26.1963C69.945 26.1963 65.333 30.8453 65.333 36.5802C65.333 42.3151 69.945 46.9641 75.6341 46.9641Z" fill="#600C4E"/>
<path d="M81.0185 26.431L81.2526 26.667C81.2526 26.667 81.4867 26.667 81.7209 26.667C82.4232 26.431 83.1255 26.195 83.5938 25.959C83.5938 26.431 83.3596 26.903 83.3596 27.375C84.062 27.375 84.9985 27.375 85.7008 27.375C85.4667 27.847 84.9985 28.319 84.7643 28.7909C85.2326 28.7909 85.9349 28.7909 86.4032 28.7909C86.6373 28.7909 86.8714 28.7909 86.8714 29.0269C86.8714 29.0269 86.8714 29.2629 86.6373 29.2629C85.9349 29.9709 85.2326 30.6789 84.5302 31.1509C84.2961 31.3869 83.8279 31.6229 83.3596 31.8589C82.8914 31.8589 82.6573 31.6229 82.1891 31.6229C81.0185 31.1509 79.1456 29.9709 78.6773 28.7909C78.2091 27.611 79.3797 26.195 80.082 25.251C80.7844 25.959 80.7844 26.195 81.0185 26.431Z" fill="#600C4E"/>
<path opacity="0.33" d="M72.3563 29.0267C71.1857 29.7347 70.2493 30.6787 70.0151 32.0947C70.0151 32.3307 70.0151 32.8027 70.0151 33.0387C70.0151 33.5107 70.4834 33.7467 70.7175 33.9827C70.9516 34.2187 71.1857 34.4546 71.4198 34.2187C71.8881 34.2187 72.1222 33.7467 72.3563 33.2747C73.2927 31.8587 74.9316 30.9147 76.5704 31.3867C77.0386 31.3867 77.5068 31.6227 77.7409 31.1507C77.7409 31.1507 77.7409 30.9147 77.7409 30.6787C77.9751 27.8467 74.2292 28.3187 72.3563 29.0267Z" fill="white"/>
<path d="M58.076 69.6207C59.4807 69.8567 61.1195 69.8567 62.5242 69.3847C63.9289 68.9127 65.3336 67.7327 65.3336 66.3167C65.3336 65.1367 64.8654 64.1927 63.9289 63.2487C62.9924 62.5407 62.056 62.0687 60.8854 61.5967C56.6713 60.1808 47.0726 58.7648 44.9655 64.1927C43.0926 70.0927 55.0325 69.3847 58.076 69.6207Z" fill="#BF9777"/>
<path d="M59.5766 60.0123C60.8953 54.4334 57.4778 48.8332 51.9435 47.5038C46.4091 46.1745 40.8535 49.6194 39.5348 55.1983C38.216 60.7772 41.6335 66.3775 47.1679 67.7068C52.7023 69.0361 58.2578 65.5912 59.5766 60.0123Z" fill="#600C4E"/>
<path d="M54.798 47.4378L55.0322 47.6738C55.0322 47.6738 55.2663 47.6738 55.5004 47.6738C56.2027 47.4378 56.9051 47.2018 57.3733 46.9658C57.3733 47.4378 57.1392 47.9098 57.1392 48.3818C57.8415 48.3818 58.778 48.3818 59.4804 48.3818C59.2462 48.8538 58.778 49.3258 58.5439 49.7978C59.0121 49.7978 59.7145 49.7978 60.1827 49.7978C60.4168 49.7978 60.6509 49.7978 60.6509 50.0338C60.6509 50.0338 60.6509 50.2698 60.4168 50.2698C59.7145 50.9778 59.0121 51.6858 58.3098 52.1578C58.0757 52.3938 57.6074 52.6298 57.1392 52.8658C56.671 52.8658 56.4369 52.6298 55.9686 52.6298C54.798 52.1578 52.9251 50.9778 52.4569 49.7978C51.9887 48.6178 53.1592 47.2018 53.8616 46.2578C54.5639 46.9658 54.798 47.2018 54.798 47.4378Z" fill="#600C4E"/>
<path opacity="0.33" d="M46.3687 50.0316C45.1982 50.7396 44.2617 51.6836 44.0276 53.0996C44.0276 53.3356 44.0276 53.8076 44.0276 54.0436C44.0276 54.5155 44.4958 54.7515 44.7299 54.9875C44.9641 55.2235 45.1982 55.4595 45.4323 55.2235C45.9005 55.2235 46.1346 54.7515 46.3687 54.2796C47.3052 52.8636 48.944 51.9196 50.5828 52.3916C51.051 52.3916 51.5193 52.6276 51.7534 52.1556C51.7534 52.1556 51.7534 51.9196 51.7534 51.6836C51.9875 48.8516 48.0075 49.3236 46.3687 50.0316Z" fill="white"/>
<path d="M151.487 74.3414C152.891 74.5774 154.53 74.5774 155.935 74.1054C157.34 73.6334 158.744 72.4534 158.744 71.0374C158.744 69.8574 158.276 68.9134 157.34 67.9694C156.403 67.2614 155.467 66.7894 154.296 66.3174C150.082 64.9015 140.483 63.4855 138.376 68.9134C136.503 74.8134 148.443 74.1054 151.487 74.3414Z" fill="#BF9777"/>
<path d="M146.258 72.1854C151.669 70.4145 154.631 64.5571 152.875 59.1027C151.118 53.6482 145.307 50.6622 139.896 52.4331C134.485 54.204 131.523 60.0613 133.28 65.5158C135.037 70.9702 140.847 73.9563 146.258 72.1854Z" fill="#600C4E"/>
<path d="M148.443 52.1546L148.677 52.3906C148.677 52.3906 148.911 52.3906 149.145 52.3906C149.848 52.1546 150.55 51.9186 151.018 51.6826C151.018 52.1546 150.784 52.6266 150.784 53.0986C151.487 53.0986 152.423 53.0986 153.125 53.0986C152.891 53.5706 152.423 54.0426 152.189 54.5146C152.657 54.5146 153.36 54.5146 153.828 54.5146C154.062 54.5146 154.296 54.5146 154.296 54.7506C154.296 54.7506 154.296 54.9866 154.062 54.9866C153.36 55.6946 152.657 56.4026 151.955 56.8746C151.721 57.1106 151.252 57.3466 150.784 57.5826C150.316 57.5826 150.082 57.3466 149.614 57.3466C148.443 56.8746 146.57 55.6946 146.102 54.5146C145.634 53.3346 146.804 51.9186 147.507 50.9746C147.975 51.4466 148.209 51.9186 148.443 52.1546Z" fill="#600C4E"/>
<path opacity="0.33" d="M139.781 54.7532C138.61 55.4612 137.674 56.4052 137.44 57.8212C137.44 58.0572 137.44 58.5292 137.44 58.7652C137.44 59.2372 137.908 59.4732 138.142 59.7092C138.376 59.9452 138.61 60.1812 138.844 59.9452C139.313 59.9452 139.547 59.4732 139.781 59.0012C140.717 57.5852 142.356 56.6412 143.995 57.1132C144.463 57.1132 144.931 57.3492 145.166 56.8772C145.166 56.8772 145.166 56.6412 145.166 56.4052C145.4 53.5733 141.42 53.8093 139.781 54.7532Z" fill="white"/>
<path d="M174.899 52.6265C176.304 52.8625 177.942 52.8625 179.347 52.3905C180.752 51.9185 182.157 50.7385 182.157 49.3226C182.157 48.1426 181.688 47.1986 180.752 46.2546C179.815 45.5466 178.879 45.0746 177.708 44.6026C173.494 43.1866 163.895 41.7706 161.788 47.1986C159.681 53.0985 171.855 52.3905 174.899 52.6265Z" fill="#BF9777"/>
<path d="M166.47 50.9778C172.159 50.9778 176.771 46.3288 176.771 40.5939C176.771 34.859 172.159 30.21 166.47 30.21C160.781 30.21 156.169 34.859 156.169 40.5939C156.169 46.3288 160.781 50.9778 166.47 50.9778Z" fill="#600C4E"/>
<path d="M171.622 30.4446L171.856 30.6806C171.856 30.6806 172.09 30.6806 172.324 30.6806C173.026 30.4446 173.729 30.2086 174.197 29.9726C174.197 30.4446 173.963 30.9166 173.963 31.3886C174.665 31.3886 175.602 31.3886 176.304 31.3886C176.07 31.8606 175.602 32.3326 175.368 32.8046C175.836 32.8046 176.538 32.8046 177.006 32.8046C177.241 32.8046 177.475 32.8046 177.475 33.0406C177.475 33.0406 177.475 33.2766 177.241 33.2766C176.538 33.9846 175.836 34.6926 175.134 35.1646C174.899 35.4006 174.431 35.6366 173.963 35.8726C173.495 35.8726 173.261 35.6366 172.792 35.6366C171.622 35.1646 169.749 33.9846 169.281 32.8046C168.812 31.6246 169.983 30.2086 170.685 29.2646C171.388 29.9726 171.622 30.2086 171.622 30.4446Z" fill="#600C4E"/>
<path opacity="0.33" d="M162.96 33.0404C161.789 33.7483 160.853 34.6923 160.618 36.1083C160.618 36.3443 160.618 36.8163 160.618 37.0523C160.618 37.5243 161.087 37.7603 161.321 37.9963C161.555 38.2323 161.789 38.4683 162.023 38.2323C162.491 38.2323 162.725 37.7603 162.96 37.2883C163.896 35.8723 165.535 34.9283 167.174 35.4003C167.642 35.4003 168.11 35.6363 168.344 35.1643C168.344 35.1643 168.344 34.9283 168.344 34.6923C168.812 31.8604 164.833 32.0964 162.96 33.0404Z" fill="white"/>
<path d="M130.65 32.0972C132.055 32.3332 133.694 32.3332 135.099 31.8612C136.503 31.3892 137.908 30.2093 137.908 28.7933C137.908 27.6133 137.44 26.6693 136.503 25.7253C135.567 25.0173 134.63 24.5453 133.46 24.0733C129.246 22.6573 119.647 21.2413 117.54 26.6693C115.667 32.5692 127.607 31.8612 130.65 32.0972Z" fill="#BF9777"/>
<path d="M132.236 22.4989C133.531 16.9148 130.091 11.3295 124.551 10.0236C119.012 8.71781 113.471 12.186 112.176 17.77C110.88 23.3541 114.321 28.9394 119.86 30.2453C125.4 31.5511 130.941 28.0829 132.236 22.4989Z" fill="#600C4E"/>
<path d="M127.608 9.90948L127.842 10.1455C127.842 10.1455 128.076 10.1455 128.31 10.1455C129.013 9.90948 129.715 9.67348 130.183 9.43749C130.183 9.90948 129.949 10.3815 129.949 10.8535C130.652 10.8535 131.588 10.8535 132.29 10.8535C132.056 11.3255 131.588 11.7975 131.354 12.2695C131.822 12.2695 132.525 12.2695 132.993 12.2695C133.227 12.2695 133.461 12.2695 133.461 12.5055C133.461 12.5055 133.461 12.7415 133.227 12.7415C132.525 13.4495 131.822 14.1574 131.12 14.6294C130.886 14.8654 130.418 15.1014 129.949 15.3374C129.481 15.3374 129.247 15.1014 128.779 15.1014C127.608 14.6294 125.735 13.4495 125.267 12.2695C124.799 11.0895 125.969 9.67348 126.672 8.72949C127.14 9.43749 127.374 9.67348 127.608 9.90948Z" fill="#600C4E"/>
<path opacity="0.33" d="M118.946 12.5091C117.775 13.2171 116.839 14.1611 116.604 15.5771C116.604 15.8131 116.604 16.2851 116.604 16.5211C116.604 16.9931 117.073 17.2291 117.307 17.4651C117.541 17.7011 117.775 17.9371 118.009 17.7011C118.477 17.7011 118.712 17.2291 118.946 16.7571C119.882 15.3411 121.521 14.3971 123.16 14.8691C123.628 14.8691 124.096 15.1051 124.33 14.6331C124.33 14.6331 124.33 14.3971 124.33 14.1611C124.564 11.3291 120.584 11.8011 118.946 12.5091Z" fill="white"/>
<path d="M218.445 79.5308C219.849 79.7668 221.488 79.7668 222.893 79.2948C224.298 78.8228 225.702 77.6428 225.702 76.2269C225.702 75.0469 225.234 74.1029 224.298 73.1589C223.361 72.4509 222.425 71.9789 221.254 71.5069C217.04 70.0909 207.441 68.6749 205.334 74.1029C203.461 80.0028 215.401 79.2948 218.445 79.5308Z" fill="#BF9777"/>
<path d="M220.169 69.5941C221.365 63.9877 217.827 58.4651 212.265 57.259C206.703 56.053 201.225 59.6202 200.028 65.2266C198.832 70.833 202.371 76.3556 207.932 77.5617C213.494 78.7677 218.973 75.2005 220.169 69.5941Z" fill="#600C4E"/>
<path d="M215.167 57.347L215.401 57.583C215.401 57.583 215.635 57.583 215.869 57.583C216.571 57.347 217.274 57.111 217.742 56.875C217.742 57.347 217.508 57.819 217.508 58.291C218.21 58.291 219.147 58.291 219.849 58.291C219.615 58.763 219.147 59.235 218.913 59.707C219.381 59.707 220.083 59.707 220.551 59.707C220.785 59.707 221.02 59.707 221.02 59.943C221.02 59.943 221.02 60.179 220.785 60.179C220.083 60.887 219.381 61.595 218.678 62.0669C218.444 62.3029 217.976 62.5389 217.508 62.7749C217.04 62.7749 216.806 62.5389 216.337 62.5389C215.167 62.0669 213.294 60.887 212.826 59.707C212.357 58.527 213.528 57.111 214.23 56.167C214.933 56.639 215.167 57.111 215.167 57.347Z" fill="#600C4E"/>
<path opacity="0.33" d="M206.74 59.9427C205.569 60.6507 204.633 61.5947 204.398 63.0107C204.398 63.2467 204.398 63.7187 204.398 63.9547C204.398 64.4267 204.867 64.6627 205.101 64.8987C205.335 65.1347 205.569 65.3707 205.803 65.1347C206.271 65.1347 206.505 64.6627 206.74 64.1907C207.676 62.7747 209.315 61.8307 210.954 62.3027C211.422 62.3027 211.89 62.5387 212.124 62.0667C212.124 62.0667 212.124 61.8307 212.124 61.5947C212.358 58.7627 208.378 58.9987 206.74 59.9427Z" fill="white"/>
<path d="M249.815 42.7148C247.24 50.2668 241.621 54.7507 236.705 59.4707C230.149 65.6067 223.36 70.0906 215.166 74.3386C194.33 84.9585 171.152 83.5425 148.443 85.6665C117.54 88.2625 77.5061 88.2625 48.7099 78.5865C28.81 71.9786 16.636 62.0667 0.716175 48.6148C0.0138277 67.0226 3.29145 83.5425 5.16437 94.8704C8.91022 119.178 18.7431 147.026 36.3017 164.254C40.2817 168.266 44.4958 171.806 48.7099 174.638C51.7534 219.477 130.65 216.409 157.808 215.465C177.005 214.757 194.798 205.082 200.651 195.878C204.631 188.09 205.099 181.01 204.631 174.402C217.507 165.198 228.042 153.162 235.066 138.766C246.069 116.582 245.367 93.2184 248.41 69.3826C249.815 61.1227 250.283 51.2108 249.815 42.7148Z" fill="#8FBBEF"/>
<path d="M235.535 138.766C246.539 116.582 245.836 93.2184 248.88 69.3826C249.816 61.1227 250.284 51.4468 249.816 42.7148C244.197 51.6828 241.154 55.4587 236.237 59.9427C229.214 66.0787 223.595 69.8546 215.401 74.1026C212.124 75.7546 209.08 76.9346 205.568 78.1146C203.93 84.7225 202.759 91.8025 201.12 97.9384C193.863 127.438 177.474 157.882 148.912 170.39C144.698 172.278 121.053 173.93 123.16 179.83C124.096 182.426 131.588 183.37 133.461 186.91C135.334 190.686 134.397 198.002 133.695 202.25C132.993 206.262 130.417 211.454 131.822 215.937C142.357 216.173 151.722 215.701 158.277 215.465C177.474 214.757 195.267 205.082 201.12 195.878C205.1 188.09 205.568 181.01 205.1 174.402C217.742 165.198 228.278 153.162 235.535 138.766Z" fill="#80ABD6"/>
<path d="M5.39913 74.1017C7.50617 73.8657 9.84732 73.8657 11.7202 74.8097C13.1249 75.5177 14.2955 76.9336 15.232 78.3496C17.8073 82.3616 19.6802 86.6096 23.6601 89.6775C31.386 95.3415 41.4529 88.9695 49.4129 93.6895C51.5199 94.8695 53.6269 96.7575 55.4999 98.4095C57.3728 100.061 59.2457 101.713 61.1186 103.129C64.6304 105.961 68.6103 108.557 73.0585 109.973C78.2091 111.625 83.5937 111.153 88.9784 109.737C93.6607 108.557 98.1089 106.669 103.025 106.197C105.366 105.961 107.708 106.197 110.049 107.141C112.858 108.085 115.433 109.973 118.243 111.389C123.628 113.985 129.246 115.873 135.333 116.109C141.42 116.345 147.273 114.457 152.658 111.389C157.106 108.793 161.554 106.433 166.471 105.489C170.451 104.781 174.431 105.725 178.176 106.669C182.859 107.849 187.775 109.973 192.692 109.501C200.417 108.557 203.929 101.713 208.846 96.5215C211.421 93.6895 214.698 91.5655 218.444 90.8575C221.722 90.3855 224.765 91.0935 228.043 91.0935C231.321 91.0935 234.364 90.1495 236.471 87.5535C238.11 85.6656 239.281 83.5416 240.217 81.1816C240.919 79.2936 241.154 77.4056 241.856 75.2817C242.324 73.6297 243.261 72.9217 245.133 73.1577C245.133 72.2137 245.133 71.0337 245.133 70.0897C243.963 70.3257 243.026 70.7977 242.09 71.5057C240.685 72.9217 242.792 75.0457 244.197 73.6297C244.431 73.3937 244.665 73.1577 245.133 73.1577C247.006 72.9217 247.241 70.0897 245.133 70.0897C243.026 69.8537 241.154 70.5617 239.749 72.4497C238.578 74.1017 238.344 75.9896 237.876 77.8776C236.939 81.4176 234.832 85.9016 231.555 87.3176C228.98 88.2615 225.936 87.5536 223.127 87.3176C219.381 87.0816 215.635 87.5536 212.357 89.4415C208.846 91.3295 206.27 94.1615 203.695 97.2295C201.588 99.8255 199.481 102.657 196.672 104.309C193.394 106.433 189.414 106.433 185.668 105.253C180.986 104.073 176.304 102.421 171.621 101.713C167.407 101.241 163.427 101.949 159.681 103.601C154.063 105.961 149.146 109.737 143.293 111.389C137.674 113.041 131.822 112.569 126.203 110.917C123.393 109.973 120.584 108.793 117.775 107.377C115.199 105.961 112.624 104.309 109.581 103.601C104.898 102.185 100.45 103.129 95.7678 104.309C90.6172 105.725 85.2325 107.613 79.8479 107.613C70.015 107.613 62.9916 100.297 55.734 94.1615C53.8611 92.5095 51.754 90.8575 49.4129 89.6775C47.3058 88.7335 44.9647 88.2615 42.6235 88.0255C38.4094 87.7895 33.9612 88.9695 29.7471 88.2615C24.8307 87.3176 22.0213 83.5416 19.6802 79.2936C17.8073 75.9896 15.7002 72.4497 11.9544 71.0337C9.84732 70.7977 7.50617 70.7977 5.39913 71.0337C3.29209 71.0337 3.29209 74.3377 5.39913 74.1017Z" fill="#E5E5B7"/>
<path d="M9.14487 89.917C11.2519 89.209 13.3589 89.209 15.2319 90.389C16.8707 91.569 18.0413 93.457 18.9777 95.109C21.0848 98.6489 22.7236 103.133 25.7671 105.729C27.64 107.145 29.747 107.853 31.8541 108.325C34.4294 108.561 37.0046 108.089 39.3458 107.381C41.9211 106.673 44.2622 105.965 46.8375 106.909C48.9445 107.617 50.8174 109.033 52.2221 110.921C55.2656 114.461 57.1386 118.709 61.1185 121.305C63.4597 122.721 66.035 123.665 68.6102 123.665C70.9514 123.665 73.0584 122.957 74.9314 122.013C79.3796 119.889 83.8277 117.529 88.9783 117.765C92.9583 118.001 96.47 120.361 99.7476 122.249C103.728 124.609 108.176 127.205 112.858 128.385C117.775 129.565 122.691 128.621 127.373 126.969C131.821 125.317 136.504 123.193 141.186 123.193C145.868 123.193 150.317 124.845 154.297 126.969C157.808 128.621 161.32 130.745 165.3 130.745C170.451 130.981 175.367 128.149 179.815 125.553C182.156 124.137 184.497 122.485 186.839 121.541C189.414 120.597 192.223 120.361 195.267 120.597C198.076 120.833 200.651 121.541 203.461 121.305C206.27 121.069 208.845 119.889 211.187 118.001C214.698 114.933 215.869 110.213 218.678 106.437C220.083 104.785 221.956 103.133 223.829 102.661C225.702 102.189 227.809 101.953 229.682 101.717C232.959 101.009 236.003 99.1209 238.578 97.233C240.217 96.289 241.622 95.109 243.026 93.693C243.963 92.749 245.133 91.805 245.602 90.625C246.304 89.445 246.07 88.029 244.665 87.321C243.026 86.377 241.388 88.973 243.026 89.917C243.261 90.153 242.792 89.681 242.792 89.681C242.324 88.973 243.026 89.917 242.792 89.209V88.973C242.792 88.973 242.558 89.445 242.792 88.973C242.558 89.445 242.324 89.681 241.856 90.153C240.685 91.333 239.515 92.277 238.11 93.457C235.769 95.109 232.725 97.233 230.15 98.1769C228.277 98.6489 226.17 98.8849 224.063 99.1209C222.19 99.5929 220.317 100.301 218.678 101.481C214.698 104.549 213.528 109.033 210.718 113.045C210.25 115.641 208.377 117.293 206.036 118.001C203.461 118.709 200.651 118.473 197.842 118.001C195.033 117.529 192.223 117.293 189.414 118.001C186.839 118.473 184.263 119.653 182.156 121.069C177.708 123.665 173.26 127.205 168.109 127.913C164.364 128.385 160.852 126.733 157.574 125.081C153.594 122.957 149.38 121.069 144.932 120.597C140.016 119.889 135.567 121.305 130.885 122.957C126.437 124.609 121.989 126.497 117.306 126.261C112.624 126.025 107.942 123.665 103.962 121.305C100.45 119.181 96.9382 116.821 93.1924 115.641C88.7442 114.461 84.296 114.933 80.0819 116.821C75.8678 118.473 71.6537 121.777 66.7373 120.597C64.3962 119.889 62.2891 118.709 60.6503 116.821C59.0115 115.169 57.8409 113.281 56.6703 111.393C53.861 107.617 50.3492 104.313 45.4328 103.841C40.2822 103.369 35.834 106.909 30.6835 105.493C26.7035 104.313 25.0647 100.065 23.4259 96.761C21.553 93.221 19.2118 88.973 15.2319 87.321C13.1248 86.613 10.7837 86.613 8.67663 87.321C6.33548 87.557 7.27194 90.625 9.14487 89.917Z" fill="#E5E5B7"/>
<path opacity="0.1" d="M68.3754 95.3447C63.6931 92.0408 58.5425 89.4448 53.1579 87.0848C47.5391 84.4888 32.0875 74.1049 27.171 80.9488C6.10064 87.3208 24.5958 124.608 33.258 137.116C38.6427 144.904 58.7766 161.424 67.4389 148.444C70.4824 143.724 69.3118 136.172 69.7801 130.98C70.2483 124.608 70.2483 118.473 71.1848 112.101C72.3553 104.549 75.1647 100.301 68.3754 95.3447Z" fill="white"/>
<path d="M96.9382 31.6252C95.7677 32.5692 95.2994 33.9852 96.0018 35.1652C96.47 35.8732 97.1723 36.3452 97.8747 36.5812C100.216 37.7612 103.025 38.9412 103.962 41.3012C105.132 43.8971 103.493 46.9651 101.621 49.3251C99.5135 51.6851 96.9382 53.5731 94.1288 54.7531C90.6171 56.169 86.403 56.877 83.3595 59.473C82.6572 60.181 81.9548 60.889 81.9548 61.833C81.9548 63.013 83.3595 63.957 84.5301 64.429C91.3195 67.025 99.2794 65.609 104.898 61.125C106.303 59.945 107.708 58.765 109.346 57.821C111.453 56.641 114.029 56.641 116.37 56.405C121.052 55.697 125.5 54.2811 129.714 52.1571C131.353 51.4491 132.758 50.2691 133.928 49.0891C134.163 48.6171 134.631 48.1451 134.631 47.6731C134.865 46.7291 133.928 45.7851 132.992 45.3131C132.056 44.8411 130.885 44.8411 129.949 44.8411C127.139 44.8411 124.564 44.6051 121.989 43.6611C119.413 42.7171 117.306 40.8292 116.136 38.4692C115.667 37.2892 115.433 36.1092 114.731 35.1652C113.795 33.5132 112.39 32.5692 110.985 31.6252C107.005 29.7373 100.45 28.7933 96.9382 31.6252Z" fill="#F2DCA5"/>
<path d="M102.556 145.373C94.5964 145.373 86.6364 146.081 78.6765 146.317C62.7567 147.025 46.8368 147.025 30.9169 147.025C25.064 147.025 19.4453 146.789 13.8265 146.789C11.0171 146.789 8.20773 146.789 5.39834 146.789C3.99364 146.789 -0.688667 147.261 0.247795 147.497V148.205C0.247795 152.689 0.716027 158.117 3.75953 161.421C6.3348 185.257 14.2947 242.84 19.6794 247.324C33.9604 259.124 80.7836 259.832 93.1917 246.852C97.874 241.896 105.132 188.797 107.707 163.545C110.516 161.657 108.643 157.173 109.112 153.161C110.282 145.373 109.58 145.609 102.556 145.373Z" fill="#EFE0CB"/>
<path d="M53.6266 127.202C24.8304 127.674 -0.688182 135.934 0.0141653 146.79C0.716512 157.646 17.3387 169.446 54.0949 169.446C95.2992 169.446 108.41 162.838 110.283 147.97C112.39 134.754 85.4664 126.966 53.6266 127.202Z" fill="#EF6A60"/>
<path d="M93.1923 246.853C97.4064 242.369 103.962 198.001 107.005 171.098C103.493 172.278 99.9817 173.694 97.8746 174.166C90.3829 175.818 82.6571 176.762 75.1654 177.942C67.9078 179.122 60.4161 179.358 52.6903 179.358C45.6669 179.358 35.5999 178.886 29.747 175.346L29.9811 176.29C33.2587 178.414 39.5799 179.83 43.7939 180.774C59.0115 183.842 74.4631 185.022 89.4465 188.09C89.9147 196.113 89.2124 204.609 88.51 212.633C87.8077 221.365 85.7006 230.805 83.5936 239.065C81.2524 248.505 69.0784 250.393 61.1185 250.393C50.3492 250.393 38.8775 250.629 28.5764 247.561C25.5329 246.617 21.0847 243.549 17.573 243.785C18.2753 245.673 18.9777 247.089 19.68 247.561C33.9611 259.361 81.0183 260.069 93.1923 246.853Z" fill="#E8D2BF"/>
<path d="M114.028 164.963C111.218 160.243 114.262 150.331 107.473 148.443C103.961 147.499 99.9809 148.207 97.4056 150.803C96.0009 152.219 92.021 162.131 96.2351 161.187L96.9374 162.367C100.917 162.131 103.493 165.435 104.429 168.739C105.366 172.279 107.707 175.347 110.984 177.471C114.262 179.595 117.54 179.359 118.242 175.111C118.944 170.627 115.901 168.267 114.028 164.963Z" fill="#EF6A60"/>
<path opacity="0.3" d="M19.9138 175.817C17.5726 175.109 14.9973 174.401 13.1244 175.345C12.6562 175.345 12.4221 175.581 12.188 176.289C11.9538 176.997 11.7197 177.705 11.7197 178.885C11.7197 180.065 11.9538 181.481 12.188 182.661C12.4221 184.785 12.6562 186.673 12.8903 187.145C13.8268 193.516 15.4656 199.888 16.402 206.024C17.3385 212.16 17.5726 218.06 18.275 224.196C18.7432 228.208 20.1479 239.064 26.0008 238.592C33.0242 237.884 28.8102 222.78 28.8102 218.296C28.8102 209.8 31.3854 202.72 33.2584 194.696C34.8972 185.493 28.1078 178.649 19.9138 175.817Z" fill="white"/>
<path d="M92.9577 201.307C101.62 214.759 99.2788 231.987 87.573 239.539C75.8672 247.091 59.9474 240.719 48.7098 229.155C36.5358 216.647 37.9405 196.351 49.6463 188.799C61.118 181.248 84.0613 187.619 92.9577 201.307Z" fill="white"/>
<path d="M92.9578 201.308C92.0214 199.656 90.8508 198.24 89.6802 197.06C89.4461 202.252 89.212 207.443 88.7437 212.399C88.0414 221.131 85.9344 230.571 83.8273 238.831C83.5932 240.011 83.125 240.955 82.6567 241.899C84.2955 241.427 85.9344 240.483 87.5732 239.539C99.0448 231.987 101.62 214.759 92.9578 201.308Z" fill="#DDDDDD"/>
<path d="M62.7569 192.81C62.991 192.338 63.4592 192.338 63.9274 192.338C64.3957 192.574 64.8639 193.046 64.6298 193.518C64.6298 193.754 64.3957 193.99 64.1616 194.226L62.0545 196.586L61.8204 198.002C61.5863 198.71 61.1181 199.182 60.4157 198.946C59.7134 198.71 59.4793 198.238 59.7134 197.53L59.9475 196.114L59.011 193.046C59.011 192.81 58.7769 192.574 59.011 192.338C59.011 191.866 59.7134 191.394 60.1816 191.63C60.6498 191.63 60.884 192.102 61.1181 192.574L61.5863 194.462L62.7569 192.81Z" fill="#EF6A60"/>
<path d="M69.5461 193.99C71.1849 194.698 72.3555 196.349 71.419 198.709C70.4825 201.069 68.6096 201.305 66.9708 200.833C65.332 200.125 64.1614 198.473 65.0979 196.114C65.8002 193.99 67.6731 193.518 69.5461 193.99ZM68.8437 195.642C67.9073 195.406 67.439 195.878 66.9708 196.822C66.5026 197.765 66.7367 198.709 67.439 198.945C68.3755 199.181 68.8437 198.709 69.312 197.765C69.7802 196.822 69.7802 196.114 68.8437 195.642Z" fill="#EF6A60"/>
<path d="M75.3983 202.487C75.1642 202.251 74.9301 202.015 75.1642 201.543C75.3983 201.071 75.8666 201.071 76.1007 201.307L77.2713 202.015C77.7395 202.251 77.9736 202.959 77.5054 203.431L76.5689 205.083C76.3348 205.555 75.8666 205.791 75.3983 205.555C74.9301 205.319 74.9301 204.847 75.1642 204.611V204.375C74.696 204.611 73.7595 204.375 73.0572 204.139C71.8866 203.431 70.716 201.779 72.1207 199.419C73.5254 197.295 75.6325 197.295 76.803 198.239C78.676 199.419 78.676 200.599 78.2077 201.071C77.9736 201.543 77.5054 201.779 76.803 201.307C76.1007 200.835 76.5689 200.127 75.8666 199.655C75.1642 199.183 74.4619 199.419 73.7595 200.599C73.0572 201.543 73.0572 202.251 73.9936 202.959C74.4619 203.431 74.9301 203.195 75.3983 202.959V202.487Z" fill="#EF6A60"/>
<path d="M84.2957 204.844C84.7639 204.372 85.4662 204.136 85.9345 204.608C86.4027 205.08 86.4027 205.552 85.9345 206.26L83.8274 208.62C82.4227 210.272 81.018 209.8 79.6134 208.62C78.2087 207.44 77.7404 205.788 78.911 204.372L81.018 202.012C81.4863 201.54 82.1886 201.304 82.6569 201.776C83.1251 202.248 83.1251 202.72 82.6569 203.428L80.5498 205.788C80.0816 206.26 80.0816 206.968 80.5498 207.44C81.0181 207.912 81.7204 207.912 82.1886 207.204L84.2957 204.844Z" fill="#EF6A60"/>
<path d="M87.1042 207.914C87.8065 207.442 88.2747 207.442 88.9771 208.15L90.6159 210.038C91.5524 211.218 91.5524 212.398 90.6159 213.106C89.9136 213.578 89.2112 213.578 88.5089 213.106C88.9771 213.578 88.9771 214.286 88.5089 214.758L88.0406 215.23C87.8065 215.466 87.5724 215.702 87.3383 215.938C86.87 216.174 86.4018 216.174 86.1677 215.702C85.6995 215.23 85.6995 214.758 86.1677 214.286L86.87 213.578C87.3383 213.106 87.1042 212.87 86.87 212.398L86.4018 211.69L84.9971 212.398C84.5289 212.87 83.8265 212.87 83.3583 212.398C82.8901 211.926 82.8901 211.218 83.5924 210.746L87.1042 207.914ZM87.8065 211.454C88.2747 211.926 88.5089 211.926 88.9771 211.69C89.4453 211.454 89.2112 210.982 88.9771 210.51L88.2747 209.566L87.3383 210.51L87.8065 211.454Z" fill="#EF6A60"/>
<path d="M91.5534 214.522C91.3193 214.05 91.3193 213.578 91.7875 213.342C92.2557 213.106 92.724 213.106 92.9581 213.814L95.2992 217.826C95.7675 218.298 95.5333 218.77 95.0651 219.006C94.5969 219.242 94.1286 219.242 93.8945 218.77L93.1922 217.59L89.9146 219.714C89.2122 220.186 88.744 219.95 88.2758 219.478C88.0416 219.006 88.0416 218.298 88.744 217.826L92.0216 215.702L91.5534 214.522Z" fill="#EF6A60"/>
<path d="M77.5059 212.633C76.1012 209.801 72.1212 207.205 68.8436 208.621C66.5024 209.565 64.6295 211.453 62.7566 212.633C61.1178 212.397 58.7766 213.577 57.8402 214.521C55.7331 216.645 55.0308 220.185 55.7331 223.017C57.3719 229.153 63.2248 232.929 68.8436 235.053C70.7165 235.761 73.9941 236.233 76.1012 235.525C79.6129 234.109 79.6129 231.041 79.847 228.445C80.0811 223.253 80.0811 217.117 77.5059 212.633Z" fill="#ED4B48"/>
<path d="M58.0737 218.062C58.0737 219.006 58.3078 220.186 58.542 221.13C58.542 221.366 59.0102 222.074 59.2443 221.602C59.2443 221.366 59.0102 221.13 58.7761 221.602C59.0102 221.602 59.0102 221.602 59.0102 221.366V221.13C59.0102 220.894 58.7761 220.658 58.7761 220.422C58.7761 219.478 58.542 218.77 58.542 218.062C58.542 217.826 58.0737 217.826 58.0737 218.062Z" fill="#EACE49"/>
<path d="M61.1185 217.116C61.3526 217.352 61.5867 217.824 61.8208 218.06C61.8208 218.296 62.0549 218.296 62.0549 218.532V218.768V218.532H62.289C62.0549 218.296 61.8208 218.532 62.0549 218.768C62.289 219.004 62.5232 218.768 62.5232 218.532C62.5232 218.296 62.289 218.06 62.289 218.06C62.0549 217.588 61.5867 216.88 61.1185 216.644C61.1185 216.644 60.8843 217.116 61.1185 217.116Z" fill="#EACE49"/>
<path d="M65.5665 215.701C66.0348 216.173 66.503 216.409 66.7371 216.645C66.9712 216.881 67.2053 216.409 66.9712 216.173C66.503 215.937 66.0348 215.701 65.8006 215.229C65.8006 215.229 65.3324 215.465 65.5665 215.701Z" fill="#EACE49"/>
<path d="M68.844 213.58C69.5464 214.052 70.0146 214.288 70.717 214.76C70.9511 214.76 71.1852 214.524 70.717 214.288C70.0146 214.052 69.5464 213.58 68.844 213.344C68.844 213.108 68.6099 213.58 68.844 213.58Z" fill="#EACE49"/>
<path d="M72.824 210.744C73.0581 210.744 73.0581 210.272 72.824 210.272C72.5899 210.272 72.5899 210.744 72.824 210.744Z" fill="#EACE49"/>
<path d="M72.8238 210.748C73.292 210.984 73.7602 211.456 74.2285 211.692C74.4626 211.928 74.6967 211.456 74.4626 211.22C74.2285 211.22 73.9944 210.984 73.9944 210.748C73.7602 210.512 73.5261 210.276 73.292 210.04C72.8238 210.276 72.5897 210.748 72.8238 210.748Z" fill="#EACE49"/>
<path d="M58.074 224.67C58.3081 225.378 58.5422 226.086 59.0104 226.558C59.2446 226.794 59.4787 226.558 59.2445 226.322C58.7763 225.85 58.5422 225.142 58.5422 224.67C58.3081 224.198 58.074 224.434 58.074 224.67Z" fill="#EACE49"/>
<path d="M61.8213 223.492C62.0554 223.964 62.2895 224.436 62.7577 224.672C62.9919 224.908 63.226 224.672 62.9919 224.436C62.7577 224.2 62.2895 223.728 62.0554 223.256C62.0554 223.02 61.8213 223.256 61.8213 223.492Z" fill="#EACE49"/>
<path d="M66.5022 221.129C66.9705 221.601 67.4387 222.073 67.907 222.309C68.1411 222.309 68.3752 221.837 67.907 221.837C67.4387 221.601 66.9705 221.129 66.7364 220.893C66.5022 220.657 66.2681 220.893 66.5022 221.129Z" fill="#EACE49"/>
<path d="M70.4823 219.244C70.7164 219.716 70.9505 220.188 71.4188 220.424C71.6529 220.66 71.887 220.424 71.6529 220.188C71.4188 219.952 71.1847 219.48 70.7164 219.008C70.7164 218.772 70.2482 219.008 70.4823 219.244Z" fill="#EACE49"/>
<path d="M73.9942 217.824C74.2283 218.06 74.4625 218.296 74.6966 218.768C74.9307 219.004 75.1648 218.768 75.1648 218.532C74.9307 218.296 74.6966 218.06 74.4625 217.588C74.2283 217.352 73.7601 217.588 73.9942 217.824Z" fill="#EACE49"/>
<path d="M76.8036 216.173C77.0377 216.645 77.2718 217.117 77.2718 217.589C77.2718 217.825 77.74 217.825 77.74 217.589C77.74 217.117 77.5059 216.645 77.2718 215.937C77.0377 215.937 76.5694 215.937 76.8036 216.173Z" fill="#EACE49"/>
<path d="M62.9913 229.387C63.4595 229.859 64.1618 230.331 64.6301 230.567C64.8642 230.567 65.0983 230.331 64.8642 230.095C64.1618 229.859 63.6936 229.387 63.2254 228.915C62.9913 228.915 62.7571 229.151 62.9913 229.387Z" fill="#EACE49"/>
<path d="M66.9715 227.971C67.4397 228.207 67.6738 228.679 68.1421 228.679C68.3762 228.679 68.6103 228.443 68.1421 228.207C67.6738 227.971 67.4397 227.735 66.9715 227.499C66.9715 227.499 66.7374 227.735 66.9715 227.971Z" fill="#EACE49"/>
<path d="M71.1857 225.611C71.4198 226.083 71.888 226.555 72.1221 227.027C72.3562 227.263 72.5904 227.027 72.3562 226.791C72.1221 226.319 71.6539 226.083 71.4198 225.611C71.4198 225.139 70.9516 225.375 71.1857 225.611Z" fill="#EACE49"/>
<path d="M75.1653 223.959C75.3994 223.959 75.3994 223.487 75.1653 223.487C74.9312 223.487 74.9312 223.959 75.1653 223.959Z" fill="#EACE49"/>
<path d="M74.9315 223.726C75.1656 224.198 75.3997 224.67 75.6338 225.142C75.6338 225.378 76.1021 225.378 76.1021 225.142C76.1021 224.67 75.8679 223.962 75.3997 223.49C75.1656 223.254 74.6974 223.49 74.9315 223.726Z" fill="#EACE49"/>
<path d="M78.2088 222.309C78.443 222.781 78.443 223.253 78.2088 223.725C78.2088 223.961 78.6771 224.197 78.6771 223.725C78.6771 223.253 78.6771 222.545 78.6771 222.073C78.4429 221.837 77.9747 221.837 78.2088 222.309Z" fill="#EACE49"/>
<path d="M68.3763 233.403C68.8445 233.639 69.5469 234.111 70.2492 234.111C70.4833 234.111 70.4833 233.639 70.2492 233.639C69.5469 233.639 69.0786 233.403 68.6104 233.167C68.3763 232.695 68.1422 233.167 68.3763 233.403Z" fill="#EACE49"/>
<path d="M71.4187 231.275C71.887 231.747 72.3552 231.983 73.0575 232.219C73.2917 232.219 73.5258 231.747 73.0575 231.747C72.5893 231.747 72.1211 231.275 71.6529 231.039C71.4188 230.803 71.1846 231.039 71.4187 231.275Z" fill="#EACE49"/>
<path d="M74.6966 229.864C74.9307 230.1 74.9307 230.572 75.1648 230.808C75.399 231.044 75.6331 230.808 75.6331 230.572C75.399 230.1 75.399 229.864 75.1648 229.628C74.9307 229.392 74.4625 229.628 74.6966 229.864Z" fill="#EACE49"/>
<path d="M78.4429 227.735C78.4429 228.207 78.677 228.443 78.4429 228.915C78.4429 229.151 78.9111 229.387 78.9111 228.915C78.9111 228.443 78.9111 227.971 78.9111 227.499C78.677 227.499 78.4429 227.499 78.4429 227.735Z" fill="#EACE49"/>
<path d="M73.76 234.342C74.2282 234.578 74.9306 234.814 75.6329 234.814C75.867 234.814 75.867 234.342 75.6329 234.342C75.1647 234.342 74.4623 234.106 73.9941 234.106C73.5259 233.87 73.5259 234.342 73.76 234.342Z" fill="#EACE49"/>
<path d="M75.4002 233.4C75.6343 233.636 75.8684 233.872 76.3366 233.872C76.5708 233.872 76.5708 233.4 76.3366 233.4L76.1025 233.164L75.8684 232.928C75.4002 232.928 75.1661 233.164 75.4002 233.4Z" fill="#EACE49"/>
<path d="M77.9747 231.751C78.2088 231.751 78.2088 231.279 77.9747 231.279C77.7405 231.279 77.7405 231.751 77.9747 231.751Z" fill="#EACE49"/>
<path d="M77.7405 231.748C77.7405 232.22 77.7405 232.456 77.7405 232.928C77.7405 233.164 78.2087 233.4 78.2087 232.928C78.2087 232.456 78.2087 231.984 78.2087 231.512C77.9746 231.276 77.7405 231.276 77.7405 231.748Z" fill="#EACE49"/>
<path d="M62.992 209.327C62.0556 208.383 61.5873 206.731 61.1191 205.551C60.1826 205.787 58.0756 206.731 57.3732 207.675C58.7779 208.619 60.4167 209.799 61.5873 211.215C58.5438 210.743 55.0321 212.867 52.925 214.755C54.5639 214.755 55.9686 214.755 57.6074 214.755C58.7779 214.755 61.3532 214.519 62.2897 213.575L61.8214 213.811C63.4602 213.103 65.0991 212.159 66.2696 210.743C66.972 210.035 67.9084 209.091 68.3767 208.147C68.8449 207.203 68.8449 205.787 69.7814 205.079C66.7379 205.079 63.9285 206.495 62.992 209.327Z" fill="#53B748"/>
<g opacity="0.5">
<path opacity="0.5" d="M9.84692 149.147C10.081 155.047 17.1045 157.407 21.7868 158.823C28.8103 160.947 36.302 162.127 43.5596 162.835C53.8607 163.779 64.1617 163.071 74.4628 162.127C81.7204 161.419 89.9144 160.475 96.2356 156.463C99.045 154.575 101.62 151.743 102.557 148.203C103.259 145.135 102.088 142.067 99.9814 139.943C94.1285 133.807 84.2957 132.391 76.5699 131.447C66.5029 130.031 56.67 130.503 46.6031 130.975C38.409 131.211 29.7467 131.683 22.255 134.987C18.041 136.875 13.8269 139.943 11.954 144.427C12.4222 144.427 13.1245 144.663 13.5928 144.663C13.5928 144.427 13.5928 144.191 13.5928 143.955C13.5928 142.775 11.954 142.775 11.954 143.955C11.954 144.191 11.954 144.427 11.954 144.663C11.954 145.607 13.3587 145.843 13.5928 144.899C15.2316 140.651 19.6798 137.819 23.8939 136.167C27.8738 134.515 32.322 133.807 36.5361 133.335C40.7502 132.863 44.9643 132.627 49.1783 132.627C54.0948 132.391 59.0112 132.155 63.9276 132.391C69.3123 132.391 74.9311 132.863 80.3157 133.807C84.7639 134.515 89.4462 135.695 93.6603 137.583C96.9379 139.235 100.45 141.359 101.386 145.135C102.323 149.147 98.8108 152.923 95.7673 155.047C89.9145 159.059 81.9545 159.767 74.9311 160.475C65.5664 161.419 56.2018 162.127 46.6031 161.419C39.3455 160.947 32.0879 159.531 25.0644 157.879C20.8504 156.699 12.4222 154.811 12.1881 149.147C11.4857 147.967 9.84692 147.967 9.84692 149.147Z" fill="white"/>
</g>
<path opacity="0.1" d="M72.5901 133.572C68.8442 130.504 61.5867 131.212 56.9044 131.212C44.028 131.212 30.2152 132.156 18.0412 136.404C14.2953 137.82 9.37889 140.18 7.50596 143.956C6.33539 145.372 5.39892 147.26 5.63304 149.384C5.86715 153.868 11.0177 155.52 14.5294 156.7C18.9776 158.352 23.8941 159.296 28.3423 158.116C35.834 156.228 29.2787 152.924 29.9811 147.968C30.9175 142.068 42.8574 141.596 47.0715 141.124C53.6267 140.416 60.4161 139.708 66.9713 139.472C70.2489 139.708 77.2724 137.348 72.5901 133.572Z" fill="white"/>
</svg>
