<svg width="300" height="207" viewBox="0 0 300 207" fill="none" xmlns="http://www.w3.org/2000/svg">
<g clip-path="url(#clip0_1337_3617)">
<path fill-rule="evenodd" clip-rule="evenodd" d="M300 153.912C300 183.173 232.879 206.895 150.008 206.895C67.1367 206.895 0 183.173 0 153.912C0 124.652 67.1211 100.93 150.008 100.93C232.895 100.93 300 124.652 300 153.912Z" fill="#E2CAB3"/>
<path fill-rule="evenodd" clip-rule="evenodd" d="M300 148.069C300 177.329 232.879 201.051 150.008 201.051C67.1367 201.051 0 177.329 0 148.069C0 118.808 67.1211 95.0859 150.008 95.0859C232.895 95.0859 300 118.808 300 148.069Z" fill="white"/>
<path fill-rule="evenodd" clip-rule="evenodd" d="M300 147.23C300 175.575 232.879 198.55 150.008 198.55C67.1367 198.55 0 175.575 0 147.23C0 118.885 67.1211 95.9258 150.008 95.9258C232.895 95.9258 300 118.901 300 147.23Z" fill="#E7D8C8"/>
<path fill-rule="evenodd" clip-rule="evenodd" d="M293.349 147.231C293.349 167.46 235.906 183.844 165.054 183.844C94.2024 183.844 36.7437 167.46 36.7437 147.231C36.7437 127.002 94.1868 110.617 165.054 110.617C235.921 110.617 293.349 127.017 293.349 147.231Z" fill="#E2CAB3"/>
<path d="M282.532 148.543C279.801 136.033 266.501 130.74 255.996 129.901C249.518 129.397 243.04 130.74 236.578 131.091C232.987 131.292 229.385 131.149 225.823 130.663C221.889 130.13 218.127 128.741 214.162 128.421C207.279 127.872 200.457 130.206 194.042 132.647C186.502 135.53 178.963 138.154 171.236 140.381C155.995 144.919 140.292 147.82 124.408 149.031C117.946 149.606 111.443 149.57 104.989 148.924C100.462 148.375 95.9981 147.399 91.4714 146.88C83.5417 146.011 74.7535 147.033 71.5536 156.14C69.1546 156.132 66.7886 156.687 64.6542 157.757C61.423 159.115 57.0991 161.526 55.4289 165.019C51.948 172.326 63.2337 175.195 67.4171 175.973C71.3975 176.705 75.4091 176.964 79.4052 177.376C84.9622 177.956 89.4265 180.534 94.125 183.677C105.973 191.594 121.785 192.113 135.272 191.198C142.711 190.652 150.066 189.307 157.203 187.185C164.743 184.989 172.501 186.316 180.118 187.582C186.661 188.933 193.456 188.532 199.786 186.423C206.155 184.211 211.681 180.168 217.128 176.11C223.481 171.381 230.709 171.091 238.186 170.496C245.556 170.049 252.871 168.951 260.039 167.216C266.057 165.729 271.916 163.686 277.537 161.114C282.314 158.657 283.656 154.081 282.532 148.543Z" fill="#EEBE30"/>
<path d="M239.951 137.665C239.951 157.375 197.134 175.697 145.575 175.697C94.0169 175.697 50.8564 156.018 50.8564 136.307C50.8564 116.597 94.0169 104.271 145.575 104.271C197.134 104.271 239.951 117.955 239.951 137.665Z" fill="#E3AC8A"/>
<path d="M238.92 133.865C238.92 153.575 197.133 169.548 145.575 169.548C94.0167 169.548 52.2144 153.575 52.2144 133.865C52.2144 114.155 94.0167 98.167 145.575 98.167C197.133 98.167 238.92 114.155 238.92 133.865Z" fill="#DA840D"/>
<path d="M213.477 130.479C213.477 145.109 182.477 156.948 144.218 156.948C105.959 156.948 74.9268 145.109 74.9268 130.479C74.9268 115.849 105.974 104.011 144.218 104.011C182.461 104.011 213.477 115.941 213.477 130.479Z" fill="#F0A508"/>
<path d="M97.6066 140.242C97.6066 141.768 95.8427 143.095 93.6573 143.095C91.4719 143.095 89.7236 141.814 89.7236 140.242C89.7236 138.671 91.4875 137.39 93.6573 137.39C95.827 137.39 97.6066 138.671 97.6066 140.242Z" fill="#DA840D"/>
<path d="M89.7244 128.238C89.703 128.659 89.556 129.063 89.3015 129.403C89.047 129.742 88.6963 130.001 88.2927 130.148C87.8891 130.294 87.4504 130.322 87.031 130.227C86.6115 130.133 86.2296 129.92 85.9326 129.615C85.6356 129.311 85.4366 128.928 85.3602 128.513C85.2837 128.099 85.3332 127.672 85.5025 127.286C85.6719 126.899 85.9536 126.569 86.3128 126.337C86.672 126.105 87.0929 125.981 87.5234 125.98C87.82 125.986 88.1124 126.05 88.3838 126.167C88.6552 126.283 88.9003 126.452 89.1049 126.662C89.3095 126.871 89.4696 127.119 89.5759 127.389C89.6822 127.66 89.7327 127.949 89.7244 128.238Z" fill="#DA840D"/>
<path d="M117.071 143.704C117.121 144.446 116.942 145.185 116.557 145.826C116.172 146.467 115.598 146.98 114.911 147.298C114.224 147.617 113.455 147.726 112.703 147.611C111.952 147.497 111.253 147.165 110.697 146.657C110.141 146.15 109.754 145.491 109.587 144.766C109.419 144.041 109.478 143.284 109.756 142.592C110.034 141.9 110.519 141.306 111.147 140.887C111.775 140.468 112.518 140.243 113.278 140.241C113.76 140.225 114.24 140.302 114.692 140.467C115.143 140.632 115.557 140.883 115.909 141.205C116.261 141.526 116.545 141.912 116.745 142.341C116.944 142.77 117.055 143.234 117.071 143.704V143.704Z" fill="#DA840D"/>
<path d="M108.83 129.962C108.83 130.908 107.753 131.686 106.441 131.686C105.13 131.686 104.038 130.908 104.038 129.962C104.038 129.016 105.115 128.238 106.441 128.238C107.768 128.238 108.83 129.001 108.83 129.962Z" fill="#DA840D"/>
<path d="M132.962 138.139C133.019 138.619 132.925 139.103 132.694 139.529C132.463 139.956 132.104 140.303 131.666 140.525C131.228 140.748 130.732 140.835 130.242 140.776C129.752 140.716 129.292 140.512 128.924 140.191C128.555 139.871 128.295 139.448 128.178 138.979C128.06 138.511 128.092 138.018 128.267 137.568C128.443 137.117 128.754 136.729 129.161 136.455C129.567 136.181 130.049 136.034 130.542 136.034C131.148 136.005 131.74 136.209 132.193 136.603C132.645 136.997 132.922 137.548 132.962 138.139V138.139Z" fill="#DA840D"/>
<path d="M133.884 150.848C133.884 151.824 132.729 152.617 131.293 152.617C129.857 152.617 128.702 151.824 128.702 150.848C128.702 149.871 129.872 149.078 131.293 149.078C132.713 149.078 133.884 149.871 133.884 150.848Z" fill="#DA840D"/>
<path d="M123.55 131.914C123.522 132.268 123.388 132.607 123.165 132.888C122.942 133.169 122.64 133.38 122.296 133.494C121.951 133.609 121.58 133.622 121.228 133.532C120.876 133.442 120.559 133.253 120.316 132.989C120.072 132.724 119.914 132.396 119.86 132.044C119.806 131.692 119.859 131.333 120.013 131.011C120.166 130.688 120.413 130.417 120.722 130.23C121.032 130.044 121.391 129.95 121.754 129.961C122.254 129.996 122.72 130.219 123.055 130.583C123.39 130.947 123.567 131.424 123.55 131.914V131.914Z" fill="#DA840D"/>
<path d="M150.428 135.622C150.428 136.598 149.304 137.391 147.915 137.391C146.526 137.391 145.402 136.598 145.402 135.622C145.402 134.645 146.526 133.867 147.915 133.867C149.304 133.867 150.428 134.645 150.428 135.622Z" fill="#DA840D"/>
<path d="M150.428 144.756C150.428 145.335 149.304 145.808 147.915 145.808C146.526 145.808 145.402 145.335 145.402 144.756C145.402 144.176 146.526 143.703 147.915 143.703C149.304 143.703 150.428 144.176 150.428 144.756Z" fill="#DA840D"/>
<path d="M167.428 138.824C167.428 139.602 166.413 140.242 165.149 140.242C163.884 140.242 162.885 139.602 162.885 138.824C162.885 138.046 163.9 137.39 165.149 137.39C166.398 137.39 167.428 138.03 167.428 138.824Z" fill="#DA840D"/>
<path d="M164.711 149.017C164.818 149.493 164.771 149.989 164.577 150.437C164.383 150.885 164.051 151.263 163.627 151.519C163.204 151.775 162.71 151.896 162.213 151.866C161.716 151.835 161.241 151.655 160.854 151.349C160.466 151.044 160.185 150.628 160.05 150.16C159.914 149.692 159.931 149.194 160.097 148.736C160.264 148.277 160.572 147.88 160.979 147.6C161.386 147.32 161.872 147.17 162.369 147.171C162.929 147.12 163.487 147.284 163.924 147.629C164.362 147.974 164.644 148.472 164.711 149.017V149.017Z" fill="#DA840D"/>
<path d="M183.631 146.056C183.533 146.511 183.306 146.929 182.975 147.263C182.644 147.596 182.223 147.831 181.761 147.94C181.299 148.049 180.814 148.028 180.364 147.879C179.914 147.73 179.516 147.459 179.217 147.098C178.918 146.737 178.73 146.3 178.675 145.839C178.619 145.377 178.699 144.91 178.905 144.491C179.11 144.072 179.433 143.719 179.836 143.472C180.238 143.225 180.705 143.095 181.18 143.097C181.904 143.177 182.566 143.533 183.025 144.086C183.483 144.64 183.701 145.347 183.631 146.056Z" fill="#DA840D"/>
<path d="M182.273 132.724C182.273 133.334 181.477 133.822 180.493 133.822C179.51 133.822 178.729 133.334 178.729 132.724C178.729 132.114 179.526 131.641 180.493 131.641C181.461 131.641 182.273 132.175 182.273 132.724Z" fill="#DA840D"/>
<path d="M197.258 135.971C197.258 138.336 196.181 140.243 194.87 140.243C193.558 140.243 192.466 138.336 192.466 135.971C192.466 133.607 193.543 131.685 194.87 131.685C196.196 131.685 197.258 133.607 197.258 135.971Z" fill="#DA840D"/>
<path d="M203.269 131.624C203.269 131.927 203.146 132.218 202.926 132.433C202.707 132.647 202.409 132.768 202.098 132.768C201.788 132.768 201.49 132.647 201.271 132.433C201.051 132.218 200.928 131.927 200.928 131.624C200.928 131.32 201.051 131.029 201.271 130.815C201.49 130.6 201.788 130.479 202.098 130.479C202.408 130.483 202.703 130.605 202.922 130.819C203.14 131.033 203.265 131.321 203.269 131.624V131.624Z" fill="#DA840D"/>
<path d="M163.9 127.979C163.9 129.062 162.433 129.962 160.638 129.962C158.843 129.962 157.375 129.062 157.375 127.979C157.375 126.896 158.827 125.98 160.638 125.98C162.449 125.98 163.9 126.881 163.9 127.979Z" fill="#DA840D"/>
<path d="M102.694 117.694C102.694 118.365 101.555 118.915 100.15 118.915C98.745 118.915 97.6055 118.365 97.6055 117.694C97.6055 117.023 98.745 116.474 100.15 116.474C101.555 116.474 102.694 117.023 102.694 117.694Z" fill="#DA840D"/>
<path d="M117.679 115.24C117.679 115.926 116.383 116.476 114.791 116.476C113.199 116.476 111.888 115.926 111.888 115.24C111.888 114.553 113.183 114.02 114.791 114.02C116.399 114.02 117.679 114.569 117.679 115.24Z" fill="#DA840D"/>
<path d="M136.538 118.243C136.538 119.204 134.789 119.998 132.62 119.998C130.45 119.998 128.702 119.204 128.702 118.243C128.702 117.282 130.466 116.474 132.62 116.474C134.774 116.474 136.538 117.267 136.538 118.243Z" fill="#DA840D"/>
<path d="M150.431 115.24C150.434 115.486 150.362 115.727 150.224 115.932C150.087 116.138 149.889 116.299 149.658 116.394C149.426 116.489 149.171 116.515 148.924 116.468C148.677 116.421 148.45 116.303 148.273 116.129C148.095 115.955 147.974 115.734 147.926 115.493C147.878 115.251 147.904 115.002 148.002 114.775C148.099 114.549 148.264 114.356 148.474 114.222C148.684 114.087 148.931 114.017 149.182 114.02C149.513 114.02 149.831 114.148 150.065 114.377C150.299 114.606 150.431 114.916 150.431 115.24V115.24Z" fill="#DA840D"/>
<path d="M147.917 124.895C147.917 125.49 146.73 125.978 145.247 125.978C143.764 125.978 142.594 125.49 142.594 124.895C142.594 124.3 143.78 123.812 145.247 123.812C146.715 123.812 147.917 124.3 147.917 124.895Z" fill="#DA840D"/>
<path d="M168.787 114.703C168.78 115.057 168.666 115.402 168.459 115.692C168.252 115.983 167.96 116.207 167.623 116.335C167.285 116.464 166.915 116.491 166.562 116.414C166.208 116.336 165.886 116.158 165.636 115.901C165.387 115.644 165.221 115.32 165.16 114.971C165.099 114.622 165.146 114.263 165.295 113.94C165.444 113.616 165.687 113.344 165.995 113.157C166.303 112.969 166.66 112.876 167.023 112.888C167.261 112.894 167.495 112.945 167.712 113.04C167.93 113.134 168.126 113.27 168.29 113.438C168.453 113.607 168.582 113.805 168.667 114.022C168.752 114.239 168.793 114.471 168.787 114.703V114.703Z" fill="#DA840D"/>
<path d="M178.731 121.908C178.731 122.213 177.81 122.457 176.654 122.457C175.499 122.457 174.594 122.213 174.594 121.908C174.594 121.602 175.515 121.358 176.654 121.358C177.794 121.358 178.731 121.602 178.731 121.908Z" fill="#DA840D"/>
<path d="M185.207 118.307C185.246 118.467 185.233 118.636 185.169 118.789C185.105 118.942 184.994 119.072 184.851 119.16C184.709 119.248 184.541 119.291 184.372 119.282C184.204 119.273 184.042 119.212 183.91 119.109C183.778 119.006 183.682 118.865 183.636 118.706C183.59 118.547 183.596 118.378 183.653 118.223C183.71 118.067 183.815 117.933 183.953 117.839C184.092 117.744 184.257 117.695 184.426 117.697C184.612 117.679 184.797 117.733 184.943 117.847C185.089 117.961 185.183 118.126 185.207 118.307Z" fill="#DA840D"/>
<path d="M178.73 121.905C178.694 122.236 178.561 122.549 178.346 122.808C178.132 123.066 177.845 123.258 177.522 123.361C177.198 123.464 176.851 123.473 176.522 123.388C176.193 123.302 175.896 123.125 175.668 122.878C175.44 122.631 175.289 122.325 175.235 121.997C175.181 121.668 175.225 121.331 175.362 121.027C175.499 120.722 175.724 120.463 176.009 120.281C176.293 120.098 176.626 120 176.966 119.998C177.21 120.01 177.45 120.068 177.67 120.171C177.891 120.273 178.089 120.417 178.253 120.594C178.417 120.771 178.543 120.978 178.625 121.203C178.707 121.428 178.743 121.667 178.73 121.905V121.905Z" fill="#DA840D"/>
<path d="M188.75 118.853C188.75 119.478 187.782 119.997 186.58 119.997C185.378 119.997 184.426 119.478 184.426 118.853C184.426 118.227 185.394 117.693 186.58 117.693C187.766 117.693 188.75 118.212 188.75 118.853Z" fill="#DA840D"/>
<path d="M239.951 123.02C239.951 142.715 197.134 161.053 145.575 161.053C94.0169 161.053 50.8564 141.358 50.8564 121.663C50.8564 101.968 94.0169 89.626 145.575 89.626C197.134 89.626 239.951 103.31 239.951 123.02Z" fill="#E3AC8A"/>
<path d="M238.92 119.207C238.92 138.918 197.133 154.89 145.575 154.89C94.0167 154.89 52.2144 138.918 52.2144 119.207C52.2144 99.497 94.0167 83.5244 145.575 83.5244C197.133 83.5244 238.92 99.497 238.92 119.207Z" fill="#DA840D"/>
<path d="M144.216 142.303C182.467 142.303 213.475 130.453 213.475 115.835C213.475 101.217 182.467 89.3662 144.216 89.3662C105.965 89.3662 74.9561 101.217 74.9561 115.835C74.9561 130.453 105.965 142.303 144.216 142.303Z" fill="#F0A508"/>
<path d="M97.6066 125.6C97.6066 127.125 95.8427 128.453 93.6573 128.453C91.4719 128.453 89.7236 127.171 89.7236 125.6C89.7236 124.029 91.4875 122.747 93.6573 122.747C95.827 122.747 97.6066 124.013 97.6066 125.6Z" fill="#DA840D"/>
<path d="M89.7242 113.576C89.7119 113.999 89.5725 114.409 89.3233 114.754C89.0741 115.1 88.7263 115.366 88.3232 115.52C87.9201 115.673 87.4797 115.707 87.0569 115.617C86.6342 115.528 86.2479 115.318 85.9463 115.015C85.6447 114.712 85.4412 114.329 85.3612 113.913C85.2812 113.498 85.3283 113.068 85.4965 112.679C85.6648 112.289 85.9468 111.957 86.3073 111.723C86.6677 111.489 87.0907 111.364 87.5233 111.364C88.114 111.376 88.6761 111.615 89.088 112.029C89.4999 112.443 89.7284 112.999 89.7242 113.576Z" fill="#DA840D"/>
<path d="M117.071 129.059C117.121 129.801 116.942 130.54 116.557 131.181C116.172 131.822 115.598 132.335 114.911 132.653C114.224 132.972 113.455 133.081 112.703 132.967C111.952 132.852 111.253 132.52 110.697 132.012C110.141 131.505 109.754 130.846 109.587 130.121C109.419 129.396 109.478 128.639 109.756 127.947C110.034 127.255 110.519 126.661 111.147 126.242C111.775 125.823 112.518 125.598 113.278 125.596C114.25 125.568 115.194 125.915 115.905 126.564C116.615 127.213 117.035 128.11 117.071 129.059V129.059Z" fill="#DA840D"/>
<path d="M108.83 115.315C108.83 116.261 107.753 117.039 106.441 117.039C105.13 117.039 104.038 116.261 104.038 115.315C104.038 114.369 105.115 113.576 106.441 113.576C107.768 113.576 108.83 114.415 108.83 115.315Z" fill="#DA840D"/>
<path d="M132.962 123.571C133.019 124.05 132.925 124.535 132.694 124.961C132.463 125.387 132.104 125.735 131.666 125.957C131.228 126.18 130.732 126.267 130.242 126.207C129.752 126.148 129.292 125.944 128.924 125.623C128.555 125.302 128.295 124.88 128.178 124.411C128.06 123.942 128.092 123.45 128.267 122.999C128.443 122.548 128.754 122.16 129.161 121.886C129.567 121.613 130.049 121.466 130.542 121.466C131.148 121.436 131.74 121.641 132.193 122.034C132.645 122.428 132.922 122.98 132.962 123.571V123.571Z" fill="#DA840D"/>
<path d="M133.884 136.185C133.884 137.161 132.729 137.955 131.293 137.955C129.857 137.955 128.702 137.161 128.702 136.185C128.702 135.209 129.872 134.431 131.293 134.431C132.713 134.431 133.884 135.209 133.884 136.185Z" fill="#DA840D"/>
<path d="M123.55 117.251C123.526 117.606 123.394 117.947 123.173 118.23C122.952 118.513 122.65 118.726 122.306 118.843C121.962 118.96 121.59 118.975 121.237 118.887C120.883 118.798 120.565 118.611 120.32 118.346C120.075 118.082 119.916 117.754 119.861 117.402C119.806 117.05 119.858 116.689 120.011 116.366C120.164 116.043 120.411 115.77 120.721 115.583C121.031 115.396 121.391 115.302 121.755 115.313C122.253 115.345 122.719 115.565 123.055 115.926C123.39 116.288 123.567 116.763 123.55 117.251Z" fill="#DA840D"/>
<path d="M150.428 120.975C150.428 121.951 149.304 122.744 147.915 122.744C146.526 122.744 145.402 121.951 145.402 120.975C145.402 119.998 146.526 119.205 147.915 119.205C149.304 119.205 150.428 119.998 150.428 120.975Z" fill="#DA840D"/>
<path d="M150.428 130.114C150.428 130.694 149.304 131.167 147.915 131.167C146.526 131.167 145.402 130.694 145.402 130.114C145.402 129.534 146.526 129.062 147.915 129.062C149.304 129.062 150.428 129.534 150.428 130.114Z" fill="#DA840D"/>
<path d="M167.428 124.166C167.428 124.959 166.413 125.6 165.149 125.6C163.884 125.6 162.885 124.959 162.885 124.166C162.885 123.373 163.9 122.747 165.149 122.747C166.398 122.747 167.428 123.388 167.428 124.166Z" fill="#DA840D"/>
<path d="M164.711 134.352C164.821 134.827 164.778 135.324 164.586 135.774C164.395 136.224 164.065 136.604 163.642 136.862C163.22 137.121 162.726 137.245 162.228 137.217C161.731 137.188 161.254 137.01 160.865 136.706C160.476 136.401 160.193 135.986 160.056 135.518C159.919 135.05 159.934 134.551 160.099 134.092C160.264 133.632 160.572 133.234 160.978 132.953C161.385 132.672 161.871 132.521 162.37 132.522C162.928 132.466 163.486 132.626 163.924 132.969C164.362 133.311 164.645 133.808 164.711 134.352V134.352Z" fill="#DA840D"/>
<path d="M183.63 131.393C183.533 131.844 183.307 132.258 182.979 132.589C182.65 132.92 182.233 133.153 181.774 133.261C181.316 133.37 180.836 133.349 180.389 133.202C179.942 133.055 179.547 132.787 179.249 132.429C178.951 132.072 178.764 131.639 178.707 131.182C178.65 130.724 178.728 130.26 178.93 129.844C179.132 129.427 179.45 129.075 179.848 128.828C180.246 128.581 180.708 128.45 181.18 128.448C181.901 128.529 182.561 128.882 183.019 129.432C183.477 129.983 183.696 130.686 183.63 131.393V131.393Z" fill="#DA840D"/>
<path d="M182.273 118.123C182.273 118.718 181.477 119.206 180.493 119.206C179.51 119.206 178.729 118.718 178.729 118.123C178.729 117.528 179.526 117.04 180.493 117.04C181.461 117.04 182.273 117.467 182.273 118.123Z" fill="#DA840D"/>
<path d="M197.258 121.312C197.258 123.676 196.181 125.598 194.87 125.598C193.558 125.598 192.466 123.676 192.466 121.312C192.466 118.947 193.543 117.04 194.87 117.04C196.196 117.04 197.258 118.993 197.258 121.312Z" fill="#DA840D"/>
<path d="M203.269 116.976C203.265 117.278 203.141 117.567 202.922 117.781C202.703 117.995 202.408 118.116 202.099 118.12C201.867 118.12 201.641 118.053 201.448 117.928C201.256 117.802 201.105 117.623 201.017 117.414C200.928 117.205 200.905 116.975 200.95 116.753C200.995 116.531 201.107 116.327 201.271 116.167C201.434 116.007 201.643 115.898 201.87 115.854C202.097 115.81 202.333 115.833 202.547 115.919C202.76 116.006 202.943 116.152 203.072 116.341C203.201 116.529 203.269 116.75 203.269 116.976Z" fill="#DA840D"/>
<path d="M163.9 113.319C163.9 114.418 162.433 115.318 160.638 115.318C158.843 115.318 157.375 114.418 157.375 113.319C157.375 112.221 158.827 111.336 160.638 111.336C162.449 111.336 163.9 112.221 163.9 113.319Z" fill="#DA840D"/>
<path d="M102.694 103.035C102.694 103.721 101.555 104.271 100.15 104.271C98.745 104.271 97.6055 103.721 97.6055 103.035C97.6055 102.348 98.745 101.814 100.15 101.814C101.555 101.814 102.694 102.364 102.694 103.035Z" fill="#DA840D"/>
<path d="M117.679 100.593C117.679 101.264 116.383 101.813 114.791 101.813C113.199 101.813 111.888 101.264 111.888 100.593C111.888 99.9213 113.183 99.3721 114.791 99.3721C116.399 99.3721 117.679 99.9213 117.679 100.593Z" fill="#DA840D"/>
<path d="M136.538 103.584C136.538 104.561 134.789 105.354 132.62 105.354C130.45 105.354 128.702 104.561 128.702 103.584C128.702 102.608 130.466 101.814 132.62 101.814C134.774 101.814 136.538 102.608 136.538 103.584Z" fill="#DA840D"/>
<path d="M150.431 100.592C150.434 100.837 150.362 101.078 150.224 101.284C150.087 101.489 149.889 101.65 149.658 101.746C149.426 101.841 149.171 101.867 148.924 101.819C148.677 101.772 148.45 101.654 148.273 101.481C148.095 101.307 147.974 101.085 147.926 100.844C147.878 100.603 147.904 100.353 148.002 100.127C148.099 99.9005 148.264 99.7077 148.474 99.5731C148.684 99.4385 148.931 99.3682 149.182 99.3712C149.513 99.3712 149.831 99.4998 150.065 99.7286C150.299 99.9575 150.431 100.268 150.431 100.592V100.592Z" fill="#DA840D"/>
<path d="M147.917 110.251C147.917 110.846 146.73 111.334 145.247 111.334C143.764 111.334 142.594 110.846 142.594 110.251C142.594 109.656 143.78 109.152 145.247 109.152C146.715 109.152 147.917 109.641 147.917 110.251Z" fill="#DA840D"/>
<path d="M168.787 100.06C168.79 100.416 168.683 100.765 168.482 101.062C168.28 101.358 167.992 101.589 167.655 101.725C167.318 101.86 166.947 101.894 166.59 101.822C166.233 101.75 165.907 101.575 165.652 101.319C165.398 101.064 165.228 100.741 165.163 100.39C165.099 100.039 165.143 99.6779 165.29 99.3521C165.438 99.0263 165.681 98.7511 165.99 98.5618C166.299 98.3726 166.659 98.2779 167.023 98.2901C167.496 98.2981 167.947 98.4886 168.278 98.82C168.608 99.1515 168.791 99.5971 168.787 100.06V100.06Z" fill="#DA840D"/>
<path d="M178.731 107.259C178.731 107.549 177.81 107.793 176.654 107.793C175.499 107.793 174.594 107.549 174.594 107.259C174.594 106.969 175.515 106.71 176.654 106.71C177.794 106.71 178.731 106.954 178.731 107.259Z" fill="#DA840D"/>
<path d="M185.208 103.737C185.244 103.898 185.227 104.066 185.161 104.217C185.094 104.368 184.982 104.496 184.838 104.582C184.694 104.667 184.527 104.707 184.359 104.696C184.191 104.685 184.03 104.622 183.9 104.518C183.77 104.414 183.676 104.272 183.632 104.113C183.587 103.955 183.595 103.786 183.653 103.632C183.711 103.477 183.816 103.344 183.955 103.251C184.094 103.157 184.259 103.109 184.428 103.111C184.616 103.094 184.803 103.15 184.949 103.268C185.095 103.385 185.188 103.553 185.208 103.737V103.737Z" fill="#DA840D"/>
<path d="M178.73 107.26C178.694 107.591 178.561 107.905 178.346 108.163C178.132 108.422 177.845 108.614 177.522 108.717C177.198 108.82 176.851 108.829 176.522 108.743C176.193 108.657 175.896 108.48 175.668 108.233C175.44 107.987 175.289 107.68 175.235 107.352C175.181 107.023 175.225 106.687 175.362 106.382C175.499 106.078 175.724 105.819 176.009 105.636C176.293 105.454 176.626 105.355 176.966 105.354C177.21 105.365 177.45 105.424 177.67 105.526C177.891 105.628 178.089 105.772 178.253 105.949C178.417 106.126 178.543 106.333 178.625 106.558C178.707 106.783 178.743 107.022 178.73 107.26V107.26Z" fill="#DA840D"/>
<path d="M188.75 104.194C188.75 104.834 187.782 105.353 186.58 105.353C185.378 105.353 184.426 104.834 184.426 104.194C184.426 103.553 185.394 103.034 186.58 103.034C187.766 103.034 188.75 103.553 188.75 104.194Z" fill="#DA840D"/>
<path d="M241.433 96.8413C241.433 116.536 198.6 134.874 147.042 134.874C95.4837 134.874 52.3389 115.179 52.3389 95.4683C52.3389 75.7581 95.4837 63.5078 147.042 63.5078C198.6 63.5078 241.433 77.1311 241.433 96.8413Z" fill="#E3AC8A"/>
<path d="M240.385 93.0581C240.385 112.768 198.583 128.741 147.025 128.741C95.4665 128.741 53.6953 112.738 53.6953 93.0581C53.6953 73.3784 95.4821 57.3447 147.04 57.3447C198.599 57.3447 240.385 73.3174 240.385 93.0581Z" fill="#DA840D"/>
<path d="M214.959 89.6556C214.959 104.27 183.943 116.124 145.7 116.124C107.456 116.124 76.4868 104.27 76.4868 89.6556C76.4868 75.0407 107.456 63.1719 145.7 63.1719C183.943 63.1719 214.959 75.0255 214.959 89.6556Z" fill="#F0A508"/>
<path d="M99.0738 99.4202C99.0738 100.946 97.3255 102.273 95.1402 102.273C92.9548 102.273 91.2065 100.992 91.2065 99.4202C91.2065 97.8489 92.9704 96.5674 95.2182 96.5674C97.466 96.5674 99.0738 97.8336 99.0738 99.4202Z" fill="#DA840D"/>
<path d="M91.2065 87.3988C91.1882 87.8186 91.0445 88.2239 90.7931 88.5647C90.5417 88.9056 90.1938 89.167 89.7921 89.3168C89.3904 89.4665 88.9527 89.498 88.5329 89.4074C88.1132 89.3168 87.7297 89.1081 87.43 88.8069C87.1302 88.5057 86.9273 88.1254 86.8462 87.7128C86.7651 87.3002 86.8094 86.8734 86.9736 86.4852C87.1379 86.0969 87.4149 85.7641 87.7704 85.528C88.126 85.2918 88.5445 85.1626 88.9744 85.1562C89.2722 85.1582 89.5667 85.218 89.8407 85.3322C90.1147 85.4463 90.3627 85.6125 90.5704 85.8212C90.7781 86.0299 90.9413 86.2768 91.0505 86.5476C91.1597 86.8184 91.2127 87.1078 91.2065 87.3988V87.3988Z" fill="#DA840D"/>
<path d="M118.632 102.883C118.679 103.621 118.498 104.356 118.112 104.992C117.726 105.629 117.154 106.137 116.469 106.452C115.785 106.767 115.019 106.874 114.271 106.758C113.524 106.642 112.829 106.31 112.277 105.804C111.725 105.298 111.341 104.642 111.176 103.92C111.01 103.198 111.07 102.445 111.348 101.757C111.625 101.069 112.108 100.478 112.733 100.061C113.359 99.6446 114.097 99.421 114.854 99.4196C115.825 99.3908 116.767 99.7392 117.475 100.388C118.183 101.037 118.599 101.934 118.632 102.883Z" fill="#DA840D"/>
<path d="M110.312 89.1213C110.312 90.0824 109.235 90.8605 107.908 90.8605C106.581 90.8605 105.52 90.0824 105.52 89.1213C105.52 88.1602 106.597 87.3975 107.908 87.3975C109.219 87.3975 110.312 88.1755 110.312 89.1213Z" fill="#DA840D"/>
<path d="M134.446 97.3151C134.503 97.7942 134.409 98.279 134.178 98.7051C133.947 99.1313 133.588 99.4786 133.15 99.7012C132.712 99.9237 132.216 100.011 131.726 99.9513C131.236 99.8916 130.776 99.6879 130.408 99.3672C130.039 99.0464 129.779 98.6237 129.662 98.1551C129.544 97.6865 129.575 97.1942 129.751 96.7433C129.927 96.2925 130.238 95.9044 130.644 95.6305C131.051 95.3567 131.533 95.2099 132.026 95.2098C132.631 95.1805 133.224 95.3847 133.677 95.7785C134.129 96.1723 134.405 96.7242 134.446 97.3151V97.3151Z" fill="#DA840D"/>
<path d="M135.365 110.009C135.365 110.985 134.21 111.778 132.774 111.778C131.338 111.778 130.183 110.985 130.183 110.009C130.183 109.032 131.338 108.315 132.774 108.315C134.21 108.315 135.365 109.048 135.365 110.009Z" fill="#DA840D"/>
<path d="M125.033 91.0742C125.033 91.5557 124.838 92.0174 124.489 92.3579C124.141 92.6984 123.669 92.8896 123.176 92.8896C122.683 92.8896 122.211 92.6984 121.862 92.3579C121.514 92.0174 121.318 91.5557 121.318 91.0742C121.318 90.5927 121.514 90.131 121.862 89.7905C122.211 89.4501 122.683 89.2588 123.176 89.2588C123.669 89.2588 124.141 89.4501 124.489 89.7905C124.838 90.131 125.033 90.5927 125.033 91.0742V91.0742Z" fill="#DA840D"/>
<path d="M151.912 94.7968C151.912 95.7731 150.788 96.5664 149.399 96.5664C148.01 96.5664 146.886 95.7731 146.886 94.7968C146.886 93.8204 148.01 93.0576 149.399 93.0576C150.788 93.0576 151.912 93.8204 151.912 94.7968Z" fill="#DA840D"/>
<path d="M151.912 103.934C151.912 104.514 150.788 104.987 149.399 104.987C148.01 104.987 146.886 104.514 146.886 103.934C146.886 103.355 148.01 102.882 149.399 102.882C150.788 102.882 151.912 103.355 151.912 103.934Z" fill="#DA840D"/>
<path d="M168.91 97.9861C168.91 98.7794 167.895 99.4201 166.631 99.4201C165.366 99.4201 164.352 98.7794 164.352 97.9861C164.352 97.1929 165.382 96.5674 166.631 96.5674C167.879 96.5674 168.91 97.2081 168.91 97.9861Z" fill="#DA840D"/>
<path d="M166.195 108.175C166.308 108.653 166.267 109.154 166.076 109.608C165.885 110.061 165.555 110.446 165.13 110.708C164.706 110.97 164.209 111.097 163.707 111.07C163.206 111.044 162.726 110.866 162.333 110.56C161.94 110.255 161.653 109.838 161.514 109.367C161.374 108.895 161.388 108.393 161.554 107.93C161.719 107.467 162.028 107.065 162.437 106.781C162.846 106.497 163.336 106.345 163.838 106.345C164.398 106.284 164.96 106.443 165.402 106.786C165.843 107.129 166.128 107.628 166.195 108.175Z" fill="#DA840D"/>
<path d="M185.114 105.262C185 105.707 184.762 106.111 184.425 106.43C184.088 106.749 183.666 106.97 183.208 107.067C182.75 107.164 182.273 107.134 181.831 106.98C181.389 106.826 181 106.554 180.709 106.195C180.417 105.836 180.233 105.405 180.179 104.95C180.125 104.494 180.203 104.033 180.403 103.619C180.603 103.204 180.918 102.853 181.312 102.604C181.706 102.355 182.163 102.219 182.632 102.211C183.002 102.247 183.361 102.355 183.688 102.529C184.014 102.703 184.302 102.939 184.533 103.223C184.765 103.508 184.936 103.835 185.035 104.185C185.135 104.535 185.162 104.902 185.114 105.262V105.262Z" fill="#DA840D"/>
<path d="M183.757 91.9435C183.757 92.5385 182.961 93.0266 181.977 93.0266C180.994 93.0266 180.213 92.5385 180.213 91.9435C180.213 91.3485 180.994 90.8604 181.977 90.8604C182.961 90.8604 183.757 91.3485 183.757 91.9435Z" fill="#DA840D"/>
<path d="M198.741 95.1319C198.741 97.4966 197.664 99.4188 196.337 99.4188C195.011 99.4188 193.949 97.4966 193.949 95.1319C193.949 92.7673 195.026 90.8604 196.337 90.8604C197.649 90.8604 198.741 92.7673 198.741 95.1319Z" fill="#DA840D"/>
<path d="M204.736 90.7994C204.733 91.022 204.663 91.2388 204.534 91.4224C204.405 91.606 204.223 91.7483 204.012 91.8315C203.801 91.9146 203.569 91.9348 203.346 91.8895C203.123 91.8442 202.919 91.7355 202.759 91.577C202.599 91.4186 202.49 91.2174 202.447 90.9989C202.404 90.7803 202.427 90.5541 202.515 90.3487C202.603 90.1433 202.751 89.9679 202.941 89.8445C203.13 89.7211 203.353 89.6553 203.581 89.6553C203.889 89.6593 204.182 89.7816 204.399 89.9957C204.615 90.2099 204.736 90.4986 204.736 90.7994V90.7994Z" fill="#DA840D"/>
<path d="M165.368 87.1395C165.368 88.2379 163.916 89.1227 162.121 89.1227C160.326 89.1227 158.858 88.2379 158.858 87.1395C158.858 86.0411 160.31 85.1562 162.121 85.1562C163.931 85.1562 165.368 86.0411 165.368 87.1395Z" fill="#DA840D"/>
<path d="M104.179 76.8704C104.179 77.5417 103.039 78.0909 101.635 78.0909C100.23 78.0909 99.0747 77.5417 99.0747 76.8704C99.0747 76.1992 100.214 75.6348 101.635 75.6348C103.055 75.6348 104.179 76.184 104.179 76.8704Z" fill="#DA840D"/>
<path d="M119.163 74.4158C119.163 75.1023 117.867 75.6362 116.259 75.6362C114.652 75.6362 113.372 75.1023 113.372 74.4158C113.372 73.7293 114.667 73.1953 116.259 73.1953C117.852 73.1953 119.163 73.7445 119.163 74.4158Z" fill="#DA840D"/>
<path d="M138.019 77.4044C138.019 78.3808 136.271 79.1741 134.101 79.1741C131.931 79.1741 130.183 78.3808 130.183 77.4044C130.183 76.4281 131.947 75.6348 134.101 75.6348C136.255 75.6348 138.019 76.4281 138.019 77.4044Z" fill="#DA840D"/>
<path d="M151.912 74.4131C151.878 74.7152 151.73 74.9943 151.499 75.1969C151.267 75.3996 150.967 75.5117 150.656 75.5117C150.344 75.5117 150.044 75.3996 149.812 75.1969C149.581 74.9943 149.433 74.7152 149.399 74.4131C149.433 74.111 149.581 73.8319 149.812 73.6292C150.044 73.4265 150.344 73.3145 150.656 73.3145C150.967 73.3145 151.267 73.4265 151.499 73.6292C151.73 73.8319 151.878 74.111 151.912 74.4131V74.4131Z" fill="#DA840D"/>
<path d="M149.399 84.0558C149.399 84.666 148.212 85.1542 146.729 85.1542C145.246 85.1542 144.06 84.666 144.06 84.0558C144.06 83.4456 145.262 82.9727 146.729 82.9727C148.197 82.9727 149.399 83.4608 149.399 84.0558Z" fill="#DA840D"/>
<path d="M170.27 73.8793C170.273 74.2329 170.168 74.5795 169.97 74.875C169.771 75.1705 169.487 75.4017 169.153 75.5391C168.82 75.6766 168.452 75.7141 168.097 75.6469C167.741 75.5798 167.415 75.411 167.158 75.162C166.901 74.913 166.725 74.595 166.653 74.2484C166.582 73.9017 166.617 73.5421 166.755 73.215C166.892 72.888 167.127 72.6083 167.427 72.4115C167.728 72.2147 168.082 72.1097 168.443 72.1096C168.683 72.1056 168.921 72.1484 169.144 72.2357C169.366 72.323 169.568 72.453 169.739 72.6179C169.909 72.7828 170.043 72.9794 170.135 73.1961C170.226 73.4127 170.272 73.645 170.27 73.8793V73.8793Z" fill="#DA840D"/>
<path d="M180.211 81.0834C180.211 81.3732 179.274 81.6173 178.135 81.6173C176.995 81.6173 176.074 81.3732 176.074 81.0834C176.074 80.7935 176.995 80.5342 178.135 80.5342C179.274 80.5342 180.211 80.8546 180.211 81.0834Z" fill="#DA840D"/>
<path d="M186.691 77.4836C186.642 77.6494 186.54 77.7952 186.399 77.899C186.258 78.0028 186.086 78.059 185.91 78.059C185.734 78.059 185.562 78.0028 185.421 77.899C185.28 77.7952 185.178 77.6494 185.129 77.4836C185.178 77.3178 185.28 77.172 185.421 77.0682C185.562 76.9644 185.734 76.9082 185.91 76.9082C186.086 76.9082 186.258 76.9644 186.399 77.0682C186.54 77.172 186.642 77.3178 186.691 77.4836V77.4836Z" fill="#DA840D"/>
<path d="M180.213 81.0808C180.177 81.4116 180.044 81.7252 179.829 81.9836C179.615 82.242 179.328 82.4343 179.005 82.5371C178.681 82.64 178.333 82.6491 178.004 82.5633C177.676 82.4775 177.379 82.3005 177.151 82.0537C176.922 81.8069 176.772 81.5008 176.718 81.1723C176.664 80.8438 176.708 80.507 176.845 80.2025C176.982 79.8981 177.207 79.6389 177.492 79.4564C177.776 79.2738 178.109 79.1757 178.449 79.1738C178.693 79.1855 178.933 79.2442 179.153 79.3464C179.374 79.4487 179.572 79.5925 179.736 79.7696C179.9 79.9468 180.026 80.1538 180.108 80.3787C180.19 80.6037 180.226 80.8423 180.213 81.0808V81.0808Z" fill="#DA840D"/>
<path d="M190.234 78.0162C190.234 78.657 189.266 79.1757 188.064 79.1757C186.862 79.1757 185.895 78.657 185.895 78.0162C185.895 77.3755 186.862 76.8721 188.064 76.8721C189.266 76.8721 190.234 77.3755 190.234 78.0162Z" fill="#DA840D"/>
<path d="M241.433 80.0137C241.433 99.7239 198.6 118.046 147.042 118.046C95.4837 118.046 52.3389 98.3662 52.3389 78.6559C52.3389 58.9457 95.4837 46.6191 147.042 46.6191C198.6 46.6191 241.433 60.3034 241.433 80.0137Z" fill="#E3AC8A"/>
<path d="M240.385 76.2772C240.385 95.9722 198.583 111.96 147.025 111.96C95.4665 111.96 53.6953 95.9112 53.6953 76.2772C53.6953 56.6433 95.4821 40.5791 147.04 40.5791C198.599 40.5791 240.385 56.4449 240.385 76.2772Z" fill="#DA840D"/>
<path d="M214.959 72.8285C214.959 87.4433 183.943 99.2969 145.7 99.2969C107.456 99.2969 76.4868 87.4433 76.4868 72.8285C76.4868 58.2136 107.456 46.3447 145.7 46.3447C183.943 46.3447 214.959 58.1983 214.959 72.8285Z" fill="#F0A508"/>
<path d="M99.0738 82.593C99.0738 84.1186 97.3255 85.4458 95.1402 85.4458C92.9548 85.4458 91.2065 84.1644 91.2065 82.593C91.2065 81.0217 92.9704 79.7402 95.1402 79.7402C97.3099 79.7402 99.0738 81.0217 99.0738 82.593Z" fill="#DA840D"/>
<path d="M91.2065 70.5707C91.1882 70.9904 91.0445 71.3958 90.7931 71.7366C90.5417 72.0775 90.1938 72.3389 89.7921 72.4887C89.3904 72.6384 88.9527 72.6699 88.5329 72.5793C88.1132 72.4887 87.7297 72.28 87.43 71.9788C87.1302 71.6776 86.9273 71.2973 86.8462 70.8847C86.7651 70.4721 86.8094 70.0453 86.9736 69.657C87.1379 69.2688 87.4149 68.936 87.7704 68.6999C88.126 68.4637 88.5445 68.3345 88.9744 68.3281C89.2722 68.3301 89.5667 68.3899 89.8407 68.504C90.1147 68.6182 90.3627 68.7844 90.5704 68.9931C90.7781 69.2017 90.9413 69.4487 91.0505 69.7195C91.1597 69.9903 91.2127 70.2797 91.2065 70.5707V70.5707Z" fill="#DA840D"/>
<path d="M114.808 89.5169C116.895 89.5169 118.586 87.9664 118.586 86.0538C118.586 84.1413 116.895 82.5908 114.808 82.5908C112.722 82.5908 111.031 84.1413 111.031 86.0538C111.031 87.9664 112.722 89.5169 114.808 89.5169Z" fill="#DA840D"/>
<path d="M110.312 72.3114C110.312 73.2573 109.235 74.0353 107.908 74.0353C106.581 74.0353 105.52 73.2268 105.52 72.3114C105.52 71.3961 106.597 70.5723 107.908 70.5723C109.219 70.5723 110.312 71.3503 110.312 72.3114Z" fill="#DA840D"/>
<path d="M134.446 80.4879C134.503 80.9671 134.409 81.4519 134.178 81.878C133.947 82.3041 133.588 82.6515 133.15 82.874C132.712 83.0965 132.216 83.1838 131.726 83.1241C131.236 83.0645 130.776 82.8608 130.408 82.54C130.039 82.2192 129.779 81.7965 129.662 81.328C129.544 80.8594 129.575 80.367 129.751 79.9162C129.927 79.4653 130.238 79.0772 130.644 78.8034C131.051 78.5295 131.533 78.3828 132.026 78.3827C132.631 78.3533 133.224 78.5576 133.677 78.9514C134.129 79.3452 134.405 79.897 134.446 80.4879V80.4879Z" fill="#DA840D"/>
<path d="M135.365 93.1772C135.365 94.1536 134.21 94.9469 132.774 94.9469C131.338 94.9469 130.183 94.1536 130.183 93.1772C130.183 92.2009 131.338 91.4229 132.774 91.4229C134.21 91.4229 135.365 92.2161 135.365 93.1772Z" fill="#DA840D"/>
<path d="M125.033 74.2613C125.006 74.6133 124.874 74.9498 124.654 75.2298C124.434 75.5097 124.135 75.7209 123.794 75.8375C123.453 75.9541 123.085 75.971 122.735 75.8862C122.384 75.8014 122.066 75.6186 121.82 75.3601C121.574 75.1016 121.411 74.7786 121.35 74.4307C121.289 74.0828 121.333 73.725 121.477 73.4012C121.621 73.0774 121.858 72.8016 122.16 72.6076C122.461 72.4135 122.814 72.3096 123.175 72.3086C123.686 72.3285 124.168 72.5449 124.516 72.9107C124.864 73.2766 125.05 73.7621 125.033 74.2613V74.2613Z" fill="#DA840D"/>
<path d="M151.912 77.9707C151.912 78.9471 150.788 79.7404 149.399 79.7404C148.01 79.7404 146.886 78.9471 146.886 77.9707C146.886 76.9944 148.01 76.2773 149.399 76.2773C150.788 76.2773 151.912 76.9944 151.912 77.9707Z" fill="#DA840D"/>
<path d="M151.912 87.1073C151.912 87.687 150.788 88.1599 149.399 88.1599C148.01 88.1599 146.886 87.687 146.886 87.1073C146.886 86.5276 148.01 86.0547 149.399 86.0547C150.788 86.0547 151.912 86.5276 151.912 87.1073Z" fill="#DA840D"/>
<path d="M168.91 81.159C168.91 81.9523 167.895 82.593 166.631 82.593C165.366 82.593 164.352 81.9523 164.352 81.159C164.352 80.3657 165.382 79.7402 166.631 79.7402C167.879 79.7402 168.91 80.381 168.91 81.159Z" fill="#DA840D"/>
<path d="M166.195 91.35C166.308 91.828 166.267 92.3285 166.076 92.7824C165.885 93.2362 165.555 93.6208 165.13 93.8829C164.706 94.145 164.209 94.2716 163.707 94.2451C163.206 94.2186 162.726 94.0404 162.333 93.7352C161.94 93.4299 161.653 93.0127 161.514 92.5415C161.374 92.0702 161.388 91.5681 161.554 91.1049C161.719 90.6416 162.028 90.2402 162.437 89.9561C162.846 89.672 163.336 89.5193 163.838 89.5193C164.398 89.4592 164.96 89.6178 165.402 89.9606C165.843 90.3035 166.128 90.8028 166.195 91.35Z" fill="#DA840D"/>
<path d="M185.114 88.4818C185 88.9265 184.761 89.3313 184.425 89.6503C184.088 89.9693 183.666 90.1898 183.208 90.2869C182.75 90.384 182.273 90.3538 181.831 90.1997C181.389 90.0456 181 89.7738 180.709 89.415C180.417 89.0561 180.233 88.6247 180.179 88.1693C180.125 87.714 180.203 87.253 180.403 86.8384C180.603 86.4238 180.918 86.0723 181.312 85.8235C181.706 85.5747 182.163 85.4386 182.632 85.4307C183.003 85.4644 183.363 85.5711 183.691 85.7444C184.018 85.9177 184.307 86.1539 184.539 86.4389C184.771 86.724 184.941 87.0519 185.04 87.4029C185.139 87.754 185.164 88.121 185.114 88.4818V88.4818Z" fill="#DA840D"/>
<path d="M183.757 75.1193C183.757 75.7295 182.961 76.2177 181.977 76.2177C180.994 76.2177 180.213 75.7295 180.213 75.1193C180.213 74.5091 180.994 74.0361 181.977 74.0361C182.961 74.0361 183.757 74.5243 183.757 75.1193Z" fill="#DA840D"/>
<path d="M198.741 78.3077C198.741 80.6723 197.664 82.5945 196.337 82.5945C195.011 82.5945 193.949 80.6723 193.949 78.3077C193.949 75.9431 195.026 74.0361 196.337 74.0361C197.649 74.0361 198.741 75.9583 198.741 78.3077Z" fill="#DA840D"/>
<path d="M204.736 73.9753C204.733 74.1979 204.663 74.4146 204.534 74.5983C204.405 74.7819 204.224 74.9242 204.012 75.0073C203.801 75.0905 203.569 75.1106 203.346 75.0654C203.123 75.0201 202.919 74.9114 202.759 74.7529C202.599 74.5944 202.49 74.3933 202.447 74.1747C202.404 73.9561 202.427 73.7299 202.515 73.5245C202.603 73.3191 202.751 73.1437 202.941 73.0203C203.13 72.8969 203.353 72.8311 203.581 72.8311C203.734 72.831 203.885 72.8607 204.027 72.9184C204.168 72.9761 204.296 73.0606 204.403 73.1671C204.511 73.2735 204.596 73.3998 204.653 73.5385C204.71 73.6773 204.738 73.8257 204.736 73.9753V73.9753Z" fill="#DA840D"/>
<path d="M165.368 70.3114C165.368 71.4098 163.916 72.3099 162.121 72.3099C160.326 72.3099 158.858 71.4098 158.858 70.3114C158.858 69.213 160.31 68.3281 162.121 68.3281C163.931 68.3281 165.368 69.213 165.368 70.3114Z" fill="#DA840D"/>
<path d="M104.179 60.0456C104.179 60.7169 103.039 61.2661 101.635 61.2661C100.23 61.2661 99.0747 60.7169 99.0747 60.0456C99.0747 59.3744 100.214 58.8252 101.635 58.8252C103.055 58.8252 104.179 59.3744 104.179 60.0456Z" fill="#DA840D"/>
<path d="M119.163 57.5876C119.163 58.2741 117.867 58.8233 116.259 58.8233C114.652 58.8233 113.372 58.2741 113.372 57.5876C113.372 56.9011 114.667 56.3672 116.259 56.3672C117.852 56.3672 119.163 56.9164 119.163 57.5876Z" fill="#DA840D"/>
<path d="M138.019 60.5796C138.019 61.5559 136.271 62.3492 134.101 62.3492C131.931 62.3492 130.183 61.5559 130.183 60.5796C130.183 59.6032 131.947 58.8252 134.101 58.8252C136.255 58.8252 138.019 59.6032 138.019 60.5796Z" fill="#DA840D"/>
<path d="M151.911 57.5887C151.915 57.8344 151.843 58.0754 151.705 58.2809C151.567 58.4864 151.37 58.6472 151.138 58.7426C150.907 58.838 150.651 58.8638 150.404 58.8166C150.158 58.7694 149.931 58.6514 149.753 58.4776C149.575 58.3039 149.455 58.0823 149.406 57.8412C149.358 57.6001 149.384 57.3504 149.482 57.124C149.58 56.8976 149.744 56.7048 149.954 56.5701C150.165 56.4355 150.411 56.3652 150.663 56.3683C150.994 56.3683 151.311 56.4968 151.546 56.7257C151.78 56.9546 151.911 57.265 151.911 57.5887V57.5887Z" fill="#DA840D"/>
<path d="M149.399 67.2439C149.399 67.8389 148.212 68.3271 146.729 68.3271C145.246 68.3271 144.06 67.8389 144.06 67.2439C144.06 66.6489 145.262 66.1455 146.729 66.1455C148.197 66.1455 149.399 66.6337 149.399 67.2439Z" fill="#DA840D"/>
<path d="M170.27 57.0549C170.273 57.4085 170.168 57.7551 169.97 58.0507C169.771 58.3462 169.487 58.5773 169.153 58.7148C168.82 58.8522 168.452 58.8897 168.097 58.8226C167.741 58.7555 167.415 58.5867 167.158 58.3377C166.901 58.0887 166.725 57.7707 166.653 57.424C166.582 57.0774 166.617 56.7177 166.755 56.3906C166.892 56.0636 167.127 55.7839 167.427 55.5871C167.728 55.3903 168.082 55.2852 168.443 55.2852C168.682 55.2832 168.92 55.3275 169.141 55.4155C169.363 55.5036 169.564 55.6336 169.734 55.7981C169.904 55.9626 170.038 56.1584 170.13 56.3741C170.222 56.5898 170.27 56.8212 170.27 57.0549V57.0549Z" fill="#DA840D"/>
<path d="M180.211 64.2562C180.211 64.5461 179.274 64.7902 178.135 64.7902C176.995 64.7902 176.074 64.5461 176.074 64.2562C176.074 63.9664 176.995 63.707 178.135 63.707C179.274 63.707 180.211 63.9511 180.211 64.2562Z" fill="#DA840D"/>
<path d="M186.692 60.6545C186.731 60.8146 186.718 60.9825 186.654 61.135C186.591 61.2876 186.481 61.4171 186.34 61.5058C186.198 61.5945 186.031 61.6379 185.863 61.63C185.695 61.6221 185.534 61.5633 185.401 61.4618C185.269 61.3603 185.172 61.221 185.124 61.0633C185.076 60.9056 185.079 60.7372 185.134 60.5815C185.188 60.4258 185.291 60.2905 185.427 60.1942C185.564 60.098 185.727 60.0456 185.896 60.0443C186.083 60.0267 186.27 60.0803 186.419 60.1938C186.567 60.3074 186.665 60.4724 186.692 60.6545V60.6545Z" fill="#DA840D"/>
<path d="M180.213 64.2536C180.177 64.5845 180.044 64.898 179.829 65.1564C179.615 65.4148 179.328 65.6071 179.005 65.7099C178.681 65.8128 178.333 65.8219 178.004 65.7361C177.676 65.6503 177.379 65.4734 177.151 65.2265C176.922 64.9797 176.772 64.6736 176.718 64.3451C176.664 64.0166 176.708 63.6799 176.845 63.3754C176.982 63.0709 177.207 62.8118 177.492 62.6292C177.776 62.4467 178.109 62.3486 178.449 62.3467C178.693 62.3584 178.933 62.4171 179.153 62.5193C179.374 62.6215 179.572 62.7653 179.736 62.9425C179.9 63.1196 180.026 63.3266 180.108 63.5516C180.19 63.7766 180.226 64.0151 180.213 64.2536V64.2536Z" fill="#DA840D"/>
<path d="M190.234 61.1882C190.234 61.8289 189.266 62.3476 188.064 62.3476C186.862 62.3476 185.895 61.8289 185.895 61.1882C185.895 60.5474 186.862 60.0439 188.064 60.0439C189.266 60.0439 190.234 60.5627 190.234 61.1882Z" fill="#DA840D"/>
<path d="M237.827 62.685C235.641 43.7376 196.493 28.665 148.509 28.665C103.616 28.665 66.465 41.8611 60.0651 59.0542C58.5867 61.3778 57.7878 64.0528 57.7549 66.7888C57.7549 86.4991 99.1202 106.194 148.509 106.194C197.897 106.194 238.919 87.8873 238.919 68.1466C238.916 66.2745 238.545 64.4205 237.827 62.685Z" fill="#C66720"/>
<path d="M243.338 59.2681C243.338 78.9783 200.506 97.3156 148.947 97.3156C97.3889 97.3156 54.2441 77.6206 54.2441 57.9714C54.2441 38.3221 97.3889 25.9346 148.947 25.9346C200.506 25.9346 243.338 39.5578 243.338 59.2681Z" fill="#E3AC8A"/>
<path d="M242.51 55.4701C242.51 75.1803 201.925 90.0698 150.413 90.0698C98.902 90.0698 57.0684 74.0972 57.0684 54.387C57.0684 34.6767 98.8551 18.7041 150.413 18.7041C201.972 18.7041 242.51 35.7599 242.51 55.4701Z" fill="#DA840D"/>
<path d="M147.604 78.5502C185.855 78.5502 216.864 66.6999 216.864 52.0817C216.864 37.4636 185.855 25.6133 147.604 25.6133C109.353 25.6133 78.3447 37.4636 78.3447 52.0817C78.3447 66.6999 109.353 78.5502 147.604 78.5502Z" fill="#F0A508"/>
<path d="M100.978 61.844C100.978 63.3696 99.2141 64.7121 97.0444 64.7121C94.8747 64.7121 93.1108 63.4306 93.1108 61.844C93.1108 60.2574 94.8747 58.9912 97.0444 58.9912C99.2141 58.9912 100.978 60.2727 100.978 61.844Z" fill="#DA840D"/>
<path d="M93.1107 49.8369C93.0893 50.2572 92.9423 50.6621 92.6878 51.0015C92.4334 51.3409 92.0826 51.6 91.679 51.7465C91.2754 51.8931 90.8367 51.9207 90.4172 51.8261C89.9977 51.7314 89.6158 51.5186 89.3189 51.2139C89.0219 50.9093 88.8228 50.5262 88.7464 50.1121C88.67 49.698 88.7195 49.2711 88.8888 48.8842C89.0581 48.4973 89.3398 48.1675 89.699 47.9355C90.0582 47.7035 90.4792 47.5796 90.9097 47.5791C91.2063 47.585 91.4987 47.6483 91.7701 47.7651C92.0415 47.882 92.2866 48.0503 92.4912 48.2601C92.6958 48.47 92.8559 48.7174 92.9622 48.988C93.0685 49.2587 93.119 49.5472 93.1107 49.8369V49.8369Z" fill="#DA840D"/>
<path d="M120.49 65.3217C120.534 66.0595 120.35 66.7932 119.962 67.4277C119.575 68.0623 119.001 68.5685 118.316 68.881C117.631 69.1935 116.865 69.2977 116.119 69.1803C115.372 69.0629 114.679 68.7292 114.129 68.2224C113.578 67.7157 113.196 67.0591 113.032 66.3378C112.867 65.6164 112.928 64.8634 113.207 64.1763C113.485 63.4892 113.968 62.8995 114.593 62.4836C115.218 62.0677 115.956 61.8447 116.713 61.8434C117.194 61.8292 117.674 61.9079 118.125 62.075C118.576 62.2422 118.988 62.4945 119.339 62.8175C119.69 63.1405 119.972 63.528 120.169 63.9577C120.367 64.3873 120.476 64.8509 120.49 65.3217Z" fill="#DA840D"/>
<path d="M112.218 51.5608C112.218 52.5219 111.141 53.2847 109.814 53.2847C108.487 53.2847 107.426 52.5219 107.426 51.5608C107.426 50.5997 108.503 49.8369 109.814 49.8369C111.125 49.8369 112.218 50.615 112.218 51.5608Z" fill="#DA840D"/>
<path d="M136.349 59.7387C136.405 60.2179 136.312 60.7027 136.081 61.1288C135.849 61.5549 135.491 61.9023 135.053 62.1248C134.615 62.3474 134.118 62.4346 133.629 62.375C133.139 62.3153 132.679 62.1116 132.31 61.7908C131.942 61.47 131.682 61.0474 131.564 60.5788C131.447 60.1102 131.478 59.6178 131.654 59.167C131.829 58.7161 132.141 58.328 132.547 58.0542C132.954 57.7803 133.435 57.6336 133.929 57.6334C134.535 57.6001 135.13 57.8029 135.584 58.1975C136.037 58.5921 136.312 59.1463 136.349 59.7387V59.7387Z" fill="#DA840D"/>
<path d="M137.271 72.4474C137.271 73.4238 136.116 74.217 134.68 74.217C133.244 74.217 132.089 73.4238 132.089 72.4474C132.089 71.471 133.244 70.6777 134.68 70.6777C136.116 70.6777 137.271 71.471 137.271 72.4474Z" fill="#DA840D"/>
<path d="M126.938 53.5152C126.911 53.8672 126.779 54.2038 126.559 54.4837C126.339 54.7637 126.04 54.9749 125.7 55.0915C125.359 55.208 124.99 55.225 124.64 55.1402C124.289 55.0554 123.972 54.8726 123.726 54.614C123.48 54.3555 123.316 54.0325 123.255 53.6846C123.194 53.3367 123.238 52.9789 123.382 52.6551C123.526 52.3313 123.763 52.0555 124.065 51.8615C124.367 51.6674 124.72 51.5635 125.081 51.5625C125.334 51.5704 125.584 51.6272 125.815 51.7298C126.046 51.8325 126.253 51.9788 126.426 52.1604C126.599 52.3419 126.733 52.5551 126.821 52.7877C126.909 53.0203 126.949 53.2675 126.938 53.5152Z" fill="#DA840D"/>
<path d="M153.817 57.2364C153.817 58.2128 152.693 58.9908 151.304 58.9908C149.914 58.9908 148.791 58.2128 148.791 57.2364C148.791 56.2601 149.914 55.4668 151.304 55.4668C152.693 55.4668 153.817 56.2601 153.817 57.2364Z" fill="#DA840D"/>
<path d="M153.817 66.3759C153.817 66.9556 152.693 67.4285 151.304 67.4285C149.914 67.4285 148.791 66.9556 148.791 66.3759C148.791 65.7962 149.914 65.3232 151.304 65.3232C152.693 65.3232 153.817 65.7962 153.817 66.3759Z" fill="#DA840D"/>
<path d="M170.816 60.4252C170.816 61.2185 169.786 61.844 168.537 61.844C167.288 61.844 166.258 61.2185 166.258 60.4252C166.258 59.632 167.288 58.9912 168.537 58.9912C169.786 58.9912 170.816 59.632 170.816 60.4252Z" fill="#DA840D"/>
<path d="M168.099 70.6181C168.213 71.096 168.171 71.5966 167.98 72.0505C167.79 72.5043 167.459 72.8889 167.035 73.151C166.61 73.4131 166.113 73.5397 165.612 73.5132C165.11 73.4867 164.63 73.3085 164.237 73.0033C163.844 72.698 163.558 72.2808 163.418 71.8095C163.279 71.3382 163.292 70.8362 163.458 70.3729C163.623 69.9097 163.932 69.5082 164.341 69.2241C164.751 68.94 165.24 68.7874 165.742 68.7874C166.302 68.7312 166.862 68.8914 167.302 69.2335C167.743 69.5756 168.029 70.0725 168.099 70.6181V70.6181Z" fill="#DA840D"/>
<path d="M187.017 67.6572C186.92 68.1082 186.694 68.5231 186.366 68.8538C186.037 69.1845 185.62 69.4176 185.161 69.5261C184.703 69.6346 184.223 69.614 183.776 69.4668C183.329 69.3195 182.934 69.0516 182.636 68.6941C182.339 68.3365 182.151 67.904 182.094 67.4464C182.038 66.9888 182.115 66.5249 182.317 66.1084C182.519 65.6919 182.837 65.3398 183.235 65.0929C183.634 64.8459 184.095 64.7142 184.567 64.7129C185.288 64.7936 185.948 65.1469 186.406 65.6971C186.864 66.2473 187.083 66.9509 187.017 67.6572V67.6572Z" fill="#DA840D"/>
<path d="M185.643 54.3845C185.643 54.9795 184.863 55.4677 183.88 55.4677C182.896 55.4677 182.116 54.9795 182.116 54.3845C182.116 53.7896 182.896 53.2861 183.88 53.2861C184.863 53.2861 185.643 53.7743 185.643 54.3845Z" fill="#DA840D"/>
<path d="M200.646 57.573C200.646 59.9376 199.569 61.8445 198.242 61.8445C196.915 61.8445 195.854 59.9376 195.854 57.573C195.854 55.2083 196.931 53.2861 198.242 53.2861C199.553 53.2861 200.646 55.2083 200.646 57.573Z" fill="#DA840D"/>
<path d="M206.64 53.2405C206.634 53.4624 206.561 53.6776 206.43 53.8592C206.3 54.0407 206.117 54.1807 205.906 54.2615C205.694 54.3423 205.463 54.3603 205.241 54.3134C205.019 54.2664 204.816 54.1566 204.658 53.9975C204.499 53.8385 204.392 53.6374 204.35 53.4192C204.308 53.2011 204.333 52.9757 204.421 52.7712C204.509 52.5667 204.657 52.3922 204.846 52.2694C205.036 52.1466 205.258 52.0811 205.485 52.0811C205.639 52.083 205.79 52.1146 205.932 52.174C206.073 52.2333 206.201 52.3193 206.308 52.4269C206.415 52.5346 206.5 52.6619 206.557 52.8015C206.614 52.941 206.642 53.0902 206.64 53.2405V53.2405Z" fill="#DA840D"/>
<path d="M167.271 49.5776C167.271 50.676 165.82 51.5608 164.025 51.5608C162.229 51.5608 160.778 50.676 160.778 49.5776C160.778 48.4792 162.229 47.5791 164.04 47.5791C165.851 47.5791 167.271 48.4792 167.271 49.5776Z" fill="#DA840D"/>
<path d="M106.145 39.2995C106.145 39.9708 105.006 40.52 103.601 40.52C102.196 40.52 101.041 39.9708 101.041 39.2995C101.041 38.6283 102.181 38.0791 103.601 38.0791C105.021 38.0791 106.145 38.6283 106.145 39.2995Z" fill="#DA840D"/>
<path d="M121.068 36.8562C121.068 37.5274 119.773 38.0766 118.165 38.0766C116.557 38.0766 115.277 37.5274 115.277 36.8562C115.277 36.1849 116.573 35.6357 118.165 35.6357C119.757 35.6357 121.068 36.1849 121.068 36.8562Z" fill="#DA840D"/>
<path d="M139.925 39.8463C139.925 40.8227 138.177 41.616 136.007 41.616C133.837 41.616 132.089 40.8227 132.089 39.8463C132.089 38.87 133.837 38.1377 136.007 38.1377C138.177 38.1377 139.925 38.87 139.925 39.8463Z" fill="#DA840D"/>
<path d="M153.816 36.8533C153.819 37.0984 153.747 37.3388 153.61 37.544C153.473 37.7492 153.277 37.9099 153.046 38.0058C152.815 38.1017 152.561 38.1283 152.314 38.0824C152.068 38.0364 151.841 37.92 151.663 37.7478C151.485 37.5756 151.363 37.3555 151.313 37.1153C151.263 36.8752 151.287 36.626 151.382 36.3993C151.477 36.1726 151.639 35.9787 151.847 35.8423C152.056 35.7058 152.301 35.6329 152.551 35.6329C152.717 35.6309 152.881 35.661 153.034 35.7214C153.187 35.7818 153.327 35.8714 153.444 35.9849C153.562 36.0985 153.655 36.2337 153.719 36.3828C153.783 36.5318 153.816 36.6918 153.816 36.8533V36.8533Z" fill="#DA840D"/>
<path d="M151.303 46.4972C151.303 47.1074 150.116 47.5804 148.634 47.5804C147.151 47.5804 145.964 47.1074 145.964 46.4972C145.964 45.887 147.166 45.4141 148.634 45.4141C150.101 45.4141 151.303 45.9022 151.303 46.4972Z" fill="#DA840D"/>
<path d="M172.174 36.3052C172.18 36.6595 172.078 37.0076 171.881 37.3051C171.684 37.6026 171.401 37.8361 171.068 37.9759C170.735 38.1157 170.367 38.1554 170.011 38.09C169.654 38.0246 169.326 37.8571 169.068 37.6087C168.809 37.3603 168.632 37.0424 168.559 36.6954C168.486 36.3483 168.52 35.9879 168.657 35.6599C168.795 35.332 169.029 35.0514 169.33 34.8539C169.631 34.6564 169.985 34.5509 170.347 34.5508C170.585 34.5488 170.821 34.5926 171.042 34.6797C171.262 34.7668 171.463 34.8954 171.632 35.0584C171.802 35.2213 171.937 35.4152 172.03 35.6292C172.123 35.8431 172.172 36.0728 172.174 36.3052V36.3052Z" fill="#DA840D"/>
<path d="M182.117 43.5056C182.117 43.8107 181.181 44.0548 180.041 44.0548C178.901 44.0548 177.98 43.8107 177.98 43.5056C177.98 43.2005 178.901 42.9717 180.041 42.9717C181.181 42.9717 182.117 43.2158 182.117 43.5056Z" fill="#DA840D"/>
<path d="M188.595 39.9084C188.633 40.0685 188.62 40.2364 188.557 40.3889C188.494 40.5414 188.384 40.671 188.242 40.7597C188.101 40.8484 187.934 40.8918 187.766 40.8839C187.598 40.876 187.436 40.8172 187.304 40.7157C187.171 40.6142 187.075 40.4749 187.027 40.3172C186.979 40.1595 186.982 39.9911 187.037 39.8354C187.091 39.6797 187.193 39.5444 187.33 39.4481C187.466 39.3519 187.63 39.2995 187.798 39.2982C187.986 39.2806 188.173 39.3342 188.321 39.4478C188.47 39.5614 188.567 39.7263 188.595 39.9084V39.9084Z" fill="#DA840D"/>
<path d="M182.116 43.5079C182.139 43.7469 182.111 43.988 182.033 44.2157C181.956 44.4434 181.83 44.6527 181.665 44.8302C181.499 45.0077 181.298 45.1496 181.073 45.2466C180.849 45.3437 180.606 45.3938 180.36 45.3938C180.114 45.3938 179.872 45.3437 179.647 45.2466C179.422 45.1496 179.221 45.0077 179.056 44.8302C178.89 44.6527 178.765 44.4434 178.687 44.2157C178.609 43.988 178.581 43.7469 178.604 43.5079C178.581 43.269 178.609 43.0279 178.687 42.8002C178.765 42.5725 178.89 42.3632 179.056 42.1857C179.221 42.0081 179.422 41.8663 179.647 41.7693C179.872 41.6722 180.114 41.6221 180.36 41.6221C180.606 41.6221 180.849 41.6722 181.073 41.7693C181.298 41.8663 181.499 42.0081 181.665 42.1857C181.83 42.3632 181.956 42.5725 182.033 42.8002C182.111 43.0279 182.139 43.269 182.116 43.5079V43.5079Z" fill="#DA840D"/>
<path d="M192.122 40.4573C192.122 41.098 191.17 41.6167 189.968 41.6167C188.766 41.6167 187.798 41.098 187.798 40.4573C187.798 39.8165 188.766 39.2979 189.968 39.2979C191.17 39.2979 192.122 39.8165 192.122 40.4573Z" fill="#DA840D"/>
<path d="M242.932 40.2598C242.932 52.2812 227.01 63.7839 202.893 70.9235C185.234 75.9312 166.927 78.4131 148.541 78.292C129.388 78.292 113.653 73.3644 97.7627 72.1897C71.2577 70.176 53.8374 51.2896 53.8374 38.902C53.8374 19.1918 96.9978 6.86523 148.541 6.86523C200.083 6.86523 242.932 20.5495 242.932 40.2598Z" fill="#E3AC8A"/>
<path d="M241.746 37.6497C241.746 57.3599 199.943 73.3325 148.385 73.3325C96.8268 73.3325 55.04 57.3599 55.04 37.6497C55.04 17.9394 96.78 1.9668 148.385 1.9668C199.99 1.9668 241.746 17.9394 241.746 37.6497Z" fill="#DA840D"/>
<path d="M216.302 34.2777C216.302 48.8925 185.286 60.7462 147.043 60.7462C108.799 60.7462 77.7832 48.8925 77.7832 34.2777C77.7832 19.6628 108.784 7.79395 147.043 7.79395C185.302 7.79395 216.302 19.6475 216.302 34.2777Z" fill="#F0A508"/>
<path d="M100.417 44.0423C100.417 45.5678 98.6532 46.8951 96.4834 46.8951C94.3137 46.8951 92.5498 45.6136 92.5498 44.0423C92.5498 42.4709 94.3137 41.1895 96.4834 41.1895C98.6532 41.1895 100.417 42.4557 100.417 44.0423Z" fill="#DA840D"/>
<path d="M92.5484 32.0375C92.5301 32.4586 92.3856 32.8651 92.1329 33.2066C91.8801 33.5481 91.5303 33.8095 91.1269 33.9583C90.7234 34.1072 90.2841 34.1369 89.8635 34.0439C89.4429 33.9508 89.0595 33.7391 88.761 33.4349C88.4625 33.1308 88.262 32.7476 88.1844 32.3331C88.1068 31.9185 88.1555 31.4908 88.3245 31.103C88.4935 30.7153 88.7753 30.3846 89.1349 30.152C89.4946 29.9195 89.9162 29.7953 90.3474 29.7949C90.6427 29.8009 90.9338 29.8636 91.2042 29.9795C91.4746 30.0955 91.7189 30.2623 91.9233 30.4706C92.1277 30.6788 92.2881 30.9244 92.3954 31.1933C92.5027 31.4621 92.5547 31.749 92.5484 32.0375V32.0375Z" fill="#DA840D"/>
<path d="M119.928 47.5047C119.975 48.2429 119.794 48.9779 119.408 49.6144C119.023 50.2508 118.451 50.7594 117.766 51.0742C117.081 51.3891 116.315 51.4956 115.568 51.3801C114.82 51.2645 114.126 50.9322 113.574 50.4262C113.022 49.9202 112.638 49.2638 112.472 48.5421C112.306 47.8205 112.366 47.0668 112.644 46.3787C112.922 45.6907 113.404 45.1001 114.03 44.6834C114.655 44.2667 115.394 44.0431 116.151 44.0417C117.121 44.0129 118.064 44.3612 118.772 45.0103C119.48 45.6595 119.896 46.5564 119.928 47.5047V47.5047Z" fill="#DA840D"/>
<path d="M111.656 33.76C111.656 34.7059 110.579 35.4839 109.253 35.4839C107.926 35.4839 106.864 34.7059 106.864 33.76C106.864 32.8142 107.941 32.0361 109.268 32.0361C110.595 32.0361 111.656 32.7989 111.656 33.76Z" fill="#DA840D"/>
<path d="M135.804 41.9332C135.858 42.4091 135.762 42.8897 135.53 43.3115C135.299 43.7333 134.941 44.0764 134.506 44.2954C134.07 44.5143 133.576 44.5989 133.091 44.5379C132.605 44.4768 132.149 44.2731 131.784 43.9536C131.419 43.634 131.162 43.2138 131.047 42.7484C130.932 42.2831 130.964 41.7945 131.139 41.3473C131.314 40.9002 131.624 40.5155 132.028 40.2442C132.432 39.9729 132.91 39.8277 133.4 39.8279C134.004 39.7987 134.595 40.0035 135.045 40.3976C135.495 40.7918 135.768 41.3436 135.804 41.9332Z" fill="#DA840D"/>
<path d="M136.709 54.6264C136.709 55.6028 135.554 56.3961 134.118 56.3961C132.682 56.3961 131.527 55.6028 131.527 54.6264C131.527 53.6501 132.682 52.8721 134.118 52.8721C135.554 52.8721 136.709 53.6654 136.709 54.6264Z" fill="#DA840D"/>
<path d="M126.438 35.6972C126.414 36.0501 126.284 36.3884 126.066 36.6704C125.848 36.9525 125.55 37.1661 125.209 37.285C124.868 37.4039 124.499 37.4229 124.147 37.3396C123.796 37.2564 123.477 37.0746 123.229 36.8165C122.982 36.5584 122.817 36.2353 122.755 35.8869C122.693 35.5384 122.736 35.1798 122.879 34.8552C123.023 34.5305 123.26 34.2539 123.563 34.0593C123.865 33.8647 124.218 33.7606 124.58 33.7598C124.833 33.7677 125.081 33.824 125.311 33.9257C125.54 34.0274 125.748 34.1723 125.92 34.3522C126.093 34.5322 126.227 34.7436 126.316 34.9744C126.405 35.2051 126.446 35.4508 126.438 35.6972V35.6972Z" fill="#DA840D"/>
<path d="M153.255 39.4191C153.255 40.3954 152.131 41.1887 150.742 41.1887C149.352 41.1887 148.291 40.3954 148.291 39.4191C148.291 38.4427 149.415 37.6494 150.804 37.6494C152.193 37.6494 153.255 38.4427 153.255 39.4191Z" fill="#DA840D"/>
<path d="M153.255 48.5556C153.255 49.1353 152.131 49.6082 150.742 49.6082C149.352 49.6082 148.291 49.1353 148.291 48.5556C148.291 47.9759 149.415 47.5029 150.804 47.5029C152.193 47.5029 153.255 47.9759 153.255 48.5556Z" fill="#DA840D"/>
<path d="M170.254 42.6082C170.254 43.4015 169.224 44.0423 167.975 44.0423C166.726 44.0423 165.696 43.4015 165.696 42.6082C165.696 41.8149 166.726 41.1895 167.975 41.1895C169.224 41.1895 170.254 41.8302 170.254 42.6082Z" fill="#DA840D"/>
<path d="M167.538 52.7972C167.403 53.3037 167.1 53.7522 166.677 54.0723C166.253 54.3924 165.732 54.5661 165.197 54.5661C164.661 54.5661 164.141 54.3924 163.717 54.0723C163.293 53.7522 162.99 53.3037 162.855 52.7972C162.99 52.2907 163.293 51.8422 163.717 51.5221C164.141 51.202 164.661 51.0283 165.197 51.0283C165.732 51.0283 166.253 51.202 166.677 51.5221C167.1 51.8422 167.403 52.2907 167.538 52.7972V52.7972Z" fill="#DA840D"/>
<path d="M186.456 49.8538C186.527 50.2074 186.517 50.5721 186.427 50.9216C186.337 51.271 186.168 51.5966 185.934 51.875C185.7 52.1533 185.405 52.3775 185.072 52.5314C184.738 52.6853 184.374 52.7651 184.005 52.7651C183.637 52.7651 183.272 52.6853 182.939 52.5314C182.605 52.3775 182.311 52.1533 182.077 51.875C181.842 51.5966 181.674 51.271 181.584 50.9216C181.493 50.5721 181.484 50.2074 181.555 49.8538C181.471 49.4941 181.471 49.1208 181.556 48.7613C181.64 48.4018 181.806 48.0655 182.041 47.7773C182.277 47.4891 182.575 47.2564 182.915 47.0965C183.256 46.9366 183.628 46.8535 184.005 46.8535C184.383 46.8535 184.755 46.9366 185.095 47.0965C185.435 47.2564 185.734 47.4891 185.969 47.7773C186.205 48.0655 186.371 48.4018 186.455 48.7613C186.539 49.1208 186.54 49.4941 186.456 49.8538V49.8538Z" fill="#DA840D"/>
<path d="M185.082 36.6115C185.082 37.2064 184.301 37.6946 183.318 37.6946C182.335 37.6946 181.554 37.2064 181.554 36.6115C181.554 36.0165 182.335 35.5283 183.318 35.5283C184.301 35.5283 185.082 35.9707 185.082 36.6115Z" fill="#DA840D"/>
<path d="M200.083 39.7559C200.083 42.1206 199.006 44.0428 197.679 44.0428C196.352 44.0428 195.291 42.1206 195.291 39.7559C195.291 37.3913 196.352 35.4844 197.679 35.4844C199.006 35.4844 200.083 37.3913 200.083 39.7559Z" fill="#DA840D"/>
<path d="M206.045 35.4235C206.042 35.6461 205.972 35.8628 205.843 36.0464C205.714 36.2301 205.533 36.3724 205.322 36.4555C205.11 36.5386 204.879 36.5588 204.656 36.5135C204.433 36.4683 204.228 36.3596 204.068 36.2011C203.908 36.0426 203.8 35.8415 203.756 35.6229C203.713 35.4043 203.737 35.1781 203.825 34.9727C203.913 34.7674 204.061 34.5919 204.25 34.4685C204.44 34.3452 204.663 34.2793 204.89 34.2793C205.198 34.2833 205.492 34.4056 205.708 34.6198C205.924 34.8339 206.046 35.1226 206.045 35.4235V35.4235Z" fill="#DA840D"/>
<path d="M166.71 31.7606C166.71 32.859 165.258 33.7591 163.447 33.7591C161.637 33.7591 160.201 32.859 160.201 31.7606C160.201 30.6622 161.652 29.7773 163.447 29.7773C165.243 29.7773 166.71 30.6622 166.71 31.7606Z" fill="#DA840D"/>
<path d="M105.521 21.4945C105.521 22.1657 104.382 22.7149 102.961 22.7149C101.541 22.7149 100.417 22.1657 100.417 21.4945C100.417 20.8232 101.556 20.2588 102.961 20.2588C104.366 20.2588 105.521 20.808 105.521 21.4945Z" fill="#DA840D"/>
<path d="M120.506 19.0369C120.506 19.7234 119.21 20.2573 117.603 20.2573C115.995 20.2573 114.699 19.7234 114.699 19.0369C114.699 18.3504 116.01 17.8164 117.603 17.8164C119.195 17.8164 120.506 18.3046 120.506 19.0369Z" fill="#DA840D"/>
<path d="M139.363 22.0284C139.363 23.0048 137.615 23.7981 135.445 23.7981C133.275 23.7981 131.527 23.0048 131.527 22.0284C131.527 21.0521 133.275 20.2588 135.445 20.2588C137.615 20.2588 139.363 21.0521 139.363 22.0284Z" fill="#DA840D"/>
<path d="M153.254 19.0379C153.257 19.2829 153.186 19.5233 153.049 19.7285C152.912 19.9338 152.715 20.0945 152.485 20.1904C152.254 20.2863 151.999 20.3129 151.753 20.267C151.507 20.221 151.28 20.1046 151.101 19.9324C150.923 19.7602 150.801 19.54 150.751 19.2999C150.701 19.0598 150.725 18.8106 150.82 18.5839C150.916 18.3572 151.078 18.1633 151.286 18.0268C151.494 17.8904 151.739 17.8175 151.99 17.8175C152.155 17.8155 152.319 17.8455 152.473 17.906C152.626 17.9664 152.765 18.056 152.883 18.1695C153.001 18.283 153.094 18.4183 153.158 18.5673C153.221 18.7164 153.254 18.8764 153.254 19.0379Z" fill="#DA840D"/>
<path d="M150.74 28.6931C150.74 29.2881 149.538 29.7763 148.071 29.7763C146.604 29.7763 145.402 29.2881 145.402 28.6931C145.402 28.0982 146.604 27.5947 148.071 27.5947C149.538 27.5947 150.74 28.0829 150.74 28.6931Z" fill="#DA840D"/>
<path d="M171.596 18.5042C171.606 18.856 171.508 19.2026 171.314 19.4995C171.121 19.7965 170.842 20.0304 170.512 20.1714C170.182 20.3124 169.816 20.354 169.462 20.291C169.108 20.228 168.781 20.0632 168.523 19.8176C168.265 19.572 168.088 19.2569 168.014 18.9124C167.94 18.5679 167.973 18.2098 168.109 17.8838C168.244 17.5577 168.476 17.2786 168.775 17.0821C169.074 16.8855 169.426 16.7805 169.786 16.7803C170.259 16.7762 170.715 16.9551 171.054 17.278C171.393 17.6008 171.588 18.0416 171.596 18.5042V18.5042Z" fill="#DA840D"/>
<path d="M181.553 25.7045C181.553 25.9943 180.617 26.2384 179.477 26.2384C178.338 26.2384 177.401 25.9943 177.401 25.7045C177.401 25.4146 178.338 25.1553 179.477 25.1553C180.617 25.1553 181.553 25.3994 181.553 25.7045Z" fill="#DA840D"/>
<path d="M188.032 22.1037C188.071 22.2638 188.058 22.4317 187.995 22.5842C187.932 22.7367 187.822 22.8663 187.68 22.955C187.538 23.0436 187.372 23.087 187.203 23.0792C187.035 23.0713 186.874 23.0125 186.741 22.911C186.609 22.8095 186.512 22.6702 186.464 22.5125C186.416 22.3548 186.42 22.1864 186.474 22.0307C186.528 21.875 186.631 21.7397 186.767 21.6434C186.904 21.5472 187.068 21.4948 187.236 21.4935C187.424 21.4759 187.611 21.5295 187.759 21.6431C187.907 21.7567 188.005 21.9216 188.032 22.1037V22.1037Z" fill="#DA840D"/>
<path d="M181.554 25.7048C181.518 26.0357 181.385 26.3492 181.17 26.6076C180.956 26.866 180.67 27.0583 180.346 27.1611C180.022 27.264 179.675 27.2731 179.346 27.1873C179.017 27.1016 178.72 26.9246 178.492 26.6777C178.264 26.4309 178.113 26.1248 178.059 25.7963C178.005 25.4678 178.049 25.131 178.186 24.8266C178.324 24.5221 178.548 24.2629 178.833 24.0804C179.117 23.8979 179.45 23.7997 179.79 23.7979C180.035 23.8096 180.274 23.8682 180.495 23.9705C180.715 24.0727 180.913 24.2165 181.077 24.3937C181.241 24.5708 181.368 24.7778 181.449 25.0028C181.531 25.2278 181.567 25.4663 181.554 25.7048V25.7048Z" fill="#DA840D"/>
<path d="M191.559 22.6373C191.559 23.2781 190.591 23.7968 189.405 23.7968C188.219 23.7968 187.235 23.2781 187.235 22.6373C187.235 21.9966 188.203 21.4932 189.405 21.4932C190.607 21.4932 191.559 21.9966 191.559 22.6373Z" fill="#DA840D"/>
<path d="M162.557 117.972C162.203 116.654 161.38 115.503 160.236 114.725C159.091 113.948 157.7 113.595 156.313 113.73C146.948 114.386 146.167 129.718 149.461 136.416C150.441 137.157 151.675 137.503 152.908 137.384C154.142 137.265 155.282 136.689 156.095 135.775C159.092 132.495 160.044 127.75 161.105 123.57C161.626 121.719 162.11 119.853 162.557 117.972Z" fill="#EEBE30"/>
<path d="M232.083 38.3053C228.827 37.0752 225.823 35.282 223.217 33.0116C220.102 30.0597 217.232 26.8715 214.632 23.4768C210.745 18.8086 205.094 16.9779 199.163 16.2914C192.56 15.5134 185.738 16.9474 179.089 16.6118C175.523 16.5169 172.028 15.6134 168.88 13.9726C165.758 12.2334 163.307 9.39589 160.638 6.93973C155.409 2.36305 148.775 2.36305 142.172 1.32567C137.798 0.57111 133.375 0.127534 128.935 -0.00156807C124.393 -0.108357 116.448 -0.16938 113.404 4.05642C110.032 5.58198 108.846 9.63998 108.081 13.0572C107.65 15.8769 106.966 18.654 106.036 21.3563C104.649 24.4296 102.504 27.1186 99.7922 29.1824C93.845 34.0184 86.4929 36.6119 79.7651 39.9834C74.3018 42.7141 67.6053 46.5891 64.6707 52.0658C62.9068 55.3458 63.1098 60.9598 66.2317 63.3855C70.0872 66.284 73.0218 60.8225 73.8491 58.0613C74.614 55.5594 74.895 53.0117 76.971 51.1352C79.7678 48.7623 83.0922 47.0594 86.6802 46.1619C89.6928 45.3381 92.924 45.3381 95.8898 44.438C99.4498 43.1283 102.799 41.325 105.833 39.0833C109.392 36.7644 112.857 34.5066 117.088 33.4997C120.6 32.7065 126.032 32.8285 128.795 35.4525C130.31 37.2463 131.614 39.2011 132.682 41.2801C134.105 43.2192 135.991 44.7901 138.176 45.8568C142.578 48.3129 147.62 49.3961 152.225 51.6234C153.765 52.4058 155.092 53.5353 156.096 54.9186C156.252 55.1475 156.392 55.3763 156.533 55.6204C156.646 55.7931 156.75 55.9713 156.845 56.1543C161.871 65.2162 155.55 74.8119 155.721 84.3772C155.721 89.5336 159.546 97.9699 166.008 93.8357C166.445 93.5611 166.851 93.256 167.257 92.9508C167.99 86.2689 168.583 79.4191 170.956 73.1186C173.188 67.2604 176.232 61.8447 175.904 55.3915C175.717 51.837 173.984 48.5723 173.563 45.0635C172.97 40.1817 177.465 37.9696 181.508 37.0085C187.277 35.5083 193.391 35.916 198.897 38.168C209.262 42.3327 217.629 50.9217 229.149 52.3404C233.707 52.9049 240.309 52.2031 242.12 47.3366C243.931 42.47 235.33 39.663 232.083 38.3053Z" fill="#EEBE30"/>
<path opacity="0.5" d="M168.661 44.6686C168.188 43.0241 167.315 41.5158 166.116 40.2725C164.917 39.0293 163.429 38.088 161.777 37.529C159.404 36.9187 155.658 38.4596 155.955 41.2666C155.959 41.3228 155.975 41.3775 156.002 41.4273C156.029 41.4772 156.066 41.5211 156.111 41.5564C154.55 44.8059 159.077 50.4047 160.638 52.7846C161.781 54.3083 162.501 56.0951 162.729 57.9715C162.995 60.3971 162.199 62.7922 162.433 65.1874C162.526 66.2553 163.354 70.8167 165.555 68.986C168.068 66.9113 168.333 62.2125 168.848 59.2529C169.887 54.4374 169.823 49.4571 168.661 44.6686V44.6686Z" fill="white"/>
<path opacity="0.5" d="M214.053 28.8766C211.501 24.7385 207.432 21.7056 202.674 20.3945C197.866 19.0367 186.331 17.5722 185.113 24.4525C185.103 24.5914 185.138 24.7298 185.214 24.8477C185.29 24.9657 185.402 25.057 185.534 25.1084C185.842 25.3278 186.116 25.5899 186.346 25.8865C186.412 26.011 186.515 26.1123 186.643 26.1763V26.1763C186.769 26.2206 186.907 26.2206 187.033 26.1763C187.924 26.9745 188.993 27.5594 190.155 27.885C193.017 28.5044 195.935 28.8417 198.865 28.8918C202.924 29.2732 205.187 30.9819 208.012 33.6363C209.573 35.1619 213.85 38.3656 216.051 35.9399C217.737 34.2313 214.974 30.2801 214.053 28.8766Z" fill="white"/>
<path opacity="0.5" d="M75.3323 48.0403C74.6481 47.9567 73.956 47.9567 73.2718 48.0403C73.2746 48.0102 73.2703 47.9799 73.2593 47.9517C73.2482 47.9235 73.2308 47.8982 73.2082 47.8776C73.1856 47.857 73.1585 47.8417 73.1289 47.8329C73.0994 47.824 73.0682 47.8219 73.0377 47.8267C71.8968 48.0044 70.8137 48.4387 69.8737 49.0952C68.9338 49.7518 68.1627 50.6127 67.6212 51.6101C67.2465 52.3729 66.5129 55.0426 68.1207 55.1799C69.7285 55.3172 70.9928 53.6543 71.8982 52.7848C73.2104 51.4611 74.4504 50.0709 75.6132 48.62C75.6478 48.5658 75.6678 48.504 75.6715 48.4403C75.6753 48.3765 75.6626 48.3129 75.6346 48.2552C75.6066 48.1975 75.5643 48.1476 75.5115 48.1101C75.4587 48.0725 75.397 48.0485 75.3323 48.0403Z" fill="white"/>
<path opacity="0.5" d="M263.614 136.003C262.231 135.715 260.803 135.701 259.414 135.963C258.025 136.225 256.704 136.756 255.53 137.526C254.355 138.295 253.35 139.288 252.575 140.444C251.8 141.6 251.27 142.896 251.017 144.256C251.008 144.305 251.01 144.355 251.023 144.403C251.036 144.451 251.06 144.496 251.093 144.534C251.126 144.572 251.167 144.602 251.213 144.623C251.259 144.643 251.31 144.653 251.361 144.653C251.368 144.754 251.368 144.856 251.361 144.958C250.814 147.338 247.926 148.436 246.1 149.443C244.742 150.175 243.337 150.831 241.932 151.502C237.25 153.821 229.882 156.811 228.43 162.959C228.407 163.026 228.405 163.098 228.424 163.166C228.444 163.234 228.484 163.295 228.539 163.341C231.349 165.232 234.58 162.41 236.781 160.64C241.223 157.201 246.432 154.833 251.985 153.73C258.135 152.418 269.608 152.814 271.825 144.576C273.167 139.466 267.22 136.628 263.614 136.003Z" fill="white"/>
<path d="M163.01 17.6787C162.464 16.9312 161.075 15.3294 160.138 15.2226C159.607 15.2226 159.405 14.1852 158.905 14.3378C158.406 14.4903 157.641 14.8717 156.954 14.3378C156.723 14.1281 156.478 13.9343 156.22 13.758C156.077 13.6597 155.913 13.5936 155.74 13.5646C155.567 13.5356 155.39 13.5443 155.221 13.5902C154.784 13.758 154.612 14.3988 154.082 13.9869C153.551 13.575 152.287 14.2005 151.974 14.8107C151.869 14.9781 151.785 15.1574 151.725 15.3446C149.867 15.604 147.994 18.3957 147.291 19.6925C146.635 20.9404 146.328 22.3359 146.402 23.7373C146.476 25.1387 146.928 26.496 147.713 27.6712C149.414 30.5087 152.88 30.8901 155.939 30.9816C157.145 31.1182 158.366 31.0144 159.529 30.6765C160.605 30.2153 161.537 29.4836 162.23 28.556C165.321 24.8336 165.914 21.5994 163.01 17.6787Z" fill="#48264C"/>
<path d="M163.011 17.6809C162.478 16.9469 161.848 16.2852 161.137 15.7129C161.203 18.2338 160.369 20.6985 158.781 22.6854C157.192 24.6723 154.946 26.058 152.427 26.6054C150.651 26.9871 148.805 26.9294 147.058 26.4376C147.245 26.8795 147.464 27.3077 147.713 27.719C149.415 30.5566 152.88 30.938 155.939 31.0295C157.145 31.1661 158.366 31.0623 159.53 30.7244C160.606 30.2631 161.537 29.5315 162.23 28.6039C165.321 24.8357 165.914 21.6016 163.011 17.6809Z" fill="#300D33"/>
<path d="M165.757 169.532C165.255 168.273 164.446 167.152 163.4 166.268C163.228 165.322 163.01 164.391 162.807 163.445C162.791 163.353 162.753 163.265 162.698 163.189C162.642 163.112 162.57 163.049 162.486 163.004C162.402 162.958 162.309 162.932 162.213 162.926C162.117 162.921 162.021 162.937 161.933 162.972C160.528 163.613 160.216 162.789 159.248 162.042C159.093 161.949 158.915 161.899 158.733 161.899C158.551 161.899 158.373 161.949 158.218 162.042C156.657 163.079 155.002 160.623 153.785 162.042C153.072 163.111 152.285 164.131 151.428 165.093C150.414 165.719 149.481 166.462 148.649 167.305C148.051 167.825 147.526 168.42 147.088 169.075C147.088 169.075 147.088 169.075 147.088 169.075C146.912 169.351 146.75 169.636 146.604 169.929C146.479 170.204 146.37 170.493 146.276 170.768C146.27 170.798 146.27 170.829 146.276 170.86C145.645 172.853 145.683 174.991 146.386 176.962C147.572 180.486 151.318 181.737 154.674 182.545C155.973 182.982 157.348 183.158 158.717 183.064C160.027 182.801 161.244 182.207 162.245 181.34C166.553 177.984 167.989 174.551 165.757 169.532Z" fill="#48264C"/>
<path d="M165.758 169.533C165.359 168.599 164.834 167.722 164.197 166.924C163.646 169.727 162.114 172.256 159.864 174.077C157.614 175.897 154.786 176.896 151.865 176.901C149.799 176.905 147.765 176.401 145.949 175.436C146.048 175.954 146.184 176.463 146.355 176.962C147.541 180.486 151.288 181.737 154.644 182.546C155.942 182.982 157.317 183.158 158.687 183.064C159.997 182.802 161.213 182.207 162.214 181.34C166.554 177.984 167.99 174.552 165.758 169.533Z" fill="#300D33"/>
<path d="M137.535 15.0253C137.052 14.0947 135.803 12.0657 134.773 11.7758C134.242 11.6385 134.242 10.6774 133.727 10.5859C133.571 9.21288 132.931 7.77886 131.292 8.06871C130.917 8.06871 129.918 9.09084 129.528 8.51113C129.336 8.16862 129.026 7.90371 128.654 7.7636C127.889 7.47374 127.218 8.12974 126.78 8.63317C126.047 9.47223 125.11 8.23652 124.158 8.63317C123.702 8.89609 123.331 9.2782 123.085 9.73643C122.84 10.1947 122.73 10.7108 122.769 11.2266C122.769 11.3182 122.769 11.3792 122.769 11.4707C121.591 12.3439 120.54 13.3705 119.647 14.5218C118.681 15.7923 118.076 17.2904 117.895 18.8635C117.714 20.4366 117.963 22.0284 118.617 23.4769C119.99 26.9399 123.799 28.0536 127.186 28.6485C128.464 29.0002 129.799 29.1141 131.12 28.9842C132.407 28.6526 133.585 28.0009 134.538 27.0925C138.769 23.4159 140.017 19.9223 137.535 15.0253Z" fill="#48264C"/>
<path d="M137.536 15.0236C137.067 14.113 136.485 13.2625 135.803 12.4912C135.413 15.3317 134.024 17.9509 131.873 19.8994C129.723 21.8479 126.946 23.0043 124.018 23.1701C121.963 23.2741 119.913 22.8756 118.055 22.0107C118.179 22.5298 118.341 23.0396 118.539 23.5363C119.913 26.9993 123.721 28.1129 127.109 28.7079C128.416 29.0488 129.777 29.142 131.12 28.9825C132.408 28.651 133.586 27.9992 134.539 27.0908C138.769 23.4142 140.018 19.9207 137.536 15.0236Z" fill="#300D33"/>
<path d="M198.24 27.3515C197.756 26.1768 196.429 23.5986 195.243 23.1714C194.572 22.9426 194.603 21.5543 193.916 21.6459C192.98 21.7374 192.09 21.9815 191.356 21.1119C191.124 20.7652 190.869 20.4339 190.591 20.1203C190.44 19.942 190.248 19.7999 190.032 19.7047C189.816 19.6096 189.58 19.5639 189.343 19.5711C188.718 19.6779 188.297 20.5017 187.782 19.7694C187.048 18.7931 185.378 19.5253 184.785 20.2576C184.601 20.4543 184.439 20.669 184.301 20.8983C181.803 20.7 178.51 23.9495 177.214 25.475C175.979 26.9875 175.158 28.7829 174.831 30.6915C174.503 32.6002 174.678 34.559 175.341 36.3828C176.683 40.7306 181.101 42.302 185.034 43.3546C186.534 43.8791 188.127 44.1022 189.717 44.0106C191.274 43.7026 192.715 42.9852 193.885 41.9358C199.13 37.7253 200.878 33.5605 198.24 27.3515Z" fill="#48264C"/>
<path d="M198.241 27.3527C197.769 26.2079 197.15 25.1263 196.399 24.1338C195.79 27.5062 193.993 30.564 191.318 32.7766C188.644 34.9891 185.261 36.2169 181.757 36.2467C179.329 36.2308 176.947 35.6001 174.842 34.4161C174.947 35.0614 175.098 35.6986 175.295 36.323C176.637 40.6709 181.055 42.2422 184.988 43.2948C186.488 43.8193 188.081 44.0425 189.671 43.9508C191.228 43.6428 192.669 42.9254 193.839 41.8761C199.131 37.7265 200.879 33.5618 198.241 27.3527Z" fill="#300D33"/>
<path d="M195.947 156.49C195.338 155.132 193.73 152.172 192.31 151.699C191.498 151.44 191.498 149.823 190.749 149.914C189.64 150.036 188.579 150.326 187.627 149.335C187.345 148.93 187.032 148.547 186.69 148.19C186.494 147.981 186.251 147.817 185.981 147.711C185.711 147.605 185.42 147.561 185.129 147.58C184.38 147.702 183.88 148.648 183.209 147.824C182.304 146.695 180.321 147.565 179.603 148.404C179.389 148.641 179.195 148.897 179.026 149.167C176.029 148.953 172.111 152.767 170.565 154.476C169.107 156.207 168.142 158.284 167.769 160.497C167.396 162.71 167.629 164.98 168.443 167.077C170.113 172.081 175.436 173.835 180.165 174.995C182.011 175.61 183.965 175.854 185.91 175.712C187.76 175.348 189.478 174.511 190.889 173.286C197.07 168.435 199.1 163.583 195.947 156.49Z" fill="#48264C"/>
<path d="M195.947 156.49C195.369 155.163 194.613 153.916 193.7 152.783C192.915 156.75 190.747 160.329 187.564 162.908C184.382 165.487 180.382 166.907 176.248 166.925C173.337 166.929 170.472 166.221 167.913 164.866C168.037 165.617 168.225 166.357 168.475 167.078C170.145 172.082 175.468 173.836 180.197 174.995C182.043 175.611 183.997 175.855 185.942 175.712C187.792 175.349 189.51 174.512 190.921 173.287C197.071 168.435 199.1 163.584 195.947 156.49Z" fill="#300D33"/>
<path d="M125.362 145.506C125.362 145.506 129.529 143.981 131.949 149.366C134.368 154.751 135.242 160.045 137.662 162.562C138.327 163.127 138.851 163.833 139.195 164.626C139.538 165.42 139.692 166.279 139.644 167.139C139.644 167.139 132.823 163.493 131.075 161.555C128.48 158.923 126.26 155.963 124.472 152.753C122.505 148.878 121.116 145.247 121.116 145.247L125.362 145.506Z" fill="#5F825C"/>
<path d="M123.722 144.56C123.722 144.56 124.768 140.334 119.039 138.61C113.311 136.886 107.8 136.627 104.991 134.567C104.333 133.981 103.546 133.551 102.69 133.31C101.835 133.069 100.934 133.024 100.058 133.179C100.058 133.179 104.538 139.388 106.708 140.807C109.686 143.015 112.951 144.826 116.417 146.192C120.569 147.718 124.425 148.602 124.425 148.602L123.722 144.56Z" fill="#5F825C"/>
<path d="M122.911 146.622C122.911 146.622 130.607 151.992 130.388 159.3C130.17 166.607 130.17 170.253 125.705 174.327C121.241 178.4 112.749 178.629 108.347 180.551C103.946 182.473 98.6851 184.212 97.4208 185.28C96.1564 186.348 93.4715 187.431 89.5223 185.28C85.5731 183.129 83.2785 183.358 84.0277 177.332C85.1479 169.577 87.0619 161.952 89.7409 154.571C91.9262 148.987 93.8618 144.685 100.043 142.976C105.969 141.488 112.23 141.938 117.869 144.258C121.756 146.195 122.911 146.622 122.911 146.622Z" fill="#ED6366"/>
<path d="M84.9467 171.52C88.4401 172.802 92.1416 173.459 95.8734 173.457C111.171 173.457 123.565 162.946 123.565 149.994C123.569 148.926 123.485 147.86 123.315 146.806C124.97 148.102 130.511 152.908 130.324 159.132C130.105 166.424 130.105 170.086 125.641 174.159C121.176 178.232 112.685 178.461 108.283 180.383C103.881 182.306 98.6206 184.045 97.3563 185.113C96.0919 186.18 93.4071 187.264 89.4579 185.113C85.5086 182.962 83.214 183.175 83.9633 177.164C84.1974 175.578 84.5252 173.64 84.9467 171.52Z" fill="#C73A54"/>
<path d="M126.327 162.639C127.373 162.776 127.623 161.022 127.701 159.74C127.78 159.419 127.78 159.085 127.701 158.764V158.657C127.701 158.535 127.529 158.504 127.514 158.657C127.478 158.66 127.444 158.671 127.414 158.69C127.384 158.708 127.359 158.734 127.342 158.764C127.155 159.176 124.876 162.456 126.327 162.639Z" fill="#E7D8C8"/>
<path d="M124.142 156.018C124.157 156.037 124.176 156.053 124.197 156.063C124.219 156.074 124.243 156.079 124.267 156.079C124.292 156.079 124.315 156.074 124.337 156.063C124.359 156.053 124.378 156.037 124.392 156.018C124.699 155.774 124.947 155.467 125.119 155.119C125.292 154.772 125.385 154.391 125.391 154.005C125.475 153.795 125.523 153.573 125.532 153.349C125.535 153.316 125.529 153.284 125.515 153.255C125.502 153.226 125.48 153.201 125.453 153.182C125.426 153.163 125.395 153.152 125.362 153.149C125.329 153.146 125.296 153.152 125.266 153.165C125.266 153.165 125.079 153.165 125.095 153.165C124.647 153.481 124.314 153.928 124.143 154.44C123.972 154.953 123.972 155.506 124.142 156.018Z" fill="#E7D8C8"/>
<path d="M119.632 152.552C120.537 153.253 120.958 151.652 121.193 150.599C121.326 150.281 121.421 149.948 121.474 149.607C121.477 149.569 121.468 149.53 121.448 149.497C121.428 149.463 121.397 149.437 121.361 149.422C121.324 149.407 121.284 149.403 121.245 149.412C121.207 149.42 121.172 149.441 121.146 149.47C120.709 149.974 118.742 151.911 119.632 152.552Z" fill="#E7D8C8"/>
<path d="M119.054 159.358C119.068 159.374 119.084 159.387 119.103 159.395C119.122 159.404 119.143 159.409 119.164 159.409C119.185 159.409 119.205 159.404 119.224 159.395C119.243 159.387 119.26 159.374 119.273 159.358C119.571 159.074 119.833 158.757 120.053 158.412C120.597 157.817 120.935 157.07 121.021 156.276C121.021 156.154 120.896 156.002 120.756 156.063L120.475 156.246C119.476 156.963 118.29 158.351 119.054 159.358Z" fill="#E7D8C8"/>
<path d="M120.614 166.18C121.192 166.53 121.535 165.722 121.722 164.883C121.978 164.455 122.127 163.974 122.159 163.479C122.162 163.447 122.157 163.415 122.143 163.386C122.129 163.357 122.108 163.331 122.081 163.313C122.054 163.294 122.022 163.283 121.99 163.28C121.957 163.277 121.924 163.283 121.894 163.296C121.894 163.296 121.707 163.296 121.707 163.296C121.707 163.296 121.707 163.296 121.707 163.403C121.296 163.815 120.972 164.303 120.754 164.837C120.598 165.188 120.193 165.951 120.614 166.18Z" fill="#E7D8C8"/>
<path d="M123.565 169.96C124.19 170.357 124.845 169.792 125.126 169.243C125.281 168.869 125.396 168.481 125.47 168.084C125.656 167.777 125.768 167.432 125.797 167.077V167.077C125.835 167.037 125.855 166.986 125.855 166.932C125.855 166.878 125.835 166.826 125.797 166.787V166.68C125.797 166.558 125.594 166.436 125.47 166.543C124.954 166.909 122.613 169.335 123.565 169.96Z" fill="#E7D8C8"/>
<path d="M117.51 172.064C118.04 172.781 118.555 172.064 118.914 171.363C119.135 171.172 119.31 170.936 119.428 170.673C119.547 170.41 119.606 170.125 119.601 169.837C119.601 169.81 119.593 169.783 119.58 169.76C119.567 169.736 119.548 169.716 119.525 169.701C119.502 169.686 119.476 169.677 119.448 169.674C119.421 169.671 119.393 169.675 119.367 169.684C118.634 169.959 116.854 171.179 117.51 172.064Z" fill="#E7D8C8"/>
<path d="M114.572 163.233C115.025 162.698 115.55 162.226 116.133 161.83C116.165 161.805 116.204 161.79 116.244 161.787C116.285 161.784 116.326 161.793 116.361 161.812C116.396 161.832 116.425 161.862 116.443 161.897C116.46 161.933 116.467 161.973 116.461 162.013C116.445 162.24 116.387 162.462 116.289 162.669V162.898C116.21 163.535 115.938 164.135 115.509 164.622C115.181 164.988 114.416 165.171 114.104 164.622C113.792 164.072 114.291 163.493 114.572 163.233Z" fill="#E7D8C8"/>
<path d="M113.7 157.849C113.825 158.322 114.449 158.277 114.761 158.033C114.97 157.848 115.14 157.625 115.261 157.377C115.551 157.029 115.725 156.603 115.76 156.156C115.762 156.122 115.755 156.088 115.74 156.057C115.726 156.026 115.704 155.999 115.676 155.979C115.649 155.958 115.616 155.944 115.582 155.937C115.548 155.931 115.513 155.933 115.479 155.943C115.035 156.113 114.639 156.385 114.324 156.736C114.043 156.995 113.575 157.422 113.7 157.849Z" fill="#E7D8C8"/>
<path d="M116.385 146.454C116.437 146.438 116.493 146.442 116.542 146.465C116.591 146.487 116.629 146.527 116.65 146.576C116.768 147.031 116.748 147.509 116.593 147.953C116.437 148.397 116.154 148.788 115.776 149.078C115.747 149.099 115.713 149.113 115.677 149.119C115.641 149.125 115.604 149.123 115.569 149.112C115.534 149.102 115.502 149.084 115.476 149.059C115.45 149.035 115.429 149.004 115.417 148.971C115.369 148.864 115.338 148.751 115.323 148.635C115.181 148.208 115.211 147.743 115.409 147.337C115.606 146.931 115.956 146.615 116.385 146.454Z" fill="#E7D8C8"/>
<path d="M110.998 154.842C111.467 155.224 111.857 154.842 112.138 154.232C112.495 153.885 112.757 153.456 112.902 152.985C113.046 152.513 113.068 152.014 112.965 151.532C112.944 151.489 112.911 151.454 112.869 151.429C112.827 151.405 112.78 151.393 112.731 151.395C112.029 151.486 111.436 152.447 111.17 152.92C110.905 153.393 110.405 154.385 110.998 154.842Z" fill="#E7D8C8"/>
<path d="M110.828 146.083C110.918 145.974 111.018 145.872 111.124 145.778C111.159 145.754 111.2 145.74 111.243 145.736C111.285 145.731 111.328 145.738 111.368 145.755C111.407 145.772 111.441 145.798 111.467 145.832C111.492 145.865 111.509 145.904 111.514 145.946C111.558 146.299 111.519 146.657 111.4 146.992C111.281 147.328 111.085 147.633 110.828 147.883C110.83 147.924 110.83 147.965 110.828 148.006C110.78 148.099 110.709 148.179 110.62 148.238C110.532 148.297 110.43 148.333 110.323 148.342C110.217 148.351 110.109 148.334 110.012 148.291C109.914 148.248 109.83 148.181 109.766 148.097C109.095 147.426 110.047 146.449 110.828 146.083Z" fill="#E7D8C8"/>
<path d="M105.52 151.67C105.832 151.038 106.325 150.508 106.94 150.145C106.976 150.119 107.018 150.105 107.062 150.104C107.106 150.102 107.15 150.114 107.187 150.137C107.224 150.16 107.253 150.193 107.27 150.233C107.288 150.272 107.292 150.316 107.284 150.358C107.265 150.642 107.196 150.921 107.081 151.182C107.081 151.274 107.081 151.365 107.081 151.441C107.047 151.779 106.974 152.112 106.862 152.433C106.762 152.744 106.544 153.006 106.254 153.165C106.232 153.203 106.2 153.235 106.162 153.257C106.124 153.28 106.08 153.291 106.035 153.291C105.99 153.291 105.947 153.28 105.908 153.257C105.87 153.235 105.838 153.203 105.817 153.165V153.165C105.208 152.845 105.395 152.052 105.52 151.67Z" fill="#E7D8C8"/>
<path d="M104.411 147.978C104.436 147.995 104.466 148.003 104.497 148.003C104.527 148.003 104.557 147.995 104.582 147.978C104.791 147.784 104.984 147.575 105.16 147.353C105.554 147.031 105.887 146.644 106.143 146.209C106.25 146.018 106.294 145.799 106.268 145.583V145.476C106.268 145.37 106.268 145.293 106.112 145.339C106.054 145.27 105.98 145.216 105.895 145.181C105.811 145.147 105.719 145.133 105.628 145.141C104.582 145.156 103.49 147.231 104.411 147.978Z" fill="#E7D8C8"/>
<path d="M98.1063 149.887C98.4185 150.466 99.1521 149.887 99.4175 149.566C99.8428 149.086 100.138 148.509 100.276 147.888C100.385 147.68 100.444 147.451 100.448 147.217C100.453 147.183 100.449 147.149 100.439 147.116C100.428 147.084 100.41 147.054 100.386 147.029C100.362 147.004 100.333 146.985 100.3 146.972C100.268 146.96 100.233 146.955 100.198 146.958C99.8334 147.008 99.4872 147.146 99.1904 147.359C98.8935 147.572 98.6551 147.853 98.4965 148.178C98.2312 148.621 97.8253 149.368 98.1063 149.887Z" fill="#E7D8C8"/>
<path d="M99.6511 156.019C99.8385 156.492 100.338 156.263 100.525 156.019C100.713 155.775 100.697 155.699 100.775 155.546C101.084 155.216 101.303 154.815 101.412 154.381C101.521 153.946 101.517 153.492 101.399 153.06C101.389 153.031 101.371 153.004 101.348 152.983C101.325 152.962 101.297 152.946 101.267 152.937C101.237 152.928 101.204 152.926 101.173 152.932C101.142 152.937 101.113 152.95 101.087 152.968C100.65 153.356 100.308 153.836 100.088 154.372C99.9009 154.768 99.4326 155.47 99.6511 156.019Z" fill="#E7D8C8"/>
<path d="M106.004 158.658C106.171 157.891 106.607 157.205 107.237 156.72C107.265 156.691 107.3 156.67 107.339 156.66C107.378 156.649 107.419 156.65 107.458 156.661C107.497 156.672 107.532 156.693 107.559 156.723C107.586 156.752 107.605 156.788 107.612 156.827C107.638 157.111 107.601 157.397 107.503 157.666C107.464 158.003 107.331 158.324 107.119 158.593C106.907 158.861 106.624 159.069 106.301 159.192H106.145C106.106 159.197 106.068 159.193 106.031 159.181C105.995 159.169 105.962 159.149 105.934 159.122C105.907 159.096 105.887 159.063 105.874 159.028C105.862 158.992 105.858 158.954 105.864 158.917L106.004 158.658Z" fill="#E7D8C8"/>
<path d="M110.563 160.456C110.595 160.436 110.632 160.423 110.671 160.42C110.71 160.417 110.749 160.423 110.784 160.438C110.82 160.453 110.851 160.477 110.875 160.506C110.899 160.536 110.915 160.572 110.922 160.609V160.609C110.922 160.609 110.922 160.609 110.922 160.716C110.922 161.57 110.313 162.943 109.361 163.019C109.335 163.024 109.308 163.023 109.283 163.016C109.258 163.01 109.234 162.999 109.213 162.983C109.193 162.967 109.176 162.947 109.163 162.925C109.151 162.902 109.144 162.877 109.142 162.851C109.169 162.371 109.312 161.904 109.558 161.487C109.805 161.071 110.149 160.718 110.563 160.456Z" fill="#E7D8C8"/>
<path d="M105.208 163.231C105.404 163.041 105.624 162.877 105.864 162.743C105.989 162.743 106.207 162.743 106.207 162.88C106.176 163.491 105.921 164.07 105.489 164.513C105.31 164.794 105.049 165.018 104.74 165.153C104.698 165.169 104.652 165.168 104.612 165.151C104.571 165.134 104.539 165.102 104.521 165.062C104.521 165.062 104.521 164.955 104.521 164.894C104.512 164.854 104.512 164.812 104.521 164.772C104.469 164.478 104.506 164.175 104.628 163.901C104.75 163.627 104.952 163.394 105.208 163.231V163.231Z" fill="#E7D8C8"/>
<path d="M101.103 158.947C101.166 158.943 101.23 158.962 101.279 159.002C101.328 159.042 101.36 159.098 101.368 159.16C101.391 159.292 101.391 159.426 101.368 159.557C101.397 159.78 101.376 160.006 101.306 160.219C101.236 160.433 101.119 160.629 100.962 160.793C100.754 161.165 100.432 161.463 100.041 161.647C99.9475 161.647 99.8382 161.647 99.7914 161.54C99.448 160.747 99.9787 158.932 101.103 158.947Z" fill="#E7D8C8"/>
<path d="M94.0633 157.987C94.0738 158.019 94.0907 158.048 94.1131 158.073C94.1355 158.098 94.1629 158.118 94.1936 158.132C94.2243 158.147 94.2576 158.155 94.2916 158.156C94.3256 158.157 94.3594 158.152 94.3911 158.14C94.8748 157.919 95.2661 157.542 95.4991 157.072C95.7322 156.603 95.7929 156.069 95.6711 155.561C95.6564 155.53 95.635 155.502 95.6083 155.479C95.5816 155.456 95.5503 155.439 95.5163 155.429C95.4823 155.418 95.4465 155.416 95.4113 155.42C95.3761 155.424 95.3422 155.436 95.3121 155.455C94.9591 155.697 94.6614 156.009 94.438 156.37C94.2508 156.592 94.1195 156.854 94.0544 157.135C93.9894 157.416 93.9924 157.708 94.0633 157.987V157.987Z" fill="#E7D8C8"/>
<path d="M94.7505 163.875C94.7482 163.561 94.8344 163.253 94.9996 162.984C95.1648 162.714 95.4027 162.495 95.6871 162.349C95.7218 162.334 95.7598 162.328 95.7976 162.331C95.8354 162.333 95.872 162.345 95.9043 162.364C95.9365 162.384 95.9634 162.411 95.9827 162.443C96.002 162.475 96.013 162.511 96.0149 162.548C96.0575 162.851 96.0259 163.16 95.9228 163.449C95.8197 163.738 95.648 163.999 95.4217 164.21C95.3544 164.302 95.2696 164.38 95.172 164.439C95.1424 164.455 95.1099 164.465 95.0764 164.468C95.0429 164.471 95.0091 164.467 94.977 164.457C94.9449 164.447 94.9152 164.431 94.8897 164.41C94.8642 164.388 94.8434 164.362 94.8286 164.333V164.333C94.8213 164.316 94.8175 164.297 94.8175 164.279C94.8175 164.261 94.8213 164.243 94.8286 164.226C94.7862 164.113 94.76 163.995 94.7505 163.875Z" fill="#E7D8C8"/>
<path d="M109.049 166.088C109.077 166.085 109.105 166.089 109.132 166.098C109.158 166.107 109.182 166.121 109.203 166.14C109.223 166.159 109.24 166.181 109.251 166.206C109.262 166.231 109.268 166.258 109.268 166.286C109.266 166.693 109.146 167.09 108.922 167.433C108.699 167.776 108.38 168.05 108.003 168.223C107.953 168.239 107.898 168.239 107.847 168.223H107.629C107.604 168.228 107.578 168.227 107.553 168.22C107.529 168.214 107.506 168.202 107.487 168.186C107.467 168.17 107.452 168.15 107.441 168.128C107.431 168.105 107.425 168.08 107.426 168.055C107.512 167.623 107.704 167.217 107.987 166.874C108.27 166.531 108.635 166.261 109.049 166.088Z" fill="#E7D8C8"/>
<path d="M110.704 170.341C110.699 170.382 110.705 170.423 110.721 170.461C110.737 170.499 110.762 170.533 110.795 170.559C110.827 170.584 110.866 170.602 110.908 170.609C110.949 170.616 110.992 170.613 111.032 170.6H111.141C111.164 170.615 111.191 170.623 111.219 170.623C111.247 170.623 111.274 170.615 111.297 170.6L111.406 170.493C111.709 170.286 111.967 170.021 112.162 169.715C112.358 169.408 112.489 169.066 112.546 168.708C112.552 168.673 112.548 168.637 112.534 168.604C112.521 168.571 112.499 168.542 112.47 168.52C112.441 168.498 112.407 168.485 112.371 168.48C112.335 168.476 112.298 168.481 112.265 168.495C111.766 168.722 111.351 169.095 111.078 169.563C110.901 169.795 110.773 170.059 110.704 170.341V170.341Z" fill="#E7D8C8"/>
<path d="M109.781 175.714C109.979 175.307 110.267 174.947 110.624 174.662C110.776 174.499 110.943 174.351 111.123 174.219C111.174 174.203 111.229 174.203 111.28 174.219C111.311 174.194 111.35 174.18 111.391 174.176C111.431 174.173 111.472 174.182 111.507 174.202C111.543 174.222 111.571 174.251 111.589 174.287C111.607 174.323 111.613 174.363 111.607 174.402C111.547 174.764 111.381 175.1 111.129 175.371C110.876 175.642 110.549 175.835 110.187 175.928H110.062C110.029 175.95 109.99 175.96 109.951 175.959C109.911 175.958 109.873 175.944 109.842 175.921C109.811 175.897 109.788 175.864 109.777 175.827C109.766 175.79 109.768 175.751 109.781 175.714Z" fill="#E7D8C8"/>
<path d="M104.724 173.088C104.738 172.867 104.801 172.651 104.908 172.456C105.016 172.261 105.166 172.092 105.348 171.959C105.589 171.716 105.89 171.538 106.222 171.44C106.363 171.44 106.55 171.44 106.55 171.624C106.525 172.057 106.361 172.472 106.081 172.809C105.801 173.146 105.418 173.388 104.989 173.5C104.956 173.504 104.923 173.502 104.891 173.494C104.859 173.485 104.829 173.471 104.803 173.451C104.777 173.431 104.755 173.406 104.738 173.378C104.722 173.35 104.712 173.319 104.708 173.286C104.693 173.274 104.681 173.258 104.673 173.24C104.665 173.222 104.662 173.203 104.663 173.183C104.665 173.164 104.671 173.145 104.682 173.129C104.692 173.112 104.707 173.098 104.724 173.088V173.088Z" fill="#E7D8C8"/>
<path d="M101.118 166.835H101.243C101.293 166.815 101.348 166.808 101.401 166.813C101.455 166.818 101.507 166.835 101.553 166.864C101.598 166.892 101.636 166.93 101.664 166.976C101.692 167.021 101.708 167.072 101.712 167.125C101.618 167.903 100.947 168.91 100.151 168.955C100.026 168.955 99.854 168.864 99.8696 168.726C99.8635 168.326 99.9787 167.932 100.201 167.596C100.423 167.259 100.742 166.994 101.118 166.835V166.835Z" fill="#E7D8C8"/>
<path d="M98.5897 173.913C98.9063 173.459 99.3589 173.113 99.8853 172.921C99.926 172.905 99.9705 172.899 100.014 172.904C100.058 172.91 100.099 172.927 100.134 172.953C100.169 172.98 100.196 173.015 100.213 173.054C100.229 173.094 100.235 173.138 100.229 173.18C99.9396 174.069 99.3143 174.817 98.4804 175.27C98.4453 175.298 98.403 175.316 98.3582 175.322C98.3134 175.329 98.2677 175.323 98.226 175.306C98.1843 175.288 98.1482 175.26 98.1216 175.225C98.0949 175.189 98.0787 175.147 98.0746 175.103C98.0592 174.879 98.0978 174.654 98.1873 174.448C98.2767 174.241 98.4146 174.058 98.5897 173.913V173.913Z" fill="#E7D8C8"/>
<path d="M94.4685 169.03C94.4799 168.723 94.5685 168.423 94.7264 168.157C94.8842 167.891 95.1066 167.667 95.3739 167.505C95.4987 167.505 95.7329 167.505 95.7797 167.612C95.8369 168.015 95.7748 168.427 95.6005 168.797C95.4263 169.168 95.1472 169.481 94.7963 169.702C94.7519 169.736 94.6978 169.757 94.6411 169.761C94.5844 169.765 94.5278 169.752 94.4787 169.724C94.4297 169.696 94.3905 169.654 94.3664 169.604C94.3423 169.553 94.3343 169.497 94.3436 169.442C94.3766 169.303 94.4183 169.165 94.4685 169.03V169.03Z" fill="#E7D8C8"/>
<path d="M90.5347 164.287C90.5854 164.105 90.6949 163.945 90.8469 163.829L90.9406 163.722C91.0499 163.585 91.3464 163.631 91.3464 163.829C91.3357 164.162 91.2274 164.485 91.0342 164.76C91.0236 164.961 90.9694 165.157 90.8752 165.336C90.7811 165.515 90.649 165.672 90.4879 165.797C90.4583 165.816 90.4242 165.827 90.3891 165.828C90.3539 165.83 90.3189 165.823 90.2874 165.808C90.2559 165.792 90.229 165.769 90.2095 165.741C90.1899 165.712 90.1783 165.679 90.1757 165.645C90.1356 165.165 90.2621 164.687 90.5347 164.287V164.287Z" fill="#E7D8C8"/>
<path d="M94.4213 151.106L94.6242 150.847C94.7335 150.74 94.9832 150.847 94.9832 150.954C95.0125 151.258 94.97 151.565 94.8591 151.85C94.7481 152.136 94.5717 152.393 94.3432 152.601V152.601V152.693C94.3193 152.715 94.2897 152.731 94.2575 152.739C94.2253 152.746 94.1916 152.745 94.1598 152.736C94.1281 152.727 94.0995 152.709 94.0768 152.686C94.0542 152.662 94.0384 152.633 94.031 152.601C94.0155 152.505 94.0155 152.408 94.031 152.312C93.9677 152.095 93.971 151.866 94.0404 151.651C94.1098 151.437 94.2423 151.248 94.4213 151.106V151.106Z" fill="#E7D8C8"/>
<path d="M92.5487 176.248C92.5649 176.277 92.5886 176.301 92.6175 176.317C92.6463 176.334 92.6791 176.343 92.7126 176.343C92.7461 176.343 92.7789 176.334 92.8077 176.317C92.8365 176.301 92.8603 176.277 92.8765 176.248L93.0014 176.111C93.3175 175.87 93.5773 175.565 93.763 175.218C93.9488 174.871 94.0564 174.488 94.0784 174.097C94.0824 174.054 94.074 174.012 94.0543 173.973C94.0346 173.935 94.0044 173.903 93.967 173.881C93.9296 173.859 93.8866 173.847 93.8428 173.848C93.7991 173.848 93.7563 173.861 93.7194 173.884C93.0482 174.356 92.2521 175.44 92.5487 176.248Z" fill="#E7D8C8"/>
<path d="M88.8178 173.044C88.856 172.844 88.9602 172.661 89.1144 172.525C89.1745 172.424 89.2479 172.332 89.3329 172.25C89.356 172.219 89.3865 172.193 89.4218 172.175C89.4571 172.158 89.4962 172.148 89.5358 172.148C89.5755 172.148 89.6146 172.158 89.6499 172.175C89.6852 172.193 89.7156 172.219 89.7388 172.25C89.8627 172.585 89.8627 172.952 89.7388 173.288C89.6562 173.632 89.4716 173.945 89.2081 174.188C89.1827 174.206 89.1532 174.219 89.122 174.224C89.0908 174.229 89.0588 174.228 89.0284 174.219C88.9981 174.21 88.9703 174.194 88.9473 174.173C88.9242 174.152 88.9067 174.125 88.8959 174.096C88.8052 173.937 88.7512 173.76 88.7377 173.578C88.7242 173.396 88.7516 173.214 88.8178 173.044V173.044Z" fill="#E7D8C8"/>
<path d="M89.4585 178.245C89.4922 178.22 89.5322 178.205 89.5742 178.201C89.6162 178.196 89.6587 178.203 89.6971 178.22C89.7354 178.237 89.7684 178.264 89.7923 178.298C89.8163 178.332 89.8304 178.372 89.8331 178.413C89.8727 178.781 89.8305 179.153 89.7092 179.503C89.588 179.853 89.3906 180.173 89.1307 180.442C89.1307 180.442 89.1307 180.442 89.1307 180.442C89.1307 180.442 89.1307 180.534 89.1307 180.564C89.1153 180.6 89.0893 180.631 89.056 180.653C89.0226 180.675 88.9835 180.686 88.9434 180.686C88.9033 180.686 88.8642 180.675 88.8309 180.653C88.7975 180.631 88.7715 180.6 88.7561 180.564C88.6522 180.152 88.6624 179.719 88.7859 179.312C88.9093 178.904 89.1415 178.536 89.4585 178.245V178.245Z" fill="#E7D8C8"/>
<path d="M95.218 180.488C95.2704 180.473 95.3261 180.476 95.3768 180.495C95.4276 180.514 95.4704 180.549 95.499 180.595C95.5158 180.62 95.5247 180.649 95.5247 180.679C95.5247 180.708 95.5158 180.738 95.499 180.762C95.5041 180.798 95.5041 180.834 95.499 180.869C95.4972 181.167 95.4242 181.459 95.286 181.724C95.1478 181.989 94.9481 182.219 94.7029 182.395C94.6746 182.416 94.6416 182.431 94.6065 182.438C94.5713 182.445 94.535 182.444 94.5003 182.435C94.4657 182.426 94.4335 182.41 94.4064 182.387C94.3793 182.364 94.3579 182.335 94.3439 182.303C94.3366 182.273 94.3366 182.242 94.3439 182.212V182.212C94.3151 182.214 94.2862 182.211 94.2592 182.201C94.2322 182.191 94.2079 182.175 94.1882 182.154C94.1686 182.133 94.1541 182.109 94.1459 182.082C94.1377 182.054 94.136 182.026 94.141 181.998C94.1809 181.68 94.2999 181.376 94.4876 181.112C94.6754 180.849 94.9261 180.635 95.218 180.488V180.488Z" fill="#E7D8C8"/>
<path d="M102.648 176.811C102.68 176.79 102.718 176.777 102.756 176.774C102.795 176.771 102.834 176.777 102.869 176.792C102.905 176.808 102.936 176.831 102.96 176.861C102.984 176.891 103 176.926 103.007 176.963C103.022 177.427 102.899 177.884 102.652 178.28C102.405 178.675 102.046 178.992 101.618 179.191C101.542 179.219 101.459 179.219 101.383 179.191L101.196 179.313C101.168 179.322 101.138 179.326 101.109 179.322C101.08 179.318 101.052 179.308 101.027 179.291C101.003 179.275 100.983 179.253 100.969 179.228C100.955 179.202 100.947 179.174 100.946 179.145C101.013 178.65 101.202 178.178 101.499 177.771C101.796 177.364 102.19 177.034 102.648 176.811V176.811Z" fill="#E7D8C8"/>
<path d="M115.323 175.757C115.355 175.686 115.397 175.619 115.448 175.559C115.423 175.448 115.423 175.334 115.448 175.223C115.624 174.891 115.91 174.628 116.26 174.476C116.384 174.476 116.556 174.476 116.603 174.567C116.665 174.782 116.665 175.009 116.603 175.223V175.223C116.554 175.471 116.411 175.692 116.202 175.842C115.994 175.991 115.736 176.059 115.479 176.032C115.424 176.011 115.378 175.972 115.35 175.922C115.321 175.872 115.312 175.813 115.323 175.757V175.757Z" fill="#E7D8C8"/>
</g>
<defs>
<clipPath id="clip0_1337_3617">
<rect width="300" height="206.897" fill="white"/>
</clipPath>
</defs>
</svg>
