<svg width="290" height="219" viewBox="0 0 290 219" fill="none" xmlns="http://www.w3.org/2000/svg">
<path d="M7.32739 69.5505C8.53843 89.4292 58.1908 106.913 142.236 106.913C229.189 106.913 276.419 93.7403 277.146 69.5505C277.872 45.3608 230.884 27.8772 144.174 28.1167C71.5122 28.3562 10.4761 33.3857 7.32739 69.5505Z" fill="#F7D3B0"/>
<path d="M13.1409 69.3129C14.3519 87.036 61.8244 102.604 142.237 102.604C225.314 102.604 270.607 90.8681 271.333 69.3129C272.06 47.7577 227.009 31.9505 144.175 32.4295C74.4192 32.669 16.0473 37.2196 13.1409 69.3129Z" fill="#E2BFA3"/>
<path d="M13.1409 69.3123C14.1097 83.4429 44.6277 96.376 98.3976 100.927C95.4911 99.0105 92.8269 96.855 89.9204 94.6995C73.4503 81.5269 60.129 64.2827 51.6517 44.8831C50.9251 43.2065 50.1985 41.53 49.4719 39.8535C28.1577 45.1226 14.5941 54.2236 13.1409 69.3123Z" fill="#CEAD97"/>
<path d="M73.4492 89.9077C72.4803 88.9497 71.2693 87.9917 70.5427 86.5547C69.8161 85.1177 69.5739 83.6807 69.3317 82.2437C68.3628 78.1721 65.2141 74.8191 61.0966 73.3821C60.1278 72.9031 58.9168 72.6636 58.1901 71.9451C57.4635 70.9871 57.4635 70.0291 57.4635 68.8315C56.9791 64.5205 53.8304 60.928 49.7129 59.491C48.5019 59.012 47.0486 58.7725 46.0798 58.0539C43.6577 56.3774 44.1422 52.7849 42.6889 50.1504C41.9623 48.7134 40.5091 47.7554 39.298 46.5578C37.1182 44.8813 34.9383 42.9653 32.7584 41.2888C30.5786 39.3728 28.1565 37.6963 25.25 37.2173C23.7968 36.9778 22.1014 37.2173 20.8903 36.2593C19.6793 35.5408 19.4371 34.1037 18.7105 32.9062C16.0462 27.6372 8.05337 26.2002 3.45144 30.0322C-1.15048 33.8642 -1.15048 41.7678 3.45144 45.5998C0.302758 48.2344 0.0605517 53.2639 1.756 56.8564C3.45144 60.449 6.84234 63.323 10.2332 65.718C10.9599 66.4365 11.9287 66.9155 12.4131 67.8735C13.1397 69.3105 12.8975 70.7476 12.8975 72.1846C12.8975 78.8906 17.9838 85.3572 24.7656 86.7942L76.5979 106.673C79.0199 101.164 77.5667 94.2188 73.4492 89.9077Z" fill="#6FB56B"/>
<path d="M61.3388 52.3063C58.4323 48.7137 55.7681 45.1212 54.0726 41.0497C52.3772 36.9781 51.8927 31.9486 53.5882 27.8771C54.0726 26.9191 54.7992 25.7215 54.7992 24.7635C55.0414 23.3265 54.557 22.129 54.3148 20.692C53.346 15.902 55.2836 10.8724 58.9167 7.75889C62.5498 4.64536 67.8784 3.68735 72.4803 5.36387C75.3868 2.96885 79.7465 2.48984 83.1374 4.16636C86.5283 5.84287 88.7082 9.67491 88.466 13.2674C92.0991 12.3094 95.7322 14.7045 97.6698 17.818C99.6075 20.9315 99.8497 24.7635 100.092 28.3561C105.42 28.1166 110.749 30.5116 114.14 34.5831C117.289 38.6547 118.5 44.6422 116.804 49.6718C121.89 53.7433 126.735 58.5333 127.946 64.9999C129.157 71.2269 125.039 78.891 118.5 79.1305C122.133 79.37 123.828 84.16 122.133 87.5131C120.679 90.6266 117.046 92.5426 113.898 93.9796C107.116 96.8537 100.092 98.7697 92.8257 99.7277C88.466 100.207 84.1062 100.446 79.9887 99.0092C71.0271 95.6561 66.9096 86.0761 63.7609 77.933C60.6122 70.7479 51.6505 58.2938 61.3388 52.3063Z" fill="#81CC7A"/>
<path d="M187.771 32.9078C190.193 29.3153 195.037 27.6388 199.155 28.8363C199.639 23.5672 203.999 19.0167 209.085 18.2982C214.172 17.5797 219.742 20.6932 221.922 25.4833C225.313 22.8487 230.642 25.9623 231.611 30.0338C232.579 34.1053 230.4 38.4164 227.735 41.7694C231.126 42.7274 232.822 47.0385 232.337 50.3915C231.853 53.7445 229.673 56.858 227.493 59.9716C232.095 63.3246 232.822 70.2702 230.157 75.0602C227.493 79.8502 221.68 82.7243 216.109 82.9638C210.296 83.2033 205.452 80.8082 200.124 78.4132C181.958 100.447 157.98 48.9545 188.013 45.1224C185.834 41.2904 185.349 36.5004 187.771 32.9078Z" fill="#6FB56B"/>
<path d="M212.96 54.2207C215.382 50.1492 218.288 46.5567 221.922 43.6827C224.586 41.5271 227.735 40.0901 230.883 38.6531C239.36 34.5816 249.775 30.2705 257.768 35.0606C259.221 36.0186 260.675 36.9766 262.128 37.9346C265.519 39.6111 269.636 39.1321 273.512 39.1321C277.387 39.1321 281.504 39.6111 284.653 41.7666C288.044 43.9222 290.224 47.5147 289.982 51.3467C289.739 53.2627 288.771 55.1787 288.771 57.3343C288.771 59.0108 289.497 60.6873 289.739 62.6033C290.466 66.9144 287.56 71.9439 282.958 72.6624C281.504 72.9019 279.809 72.6624 278.114 72.9019C271.09 73.8599 268.183 82.7215 261.886 85.356C259.948 86.0745 258.01 86.314 256.073 86.793C254.135 87.5115 252.197 88.4695 250.26 89.4275C238.149 94.9361 222.406 92.0621 213.202 82.482C204.967 73.6204 207.389 63.3218 212.96 54.2207Z" fill="#81CC7A"/>
<path d="M189.951 86.5547C190.677 86.7942 191.162 87.0337 191.888 86.7942C192.615 86.5547 192.857 85.5967 193.099 84.8782C194.552 80.5672 199.881 77.9326 204.483 79.3697C205.452 79.6092 206.421 80.0882 207.389 80.0882C208.843 79.8487 209.811 78.6512 211.023 77.9326C213.929 75.7771 218.289 76.0166 220.953 78.4117C221.68 79.1302 222.406 79.8487 223.133 80.3277C224.102 80.8067 225.313 80.5672 226.282 81.0462C229.915 82.0042 230.641 87.2732 234.274 88.2312C236.696 84.3992 242.509 83.6807 246.385 86.3152C250.26 88.9497 251.713 93.7398 251.471 98.2903C250.744 108.349 240.814 116.732 230.883 116.013C226.282 115.774 221.922 113.618 217.32 113.618C212.96 113.618 208.843 115.534 204.725 116.971C194.795 120.804 184.864 119.606 181.958 108.349C180.02 101.883 177.356 83.6807 189.951 86.5547Z" fill="#6FB56B"/>
<path d="M198.427 32.9062C198.427 32.9062 187.528 53.7429 215.866 65.9575C244.204 78.1721 252.197 54.4614 252.197 54.4614L198.427 32.9062Z" fill="#E24C24"/>
<path d="M251.704 54.933C254.13 49.1973 244.191 39.6248 229.505 33.5521C214.818 27.4794 200.947 27.2061 198.521 32.9418C196.095 38.6775 206.035 48.25 220.721 54.3227C235.407 60.3954 249.279 60.6686 251.704 54.933Z" fill="#FF5A27"/>
<path d="M249.469 54.0084C251.585 49.005 242.395 40.4397 228.943 34.8773C215.491 29.3149 202.871 28.8618 200.755 33.8652C198.639 38.8687 207.829 47.434 221.281 52.9964C234.733 58.5588 247.353 59.0119 249.469 54.0084Z" fill="#FF8B78"/>
<path d="M217.076 36.499C215.865 36.499 214.412 36.7385 214.17 37.936C213.928 38.415 213.928 38.894 213.686 39.373C213.443 39.8521 212.959 39.8521 212.717 40.3311C212.475 40.5706 212.717 41.0496 212.717 41.2891C213.201 43.4446 215.623 44.4026 217.803 44.8816C223.132 46.5581 228.46 48.4741 233.789 50.1506C235.242 50.6296 236.937 51.1087 237.906 50.1506C238.875 49.4321 238.875 47.9951 238.391 46.7976C237.906 45.6001 236.937 44.8816 235.969 44.1631C233.062 42.0076 229.913 39.8521 226.523 38.6545C223.616 37.6965 220.71 36.499 217.076 36.499Z" fill="#FF5A27"/>
<path d="M205.451 36.0173C206.42 36.2568 207.389 36.7358 208.357 36.9753C208.6 36.9753 208.842 36.9753 208.842 36.7358C209.084 36.7358 209.084 36.4963 209.084 36.2568C209.084 35.7778 208.842 35.5383 208.357 35.2988C208.115 35.2988 207.631 35.0593 207.389 35.0593H207.631C206.904 34.8198 206.42 34.8198 205.693 34.5803C205.209 34.3408 204.724 34.5803 204.724 35.0593C204.967 35.2988 204.967 36.0173 205.451 36.0173Z" fill="#FFB164"/>
<path d="M208.843 34.1028C209.811 34.5818 210.538 33.1447 209.569 32.6657C208.6 32.1867 207.874 33.6237 208.843 34.1028Z" fill="#FFB164"/>
<path d="M208.842 34.1023C209.326 34.3418 209.811 34.5813 210.537 34.8208C210.779 34.8208 211.022 34.8208 211.264 34.8208C211.506 34.8208 211.748 34.5813 211.748 34.3418C211.748 34.1023 211.748 33.8628 211.748 33.6233C211.748 33.3838 211.506 33.3838 211.264 33.1443C210.779 32.9048 210.295 32.6653 209.568 32.4258C209.326 32.4258 209.084 32.4258 208.842 32.4258C208.6 32.4258 208.357 32.6653 208.357 32.9048C208.357 33.1443 208.357 33.3838 208.357 33.6233C208.6 33.8628 208.6 33.8628 208.842 34.1023Z" fill="#FFB164"/>
<path d="M215.139 32.4261C215.139 32.6656 215.139 32.6656 215.139 32.9051C215.139 33.1446 215.139 33.1446 215.381 33.3841C215.623 33.6236 215.623 33.8631 216.108 34.1026C216.108 34.1026 216.35 34.1026 216.35 34.3421H216.592H216.834C216.834 34.3421 217.077 34.3421 217.077 34.1026V33.8631C217.077 33.6236 217.077 33.6236 217.077 33.3841C217.077 33.1446 216.834 32.9051 216.834 32.9051C216.834 32.9051 216.834 32.9051 217.077 33.1446L216.834 32.9051C216.834 32.9051 216.834 32.9051 216.834 33.1446C216.834 33.1446 216.834 32.9051 216.592 32.9051V33.1446V32.9051V33.1446V32.9051C216.592 32.9051 216.592 32.6656 216.35 32.6656L216.108 32.4261H215.866C215.623 32.4261 215.381 32.4261 215.381 32.6656C215.381 32.1866 215.139 32.4261 215.139 32.4261Z" fill="#FFB164"/>
<path d="M220.71 33.8633C220.71 34.1028 220.468 34.3423 220.468 34.8213V35.0608C220.468 35.0608 220.468 35.3003 220.71 35.3003L220.952 35.5398H221.194C221.437 35.5398 221.679 35.5398 221.679 35.3003C221.679 35.3003 221.679 35.3003 221.921 35.0608C221.921 35.0608 222.163 34.8213 222.163 34.5818C222.163 34.3423 222.405 34.1028 222.405 33.6238V33.3843C222.405 33.3843 222.405 33.1448 222.163 33.1448L221.921 32.9053H221.679C221.437 32.9053 221.194 32.9053 221.194 33.1448C221.194 33.1448 221.194 33.1448 220.952 33.3843C220.71 33.6238 220.71 33.6238 220.71 33.8633Z" fill="#FFB164"/>
<path d="M230.157 38.8936C230.399 38.6541 230.883 38.6541 231.125 38.4146C231.125 38.4146 231.368 38.4146 231.368 38.175L231.61 37.9355V37.696V37.4565C231.61 37.4565 231.61 37.4565 231.61 37.217L231.368 36.9775H231.125C230.883 36.9775 230.883 36.9775 230.641 36.9775C230.399 37.217 229.914 37.217 229.672 37.4565C229.672 37.4565 229.43 37.4565 229.43 37.696L229.188 37.9355V38.175V38.4146C229.188 38.4146 229.188 38.4146 229.188 38.6541L229.43 38.8936H229.672C229.914 38.8936 230.157 38.8936 230.157 38.8936Z" fill="#FFB164"/>
<path d="M236.453 42.7261C236.938 42.7261 237.422 42.9656 238.149 42.9656C238.391 42.9656 238.633 42.9656 238.633 42.7261C238.875 42.7261 238.875 42.4866 238.875 42.2471C238.875 42.0076 238.875 41.7681 238.633 41.7681C238.391 41.5286 238.391 41.5286 238.149 41.5286C237.664 41.5286 237.18 41.2891 236.453 41.2891C236.211 41.2891 235.969 41.2891 235.969 41.5286C235.727 41.5286 235.727 41.7681 235.727 42.0076C235.727 42.2471 235.727 42.4866 235.969 42.4866C236.211 42.4866 236.211 42.7261 236.453 42.7261Z" fill="#FFB164"/>
<path d="M240.814 46.7946C241.541 47.2736 242.509 47.5131 243.236 47.5131C243.478 47.5131 243.721 47.5132 243.721 47.2736C243.963 47.2736 243.963 47.0341 243.963 46.7946C243.963 46.5551 243.963 46.3156 243.721 46.3156C243.478 46.0761 243.478 46.0761 243.236 46.0761C242.994 46.0761 242.994 46.0761 242.752 46.0761H242.994C242.509 45.8366 241.783 45.5971 241.298 45.3576C240.814 45.1181 240.33 45.3576 240.33 45.8366C240.087 46.0761 240.33 46.5551 240.814 46.7946Z" fill="#FFB164"/>
<path d="M242.267 51.3472C242.994 51.8262 243.478 52.3052 244.205 52.7842C244.447 53.0237 244.689 53.0237 244.689 53.0237C244.931 53.0237 245.174 52.7842 245.174 52.7842C245.416 52.5447 245.416 51.8262 244.931 51.5867C244.205 51.1077 243.72 50.6287 242.994 50.1497C242.751 49.9102 242.509 49.9102 242.509 49.9102C242.267 49.9102 242.025 50.1497 242.025 50.1497C241.783 50.6287 241.783 51.1077 242.267 51.3472Z" fill="#FFB164"/>
<path d="M237.907 52.5442C238.149 53.0232 238.391 53.5022 238.634 53.9812C238.634 53.9812 238.634 54.2207 238.876 54.2207L239.118 54.4602C239.36 54.4602 239.602 54.4602 239.845 54.4602C240.087 54.4602 240.087 54.2207 240.329 53.9812C240.329 53.7417 240.329 53.5022 240.329 53.2627C240.087 52.7837 239.845 52.3047 239.602 51.8257C239.602 51.8257 239.602 51.5862 239.36 51.5862L239.118 51.3467C238.876 51.3467 238.634 51.3467 238.391 51.3467C238.149 51.3467 238.149 51.5862 237.907 51.8257C237.907 52.0652 237.665 52.3047 237.907 52.5442Z" fill="#FFB164"/>
<path d="M231.609 52.5442V52.7837C231.609 52.7837 231.609 52.7837 231.609 52.5442C231.609 52.7837 231.609 53.0232 231.609 53.0232V52.7837C231.609 52.7837 231.609 52.7837 231.609 53.0232V53.2627V53.5022C231.609 53.5022 231.609 53.7417 231.851 53.7417L232.094 53.9812C232.336 53.9812 232.578 53.9812 232.82 53.9812C233.062 53.9812 233.305 53.7417 233.305 53.5022C233.305 53.2627 233.547 53.0232 233.547 52.7837C233.547 52.5442 233.547 52.3047 233.547 52.0652C233.547 51.8257 233.305 51.5862 233.305 51.5862C233.305 51.5862 233.062 51.5862 233.062 51.3467H232.82C232.578 51.3467 232.336 51.5862 232.336 51.5862V51.8257C231.609 52.3047 231.367 52.5442 231.609 52.5442Z" fill="#FFB164"/>
<path d="M223.132 50.3892C223.132 50.6287 223.132 50.6287 223.132 50.8682V50.6287C223.132 50.8682 222.89 51.1077 222.89 51.1077V51.3472V51.5867C222.89 51.8262 223.132 52.0657 223.374 52.0657C223.616 52.0657 223.859 52.0657 224.101 52.0657C224.101 52.0657 224.101 52.0657 224.343 52.0657L224.585 51.8262C224.585 51.5867 224.828 51.3472 224.828 51.3472C224.828 51.1077 225.07 50.8682 225.07 50.6287C225.07 50.3892 225.07 50.1497 224.828 50.1497L224.585 49.9102H224.343C224.101 49.9102 223.859 49.9102 223.859 50.1497C223.132 49.9102 223.132 50.1497 223.132 50.3892Z" fill="#FFB164"/>
<path d="M217.319 47.7547V47.9942V47.7547C217.319 47.9942 217.077 47.9942 217.077 47.9942C217.077 47.9942 217.319 47.9942 217.319 47.7547C217.077 47.9942 217.077 48.2337 216.835 48.2337C216.835 48.2337 216.835 48.2337 217.077 48.2337C217.077 48.2337 216.835 48.2337 216.835 48.4732C216.835 48.4732 216.592 48.4732 216.592 48.7127L216.35 48.9522C216.35 49.1917 216.35 49.4312 216.35 49.6707C216.35 49.9102 216.592 49.9102 216.835 50.1497H217.077C217.319 50.1497 217.319 50.1497 217.561 50.1497C217.803 50.1497 217.803 49.9102 218.046 49.9102L218.288 49.6707C218.53 49.4312 218.53 49.4312 218.53 49.1917C218.53 48.9522 218.772 48.9522 218.772 48.7127C218.772 48.4732 218.772 48.2337 218.772 47.9942C218.772 47.7547 218.53 47.5152 218.288 47.5152C218.046 47.5152 217.803 47.5152 217.561 47.5152C217.561 47.2757 217.319 47.5152 217.319 47.7547Z" fill="#FFB164"/>
<path d="M212.234 42.7251C211.991 42.7251 211.749 42.9646 211.507 42.9646H211.749C211.265 42.9646 211.023 43.2041 210.538 43.2041C210.296 43.2041 210.054 43.4436 210.054 43.4436C209.812 43.6831 209.812 43.9226 209.812 43.9226C209.812 44.1621 210.054 44.4016 210.054 44.4016H210.296C210.538 44.4016 210.538 44.4016 210.78 44.4016C211.507 44.4016 212.234 44.1621 212.96 43.9226C213.202 43.9226 213.202 43.6831 213.445 43.4436C213.445 43.2041 213.445 42.9646 213.445 42.7251C213.445 42.4856 213.202 42.4856 212.96 42.2461C212.718 42.7251 212.476 42.7251 212.234 42.7251Z" fill="#FFB164"/>
<path d="M205.693 40.3279C205.935 40.3279 206.178 40.0884 206.42 40.0884C206.42 40.0884 206.662 40.0884 206.662 39.8489L206.904 39.6094V39.3699V39.1304C206.904 39.1304 206.904 39.1304 206.904 38.8909L206.662 38.6514H206.42C206.178 38.6514 206.178 38.6514 205.935 38.6514C205.693 38.6514 205.451 38.8909 205.209 38.8909C205.209 38.8909 204.967 38.8909 204.967 39.1304L204.724 39.3699V39.6094V39.8489C204.724 39.8489 204.724 39.8489 204.724 40.0884L204.967 40.3279H205.209C205.451 40.3279 205.451 40.3279 205.693 40.3279Z" fill="#FFB164"/>
<path opacity="0.24" d="M201.334 52.304C202.545 53.9805 203.514 55.657 205.451 56.3755C206.178 56.615 206.904 56.8545 207.389 56.136C207.631 55.657 207.389 54.9385 207.147 54.4595C206.42 53.5015 205.693 52.304 205.451 51.1064C204.967 48.9509 204.482 44.4004 201.091 44.4004C197.458 44.6399 200.365 51.1064 201.334 52.304Z" fill="white"/>
<path d="M113.413 69.0708C110.991 64.0413 110.749 57.8142 114.139 53.2637C117.046 49.4317 121.89 47.2761 126.492 45.3601C120.437 39.8516 118.984 30.511 123.101 23.5654C127.219 16.6199 136.422 12.7879 144.658 14.4644C142.72 8.47682 147.806 1.77076 154.588 0.333748C161.128 -1.10326 168.394 2.24976 172.027 7.51881C176.629 4.88429 183.411 5.8423 186.801 9.67433C190.192 13.7459 189.95 19.9729 186.075 23.5654C192.614 29.074 193.341 39.3726 187.528 45.5996C191.161 48.4737 193.099 52.7847 192.372 57.0957C191.888 61.4068 188.981 65.2388 184.864 67.3943C185.833 70.2683 186.559 73.3819 185.106 76.0164C183.411 79.1299 179.293 80.3274 175.66 80.3274C172.027 80.3274 168.152 79.6089 164.518 80.3274C165.972 83.6805 163.065 87.5125 159.432 88.9495C155.799 90.3865 151.682 89.9075 147.806 89.668C143.446 89.189 139.087 88.71 134.485 88.4705C132.063 88.231 129.399 87.9915 127.461 86.5545C125.039 84.878 124.312 81.0459 122.132 78.8904C118.984 75.7769 115.593 73.3819 113.413 69.0708Z" fill="#89E269"/>
<path d="M195.521 69.0701L195.036 77.6921C195.036 77.6921 199.396 89.9067 218.288 92.3018C239.36 94.9363 254.861 88.2302 255.104 75.7761C255.104 73.6206 252.439 68.3516 252.439 68.3516L195.279 68.8306L195.521 69.0701Z" fill="#59B24F"/>
<path d="M252.739 71.4539C253.162 63.3957 240.725 56.2082 224.961 55.4001C209.197 54.592 196.075 60.4694 195.653 68.5275C195.23 76.5857 207.667 83.7733 223.431 84.5814C239.195 85.3895 252.317 79.5121 252.739 71.4539Z" fill="#84D17D"/>
<path d="M250.987 70.9876C251.229 77.2147 239.603 82.7232 224.829 82.2442C210.296 81.7652 197.459 75.0592 197.217 68.8321C196.975 62.6051 209.812 56.378 224.344 56.857C239.119 57.5755 250.745 64.7606 250.987 70.9876Z" fill="#B0EDA9"/>
<path d="M207.873 67.633C207.389 67.154 206.904 66.675 206.662 66.1959C206.662 65.2379 207.873 64.7589 208.842 64.7589C211.022 64.5194 212.959 64.9984 214.897 65.7169C214.171 64.9984 213.686 64.0404 213.444 63.3219C213.444 63.0824 213.202 62.8429 213.444 62.8429C213.686 62.3639 214.171 62.3639 214.655 62.6034C216.835 63.5614 219.015 64.7589 221.195 66.1959C220.71 65.2379 220.226 64.2799 219.983 63.3219C219.983 62.3639 220.226 61.1664 221.195 60.6874C222.406 59.9689 223.859 60.6874 224.828 61.6454C225.796 62.6034 226.281 64.0404 226.523 65.2379C228.219 63.8009 230.641 63.0824 233.063 63.3219C233.547 63.3219 234.274 63.5614 234.516 64.0404C235 64.7589 234.274 65.4774 233.547 65.9564C236.211 65.2379 239.36 65.9564 241.54 67.8725C241.782 68.112 242.024 68.3515 242.024 68.8305C242.024 69.07 241.782 69.3095 241.782 69.3095C240.813 70.507 239.36 71.2255 237.907 71.465C236.454 71.7045 234.758 71.7045 233.305 71.7045C234.758 72.1835 236.211 72.902 237.665 73.86C237.907 73.86 237.907 74.0995 238.149 74.339C238.149 74.5785 238.149 74.5785 237.907 74.818C236.938 76.4945 234.758 76.9735 232.82 76.255C230.883 75.776 229.43 74.5785 227.734 73.381C228.461 74.339 229.187 75.5365 228.945 76.734C228.703 77.9316 227.734 78.8896 226.523 78.6501C226.039 78.4106 225.554 78.1711 225.312 77.6921C224.101 76.4945 223.132 75.0575 222.648 73.6205C222.648 75.5365 220.952 77.213 218.772 77.4525C218.288 77.4525 217.804 77.4525 217.319 76.9735C216.835 76.4945 216.835 75.776 217.077 75.297C217.319 74.818 217.804 74.339 218.288 73.86C216.835 74.818 215.139 75.5365 213.686 74.5785C213.202 74.339 212.96 73.86 212.96 73.381C212.96 73.1415 213.444 72.902 213.686 72.6625C214.413 72.1835 216.108 71.7045 216.35 70.986C212.959 70.028 210.295 69.549 207.873 67.633Z" fill="#C1FFB8"/>
<path d="M101.545 114.096L110.992 121.281C110.992 121.281 130.126 127.269 152.651 113.377C178.083 97.8098 187.044 79.6077 172.754 69.5486C170.332 67.8721 161.128 65.9561 161.128 65.9561L100.577 113.856L101.545 114.096Z" fill="#59B24F"/>
<path d="M142.843 107.25C162.055 96.2409 173.334 79.9868 168.035 70.9458C162.737 61.9049 142.867 63.5006 123.655 74.51C104.443 85.5194 93.1635 101.774 98.4621 110.814C103.761 119.855 123.631 118.26 142.843 107.25Z" fill="#84D17D"/>
<path d="M162.824 69.3102C170.09 74.1003 164.277 88.2309 148.049 99.9665C131.821 111.702 110.507 117.211 102.999 112.421C95.7326 107.631 102.03 92.3024 118.016 80.5668C134.001 68.8312 155.558 64.5202 162.824 69.3102Z" fill="#B0EDA9"/>
<path d="M112.929 102.84C111.96 103.079 110.749 103.079 110.022 102.6C108.811 101.882 109.538 100.445 110.506 99.4866C112.444 97.5706 115.108 96.1335 118.015 94.936C116.562 94.936 114.866 94.6965 113.655 94.2175C113.413 94.2175 112.929 93.978 112.929 93.7385C112.444 93.2595 113.413 92.7805 114.14 92.541C117.53 91.3435 121.406 90.3855 125.039 89.9065C123.343 89.667 121.89 89.4275 120.679 88.709C119.468 87.9905 118.742 86.793 118.984 85.5955C119.468 84.1585 121.648 83.2004 123.828 83.2004C126.008 83.2004 127.945 83.9189 129.883 84.6375C130.125 82.0029 131.821 79.3684 134.485 77.6919C135.212 77.2129 135.938 76.9734 136.907 76.9734C138.118 77.2129 138.36 78.4104 138.118 79.3684C140.056 76.4944 144.415 74.5784 148.775 74.3389C149.26 74.3389 149.986 74.3389 150.471 74.5784C150.713 74.8179 150.713 75.0574 150.955 75.2969C151.439 76.9734 150.713 78.8894 149.26 80.3264C148.049 81.7634 146.353 83.2004 144.658 84.398C146.837 83.4399 149.26 82.9609 151.924 82.4819C152.166 82.4819 152.65 82.4819 152.893 82.4819C153.135 82.4819 153.135 82.7214 153.377 82.9609C154.104 85.1165 152.408 87.272 149.744 88.4695C147.08 89.667 143.931 89.9065 141.025 90.3855C142.962 90.3855 144.9 90.8645 146.111 92.062C147.322 93.02 147.08 94.936 145.626 95.6546C144.9 95.8941 143.931 96.1335 143.204 96.1335C140.54 96.1335 138.118 95.8941 135.696 95.1755C137.876 96.8521 138.118 99.4866 135.938 101.403C135.454 101.882 134.727 102.361 133.758 102.361C132.79 102.361 131.821 101.882 131.578 101.163C131.094 100.445 131.336 99.7261 131.336 99.0076C130.852 100.924 129.883 103.079 127.219 103.558C126.492 103.798 125.523 103.558 125.039 103.079C124.797 102.84 124.797 102.361 125.039 102.121C125.281 101.163 126.492 99.2471 126.008 98.5286C121.164 100.205 117.773 102.121 112.929 102.84Z" fill="#C1FFB8"/>
<path d="M114.14 14.2251L105.42 18.0571C105.42 18.0571 95.2474 28.3557 101.303 47.7554C108.084 69.5501 121.648 81.5252 134 75.5376C135.938 74.5796 140.056 69.0711 140.056 69.0711L114.382 13.7461L114.14 14.2251Z" fill="#59B24F"/>
<path d="M136.863 71.6652C145.141 68.6298 146.988 53.1997 140.988 37.2012C134.988 21.2027 123.414 10.694 115.136 13.7294C106.858 16.7649 105.012 32.1949 111.011 48.1935C117.011 64.192 128.586 74.7006 136.863 71.6652Z" fill="#84D17D"/>
<path d="M136.907 69.3109C130.851 72.4244 120.194 63.8023 114.139 49.4322C108.084 35.0621 109.053 19.0154 115.108 15.9019C121.163 12.7884 132.789 22.129 138.844 36.4991C144.899 50.8692 142.962 66.1973 136.907 69.3109Z" fill="#B0EDA9"/>
<path d="M120.921 25.4809C121.163 24.7624 121.163 24.0439 121.89 23.5649C122.858 23.0859 123.827 24.0439 124.312 25.0019C125.28 26.9179 126.007 29.0735 126.249 31.4685C126.734 30.5105 127.218 29.5525 127.945 28.834C128.187 28.5945 128.187 28.5945 128.429 28.3549C128.914 28.3549 129.156 28.834 129.156 29.5525C129.398 32.187 129.156 34.8215 128.429 37.6955C128.914 36.7375 129.64 35.7795 130.609 35.3005C131.578 34.8215 132.789 34.582 133.758 35.3005C134.969 36.019 134.969 37.935 134.484 39.372C134 40.8091 132.789 41.7671 131.82 42.7251C134 43.6831 135.938 45.5991 136.664 47.9941C136.906 48.4731 136.906 49.1916 136.664 49.6706C136.18 50.3891 134.969 50.1496 134.242 49.6706C136.18 51.8262 136.906 55.4187 135.938 58.2927C135.938 58.7717 135.695 59.0112 135.211 59.2507C134.969 59.2507 134.727 59.2507 134.484 59.2507C132.789 59.0112 131.578 57.8137 130.609 56.6162C129.64 55.1792 128.914 53.7422 128.429 52.0657C128.671 53.7422 128.429 55.6582 128.187 57.3347C128.187 57.5742 128.187 57.8137 127.945 58.0532C127.703 58.0532 127.703 58.0532 127.46 58.0532C125.523 57.8137 124.069 55.8977 123.585 53.7422C123.343 51.5866 123.827 49.4311 124.312 47.2756C123.827 48.4731 122.858 49.6706 121.647 50.1496C120.436 50.6286 118.983 49.9101 118.741 48.7126C118.741 48.2336 118.741 47.5151 118.983 47.0361C119.71 45.3596 120.436 43.6831 121.647 42.4856C119.71 43.4436 117.288 42.4856 116.319 40.5696C116.077 40.0905 115.834 39.372 116.077 38.893C116.319 38.1745 117.045 37.935 117.772 37.935C118.499 37.935 118.983 38.1745 119.71 38.414C118.257 37.456 116.561 36.019 116.803 34.103C116.803 33.624 117.288 32.9055 117.772 32.9055C118.014 32.9055 118.499 32.9055 118.741 33.145C119.468 33.624 120.921 35.061 121.647 35.061C120.921 31.708 120.194 28.834 120.921 25.4809Z" fill="#C1FFB8"/>
<path d="M75.1438 81.0459C75.1438 81.0459 76.8392 104.517 107.357 100.206C138.118 95.895 132.305 71.4658 132.305 71.4658L75.1438 81.0459Z" fill="#E24C24"/>
<path d="M105.487 87.6249C121.212 85.1851 133.171 78.2285 132.196 72.0869C131.222 65.9453 117.683 62.9444 101.958 65.3841C86.2321 67.8239 74.2739 74.7805 75.2484 80.9221C76.2229 87.0638 89.761 90.0647 105.487 87.6249Z" fill="#FF5A27"/>
<path d="M105.262 86.2048C119.666 83.97 130.654 77.8152 129.804 72.4576C128.954 67.1 116.588 64.5685 102.183 66.8032C87.7792 69.038 76.7914 75.1928 77.6415 80.5504C78.4916 85.908 90.8576 88.4395 105.262 86.2048Z" fill="#FF8B78"/>
<path d="M93.0676 74.3417C92.0987 75.0602 91.1299 76.0182 91.3721 77.2157C91.3721 77.6947 91.8565 78.1737 91.8565 78.6527C91.8565 79.1317 91.6143 79.6107 91.6143 80.0897C91.6143 80.3292 91.8565 80.8082 92.0987 81.0477C93.7942 82.4847 96.2163 82.0057 98.3961 81.5267C103.967 80.3292 109.295 78.8922 114.866 77.6947C116.319 77.4552 118.015 76.7367 118.257 75.5392C118.741 74.3417 118.015 73.1441 116.804 72.4256C115.835 71.7071 114.624 71.4676 113.413 71.4676C109.78 70.9886 106.147 70.9886 102.514 71.7071C99.1227 71.9466 95.974 72.4256 93.0676 74.3417Z" fill="#FF5A27"/>
<path d="M82.8941 80.0894C83.8629 79.8499 84.8318 79.6103 85.8006 79.3708C86.0428 79.3708 86.0428 79.1313 86.285 78.8918C86.285 78.6523 86.285 78.4128 86.285 78.1733C86.0428 77.6943 85.5584 77.6943 85.3162 77.6943C85.074 77.6943 84.8318 77.9338 84.3474 77.9338H84.5896C83.8629 78.1733 83.3785 78.1733 82.6519 78.4128C82.1675 78.4128 81.9253 78.8918 81.9253 79.3708C82.1675 79.8498 82.4097 80.0894 82.8941 80.0894Z" fill="#FFB164"/>
<path d="M84.8323 76.4958C85.8012 76.2563 85.559 74.8193 84.5901 74.8193C83.3791 75.0588 83.6213 76.7353 84.8323 76.4958Z" fill="#FFB164"/>
<path d="M84.8326 76.4958C85.5592 76.4958 86.0436 76.4958 86.7702 76.2563C87.0124 76.2563 87.2546 76.0168 87.2546 76.0168C87.2546 75.7773 87.4969 75.5378 87.4969 75.5378C87.4969 75.2983 87.2546 75.0588 87.2546 75.0588C87.0124 74.8193 86.7702 74.8193 86.7702 74.8193C86.0436 74.8193 85.5592 74.8193 84.8326 75.0588C84.5904 75.0588 84.3482 75.2983 84.3482 75.2983C84.3482 75.5378 84.106 75.7773 84.106 75.7773C84.106 76.0168 84.3482 76.2563 84.3482 76.2563C84.3482 76.4958 84.5904 76.4958 84.8326 76.4958Z" fill="#FFB164"/>
<path d="M89.4343 71.9456C89.4343 72.1851 89.6766 72.1851 89.6766 72.4246C89.6766 72.6641 89.9188 72.6641 90.161 72.6641C90.4032 72.9036 90.8876 72.9036 91.1298 73.1431H91.372C91.372 73.1431 91.6142 73.1431 91.6142 72.9036L91.8564 72.6641V72.4246V72.1851C91.8564 71.9456 91.8564 71.9456 91.6142 71.7061C91.372 71.4666 91.372 71.4666 91.1298 71.4666C91.1298 71.4666 91.1298 71.4666 90.8876 71.4666H91.1298C91.1298 71.4666 90.8876 71.4666 90.8876 71.2271C90.8876 71.2271 90.8876 71.2271 91.1298 71.2271L90.8876 70.9875C90.8876 70.9875 90.8876 70.9876 91.1298 71.2271L90.8876 70.9875C90.8876 70.9875 90.8876 70.9876 90.8876 71.2271C90.8876 71.2271 90.8876 70.9875 90.6454 70.9875L90.4032 70.748H90.161H89.9188C89.6765 70.748 89.6765 70.9876 89.4343 71.2271C89.1921 71.4666 89.1921 71.7061 89.4343 71.9456Z" fill="#FFB164"/>
<path d="M94.5203 70.2678C94.5203 70.5073 94.7625 70.7468 94.7625 71.2258C94.7625 71.2258 94.7625 71.4653 95.0047 71.4653L95.2469 71.7048H95.4891H95.7313C95.9735 71.7048 95.9735 71.4653 96.2157 71.2258V70.9863C96.2157 70.7468 96.2157 70.7468 96.2157 70.5073C96.2157 70.2678 95.9735 70.0283 95.9735 69.5493C95.9735 69.5493 95.9735 69.3098 95.7313 69.3098L95.4891 69.0703H95.2469H95.0047C94.7625 69.0703 94.7625 69.3098 94.5203 69.5493V69.7888C94.5203 70.0283 94.5203 70.0283 94.5203 70.2678Z" fill="#FFB164"/>
<path d="M105.42 69.5508C105.662 69.3113 105.904 69.0718 106.147 68.5928C106.147 68.5928 106.147 68.3533 106.389 68.3533V68.1138V67.8743C106.389 67.8743 106.389 67.6348 106.147 67.6348C106.147 67.6348 106.147 67.6348 105.904 67.6348C105.662 67.6348 105.662 67.6348 105.42 67.6348H105.178C104.936 67.6348 104.936 67.8743 104.936 67.8743C104.693 68.1138 104.451 68.3533 104.209 68.8323C104.209 68.8323 104.209 69.0718 103.967 69.0718V69.3113V69.5508C103.967 69.5508 103.967 69.7903 104.209 69.7903C104.209 69.7903 104.209 69.7903 104.451 69.7903C104.693 69.7903 104.693 69.7903 104.936 69.7903H105.178L105.42 69.5508Z" fill="#FFB164"/>
<path d="M112.929 69.5503C113.413 69.3108 113.897 69.0713 114.382 68.8318C114.624 68.8318 114.624 68.5923 114.866 68.3528C114.866 68.1133 114.866 67.8738 114.866 67.6343C114.866 67.3948 114.624 67.3948 114.382 67.1553C114.14 67.1553 113.897 67.1553 113.655 67.1553C113.171 67.3948 112.686 67.6343 112.202 67.8738C111.96 67.8738 111.96 68.1133 111.718 68.3528C111.718 68.5923 111.718 68.8318 111.718 69.0713C111.718 69.3108 111.96 69.3108 112.202 69.5503C112.444 69.5503 112.686 69.5503 112.929 69.5503Z" fill="#FFB164"/>
<path d="M118.741 70.7493C119.71 70.7493 120.437 70.5098 121.163 70.2703C121.406 70.2703 121.406 70.0308 121.648 69.7913C121.648 69.5518 121.648 69.3123 121.648 69.0728C121.648 68.8333 121.406 68.8333 121.163 68.5938C120.921 68.5938 120.679 68.5938 120.437 68.5938C120.195 68.5938 120.195 68.5938 119.952 68.8333H120.195C119.71 69.0728 118.984 69.0728 118.257 69.0728C117.772 69.0728 117.53 69.5518 117.53 70.0308C117.772 70.7493 118.257 70.9888 118.741 70.7493Z" fill="#FFB164"/>
<path d="M122.375 74.1003C123.101 74.1003 124.07 74.1003 124.797 74.3398C125.039 74.3398 125.281 74.3398 125.281 74.1003C125.523 73.8608 125.523 73.8608 125.523 73.6213C125.523 73.1423 125.281 72.6633 124.797 72.6633C124.07 72.6633 123.101 72.6633 122.375 72.4238C122.132 72.4238 121.89 72.4238 121.89 72.6633C121.648 72.9028 121.648 72.9028 121.648 73.1423C121.648 73.6213 121.89 74.1003 122.375 74.1003Z" fill="#FFB164"/>
<path d="M119.226 77.2141C119.711 77.4536 120.195 77.6931 120.68 77.9326C120.68 77.9326 120.922 77.9326 120.922 78.1721H121.164C121.406 78.1721 121.648 77.9326 121.648 77.9326C121.648 77.6931 121.891 77.4536 121.891 77.4536C121.891 77.2141 121.648 76.9746 121.648 76.9746C121.164 76.7351 120.68 76.4956 120.195 76.2561C120.195 76.2561 119.953 76.2561 119.953 76.0166H119.711C119.469 76.0166 119.226 76.2561 119.226 76.2561C119.226 76.4956 118.984 76.7351 118.984 76.7351C118.984 76.9746 118.984 77.2141 119.226 77.2141Z" fill="#FFB164"/>
<path d="M113.897 80.5684L114.14 80.8079C113.897 80.8079 113.897 80.8079 113.897 80.5684C114.14 80.8079 114.14 81.0474 114.14 81.0474V80.8079C114.14 80.8079 114.14 80.8079 114.14 81.0474V81.2869C114.14 81.2869 114.14 81.5264 114.382 81.5264C114.382 81.5264 114.624 81.5264 114.624 81.7659H114.866C115.109 81.7659 115.351 81.5264 115.351 81.5264C115.351 81.2869 115.593 81.0474 115.593 81.0474C115.593 80.8079 115.593 80.5684 115.351 80.3289C115.351 80.0894 115.109 79.8499 114.866 79.8499C114.624 79.6103 114.624 79.6104 114.382 79.6104H114.14C114.14 79.6104 113.897 79.6103 113.897 79.8499C113.655 80.0894 113.655 80.0894 113.655 80.3289V80.5684C113.655 80.3289 113.655 80.5684 113.897 80.5684Z" fill="#FFB164"/>
<path d="M105.42 82.9629C105.42 83.2024 105.662 83.2024 105.662 83.4419V83.2024C105.662 83.4419 105.662 83.6814 105.662 83.9209V84.1604C105.662 84.1604 105.662 84.3999 105.905 84.3999C106.147 84.3999 106.389 84.6394 106.389 84.6394C106.631 84.6394 106.873 84.3999 106.873 84.3999C106.873 84.3999 106.873 84.3999 106.873 84.1604C106.873 83.9209 106.873 83.9209 106.873 83.6814C106.873 83.4419 106.873 83.2024 106.873 83.2024C106.873 82.9629 106.631 82.7234 106.631 82.4839C106.631 82.2444 106.389 82.2444 106.147 82.0049H105.905H105.662C105.42 82.0049 105.42 82.2444 105.178 82.4839C105.42 82.4839 105.42 82.7234 105.42 82.9629Z" fill="#FFB164"/>
<path d="M99.1224 83.6826V83.9221C99.1224 83.9221 99.1224 83.9221 99.1224 83.6826C99.1224 83.9221 99.1224 83.9221 99.1224 84.1616C99.1224 84.1616 99.1224 84.1616 99.1224 83.6826C99.1224 83.9221 99.1224 84.1616 99.1224 84.1616C99.1224 84.1616 99.1224 84.1616 99.1224 83.9221C99.1224 83.9221 99.1224 84.1616 98.8802 84.1616C98.8802 84.1616 98.8801 84.4011 98.6379 84.4011V84.6406C98.6379 84.8801 98.8802 85.1196 98.8802 85.1196C99.1224 85.1196 99.3646 85.3591 99.3646 85.3591H99.6068C99.849 85.3591 99.849 85.1196 99.849 85.1196C100.091 84.8801 100.091 84.8801 100.091 84.6406C100.091 84.6406 100.091 84.4011 100.333 84.4011C100.333 84.1616 100.333 84.1616 100.333 83.9221C100.333 83.6826 100.333 83.4431 100.333 83.4431C100.333 83.2036 100.091 82.9641 100.091 82.9641C99.849 82.9641 99.6068 82.7246 99.6068 82.7246C99.3646 82.7246 99.1224 82.9641 99.1224 82.9641C99.1224 83.4431 99.1224 83.6826 99.1224 83.6826Z" fill="#FFB164"/>
<path d="M92.0987 82.2449C91.8565 82.4844 91.8565 82.7239 91.6143 82.9634C91.6143 82.9634 91.6143 82.9634 91.8565 82.7239C91.6143 82.9634 91.1299 83.2029 90.8877 83.4424C90.6455 83.4424 90.6455 83.6819 90.6455 83.9214C90.6455 84.1609 90.6455 84.4004 90.8877 84.4004C91.1299 84.6399 91.1299 84.6399 91.3721 84.6399H91.6143C91.8565 84.6399 91.8565 84.6399 92.0987 84.4004C92.8254 83.9214 93.3098 83.4424 93.7942 82.7239C93.7942 82.4844 94.0364 82.2449 94.0364 82.2449C94.0364 82.0054 93.7942 81.7659 93.7942 81.7659C93.552 81.7659 93.3098 81.5264 93.3098 81.5264C92.5832 82.0054 92.341 82.0054 92.0987 82.2449Z" fill="#FFB164"/>
<path d="M85.317 83.4419C85.5592 83.2024 85.5592 82.9629 85.8014 82.9629C85.8014 82.9629 85.8014 82.7234 86.0436 82.7234V82.4839V82.2444C86.0436 82.2444 86.0436 82.0049 85.8014 82.0049C85.8014 82.0049 85.8014 82.0049 85.5592 82.0049C85.317 82.0049 85.317 82.0049 85.0748 82.0049H84.8326C84.5904 82.0049 84.5904 82.2444 84.5904 82.2444C84.3482 82.4839 84.3482 82.7234 84.106 82.7234C84.106 82.7234 84.106 82.9629 83.8638 82.9629V83.2024V83.4419C83.8638 83.4419 83.8638 83.6814 84.106 83.6814C84.106 83.6814 84.106 83.6814 84.3482 83.6814C84.5904 83.6814 84.5904 83.6814 84.8326 83.6814H85.0748C85.0748 83.6814 85.0748 83.6814 85.317 83.4419Z" fill="#FFB164"/>
<path opacity="0.24" d="M87.9808 96.1359C89.6763 96.8544 91.6139 97.8124 93.5516 97.5729C94.2782 97.5729 95.0048 97.0939 95.0048 96.3754C95.0048 95.8964 94.2782 95.4174 93.7938 95.1779C92.5827 94.6989 91.3717 94.2199 90.6451 93.2619C89.1918 91.8249 86.2854 87.9929 83.3789 89.6694C80.7146 91.5854 86.5276 95.4174 87.9808 96.1359Z" fill="white"/>
<path d="M139.815 64.2808C139.815 64.2808 154.59 82.4829 177.357 61.8857C200.124 41.2886 181.475 24.5234 181.475 24.5234L139.815 64.2808Z" fill="#E24C24"/>
<path d="M168.633 52.7745C180.201 41.9607 186.077 29.5321 181.758 25.0143C177.439 20.4965 164.56 25.6004 152.992 36.4141C141.424 47.2279 135.548 59.6565 139.867 64.1743C144.186 68.6921 157.065 63.5882 168.633 52.7745Z" fill="#FF5A27"/>
<path d="M167.635 51.7317C178.23 41.8267 183.765 30.6022 179.998 26.6612C176.23 22.7201 164.586 27.5549 153.99 37.4599C143.394 47.3649 137.859 58.5894 141.627 62.5304C145.395 66.4715 157.039 61.6367 167.635 51.7317Z" fill="#FF8B78"/>
<path d="M150.713 48.9512C150.229 49.9092 149.987 51.3462 150.955 52.3042C151.198 52.5437 151.682 52.7832 152.166 53.2622C152.409 53.7412 152.409 54.2202 152.651 54.4597C152.893 54.6992 153.135 54.9387 153.62 54.9387C155.8 55.1782 157.495 53.5017 158.948 51.8252C162.824 47.7537 166.457 43.6821 170.332 39.3711C171.301 38.4131 172.27 36.9761 172.027 35.5391C171.785 34.3416 170.332 33.623 169.121 33.623C167.91 33.623 166.699 34.1021 165.73 34.8206C162.581 36.4971 159.433 38.4131 156.768 41.0476C154.346 43.6821 152.166 45.8376 150.713 48.9512Z" fill="#FF5A27"/>
<path d="M145.627 59.2501C146.353 58.5316 147.08 57.8131 147.564 56.8551C147.564 56.6156 147.806 56.3761 147.564 56.3761C147.564 56.1366 147.322 55.8971 147.08 55.8971C146.595 55.6576 146.353 55.8971 145.869 56.1366C145.627 56.3761 145.384 56.6156 145.384 56.8551C145.384 56.8551 145.384 56.8551 145.627 56.6156C145.142 57.0946 144.9 57.5736 144.416 58.0526C144.173 58.2921 144.173 58.7711 144.416 59.2501C144.658 59.4896 145.384 59.4896 145.627 59.2501Z" fill="#FFB164"/>
<path d="M145.142 55.4181C145.869 54.6996 144.9 53.5021 143.931 54.2206C143.205 54.9391 144.416 56.1366 145.142 55.4181Z" fill="#FFB164"/>
<path d="M145.142 55.4165C145.627 54.9375 146.111 54.698 146.596 54.219C146.838 53.9795 146.838 53.74 146.838 53.74C146.838 53.5005 146.838 53.261 146.596 53.261C146.353 53.0215 146.353 53.0215 146.111 53.0215C145.869 53.0215 145.627 53.0215 145.627 53.261C145.142 53.74 144.658 53.9795 144.174 54.4585C143.931 54.698 143.931 54.9375 143.931 54.9375C143.931 55.177 143.931 55.4165 144.174 55.4165C144.416 55.656 144.416 55.656 144.658 55.656C144.658 55.656 144.9 55.4165 145.142 55.4165Z" fill="#FFB164"/>
<path d="M146.354 48.9517C146.596 48.9517 146.596 49.1912 146.839 49.1912C147.081 49.1912 147.081 49.1912 147.323 49.1912C147.565 49.1912 148.05 49.1912 148.292 48.9517C148.292 48.9517 148.534 48.9517 148.534 48.7122L148.776 48.4727V48.2332V47.9937C148.776 47.9937 148.776 47.9937 148.534 47.7542L148.292 47.5146C148.05 47.5146 147.807 47.5146 147.807 47.5146C147.807 47.5146 147.807 47.5146 147.565 47.5146H147.807H147.565H147.807H147.565H147.807H147.565H147.807H147.565H147.323C147.323 47.5146 147.081 47.5146 147.081 47.7542L146.839 47.9937C146.839 48.2332 146.596 48.4727 146.839 48.4727C145.87 48.7122 146.112 48.9517 146.354 48.9517Z" fill="#FFB164"/>
<path d="M149.502 44.6411C149.745 44.8806 149.987 45.1201 150.229 45.1201H150.471H150.713C150.713 45.1201 150.956 45.1201 150.956 44.8806L151.198 44.6411C151.198 44.4016 151.44 44.1621 151.198 44.1621V43.9226C151.198 43.6831 150.956 43.6831 150.956 43.6831C150.713 43.4436 150.471 43.2041 150.229 43.2041H149.987H149.745C149.745 43.2041 149.502 43.2041 149.502 43.4436L149.26 43.6831C149.26 43.9226 149.018 44.1621 149.26 44.1621V44.4016C149.502 44.4016 149.502 44.6411 149.502 44.6411Z" fill="#FFB164"/>
<path d="M158.222 37.9346C158.222 37.4556 158.222 37.2161 158.222 36.7371V36.4976C158.222 36.4976 158.222 36.2581 157.98 36.2581L157.737 36.0186H157.495H157.253C157.011 36.0186 157.011 36.0186 156.769 36.2581C156.769 36.2581 156.769 36.2581 156.526 36.4976C156.526 36.7371 156.526 36.7371 156.526 36.9766C156.526 37.4556 156.526 37.6951 156.526 38.1741V38.4136C156.526 38.4136 156.526 38.6531 156.769 38.6531L157.011 38.8926H157.253H157.495C157.737 38.8926 157.737 38.8926 157.98 38.6531C157.98 38.6531 157.98 38.6531 158.222 38.4136C158.222 38.4136 158.222 38.1741 158.222 37.9346Z" fill="#FFB164"/>
<path d="M164.278 33.8599C164.52 33.3809 164.762 32.9019 165.004 32.4229C165.004 32.1833 165.246 31.9438 165.004 31.9438C165.004 31.7043 164.762 31.4648 164.52 31.4648C164.278 31.4648 164.035 31.2253 164.035 31.4648C163.793 31.4648 163.551 31.7043 163.551 31.9438C163.309 32.4229 163.067 32.9019 162.824 33.3809C162.824 33.6204 162.582 33.8599 162.824 33.8599C162.824 34.0994 163.067 34.3389 163.309 34.3389C163.551 34.3389 163.793 34.5784 163.793 34.3389C164.035 34.0994 164.278 34.0994 164.278 33.8599Z" fill="#FFB164"/>
<path d="M169.848 31.707C170.575 31.228 171.059 30.5095 171.543 29.791C171.543 29.5515 171.786 29.312 171.543 29.312C171.543 29.0725 171.301 28.833 171.059 28.833C170.817 28.833 170.575 28.5935 170.575 28.833C170.332 28.833 170.09 29.0725 170.09 29.312C170.09 29.5515 169.848 29.5515 169.848 29.791C169.848 29.791 169.848 29.791 170.09 29.5515C169.606 30.0305 169.364 30.5095 168.879 30.749C168.637 30.9885 168.637 31.707 168.879 31.9465C169.121 31.9465 169.364 31.9465 169.848 31.707Z" fill="#FFB164"/>
<path d="M174.692 32.1856C175.419 31.7066 176.146 31.4671 176.63 30.9881C176.872 30.9881 176.872 30.7486 177.115 30.5091C177.115 30.2696 177.115 30.0301 177.115 30.0301C176.872 29.7906 176.388 29.5511 176.146 29.7906C175.419 30.2696 174.692 30.5091 174.208 30.9881C173.966 30.9881 173.966 31.2276 173.724 31.4671C173.724 31.7066 173.724 31.9461 173.724 31.9461C173.724 32.1856 174.45 32.4251 174.692 32.1856Z" fill="#FFB164"/>
<path d="M173.966 36.7388C174.45 36.7388 175.177 36.7388 175.661 36.7388H175.904C175.904 36.7388 176.146 36.7388 176.146 36.4993C176.388 36.2598 176.388 36.2598 176.388 36.0203C176.388 35.7808 176.388 35.5413 176.146 35.5413C175.904 35.3018 175.904 35.3018 175.661 35.3018C175.177 35.3018 174.45 35.3018 173.966 35.3018H173.724C173.724 35.3018 173.481 35.3018 173.481 35.5413C173.239 35.7808 173.239 35.7808 173.239 36.0203C173.239 36.2598 173.239 36.4993 173.481 36.4993C173.481 36.4993 173.724 36.7388 173.966 36.7388Z" fill="#FFB164"/>
<path d="M171.543 42.4841H171.785H171.543C171.785 42.4841 172.027 42.7236 172.027 42.7236C172.027 42.7236 172.027 42.7236 171.785 42.4841L172.027 42.7236H172.27H172.512C172.512 42.7236 172.754 42.7236 172.754 42.4841C172.996 42.2446 172.996 42.2446 172.996 42.0051C172.996 41.7656 172.996 41.5261 172.754 41.5261C172.512 41.2866 172.512 41.2866 172.27 41.0471C172.027 41.0471 171.785 40.8076 171.543 40.8076C171.301 40.8076 171.059 40.8076 171.059 40.8076C171.059 40.8076 170.816 40.8076 170.816 41.0471L170.574 41.2866C170.574 41.5261 170.574 41.7656 170.574 41.7656C170.574 41.7656 170.574 41.7656 170.816 42.0051C171.059 42.2446 171.301 42.4841 171.543 42.4841Z" fill="#FFB164"/>
<path d="M165.973 49.1902C166.215 49.1902 166.215 49.4297 166.457 49.4297C166.457 49.4297 166.457 49.4297 166.215 49.1902C166.457 49.4297 166.457 49.4297 166.699 49.6692L166.942 49.9087H167.184C167.426 49.9087 167.668 49.9087 167.668 49.6692C167.91 49.4297 167.91 49.4297 167.91 49.1902V48.9507C167.91 48.7112 167.91 48.7112 167.668 48.4717C167.426 48.2322 167.426 48.2322 167.184 47.9927C166.942 47.7532 166.699 47.7532 166.457 47.5137C166.215 47.5137 165.973 47.2742 165.973 47.5137C165.973 47.5137 165.73 47.5137 165.73 47.7532L165.488 47.9927C165.488 48.2322 165.246 48.4717 165.488 48.4717C165.488 48.9507 165.73 48.9507 165.973 49.1902Z" fill="#FFB164"/>
<path d="M161.128 53.2625C161.128 53.2625 161.371 53.502 161.128 53.2625C161.371 53.502 161.371 53.2625 161.128 53.2625C161.371 53.502 161.371 53.5019 161.371 53.5019C161.371 53.5019 161.371 53.502 161.128 53.2625C161.371 53.502 161.371 53.7415 161.371 53.7415V53.5019V53.7415V53.981C161.371 53.981 161.371 54.2205 161.613 54.2205C161.855 54.46 161.855 54.46 162.097 54.46C162.339 54.46 162.582 54.46 162.582 54.2205C162.582 54.2205 162.582 54.2205 162.824 53.981C162.824 53.7415 162.824 53.7415 162.824 53.5019C162.824 53.2624 162.824 53.2625 162.824 53.0229V52.7834C162.824 52.5439 162.824 52.5439 162.582 52.3044C162.582 52.0649 162.339 52.0649 162.339 51.8254C162.097 51.5859 162.097 51.5859 161.855 51.5859C161.613 51.5859 161.371 51.5859 161.371 51.8254C161.128 52.0649 161.128 52.0649 161.128 52.3044C160.886 53.0229 161.128 53.0229 161.128 53.2625Z" fill="#FFB164"/>
<path d="M154.589 55.8962C154.589 56.1357 154.589 56.3752 154.589 56.8543V56.6147C154.589 57.0938 154.347 57.3333 154.347 57.8123C154.347 58.0518 154.347 58.2913 154.347 58.2913C154.347 58.5308 154.589 58.5308 154.832 58.7703C155.074 58.7703 155.316 58.7703 155.316 58.7703C155.316 58.7703 155.316 58.7703 155.558 58.5308L155.8 58.2913C156.043 57.5728 156.285 56.8542 156.285 56.1357C156.285 55.8962 156.285 55.6567 156.043 55.6567C155.8 55.1777 155.558 55.1777 155.316 55.1777C155.074 55.1777 154.832 55.1777 154.832 55.4172C154.589 55.4172 154.589 55.6567 154.589 55.8962Z" fill="#FFB164"/>
<path d="M149.503 60.9272C149.503 60.6877 149.503 60.4482 149.503 60.2087V59.9692C149.503 59.9692 149.503 59.7297 149.261 59.7297L149.018 59.4902H148.776H148.534C148.292 59.4902 148.292 59.4902 148.05 59.7297C148.05 59.7297 148.05 59.7297 147.807 59.9692C147.807 60.2087 147.807 60.2087 147.807 60.4482C147.807 60.6877 147.807 60.9272 147.807 61.1668V61.4063C147.807 61.4063 147.807 61.6458 148.05 61.6458L148.292 61.8853H148.534H148.776C149.018 61.8853 149.018 61.8853 149.261 61.6458C149.261 61.6458 149.261 61.6458 149.503 61.4063C149.503 61.1668 149.503 60.9272 149.503 60.9272Z" fill="#FFB164"/>
<path opacity="0.24" d="M158.948 69.5476C160.886 69.3081 162.824 68.8291 164.519 67.6316C165.003 67.1526 165.488 66.4341 165.246 65.7156C165.003 65.2366 164.277 65.2366 163.55 65.4761C162.339 65.7156 161.128 65.9551 159.675 65.7156C157.495 65.4761 152.893 63.7995 151.682 66.9131C150.229 70.0266 157.495 69.7871 158.948 69.5476Z" fill="white"/>
<path d="M167.667 91.1079C167.667 91.1079 174.449 113.621 203.513 102.844C232.578 92.0659 221.194 69.5527 221.194 69.5527L167.667 91.1079Z" fill="#E24C24"/>
<path d="M198.709 91.0637C213.528 85.3153 223.679 75.9637 221.383 70.1765C219.087 64.3892 205.213 64.3577 190.395 70.1062C175.576 75.8546 165.425 85.2061 167.721 90.9934C170.017 96.7807 183.891 96.8122 198.709 91.0637Z" fill="#FF5A27"/>
<path d="M198.179 89.7249C211.752 84.4595 221.132 76.0985 219.129 71.05C217.126 66.0015 204.499 66.1774 190.926 71.4428C177.353 76.7081 167.973 85.0691 169.976 90.1176C171.979 95.1661 184.606 94.9902 198.179 89.7249Z" fill="#FF8B78"/>
<path d="M183.652 80.8082C182.926 81.5267 181.957 82.7242 182.441 83.9217C182.684 84.4007 182.926 84.6402 183.168 85.1192C183.168 85.5982 182.926 86.0772 183.168 86.5562C183.168 86.7957 183.652 87.0353 183.895 87.2748C185.832 88.2328 188.012 87.5143 190.192 86.5562C195.278 84.1612 200.365 81.7662 205.451 79.3712C206.662 78.6527 208.358 77.9342 208.358 76.4972C208.358 75.2997 207.631 74.1021 206.42 73.8626C205.209 73.3836 203.998 73.3836 202.787 73.6231C199.154 74.1021 195.521 74.5811 192.13 76.2577C188.981 77.2157 186.075 78.4132 183.652 80.8082Z" fill="#FF5A27"/>
<path d="M174.934 88.4747C175.902 87.9957 176.871 87.5167 177.598 87.0377C177.84 87.0377 177.84 86.7982 177.84 86.5587C177.84 86.3192 177.84 86.0797 177.598 85.8402C177.356 85.3612 176.871 85.3612 176.387 85.6007C176.145 85.8402 175.902 85.8402 175.66 86.0797H175.902C175.418 86.3192 174.691 86.7982 174.207 87.0377C173.722 87.2772 173.48 87.7562 173.722 87.9957C174.207 88.4747 174.691 88.7142 174.934 88.4747Z" fill="#FFB164"/>
<path d="M175.902 84.6418C176.871 84.1628 176.387 82.7258 175.418 83.2048C174.449 83.4443 174.933 85.1208 175.902 84.6418Z" fill="#FFB164"/>
<path d="M175.902 84.6399C176.387 84.4004 177.113 84.4004 177.598 84.1609C177.84 84.1609 178.082 83.9214 178.082 83.6819C178.082 83.4424 178.082 83.2029 178.082 82.9634C178.082 82.7239 177.84 82.4844 177.598 82.4844C177.356 82.4844 177.113 82.4844 176.871 82.4844C176.387 82.7239 175.66 82.7239 175.176 82.9634C174.934 82.9634 174.691 83.2029 174.691 83.4424C174.691 83.6819 174.691 83.9214 174.691 84.1609C174.691 84.4004 174.934 84.6399 175.176 84.6399C175.66 84.6399 175.66 84.6399 175.902 84.6399Z" fill="#FFB164"/>
<path d="M179.536 79.1331C179.536 79.3726 179.778 79.3726 180.02 79.3726C180.263 79.3726 180.263 79.6121 180.505 79.6121C180.747 79.8516 181.231 79.8516 181.474 79.8516H181.716C181.716 79.8516 181.958 79.8516 181.958 79.6121C181.958 79.6121 181.958 79.3726 182.2 79.3726V79.1331V78.8936C182.2 78.6541 181.958 78.6541 181.958 78.6541C181.716 78.4145 181.474 78.4146 181.474 78.4146C181.474 78.4146 181.474 78.4146 181.231 78.4146H181.474H181.231H181.474C181.474 78.4146 181.231 78.4145 181.231 78.175C181.231 78.175 181.231 78.175 181.474 78.175L181.231 77.9355C181.231 77.9355 181.231 77.9355 181.474 78.175L181.231 77.9355H180.989H180.747C180.747 77.9355 180.505 77.9355 180.505 78.175C180.263 78.4145 180.263 78.4145 180.263 78.6541C179.294 78.8936 179.294 79.1331 179.536 79.1331Z" fill="#FFB164"/>
<path d="M184.137 76.4966C184.379 76.7361 184.379 76.9756 184.622 77.2151L184.864 77.4546H185.106H185.348C185.348 77.4546 185.59 77.4546 185.59 77.2151C185.833 76.9756 185.833 76.9756 185.833 76.7361V76.4966C185.833 76.2571 185.833 76.2571 185.59 76.0176C185.348 75.7781 185.348 75.5386 185.106 75.2991L184.864 75.0596H184.622H184.379C184.379 75.0596 184.137 75.0596 184.137 75.2991C183.895 75.5386 183.895 75.5386 183.895 75.7781V76.0176C184.137 76.2571 184.137 76.2571 184.137 76.4966Z" fill="#FFB164"/>
<path d="M194.794 73.3828C195.036 73.1433 195.036 72.6643 195.278 72.4248V72.1853V71.9458C195.278 71.9458 195.278 71.7063 195.036 71.7063L194.794 71.4668H194.552C194.309 71.4668 194.309 71.4668 194.067 71.4668H193.825L193.583 71.7063C193.341 71.9458 193.341 72.4248 193.098 72.6643V72.9038V73.1433C193.098 73.1433 193.098 73.3828 193.341 73.3828L193.583 73.6223H193.825C194.067 73.6223 194.067 73.6223 194.309 73.6223H194.552C194.552 73.6223 194.552 73.6223 194.794 73.3828Z" fill="#FFB164"/>
<path d="M201.818 71.7065C202.302 71.467 202.787 70.988 203.029 70.7485C203.271 70.509 203.271 70.509 203.271 70.2695C203.271 70.03 203.271 69.7905 203.029 69.551C202.787 69.3115 202.787 69.3115 202.544 69.3115C202.302 69.3115 202.06 69.3115 201.818 69.551C201.333 69.7905 200.849 70.2695 200.607 70.509C200.364 70.7485 200.365 70.7485 200.365 70.988C200.365 71.2275 200.364 71.467 200.607 71.7065C200.849 71.946 200.849 71.946 201.091 71.946C201.576 71.946 201.818 71.946 201.818 71.7065Z" fill="#FFB164"/>
<path d="M207.873 71.9478C208.6 71.7083 209.568 71.2293 210.295 70.9898C210.537 70.9898 210.537 70.7503 210.537 70.5107C210.537 70.2712 210.537 70.0317 210.295 69.7922C210.053 69.5527 210.053 69.5527 209.811 69.5527C209.568 69.5527 209.326 69.5527 209.084 69.7922C208.842 69.7922 208.842 70.0317 208.6 70.0317H208.842C208.357 70.2712 207.631 70.5107 207.146 70.7503C206.662 70.9898 206.42 71.4688 206.662 71.7083C206.904 71.7083 207.389 71.9478 207.873 71.9478Z" fill="#FFB164"/>
<path d="M212.233 74.1025C212.96 73.863 213.928 73.863 214.655 73.6235C214.897 73.6235 215.139 73.384 215.139 73.384C215.139 73.1445 215.382 72.905 215.382 72.905C215.382 72.426 214.897 72.1865 214.413 72.1865C213.686 72.426 212.717 72.426 211.991 72.6655C211.749 72.6655 211.506 72.905 211.506 72.905C211.506 73.1445 211.264 73.384 211.264 73.384C211.264 73.863 211.749 74.342 212.233 74.1025Z" fill="#FFB164"/>
<path d="M209.811 77.9343C210.295 78.1738 210.78 78.1738 211.507 78.4133H211.749H211.991C212.233 78.4133 212.475 78.1738 212.475 77.9343C212.475 77.6948 212.475 77.4553 212.475 77.2158C212.475 76.9763 212.233 76.7368 211.991 76.7368C211.507 76.4973 211.022 76.4973 210.295 76.2578H210.053H209.811C209.569 76.2578 209.327 76.4973 209.327 76.7368C209.327 76.9763 209.327 77.2158 209.327 77.4553C209.569 77.6948 209.569 77.9343 209.811 77.9343Z" fill="#FFB164"/>
<path d="M205.209 82.4839L205.451 82.7234C205.451 82.4839 205.451 82.4839 205.209 82.4839C205.451 82.7234 205.451 82.7234 205.693 82.9629V82.7234C205.693 82.7234 205.693 82.7234 205.693 82.9629C205.693 82.9629 205.693 83.2024 205.935 83.2024L206.178 83.4419H206.42H206.662C206.904 83.4419 207.146 83.2024 207.146 82.9629C207.146 82.7234 207.146 82.4839 207.146 82.2444C207.146 82.0049 206.904 81.7654 206.904 81.7654C206.662 81.5259 206.662 81.5259 206.42 81.2864C206.178 81.0469 205.935 81.0469 205.935 81.0469H205.693C205.693 81.0469 205.451 81.0469 205.451 81.2864C205.451 81.5259 205.209 81.7654 205.209 81.7654V82.0049C205.209 82.2444 205.209 82.2444 205.209 82.4839Z" fill="#FFB164"/>
<path d="M197.701 86.5571C197.701 86.7966 197.943 86.7966 197.943 87.0361V86.7966C197.943 87.0361 198.185 87.2756 198.185 87.2756C198.185 87.2756 198.185 87.5151 198.427 87.5151L198.669 87.7546C198.912 87.7546 199.154 87.7546 199.396 87.7546C199.638 87.7546 199.88 87.5151 199.88 87.2756V87.0361C199.88 86.7966 199.88 86.7966 199.88 86.5571C199.88 86.3176 199.638 86.0781 199.638 86.0781C199.396 85.8386 199.396 85.5991 199.154 85.3596C198.912 85.1201 198.912 85.1201 198.669 85.1201H198.427C198.427 85.1201 198.185 85.1201 198.185 85.3596C197.943 85.5991 197.943 85.5991 197.943 85.8386C197.458 86.0781 197.458 86.3176 197.701 86.5571Z" fill="#FFB164"/>
<path d="M191.646 88.7109V88.9504C191.646 88.7109 191.646 88.7109 191.646 88.7109C191.646 88.9504 191.646 88.9504 191.646 89.19C191.888 88.9504 191.888 88.9504 191.646 88.7109C191.646 88.9504 191.646 89.19 191.646 89.19V88.9504C191.646 88.9504 191.646 89.19 191.404 89.19V89.4295V89.669C191.404 89.9085 191.646 90.148 191.888 90.148C192.131 90.148 192.373 90.148 192.615 90.148H192.857L193.1 89.9085C193.1 89.669 193.342 89.669 193.342 89.4295V89.19C193.342 88.9504 193.342 88.9504 193.342 88.7109C193.342 88.4714 193.342 88.4714 193.1 88.2319C193.1 87.9924 192.857 87.9924 192.615 87.7529C192.373 87.7529 192.131 87.7529 191.888 87.7529C191.646 87.7529 191.404 87.9924 191.404 88.2319C191.646 88.2319 191.646 88.4714 191.646 88.7109Z" fill="#FFB164"/>
<path d="M184.622 88.7117C184.622 88.9512 184.379 89.1907 184.137 89.4302C184.137 89.4302 184.137 89.4302 184.137 89.1907C183.895 89.6697 183.653 89.9092 183.411 90.1487C183.168 90.3882 183.168 90.6277 183.168 90.6277C183.168 90.8672 183.411 91.1067 183.411 91.1067C183.653 91.1067 183.895 91.3462 183.895 91.3462H184.137C184.379 91.3462 184.379 91.1067 184.379 91.1067C184.864 90.6277 185.348 89.9092 185.591 89.1907C185.591 88.9512 185.591 88.7117 185.591 88.4722C185.591 88.2327 185.348 87.9932 185.106 87.9932C184.864 87.9932 184.622 87.9932 184.379 87.9932C184.864 88.2327 184.622 88.4722 184.622 88.7117Z" fill="#FFB164"/>
<path d="M178.082 91.3445C178.082 91.105 178.324 90.8655 178.324 90.626V90.3865V90.147C178.324 90.147 178.324 89.9075 178.082 89.9075L177.84 89.668H177.598C177.356 89.668 177.356 89.668 177.113 89.668H176.871L176.629 89.9075C176.629 90.147 176.387 90.3865 176.387 90.626V90.8655V91.105C176.387 91.105 176.387 91.3445 176.629 91.3445L176.871 91.584H177.113C177.356 91.584 177.356 91.584 177.598 91.584H177.84C177.84 91.584 177.84 91.584 178.082 91.3445Z" fill="#FFB164"/>
<path opacity="0.24" d="M183.41 103.081C185.348 103.56 187.286 103.8 189.223 103.321C189.95 103.081 190.676 102.602 190.434 101.884C190.192 101.405 189.708 101.165 188.981 100.926C187.77 100.686 186.559 100.447 185.348 99.7284C183.41 98.5309 179.777 95.4173 177.355 97.8124C175.175 100.207 181.957 102.602 183.41 103.081Z" fill="white"/>
<path d="M35.9065 51.8252C35.9065 51.8252 13.6235 60.2078 26.4604 87.99C39.2974 115.533 61.3382 103.079 61.3382 103.079L35.9065 51.8252Z" fill="#E24C24"/>
<path d="M60.7825 103.175C66.4647 100.514 65.5481 86.8242 58.735 72.5979C51.922 58.3716 41.7926 48.996 36.1104 51.6568C30.4281 54.3176 31.3448 68.0073 38.1578 82.2336C44.9709 96.4599 55.1003 105.836 60.7825 103.175Z" fill="#FF5A27"/>
<path d="M59.7461 101.011C64.703 98.6902 63.6624 86.245 57.4219 73.2142C51.1814 60.1834 42.1041 51.5015 37.1473 53.8226C32.1904 56.1437 33.231 68.5889 39.4715 81.6197C45.712 94.6505 54.7893 103.332 59.7461 101.011Z" fill="#FF8B78"/>
<path d="M47.5322 66.9149C46.5634 66.1964 45.3524 65.4779 44.3835 65.9569C43.8991 66.1964 43.6569 66.6754 43.1725 66.6754C42.6881 66.6754 42.2037 66.6754 41.7193 66.6754C41.4771 66.9149 41.2349 67.1544 40.9927 67.3939C40.0238 69.3099 41.2349 71.4654 42.2037 73.3814C45.1102 78.1715 47.7744 82.9615 50.6809 87.7515C51.4075 88.9491 52.3764 90.3861 53.8296 90.3861C55.0406 90.3861 56.0095 89.4281 56.4939 88.2306C56.9783 87.033 56.7361 85.8355 56.4939 84.638C55.7673 81.0455 54.7984 77.453 53.103 74.3394C51.4075 71.9444 49.9543 69.0704 47.5322 66.9149Z" fill="#FF5A27"/>
<path d="M39.0552 58.7708C39.5396 59.7288 40.024 60.4473 40.7506 61.4053C40.7506 61.6448 40.9928 61.6448 41.235 61.6448C41.4772 61.6448 41.7194 61.6448 41.7194 61.4053C41.9616 61.1658 41.9616 60.6868 41.7194 60.2078C41.4772 59.9683 41.4772 59.7288 41.235 59.4893C41.235 59.4893 41.235 59.4893 41.235 59.7288C40.9928 59.2498 40.5084 58.5313 40.2662 58.0522C40.024 57.5732 39.5396 57.5732 39.2974 57.5732C39.0552 57.8127 38.813 58.2917 39.0552 58.7708Z" fill="#FFB164"/>
<path d="M42.9305 59.4902C43.4149 60.4483 44.8682 59.7297 44.3837 58.7717C43.8993 57.8137 42.4461 58.5322 42.9305 59.4902Z" fill="#FFB164"/>
<path d="M42.9307 59.4895C43.1729 59.9685 43.4151 60.687 43.6573 61.166C43.6573 61.4055 43.8995 61.4055 44.1417 61.645C44.3839 61.645 44.6261 61.645 44.8683 61.645C45.1105 61.645 45.1105 61.4055 45.3527 61.166C45.3527 60.9265 45.3527 60.687 45.3527 60.4475C45.1105 59.9685 44.8683 59.25 44.6261 58.771C44.6261 58.5315 44.3839 58.5315 44.1417 58.292C43.8995 58.292 43.6573 58.292 43.4151 58.292C43.1729 58.292 43.1729 58.5315 42.9307 58.771C42.9307 59.0105 42.9307 59.25 42.9307 59.4895Z" fill="#FFB164"/>
<path d="M48.7437 62.6042C48.7437 62.6042 48.5015 62.8437 48.5015 63.0832C48.5015 63.3227 48.2593 63.3227 48.2593 63.5622C48.2593 63.8017 48.0171 64.2807 48.2593 64.5202C48.2593 64.5202 48.2593 64.7597 48.5015 64.7597L48.7437 64.9992H48.9859H49.2281H49.4703C49.7125 64.9992 49.7125 64.7597 49.7125 64.7597C49.7125 64.5202 49.9547 64.2807 49.9547 64.2807C49.9547 64.2807 49.9547 64.2807 49.9547 64.0412V64.2807V64.0412V64.2807V64.0412V64.2807C49.9547 64.2807 49.9547 64.0412 50.1969 64.0412C50.1969 64.0412 50.1969 64.0412 49.9547 64.2807L50.1969 64.0412V63.8017V63.5622C50.1969 63.5622 50.1969 63.3227 49.9547 63.3227C49.7125 63.0832 49.7125 63.0832 49.4703 63.0832C49.2281 62.3647 48.9859 62.3647 48.7437 62.6042Z" fill="#FFB164"/>
<path d="M51.8922 67.1536C51.65 67.3931 51.4078 67.3931 51.1655 67.6326L50.9233 67.8721V68.1116V68.3511C50.9233 68.3511 50.9233 68.5906 51.1655 68.5906C51.4078 68.8301 51.4078 68.8301 51.65 68.8301H51.8922C52.1344 68.8301 52.1344 68.8301 52.3766 68.5906C52.6188 68.3511 52.861 68.3511 53.1032 68.1116L53.3454 67.8721V67.6326V67.3931C53.3454 67.3931 53.3454 67.1536 53.1032 67.1536C52.861 66.9141 52.861 66.9141 52.6188 66.9141H52.3766C52.1344 66.9141 51.8922 66.9141 51.8922 67.1536Z" fill="#FFB164"/>
<path d="M55.5252 77.2126C55.7674 77.4522 56.2518 77.4522 56.494 77.6917H56.7362H56.9784C56.9784 77.6917 57.2206 77.6916 57.2206 77.4521L57.4628 77.2126V76.9731C57.4628 76.7336 57.4628 76.7336 57.4628 76.4941C57.4628 76.4941 57.4628 76.4941 57.4628 76.2546L57.2206 76.0151C56.9784 75.7756 56.494 75.7756 56.2518 75.5361H56.0096H55.7674C55.7674 75.5361 55.5252 75.5361 55.5252 75.7756L55.283 76.0151V76.2546C55.283 76.4941 55.283 76.4941 55.283 76.7336C55.283 76.7336 55.283 76.7336 55.283 76.9731C55.283 76.9731 55.5252 77.2126 55.5252 77.2126Z" fill="#FFB164"/>
<path d="M57.7051 84.1584C57.9473 84.6375 58.4317 84.877 58.6739 85.356C58.9161 85.5955 58.9161 85.5955 59.1583 85.5955C59.4005 85.5955 59.6427 85.5955 59.6427 85.356C59.8849 85.1165 59.885 85.1165 59.885 84.877C59.885 84.6375 59.8849 84.398 59.6427 84.398C59.4005 83.919 58.9161 83.6794 58.6739 83.2004C58.4317 82.9609 58.4317 82.9609 58.1895 82.9609C57.9473 82.9609 57.7051 82.9609 57.7051 83.2004C57.4629 83.4399 57.4629 83.4399 57.4629 83.6795C57.4629 83.919 57.7051 84.1584 57.7051 84.1584Z" fill="#FFB164"/>
<path d="M58.1896 90.1458C58.4318 90.8643 58.9162 91.5828 59.4006 92.3013C59.4006 92.5408 59.6428 92.5408 59.8851 92.5408C60.1273 92.5408 60.3695 92.5408 60.3695 92.3013C60.6117 92.0618 60.6117 92.0618 60.6117 91.8223C60.6117 91.5828 60.6117 91.3433 60.3695 91.3433C60.3695 91.1038 60.1273 91.1038 60.1273 90.8643C60.1273 90.8643 60.1273 90.8643 60.1273 91.1038C59.8851 90.6248 59.4006 90.1458 59.4006 89.4272C59.1584 88.9482 58.674 88.9482 58.4318 88.9482C57.9474 89.1877 57.9474 89.6667 58.1896 90.1458Z" fill="#FFB164"/>
<path d="M56.0103 94.458C56.2525 95.1765 56.4947 95.895 56.4947 96.853C56.4947 97.0925 56.7369 97.332 56.7369 97.332C56.9791 97.332 57.2213 97.5715 57.2213 97.5715C57.7057 97.5715 57.9479 97.0925 57.9479 96.6135C57.7057 95.895 57.4635 95.1765 57.4635 94.2185C57.4635 93.979 57.2213 93.7395 57.2213 93.7395C56.9791 93.7395 56.7369 93.5 56.7369 93.5C56.2525 93.7395 56.0103 93.979 56.0103 94.458Z" fill="#FFB164"/>
<path d="M51.8921 92.5415C51.6499 93.0205 51.6499 93.4995 51.4077 94.218V94.4575V94.697C51.4077 94.9365 51.6499 94.9365 51.8921 95.176C52.1343 95.176 52.3765 95.176 52.6187 95.176C52.861 95.176 52.861 94.9365 53.1032 94.697C53.3454 94.218 53.3454 93.739 53.5876 93.0205V92.781V92.5415C53.5876 92.302 53.3454 92.302 53.1032 92.0625C52.861 92.0625 52.6187 92.0625 52.3765 92.0625C52.1343 92.0625 52.1343 92.302 51.8921 92.5415Z" fill="#FFB164"/>
<path d="M47.2906 88.2288L47.0484 88.4683C47.0484 88.4683 47.0484 88.4683 47.2906 88.2288C47.0484 88.4683 47.0484 88.4683 46.8062 88.7078C46.8062 88.7078 46.8062 88.7078 47.0484 88.7078C47.0484 88.7078 47.0484 88.7078 46.8062 88.7078C46.8062 88.7078 46.564 88.7078 46.564 88.9473L46.3218 89.1868V89.4263V89.6658C46.3218 89.9053 46.564 89.9053 46.8062 90.1448C47.0484 90.1448 47.2906 90.1448 47.5328 90.1448C47.775 90.1448 48.0172 89.9053 48.0172 89.6658C48.2594 89.4263 48.2594 89.4263 48.5016 89.1868C48.5016 88.9473 48.7438 88.7078 48.7438 88.7078C48.7438 88.7078 48.7438 88.4683 48.5016 88.4683L48.2594 88.2288C48.0172 88.2288 47.775 87.9893 47.775 87.9893H47.5328C47.5328 87.9893 47.2906 88.2288 47.2906 88.2288Z" fill="#FFB164"/>
<path d="M42.4461 81.044C42.2039 81.2835 42.2039 81.2835 41.9617 81.2835C42.2039 81.2835 42.2039 81.2835 42.4461 81.044C41.9617 81.2835 41.7195 81.523 41.7195 81.523C41.7195 81.523 41.4773 81.523 41.4773 81.7625L41.2351 82.0021C41.2351 82.2416 41.2351 82.4811 41.2351 82.7206C41.2351 82.9601 41.4773 82.9601 41.7195 83.1996H41.9617C42.2039 83.1996 42.2039 83.1996 42.4461 83.1996C42.6883 83.1996 42.9306 82.9601 42.9306 82.9601C43.1728 82.7206 43.415 82.7206 43.6572 82.4811C43.8994 82.2416 43.8994 82.2416 43.8994 82.0021V81.7625C43.8994 81.7625 43.8994 81.523 43.6572 81.523C43.415 81.2835 43.415 81.2835 43.1728 81.2835C42.9306 80.8045 42.6883 80.8045 42.4461 81.044Z" fill="#FFB164"/>
<path d="M40.0245 75.2958H39.7823C39.7823 75.2958 40.0245 75.2958 40.0245 75.2958C39.7823 75.2958 39.7823 75.2958 39.5401 75.2958C39.7823 75.2958 39.7823 75.2958 40.0245 75.2958C39.7823 75.2958 39.5401 75.2958 39.5401 75.2958H39.7823H39.5401H39.2979H39.0557C38.8135 75.2958 38.8135 75.5353 38.5713 75.7748C38.5713 76.0143 38.5713 76.2538 38.5713 76.4933C38.5713 76.4933 38.5713 76.4933 38.5713 76.7328L38.8135 76.9723C39.0557 76.9723 39.0557 76.9723 39.2979 77.2118H39.5401C39.7823 77.2118 39.7823 77.2118 40.0245 77.2118C40.2667 77.2118 40.2667 77.2118 40.5089 76.9723C40.7512 76.9723 40.7511 76.7328 40.9934 76.4933C40.9934 76.2538 40.9934 76.0143 40.9934 75.7748C40.9934 75.5353 40.7512 75.5353 40.5089 75.2958C40.5089 75.0563 40.2667 75.0563 40.0245 75.2958Z" fill="#FFB164"/>
<path d="M39.5398 68.1113C39.2976 68.1113 39.0554 67.8718 38.8132 67.8718H39.0554C38.571 67.6323 38.3288 67.3928 38.0865 67.1533C37.8443 67.1533 37.6021 67.1533 37.3599 67.1533C37.1177 67.1533 36.8755 67.3928 36.8755 67.3928C36.8755 67.6323 36.6333 67.8718 36.6333 67.8718V68.1113C36.6333 68.3508 36.8755 68.3508 36.8755 68.3508C37.3599 68.8298 38.0865 69.3088 38.8132 69.5483C39.0554 69.5483 39.2976 69.5483 39.5398 69.5483C39.782 69.5483 39.782 69.3088 40.0242 69.0693C40.0242 68.8298 40.0242 68.5903 40.0242 68.3508C40.0242 68.3508 39.782 68.3508 39.5398 68.1113Z" fill="#FFB164"/>
<path d="M36.3914 61.8845C36.6336 61.8845 36.8758 62.124 37.118 62.124H37.3602H37.6024C37.6024 62.124 37.8446 62.124 37.8446 61.8845L38.0868 61.645V61.4055C38.0868 61.166 38.0868 61.166 38.0868 60.9265C38.0868 60.9265 38.0868 60.9265 38.0868 60.687L37.8446 60.4475C37.6024 60.4475 37.3602 60.208 37.118 60.208H36.8758H36.6336C36.6336 60.208 36.3914 60.208 36.3914 60.4475L36.1492 60.687V60.9265C36.1492 61.166 36.1492 61.166 36.1492 61.4055C36.1492 61.4055 36.1492 61.4055 36.1492 61.645C36.1492 61.8845 36.1492 61.8845 36.3914 61.8845Z" fill="#FFB164"/>
<path opacity="0.24" d="M25.0073 68.112C24.7651 70.028 24.5229 72.1836 25.2496 73.8601C25.4918 74.5786 26.2184 75.2971 26.7028 75.0576C27.1872 74.8181 27.4294 74.0996 27.4294 73.6206C27.6716 72.4231 27.6716 70.986 28.3982 70.028C29.3671 68.112 32.2735 64.28 29.8515 62.1245C27.1872 59.9689 25.2495 66.675 25.0073 68.112Z" fill="white"/>
<path d="M51.651 76.4945C54.7997 74.5785 59.6438 75.297 61.8237 78.171C64.488 74.339 70.5431 73.6205 74.4184 76.0155C78.536 78.4106 80.7158 83.2006 80.7158 87.7511C87.2554 85.5956 94.2794 90.3857 98.1547 96.1337C98.8813 97.0917 99.3657 98.0497 100.335 98.7682C101.546 99.4867 102.999 99.7262 104.452 99.7262C116.078 101.163 126.251 110.743 128.431 122.239C129.157 125.832 128.915 129.664 126.977 132.538C125.282 134.933 122.618 136.37 120.196 137.568C117.289 139.005 114.383 140.681 110.992 140.921C101.546 141.639 95.2482 131.341 86.771 127.508C79.747 124.395 71.512 125.592 64.488 122.479C58.9172 120.084 53.5887 115.294 48.7445 111.701C44.627 108.588 41.9627 105.474 40.5095 100.684C38.5719 94.6967 39.5407 83.2006 48.9867 86.0746C47.5335 82.7216 48.5023 78.4106 51.651 76.4945Z" fill="#89E269"/>
<path d="M277.145 70.5098H271.332C270.363 91.8254 225.07 103.561 142.236 103.561C62.0652 103.561 14.5927 88.2329 13.1394 70.5098H7.32647C7.32647 70.5098 5.14661 97.813 20.6478 130.864C43.8997 180.441 76.1132 189.542 76.1132 189.542L141.751 190.74L207.389 189.542C207.389 189.542 239.36 180.681 262.612 131.104C277.871 97.813 277.145 70.5098 277.145 70.5098Z" fill="#EDCEB9"/>
<path d="M208.359 200.321V188.825L142.236 180.682L76.1138 189.543V200.321C76.1138 200.321 75.6294 205.59 95.7326 212.296C123.102 221.636 167.91 218.523 189.224 212.296C209.327 206.308 208.359 200.321 208.359 200.321Z" fill="#EDCEB9"/>
<path d="M188.982 212.294C209.327 206.307 208.601 200.319 208.601 200.319V188.823L178.325 184.991C178.325 184.991 178.325 184.991 178.083 184.991C174.692 187.147 171.301 188.823 171.059 193.134C170.817 197.685 173.239 203.193 171.301 207.504C170.09 210.139 166.941 211.097 164.035 211.815C141.752 216.845 118.984 213.731 97.1858 208.462C90.404 206.786 83.38 204.87 77.8093 201.038C77.3249 200.798 76.8404 200.319 76.1138 200.08C76.1138 200.08 75.6294 205.349 95.7326 212.055C122.86 221.635 167.668 218.522 188.982 212.294Z" fill="#EABFAC"/>
<path opacity="0.38" d="M39.7818 112.662C38.3285 116.254 39.5395 120.326 40.9928 124.158C44.8681 134.217 50.1966 143.558 56.2518 152.659C60.6115 159.125 65.9401 165.831 73.6907 167.268C76.355 167.747 79.2614 167.508 81.6835 166.31C84.1056 165.113 85.801 162.478 86.0432 159.844C86.0432 156.97 84.59 154.575 83.1368 152.18C79.5037 146.432 76.5972 140.204 74.9017 133.738C73.9329 129.427 73.4485 124.637 71.2686 120.805C67.1511 113.62 44.1415 100.926 39.7818 112.662Z" fill="white"/>
<path opacity="0.38" d="M86.2858 193.853C85.5591 193.853 85.0747 193.853 84.3481 194.332C83.1371 195.051 83.1371 196.727 83.6215 197.925C84.3481 199.122 85.5591 199.841 86.528 200.32C91.3721 202.715 96.7006 204.152 102.271 205.11C104.451 205.589 106.631 205.828 108.569 204.87C110.506 204.152 111.96 201.757 110.991 199.841C110.022 198.164 107.6 197.685 105.662 197.685C99.3649 196.967 92.5831 193.614 86.2858 193.853Z" fill="white"/>
<path d="M276.903 70.5098H271.09C270.605 82.4849 256.073 91.3464 228.946 97.0945C227.493 106.914 224.344 118.41 218.046 130.625C198.912 166.311 180.989 176.37 159.19 183.555C132.063 192.656 100.334 190.5 100.334 190.5C100.334 190.5 132.305 197.685 157.737 197.685C183.169 197.685 206.905 189.542 206.905 189.542C206.905 189.542 238.876 180.681 262.128 131.104C277.629 97.813 276.903 70.5098 276.903 70.5098Z" fill="#EABFAC"/>
<path d="M277.15 68.5938H271.337C271.337 69.3123 271.337 69.7913 271.337 70.5098C270.61 92.065 225.317 103.801 142.24 103.801C61.8278 103.801 14.3553 88.2329 13.1443 70.5098C13.1443 69.7913 13.3865 69.3123 13.3865 68.5938H7.57351C7.57351 69.3123 7.3313 70.0308 7.3313 70.7493C8.54233 90.3884 58.1947 107.872 142.24 107.872C229.193 107.872 276.423 94.6995 277.15 70.5098C277.15 69.7913 277.15 69.0728 277.15 68.5938Z" fill="#FFDFCA"/>
<path d="M31.5467 46.5581L30.3357 55.8987C30.3357 55.8987 33.9688 69.7898 54.0719 74.8193C76.5972 80.3279 93.7938 75.2983 95.0049 61.6467C95.2471 59.4912 92.825 53.2642 92.825 53.2642L31.3045 46.0791L31.5467 46.5581Z" fill="#59B24F"/>
<path d="M93.1046 57.2774C94.7917 48.708 82.4281 39.1178 65.4897 35.857C48.5512 32.5962 33.4522 36.8997 31.7651 45.4691C30.0779 54.0385 42.4415 63.6287 59.38 66.8895C76.3184 70.1503 91.4174 65.8468 93.1046 57.2774Z" fill="#84D17D"/>
<path d="M91.1297 55.8977C90.6453 62.6037 77.8083 67.1543 62.0649 64.7592C46.3215 62.3642 33.2423 53.2631 33.4845 46.5571C33.9689 39.851 48.0169 34.8215 63.7604 37.2165C79.2616 39.6115 91.3719 49.1916 91.1297 55.8977Z" fill="#B0EDA9"/>
<path d="M44.8685 46.5585C44.3841 46.0795 43.8997 45.6005 43.8997 44.882C43.8997 43.6845 45.3529 43.445 46.3217 43.445C48.5016 43.6845 50.9237 44.1635 52.8613 45.1215C52.1347 44.1635 51.6503 43.2055 51.4081 42.2475C51.4081 42.008 51.1659 41.7684 51.4081 41.5289C51.6503 41.0499 52.3769 41.2894 52.8613 41.5289C55.2834 42.7265 57.4632 44.403 59.4009 46.319C58.6743 45.361 58.4321 44.1635 58.4321 43.2055C58.4321 42.0079 58.9165 41.0499 59.8853 40.5709C61.0963 40.0919 62.7918 40.8104 63.7606 42.0079C64.7294 43.2055 64.9716 44.6425 65.2138 46.0795C67.1515 44.6425 69.8158 44.1635 72.2378 44.882C72.7223 45.1215 73.4489 45.361 73.6911 45.84C74.1755 46.798 73.2067 47.5165 72.48 47.9955C75.3865 47.5165 78.7774 48.714 80.9573 51.109C81.1995 51.3485 81.4417 51.8275 81.4417 52.067C81.4417 52.3065 81.1995 52.546 81.1995 52.546C79.9885 53.7435 78.5352 54.2226 76.8398 54.4621C75.1443 54.7016 73.4489 54.2226 71.7534 53.983C73.4489 54.7016 74.9021 55.6596 76.3554 56.8571C76.5976 57.0966 76.5976 57.0966 76.8398 57.3361C76.8398 57.5756 76.8398 57.5756 76.5976 57.8151C75.3865 59.4916 72.9645 59.7311 71.0268 58.7731C69.0892 58.0546 67.3937 56.3781 65.9405 54.9411C66.6671 56.1386 67.1515 57.3361 66.9093 58.7731C66.6671 59.9706 65.2138 60.9286 64.0028 60.4496C63.5184 60.2101 63.034 59.7311 62.5496 59.2521C61.3385 57.8151 60.6119 56.1386 60.1275 54.4621C59.8853 56.6176 57.9476 58.2941 55.7678 58.0546C55.2834 58.0546 54.5567 57.8151 54.3145 57.3361C53.8301 56.8571 53.8301 55.8991 54.3145 55.4201C54.5567 54.9411 55.0412 54.4621 55.7678 53.983C54.0723 54.7016 52.1347 55.4201 50.6814 54.2226C50.197 53.7435 49.9548 53.2645 50.197 52.7855C50.4392 52.546 50.6814 52.3065 50.9237 52.067C51.6503 51.588 53.8301 51.3485 54.0723 50.63C50.197 49.9115 47.5328 48.714 44.8685 46.5585Z" fill="#C1FFB8"/>
<path d="M137.877 79.1279C141.752 77.4514 146.596 77.4514 150.229 79.3674C150.956 79.8464 152.167 80.3254 152.651 79.6069C152.894 79.3674 152.894 78.8884 152.894 78.4094C152.167 73.8589 148.049 70.2664 143.205 70.0269C139.814 69.7873 136.424 71.4639 133.275 73.1404C131.095 74.3379 128.915 75.7749 126.977 77.2119C124.313 79.1279 121.649 81.2835 120.438 84.397C119.469 86.5525 118.985 91.3425 122.133 92.061C125.282 92.7796 126.735 88.229 128.431 86.313C131.095 83.1995 134.244 80.5649 137.877 79.1279Z" fill="#0A0B0C"/>
<path d="M146.839 69.5489C141.752 68.8304 136.666 70.2674 132.064 72.6624C127.704 75.0574 123.829 78.4104 119.954 81.7635C115.836 85.356 116.078 92.3016 118.5 96.6126C120.68 100.684 125.282 103.319 129.884 103.798C134.486 104.277 138.846 102.361 142.963 100.445C147.323 98.2891 151.683 95.8941 154.589 92.0621C157.738 88.23 159.191 83.2005 157.738 78.65C156.527 73.6204 151.925 70.2674 146.839 69.5489ZM148.534 82.7215C147.323 85.1165 144.901 87.0325 142.479 88.4695C140.057 89.9066 137.635 90.8646 135.213 91.8226C133.033 92.5411 130.853 93.2596 128.673 93.0201C126.493 92.7806 124.071 91.8226 123.102 89.9066C118.5 82.482 130.369 76.7339 135.455 74.5784C138.361 73.3809 141.51 72.9019 144.417 73.6204C145.628 73.8599 146.596 74.3389 147.565 75.0574C149.745 76.9734 149.987 80.3265 148.534 82.7215Z" fill="#36383F"/>
<path d="M78.0513 30.7539C81.9266 29.0774 86.7708 29.0774 90.4039 30.9934C91.1305 31.4724 92.3415 31.9514 92.8259 31.2329C93.0682 30.9934 93.0681 30.5144 93.0681 30.0354C92.3415 25.4849 88.224 21.8923 83.3799 21.6528C79.989 21.4133 76.5981 23.0898 73.4494 24.7664C71.2696 25.9639 69.0897 27.4009 67.152 28.8379C64.4878 30.7539 61.8235 32.9094 60.6125 36.023C59.6436 38.1785 59.1592 42.9685 62.3079 43.687C65.4566 44.4055 66.9098 39.855 68.6053 37.939C71.2696 34.8254 74.4182 32.1909 78.0513 30.7539Z" fill="#0A0B0C"/>
<path d="M87.0134 20.9327C81.927 20.2142 76.8407 21.6512 72.2388 24.0462C67.879 26.4412 64.0037 29.7942 60.1284 33.1473C56.0109 36.7398 56.2531 43.6854 58.6752 47.9964C60.8551 52.0679 65.457 54.7025 70.0589 55.1815C74.6608 55.6605 79.0205 53.7445 83.1381 51.8284C87.4978 49.6729 91.8575 47.2779 94.764 43.4459C97.9127 39.6138 99.3659 34.5843 97.9127 30.0337C96.7016 25.0042 92.0997 21.6512 87.0134 20.9327ZM88.7088 34.3448C87.4978 36.7398 85.0757 38.4163 82.6536 39.8533C80.2316 41.2903 77.8095 42.2484 75.3874 43.2064C73.2076 43.9249 71.0277 44.6434 68.8479 44.4039C66.668 44.1644 64.2459 43.2064 63.2771 41.2903C58.6752 33.8658 70.5433 28.1177 75.6297 25.9622C78.5361 24.7647 81.6848 24.2857 84.5913 25.0042C85.8023 25.2437 86.7712 25.7227 87.74 26.4412C89.9198 28.3572 90.162 31.7103 88.7088 34.3448Z" fill="#36383F"/>
<path d="M250.26 45.5964C253.409 48.4704 255.589 52.5419 255.589 56.6135C255.589 57.5715 255.589 58.769 256.557 59.0085C257.042 59.0085 257.526 58.769 257.768 58.5295C261.644 55.895 263.097 50.3864 261.159 46.3149C259.706 43.2014 256.8 40.8063 253.893 38.8903C251.713 37.4533 249.533 36.2558 247.354 35.0583C244.447 33.6213 241.298 32.1843 237.907 32.4238C235.485 32.6633 230.883 34.3398 231.61 37.4533C232.337 40.5668 237.181 39.8483 239.603 40.5668C243.72 41.2853 247.353 42.9619 250.26 45.5964Z" fill="#0A0B0C"/>
<path d="M263.097 49.1891C261.643 44.399 258.01 40.3275 253.893 37.4535C249.775 34.5794 244.931 32.6634 240.329 30.7474C235.485 28.8314 228.945 31.9449 226.281 36.0165C223.617 39.8485 223.132 44.878 224.828 49.1891C226.523 53.5001 230.156 56.6136 233.79 59.4877C237.665 62.3617 241.782 64.9962 246.626 66.1937C251.228 67.1517 256.799 66.4332 260.19 63.3197C263.581 59.7272 264.55 54.2186 263.097 49.1891ZM251.713 56.6136C248.806 56.6136 246.142 55.1766 243.962 53.7396C241.782 52.3026 239.602 50.6261 237.665 48.7101C235.969 47.273 234.516 45.5965 233.79 43.441C233.063 41.2855 232.821 38.8905 234.032 36.9745C238.876 29.7894 249.291 37.4535 253.408 41.2855C255.83 43.441 257.526 45.836 258.252 48.9496C258.495 50.1471 258.495 51.3446 258.252 52.3026C257.526 55.1766 254.619 56.8531 251.713 56.6136Z" fill="#36383F"/>
<path d="M157.01 62.8421C157.01 62.8421 167.183 87.7503 196.49 80.5652C225.797 73.3801 237.665 55.4175 240.33 52.304C245.9 45.5979 245.658 35.7783 245.658 35.7783L157.01 62.8421Z" fill="#FFECD7"/>
<path d="M170.332 58.7715C170.089 58.7715 177.84 75.7761 191.646 73.1416C219.015 67.8726 214.655 45.3594 214.655 45.3594L170.332 58.7715Z" fill="#FFDC31"/>
<path opacity="0.52" d="M231.611 48.4719C229.915 54.22 224.102 57.573 219.985 61.6446C219.258 62.3631 218.289 63.5606 218.774 64.5186C219.016 65.2371 219.985 65.7161 220.954 65.4766C221.68 65.4766 222.407 64.9976 223.133 64.5186C226.524 62.1236 229.431 59.2495 232.095 56.136C235.002 52.783 238.15 49.1904 238.635 44.6399C238.635 44.1609 238.635 43.6819 238.635 43.2029C237.908 41.2869 235.244 42.2449 234.033 43.2029C232.579 44.6399 232.095 46.5559 231.611 48.4719Z" fill="white"/>
</svg>
