<svg width="300" height="125" viewBox="0 0 300 125" fill="none" xmlns="http://www.w3.org/2000/svg">
<g clip-path="url(#clip0_1337_3302)">
<path d="M1.74825 94.0922C2.7972 96.5591 4.1958 98.6735 5.94406 100.083C13.986 107.131 29.3706 102.198 39.1608 103.96C49.3007 105.722 58.3916 112.065 68.1818 115.237C69.9301 115.941 71.6783 116.294 73.0769 116.646C82.1678 118.408 89.1608 124.047 98.951 123.694C110.49 122.99 120.28 118.761 131.469 116.294C141.608 113.827 151.049 112.77 161.538 112.417C172.028 112.417 179.72 114.532 189.51 116.646C191.958 116.999 194.056 117.703 196.503 118.056C213.636 121.58 231.469 124.047 248.252 117.703C250 116.999 251.748 116.294 253.846 115.941C267.832 111.36 282.867 107.131 291.958 94.4446C294.056 91.6254 295.455 88.4537 296.853 84.9297C299.301 78.234 300.35 70.1286 300.35 63.7853C300.35 56.0324 297.902 51.4511 294.056 48.2794C289.86 45.1078 283.916 43.6982 276.573 42.9933C270.629 42.2885 265.035 44.403 259.441 44.7554C255.944 45.1078 252.448 45.1078 248.951 45.1078C233.217 45.1078 217.133 43.6982 201.748 40.1741C192.308 38.0597 183.566 35.2404 175.175 31.7164C154.196 22.9062 131.119 17.2677 108.741 17.6201C98.2517 17.6201 87.0629 17.6201 76.9231 19.0297C71.6783 19.7345 66.7832 21.4966 61.8881 22.9062C59.0909 23.611 56.6434 24.3158 53.8462 24.6682C42.6573 26.4303 33.2168 26.7827 24.1259 34.1832C18.8811 38.4121 12.5874 45.1078 9.44056 50.7463C3.14685 60.6136 -3.14685 81.4056 1.74825 94.0922Z" fill="#B0502E"/>
<path d="M195.105 108.541C195.105 111.712 195.455 115.236 196.504 118.408C213.637 121.932 231.469 124.399 248.252 118.056C250 117.351 251.748 116.646 253.846 116.294C257.343 113.474 260.839 109.95 263.287 106.074C268.881 97.2638 269.93 86.3392 272.028 75.767C272.727 72.2429 273.776 68.3665 273.077 64.8424C272.028 58.8515 266.783 54.9751 261.539 51.8034C257.343 49.3366 253.147 47.2221 248.602 45.4601C237.413 40.8788 225.175 38.0596 212.937 38.0596C208.741 38.0596 204.546 38.412 201.049 40.5264C200.7 40.5264 200.35 40.8788 200.35 41.2312C195.105 45.1077 194.406 52.5082 194.406 59.2039C193.707 75.4146 194.056 91.9777 195.105 108.541Z" fill="#C75A34"/>
<path d="M46.8528 72.9484C71.678 74.358 94.4052 88.4542 119.23 87.0446C134.615 86.3398 149.3 79.2917 164.685 79.2917C181.468 79.2917 196.853 86.6922 213.286 88.1018C238.461 90.2163 261.888 78.2345 283.216 66.6051C289.51 63.081 296.503 58.8521 296.853 52.5088C296.853 47.9275 293.356 43.6987 288.461 41.2318C283.916 38.765 278.321 38.0602 273.077 37.003C233.216 28.8976 195.804 13.0393 155.594 4.5816C138.112 0.705133 119.58 -1.4093 101.398 1.05754C79.0206 4.22919 59.4402 14.8014 40.2094 24.6687C30.7689 29.6024 21.3283 34.8885 15.7339 42.6415C10.1395 50.7468 10.1395 62.3762 18.5311 68.0147C25.8738 73.6532 37.0626 72.596 46.8528 72.9484Z" fill="#D8774A"/>
<path d="M155.943 7.40044C138.111 3.87638 119.58 2.11435 101.398 4.58119C79.0204 7.40044 59.44 16.563 40.2092 25.7256C36.7127 27.4876 33.2162 28.8972 30.0693 30.6592C33.5658 28.5448 37.0623 26.7828 40.2092 25.0207C59.44 14.801 79.0204 4.22879 101.398 1.05713C119.58 -1.40971 138.111 0.704725 155.594 4.22879C185.314 10.5721 213.286 20.7919 242.307 29.2496C213.286 21.8491 185.314 12.6865 155.943 7.40044Z" fill="#BF8E7D"/>
<path d="M18.1817 64.1382C25.874 68.7195 37.0628 67.6623 46.853 68.0147C71.6782 69.0719 94.4054 81.7585 119.231 80.3489C134.615 79.6441 149.301 73.6532 164.685 73.3008C181.468 73.3008 196.853 79.9965 213.287 81.0537C238.461 82.8158 261.888 72.2436 283.566 62.0238C289.51 59.2046 296.154 55.3281 296.853 50.042C296.853 50.7468 297.203 51.0992 296.853 51.804C296.503 58.1473 289.51 62.7286 283.217 65.9003C261.888 77.5297 238.461 89.5115 213.287 87.397C196.853 85.9874 181.468 78.2345 164.685 78.5869C149.301 78.5869 134.615 85.635 119.231 86.3398C94.4054 87.7494 71.6782 73.6532 46.853 72.2436C37.0628 71.8912 25.874 72.9484 18.1817 67.6623C13.2866 64.1382 11.1887 58.8521 11.5383 53.2136C11.888 57.7949 13.9859 61.6714 18.1817 64.1382Z" fill="#BF8E7D"/>
<path d="M1.74805 94.0925C2.797 96.5594 4.1956 98.6738 5.94385 100.083C13.9858 107.132 29.3704 102.198 39.1606 103.96C51.0487 106.074 61.5382 114.532 73.0767 116.999C82.1676 118.761 89.1606 124.399 98.9508 124.047C110.489 123.342 120.279 119.113 131.468 116.646C141.608 114.18 151.049 113.122 161.538 112.77C172.028 112.77 179.72 114.884 189.51 116.999C208.741 120.875 229.37 125.104 248.252 118.056C263.636 112.77 281.468 109.246 291.608 95.1497C293.706 92.3305 295.105 89.1588 296.503 85.6348C271.678 110.303 234.615 121.933 200.349 115.237C182.168 111.713 162.937 107.836 144.405 111.008C125.874 114.18 107.342 119.113 88.811 116.294C72.7271 113.827 58.3914 105.37 42.3075 102.198C33.2166 100.436 23.776 100.436 14.6851 98.6738C10.4893 97.6166 5.94385 96.207 1.74805 94.0925Z" fill="#6B301C"/>
<path d="M220.28 32.4211C231.818 33.8307 243.706 35.5928 255.245 37.3548C261.888 38.412 269.58 40.174 272.727 46.1649C275.874 52.1558 272.727 60.2612 267.133 64.49C261.538 68.7189 254.545 69.7761 247.902 70.4809C240.909 71.1858 233.916 71.5382 226.923 71.5382C224.475 71.5382 222.378 71.5382 219.93 71.1858C217.832 70.8334 215.734 70.1285 213.636 69.4237C205.245 66.9569 196.853 64.1376 188.462 61.6708C185.664 60.6136 182.168 58.8516 182.517 56.0323C182.867 53.2131 186.014 52.1558 188.462 51.451C196.503 48.9842 203.846 44.0505 209.441 37.7072C211.189 35.5928 212.937 33.4783 215.385 32.7735C216.783 32.0687 218.531 32.4211 220.28 32.4211Z" fill="#C96F45"/>
<path d="M116.084 64.4894C116.783 58.1461 117.482 52.1552 118.181 45.8119C118.531 42.9926 118.881 40.1734 118.181 37.3541C117.132 32.4205 112.937 28.544 110.139 24.3151C107.342 20.0862 105.594 13.7429 109.44 9.86647C113.636 5.6376 120.629 8.10444 126.223 10.2189C145.454 17.9718 166.783 17.267 187.412 19.029C191.608 19.3814 196.153 20.0862 199.3 22.9055C202.447 25.7247 203.146 31.7156 199.3 34.1825C196.503 35.9445 193.356 34.8873 190.209 35.2397C186.014 35.9445 183.216 39.4686 180.769 42.9926C176.573 49.3359 171.328 56.3841 171.328 64.137C163.986 65.1942 156.643 60.9653 148.951 60.6129C138.112 60.2605 126.923 67.6611 116.084 64.4894Z" fill="#C96F45"/>
<path d="M106.993 65.5462C105.944 66.6035 104.196 66.9559 102.797 66.9559C86.7133 68.7179 71.6784 53.9168 55.5945 57.0885C50.0001 58.1457 44.4057 61.3174 39.1609 59.2029C36.7133 58.1457 34.9651 55.6789 33.2168 53.212C31.4686 50.3928 30.07 47.5735 28.6714 44.4019C36.7133 44.0495 44.4057 40.5254 52.4476 39.4682C62.2378 38.411 71.6784 41.2302 81.1189 44.0495C84.6154 38.7634 80.07 31.7153 80.07 25.0196C80.07 16.9142 88.8113 10.2185 96.5036 12.3329C93.7064 18.6762 98.9511 25.372 102.797 31.3629C108.042 39.8206 110.14 50.3928 108.741 60.2602C108.741 62.3746 108.392 64.1366 106.993 65.5462Z" fill="#C96F45"/>
<path d="M115.385 14.4486C121.678 14.4486 126.224 16.9155 125.175 18.6775C130.07 20.4395 130.07 22.554 132.867 24.6684C135.664 26.7828 141.608 27.84 144.406 29.9545C147.203 32.0689 145.804 34.5358 148.601 36.6502C151.748 39.117 155.594 40.1743 158.042 42.6411C163.636 47.2224 168.881 52.1561 174.475 56.7373C176.573 58.4994 183.566 60.9662 184.615 63.0806C185.664 64.8427 182.168 65.5475 182.168 66.9571C182.168 68.3667 185.664 69.7764 186.014 70.8336C180.769 71.186 176.923 67.6619 174.475 66.2523C170.28 63.7855 171.678 62.7282 169.58 59.909C168.182 57.7946 162.238 55.6801 159.441 53.9181C156.993 52.1561 155.944 50.0416 154.196 48.2796C150.35 44.0507 142.657 40.8791 138.811 37.0026C137.063 35.2406 136.014 32.7737 133.566 31.0117C129.72 28.8973 124.825 28.5449 123.776 25.3732C117.832 25.0208 116.084 21.1443 115.035 19.0299C110.14 18.3251 109.091 16.2106 111.538 14.4486C112.587 14.0962 114.336 14.4486 115.385 14.4486Z" fill="#642917"/>
<path d="M78.3215 15.1535C81.1187 13.3915 90.2096 16.2107 91.6082 17.9727C94.0557 20.792 89.1606 23.2588 95.1047 26.4305C99.9998 28.8973 108.391 29.9546 112.238 32.7738C115.384 35.2406 114.335 38.0599 117.482 40.8791C120.979 43.346 125.524 45.4604 127.972 48.2797C130.419 51.4513 130.769 53.9182 136.014 56.7374C144.056 60.9663 148.601 66.6048 149.3 71.8909C145.454 70.1288 143.356 67.3096 142.307 65.1952C133.217 64.4903 127.273 56.7374 123.776 53.5658C119.231 48.9845 113.286 45.108 106.643 41.2315C102.447 38.7647 104.545 36.2979 101.398 33.831C97.9019 31.3642 91.9578 30.307 88.811 27.4877C85.6641 24.6685 84.6152 23.2588 83.9159 20.4396C82.8669 17.2679 79.3704 15.8583 76.9229 13.0391L78.3215 15.1535Z" fill="#642917"/>
<path d="M53.8461 21.4972C58.3915 21.4972 66.7831 29.2501 70.2796 31.3645C76.2237 35.241 76.2237 40.1747 79.3706 44.4036C82.5174 48.6324 91.958 52.5089 97.2027 56.3854C102.797 60.6142 106.643 63.4335 106.643 68.3672C107.343 65.9003 95.8041 59.557 91.958 57.4426C86.3636 54.2709 75.1747 51.0993 74.1258 46.8704C68.881 46.1656 69.93 41.9367 69.2307 40.1747C67.8321 36.6506 65.0349 35.5934 60.4894 33.1266C56.2936 31.3645 41.2587 21.1448 53.8461 21.4972Z" fill="#803018"/>
<path d="M160.839 18.3248C175.524 25.3729 177.622 35.2403 192.308 42.2884C196.503 44.4028 197.203 45.4601 200 47.9269C202.448 50.3937 208.042 51.8034 210.839 54.2702C212.937 56.0322 212.937 58.4991 215.734 60.6135C217.832 62.3756 221.329 63.4328 221.678 65.1948C223.427 65.1948 227.273 64.8424 229.021 64.49C225.874 60.6135 215.734 57.4419 211.888 53.5654C207.692 49.3365 206.643 44.4028 201.049 40.174C200 39.4692 196.503 39.1168 195.105 38.0595C193.706 37.0023 194.755 35.2403 194.056 34.1831C192.308 31.7162 188.112 29.6018 184.965 27.4874C179.021 23.2585 172.727 19.0296 161.189 17.2676C159.091 17.9724 158.741 17.62 160.839 18.3248Z" fill="#7A2E17"/>
<path d="M214.685 31.7169C215.035 31.3645 213.986 30.6597 215.385 30.6597C218.532 34.5362 221.329 38.7651 224.825 42.2891C228.671 45.8132 232.518 46.8704 237.413 49.3372C241.608 51.4517 243.357 54.9757 246.504 58.1474C248.252 59.557 248.951 60.2618 250.699 60.9666C252.098 61.6714 254.196 60.6142 255.594 62.3763C255.594 62.3763 256.294 61.319 256.294 61.6714C253.147 58.1474 248.601 56.3854 245.455 52.8613C242.308 49.3372 238.462 46.518 234.266 43.3463C229.72 39.4699 222.028 24.3164 213.287 26.0784C212.238 29.6025 214.336 31.0121 216.434 33.479L214.685 31.7169Z" fill="#803018"/>
<path d="M273.426 56.0332C272.377 53.5663 266.433 50.3947 264.335 47.223C262.936 44.7562 262.237 43.699 260.139 41.5845C258.041 39.1177 255.943 38.4129 254.895 35.2412C263.985 40.5273 272.377 46.8706 273.426 56.0332Z" fill="#732F1B"/>
<path d="M31.818 33.4786C36.3634 36.6502 41.6082 41.9363 44.4054 46.1652C47.2026 50.7465 49.3005 56.0326 52.0977 60.2614C50.6991 57.7946 46.853 57.0898 44.4054 55.3278C41.9579 53.2133 40.5593 50.3941 39.1607 47.9272C36.0138 42.2887 30.769 38.7647 30.769 32.7738C31.818 32.4214 31.4683 33.1262 31.818 33.4786Z" fill="#803018"/>
</g>
<defs>
<clipPath id="clip0_1337_3302">
<rect width="300" height="124.047" fill="white"/>
</clipPath>
</defs>
</svg>
