<svg width="222" height="139" viewBox="0 0 222 139" fill="none" xmlns="http://www.w3.org/2000/svg">
    <g clip-path="url(#clip0_1337_3235)">
        <path fill-rule="evenodd" clip-rule="evenodd" d="M10.1709 92.2176C2.80103 109.578 11.772 118.668 23.7215 120.165C28.4307 120.75 35.4944 117.509 40.7216 115.486C44.9746 113.609 49.0124 111.283 52.7653 108.548C54.543 106.735 56.6386 104.267 57.0624 101.529C57.1193 100.472 56.8918 99.4177 56.4031 98.4762C56.536 98.0818 56.7307 97.7106 56.98 97.3765C57.6157 96.2067 55.8969 95.3059 56.7563 93.9957C58.1219 91.9017 56.3207 89.6439 55.4377 87.7839C55.1434 87.1873 47.5499 80.4841 47.1967 79.8407C40.8629 73.1843 39.1558 70.0492 30.4438 68.6804C19.5068 66.9491 8.8994 70.9148 10.1709 92.2176Z" fill="#5F825C"/>
        <g style="mix-blend-mode:multiply" opacity="0.4">
            <path fill-rule="evenodd" clip-rule="evenodd" d="M14.127 85.807C15.3749 85.9591 15.9871 89.3165 15.4691 93.3407C14.9511 97.365 13.5384 100.453 12.2787 100.301C11.019 100.149 10.4303 96.7918 10.9365 92.7675C11.4428 88.7433 12.8084 85.6432 14.127 85.807Z" fill="#5F825C"/>
        </g>
        <path fill-rule="evenodd" clip-rule="evenodd" d="M15.304 104.63C12.6316 105.8 12.8788 109.227 13.9619 111.45C13.9885 111.485 14.0085 111.525 14.0208 111.567C14.2751 112.079 14.5914 112.558 14.9626 112.994C16.2746 114.654 18.0851 115.855 20.1309 116.422C22.6974 117.065 25.6406 116.632 27.124 114.609C27.1603 114.546 27.2193 114.5 27.2889 114.48V114.223C26.9592 112.912 24.9343 112.655 23.8512 112.491C21.4966 112.129 20.802 110.07 20.0838 108.163C19.3657 106.256 17.6586 103.554 15.304 104.63Z" fill="#8DB54F"/>
        <g style="mix-blend-mode:multiply" opacity="0.4">
            <path fill-rule="evenodd" clip-rule="evenodd" d="M39.4857 78.8472C37.3077 80.017 39.3326 82.6608 40.3804 83.9125C42.735 86.8137 45.9608 88.896 47.9269 92.195C49.8929 95.4939 47.3264 100.606 50.4698 103.39C50.6213 103.525 50.7983 103.628 50.9903 103.694C51.1824 103.76 51.3857 103.787 51.5884 103.774C51.7911 103.761 51.9892 103.708 52.1711 103.618C52.353 103.528 52.515 103.403 52.6478 103.25C52.7855 103.029 52.8887 102.788 52.9539 102.536C53.3365 102.051 53.6349 101.505 53.8369 100.922C54.3665 99.0917 54.2964 97.1415 53.6367 95.3535C53.1423 93.7509 54.2489 92.195 53.7662 90.5923C53.5451 89.995 53.1909 89.4552 52.7302 89.013C52.2473 88.4563 51.6932 87.9647 51.082 87.5507C49.9425 86.6092 48.8904 85.5677 47.9386 84.439C46.7985 83.0963 45.5461 81.8518 44.1949 80.7189C42.7703 79.3736 40.922 78.0634 39.4857 78.8472Z" fill="#5F825C"/>
        </g>
        <path fill-rule="evenodd" clip-rule="evenodd" d="M12.1727 93.2945C10.9954 93.0956 10.2537 92.6277 6.45103 91.6918C2.64838 90.756 0.717625 90.5454 0.12898 90.1944C-0.459666 89.8435 1.18854 88.0068 1.18854 88.0068C1.18854 88.0068 4.03759 89.0948 6.3804 89.9605C8.72321 90.8262 13.0085 91.9726 13.0085 91.9726C13.0085 91.9726 13.6796 92.3469 13.4088 92.9553C13.138 93.5636 12.1727 93.2945 12.1727 93.2945Z" fill="#300D33"/>
        <path fill-rule="evenodd" clip-rule="evenodd" d="M211.912 59.4745C208.722 60.2115 206.026 62.13 202.706 62.2938C199.174 62.4693 195.642 61.007 192.192 60.3402C184.693 58.8896 177.017 58.0824 169.435 57.2518C154.131 55.5672 138.626 54.8419 123.262 53.0872C107.898 51.3324 92.6525 49.332 77.2771 49.4022C69.8698 49.4207 62.4775 50.0625 55.1793 51.3207C49.1633 52.3619 43.0414 53.5785 38.0026 57.1699C34.1245 60.0045 31.2019 63.9405 29.6203 68.4588C27.5718 73.9571 38.3911 107.625 40.0276 109.836C54.2492 128.553 78.1247 132.648 117.411 131.864C159.393 131.022 175.616 126.377 187.507 115.943C193.9 110.339 199.28 95.9266 200.245 93.1073C201.882 88.1355 203.695 83.2339 205.39 78.2855C206.461 75.1503 207.58 72.0502 208.922 69.0203C210.342 66.1739 211.523 63.2159 212.454 60.1764C212.48 60.0936 212.487 60.0056 212.472 59.92C212.457 59.8343 212.421 59.7536 212.368 59.6846C212.315 59.6156 212.245 59.5604 212.166 59.5239C212.087 59.4873 211.999 59.4703 211.912 59.4745V59.4745Z" fill="#DA840D"/>
        <path fill-rule="evenodd" clip-rule="evenodd" d="M205.554 61.7788C200.197 65.5223 192.486 65.6744 186.211 66.9027C170.718 69.9443 155.272 72.0383 139.461 71.664C123.991 71.313 108.51 69.4998 93.0992 68.2363C77.3471 66.9495 61.5596 66.0253 45.7604 66.7389C42.2701 66.8657 38.8077 67.4077 35.4473 68.3533C33.7284 68.8446 31.1619 69.5232 30.3025 71.2779C30.0905 71.7333 29.9743 72.2269 29.9611 72.7285V72.8104C29.1841 75.4074 30.0906 77.5833 30.9854 79.8879C31.1973 80.8589 31.4327 81.8298 31.6564 82.8008C31.2561 82.8008 31.1973 83.4091 31.6564 83.4208H31.7859C31.8345 83.4756 31.8943 83.5194 31.9613 83.5495C32.0283 83.5795 32.1009 83.5951 32.1744 83.5951C32.2479 83.5951 32.3206 83.5795 32.3875 83.5495C32.4545 83.5194 32.5143 83.4756 32.5629 83.4208C35.3413 83.4208 38.0962 82.9061 40.8864 82.8359C45.0775 82.7189 48.6329 84.848 52.2943 86.6028C58.8636 89.7145 65.0679 93.3527 71.7196 96.1135C74.6874 97.3474 77.7405 98.3678 80.8554 99.1668C83.9612 99.8305 87.1074 100.292 90.2737 100.547C93.6408 100.98 96.9725 101.717 100.328 102.173C104.086 102.616 107.875 102.737 111.653 102.536C126.66 102.273 141.621 100.806 156.39 98.1491C169.812 95.6456 183.233 91.8787 194.923 84.6842C199.546 81.8918 203.461 78.0815 206.366 73.5474C207.709 71.4534 208.85 69.1956 210.098 67.0431C211.017 65.4404 212.123 63.5336 211.959 61.6735C211.688 57.6259 207.202 60.6441 205.554 61.7788Z" fill="#C66720"/>
        <path opacity="0.4" fill-rule="evenodd" clip-rule="evenodd" d="M115.28 124.002C57.004 132.191 39.5566 108.876 40.0863 109.567C54.308 128.284 78.1953 132.379 117.47 131.595C159.452 130.764 176.511 125.839 188.413 115.404C194.441 110.105 201.116 90.5569 202.447 86.7549C173.285 110.596 164.962 116.983 115.28 124.002Z" fill="#C66720"/>
        <path fill-rule="evenodd" clip-rule="evenodd" d="M221.589 40.4062C220.918 36.3 214.525 35.7268 211.37 34.557C208.58 33.5275 206.661 31.0475 204.389 29.1874C201.937 27.1733 199.21 25.5151 196.289 24.2624C189.637 21.408 182.974 19.1268 176.911 15.0909C171.33 11.3591 164.478 10.8795 158.074 9.83833C154.115 9.22414 150.24 8.16042 146.525 6.66807C143.225 5.12698 139.739 4.01429 136.153 3.35743C132.456 2.8661 128.653 3.70839 124.957 3.86046C120.86 4.02424 117.092 2.69063 113.243 1.52079C110.1 0.389833 106.762 -0.107286 103.424 0.0584955C100.316 0.31586 97.5376 1.95363 94.924 3.56801C94.8584 3.60421 94.8034 3.65661 94.7642 3.72014C94.725 3.78368 94.703 3.85619 94.7003 3.93065C91.7453 5.46314 88.908 7.1711 85.9413 8.71529C83.4657 10.0721 80.8104 11.0763 78.0534 11.6984C74.6746 12.4003 71.4959 11.8387 68.1406 11.4059C62.2542 10.6455 56.6856 10.5051 51.1052 12.6459C44.4653 15.1962 39.1792 20.3903 32.5982 23.1745C26.9354 25.5141 22.0026 28.2867 18.4707 33.469C17.0006 35.644 15.9986 38.0974 15.5275 40.6752C15.0919 43.4477 15.7629 45.9629 16.3516 48.6769C17.1286 52.1864 16.434 54.994 15.4215 58.3748C14.5587 60.6041 14.6223 63.0825 15.5981 65.2652C16.5164 67.0433 18.4707 68.1898 20.1778 69.1022C21.8848 70.0147 26.2408 70.9974 26.6058 73.1265C28.1598 82.1576 38.3787 77.9228 44.3946 80.1455C47.3496 81.2569 50.081 82.9414 53.0831 84.0294C56.5325 85.2811 60.1468 86.217 63.6787 87.1645C70.7424 89.0597 77.5472 91.5865 84.4108 94.1835C87.4364 95.3534 90.2972 96.804 93.5348 97.3889C96.7723 97.9738 100.116 97.4474 103.318 97.1666C109.97 96.57 131.008 98.3365 133.798 96.921C137.412 95.1545 140.768 95.3183 144.676 95.6458C147.726 95.9032 150.363 93.6571 153.424 93.4115C156.942 93.067 160.412 92.3413 163.772 91.2473C166.769 90.0968 169.822 89.0973 172.92 88.2525C176.451 87.4687 179.536 84.9301 183.103 84.4505C190.037 83.5029 195.123 79.6425 200.492 75.162C205.366 71.1027 216.891 57.1114 217.892 54.3389C218.893 51.5664 219.634 48.4897 220.447 45.6236C220.894 44.0209 221.871 42.1141 221.589 40.4062Z" fill="#F0A508"/>
        <g opacity="0.5">
            <path opacity="0.5" fill-rule="evenodd" clip-rule="evenodd" d="M112.819 19.7819C111.842 21.057 110.665 21.4079 110.771 29.3394C110.877 37.2709 111.642 40.2657 108.569 46.2787C105.496 52.2916 99.5393 58.1291 97.432 64.5281C95.3246 70.9271 92.6639 81.4322 95.3599 85.515C98.0559 89.5977 107.875 91.6098 121.26 91.9725C134.646 92.3351 149.327 90.1592 157.58 87.609C165.833 85.0587 170.601 84.0059 172.472 81.7598C174.344 79.5137 165.008 60.3284 158.475 52.8414C151.941 45.3545 148.809 42.8744 141.439 36.6743C134.069 30.4742 130.843 28.0058 127.206 22.9989C123.568 17.992 122.626 17.723 118.8 17.7814C116.639 17.7753 114.536 18.4785 112.819 19.7819V19.7819Z" fill="#E2CAB3"/>
            <path opacity="0.5" fill-rule="evenodd" clip-rule="evenodd" d="M38.4614 70.1905C43.6533 58.2932 50.5051 52.8769 52.4241 50.1863C57.7101 42.7812 60.8417 39.5408 67.8466 38.4879C74.8515 37.4351 71.0135 37.4702 78.972 36.3588C86.9305 35.2475 93.6058 33.5278 98.986 29.3398C104.366 25.1518 107.145 21.8879 110.005 20.8702C112.866 19.8524 117.281 17.5829 114.149 20.7883C111.018 23.9936 115.197 25.2103 109.311 33.9022C103.424 42.594 100.622 47.0862 98.5268 53.7894C96.4313 60.4925 94.265 81.4092 89.4735 83.0587C84.6819 84.7082 73.2504 85.0006 62.6312 81.0817C54.3911 77.8675 46.3238 74.2323 38.4614 70.1905V70.1905Z" fill="#E2CAB3"/>
            <path opacity="0.5" fill-rule="evenodd" clip-rule="evenodd" d="M181.974 75.5366C181.974 75.5366 191.816 72.4833 197.467 67.6051C203.118 62.7269 208.769 58.1762 210.558 51.473C212.348 44.7699 214.373 43.097 212.183 41.1083C209.993 39.1196 198.279 28.5559 188.637 23.3502C178.995 18.1444 166.74 14.8571 155.838 12.576C144.936 10.2948 139.156 11.6284 133.469 11.4061C127.783 11.1839 118.777 17.6999 118.906 17.77C122.054 20.7786 125.557 23.3985 129.337 25.5729C134.446 28.2401 146.361 32.7556 152.176 36.1014C157.992 39.4471 162.607 46.8405 163.949 50.3032C165.291 53.7659 167.175 54.8422 169.094 61.4751C171.013 68.1081 176.334 78.7887 176.334 78.7887L181.974 75.5366Z" fill="#E2CAB3"/>
            <path opacity="0.5" fill-rule="evenodd" clip-rule="evenodd" d="M22.4272 35.2354C22.4272 35.2354 17.8828 47.3666 20.2374 53.2041C21.8703 57.0331 24.0947 60.5854 26.8303 63.7326C26.8303 63.7326 32.7167 69.3245 36.7313 63.5338C40.7458 57.7431 49.446 44.2198 56.3567 39.0023C63.2674 33.7848 71.8734 32.6618 78.2543 31.9014C84.6353 31.141 99.6222 28.579 103.766 25.2216C107.91 21.8642 118.906 17.7698 118.906 17.7698C114.149 15.5996 109.194 13.8877 104.108 12.6576C96.4082 10.9028 84.0937 15.5939 74.0985 13.2542C64.1033 10.9145 54.3553 16.1905 43.2888 21.8057C35.94 25.6454 28.9575 30.1404 22.4272 35.2354V35.2354Z" fill="#E2CAB3"/>
            <path opacity="0.5" fill-rule="evenodd" clip-rule="evenodd" d="M88.3555 10.3998C88.3555 10.3998 98.7039 0.701877 105.732 0.877353C114.621 1.11132 117.505 3.05325 121.755 4.38686C126.594 5.88425 128.525 6.48087 127.277 8.4111C126.029 10.3413 120.142 18.9396 120.142 18.9396C120.142 18.9396 106.015 12.0493 100.835 11.2538C96.7028 10.6548 92.531 10.3693 88.3555 10.3998V10.3998Z" fill="#E2CAB3"/>
        </g>
        <path opacity="0.4" fill-rule="evenodd" clip-rule="evenodd" d="M190.132 21.1385C187.342 19.9686 184.54 18.9977 181.797 17.6991C178.584 16.0601 175.283 14.5995 171.908 13.324C168.862 12.3955 165.737 11.7494 162.572 11.3937C155.414 10.2239 148.844 7.2876 141.981 5.1819C138.046 3.97884 133.933 3.44878 129.819 3.61432C126.24 3.84828 122.65 3.84828 119.071 3.61432C115.539 3.23997 112.431 1.61389 108.993 0.71312C104.814 -0.386527 101.341 0.71312 97.6322 2.69014C92.1578 5.50945 86.6952 8.94877 80.7616 10.7503C77.5926 11.7773 74.2761 12.2831 70.943 12.2477C67.4112 12.1307 64.0441 11.4288 60.5711 11.1949C56.7451 10.7889 52.8824 11.4875 49.4457 13.207C46.8373 14.5806 44.3793 16.2194 42.1112 18.0969C42.0994 18.3034 42.0994 18.5104 42.1112 18.7169C41.4265 20.7044 41.1816 22.8152 41.393 24.9053C41.4966 27.0381 42.0587 29.1241 43.0416 31.023C44.0245 32.9218 45.4053 34.5894 47.0911 35.9135C49.5399 37.9724 52.1064 39.5517 54.1549 42.0201C56.2033 44.4884 57.6867 47.0621 60.0413 49.0391C63.8793 52.2912 68.977 52.5486 73.8038 52.5486C76.3468 52.5486 78.878 52.4199 81.4091 52.5486C84.8833 52.9121 88.2994 53.6979 91.5809 54.8883C98.3621 56.994 105.014 59.9069 112.019 61.2756C119.024 62.6443 125.97 60.9948 132.774 59.1816C139.579 57.3683 146.29 56.1517 152.953 54.3969C158.978 52.9253 164.696 50.415 169.847 46.9802C175.345 43.0115 180.317 38.3696 184.646 33.1644C186.306 31.2459 187.883 29.2571 189.52 27.3152C190.975 25.8518 191.948 23.9832 192.31 21.9574C191.571 21.721 190.844 21.4476 190.132 21.1385V21.1385Z" fill="#E2CAB3"/>
        <path fill-rule="evenodd" clip-rule="evenodd" d="M96.1955 29.1758C95.6539 29.2928 95.1124 29.3864 94.6062 29.4565H94.4413C90.7446 30.1701 87.0833 31.0592 83.2806 30.7668C80.7141 30.5796 70.6836 30.8486 73.0382 35.4461C73.066 35.5257 73.066 35.6122 73.0382 35.6918C75.1102 37.002 79.7134 36.4639 81.2792 36.3469C82.6067 36.2567 83.9253 36.0651 85.2232 35.7737C88.9156 34.3185 92.4274 32.4462 95.6893 30.1935C95.9001 29.8766 96.0702 29.5347 96.1955 29.1758Z" fill="#C66720"/>
        <path fill-rule="evenodd" clip-rule="evenodd" d="M110.794 38.6044C111.038 36.155 110.951 33.6843 110.535 31.2578C108.963 34.9702 106.947 38.4815 104.531 41.7162C103.118 43.4826 101.247 45.0151 100.105 46.9804C99.4924 48.0333 98.6448 49.6008 99.0921 50.8877C99.7985 52.9115 101.046 52.8998 102.377 52.6307C104.661 51.2269 106.756 47.9514 107.886 46.2668C108.932 44.7064 109.782 43.025 110.418 41.2599C110.547 40.3825 110.665 39.5052 110.794 38.6044Z" fill="#C66720"/>
        <path fill-rule="evenodd" clip-rule="evenodd" d="M148.432 31.5854C145.671 30.4684 142.854 29.4961 139.991 28.6726C138.243 28.2209 136.534 27.6301 134.881 26.9061C133.613 26.1492 132.179 25.7078 130.702 25.6193C130.613 25.6134 130.523 25.6307 130.443 25.6693C130.362 25.7079 130.293 25.7665 130.242 25.8396C130.191 25.9126 130.16 25.9975 130.152 26.086C130.144 26.1745 130.159 26.2636 130.196 26.3446C130.313 26.7168 130.543 27.0438 130.855 27.2804C132.611 29.7201 134.555 32.02 136.671 34.1591C138.566 36.2882 140.203 38.5811 142.322 40.5581C145.194 43.3072 150.386 44.9801 153.33 41.1898C156.579 36.9667 152.152 33.1413 148.432 31.5854Z" fill="#C66720"/>
        <path fill-rule="evenodd" clip-rule="evenodd" d="M136.565 10.8556C135.564 8.71477 132.315 8.77326 130.161 9.27629C129.986 9.29897 129.813 9.33416 129.643 9.38157C126.661 10.9057 124.348 13.4665 123.144 16.5761V16.5761C126.676 15.5349 129.278 13.0666 133.01 12.6337C133.61 12.5635 137.248 12.2945 136.565 10.8556Z" fill="#C66720"/>
        <path fill-rule="evenodd" clip-rule="evenodd" d="M86.7418 14.7399C87.2148 14.8897 87.7057 14.9762 88.2016 14.9973C89.3677 14.7989 90.5513 14.7205 91.7335 14.7633C92.1924 14.7403 92.6521 14.7403 93.1109 14.7633C94.6526 14.8247 96.1895 14.9731 97.7141 15.2078L98.3146 15.3716C99.153 15.4598 99.994 15.23 100.669 14.7282C97.2197 13.2191 87.719 9.6394 86.4239 14.2603C86.406 14.3653 86.4288 14.4733 86.4878 14.5623C86.5468 14.6513 86.6376 14.7147 86.7418 14.7399V14.7399Z" fill="#C66720"/>
        <path fill-rule="evenodd" clip-rule="evenodd" d="M22.1682 65.37C21.8925 65.9786 21.6947 66.6192 21.5795 67.2768C21.4033 67.7661 21.3002 68.2785 21.2734 68.7976C21.279 68.8303 21.2922 68.8612 21.3121 68.8878C21.3319 68.9144 21.3578 68.936 21.3876 68.9509C21.4174 68.9657 21.4504 68.9733 21.4837 68.9731C21.5171 68.9729 21.5499 68.9648 21.5795 68.9497C21.9327 68.7508 21.9445 68.1542 22.0034 67.7798C22.1101 66.9849 22.2914 66.2016 22.5449 65.4401C22.6391 65.2647 22.2741 65.1477 22.1682 65.37Z" fill="#C66720"/>
        <path fill-rule="evenodd" clip-rule="evenodd" d="M24.3809 67.1835C24.0803 67.7629 23.8624 68.381 23.7334 69.0201C23.6392 69.3594 23.3684 69.8975 23.4744 70.19C23.4811 70.2279 23.4993 70.2628 23.5267 70.29C23.5541 70.3173 23.5893 70.3354 23.6274 70.3421C24.0748 70.3421 24.1219 69.7571 24.1925 69.4413C24.3574 68.7511 24.4986 68.0375 24.7341 67.359C24.8165 67.1601 24.4986 66.9729 24.3809 67.1835Z" fill="#C66720"/>
        <path fill-rule="evenodd" clip-rule="evenodd" d="M35.0244 75.1615C34.9185 76.3314 34.5417 77.5012 34.5535 78.7412C34.5535 79.0922 35.1068 79.1507 35.1186 78.7412C35.2965 77.5353 35.4105 76.3209 35.46 75.103C35.4482 74.8691 35.048 74.9276 35.0244 75.1615Z" fill="#C66720"/>
        <path fill-rule="evenodd" clip-rule="evenodd" d="M37.9437 75.7704C37.5588 76.6926 37.3742 77.6852 37.4022 78.6832C37.4022 79.0576 38.0026 79.1278 38.0144 78.6832C38.0491 77.7175 38.1553 76.7557 38.3322 75.8055C38.3793 75.6183 38.0261 75.5598 37.9437 75.7704Z" fill="#C66720"/>
        <path fill-rule="evenodd" clip-rule="evenodd" d="M85.5185 91.738C85.341 92.1786 85.2146 92.6378 85.1418 93.1067C85.0309 93.5264 84.9833 93.96 85.0005 94.3936C85.016 94.4404 85.0459 94.4811 85.0861 94.51C85.1263 94.5389 85.1746 94.5545 85.2242 94.5545C85.2738 94.5545 85.3221 94.5389 85.3623 94.51C85.4024 94.4811 85.4324 94.4404 85.4479 94.3936C85.5475 94.0114 85.5989 93.6185 85.6009 93.2237C85.6716 92.7324 85.6951 92.2411 85.7893 91.7497C85.8128 91.6444 85.5774 91.6093 85.5185 91.738Z" fill="#C66720"/>
        <path fill-rule="evenodd" clip-rule="evenodd" d="M88.8617 92.1483C88.6776 92.7392 88.5515 93.3464 88.4849 93.9615C88.3529 94.477 88.313 95.0116 88.3672 95.5408C88.3856 95.5864 88.4172 95.6255 88.4582 95.653C88.4991 95.6806 88.5474 95.6953 88.5968 95.6953C88.6462 95.6953 88.6945 95.6806 88.7354 95.653C88.7763 95.6255 88.808 95.5864 88.8264 95.5408C88.9521 95.0798 89.0076 94.6026 88.9912 94.1253C88.9912 93.4702 89.0971 92.8151 89.156 92.1717C89.1498 92.1389 89.1329 92.1091 89.1079 92.0868C89.0829 92.0645 89.0513 92.051 89.0178 92.0483C88.9844 92.0457 88.951 92.054 88.9227 92.0721C88.8945 92.0901 88.8731 92.1169 88.8617 92.1483V92.1483Z" fill="#C66720"/>
        <path fill-rule="evenodd" clip-rule="evenodd" d="M102.153 94.1478C102.153 93.9606 101.93 93.7968 101.836 93.9723C101.532 94.5507 101.371 95.192 101.365 95.8441C101.365 96.1716 101.282 97.0139 101.694 97.0958C101.721 97.1051 101.748 97.1091 101.776 97.1076C101.804 97.1062 101.831 97.0993 101.857 97.0873C101.882 97.0753 101.904 97.0586 101.923 97.038C101.941 97.0173 101.956 96.9933 101.965 96.9671C101.984 96.6025 101.956 96.2369 101.883 95.8792C101.878 95.2913 101.969 94.7065 102.153 94.1478V94.1478Z" fill="#C66720"/>
        <path fill-rule="evenodd" clip-rule="evenodd" d="M105.461 94.0317C105.453 94.0055 105.437 93.9827 105.414 93.9664C105.392 93.9502 105.365 93.9414 105.338 93.9414C105.31 93.9414 105.283 93.9502 105.261 93.9664C105.239 93.9827 105.222 94.0055 105.214 94.0317C104.954 95.0316 104.851 96.0655 104.908 97.0967C104.908 97.4126 105.414 97.4476 105.402 97.0967C105.347 96.075 105.367 95.0506 105.461 94.0317V94.0317Z" fill="#C66720"/>
        <path fill-rule="evenodd" clip-rule="evenodd" d="M109.087 94.3943C109.087 94.3539 109.071 94.3153 109.042 94.2867C109.013 94.2582 108.975 94.2422 108.934 94.2422C108.893 94.2422 108.854 94.2582 108.826 94.2867C108.797 94.3153 108.781 94.3539 108.781 94.3943C108.734 94.8622 108.699 95.3301 108.675 95.7981C108.675 96.1373 108.44 96.5819 108.675 96.8743C108.694 96.8886 108.716 96.8963 108.74 96.8963C108.763 96.8963 108.786 96.8886 108.804 96.8743C109.205 96.8743 109.181 96.2309 109.205 95.9268C109.226 95.4131 109.187 94.8987 109.087 94.3943V94.3943Z" fill="#C66720"/>
        <path fill-rule="evenodd" clip-rule="evenodd" d="M173.579 87.0826C173.579 87.1527 173.579 86.9656 173.579 86.9422C173.508 86.775 173.449 86.603 173.403 86.4274C173.285 85.9712 173.261 85.4799 173.12 85.0236C173.12 84.8949 172.861 84.8248 172.826 85.0236C172.791 85.2225 172.826 87.7962 173.556 87.3633C173.582 87.3509 173.604 87.332 173.62 87.3086C173.636 87.2852 173.646 87.2579 173.648 87.2296C173.65 87.2013 173.645 87.1728 173.633 87.147C173.621 87.1213 173.603 87.099 173.579 87.0826V87.0826Z" fill="#C66720"/>
        <path fill-rule="evenodd" clip-rule="evenodd" d="M177.771 86.0297C177.537 85.3131 177.254 84.6135 176.923 83.9357C176.907 83.8877 176.873 83.8477 176.828 83.8247C176.783 83.8016 176.73 83.7974 176.682 83.8129C176.633 83.8284 176.593 83.8624 176.57 83.9074C176.547 83.9524 176.542 84.0046 176.558 84.0527C176.734 84.8084 176.962 85.5511 177.241 86.2754C177.37 86.6264 177.912 86.3807 177.771 86.0297Z" fill="#C66720"/>
        <path fill-rule="evenodd" clip-rule="evenodd" d="M181.797 83.9591C181.388 83.3736 181.111 82.7072 180.985 82.0055C180.974 81.9624 180.949 81.9241 180.914 81.8967C180.878 81.8694 180.835 81.8545 180.79 81.8545C180.746 81.8545 180.702 81.8694 180.667 81.8967C180.632 81.9241 180.607 81.9624 180.596 82.0055C180.542 82.8443 180.793 83.6745 181.302 84.3452C181.526 84.7195 182.032 84.2984 181.797 83.9591Z" fill="#C66720"/>
        <path fill-rule="evenodd" clip-rule="evenodd" d="M186.812 83.3859C186.416 83.0557 186.092 82.6489 185.859 82.1904C185.627 81.7319 185.49 81.2312 185.458 80.7187C185.461 80.6905 185.455 80.6623 185.441 80.6376C185.427 80.6129 185.406 80.5929 185.381 80.5802C185.355 80.5676 185.327 80.5629 185.298 80.5667C185.27 80.5706 185.244 80.5827 185.223 80.6017C184.187 81.327 185.741 83.1987 186.318 83.7486C186.612 84.0761 187.106 83.6784 186.812 83.3859Z" fill="#C66720"/>
        <path fill-rule="evenodd" clip-rule="evenodd" d="M192.487 80.7189C191.864 79.6711 191.176 78.663 190.427 77.7008C190.344 77.5604 190.073 77.6072 190.132 77.7944C190.497 78.9642 191.533 79.7948 192.04 80.9295C192.169 81.2454 192.616 81.0348 192.487 80.7189Z" fill="#C66720"/>
        <path fill-rule="evenodd" clip-rule="evenodd" d="M197.172 77.1039C197.066 76.8816 196.784 76.7529 196.595 76.6126L195.665 75.9341C195.43 75.7586 195.182 75.5948 194.935 75.431C194.688 75.2673 194.676 75.3609 194.57 75.3024C194.464 75.2439 194.476 75.3024 194.511 75.3024C194.547 75.3024 194.57 75.4895 194.653 75.5714C194.861 75.7862 195.081 75.9892 195.312 76.1797C195.606 76.4371 195.912 76.6711 196.218 76.905C196.525 77.139 196.689 77.3379 196.96 77.3379C196.99 77.338 197.02 77.3319 197.047 77.3199C197.074 77.3079 197.099 77.2903 197.119 77.2682C197.139 77.2461 197.154 77.22 197.163 77.1917C197.172 77.1634 197.175 77.1335 197.172 77.1039V77.1039Z" fill="#C66720"/>
        <path fill-rule="evenodd" clip-rule="evenodd" d="M201.164 74.179C201.142 74.111 201.102 74.0501 201.048 74.0028C200.994 73.9554 200.928 73.9234 200.857 73.91C200.638 73.8088 200.435 73.6747 200.257 73.5122C199.842 73.1509 199.485 72.7289 199.197 72.2605C199.068 72.0616 198.762 72.2605 198.856 72.4828C199.107 73.0422 199.472 73.544 199.927 73.9568C200.21 74.2141 200.74 74.647 201.105 74.4013C201.136 74.3749 201.159 74.3393 201.17 74.2995C201.18 74.2597 201.178 74.2176 201.164 74.179Z" fill="#C66720"/>
        <path fill-rule="evenodd" clip-rule="evenodd" d="M214.455 59.1354C214.401 59.0722 214.335 59.0208 214.26 58.9845C214.185 58.9483 214.103 58.928 214.019 58.9248C213.758 58.8799 213.509 58.7802 213.289 58.6324C212.821 58.3107 212.47 57.8469 212.289 57.3105C212.289 57.135 211.983 57.2403 211.994 57.4041C212.068 58.0354 212.384 58.6141 212.877 59.0184C213.219 59.2992 214.055 59.7554 214.443 59.346C214.47 59.3179 214.486 59.2814 214.488 59.2428C214.49 59.2043 214.478 59.1663 214.455 59.1354V59.1354Z" fill="#C66720"/>
        <path fill-rule="evenodd" clip-rule="evenodd" d="M217.057 56.1515C216.062 55.6402 215.224 54.8725 214.631 53.9288C214.525 53.7533 214.219 53.9288 214.325 54.0808C214.867 55.1608 215.753 56.0327 216.845 56.5609C217.08 56.6545 217.292 56.2567 217.057 56.1515Z" fill="#C66720"/>
        <path fill-rule="evenodd" clip-rule="evenodd" d="M218.669 52.0224C218.218 51.7302 217.785 51.4098 217.374 51.0632C216.974 50.7005 216.597 50.3379 216.197 50.0103C216.044 49.8933 215.844 50.1156 215.973 50.2677C216.586 51.2146 217.439 51.9851 218.446 52.5021C218.507 52.5173 218.571 52.5109 218.628 52.4839C218.685 52.4569 218.731 52.411 218.757 52.3542C218.784 52.2974 218.789 52.2332 218.773 52.1726C218.757 52.112 218.72 52.0589 218.669 52.0224Z" fill="#C66720"/>
        <path fill-rule="evenodd" clip-rule="evenodd" d="M19.2485 62.2821C18.2292 63.6701 17.5408 65.2702 17.2354 66.9614C17.2354 67.1018 17.4355 67.1135 17.4708 66.9614C17.8749 65.3552 18.5952 63.8443 19.5899 62.516C19.7312 62.2938 19.3898 62.0598 19.2485 62.2821Z" fill="#C66720"/>
        <path fill-rule="evenodd" clip-rule="evenodd" d="M17.4121 61.1242C17.1531 61.2412 17.0472 61.4635 16.8706 61.6974C16.694 61.9314 16.3879 62.3759 16.176 62.7386C15.8756 63.1545 15.715 63.6539 15.7168 64.1658C15.7168 64.3412 15.9876 64.3061 15.9994 64.1658C16.1362 63.6362 16.385 63.1417 16.7293 62.7152C17.0118 62.2823 17.5652 61.791 17.624 61.2763C17.6261 61.2503 17.6214 61.2242 17.6103 61.2005C17.5993 61.1768 17.5823 61.1564 17.5611 61.1411C17.5398 61.1258 17.5149 61.1162 17.4888 61.1133C17.4627 61.1103 17.4363 61.1141 17.4121 61.1242V61.1242Z" fill="#C66720"/>
        <path fill-rule="evenodd" clip-rule="evenodd" d="M20.8144 64.9257C20.4832 65.4548 20.2146 66.02 20.0138 66.6103C19.7519 67.1611 19.562 67.7429 19.4487 68.3416C19.4487 68.4937 19.6724 68.5405 19.7077 68.3416C19.8586 67.765 20.0759 67.2076 20.3552 66.6805C20.699 66.1488 20.9387 65.5574 21.0616 64.9374C21.0632 64.9048 21.0517 64.873 21.0296 64.8488C21.0075 64.8247 20.9767 64.8103 20.9439 64.8087C20.9111 64.8072 20.879 64.8186 20.8548 64.8406C20.8305 64.8625 20.8159 64.8931 20.8144 64.9257V64.9257Z" fill="#C66720"/>
        <path fill-rule="evenodd" clip-rule="evenodd" d="M27.1945 69.0205C26.3115 69.2896 25.8995 70.4477 25.664 71.2549C25.6551 71.2964 25.6617 71.3398 25.6826 71.3769C25.7034 71.414 25.7371 71.4423 25.7774 71.4566C25.8176 71.4709 25.8617 71.4702 25.9015 71.4546C25.9413 71.439 25.974 71.4096 25.9937 71.3719C26.1347 70.9631 26.3203 70.5708 26.547 70.202C26.7707 69.8511 27.0885 69.5586 27.324 69.2077C27.3711 69.1375 27.3005 69.0205 27.1945 69.0205Z" fill="#C66720"/>
        <path fill-rule="evenodd" clip-rule="evenodd" d="M29.1493 72.5296C28.6901 72.6934 28.4429 73.2666 28.231 73.6994C27.9905 74.2026 27.8812 74.7577 27.9131 75.3138C27.9131 75.501 28.1957 75.5361 28.2075 75.3138C28.2469 74.8486 28.3664 74.3936 28.5606 73.9685C28.749 73.5123 29.2082 73.1613 29.3377 72.7051C29.3466 72.6794 29.3479 72.6518 29.3414 72.6254C29.3349 72.599 29.3208 72.5751 29.3009 72.5565C29.2809 72.538 29.256 72.5255 29.2291 72.5207C29.2022 72.516 29.1745 72.519 29.1493 72.5296Z" fill="#C66720"/>
        <path fill-rule="evenodd" clip-rule="evenodd" d="M31.0442 73.7579C30.6668 74.3559 30.3812 75.0065 30.1966 75.6881C29.9445 76.3235 29.7552 76.9817 29.6315 77.6534C29.6221 77.6938 29.6292 77.7362 29.6513 77.7713C29.6734 77.8064 29.7086 77.8313 29.7492 77.8406C29.7898 77.8499 29.8324 77.8428 29.8678 77.8209C29.9031 77.799 29.9282 77.764 29.9376 77.7236C30.1128 77.0722 30.3371 76.4348 30.6086 75.8168C30.941 75.196 31.179 74.5298 31.315 73.8398C31.3204 73.8221 31.3223 73.8036 31.3205 73.7852C31.3187 73.7668 31.3132 73.7489 31.3045 73.7327C31.2957 73.7164 31.2838 73.7019 31.2695 73.6902C31.2551 73.6785 31.2386 73.6697 31.2208 73.6643C31.203 73.6589 31.1844 73.6571 31.1659 73.6589C31.1474 73.6607 31.1294 73.6661 31.113 73.6747C31.0966 73.6834 31.0821 73.6953 31.0703 73.7095C31.0585 73.7238 31.0496 73.7402 31.0442 73.7579V73.7579Z" fill="#C66720"/>
        <path fill-rule="evenodd" clip-rule="evenodd" d="M32.775 75.6419C32.3646 76.5556 32.1945 77.5579 32.2806 78.5548C32.2806 78.7536 32.5867 78.777 32.5867 78.5548C32.5867 77.5838 33.0223 76.6245 32.9634 75.6653C32.9569 75.6468 32.9453 75.6304 32.9299 75.6181C32.9146 75.6058 32.8961 75.598 32.8765 75.5955C32.8569 75.5931 32.837 75.5962 32.8191 75.6043C32.8012 75.6125 32.7859 75.6255 32.775 75.6419V75.6419Z" fill="#C66720"/>
        <path fill-rule="evenodd" clip-rule="evenodd" d="M92.2874 93.049C91.871 94.1331 91.7138 95.2985 91.8283 96.4532C91.8283 96.6053 92.0991 96.5936 92.1108 96.4532C92.1108 95.8917 92.1933 95.2834 92.2639 94.7804C92.3999 94.2251 92.4671 93.6555 92.464 93.0841C92.464 92.9671 92.3228 92.9788 92.2874 93.049Z" fill="#C66720"/>
        <path fill-rule="evenodd" clip-rule="evenodd" d="M95.3601 95.2946C95.3601 94.7565 95.6191 94.2769 95.6662 93.7388C95.6595 93.7208 95.6474 93.7054 95.6316 93.6945C95.6158 93.6836 95.5971 93.6777 95.5779 93.6777C95.5586 93.6777 95.5399 93.6836 95.5241 93.6945C95.5083 93.7054 95.4963 93.7208 95.4896 93.7388C95.1475 94.2863 94.948 94.9099 94.9089 95.5532C94.8699 96.1965 94.9926 96.8393 95.2659 97.4237C95.3483 97.5992 95.5837 97.4237 95.5249 97.3068C95.3145 96.6577 95.2581 95.969 95.3601 95.2946V95.2946Z" fill="#C66720"/>
        <path fill-rule="evenodd" clip-rule="evenodd" d="M98.1859 95.6926C98.2224 95.1583 98.1747 94.6215 98.0446 94.1017C98.0316 94.0772 98.0121 94.0567 97.9883 94.0424C97.9644 94.0281 97.9371 94.0205 97.9092 94.0205C97.8813 94.0205 97.854 94.0281 97.8302 94.0424C97.8063 94.0567 97.7868 94.0772 97.7738 94.1017C97.6737 94.6313 97.6737 95.1747 97.7738 95.7043C97.8079 96.3152 97.9146 96.9199 98.0917 97.5059C98.0917 97.7048 98.4566 97.658 98.4095 97.5059C98.2853 96.9086 98.2105 96.3021 98.1859 95.6926V95.6926Z" fill="#C66720"/>
        <path fill-rule="evenodd" clip-rule="evenodd" d="M204.13 69.0197C204.13 68.891 203.954 68.8208 203.895 68.9261C203.797 69.0782 203.746 69.2547 203.746 69.435C203.746 69.6153 203.797 69.7918 203.895 69.9439C204.083 70.3065 204.542 70.8447 204.99 70.7862C205.025 70.7778 205.056 70.756 205.076 70.7255C205.096 70.695 205.103 70.658 205.096 70.6224C204.978 69.9907 203.977 69.7333 204.13 69.0197Z" fill="#C66720"/>
        <path fill-rule="evenodd" clip-rule="evenodd" d="M208.38 67.1369C208.263 66.9497 208.157 66.9263 207.945 66.8561C207.655 66.766 207.398 66.5955 207.203 66.3648C206.827 65.9232 206.564 65.3973 206.438 64.8323C206.433 64.8093 206.424 64.7874 206.411 64.7679C206.398 64.7483 206.381 64.7316 206.361 64.7185C206.341 64.7055 206.319 64.6964 206.296 64.6919C206.273 64.6873 206.249 64.6873 206.226 64.692C206.203 64.6966 206.181 64.7057 206.161 64.7187C206.141 64.7318 206.124 64.7486 206.111 64.7682C206.098 64.7877 206.089 64.8096 206.084 64.8327C206.08 64.8558 206.08 64.8795 206.085 64.9025C206.191 65.5481 206.453 66.1583 206.85 66.6807C207.144 67.0433 207.921 67.6399 208.392 67.3124C208.409 67.2855 208.416 67.2542 208.414 67.2228C208.412 67.1913 208.4 67.1613 208.38 67.1369V67.1369Z" fill="#C66720"/>
        <path fill-rule="evenodd" clip-rule="evenodd" d="M210.381 63.1715C210.016 62.8088 209.628 62.4462 209.286 62.0601C209.145 61.8964 208.851 62.0602 208.957 62.259C209.223 62.7298 209.547 63.166 209.922 63.5575C210.24 63.8851 210.593 64.4115 211.099 64.4466C211.124 64.4486 211.149 64.4451 211.172 64.4362C211.195 64.4274 211.216 64.4134 211.233 64.3954C211.25 64.3774 211.263 64.3558 211.27 64.3323C211.278 64.3087 211.28 64.2838 211.276 64.2594C211.205 63.8032 210.734 63.499 210.381 63.1715Z" fill="#C66720"/>
        <path opacity="0.4" fill-rule="evenodd" clip-rule="evenodd" d="M124.345 22.4488C124.345 25.6658 119.388 28.298 113.255 28.298C107.121 28.298 102.165 25.6892 102.165 22.4488C102.165 19.2083 107.121 16.5996 113.255 16.5996C119.388 16.5996 124.345 19.2317 124.345 22.4488Z" fill="#DA840D"/>
        <path fill-rule="evenodd" clip-rule="evenodd" d="M185.069 71.3599C160.064 65.0545 149.598 78.8937 150.01 95.1778C150.175 101.542 156.014 110.316 159.852 116.948C163.256 122.248 167.227 127.167 171.695 131.618C174.521 133.619 178.288 135.923 182.067 135.923C183.516 135.781 184.901 135.261 186.082 134.414C186.635 134.522 187.17 134.707 187.671 134.964C189.461 135.572 190.25 133.092 192.204 133.97C195.324 135.385 198.02 132.507 200.351 130.94C201.104 130.437 208.592 118.902 209.404 118.294C217.115 108.455 221 105.554 221.083 93.6102C221.177 78.6831 213.631 65.3119 185.069 71.3599Z" fill="#C73A54"/>
        <g style="mix-blend-mode:multiply">
            <path fill-rule="evenodd" clip-rule="evenodd" d="M194.547 75.2669C194.547 76.9749 190.144 78.4722 184.622 78.6126C179.101 78.753 174.592 77.4428 174.545 75.7699C174.498 74.0971 178.948 72.5295 184.469 72.4242C189.991 72.3189 194.5 73.5589 194.547 75.2669Z" fill="#ED6366"/>
        </g>
        <path fill-rule="evenodd" clip-rule="evenodd" d="M169.318 80.7886C167.116 77.478 162.607 78.449 159.817 80.3909L159.676 80.4962C159.028 80.931 158.442 81.4504 157.934 82.0404C155.949 84.1329 154.691 86.8016 154.343 89.656C154.001 93.1655 155.19 97.0611 158.24 98.617C158.326 98.6607 158.396 98.7303 158.44 98.8158C158.557 98.7915 158.671 98.7563 158.781 98.7105C160.5 98.0086 160.418 95.201 160.429 93.7738C160.429 90.6036 163.078 89.1998 165.504 87.8428C167.729 86.5676 171.249 83.7015 169.318 80.7886Z" fill="#ED6366"/>
        <g style="mix-blend-mode:multiply">
            <path fill-rule="evenodd" clip-rule="evenodd" d="M209.157 107.812C207.085 105.156 203.977 108.397 202.493 110.035C199.044 113.837 196.889 118.528 192.816 121.827C188.742 125.125 181.349 122.727 178.182 127.524C178.034 127.755 177.933 128.013 177.886 128.282C177.838 128.552 177.845 128.829 177.905 129.096C177.965 129.363 178.078 129.616 178.236 129.84C178.395 130.064 178.597 130.255 178.83 130.401C179.159 130.53 179.503 130.616 179.854 130.659C180.586 131.067 181.382 131.352 182.209 131.501C184.791 131.836 187.414 131.345 189.696 130.097C191.768 129.115 194.111 130.261 196.171 129.29C196.933 128.878 197.589 128.297 198.09 127.594C198.751 126.833 199.305 125.987 199.738 125.079C200.775 123.375 201.956 121.762 203.27 120.259C204.867 118.458 206.312 116.529 207.591 114.492C209.121 112.304 210.511 109.567 209.157 107.812Z" fill="#ED6366"/>
        </g>
        <path fill-rule="evenodd" clip-rule="evenodd" d="M208.498 49.1327C207.109 48.6647 204.554 50.7704 203.471 51.4138C200.998 52.8878 198.491 54.3735 196.113 55.9879C192.5 58.5054 189.506 61.8004 187.354 65.6273C186.456 67.257 185.854 69.0311 185.576 70.8682C185.21 71.8327 185.027 72.8558 185.034 73.8864C185.028 73.9587 185.036 74.0315 185.058 74.1006C185.08 74.1698 185.115 74.234 185.163 74.2894C185.21 74.3449 185.267 74.3905 185.332 74.4238C185.397 74.457 185.468 74.4771 185.541 74.483C191.568 74.5532 197.737 70.6342 201.952 66.6919C204.16 64.7573 205.91 62.36 207.073 59.6729C207.653 58.1575 208.087 56.5906 208.368 54.9935C208.698 53.2856 208.203 51.215 208.757 49.6357C208.787 49.5348 208.777 49.4263 208.729 49.3327C208.68 49.239 208.598 49.1674 208.498 49.1327V49.1327Z" fill="#8DB54F"/>
        <path fill-rule="evenodd" clip-rule="evenodd" d="M184.021 74.2731C184.021 72.6002 184.528 71.559 185.01 66.2948C185.493 61.0305 185.399 58.3984 185.752 57.5327C186.105 56.667 188.931 58.5037 188.931 58.5037C188.931 58.5037 188.024 62.5396 187.353 65.8502C186.682 69.1609 186.011 75.1153 186.011 75.1153C186.011 75.1153 185.646 76.0863 184.763 75.8406C183.88 75.595 184.021 74.2731 184.021 74.2731Z" fill="#300D33"/>
    </g>
    <defs>
        <clipPath id="clip0_1337_3235">
            <rect width="221.649" height="139" fill="white"/>
        </clipPath>
    </defs>
</svg>
