<svg width="257" height="162" viewBox="0 0 257 162" fill="none" xmlns="http://www.w3.org/2000/svg">
<g clip-path="url(#clip0_1337_3235)">
<path fill-rule="evenodd" clip-rule="evenodd" d="M237.056 137.852C237.056 148.974 186.672 161.169 133.23 161.169C79.7874 161.169 36.0918 141.84 36.0918 130.717C36.0918 119.595 86.8721 117.723 140.301 117.723C193.729 117.723 237.056 126.729 237.056 137.852Z" fill="#E2CAB3"/>
<path fill-rule="evenodd" clip-rule="evenodd" d="M245.328 149.206C245.478 155.147 232.605 160.301 216.566 160.708C200.526 161.115 187.395 156.639 187.244 150.684C187.094 144.73 199.967 139.589 216.006 139.182C232.046 138.775 245.178 143.251 245.328 149.206Z" fill="#E2CAB3"/>
<path fill-rule="evenodd" clip-rule="evenodd" d="M11.7934 106.926C3.2481 127.055 13.6499 137.594 27.5052 139.33C32.9655 140.009 41.1558 136.251 47.2167 133.905C52.1481 131.728 56.8298 129.032 61.1813 125.861C63.2425 123.759 65.6723 120.897 66.1638 117.723C66.2298 116.496 65.9659 115.274 65.3993 114.182C65.5534 113.725 65.7791 113.295 66.0682 112.907C66.8053 111.551 64.8123 110.507 65.8088 108.987C67.3923 106.559 65.3038 103.942 64.28 101.785C63.9387 101.093 55.1341 93.3208 54.7245 92.5747C47.3805 84.8567 45.4012 81.2215 35.2997 79.6345C22.6183 77.627 10.3191 82.2253 11.7934 106.926Z" fill="#5F825C"/>
<g style="mix-blend-mode:multiply" opacity="0.4">
<path fill-rule="evenodd" clip-rule="evenodd" d="M16.3801 99.4925C17.8271 99.6689 18.5369 103.562 17.9363 108.228C17.3356 112.894 15.6976 116.475 14.2369 116.299C12.7763 116.122 12.0938 112.229 12.6808 107.563C13.2677 102.897 14.8512 99.3026 16.3801 99.4925Z" fill="#5F825C"/>
</g>
<path fill-rule="evenodd" clip-rule="evenodd" d="M17.7451 121.318C14.6464 122.674 14.933 126.648 16.1889 129.225C16.2197 129.266 16.2429 129.312 16.2572 129.361C16.5521 129.955 16.9188 130.51 17.3492 131.016C18.8704 132.94 20.9697 134.333 23.3418 134.99C26.3177 135.736 29.7303 135.234 31.4503 132.888C31.4924 132.816 31.5608 132.762 31.6414 132.739V132.44C31.2592 130.921 28.9113 130.623 27.6554 130.433C24.9253 130.012 24.1199 127.625 23.2872 125.414C22.4545 123.203 20.4752 120.07 17.7451 121.318Z" fill="#8DB54F"/>
<g style="mix-blend-mode:multiply" opacity="0.4">
<path fill-rule="evenodd" clip-rule="evenodd" d="M45.7834 91.4219C43.258 92.7783 45.6059 95.8438 46.8208 97.2952C49.551 100.659 53.2912 103.073 55.5709 106.899C57.8505 110.724 54.8747 116.651 58.5194 119.879C58.6951 120.035 58.9003 120.155 59.1229 120.231C59.3456 120.308 59.5814 120.339 59.8164 120.324C60.0515 120.309 60.2812 120.247 60.4921 120.143C60.7029 120.039 60.8908 119.894 61.0448 119.717C61.2045 119.46 61.3241 119.181 61.3997 118.889C61.8433 118.326 62.1894 117.694 62.4235 117.017C63.0376 114.895 62.9564 112.634 62.1914 110.561C61.6181 108.703 62.9013 106.899 62.3416 105.04C62.0851 104.348 61.6745 103.722 61.1403 103.209C60.5804 102.564 59.9379 101.994 59.2292 101.514C57.908 100.422 56.6881 99.2144 55.5845 97.9055C54.2626 96.3487 52.8104 94.9057 51.2436 93.5921C49.5919 92.0323 47.4488 90.5131 45.7834 91.4219Z" fill="#5F825C"/>
</g>
<path fill-rule="evenodd" clip-rule="evenodd" d="M14.1143 108.174C12.7492 107.943 11.8892 107.401 7.4801 106.316C3.07096 105.231 0.832258 104.986 0.149728 104.579C-0.532803 104.173 1.37828 102.043 1.37828 102.043C1.37828 102.043 4.68173 103.304 7.3982 104.308C10.1147 105.312 15.0835 106.641 15.0835 106.641C15.0835 106.641 15.8616 107.075 15.5476 107.781C15.2336 108.486 14.1143 108.174 14.1143 108.174Z" fill="#300D33"/>
<path fill-rule="evenodd" clip-rule="evenodd" d="M245.711 68.9601C242.012 69.8147 238.886 72.0392 235.036 72.2291C230.941 72.4326 226.846 70.737 222.846 69.9639C214.151 68.2819 205.25 67.346 196.459 66.3829C178.714 64.4297 160.736 63.5887 142.922 61.5541C125.108 59.5195 107.43 57.2 89.6025 57.2814C81.0139 57.3028 72.4426 58.047 63.9804 59.5059C57.0049 60.7131 49.9066 62.1238 44.0641 66.288C39.5675 69.5747 36.1788 74.1384 34.3449 79.3774C31.9697 85.7526 44.5146 124.79 46.412 127.354C62.902 149.057 90.5854 153.804 136.137 152.895C184.816 151.919 203.626 146.534 217.413 134.434C224.825 127.937 231.064 111.226 232.183 107.957C234.081 102.192 236.183 96.509 238.148 90.7713C239.391 87.1361 240.687 83.5416 242.244 80.0285C243.89 76.7281 245.26 73.2983 246.339 69.774C246.37 69.678 246.377 69.576 246.36 69.4767C246.342 69.3774 246.301 69.2837 246.239 69.2037C246.178 69.1237 246.097 69.0598 246.005 69.0174C245.913 68.975 245.812 68.9553 245.711 68.9601V68.9601Z" fill="#DA840D"/>
<path fill-rule="evenodd" clip-rule="evenodd" d="M238.339 71.6325C232.128 75.973 223.187 76.1493 215.911 77.5736C197.947 81.1003 180.037 83.5282 161.704 83.0942C143.767 82.6873 125.817 80.5848 107.948 79.1199C89.6837 77.6278 71.3783 76.5563 53.0591 77.3837C49.0122 77.5307 44.9976 78.1591 41.1012 79.2555C39.1082 79.8252 36.1324 80.612 35.1359 82.6466C34.8901 83.1746 34.7554 83.7469 34.74 84.3285V84.4235C33.8391 87.4347 34.8902 89.9577 35.9276 92.6298C36.1733 93.7556 36.4464 94.8815 36.7057 96.0073C36.2416 96.0073 36.1733 96.7126 36.7057 96.7262H36.8559C36.9122 96.7897 36.9816 96.8406 37.0592 96.8754C37.1369 96.9102 37.2211 96.9283 37.3063 96.9283C37.3916 96.9283 37.4758 96.9102 37.5535 96.8754C37.6311 96.8406 37.7004 96.7897 37.7568 96.7262C40.9784 96.7262 44.1726 96.1294 47.4078 96.048C52.2674 95.9123 56.3899 98.381 60.6352 100.416C68.2523 104.024 75.4461 108.242 83.1587 111.443C86.5998 112.874 90.1399 114.057 93.7516 114.984C97.3527 115.753 101.001 116.288 104.672 116.584C108.576 117.086 112.439 117.941 116.33 118.47C120.687 118.983 125.08 119.123 129.462 118.89C146.862 118.585 164.209 116.884 181.334 113.803C196.896 110.901 212.457 106.533 226.012 98.1911C231.372 94.9533 235.911 90.5353 239.281 85.278C240.837 82.85 242.161 80.2322 243.608 77.7364C244.673 75.8781 245.956 73.6671 245.765 71.5104C245.451 66.8172 240.25 70.3167 238.339 71.6325Z" fill="#C66720"/>
<path opacity="0.4" fill-rule="evenodd" clip-rule="evenodd" d="M133.666 143.78C66.0957 153.275 45.8655 126.242 46.4798 127.042C62.9697 148.745 90.6668 153.492 136.205 152.583C184.883 151.62 204.663 145.91 218.464 133.81C225.453 127.666 233.193 105 234.735 100.592C200.923 128.236 191.272 135.642 133.666 143.78Z" fill="#C66720"/>
<path fill-rule="evenodd" clip-rule="evenodd" d="M256.931 46.8502C256.153 42.0892 248.741 41.4245 245.082 40.0681C241.847 38.8745 239.622 35.9989 236.988 33.8422C234.145 31.5068 230.983 29.5841 227.596 28.1316C219.883 24.822 212.157 22.177 205.127 17.4973C198.657 13.1704 190.712 12.6142 183.286 11.407C178.695 10.6949 174.202 9.4615 169.895 7.73113C166.068 5.94424 162.026 4.65409 157.869 3.89247C153.582 3.32277 149.173 4.29939 144.887 4.47573C140.136 4.66562 135.768 3.11931 131.305 1.76289C127.661 0.451553 123.79 -0.124853 119.92 0.0673702C116.316 0.365782 113.095 2.26477 110.064 4.13662C109.988 4.1786 109.924 4.23936 109.879 4.31303C109.833 4.38669 109.808 4.47077 109.805 4.55711C106.379 6.33402 103.089 8.31439 99.6488 10.1049C96.7783 11.678 93.6996 12.8424 90.5029 13.5637C86.5851 14.3776 82.8995 13.7265 79.009 13.2246C72.1837 12.3429 65.727 12.1802 59.2566 14.6624C51.5577 17.6194 45.4286 23.6419 37.7979 26.8702C31.2319 29.583 25.5123 32.7977 21.4171 38.8066C19.7126 41.3286 18.5508 44.1732 18.0045 47.1622C17.4994 50.3769 18.2775 53.2932 18.96 56.4401C19.861 60.5093 19.0556 63.7647 17.8816 67.6848C16.8813 70.2695 16.9549 73.1432 18.0864 75.6741C19.1511 77.7358 21.4171 79.0651 23.3965 80.1231C25.3758 81.1811 30.4265 82.3205 30.8497 84.7892C32.6516 95.2607 44.5003 90.3505 51.4758 92.9277C54.9021 94.2163 58.069 96.1695 61.5499 97.431C65.5495 98.8824 69.7403 99.9675 73.8355 101.066C82.0258 103.264 89.9159 106.193 97.8742 109.205C101.382 110.561 104.699 112.243 108.453 112.921C112.207 113.599 116.084 112.989 119.797 112.664C127.51 111.972 151.903 114.02 155.138 112.379C159.329 110.331 163.22 110.52 167.752 110.9C171.287 111.199 174.345 108.594 177.894 108.309C181.974 107.91 185.997 107.069 189.893 105.8C193.367 104.466 196.907 103.307 200.499 102.328C204.595 101.419 208.171 98.4754 212.307 97.9193C220.347 96.8206 226.245 92.3444 232.469 87.1493C238.121 82.4426 251.485 66.2198 252.645 63.0051C253.805 59.7904 254.665 56.223 255.607 52.8998C256.126 51.0415 257.259 48.8306 256.931 46.8502Z" fill="#F0A508"/>
<g opacity="0.5">
<path opacity="0.5" fill-rule="evenodd" clip-rule="evenodd" d="M130.813 22.9368C129.68 24.4153 128.315 24.8223 128.438 34.0188C128.561 43.2153 129.448 46.6877 125.885 53.6597C122.322 60.6317 115.415 67.4002 112.972 74.8198C110.528 82.2394 107.443 94.42 110.569 99.1539C113.695 103.888 125.08 106.221 140.6 106.641C156.121 107.062 173.143 104.539 182.713 101.582C192.282 98.6249 197.81 97.4041 199.981 94.7998C202.151 92.1955 191.326 69.9503 183.75 61.2692C176.174 52.5881 172.543 49.7125 163.998 42.5235C155.452 35.3345 151.712 32.4725 147.494 26.667C143.276 20.8615 142.184 20.5495 137.747 20.6174C135.242 20.6102 132.804 21.4256 130.813 22.9368V22.9368Z" fill="#E2CAB3"/>
<path opacity="0.5" fill-rule="evenodd" clip-rule="evenodd" d="M44.5957 81.3849C50.6156 67.5902 58.5603 61.31 60.7853 58.1902C66.9144 49.6041 70.5455 45.8468 78.6676 44.626C86.7897 43.4053 82.3396 43.446 91.5674 42.1574C100.795 40.8688 108.535 38.8748 114.773 34.0189C121.012 29.1629 124.233 25.3785 127.55 24.1984C130.868 23.0183 135.987 20.3869 132.355 24.1035C128.724 27.82 133.57 29.2307 126.745 39.3089C119.92 49.3871 116.671 54.5957 114.241 62.368C111.811 70.1403 109.3 94.393 103.744 96.3055C98.188 98.2181 84.9333 98.5572 72.6204 94.0132C63.0661 90.2864 53.712 86.0714 44.5957 81.3849V81.3849Z" fill="#E2CAB3"/>
<path opacity="0.5" fill-rule="evenodd" clip-rule="evenodd" d="M210.997 87.584C210.997 87.584 222.409 84.0438 228.961 78.3875C235.514 72.7312 242.066 67.4548 244.141 59.6825C246.216 51.9102 248.564 49.9706 246.025 47.6647C243.485 45.3588 229.903 33.1103 218.723 27.0743C207.543 21.0382 193.333 17.2267 180.693 14.5817C168.052 11.9366 161.35 13.483 154.757 13.2252C148.163 12.9675 137.721 20.5228 137.871 20.6041C141.521 24.0925 145.582 27.1303 149.965 29.6514C155.89 32.7441 169.704 37.9798 176.447 41.8592C183.191 45.7385 188.542 54.3111 190.098 58.3261C191.654 62.3411 193.838 63.589 196.063 71.2799C198.288 78.9708 204.458 91.3548 204.458 91.3548L210.997 87.584Z" fill="#E2CAB3"/>
<path opacity="0.5" fill-rule="evenodd" clip-rule="evenodd" d="M26.004 40.8557C26.004 40.8557 20.7349 54.9218 23.465 61.6903C25.3584 66.13 27.9375 70.2488 31.1094 73.898C31.1094 73.898 37.9347 80.3817 42.5895 73.6675C47.2444 66.9532 57.3322 51.273 65.3451 45.2234C73.358 39.1738 83.3366 37.8716 90.7352 36.9899C98.1338 36.1083 115.511 33.1377 120.316 29.2448C125.121 25.3519 137.871 20.6044 137.871 20.6044C132.355 18.0881 126.609 16.1032 120.712 14.6769C111.784 12.6422 97.5059 18.0815 85.9165 15.3686C74.3272 12.6558 63.0245 18.7733 50.1929 25.2841C41.6721 29.7361 33.5759 34.9481 26.004 40.8557V40.8557Z" fill="#E2CAB3"/>
<path opacity="0.5" fill-rule="evenodd" clip-rule="evenodd" d="M102.448 12.0586C102.448 12.0586 114.447 0.813914 122.596 1.01738C132.902 1.28866 136.247 3.54031 141.175 5.08663C146.785 6.82284 149.024 7.51462 147.577 9.7527C146.13 11.9908 139.304 21.9605 139.304 21.9605C139.304 21.9605 122.924 13.9712 116.917 13.0488C112.126 12.3543 107.289 12.0233 102.448 12.0586V12.0586Z" fill="#E2CAB3"/>
</g>
<path opacity="0.4" fill-rule="evenodd" clip-rule="evenodd" d="M220.457 24.5096C217.222 23.1532 213.973 22.0274 210.792 20.5217C207.067 18.6213 203.239 16.9277 199.326 15.4487C195.795 14.3722 192.171 13.623 188.501 13.2107C180.201 11.8542 172.584 8.44963 164.626 6.00808C160.063 4.61315 155.295 3.99854 150.525 4.19048C146.375 4.46176 142.212 4.46176 138.062 4.19048C133.967 3.75643 130.363 1.87101 126.377 0.826569C121.531 -0.448464 117.504 0.826568 113.204 3.11891C106.857 6.38788 100.523 10.3757 93.6427 12.4646C89.9683 13.6555 86.1228 14.2419 82.2581 14.2008C78.1629 14.0652 74.2589 13.2514 70.2319 12.9801C65.7957 12.5094 61.317 13.3194 57.3321 15.3131C54.3077 16.9059 51.4577 18.806 48.8278 20.9829C48.8141 21.2224 48.8141 21.4624 48.8278 21.7018C48.034 24.0063 47.7499 26.4538 47.9951 28.8773C48.1152 31.3502 48.767 33.7689 49.9066 35.9706C51.0463 38.1723 52.6473 40.1058 54.602 41.6412C57.4413 44.0285 60.4172 45.8596 62.7924 48.7217C65.1676 51.5837 66.8875 54.5678 69.6177 56.8602C74.0678 60.631 79.9785 60.9294 85.5752 60.9294C88.5238 60.9294 91.4586 60.7802 94.3935 60.9294C98.4218 61.3509 102.383 62.262 106.188 63.6423C114.05 66.0838 121.763 69.4613 129.885 71.0483C138.007 72.6353 146.061 70.7228 153.951 68.6203C161.841 66.5179 169.622 65.1072 177.348 63.0726C184.334 61.3662 190.964 58.4555 196.937 54.4729C203.312 49.8712 209.077 44.489 214.096 38.4536C216.02 36.2291 217.85 33.9232 219.747 31.6715C221.435 29.9747 222.563 27.808 222.982 25.4591C222.125 25.185 221.282 24.8681 220.457 24.5096V24.5096Z" fill="#E2CAB3"/>
<path fill-rule="evenodd" clip-rule="evenodd" d="M111.538 33.8291C110.91 33.9647 110.282 34.0733 109.696 34.1546H109.504C105.218 34.9821 100.973 36.0129 96.5636 35.6738C93.5878 35.4568 81.9575 35.7688 84.6876 41.0995C84.7198 41.1917 84.7198 41.2921 84.6876 41.3843C87.0901 42.9035 92.4275 42.2796 94.243 42.1439C95.7823 42.0394 97.3111 41.8172 98.816 41.4793C103.097 39.7921 107.169 37.6211 110.951 35.0092C111.196 34.6417 111.393 34.2453 111.538 33.8291Z" fill="#C66720"/>
<path fill-rule="evenodd" clip-rule="evenodd" d="M128.465 44.7615C128.748 41.9214 128.647 39.0566 128.165 36.2432C126.342 40.5477 124.004 44.619 121.203 48.3695C119.565 50.4177 117.395 52.1946 116.071 54.4734C115.361 55.6942 114.378 57.5118 114.897 59.0038C115.716 61.3504 117.163 61.3369 118.705 61.0249C121.354 59.3972 123.783 55.5992 125.094 53.646C126.306 51.8367 127.292 49.8871 128.029 47.8405C128.179 46.8232 128.315 45.8059 128.465 44.7615Z" fill="#C66720"/>
<path fill-rule="evenodd" clip-rule="evenodd" d="M172.106 36.6231C168.905 35.3279 165.638 34.2005 162.319 33.2456C160.292 32.7219 158.311 32.037 156.394 31.1975C154.923 30.3199 153.261 29.808 151.548 29.7054C151.445 29.6986 151.341 29.7186 151.248 29.7633C151.155 29.8081 151.074 29.8761 151.015 29.9608C150.956 30.0455 150.92 30.1439 150.911 30.2465C150.901 30.3491 150.919 30.4524 150.961 30.5464C151.097 30.978 151.364 31.3572 151.726 31.6315C153.761 34.4603 156.016 37.1269 158.469 39.6072C160.667 42.0759 162.564 44.7345 165.021 47.0268C168.352 50.2144 174.372 52.1541 177.785 47.7593C181.552 42.8626 176.42 38.4272 172.106 36.6231Z" fill="#C66720"/>
<path fill-rule="evenodd" clip-rule="evenodd" d="M158.346 12.5873C157.186 10.105 153.418 10.1729 150.92 10.7561C150.718 10.7824 150.517 10.8232 150.32 10.8782C146.863 12.6454 144.181 15.6146 142.785 19.2202V19.2202C146.88 18.013 149.897 15.1509 154.224 14.649C154.92 14.5677 159.138 14.2557 158.346 12.5873Z" fill="#C66720"/>
<path fill-rule="evenodd" clip-rule="evenodd" d="M100.577 17.0905C101.125 17.2641 101.694 17.3645 102.269 17.3889C103.621 17.1589 104.994 17.068 106.364 17.1176C106.897 17.091 107.43 17.091 107.962 17.1176C109.749 17.1888 111.531 17.3609 113.299 17.633L113.995 17.8229C114.967 17.9252 115.942 17.6587 116.725 17.0769C112.726 15.3271 101.71 11.1765 100.208 16.5343C100.187 16.6562 100.214 16.7813 100.282 16.8845C100.351 16.9877 100.456 17.0613 100.577 17.0905V17.0905Z" fill="#C66720"/>
<path fill-rule="evenodd" clip-rule="evenodd" d="M25.7039 75.7966C25.3843 76.5023 25.155 77.2451 25.0214 78.0076C24.8171 78.575 24.6975 79.1691 24.6665 79.7709C24.6729 79.8088 24.6883 79.8447 24.7113 79.8755C24.7343 79.9064 24.7643 79.9315 24.7989 79.9487C24.8335 79.9658 24.8717 79.9747 24.9103 79.9744C24.949 79.9742 24.9871 79.9649 25.0214 79.9473C25.4309 79.7167 25.4446 79.0249 25.5128 78.5908C25.6366 77.6691 25.8468 76.7609 26.1408 75.878C26.25 75.6745 25.8268 75.5389 25.7039 75.7966Z" fill="#C66720"/>
<path fill-rule="evenodd" clip-rule="evenodd" d="M28.2696 77.8985C27.921 78.5702 27.6683 79.287 27.5188 80.028C27.4096 80.4214 27.0956 81.0454 27.2185 81.3845C27.2262 81.4284 27.2474 81.4689 27.2792 81.5005C27.3109 81.532 27.3517 81.5531 27.3959 81.5608C27.9147 81.5608 27.9693 80.8826 28.0512 80.5164C28.2423 79.7161 28.4061 78.8886 28.6791 78.1019C28.7747 77.8713 28.4061 77.6543 28.2696 77.8985Z" fill="#C66720"/>
<path fill-rule="evenodd" clip-rule="evenodd" d="M40.6103 87.1497C40.4874 88.5061 40.0506 89.8625 40.0643 91.3003C40.0643 91.7073 40.7059 91.7751 40.7195 91.3003C40.9258 89.902 41.058 88.494 41.1154 87.0819C41.1017 86.8106 40.6376 86.8784 40.6103 87.1497Z" fill="#C66720"/>
<path fill-rule="evenodd" clip-rule="evenodd" d="M43.9954 87.8542C43.5491 88.9235 43.3351 90.0744 43.3675 91.2316C43.3675 91.6657 44.0636 91.7471 44.0773 91.2316C44.1176 90.1119 44.2408 88.9966 44.4459 87.8949C44.5005 87.6778 44.0909 87.61 43.9954 87.8542Z" fill="#C66720"/>
<path fill-rule="evenodd" clip-rule="evenodd" d="M99.1578 106.369C98.952 106.88 98.8055 107.413 98.721 107.956C98.5925 108.443 98.5372 108.946 98.5572 109.448C98.5752 109.503 98.6099 109.55 98.6565 109.583C98.703 109.617 98.7591 109.635 98.8166 109.635C98.8741 109.635 98.9301 109.617 98.9767 109.583C99.0232 109.55 99.058 109.503 99.0759 109.448C99.1914 109.005 99.251 108.55 99.2534 108.092C99.3353 107.522 99.3626 106.953 99.4718 106.383C99.4991 106.261 99.2261 106.22 99.1578 106.369Z" fill="#C66720"/>
<path fill-rule="evenodd" clip-rule="evenodd" d="M103.035 106.845C102.821 107.53 102.675 108.234 102.598 108.947C102.445 109.545 102.398 110.165 102.461 110.779C102.483 110.831 102.519 110.877 102.567 110.909C102.614 110.941 102.67 110.958 102.727 110.958C102.785 110.958 102.841 110.941 102.888 110.909C102.936 110.877 102.972 110.831 102.994 110.779C103.139 110.244 103.204 109.691 103.185 109.137C103.185 108.378 103.308 107.618 103.376 106.872C103.369 106.834 103.349 106.799 103.32 106.774C103.291 106.748 103.254 106.732 103.216 106.729C103.177 106.726 103.138 106.736 103.105 106.757C103.073 106.778 103.048 106.809 103.035 106.845V106.845Z" fill="#C66720"/>
<path fill-rule="evenodd" clip-rule="evenodd" d="M118.446 109.164C118.446 108.947 118.187 108.757 118.078 108.961C117.726 109.631 117.539 110.375 117.532 111.131C117.532 111.511 117.436 112.488 117.914 112.582C117.944 112.593 117.977 112.598 118.009 112.596C118.041 112.594 118.073 112.586 118.102 112.573C118.131 112.559 118.157 112.539 118.179 112.515C118.201 112.491 118.217 112.464 118.228 112.433C118.25 112.01 118.218 111.587 118.132 111.172C118.127 110.49 118.233 109.812 118.446 109.164V109.164Z" fill="#C66720"/>
<path fill-rule="evenodd" clip-rule="evenodd" d="M122.282 109.029C122.272 108.998 122.253 108.972 122.227 108.953C122.201 108.934 122.17 108.924 122.138 108.924C122.106 108.924 122.075 108.934 122.049 108.953C122.023 108.972 122.004 108.998 121.995 109.029C121.693 110.188 121.573 111.387 121.64 112.582C121.64 112.949 122.227 112.989 122.213 112.582C122.149 111.398 122.172 110.21 122.282 109.029V109.029Z" fill="#C66720"/>
<path fill-rule="evenodd" clip-rule="evenodd" d="M126.486 109.449C126.486 109.402 126.467 109.357 126.434 109.324C126.401 109.291 126.355 109.272 126.308 109.272C126.261 109.272 126.216 109.291 126.183 109.324C126.15 109.357 126.131 109.402 126.131 109.449C126.076 109.991 126.035 110.534 126.008 111.077C126.008 111.47 125.735 111.985 126.008 112.324C126.03 112.341 126.056 112.35 126.083 112.35C126.11 112.35 126.137 112.341 126.158 112.324C126.622 112.324 126.595 111.578 126.622 111.226C126.647 110.63 126.601 110.034 126.486 109.449V109.449Z" fill="#C66720"/>
<path fill-rule="evenodd" clip-rule="evenodd" d="M201.264 100.972C201.264 101.053 201.264 100.836 201.264 100.809C201.181 100.615 201.113 100.416 201.059 100.212C200.923 99.6832 200.895 99.1135 200.732 98.5845C200.732 98.4352 200.431 98.3539 200.39 98.5845C200.349 98.815 200.39 101.799 201.237 101.297C201.266 101.283 201.292 101.261 201.311 101.234C201.33 101.207 201.341 101.175 201.344 101.142C201.346 101.109 201.34 101.076 201.326 101.047C201.313 101.017 201.291 100.991 201.264 100.972V100.972Z" fill="#C66720"/>
<path fill-rule="evenodd" clip-rule="evenodd" d="M206.124 99.751C205.853 98.9201 205.525 98.1088 205.141 97.323C205.123 97.2673 205.083 97.2209 205.031 97.1942C204.978 97.1675 204.917 97.1626 204.861 97.1806C204.805 97.1986 204.758 97.238 204.731 97.2901C204.705 97.3423 204.7 97.4029 204.718 97.4587C204.921 98.3349 205.186 99.196 205.51 100.036C205.66 100.443 206.288 100.158 206.124 99.751Z" fill="#C66720"/>
<path fill-rule="evenodd" clip-rule="evenodd" d="M210.792 97.3495C210.318 96.6706 209.997 95.8979 209.85 95.0843C209.838 95.0343 209.809 94.9899 209.768 94.9581C209.727 94.9264 209.677 94.9092 209.625 94.9092C209.573 94.9092 209.523 94.9264 209.482 94.9581C209.441 94.9899 209.412 95.0343 209.4 95.0843C209.337 96.0568 209.628 97.0194 210.219 97.7971C210.478 98.2311 211.065 97.7428 210.792 97.3495Z" fill="#C66720"/>
<path fill-rule="evenodd" clip-rule="evenodd" d="M216.608 96.6854C216.149 96.3024 215.773 95.8308 215.503 95.2992C215.233 94.7676 215.075 94.187 215.038 93.5927C215.041 93.5601 215.034 93.5273 215.018 93.4987C215.002 93.47 214.978 93.4469 214.948 93.4322C214.919 93.4176 214.885 93.4121 214.853 93.4165C214.82 93.421 214.789 93.4351 214.765 93.4571C213.564 94.2981 215.366 96.4683 216.034 97.1059C216.376 97.4857 216.949 97.0245 216.608 96.6854Z" fill="#C66720"/>
<path fill-rule="evenodd" clip-rule="evenodd" d="M223.187 93.5922C222.466 92.3772 221.668 91.2084 220.799 90.0927C220.703 89.9299 220.389 89.9842 220.457 90.2012C220.881 91.5576 222.082 92.5207 222.669 93.8364C222.819 94.2026 223.338 93.9585 223.187 93.5922Z" fill="#C66720"/>
<path fill-rule="evenodd" clip-rule="evenodd" d="M228.619 89.4012C228.497 89.1435 228.169 88.9943 227.951 88.8315L226.872 88.0448C226.599 87.8414 226.313 87.6515 226.026 87.4616C225.739 87.2717 225.726 87.3802 225.603 87.3124C225.48 87.2445 225.493 87.3124 225.534 87.3124C225.575 87.3124 225.603 87.5294 225.698 87.6243C225.94 87.8733 226.195 88.1088 226.463 88.3297C226.804 88.6281 227.159 88.8994 227.514 89.1706C227.869 89.4419 228.06 89.6725 228.374 89.6725C228.408 89.6727 228.443 89.6656 228.475 89.6517C228.506 89.6378 228.535 89.6173 228.558 89.5917C228.581 89.5661 228.599 89.5358 228.609 89.503C228.62 89.4702 228.623 89.4355 228.619 89.4012V89.4012Z" fill="#C66720"/>
<path fill-rule="evenodd" clip-rule="evenodd" d="M233.248 86.0098C233.222 85.9309 233.176 85.8603 233.113 85.8054C233.051 85.7505 232.975 85.7133 232.893 85.6978C232.638 85.5805 232.404 85.425 232.197 85.2366C231.715 84.8177 231.301 84.3283 230.968 83.7853C230.818 83.5547 230.463 83.7853 230.572 84.043C230.863 84.6916 231.286 85.2735 231.814 85.7521C232.142 86.0505 232.756 86.5524 233.18 86.2675C233.216 86.2369 233.243 86.1956 233.255 86.1494C233.267 86.1033 233.265 86.0545 233.248 86.0098Z" fill="#C66720"/>
<path fill-rule="evenodd" clip-rule="evenodd" d="M248.66 68.566C248.597 68.4926 248.52 68.4331 248.433 68.391C248.346 68.349 248.251 68.3254 248.154 68.3218C247.851 68.2696 247.563 68.1541 247.308 67.9827C246.765 67.6097 246.358 67.0719 246.148 66.4499C246.148 66.2465 245.793 66.3686 245.807 66.5585C245.891 67.2905 246.258 67.9614 246.83 68.4303C247.226 68.7559 248.195 69.2849 248.646 68.8101C248.677 68.7775 248.695 68.7352 248.698 68.6905C248.7 68.6458 248.687 68.6017 248.66 68.566V68.566Z" fill="#C66720"/>
<path fill-rule="evenodd" clip-rule="evenodd" d="M251.676 65.1075C250.523 64.5147 249.551 63.6245 248.864 62.5303C248.741 62.3268 248.386 62.5303 248.509 62.7066C249.137 63.9589 250.164 64.9698 251.43 65.5822C251.703 65.6907 251.949 65.2296 251.676 65.1075Z" fill="#C66720"/>
<path fill-rule="evenodd" clip-rule="evenodd" d="M253.546 60.3193C253.022 59.9804 252.521 59.6089 252.044 59.207C251.58 58.7865 251.143 58.366 250.679 57.9862C250.502 57.8506 250.27 58.1083 250.42 58.2847C251.131 59.3826 252.119 60.2759 253.286 60.8754C253.357 60.8931 253.432 60.8856 253.498 60.8543C253.564 60.823 253.617 60.7699 253.648 60.704C253.678 60.6381 253.685 60.5636 253.667 60.4934C253.648 60.4232 253.605 60.3616 253.546 60.3193Z" fill="#C66720"/>
<path fill-rule="evenodd" clip-rule="evenodd" d="M22.3186 72.2153C21.1368 73.8247 20.3386 75.68 19.9844 77.641C19.9844 77.8038 20.2164 77.8173 20.2574 77.641C20.726 75.7785 21.5611 74.0267 22.7145 72.4866C22.8783 72.2289 22.4824 71.9576 22.3186 72.2153Z" fill="#C66720"/>
<path fill-rule="evenodd" clip-rule="evenodd" d="M20.1893 70.8722C19.889 71.0078 19.7662 71.2656 19.5614 71.5368C19.3567 71.8081 19.0017 72.3236 18.756 72.744C18.4078 73.2263 18.2215 73.8053 18.2237 74.3989C18.2237 74.6023 18.5376 74.5616 18.5513 74.3989C18.7099 73.7848 18.9985 73.2115 19.3976 72.7169C19.7252 72.215 20.3668 71.6453 20.4351 71.0485C20.4374 71.0184 20.432 70.9881 20.4192 70.9607C20.4064 70.9332 20.3867 70.9095 20.362 70.8918C20.3374 70.8741 20.3085 70.863 20.2783 70.8595C20.248 70.8561 20.2174 70.8605 20.1893 70.8722V70.8722Z" fill="#C66720"/>
<path fill-rule="evenodd" clip-rule="evenodd" d="M24.1343 75.2803C23.7502 75.8937 23.4387 76.5492 23.206 77.2336C22.9023 77.8722 22.6821 78.5468 22.5508 79.2411C22.5508 79.4174 22.8101 79.4716 22.8511 79.2411C23.0261 78.5725 23.278 77.9262 23.6019 77.315C24.0005 76.6985 24.2784 76.0128 24.4209 75.2939C24.4227 75.2561 24.4094 75.2192 24.3838 75.1912C24.3582 75.1632 24.3224 75.1465 24.2844 75.1447C24.2464 75.1429 24.2092 75.1562 24.1811 75.1816C24.1529 75.207 24.1361 75.2426 24.1343 75.2803V75.2803Z" fill="#C66720"/>
<path fill-rule="evenodd" clip-rule="evenodd" d="M31.5325 80.0283C30.5087 80.3403 30.0309 81.6831 29.7579 82.6191C29.7476 82.6673 29.7552 82.7175 29.7794 82.7605C29.8036 82.8035 29.8426 82.8364 29.8893 82.8529C29.936 82.8695 29.9872 82.8687 30.0333 82.8506C30.0794 82.8326 30.1174 82.7985 30.1401 82.7547C30.3037 82.2807 30.5188 81.8259 30.7817 81.3983C31.041 80.9914 31.4096 80.6523 31.6826 80.2453C31.7372 80.164 31.6553 80.0283 31.5325 80.0283Z" fill="#C66720"/>
<path fill-rule="evenodd" clip-rule="evenodd" d="M33.7985 84.0978C33.2661 84.2877 32.9795 84.9523 32.7337 85.4542C32.4549 86.0376 32.3282 86.6813 32.3652 87.326C32.3652 87.5431 32.6928 87.5838 32.7064 87.326C32.7522 86.7866 32.8907 86.259 33.116 85.7662C33.3344 85.2372 33.8667 84.8302 34.0169 84.3012C34.0273 84.2715 34.0288 84.2394 34.0213 84.2088C34.0137 84.1783 33.9973 84.1505 33.9742 84.129C33.9511 84.1075 33.9222 84.093 33.891 84.0875C33.8598 84.082 33.8277 84.0855 33.7985 84.0978Z" fill="#C66720"/>
<path fill-rule="evenodd" clip-rule="evenodd" d="M35.9958 85.5218C35.5582 86.2153 35.227 86.9696 35.0129 87.7599C34.7207 88.4966 34.5012 89.2598 34.3577 90.0387C34.3468 90.0855 34.3551 90.1346 34.3807 90.1753C34.4063 90.216 34.4471 90.2449 34.4942 90.2557C34.5413 90.2665 34.5907 90.2583 34.6317 90.2329C34.6726 90.2074 34.7017 90.1669 34.7126 90.1201C34.9158 89.3648 35.1759 88.6257 35.4907 87.9091C35.8761 87.1894 36.1521 86.4169 36.3097 85.6168C36.316 85.5963 36.3182 85.5748 36.3161 85.5535C36.314 85.5322 36.3077 85.5115 36.2975 85.4926C36.2874 85.4737 36.2736 85.457 36.257 85.4434C36.2403 85.4298 36.2211 85.4196 36.2005 85.4133C36.1799 85.4071 36.1583 85.4049 36.1368 85.407C36.1154 85.4091 36.0945 85.4154 36.0755 85.4254C36.0565 85.4355 36.0397 85.4492 36.026 85.4657C36.0123 85.4823 36.002 85.5013 35.9958 85.5218V85.5218Z" fill="#C66720"/>
<path fill-rule="evenodd" clip-rule="evenodd" d="M38.0029 87.706C37.527 88.7655 37.3297 89.9276 37.4295 91.0835C37.4295 91.3141 37.7845 91.3412 37.7845 91.0835C37.7845 89.9577 38.2895 88.8454 38.2213 87.7332C38.2137 87.7117 38.2003 87.6928 38.1825 87.6785C38.1647 87.6642 38.1432 87.6551 38.1205 87.6523C38.0978 87.6495 38.0748 87.653 38.054 87.6625C38.0332 87.672 38.0155 87.6871 38.0029 87.706V87.706Z" fill="#C66720"/>
<path fill-rule="evenodd" clip-rule="evenodd" d="M107.007 107.889C106.524 109.145 106.341 110.497 106.474 111.836C106.474 112.012 106.788 111.998 106.802 111.836C106.802 111.185 106.897 110.479 106.979 109.896C107.137 109.252 107.215 108.592 107.211 107.929C107.211 107.794 107.048 107.807 107.007 107.889Z" fill="#C66720"/>
<path fill-rule="evenodd" clip-rule="evenodd" d="M110.569 110.493C110.569 109.869 110.87 109.313 110.924 108.689C110.917 108.668 110.903 108.65 110.884 108.638C110.866 108.625 110.844 108.618 110.822 108.618C110.8 108.618 110.778 108.625 110.76 108.638C110.741 108.65 110.727 108.668 110.72 108.689C110.323 109.324 110.092 110.047 110.046 110.793C110.001 111.539 110.143 112.284 110.46 112.962C110.556 113.165 110.829 112.962 110.76 112.826C110.517 112.073 110.451 111.275 110.569 110.493V110.493Z" fill="#C66720"/>
<path fill-rule="evenodd" clip-rule="evenodd" d="M113.846 110.954C113.888 110.335 113.833 109.712 113.682 109.11C113.667 109.081 113.644 109.058 113.616 109.041C113.589 109.024 113.557 109.016 113.525 109.016C113.493 109.016 113.461 109.024 113.433 109.041C113.405 109.058 113.383 109.081 113.368 109.11C113.252 109.724 113.252 110.354 113.368 110.968C113.407 111.676 113.531 112.377 113.736 113.057C113.736 113.287 114.16 113.233 114.105 113.057C113.961 112.364 113.874 111.661 113.846 110.954V110.954Z" fill="#C66720"/>
<path fill-rule="evenodd" clip-rule="evenodd" d="M236.688 80.0282C236.688 79.879 236.483 79.7976 236.415 79.9196C236.302 80.096 236.242 80.3007 236.242 80.5097C236.242 80.7187 236.302 80.9234 236.415 81.0997C236.633 81.5202 237.165 82.1442 237.684 82.0763C237.725 82.0666 237.761 82.0414 237.784 82.006C237.807 81.9706 237.815 81.9277 237.807 81.8865C237.671 81.154 236.51 80.8556 236.688 80.0282Z" fill="#C66720"/>
<path fill-rule="evenodd" clip-rule="evenodd" d="M241.616 77.8448C241.479 77.6278 241.356 77.6006 241.111 77.5193C240.775 77.4148 240.477 77.2171 240.251 76.9496C239.814 76.4375 239.51 75.8277 239.363 75.1727C239.358 75.1459 239.347 75.1205 239.332 75.0979C239.317 75.0753 239.297 75.0558 239.274 75.0407C239.252 75.0256 239.226 75.0151 239.199 75.0098C239.172 75.0045 239.144 75.0045 239.118 75.0099C239.091 75.0152 239.065 75.0258 239.042 75.0409C239.02 75.0561 239 75.0756 238.985 75.0983C238.97 75.1209 238.959 75.1464 238.954 75.1731C238.948 75.1998 238.948 75.2273 238.954 75.254C239.077 76.0026 239.381 76.7102 239.841 77.3158C240.182 77.7363 241.083 78.4281 241.629 78.0483C241.648 78.0171 241.658 77.9808 241.655 77.9444C241.653 77.9079 241.639 77.8731 241.616 77.8448V77.8448Z" fill="#C66720"/>
<path fill-rule="evenodd" clip-rule="evenodd" d="M243.936 73.2461C243.512 72.8257 243.062 72.4052 242.666 71.9576C242.502 71.7677 242.161 71.9576 242.284 72.1881C242.593 72.734 242.969 73.2398 243.403 73.6938C243.772 74.0736 244.181 74.684 244.768 74.7246C244.797 74.727 244.826 74.7229 244.853 74.7126C244.88 74.7023 244.904 74.6861 244.923 74.6653C244.943 74.6444 244.958 74.6194 244.966 74.5921C244.975 74.5648 244.977 74.5359 244.973 74.5076C244.891 73.9786 244.345 73.6259 243.936 73.2461Z" fill="#C66720"/>
<path opacity="0.4" fill-rule="evenodd" clip-rule="evenodd" d="M144.177 26.0292C144.177 29.7593 138.43 32.8112 131.318 32.8112C124.206 32.8112 118.459 29.7864 118.459 26.0292C118.459 22.2719 124.206 19.2471 131.318 19.2471C138.43 19.2471 144.177 22.299 144.177 26.0292Z" fill="#DA840D"/>
<path fill-rule="evenodd" clip-rule="evenodd" d="M214.587 82.741C185.593 75.4299 173.458 91.4763 173.935 110.358C174.127 117.737 180.897 127.91 185.347 135.601C189.295 141.745 193.899 147.448 199.08 152.61C202.356 154.929 206.724 157.602 211.106 157.602C212.786 157.437 214.392 156.833 215.761 155.852C216.402 155.976 217.023 156.191 217.604 156.489C219.679 157.195 220.593 154.319 222.859 155.336C226.477 156.978 229.603 153.641 232.305 151.823C233.179 151.24 241.861 137.866 242.803 137.16C251.744 125.753 256.249 122.389 256.344 108.54C256.453 91.2321 247.703 75.7283 214.587 82.741Z" fill="#C73A54"/>
<g style="mix-blend-mode:multiply">
<path fill-rule="evenodd" clip-rule="evenodd" d="M225.576 87.2711C225.576 89.2515 220.471 90.9877 214.069 91.1504C207.667 91.3132 202.438 89.794 202.384 87.8543C202.329 85.9147 207.489 84.0971 213.891 83.975C220.293 83.8529 225.521 85.2907 225.576 87.2711Z" fill="#ED6366"/>
</g>
<path fill-rule="evenodd" clip-rule="evenodd" d="M196.323 93.6745C193.77 89.8358 188.542 90.9617 185.307 93.2133L185.143 93.3354C184.392 93.8396 183.712 94.4418 183.123 95.1259C180.822 97.5521 179.363 100.647 178.959 103.956C178.563 108.025 179.942 112.542 183.478 114.346C183.577 114.397 183.659 114.478 183.71 114.577C183.845 114.549 183.978 114.508 184.106 114.455C186.099 113.641 186.003 110.386 186.017 108.731C186.017 105.055 189.088 103.427 191.9 101.854C194.48 100.375 198.562 97.052 196.323 93.6745Z" fill="#ED6366"/>
<g style="mix-blend-mode:multiply">
<path fill-rule="evenodd" clip-rule="evenodd" d="M242.516 125.007C240.113 121.928 236.51 125.685 234.79 127.584C230.79 131.993 228.292 137.432 223.569 141.257C218.846 145.082 210.273 142.301 206.601 147.863C206.43 148.131 206.313 148.43 206.258 148.742C206.202 149.055 206.21 149.376 206.28 149.686C206.349 149.996 206.48 150.289 206.664 150.549C206.848 150.809 207.082 151.03 207.352 151.199C207.734 151.348 208.133 151.448 208.54 151.498C209.389 151.971 210.311 152.301 211.27 152.474C214.264 152.863 217.305 152.293 219.951 150.847C222.354 149.707 225.07 151.037 227.459 149.911C228.342 149.432 229.103 148.76 229.684 147.944C230.45 147.062 231.093 146.081 231.595 145.028C232.797 143.052 234.167 141.182 235.691 139.439C237.542 137.351 239.218 135.114 240.7 132.752C242.475 130.216 244.086 127.042 242.516 125.007Z" fill="#ED6366"/>
</g>
<path fill-rule="evenodd" clip-rule="evenodd" d="M241.752 56.9695C240.141 56.427 237.179 58.8685 235.923 59.6146C233.057 61.3236 230.149 63.0463 227.392 64.9182C223.203 67.8372 219.732 71.6577 217.236 76.095C216.195 77.9846 215.497 80.0416 215.174 82.1718C214.75 83.2901 214.538 84.4764 214.546 85.6713C214.539 85.7551 214.548 85.8395 214.574 85.9197C214.599 85.9999 214.64 86.0743 214.695 86.1386C214.75 86.2029 214.816 86.2559 214.892 86.2944C214.967 86.3329 215.049 86.3563 215.133 86.3631C222.123 86.4445 229.275 81.9005 234.162 77.3294C236.723 75.0862 238.751 72.3066 240.1 69.1909C240.773 67.4337 241.276 65.617 241.602 63.7652C241.984 61.7848 241.411 59.384 242.052 57.5528C242.087 57.4359 242.076 57.31 242.02 57.2014C241.964 57.0928 241.868 57.0098 241.752 56.9695V56.9695Z" fill="#8DB54F"/>
<path fill-rule="evenodd" clip-rule="evenodd" d="M213.372 86.1187C213.372 84.179 213.959 82.9718 214.519 76.8679C215.078 70.764 214.969 67.7121 215.379 66.7084C215.788 65.7046 219.064 67.8342 219.064 67.8342C219.064 67.8342 218.013 72.5138 217.235 76.3525C216.457 80.1911 215.679 87.0953 215.679 87.0953C215.679 87.0953 215.256 88.2211 214.232 87.9363C213.208 87.6514 213.372 86.1187 213.372 86.1187Z" fill="#300D33"/>
</g>
<defs>
<clipPath id="clip0_1337_3235">
<rect width="257" height="161.169" fill="white"/>
</clipPath>
</defs>
</svg>
