<svg width="151" height="135" viewBox="0 0 151 135" fill="none" xmlns="http://www.w3.org/2000/svg">
    <path d="M147.345 15.5757C141.391 6.00166 120.411 0 69.9458 0C52.7932 0 35.3571 2.00055 19.1968 8.14511C13.9518 10.2886 0.484896 15.8615 0.0596256 29.4367C-0.0821313 32.2947 1.61895 34.7239 2.18598 37.5818L4.17058 45.4412C4.17058 45.1554 4.17058 45.0125 4.17058 44.7267C14.6606 93.7403 77.8842 89.5963 114.316 75.7353C127.924 70.591 138.414 63.3033 144.935 49.871C147.487 44.5838 149.897 37.296 150.747 31.4373C151.031 29.5796 150.605 28.0078 150.889 26.1501C150.605 22.149 149.188 18.5766 147.345 15.5757Z" fill="#688EAD"/>
    <path d="M15.369 27.0062C17.6371 26.4346 20.047 26.4346 22.1734 25.863C25.292 25.0057 27.7019 22.7193 30.2535 20.8616C34.648 17.8608 39.7512 15.8603 44.9962 15.2887C50.5247 14.5742 56.3368 15.2887 61.8653 14.4313C67.5356 13.5739 73.0641 11.1447 78.8761 11.4305C84.4047 11.7163 89.5079 14.2884 95.0364 14.7171C101.274 15.2887 107.936 13.0023 113.89 15.4316C116.725 16.5747 119.135 18.7182 122.112 19.5756C124.097 20.1472 126.223 20.1472 128.208 20.2901C132.744 20.8616 136.855 23.148 140.966 25.2914C144.084 27.0062 147.345 28.8639 148.762 32.1505C150.463 36.2945 148.337 41.153 145.218 44.4396C139.69 50.4413 131.61 53.1563 123.671 55.1569C106.235 59.4438 88.0903 60.3012 70.0872 60.7298C56.195 61.1585 42.1611 61.3014 28.4107 58.5864C23.3074 57.5861 18.0624 56.0143 14.3767 52.4418C7.99767 45.8686 2.89442 30.4357 15.369 27.0062Z" fill="#F4D09F"/>
    <path d="M117.292 22.5771C117.009 23.5773 116.017 24.2918 115.166 24.8634C113.748 25.8637 112.047 26.7211 110.346 27.4355C109.637 27.7213 108.929 28.0071 108.362 28.5787C107.795 29.1503 107.653 30.1506 108.22 30.5793C108.503 30.8651 108.787 30.8651 109.07 31.008C111.197 31.4367 113.04 30.0077 115.166 29.7219C116.725 29.4361 118.285 29.7219 119.844 29.8648C121.403 29.8648 123.104 29.7219 124.238 28.7216C124.664 28.4358 124.947 28.0071 124.947 27.4355C124.947 26.864 124.664 26.4353 124.097 26.2924C126.081 27.1497 128.349 27.4355 130.617 27.2926C131.185 27.2926 131.893 27.0069 132.177 26.4353C132.319 26.1495 132.177 25.8637 132.177 25.5779C131.752 23.8631 129.767 23.0057 128.066 22.7199C126.365 22.4342 124.522 22.4342 123.104 21.4339C122.396 21.0052 121.97 20.2907 121.262 19.862C119.986 19.0046 117.292 18.433 116.016 19.4333C116.867 20.1478 117.718 21.291 117.292 22.5771Z" fill="#F2C194"/>
    <path d="M90.6418 33.2942C90.0748 34.4374 88.799 34.8661 87.5232 35.2948C85.6803 36.0093 84.121 36.8667 82.7034 38.1527C82.5617 38.2956 82.4199 38.4385 82.2781 38.7243C81.8529 39.5817 82.9869 40.2962 83.9792 40.1533C84.8298 40.0104 85.6803 39.4388 86.5309 39.4388C87.6649 39.4388 88.5155 40.1533 89.5078 40.4391C90.2165 40.582 91.0671 40.582 91.7759 40.4391C95.3198 40.0104 98.722 39.5817 102.266 39.153C103.542 39.0101 105.101 38.7243 105.81 37.5812C105.952 37.2954 106.093 37.0096 106.093 36.7238C105.952 36.1522 105.385 35.8664 104.959 35.7235C103.4 35.2948 101.699 35.1519 100.14 35.2948C99.856 33.8658 102.691 33.58 102.833 32.0082C100.423 31.4366 97.8714 31.0079 95.4615 30.4363C92.9099 29.8647 90.3583 29.436 87.9484 29.7218C89.2242 30.2934 91.6341 31.2937 90.6418 33.2942Z" fill="#F2C194"/>
    <path d="M107.227 43.4392C109.353 42.2961 111.054 40.2955 111.48 37.8663C115.449 37.8663 119.843 37.8663 122.962 35.2941C123.671 34.7225 124.238 34.008 124.947 33.5794C125.797 33.0078 126.931 32.8649 128.065 32.722C131.042 32.2933 133.877 31.8646 136.854 31.293C137.138 31.293 137.563 31.1501 137.846 31.293C138.414 31.5788 138.555 32.4362 138.414 33.0078C137.846 35.1512 135.72 36.5802 133.594 37.1518C131.467 37.7234 129.199 37.8663 127.073 38.5807C125.088 39.2952 123.387 40.7242 121.686 41.8674C119.276 43.4392 116.725 44.7253 113.89 45.7256C108.078 47.7261 101.84 47.869 95.6029 48.0119C92.3425 48.1548 89.2239 48.1548 86.1052 47.5832C89.2239 45.154 93.6183 46.2972 97.1623 46.0114C100.423 45.5827 104.25 45.154 107.227 43.4392Z" fill="#F2C194"/>
    <path d="M50.5247 29.4373C51.3752 29.5802 52.3675 29.5802 53.218 29.2944C54.0686 29.0086 54.9191 28.2941 54.9191 27.4367C54.9191 26.7223 54.6356 26.1507 54.0686 25.5791C53.5016 25.1504 52.9345 24.8646 52.2257 24.5788C49.6741 23.7214 43.8621 22.864 42.5863 26.1507C41.4522 29.7231 48.8236 29.2944 50.5247 29.4373Z" fill="#BF9777"/>
    <path d="M45.4214 28.4372C48.8662 28.4372 51.6587 25.6222 51.6587 22.1498C51.6587 18.6773 48.8662 15.8623 45.4214 15.8623C41.9766 15.8623 39.1841 18.6773 39.1841 22.1498C39.1841 25.6222 41.9766 28.4372 45.4214 28.4372Z" fill="#600C4E"/>
    <path d="M48.6814 16.0045L48.8232 16.1474C48.8232 16.1474 48.9649 16.1474 49.1067 16.1474C49.5319 16.0045 49.9572 15.8616 50.2407 15.7187C50.2407 16.0045 50.099 16.2903 50.099 16.5761C50.5242 16.5761 51.0913 16.5761 51.5165 16.5761C51.3748 16.8619 51.0913 17.1477 50.9495 17.4335C51.233 17.4335 51.6583 17.4335 51.9418 17.4335C52.0836 17.4335 52.2253 17.4335 52.2253 17.5764C52.2253 17.5764 52.2253 17.7193 52.0836 17.7193C51.6583 18.148 51.233 18.5767 50.8078 18.8625C50.666 19.0054 50.3825 19.1483 50.099 19.2911C49.8155 19.2911 49.6737 19.1483 49.3902 19.1483C48.6814 18.8625 47.5473 18.148 47.2638 17.4335C46.9803 16.719 47.6891 15.8616 48.1144 15.29C48.5396 15.7187 48.5396 15.8616 48.6814 16.0045Z" fill="#600C4E"/>
    <path opacity="0.33" d="M43.4366 17.5762C42.7278 18.0049 42.1608 18.5765 42.019 19.4339C42.019 19.5768 42.019 19.8626 42.019 20.0055C42.019 20.2913 42.3026 20.4342 42.4443 20.577C42.5861 20.7199 42.7278 20.8628 42.8696 20.7199C43.1531 20.7199 43.2949 20.4342 43.4366 20.1484C44.0036 19.291 44.9959 18.7194 45.9882 19.0052C46.2717 19.0052 46.5553 19.1481 46.697 18.8623C46.697 18.8623 46.697 18.7194 46.697 18.5765C46.8388 16.8617 44.5707 17.1475 43.4366 17.5762Z" fill="white"/>
    <path d="M34.7899 42.1551C35.6404 42.298 36.6327 42.298 37.4832 42.0122C38.3338 41.7264 39.1843 41.0119 39.1843 40.1545C39.1843 39.44 38.9008 38.8684 38.3338 38.2968C37.7667 37.8682 37.1997 37.5824 36.4909 37.2966C33.9393 36.4392 28.1273 35.5818 26.8515 38.8684C25.7174 42.4409 32.947 42.0122 34.7899 42.1551Z" fill="#BF9777"/>
    <path d="M35.6983 36.3365C36.4968 32.9585 34.4275 29.5676 31.0765 28.7626C27.7254 27.9577 24.3615 30.0436 23.563 33.4216C22.7645 36.7997 24.8338 40.1906 28.1848 40.9955C31.5359 41.8004 34.8998 39.7145 35.6983 36.3365Z" fill="#600C4E"/>
    <path d="M32.8049 28.7233L32.9467 28.8662C32.9467 28.8662 33.0885 28.8662 33.2302 28.8662C33.6555 28.7233 34.0808 28.5804 34.3643 28.4375C34.3643 28.7233 34.2225 29.0091 34.2225 29.2949C34.6478 29.2949 35.2148 29.2949 35.6401 29.2949C35.4983 29.5807 35.2148 29.8664 35.073 30.1522C35.3566 30.1522 35.7818 30.1522 36.0653 30.1522C36.2071 30.1522 36.3489 30.1522 36.3489 30.2951C36.3489 30.2951 36.3489 30.438 36.2071 30.438C35.7818 30.8667 35.3566 31.2954 34.9313 31.5812C34.7895 31.7241 34.506 31.867 34.2225 32.0099C33.939 32.0099 33.7972 31.867 33.5137 31.867C32.8049 31.5812 31.6709 30.8667 31.3874 30.1522C31.1039 29.4378 31.8126 28.5804 32.2379 28.0088C32.6632 28.4375 32.8049 28.5804 32.8049 28.7233Z" fill="#600C4E"/>
    <path opacity="0.33" d="M27.7013 30.294C26.9925 30.7227 26.4254 31.2943 26.2837 32.1517C26.2837 32.2945 26.2837 32.5803 26.2837 32.7232C26.2837 33.009 26.5672 33.1519 26.709 33.2948C26.8507 33.4377 26.9925 33.5806 27.1342 33.4377C27.4177 33.4377 27.5595 33.1519 27.7013 32.8661C28.2683 32.0088 29.2606 31.4372 30.2529 31.723C30.5364 31.723 30.8199 31.8659 30.9617 31.5801C30.9617 31.5801 30.9617 31.4372 30.9617 31.2943C31.1034 29.5795 28.6936 29.8653 27.7013 30.294Z" fill="white"/>
    <path d="M91.3504 45.0154C92.2009 45.1583 93.1932 45.1583 94.0438 44.8725C94.8943 44.5867 95.7449 43.8722 95.7449 43.0149C95.7449 42.3004 95.4614 41.7288 94.8943 41.1572C94.3273 40.7285 93.7603 40.4427 93.0515 40.1569C90.4999 39.2995 84.6878 38.4422 83.412 41.7288C82.278 45.3012 89.5076 44.8725 91.3504 45.0154Z" fill="#BF9777"/>
    <path d="M88.1843 43.7098C91.4607 42.6375 93.2543 39.0909 92.1906 35.7883C91.1268 32.4856 87.6085 30.6775 84.3322 31.7498C81.0559 32.8221 79.2622 36.3687 80.326 39.6714C81.3897 42.9741 84.908 44.7821 88.1843 43.7098Z" fill="#600C4E"/>
    <path d="M89.5073 31.5807L89.6491 31.7236C89.6491 31.7236 89.7909 31.7236 89.9326 31.7236C90.3579 31.5807 90.7832 31.4378 91.0667 31.2949C91.0667 31.5807 90.9249 31.8665 90.9249 32.1523C91.3502 32.1523 91.9172 32.1523 92.3425 32.1523C92.2007 32.4381 91.9172 32.7239 91.7755 33.0097C92.059 33.0097 92.4843 33.0097 92.7678 33.0097C92.9095 33.0097 93.0513 33.0097 93.0513 33.1526C93.0513 33.1526 93.0513 33.2955 92.9095 33.2955C92.4843 33.7241 92.059 34.1528 91.6337 34.4386C91.492 34.5815 91.2084 34.7244 90.9249 34.8673C90.6414 34.8673 90.4996 34.7244 90.2161 34.7244C89.5073 34.4386 88.3733 33.7241 88.0898 33.0097C87.8062 32.2952 88.515 31.4378 88.9403 30.8662C89.2238 31.152 89.3656 31.4378 89.5073 31.5807Z" fill="#600C4E"/>
    <path opacity="0.33" d="M84.2625 33.1533C83.5538 33.582 82.9867 34.1536 82.845 35.011C82.845 35.1539 82.845 35.4397 82.845 35.5826C82.845 35.8684 83.1285 36.0113 83.2702 36.1541C83.412 36.297 83.5538 36.4399 83.6955 36.297C83.979 36.297 84.1208 36.0113 84.2625 35.7255C84.8296 34.8681 85.8219 34.2965 86.8142 34.5823C87.0977 34.5823 87.3812 34.7252 87.5229 34.4394C87.5229 34.4394 87.5229 34.2965 87.5229 34.1536C87.6647 32.4388 85.2548 32.5817 84.2625 33.1533Z" fill="white"/>
    <path d="M105.527 31.865C106.377 32.0079 107.369 32.0079 108.22 31.7221C109.07 31.4363 109.921 30.7219 109.921 29.8645C109.921 29.15 109.637 28.5784 109.07 28.0068C108.503 27.5781 107.936 27.2923 107.228 27.0065C104.676 26.1492 98.8639 25.2918 97.5881 28.5784C96.3123 32.1508 103.684 31.7221 105.527 31.865Z" fill="#BF9777"/>
    <path d="M100.423 30.8659C103.868 30.8659 106.66 28.0509 106.66 24.5785C106.66 21.106 103.868 18.291 100.423 18.291C96.9783 18.291 94.1858 21.106 94.1858 24.5785C94.1858 28.0509 96.9783 30.8659 100.423 30.8659Z" fill="#600C4E"/>
    <path d="M103.542 18.4332L103.684 18.5761C103.684 18.5761 103.826 18.5761 103.968 18.5761C104.393 18.4332 104.818 18.2903 105.102 18.1474C105.102 18.4332 104.96 18.719 104.96 19.0048C105.385 19.0048 105.952 19.0048 106.377 19.0048C106.236 19.2906 105.952 19.5764 105.81 19.8622C106.094 19.8622 106.519 19.8622 106.803 19.8622C106.944 19.8622 107.086 19.8622 107.086 20.0051C107.086 20.0051 107.086 20.148 106.944 20.148C106.519 20.5767 106.094 21.0054 105.669 21.2912C105.527 21.4341 105.243 21.577 104.96 21.7199C104.676 21.7199 104.535 21.577 104.251 21.577C103.542 21.2912 102.408 20.5767 102.125 19.8622C101.841 19.1477 102.55 18.2903 102.975 17.7188C103.4 18.1474 103.542 18.2903 103.542 18.4332Z" fill="#600C4E"/>
    <path opacity="0.33" d="M98.2972 20.0049C97.5884 20.4336 97.0214 21.0052 96.8796 21.8625C96.8796 22.0054 96.8796 22.2912 96.8796 22.4341C96.8796 22.7199 97.1632 22.8628 97.3049 23.0057C97.4467 23.1486 97.5884 23.2915 97.7302 23.1486C98.0137 23.1486 98.1555 22.8628 98.2972 22.577C98.8642 21.7197 99.8565 21.1481 100.849 21.4339C101.132 21.4339 101.416 21.5768 101.558 21.291C101.558 21.291 101.558 21.1481 101.558 21.0052C101.841 19.2904 99.4313 19.4333 98.2972 20.0049Z" fill="white"/>
    <path d="M78.7342 19.4353C79.5847 19.5782 80.577 19.5782 81.4276 19.2924C82.2781 19.0066 83.1287 18.2922 83.1287 17.4348C83.1287 16.7203 82.8451 16.1487 82.2781 15.5771C81.7111 15.1484 81.1441 14.8626 80.4353 14.5768C77.8836 13.7195 72.0716 12.8621 70.7958 16.1487C69.6617 19.7211 76.8913 19.2924 78.7342 19.4353Z" fill="#BF9777"/>
    <path d="M79.6942 13.623C80.4786 10.2419 78.3953 6.85998 75.0412 6.0693C71.687 5.27861 68.332 7.37859 67.5477 10.7597C66.7633 14.1409 68.8465 17.5228 72.2007 18.3135C75.5549 19.1042 78.9098 17.0042 79.6942 13.623Z" fill="#600C4E"/>
    <path d="M76.8919 6.00062L77.0336 6.14351C77.0336 6.14351 77.1754 6.14351 77.3171 6.14351C77.7424 6.00062 78.1677 5.85772 78.4512 5.71482C78.4512 6.00062 78.3094 6.28641 78.3094 6.5722C78.7347 6.5722 79.3017 6.5722 79.727 6.5722C79.5852 6.858 79.3017 7.14379 79.16 7.42958C79.4435 7.42958 79.8688 7.42958 80.1523 7.42958C80.294 7.42958 80.4358 7.42958 80.4358 7.57248C80.4358 7.57248 80.4358 7.71538 80.294 7.71538C79.8688 8.14407 79.4435 8.57276 79.0182 8.85855C78.8765 9.00145 78.5929 9.14434 78.3094 9.28724C78.0259 9.28724 77.8842 9.14434 77.6006 9.14434C76.8919 8.85855 75.7578 8.14407 75.4743 7.42958C75.1908 6.7151 75.8996 5.85772 76.3248 5.28613C76.6083 5.71482 76.7501 5.85772 76.8919 6.00062Z" fill="#600C4E"/>
    <path opacity="0.33" d="M71.6471 7.57427C70.9383 8.00296 70.3712 8.57454 70.2295 9.43192C70.2295 9.57482 70.2295 9.86061 70.2295 10.0035C70.2295 10.2893 70.513 10.4322 70.6548 10.5751C70.7965 10.718 70.9383 10.8609 71.08 10.718C71.3636 10.718 71.5053 10.4322 71.6471 10.1464C72.2141 9.28903 73.2064 8.71744 74.1987 9.00323C74.4822 9.00323 74.7657 9.14613 74.9075 8.86034C74.9075 8.86034 74.9075 8.71744 74.9075 8.57454C75.0492 6.85978 72.6394 7.14558 71.6471 7.57427Z" fill="white"/>
    <path d="M131.893 48.157C132.744 48.2999 133.736 48.2999 134.587 48.0141C135.437 47.7283 136.288 47.0138 136.288 46.1565C136.288 45.442 136.004 44.8704 135.437 44.2988C134.87 43.8701 134.303 43.5843 133.594 43.2985C131.043 42.4411 125.231 41.5838 123.955 44.8704C122.821 48.4428 130.051 48.0141 131.893 48.157Z" fill="#BF9777"/>
    <path d="M132.938 42.1395C133.662 38.7448 131.519 35.4009 128.152 34.6706C124.784 33.9404 121.467 36.1003 120.742 39.495C120.018 42.8897 122.161 46.2336 125.528 46.9639C128.896 47.6941 132.213 45.5342 132.938 42.1395Z" fill="#600C4E"/>
    <path d="M129.908 34.7252L130.05 34.8681C130.05 34.8681 130.192 34.8681 130.334 34.8681C130.759 34.7252 131.184 34.5823 131.468 34.4394C131.468 34.7252 131.326 35.011 131.326 35.2968C131.751 35.2968 132.318 35.2968 132.744 35.2968C132.602 35.5826 132.318 35.8684 132.177 36.1542C132.46 36.1542 132.885 36.1542 133.169 36.1542C133.311 36.1542 133.452 36.1542 133.452 36.2971C133.452 36.2971 133.452 36.44 133.311 36.44C132.885 36.8687 132.46 37.2974 132.035 37.5832C131.893 37.7261 131.61 37.869 131.326 38.0119C131.043 38.0119 130.901 37.869 130.617 37.869C129.908 37.5832 128.774 36.8687 128.491 36.1542C128.207 35.4397 128.916 34.5823 129.341 34.0107C129.767 34.2965 129.908 34.5823 129.908 34.7252Z" fill="#600C4E"/>
    <path opacity="0.33" d="M124.806 36.2959C124.097 36.7246 123.53 37.2962 123.389 38.1536C123.389 38.2965 123.389 38.5823 123.389 38.7252C123.389 39.011 123.672 39.1539 123.814 39.2967C123.956 39.4396 124.097 39.5825 124.239 39.4396C124.523 39.4396 124.664 39.1539 124.806 38.8681C125.373 38.0107 126.366 37.4391 127.358 37.7249C127.641 37.7249 127.925 37.8678 128.067 37.582C128.067 37.582 128.067 37.4391 128.067 37.2962C128.208 35.5814 125.799 35.7243 124.806 36.2959Z" fill="white"/>
    <path d="M150.888 25.8613C149.329 30.434 145.927 33.1491 142.95 36.007C138.981 39.7223 134.87 42.4374 129.908 45.0095C117.292 51.4398 103.258 50.5825 89.5074 51.8685C70.7955 53.4404 46.555 53.4404 29.1189 47.5816C17.0696 43.5805 9.69823 37.5789 0.058754 29.4337C-0.366517 40.5797 1.61808 50.5825 2.75214 57.4415C5.02025 72.1599 10.974 89.0217 21.6058 99.4532C24.0157 101.882 26.5673 104.026 29.1189 105.741C30.9618 132.891 78.7339 131.033 95.1777 130.462C106.802 130.033 117.575 124.174 121.119 118.601C123.529 113.886 123.813 109.599 123.529 105.598C131.326 100.025 137.705 92.737 141.957 84.0203C148.62 70.588 148.195 56.4412 150.038 42.0087C150.888 37.0073 151.172 31.0056 150.888 25.8613Z" fill="#8FBBEF"/>
    <path d="M142.242 84.0232C148.904 70.5909 148.479 56.4442 150.322 42.0116C150.889 37.0102 151.172 31.1514 150.889 25.8643C147.487 31.2943 145.644 33.5807 142.667 36.2957C138.414 40.011 135.012 42.2974 130.051 44.8695C128.066 45.8698 126.223 46.5843 124.097 47.2988C123.105 51.2999 122.396 55.5868 121.403 59.3021C117.009 77.1642 107.086 95.5979 89.7917 103.171C87.2401 104.315 72.9226 105.315 74.1984 108.887C74.7655 110.459 79.3017 111.031 80.4357 113.174C81.5698 115.461 81.0028 119.89 80.5775 122.462C80.1522 124.892 78.5929 128.035 79.4434 130.75C85.8225 130.893 91.4928 130.608 95.462 130.465C107.086 130.036 117.86 124.177 121.403 118.604C123.813 113.889 124.097 109.602 123.813 105.601C131.468 100.028 137.847 92.7399 142.242 84.0232Z" fill="#80ABD6"/>
    <path d="M2.89485 44.8688C4.17066 44.726 5.58823 44.726 6.72228 45.2975C7.57283 45.7262 8.28161 46.5836 8.84864 47.441C10.408 49.8702 11.542 52.4424 13.9519 54.3C18.6299 57.7296 24.7254 53.8713 29.5451 56.7293C30.821 57.4438 32.0968 58.5869 33.2308 59.5872C34.3649 60.5875 35.4989 61.5878 36.633 62.4451C38.7593 64.1599 41.1692 65.7318 43.8626 66.5892C46.9812 67.5894 50.2417 67.3036 53.5021 66.4463C56.3372 65.7318 59.0306 64.5886 62.0075 64.3028C63.4251 64.1599 64.8426 64.3028 66.2602 64.8744C67.9613 65.446 69.5206 66.5892 71.2217 67.4465C74.4821 69.0184 77.8843 70.1616 81.5699 70.3045C85.2556 70.4474 88.7995 69.3042 92.0599 67.4465C94.7533 65.8747 97.4467 64.4457 100.424 63.8741C102.833 63.4454 105.243 64.017 107.511 64.5886C110.347 65.3031 113.323 66.5892 116.3 66.3034C120.978 65.7318 123.105 61.5878 126.082 58.444C127.641 56.7293 129.626 55.4432 131.894 55.0145C133.878 54.7287 135.721 55.1574 137.706 55.1574C139.69 55.1574 141.533 54.5858 142.809 53.014C143.801 51.8708 144.51 50.5847 145.077 49.1558C145.502 48.0126 145.644 46.8694 146.069 45.5833C146.353 44.5831 146.92 44.1544 148.054 44.2973C148.054 43.7257 148.054 43.0112 148.054 42.4396C147.345 42.5825 146.778 42.8683 146.211 43.297C145.361 44.1544 146.636 45.4404 147.487 44.5831C147.629 44.4402 147.77 44.2973 148.054 44.2973C149.188 44.1544 149.33 42.4396 148.054 42.4396C146.778 42.2967 145.644 42.7254 144.794 43.8686C144.085 44.8689 143.943 46.012 143.659 47.1552C143.092 49.2986 141.817 52.0137 139.832 52.8711C138.273 53.4427 136.43 53.014 134.729 52.8711C132.461 52.7282 130.193 53.014 128.208 54.1571C126.082 55.3003 124.522 57.0151 122.963 58.8727C121.687 60.4446 120.411 62.1594 118.71 63.1596C116.726 64.4457 114.316 64.4457 112.048 63.7312C109.213 63.0167 106.377 62.0165 103.542 61.5878C100.991 61.302 98.5808 61.7307 96.3127 62.7309C92.9105 64.1599 89.9336 66.4463 86.3897 67.4465C82.9875 68.4468 79.4436 68.161 76.0414 67.1607C74.3403 66.5892 72.6392 65.8747 70.9382 65.0173C69.3788 64.1599 67.8195 63.1596 65.9767 62.7309C63.1415 61.8736 60.4482 62.4451 57.613 63.1596C54.4944 64.017 51.234 65.1602 47.9735 65.1602C42.0198 65.1602 37.767 60.7304 33.3726 57.0151C32.2385 56.0148 30.9627 55.0145 29.5451 54.3C28.2693 53.7284 26.8518 53.4427 25.4342 53.2998C22.8826 53.1569 20.1892 53.8713 17.6376 53.4427C14.6607 52.8711 12.9596 50.5847 11.542 48.0126C10.408 46.012 9.13215 43.8686 6.86404 43.0112C5.58823 42.8683 4.17066 42.8683 2.89485 43.0112C1.61904 43.0112 1.61904 45.0117 2.89485 44.8688Z" fill="#E5E5B7"/>
    <path d="M5.16251 54.4442C6.43833 54.0155 7.71414 54.0155 8.84819 54.73C9.84049 55.4444 10.5493 56.5876 11.1163 57.5879C12.3921 59.7313 13.3844 62.4464 15.2273 64.0182C16.3613 64.8756 17.6371 65.3043 18.9129 65.5901C20.4723 65.733 22.0316 65.4472 23.4492 65.0185C25.0085 64.5898 26.4261 64.1611 27.9854 64.7327C29.2612 65.1614 30.3952 66.0188 31.2458 67.162C33.0886 69.3054 34.2227 71.8776 36.6326 73.4494C38.0501 74.3068 39.6094 74.8784 41.1688 74.8784C42.5863 74.8784 43.8622 74.4497 44.9962 73.8781C47.6896 72.5921 50.383 71.1631 53.5016 71.306C55.9115 71.4489 58.0378 72.8778 60.0224 74.021C62.4323 75.45 65.1257 77.0219 67.9608 77.7363C70.9377 78.4508 73.9146 77.8792 76.7498 76.879C79.4432 75.8787 82.2783 74.5926 85.1134 74.5926C87.9486 74.5926 90.6419 75.5929 93.0518 76.879C95.1782 77.8792 97.3045 79.1653 99.7144 79.1653C102.833 79.3082 105.81 77.5934 108.503 76.0216C109.921 75.1642 111.338 74.1639 112.756 73.5923C114.315 73.0207 116.016 72.8778 117.859 73.0207C119.56 73.1636 121.12 73.5923 122.821 73.4494C124.522 73.3065 126.081 72.5921 127.499 71.4489C129.625 69.5912 130.334 66.7333 132.035 64.4469C132.886 63.4467 134.02 62.4464 135.154 62.1606C136.288 61.8748 137.563 61.7319 138.698 61.589C140.682 61.1603 142.525 60.0171 144.084 58.874C145.077 58.3024 145.927 57.5879 146.778 56.7305C147.345 56.1589 148.054 55.5873 148.337 54.8729C148.762 54.1584 148.621 53.301 147.77 52.8723C146.778 52.3007 145.785 53.8726 146.778 54.4442C146.919 54.5871 146.636 54.3013 146.636 54.3013C146.352 53.8726 146.778 54.4442 146.636 54.0155V53.8726C146.636 53.8726 146.494 54.1584 146.636 53.8726C146.494 54.1584 146.352 54.3013 146.069 54.5871C145.36 55.3015 144.651 55.8731 143.801 56.5876C142.383 57.5879 140.54 58.874 138.981 59.4455C137.847 59.7313 136.571 59.8742 135.295 60.0171C134.161 60.3029 133.027 60.7316 132.035 61.4461C129.625 63.3038 128.916 66.0188 127.215 68.4481C126.932 70.0199 125.798 71.0202 124.38 71.4489C122.821 71.8776 121.12 71.7347 119.419 71.4489C117.718 71.1631 116.016 71.0202 114.315 71.4489C112.756 71.7347 111.197 72.4492 109.921 73.3065C107.228 74.8784 104.534 77.0219 101.415 77.4505C99.1474 77.7363 97.021 76.7361 95.0364 75.7358C92.6266 74.4497 90.0749 73.3065 87.3815 73.0207C84.4046 72.5921 81.7113 73.4494 78.8761 74.4497C76.1827 75.45 73.4894 76.5932 70.6542 76.4503C67.8191 76.3074 64.9839 74.8784 62.5741 73.4494C60.4477 72.1634 58.3214 70.7344 56.0533 70.0199C53.3599 69.3054 50.6665 69.5912 48.1149 70.7344C45.5632 71.7347 43.0116 73.7352 40.0347 73.0207C38.6172 72.5921 37.3413 71.8776 36.349 70.7344C35.3567 69.7341 34.648 68.5909 33.9392 67.4478C32.2381 65.1614 30.1117 63.1609 27.1348 62.8751C24.0162 62.5893 21.3228 64.7327 18.2042 63.8754C15.7943 63.1609 14.802 60.5887 13.8097 58.5882C12.6756 56.4447 11.2581 53.8726 8.84819 52.8723C7.57238 52.4436 6.15481 52.4436 4.879 52.8723C3.46143 53.0152 4.02846 54.8729 5.16251 54.4442Z" fill="#E5E5B7"/>
    <path opacity="0.1" d="M41.0264 57.7303C38.1913 55.7297 35.0727 54.1579 31.8122 52.7289C28.4101 51.157 19.0541 44.8696 16.0772 49.0136C3.31911 52.8718 14.5179 75.4495 19.7629 83.023C23.0233 87.7386 35.2144 97.7414 40.4594 89.882C42.3023 87.0241 41.5935 82.4514 41.877 79.3077C42.1605 75.4495 42.1605 71.7342 42.7275 67.8759C43.4363 63.3033 45.1374 60.7311 41.0264 57.7303Z" fill="white"/>
    <path d="M58.321 19.1486C57.6122 19.7202 57.3287 20.5776 57.7539 21.2921C58.0375 21.7208 58.4627 22.0066 58.888 22.1495C60.3056 22.864 62.0067 23.5784 62.5737 25.0074C63.2825 26.5793 62.2902 28.4369 61.1561 29.8659C59.8803 31.2949 58.321 32.438 56.6199 33.1525C54.4935 34.0099 51.9419 34.4386 50.0991 36.0105C49.6738 36.4392 49.2485 36.8678 49.2485 37.4394C49.2485 38.1539 50.0991 38.7255 50.8079 39.0113C54.9188 40.5832 59.7385 39.7258 63.1407 37.0107C63.9912 36.2963 64.8418 35.5818 65.8341 35.0102C67.1099 34.2957 68.6692 34.2957 70.0868 34.1528C72.9219 33.7241 75.6153 32.8667 78.1669 31.5807C79.1592 31.152 80.0098 30.4375 80.7186 29.723C80.8603 29.4372 81.1438 29.1514 81.1438 28.8656C81.2856 28.294 80.7186 27.7225 80.1515 27.4367C79.5845 27.1509 78.8757 27.1509 78.3087 27.1509C76.6076 27.1509 75.0483 27.008 73.489 26.4364C71.9296 25.8648 70.6538 24.7216 69.945 23.2926C69.6615 22.5782 69.5198 21.8637 69.0945 21.2921C68.5275 20.2918 67.6769 19.7202 66.8264 19.1486C64.4165 18.0055 60.4473 17.4339 58.321 19.1486Z" fill="#F2DCA5"/>
    <path d="M81.0993 66.71C76.2795 66.71 71.4598 67.1387 66.6401 67.2816C57.0006 67.7102 47.3611 67.7102 37.7217 67.7102C34.1777 67.7102 30.7756 67.5673 27.3734 67.5673C25.6723 67.5673 23.9712 67.5673 22.2702 67.5673C21.4196 67.5673 18.5845 67.8531 19.1515 67.996V68.4247C19.1515 71.1398 19.435 74.4264 21.2779 76.4269C22.8372 90.8595 27.6569 125.726 30.9173 128.441C39.5645 135.586 67.9159 136.015 75.429 128.156C78.2641 125.155 82.6586 93.003 84.2179 77.713C85.919 76.5698 84.7849 73.8548 85.0685 71.4256C85.7772 66.71 85.352 66.8529 81.0993 66.71Z" fill="#EFE0CB"/>
    <path d="M51.4724 55.7082C34.0363 55.994 18.5848 60.9954 19.01 67.5687C19.4353 74.1419 29.5001 81.2867 51.7559 81.2867C76.7051 81.2867 84.6435 77.2856 85.7776 68.2831C87.0534 60.2809 70.7513 55.5653 51.4724 55.7082Z" fill="#EF6A60"/>
    <path d="M75.4296 128.157C77.9812 125.442 81.9504 98.5773 83.7932 82.2871C81.6669 83.0016 79.5405 83.859 78.2647 84.1448C73.7285 85.1451 69.0505 85.7166 64.5143 86.4311C60.1198 87.1456 55.5836 87.2885 50.9056 87.2885C46.6529 87.2885 40.5574 87.0027 37.0134 84.8593L37.1552 85.4308C39.1398 86.7169 42.9672 87.5743 45.5189 88.1459C54.7331 90.0035 64.089 90.718 73.1615 92.5757C73.445 97.4342 73.0197 102.578 72.5944 107.437C72.1692 112.724 70.8933 118.44 69.6175 123.441C68.2 129.157 60.8286 130.3 56.0089 130.3C49.4881 130.3 42.542 130.443 36.3047 128.586C34.4618 128.014 31.7684 126.156 29.6421 126.299C30.0674 127.443 30.4926 128.3 30.9179 128.586C39.5651 135.731 68.0582 136.159 75.4296 128.157Z" fill="#E8D2BF"/>
    <path d="M88.0449 78.5716C86.3439 75.7137 88.1867 69.7121 84.0757 68.5689C81.9494 67.9973 79.5395 68.426 77.9802 69.9978C77.1297 70.8552 74.7198 76.8569 77.2714 76.2853L77.6967 76.9998C80.1065 76.8569 81.6659 78.8574 82.2329 80.858C82.7999 83.0014 84.2175 84.8591 86.2021 86.1452C88.1867 87.4312 90.1713 87.2883 90.5966 84.7162C91.0218 82.0012 89.179 80.5722 88.0449 78.5716Z" fill="#EF6A60"/>
    <path opacity="0.3" d="M31.0591 85.1453C29.6416 84.7166 28.0823 84.2879 26.9482 84.8595C26.6647 84.8595 26.5229 85.0024 26.3812 85.4311C26.2394 85.8597 26.0977 86.2884 26.0977 87.0029C26.0977 87.7174 26.2394 88.5748 26.3812 89.2893C26.5229 90.5754 26.6647 91.7185 26.8064 92.0043C27.3735 95.8625 28.3658 99.7207 28.9328 103.436C29.4998 107.151 29.6416 110.724 30.0668 114.439C30.3504 116.868 31.2009 123.442 34.7448 123.156C38.9975 122.727 36.4459 113.582 36.4459 110.867C36.4459 105.722 38.0052 101.436 39.1393 96.577C40.1316 91.004 36.0206 86.86 31.0591 85.1453Z" fill="white"/>
    <path d="M75.2875 100.579C80.5325 108.724 79.1149 119.156 72.0271 123.728C64.9392 128.301 55.2998 124.443 48.4954 117.441C41.1241 109.867 41.9746 97.5781 49.0625 93.0054C56.0086 88.4327 69.9007 92.2909 75.2875 100.579Z" fill="white"/>
    <path d="M75.2871 100.579C74.7201 99.5787 74.0113 98.7213 73.3025 98.0068C73.1608 101.151 73.019 104.294 72.7355 107.295C72.3102 112.582 71.0344 118.298 69.7586 123.3C69.6168 124.014 69.3333 124.586 69.0498 125.157C70.0421 124.871 71.0344 124.3 72.0267 123.728C78.9728 119.156 80.5321 108.724 75.2871 100.579Z" fill="#DDDDDD"/>
    <path d="M57.0005 95.4341C57.1423 95.1483 57.4258 95.1483 57.7093 95.1483C57.9928 95.2912 58.2764 95.577 58.1346 95.8628C58.1346 96.0057 57.9928 96.1486 57.8511 96.2915L56.5753 97.7205L56.4335 98.5779C56.2918 99.0065 56.0082 99.2923 55.583 99.1494C55.1577 99.0065 55.0159 98.7207 55.1577 98.2921L55.2995 97.4347L54.7324 95.577C54.7324 95.4341 54.5907 95.2912 54.7324 95.1483C54.7324 94.8625 55.1577 94.5768 55.4412 94.7196C55.7247 94.7196 55.8665 95.0054 56.0082 95.2912L56.2918 96.4344L57.0005 95.4341Z" fill="#EF6A60"/>
    <path d="M61.1118 96.1491C62.1041 96.5778 62.8129 97.5781 62.2459 99.0071C61.6788 100.436 60.5448 100.579 59.5525 100.293C58.5602 99.8644 57.8514 98.8642 58.4184 97.4352C58.8437 96.1491 59.9777 95.8633 61.1118 96.1491ZM60.6865 97.1494C60.1195 97.0065 59.836 97.2923 59.5525 97.8639C59.269 98.4355 59.4107 99.0071 59.836 99.15C60.403 99.2929 60.6865 99.0071 60.97 98.4355C61.2536 97.8639 61.2536 97.4352 60.6865 97.1494Z" fill="#EF6A60"/>
    <path d="M64.655 101.294C64.5133 101.151 64.3715 101.009 64.5133 100.723C64.655 100.437 64.9386 100.437 65.0803 100.58L65.7891 101.009C66.0726 101.151 66.2144 101.58 65.9309 101.866L65.3638 102.866C65.2221 103.152 64.9386 103.295 64.655 103.152C64.3715 103.009 64.3715 102.723 64.5133 102.58V102.438C64.2298 102.58 63.6627 102.438 63.2375 102.295C62.5287 101.866 61.8199 100.866 62.6704 99.4367C63.521 98.1507 64.7968 98.1507 65.5056 98.7223C66.6396 99.4367 66.6397 100.151 66.3561 100.437C66.2144 100.723 65.9309 100.866 65.5056 100.58C65.0803 100.294 65.3638 99.8654 64.9386 99.5796C64.5133 99.2938 64.088 99.4367 63.6627 100.151C63.2375 100.723 63.2375 101.151 63.8045 101.58C64.088 101.866 64.3715 101.723 64.655 101.58V101.294Z" fill="#EF6A60"/>
    <path d="M70.0425 102.721C70.326 102.436 70.7513 102.293 71.0348 102.579C71.3183 102.864 71.3183 103.15 71.0348 103.579L69.759 105.008C68.9084 106.008 68.0579 105.722 67.2074 105.008C66.3568 104.293 66.0733 103.293 66.7821 102.436L68.0579 101.007C68.3414 100.721 68.7667 100.578 69.0502 100.864C69.3337 101.15 69.3337 101.435 69.0502 101.864L67.7744 103.293C67.4909 103.579 67.4909 104.008 67.7744 104.293C68.0579 104.579 68.4832 104.579 68.7667 104.15L70.0425 102.721Z" fill="#EF6A60"/>
    <path d="M71.743 104.579C72.1683 104.293 72.4518 104.293 72.8771 104.722L73.8694 105.865C74.4364 106.58 74.4364 107.294 73.8694 107.723C73.4441 108.009 73.0189 108.009 72.5936 107.723C72.8771 108.009 72.8771 108.437 72.5936 108.723L72.3101 109.009C72.1683 109.152 72.0266 109.295 71.8848 109.438C71.6013 109.58 71.3178 109.58 71.176 109.295C70.8925 109.009 70.8925 108.723 71.176 108.437L71.6013 108.009C71.8848 107.723 71.743 107.58 71.6013 107.294L71.3178 106.865L70.4672 107.294C70.1837 107.58 69.7584 107.58 69.4749 107.294C69.1914 107.008 69.1914 106.58 69.6167 106.294L71.743 104.579ZM72.1683 106.723C72.4518 107.008 72.5936 107.008 72.8771 106.865C73.1606 106.723 73.0189 106.437 72.8771 106.151L72.4518 105.579L71.8848 106.151L72.1683 106.723Z" fill="#EF6A60"/>
    <path d="M74.4371 108.581C74.2953 108.295 74.2953 108.01 74.5788 107.867C74.8623 107.724 75.1458 107.724 75.2876 108.153L76.7052 110.582C76.9887 110.868 76.8469 111.153 76.5634 111.296C76.2799 111.439 75.9964 111.439 75.8546 111.153L75.4294 110.439L73.4448 111.725C73.0195 112.011 72.736 111.868 72.4525 111.582C72.3107 111.296 72.3107 110.868 72.736 110.582L74.7206 109.296L74.4371 108.581Z" fill="#EF6A60"/>
    <path d="M65.9308 107.437C65.0802 105.722 62.6704 104.151 60.6858 105.008C59.2682 105.58 58.1341 106.723 57.0001 107.437C56.0078 107.294 54.5902 108.009 54.0232 108.58C52.7474 109.867 52.3221 112.01 52.7474 113.725C53.7397 117.44 57.2836 119.726 60.6858 121.012C61.8198 121.441 63.8044 121.727 65.0802 121.298C67.2066 120.441 67.2066 118.583 67.3483 117.011C67.4901 113.868 67.4901 110.152 65.9308 107.437Z" fill="#ED4B48"/>
    <path d="M54.165 110.723C54.165 111.295 54.3068 112.009 54.4486 112.581C54.4486 112.724 54.7321 113.153 54.8738 112.867C54.8738 112.724 54.7321 112.581 54.5903 112.867C54.7321 112.867 54.7321 112.867 54.7321 112.724V112.581C54.7321 112.438 54.5903 112.295 54.5903 112.152C54.5903 111.581 54.4486 111.152 54.4486 110.723C54.4486 110.58 54.165 110.58 54.165 110.723Z" fill="#EACE49"/>
    <path d="M56.0088 110.15C56.1506 110.293 56.2923 110.579 56.4341 110.722C56.4341 110.865 56.5758 110.865 56.5758 111.007V111.15V111.007H56.7176C56.5758 110.865 56.4341 111.007 56.5758 111.15C56.7176 111.293 56.8593 111.15 56.8593 111.007C56.8593 110.865 56.7176 110.722 56.7176 110.722C56.5758 110.436 56.2923 110.007 56.0088 109.864C56.0088 109.864 55.867 110.15 56.0088 110.15Z" fill="#EACE49"/>
    <path d="M58.7018 109.294C58.9853 109.579 59.2688 109.722 59.4106 109.865C59.5523 110.008 59.6941 109.722 59.5523 109.579C59.2688 109.437 58.9853 109.294 58.8436 109.008C58.8436 109.008 58.56 109.151 58.7018 109.294Z" fill="#EACE49"/>
    <path d="M60.6865 108.009C61.1118 108.295 61.3953 108.438 61.8206 108.724C61.9624 108.724 62.1041 108.581 61.8206 108.438C61.3953 108.295 61.1118 108.009 60.6865 107.866C60.6865 107.723 60.5448 108.009 60.6865 108.009Z" fill="#EACE49"/>
    <path d="M63.0961 106.294C63.2378 106.294 63.2378 106.008 63.0961 106.008C62.9543 106.008 62.9543 106.294 63.0961 106.294Z" fill="#EACE49"/>
    <path d="M63.0961 106.294C63.3797 106.437 63.6632 106.723 63.9467 106.866C64.0884 107.008 64.2302 106.723 64.0884 106.58C63.9467 106.58 63.8049 106.437 63.8049 106.294C63.6632 106.151 63.5214 106.008 63.3797 105.865C63.0961 106.008 62.9544 106.294 63.0961 106.294Z" fill="#EACE49"/>
    <path d="M54.165 114.726C54.3068 115.154 54.4486 115.583 54.7321 115.869C54.8738 116.012 55.0156 115.869 54.8738 115.726C54.5903 115.44 54.4486 115.011 54.4486 114.726C54.3068 114.44 54.165 114.583 54.165 114.726Z" fill="#EACE49"/>
    <path d="M56.4341 114.013C56.5758 114.298 56.7176 114.584 57.0011 114.727C57.1429 114.87 57.2846 114.727 57.1429 114.584C57.0011 114.441 56.7176 114.156 56.5758 113.87C56.5758 113.727 56.4341 113.87 56.4341 114.013Z" fill="#EACE49"/>
    <path d="M59.2682 112.581C59.5517 112.867 59.8352 113.153 60.1187 113.295C60.2605 113.295 60.4023 113.01 60.1187 113.01C59.8352 112.867 59.5517 112.581 59.4099 112.438C59.2682 112.295 59.1264 112.438 59.2682 112.581Z" fill="#EACE49"/>
    <path d="M61.6779 111.439C61.8196 111.725 61.9614 112.011 62.2449 112.154C62.3867 112.297 62.5284 112.154 62.3867 112.011C62.2449 111.868 62.1032 111.582 61.8196 111.296C61.8196 111.154 61.5361 111.296 61.6779 111.439Z" fill="#EACE49"/>
    <path d="M63.8043 110.581C63.946 110.724 64.0878 110.867 64.2295 111.153C64.3713 111.295 64.513 111.153 64.513 111.01C64.3713 110.867 64.2295 110.724 64.0878 110.438C63.946 110.295 63.6625 110.438 63.8043 110.581Z" fill="#EACE49"/>
    <path d="M65.5059 109.579C65.6477 109.865 65.7894 110.151 65.7894 110.437C65.7894 110.58 66.0729 110.58 66.0729 110.437C66.0729 110.151 65.9312 109.865 65.7894 109.437C65.6477 109.437 65.3642 109.437 65.5059 109.579Z" fill="#EACE49"/>
    <path d="M57.1422 117.581C57.4257 117.867 57.851 118.152 58.1345 118.295C58.2763 118.295 58.418 118.152 58.2763 118.009C57.851 117.867 57.5675 117.581 57.284 117.295C57.1422 117.295 57.0005 117.438 57.1422 117.581Z" fill="#EACE49"/>
    <path d="M59.5523 116.724C59.8358 116.867 59.9775 117.153 60.261 117.153C60.4028 117.153 60.5446 117.01 60.261 116.867C59.9775 116.724 59.8358 116.581 59.5523 116.438C59.5523 116.438 59.4105 116.581 59.5523 116.724Z" fill="#EACE49"/>
    <path d="M62.1041 115.295C62.2459 115.581 62.5294 115.866 62.6712 116.152C62.8129 116.295 62.9547 116.152 62.8129 116.009C62.6712 115.724 62.3877 115.581 62.2459 115.295C62.2459 115.009 61.9624 115.152 62.1041 115.295Z" fill="#EACE49"/>
    <path d="M64.514 114.294C64.6558 114.294 64.6558 114.008 64.514 114.008C64.3723 114.008 64.3723 114.294 64.514 114.294Z" fill="#EACE49"/>
    <path d="M64.3721 114.153C64.5139 114.439 64.6556 114.725 64.7974 115.011C64.7974 115.154 65.0809 115.154 65.0809 115.011C65.0809 114.725 64.9392 114.296 64.6556 114.01C64.5139 113.867 64.2304 114.01 64.3721 114.153Z" fill="#EACE49"/>
    <path d="M66.357 113.294C66.4988 113.58 66.4988 113.866 66.357 114.152C66.357 114.295 66.6405 114.438 66.6405 114.152C66.6405 113.866 66.6405 113.437 66.6405 113.151C66.4988 113.009 66.2152 113.009 66.357 113.294Z" fill="#EACE49"/>
    <path d="M60.4034 120.013C60.687 120.156 61.1122 120.442 61.5375 120.442C61.6793 120.442 61.6793 120.156 61.5375 120.156C61.1122 120.156 60.8287 120.013 60.5452 119.87C60.4034 119.585 60.2617 119.87 60.4034 120.013Z" fill="#EACE49"/>
    <path d="M62.2452 118.725C62.5288 119.01 62.8123 119.153 63.2375 119.296C63.3793 119.296 63.521 119.01 63.2375 119.01C62.954 119.01 62.6705 118.725 62.387 118.582C62.2452 118.439 62.1035 118.582 62.2452 118.725Z" fill="#EACE49"/>
    <path d="M64.2296 117.871C64.3713 118.014 64.3713 118.3 64.5131 118.443C64.6548 118.586 64.7966 118.443 64.7966 118.3C64.6548 118.014 64.6548 117.871 64.5131 117.728C64.3713 117.585 64.0878 117.728 64.2296 117.871Z" fill="#EACE49"/>
    <path d="M66.498 116.58C66.498 116.866 66.6398 117.009 66.498 117.295C66.498 117.438 66.7816 117.581 66.7816 117.295C66.7816 117.009 66.7816 116.723 66.7816 116.438C66.6398 116.438 66.498 116.437 66.498 116.58Z" fill="#EACE49"/>
    <path d="M63.6624 120.58C63.946 120.723 64.3712 120.866 64.7965 120.866C64.9383 120.866 64.9383 120.58 64.7965 120.58C64.513 120.58 64.0877 120.437 63.8042 120.437C63.5207 120.295 63.5207 120.58 63.6624 120.58Z" fill="#EACE49"/>
    <path d="M64.6562 120.011C64.798 120.154 64.9397 120.297 65.2232 120.297C65.365 120.297 65.365 120.011 65.2232 120.011L65.0815 119.868L64.9397 119.726C64.6562 119.726 64.5144 119.868 64.6562 120.011Z" fill="#EACE49"/>
    <path d="M66.2152 119.011C66.3569 119.011 66.3569 118.726 66.2152 118.726C66.0734 118.726 66.0734 119.011 66.2152 119.011Z" fill="#EACE49"/>
    <path d="M66.0732 119.011C66.0732 119.297 66.0732 119.44 66.0732 119.726C66.0732 119.869 66.3568 120.011 66.3568 119.726C66.3568 119.44 66.3568 119.154 66.3568 118.868C66.215 118.725 66.0732 118.725 66.0732 119.011Z" fill="#EACE49"/>
    <path d="M57.1429 105.434C56.5759 104.863 56.2924 103.863 56.0089 103.148C55.4418 103.291 54.166 103.863 53.7407 104.434C54.5913 105.006 55.5836 105.72 56.2924 106.578C54.4495 106.292 52.3232 107.578 51.0474 108.721C52.0397 108.721 52.8902 108.721 53.8825 108.721C54.5913 108.721 56.1506 108.578 56.7176 108.007L56.4341 108.149C57.4264 107.721 58.4187 107.149 59.1275 106.292C59.5528 105.863 60.1198 105.292 60.4033 104.72C60.6868 104.148 60.6868 103.291 61.2539 102.862C59.411 102.862 57.7099 103.72 57.1429 105.434Z" fill="#53B748"/>
    <g opacity="0.5">
        <path opacity="0.5" d="M24.9634 68.9959C25.1051 72.5683 29.3578 73.9973 32.193 74.8546C36.4457 76.1407 40.9819 76.8552 45.3764 77.2839C51.6137 77.8555 57.851 77.4268 64.0883 76.8552C68.4827 76.4265 73.4442 75.8549 77.2717 73.4257C78.9728 72.2825 80.5321 70.5677 81.0991 68.4243C81.5244 66.5666 80.8156 64.709 79.5398 63.4229C75.9959 59.7076 70.0421 58.8502 65.3641 58.2786C59.2685 57.4212 53.3148 57.707 47.2192 57.9928C42.2577 58.1357 37.0127 58.4215 32.4765 60.4221C29.9249 61.5652 27.3732 63.4229 26.2392 66.1379C26.5227 66.1379 26.948 66.2808 27.2315 66.2808C27.2315 66.1379 27.2315 65.995 27.2315 65.8521C27.2315 65.1377 26.2392 65.1377 26.2392 65.8521C26.2392 65.995 26.2392 66.1379 26.2392 66.2808C26.2392 66.8524 27.0897 66.9953 27.2315 66.4237C28.2238 63.8516 30.9172 62.1368 33.4688 61.1366C35.8787 60.1363 38.572 59.7076 41.1237 59.4218C43.6753 59.136 46.2269 58.9931 48.7785 58.9931C51.7554 58.8502 54.7323 58.7073 57.7092 58.8502C60.9696 58.8502 64.3718 59.136 67.6322 59.7076C70.3256 60.1363 73.1607 60.8508 75.7123 61.9939C77.6969 62.9942 79.8233 64.2803 80.3903 66.5666C80.9574 68.9959 78.831 71.2822 76.9882 72.5683C73.4442 74.9975 68.6245 75.4262 64.3718 75.8549C58.7015 76.4265 53.0312 76.8552 47.2192 76.4265C42.8247 76.1407 38.4303 75.2833 34.1776 74.2831C31.626 73.5686 26.5227 72.4254 26.3809 68.9959C25.9557 68.2814 24.9634 68.2814 24.9634 68.9959Z" fill="white"/>
    </g>
    <path opacity="0.1" d="M62.954 59.5655C60.6859 57.7078 56.2914 58.1365 53.4563 58.1365C45.6596 58.1365 37.296 58.7081 29.9246 61.2802C27.6565 62.1376 24.6796 63.5666 23.5456 65.8529C22.8368 66.7103 22.2698 67.8535 22.4115 69.1395C22.5533 71.8546 25.6719 72.8549 27.7983 73.5694C30.4917 74.5696 33.4686 75.1412 36.1619 74.4267C40.6982 73.2836 36.729 71.283 37.1542 68.2822C37.7213 64.7098 44.9509 64.424 47.5025 64.1382C51.4717 63.7095 55.5826 63.2808 59.5518 63.1379C61.5364 63.2808 65.7891 61.8518 62.954 59.5655Z" fill="white"/>
</svg>
