<svg width="175" height="155" viewBox="0 0 175 155" fill="none" xmlns="http://www.w3.org/2000/svg">
    <path d="M170.37 18.0097C163.486 6.93953 139.227 0 80.8759 0C61.0429 0 40.8821 2.31318 22.1965 9.41793C16.1318 11.8963 0.560471 18.3402 0.0687439 34.0367C-0.0951651 37.3413 1.87174 40.1501 2.52738 43.4547L4.8221 52.5422C4.8221 52.2117 4.8221 52.0465 4.8221 51.716C16.9514 108.389 90.0548 103.597 132.179 87.5703C147.915 81.6221 160.044 73.1955 167.584 57.6642C170.534 51.5508 173.321 43.1242 174.304 36.3499C174.632 34.202 174.14 32.3845 174.468 30.2365C174.14 25.6102 172.501 21.4795 170.37 18.0097Z" fill="#688EAD"/>
    <path d="M17.7707 31.226C20.3932 30.5651 23.1797 30.5651 25.6383 29.9042C29.2443 28.9129 32.0308 26.2692 34.9811 24.1213C40.0623 20.6515 45.963 18.3383 52.0277 17.6774C58.4201 16.8513 65.1404 17.6774 71.5328 16.6861C78.0892 15.6947 84.4816 12.8859 91.2019 13.2163C97.5943 13.5468 103.495 16.5209 109.888 17.0165C117.1 17.6774 124.803 15.0338 131.687 17.8427C134.966 19.1645 137.752 21.6429 141.194 22.6342C143.489 23.2952 145.947 23.2952 148.242 23.4604C153.487 24.1213 158.241 26.7649 162.994 29.2433C166.6 31.226 170.37 33.374 172.009 37.1742C173.976 41.9658 171.517 47.5835 167.911 51.3837C161.519 58.3233 152.176 61.4626 142.997 63.7757C122.836 68.7326 101.856 69.7239 81.0395 70.2196C64.9765 70.7153 48.7495 70.8805 32.8503 67.7412C26.9496 66.5846 20.885 64.7671 16.6233 60.6364C9.24742 53.036 3.3467 35.1915 17.7707 31.226Z" fill="#F4D09F"/>
    <path d="M135.621 26.1052C135.294 27.2618 134.146 28.088 133.163 28.7489C131.524 29.9055 129.557 30.8968 127.59 31.723C126.77 32.0534 125.951 32.3839 125.295 33.0448C124.64 33.7057 124.476 34.8623 125.131 35.3579C125.459 35.6884 125.787 35.6884 126.115 35.8536C128.573 36.3493 130.704 34.697 133.163 34.3666C134.966 34.0361 136.769 34.3666 138.572 34.5318C140.375 34.5318 142.342 34.3666 143.653 33.21C144.145 32.8795 144.473 32.3839 144.473 31.723C144.473 31.062 144.145 30.5664 143.489 30.4011C145.784 31.3925 148.406 31.723 151.029 31.5577C151.685 31.5577 152.504 31.2273 152.832 30.5664C152.996 30.2359 152.832 29.9055 152.832 29.575C152.34 27.5923 150.045 26.6009 148.079 26.2705C146.112 25.94 143.981 25.94 142.342 24.7834C141.522 24.2877 141.03 23.4616 140.211 22.9659C138.736 21.9746 135.621 21.3137 134.146 22.4703C135.13 23.2964 136.113 24.6182 135.621 26.1052Z" fill="#F2C194"/>
    <path d="M104.806 38.4976C104.151 39.8194 102.675 40.3151 101.2 40.8108C99.0693 41.6369 97.2663 42.6283 95.6272 44.1153C95.4633 44.2805 95.2994 44.4457 95.1355 44.7762C94.6438 45.7676 95.9551 46.5937 97.1024 46.4285C98.0859 46.2632 99.0693 45.6023 100.053 45.6023C101.364 45.6023 102.348 46.4285 103.495 46.7589C104.314 46.9241 105.298 46.9241 106.117 46.7589C110.215 46.2632 114.149 45.7676 118.247 45.2719C119.722 45.1067 121.525 44.7762 122.344 43.4544C122.508 43.1239 122.672 42.7935 122.672 42.463C122.508 41.8021 121.853 41.4717 121.361 41.3064C119.558 40.8108 117.591 40.6455 115.788 40.8108C115.46 39.1585 118.738 38.828 118.902 37.0105C116.116 36.3496 113.166 35.8539 110.379 35.193C107.429 34.5321 104.478 34.0364 101.692 34.3669C103.167 35.0278 105.954 36.1844 104.806 38.4976Z" fill="#F2C194"/>
    <path d="M123.983 50.2271C126.442 48.9053 128.409 46.5921 128.9 43.7832C133.49 43.7832 138.571 43.7833 142.177 40.8092C142.997 40.1483 143.652 39.3221 144.472 38.8264C145.455 38.1655 146.767 38.0003 148.078 37.8351C151.52 37.3394 154.798 36.8437 158.24 36.1828C158.568 36.1828 159.06 36.0176 159.388 36.1828C160.043 36.5133 160.207 37.5046 160.043 38.1655C159.388 40.6439 156.929 42.2962 154.47 42.9571C152.012 43.618 149.389 43.7832 146.93 44.6094C144.636 45.4355 142.669 47.0878 140.702 48.4096C137.915 50.2271 134.965 51.7141 131.687 52.8707C124.967 55.1839 117.755 55.3491 110.543 55.5144C106.773 55.6796 103.167 55.6796 99.5608 55.0187C103.167 52.2098 108.248 53.5316 112.346 53.2012C116.116 52.7055 120.541 52.2098 123.983 50.2271Z" fill="#F2C194"/>
    <path d="M58.4203 34.0362C59.4038 34.2014 60.5511 34.2014 61.5346 33.8709C62.5181 33.5405 63.5015 32.7144 63.5015 31.723C63.5015 30.8969 63.1737 30.236 62.5181 29.575C61.8624 29.0794 61.2068 28.7489 60.3872 28.4185C57.4369 27.4271 50.7166 26.4357 49.2414 30.236C47.9301 34.3666 56.4534 33.8709 58.4203 34.0362Z" fill="#BF9777"/>
    <path d="M52.5196 32.8808C56.5027 32.8808 59.7316 29.6259 59.7316 25.6108C59.7316 21.5957 56.5027 18.3408 52.5196 18.3408C48.5365 18.3408 45.3076 21.5957 45.3076 25.6108C45.3076 29.6259 48.5365 32.8808 52.5196 32.8808Z" fill="#600C4E"/>
    <path d="M56.2891 18.5048L56.453 18.6701C56.453 18.6701 56.6169 18.6701 56.7808 18.6701C57.2725 18.5048 57.7643 18.3396 58.0921 18.1744C58.0921 18.5048 57.9282 18.8353 57.9282 19.1658C58.4199 19.1658 59.0755 19.1658 59.5672 19.1658C59.4033 19.4962 59.0755 19.8267 58.9116 20.1571C59.2394 20.1571 59.7312 20.1571 60.059 20.1571C60.2229 20.1571 60.3868 20.1571 60.3868 20.3223C60.3868 20.3223 60.3868 20.4876 60.2229 20.4876C59.7312 20.9832 59.2394 21.4789 58.7477 21.8094C58.5838 21.9746 58.256 22.1398 57.9282 22.3051C57.6003 22.3051 57.4364 22.1398 57.1086 22.1398C56.2891 21.8094 54.9778 20.9833 54.65 20.1571C54.3222 19.331 55.1417 18.3396 55.6334 17.6787C56.1252 18.1744 56.1252 18.3396 56.2891 18.5048Z" fill="#600C4E"/>
    <path opacity="0.33" d="M50.2245 20.3217C49.405 20.8174 48.7494 21.4783 48.5854 22.4696C48.5854 22.6349 48.5854 22.9653 48.5854 23.1305C48.5854 23.461 48.9133 23.6262 49.0772 23.7914C49.2411 23.9567 49.405 24.1219 49.5689 23.9567C49.8967 23.9567 50.0606 23.6262 50.2245 23.2958C50.8802 22.3044 52.0275 21.6435 53.1749 21.974C53.5027 21.974 53.8305 22.1392 53.9944 21.8087C53.9944 21.8087 53.9944 21.6435 53.9944 21.4783C54.1583 19.4956 51.5358 19.826 50.2245 20.3217Z" fill="white"/>
    <path d="M40.2269 48.7432C41.2103 48.9084 42.3577 48.9084 43.3411 48.578C44.3246 48.2475 45.308 47.4214 45.308 46.43C45.308 45.6039 44.9802 44.943 44.3246 44.2821C43.6689 43.7864 43.0133 43.4559 42.1938 43.1255C39.2434 42.1341 32.5231 41.1428 31.048 44.943C29.7367 49.0737 38.096 48.578 40.2269 48.7432Z" fill="#BF9777"/>
    <path d="M41.2771 42.0159C42.2004 38.11 39.8078 34.1892 35.933 33.2585C32.0583 32.3278 28.1687 34.7396 27.2455 38.6455C26.3222 42.5514 28.7148 46.4723 32.5896 47.403C36.4643 48.3337 40.3538 45.9218 41.2771 42.0159Z" fill="#600C4E"/>
    <path d="M37.9317 33.2129L38.0956 33.3781C38.0956 33.3781 38.2595 33.3781 38.4234 33.3781C38.9151 33.2129 39.4068 33.0476 39.7347 32.8824C39.7347 33.2129 39.5707 33.5433 39.5707 33.8738C40.0625 33.8738 40.7181 33.8738 41.2098 33.8738C41.0459 34.2042 40.7181 34.5347 40.5542 34.8651C40.882 34.8651 41.3737 34.8651 41.7016 34.8651C41.8655 34.8651 42.0294 34.8651 42.0294 35.0303C42.0294 35.0303 42.0294 35.1956 41.8655 35.1956C41.3737 35.6913 40.882 36.1869 40.3903 36.5174C40.2264 36.6826 39.8986 36.8478 39.5707 37.0131C39.2429 37.0131 39.079 36.8478 38.7512 36.8478C37.9317 36.5174 36.6204 35.6913 36.2926 34.8651C35.9647 34.039 36.7843 33.0476 37.276 32.3867C37.7677 32.8824 37.9317 33.0476 37.9317 33.2129Z" fill="#600C4E"/>
    <path opacity="0.33" d="M32.0302 35.0287C31.2107 35.5244 30.555 36.1853 30.3911 37.1767C30.3911 37.3419 30.3911 37.6723 30.3911 37.8376C30.3911 38.168 30.7189 38.3333 30.8828 38.4985C31.0468 38.6637 31.2107 38.8289 31.3746 38.6637C31.7024 38.6637 31.8663 38.3333 32.0302 38.0028C32.6858 37.0114 33.8332 36.3505 34.9806 36.681C35.3084 36.681 35.6362 36.8462 35.8001 36.5158C35.8001 36.5158 35.8001 36.3505 35.8001 36.1853C35.964 34.2026 33.1776 34.533 32.0302 35.0287Z" fill="white"/>
    <path d="M105.626 52.0489C106.609 52.2141 107.756 52.2141 108.74 51.8836C109.723 51.5532 110.707 50.7271 110.707 49.7357C110.707 48.9096 110.379 48.2487 109.723 47.5877C109.068 47.0921 108.412 46.7616 107.592 46.4312C104.642 45.4398 97.9218 44.4484 96.4466 48.2487C95.1354 52.3793 103.495 51.8837 105.626 52.0489Z" fill="#BF9777"/>
    <path d="M101.965 50.5401C105.753 49.3002 107.827 45.1994 106.597 41.3806C105.367 37.5618 101.299 35.4712 97.5107 36.7111C93.7224 37.9509 91.6485 42.0518 92.8784 45.8705C94.1084 49.6893 98.1765 51.7799 101.965 50.5401Z" fill="#600C4E"/>
    <path d="M103.495 36.5156L103.659 36.6808C103.659 36.6808 103.822 36.6808 103.986 36.6808C104.478 36.5156 104.97 36.3504 105.298 36.1851C105.298 36.5156 105.134 36.846 105.134 37.1765C105.625 37.1765 106.281 37.1765 106.773 37.1765C106.609 37.5069 106.281 37.8374 106.117 38.1679C106.445 38.1679 106.937 38.1679 107.265 38.1679C107.428 38.1679 107.592 38.1679 107.592 38.3331C107.592 38.3331 107.592 38.4983 107.428 38.4983C106.937 38.994 106.445 39.4897 105.953 39.8201C105.789 39.9854 105.462 40.1506 105.134 40.3158C104.806 40.3158 104.642 40.1506 104.314 40.1506C103.495 39.8201 102.183 38.994 101.856 38.1679C101.528 37.3417 102.347 36.3504 102.839 35.6895C103.167 36.0199 103.331 36.3504 103.495 36.5156Z" fill="#600C4E"/>
    <path opacity="0.33" d="M97.4301 38.3332C96.6106 38.8289 95.9549 39.4898 95.791 40.4811C95.791 40.6464 95.791 40.9768 95.791 41.1421C95.791 41.4725 96.1188 41.6377 96.2827 41.803C96.4466 41.9682 96.6106 42.1334 96.7745 41.9682C97.1023 41.9682 97.2662 41.6377 97.4301 41.3073C98.0857 40.3159 99.2331 39.655 100.38 39.9855C100.708 39.9855 101.036 40.1507 101.2 39.8202C101.2 39.8202 101.2 39.655 101.2 39.4898C101.364 37.5071 98.5775 37.6723 97.4301 38.3332Z" fill="white"/>
    <path d="M122.017 36.8448C123 37.01 124.148 37.01 125.131 36.6795C126.115 36.3491 127.098 35.523 127.098 34.5316C127.098 33.7055 126.77 33.0446 126.115 32.3836C125.459 31.888 124.803 31.5575 123.984 31.2271C121.033 30.2357 114.313 29.2443 112.838 33.0445C111.363 37.1752 119.886 36.6795 122.017 36.8448Z" fill="#BF9777"/>
    <path d="M116.116 35.6904C120.099 35.6904 123.328 32.4355 123.328 28.4204C123.328 24.4053 120.099 21.1504 116.116 21.1504C112.133 21.1504 108.904 24.4053 108.904 28.4204C108.904 32.4355 112.133 35.6904 116.116 35.6904Z" fill="#600C4E"/>
    <path d="M119.723 21.3144L119.887 21.4796C119.887 21.4796 120.05 21.4796 120.214 21.4796C120.706 21.3144 121.198 21.1492 121.526 20.984C121.526 21.3144 121.362 21.6449 121.362 21.9753C121.853 21.9753 122.509 21.9753 123.001 21.9753C122.837 22.3058 122.509 22.6362 122.345 22.9667C122.673 22.9667 123.165 22.9667 123.493 22.9667C123.656 22.9667 123.82 22.9667 123.82 23.1319C123.82 23.1319 123.82 23.2971 123.656 23.2971C123.165 23.7928 122.673 24.2885 122.181 24.619C122.017 24.7842 121.69 24.9494 121.362 25.1146C121.034 25.1146 120.87 24.9494 120.542 24.9494C119.723 24.619 118.411 23.7928 118.084 22.9667C117.756 22.1405 118.575 21.1492 119.067 20.4883C119.559 20.984 119.723 21.1492 119.723 21.3144Z" fill="#600C4E"/>
    <path opacity="0.33" d="M113.658 23.132C112.838 23.6277 112.183 24.2886 112.019 25.28C112.019 25.4452 112.019 25.7757 112.019 25.9409C112.019 26.2713 112.347 26.4366 112.511 26.6018C112.674 26.767 112.838 26.9323 113.002 26.767C113.33 26.767 113.494 26.4366 113.658 26.1061C114.314 25.1148 115.461 24.4539 116.608 24.7843C116.936 24.7843 117.264 24.9495 117.428 24.6191C117.428 24.6191 117.428 24.4539 117.428 24.2886C117.756 22.3059 114.969 22.4711 113.658 23.132Z" fill="white"/>
    <path d="M91.0379 22.4727C92.0213 22.6379 93.1687 22.6379 94.1522 22.3075C95.1356 21.977 96.1191 21.1509 96.1191 20.1595C96.1191 19.3334 95.7912 18.6725 95.1356 18.0116C94.48 17.5159 93.8243 17.1854 93.0048 16.855C90.0544 15.8636 83.3342 14.8723 81.859 18.6725C80.5477 22.8032 88.9071 22.3075 91.0379 22.4727Z" fill="#BF9777"/>
    <path d="M92.1477 15.7525C93.0547 11.843 90.6459 7.93255 86.7676 7.01832C82.8893 6.10408 79.0101 8.53222 78.1031 12.4417C77.1962 16.3512 79.6049 20.2616 83.4833 21.1759C87.3616 22.0901 91.2408 19.662 92.1477 15.7525Z" fill="#600C4E"/>
    <path d="M88.9077 6.93844L89.0716 7.10367C89.0716 7.10367 89.2355 7.10367 89.3995 7.10367C89.8912 6.93844 90.3829 6.77321 90.7107 6.60799C90.7107 6.93844 90.5468 7.26889 90.5468 7.59935C91.0386 7.59935 91.6942 7.59935 92.1859 7.59935C92.022 7.9298 91.6942 8.26025 91.5303 8.59071C91.8581 8.59071 92.3498 8.59071 92.6776 8.59071C92.8416 8.59071 93.0055 8.59071 93.0055 8.75593C93.0055 8.75593 93.0055 8.92116 92.8416 8.92116C92.3498 9.41684 91.8581 9.91252 91.3664 10.243C91.2025 10.4082 90.8746 10.5734 90.5468 10.7387C90.219 10.7387 90.0551 10.5734 89.7273 10.5734C88.9077 10.243 87.5965 9.41684 87.2686 8.59071C86.9408 7.76457 87.7604 6.77321 88.2521 6.1123C88.5799 6.60799 88.7438 6.77321 88.9077 6.93844Z" fill="#600C4E"/>
    <path opacity="0.33" d="M82.8432 8.75821C82.0236 9.25389 81.368 9.9148 81.2041 10.9062C81.2041 11.0714 81.2041 11.4018 81.2041 11.5671C81.2041 11.8975 81.5319 12.0627 81.6958 12.228C81.8597 12.3932 82.0237 12.5584 82.1876 12.3932C82.5154 12.3932 82.6793 12.0627 82.8432 11.7323C83.4988 10.7409 84.6462 10.08 85.7936 10.4105C86.1214 10.4105 86.4492 10.5757 86.6131 10.2452C86.6131 10.2452 86.6131 10.08 86.6131 9.9148C86.777 7.93207 83.9906 8.26253 82.8432 8.75821Z" fill="white"/>
    <path d="M152.504 55.6827C153.488 55.8479 154.635 55.8479 155.618 55.5174C156.602 55.187 157.585 54.3608 157.585 53.3695C157.585 52.5433 157.258 51.8824 156.602 51.2215C155.946 50.7259 155.291 50.3954 154.471 50.0649C151.521 49.0736 144.8 48.0822 143.325 51.8824C142.014 56.0131 150.373 55.5174 152.504 55.6827Z" fill="#BF9777"/>
    <path d="M153.712 48.725C154.549 44.7999 152.072 40.9334 148.178 40.089C144.284 39.2446 140.448 41.7421 139.611 45.6673C138.773 49.5924 141.251 53.4589 145.144 54.3033C149.038 55.1477 152.874 52.6502 153.712 48.725Z" fill="#600C4E"/>
    <path d="M150.209 40.1513L150.373 40.3166C150.373 40.3166 150.537 40.3166 150.701 40.3166C151.193 40.1513 151.684 39.9861 152.012 39.8209C152.012 40.1513 151.848 40.4818 151.848 40.8122C152.34 40.8122 152.996 40.8122 153.487 40.8122C153.324 41.1427 152.996 41.4731 152.832 41.8036C153.16 41.8036 153.651 41.8036 153.979 41.8036C154.143 41.8036 154.307 41.8036 154.307 41.9688C154.307 41.9688 154.307 42.1341 154.143 42.1341C153.651 42.6297 153.16 43.1254 152.668 43.4559C152.504 43.6211 152.176 43.7863 151.848 43.9516C151.521 43.9516 151.357 43.7863 151.029 43.7863C150.209 43.4559 148.898 42.6297 148.57 41.8036C148.242 40.9775 149.062 39.9861 149.554 39.3252C150.045 39.6556 150.209 39.9861 150.209 40.1513Z" fill="#600C4E"/>
    <path opacity="0.33" d="M144.31 41.968C143.49 42.4637 142.834 43.1246 142.67 44.1159C142.67 44.2812 142.67 44.6116 142.67 44.7768C142.67 45.1073 142.998 45.2725 143.162 45.4378C143.326 45.603 143.49 45.7682 143.654 45.603C143.982 45.603 144.146 45.2725 144.31 44.9421C144.965 43.9507 146.112 43.2898 147.26 43.6202C147.588 43.6202 147.915 43.7855 148.079 43.455C148.079 43.455 148.079 43.2898 148.079 43.1246C148.243 41.1418 145.457 41.3071 144.31 41.968Z" fill="white"/>
    <path d="M174.467 29.9033C172.664 35.1906 168.73 38.3299 165.288 41.6344C160.699 45.9303 155.945 49.0696 150.209 52.0437C135.621 59.4789 119.394 58.4876 103.494 59.9746C81.8585 61.7921 53.8301 61.7921 33.6693 55.0178C19.737 50.3915 11.2137 43.4519 0.0679354 34.034C-0.423792 46.9217 1.87093 58.4876 3.18221 66.4185C5.80475 83.4368 12.6889 102.934 24.9821 114.995C27.7686 117.804 30.7189 120.282 33.6693 122.265C35.8001 153.658 91.0374 151.51 110.051 150.849C123.491 150.354 135.948 143.579 140.046 137.136C142.833 131.683 143.16 126.726 142.833 122.1C151.848 115.656 159.224 107.23 164.141 97.1507C171.845 81.6193 171.353 65.2619 173.484 48.574C174.467 42.791 174.795 35.8515 174.467 29.9033Z" fill="#8FBBEF"/>
    <path d="M164.469 97.1536C172.173 81.6223 171.681 65.2648 173.812 48.5769C174.468 42.794 174.796 36.0196 174.468 29.9062C170.534 36.1849 168.403 38.8285 164.961 41.9678C160.044 46.2637 156.11 48.9073 150.373 51.8814C148.078 53.038 145.948 53.8642 143.489 54.6903C142.342 59.3166 141.522 64.2735 140.375 68.5694C135.294 89.2227 123.82 110.537 103.823 119.294C100.873 120.616 84.3178 121.772 85.793 125.903C86.4486 127.721 91.6937 128.382 93.005 130.86C94.3163 133.504 93.6606 138.626 93.1689 141.6C92.6772 144.409 90.8742 148.044 91.8576 151.183C99.2335 151.348 105.79 151.018 110.379 150.852C123.82 150.357 136.277 143.582 140.375 137.139C143.161 131.686 143.489 126.729 143.161 122.103C152.012 115.659 159.388 107.232 164.469 97.1536Z" fill="#80ABD6"/>
    <path d="M3.34711 51.8805C4.82229 51.7153 6.46138 51.7153 7.77265 52.3762C8.7561 52.8719 9.57565 53.8633 10.2313 54.8546C12.0343 57.6635 13.3456 60.6376 16.132 62.7855C21.541 66.751 28.5891 62.2898 34.162 65.5944C35.6372 66.4205 37.1124 67.7423 38.4236 68.8989C39.7349 70.0555 41.0462 71.2121 42.3574 72.2034C44.8161 74.1862 47.6025 76.0037 50.7168 76.995C54.3228 78.1516 58.0927 77.8212 61.8626 76.8298C65.1408 76.0037 68.2551 74.6818 71.6971 74.3514C73.3362 74.1862 74.9753 74.3514 76.6144 75.0123C78.5813 75.6732 80.3843 76.995 82.3512 77.9864C86.1211 79.8039 90.0549 81.1257 94.3166 81.2909C98.5782 81.4562 102.676 80.1343 106.446 77.9864C109.56 76.1689 112.674 74.5166 116.116 73.8557C118.903 73.36 121.689 74.0209 124.312 74.6819C127.59 75.508 131.032 76.995 134.474 76.6646C139.883 76.0037 142.342 71.2121 145.784 67.5771C147.587 65.5944 149.882 64.1073 152.504 63.6116C154.799 63.2812 156.93 63.7769 159.225 63.7769C161.519 63.7769 163.65 63.116 165.125 61.2985C166.273 59.9767 167.092 58.4896 167.748 56.8373C168.24 55.5155 168.403 54.1937 168.895 52.7067C169.223 51.5501 169.879 51.0544 171.19 51.2196C171.19 50.5587 171.19 49.7326 171.19 49.0717C170.37 49.2369 169.715 49.5674 169.059 50.063C168.076 51.0544 169.551 52.5414 170.534 51.5501C170.698 51.3849 170.862 51.2196 171.19 51.2196C172.501 51.0544 172.665 49.0717 171.19 49.0717C169.715 48.9065 168.403 49.4021 167.42 50.7239C166.6 51.8805 166.437 53.2024 166.109 54.5242C165.453 57.0026 163.978 60.1419 161.683 61.1332C159.88 61.7942 157.749 61.2985 155.782 61.1332C153.16 60.968 150.537 61.2985 148.243 62.6203C145.784 63.9421 143.981 65.9248 142.178 68.0728C140.703 69.8903 139.228 71.873 137.261 73.0296C134.966 74.5166 132.18 74.5166 129.557 73.6905C126.279 72.8644 123.001 71.7078 119.722 71.2121C116.772 70.8816 113.986 71.3773 111.363 72.5339C107.429 74.1862 103.987 76.8298 99.8895 77.9864C95.9557 79.143 91.8579 78.8125 87.9241 77.6559C85.9572 76.995 83.9903 76.1689 82.0234 75.1775C80.2204 74.1862 78.4174 73.0296 76.2866 72.5339C73.0084 71.5425 69.8941 72.2034 66.616 73.0296C63.01 74.0209 59.2401 75.3428 55.4702 75.3428C48.586 75.3428 43.6687 70.2207 38.5875 65.9248C37.2763 64.7682 35.8011 63.6116 34.162 62.7855C32.6868 62.1246 31.0477 61.7941 29.4086 61.6289C26.4583 61.4637 23.344 62.2898 20.3936 61.7942C16.9516 61.1332 14.9846 58.4896 13.3456 55.5155C12.0343 53.2023 10.5591 50.7239 7.93656 49.7326C6.46138 49.5674 4.82229 49.5674 3.34711 49.7326C1.87193 49.7326 1.87193 52.0458 3.34711 51.8805Z" fill="#E5E5B7"/>
    <path d="M5.96908 62.952C7.44427 62.4563 8.91945 62.4563 10.2307 63.2824C11.3781 64.1085 12.1976 65.4304 12.8533 66.5869C14.3284 69.0653 15.4758 72.2047 17.6066 74.0222C18.9179 75.0135 20.3931 75.5092 21.8683 75.8397C23.6713 76.0049 25.4743 75.6744 27.1133 75.1787C28.9163 74.6831 30.5554 74.1874 32.3584 74.8483C33.8336 75.344 35.1449 76.3353 36.1283 77.6572C38.2592 80.1356 39.5704 83.1096 42.3569 84.9271C43.996 85.9185 45.799 86.5794 47.602 86.5794C49.2411 86.5794 50.7162 86.0837 52.0275 85.4228C55.1418 83.9358 58.256 82.2835 61.862 82.4487C64.6485 82.614 67.1071 84.2662 69.4019 85.588C72.1883 87.2403 75.3026 89.0578 78.5808 89.884C82.0229 90.7101 85.4649 90.0492 88.7431 88.8926C91.8574 87.736 95.1356 86.249 98.4137 86.249C101.692 86.249 104.806 87.4055 107.593 88.8926C110.051 90.0492 112.51 91.5362 115.296 91.5362C118.902 91.7014 122.344 89.7187 125.459 87.9012C127.098 86.9099 128.737 85.7533 130.376 85.0924C132.179 84.4315 134.146 84.2662 136.277 84.4315C138.244 84.5967 140.047 85.0924 142.014 84.9271C143.98 84.7619 145.783 83.9358 147.423 82.614C149.881 80.466 150.701 77.1615 152.668 74.5178C153.651 73.3612 154.962 72.2047 156.274 71.8742C157.585 71.5438 159.06 71.3785 160.371 71.2133C162.666 70.7176 164.797 69.3958 166.6 68.074C167.747 67.4131 168.731 66.5869 169.714 65.5956C170.37 64.9347 171.189 64.2738 171.517 63.4476C172.009 62.6215 171.845 61.6301 170.862 61.1345C169.714 60.4735 168.567 62.291 169.714 62.952C169.878 63.1172 169.55 62.7867 169.55 62.7867C169.222 62.291 169.714 62.952 169.55 62.4563V62.291C169.55 62.291 169.386 62.6215 169.55 62.291C169.386 62.6215 169.222 62.7867 168.895 63.1172C168.075 63.9433 167.256 64.6042 166.272 65.4304C164.633 66.5869 162.502 68.074 160.699 68.7349C159.388 69.0653 157.913 69.2306 156.438 69.3958C155.126 69.7263 153.815 70.2219 152.668 71.0481C149.881 73.196 149.062 76.3353 147.095 79.1442C146.767 80.9617 145.456 82.1183 143.817 82.614C142.014 83.1096 140.047 82.9444 138.08 82.614C136.113 82.2835 134.146 82.1183 132.179 82.614C130.376 82.9444 128.573 83.7705 127.098 84.7619C123.984 86.5794 120.869 89.0578 117.263 89.5535C114.641 89.8839 112.182 88.7274 109.887 87.5708C107.101 86.0837 104.151 84.7619 101.036 84.4315C97.5942 83.9358 94.4799 84.9271 91.2018 86.0837C88.0875 87.2403 84.9732 88.5621 81.695 88.3969C78.4169 88.2317 75.1387 86.5794 72.3522 84.9271C69.8936 83.4401 67.435 81.7878 64.8124 80.9617C61.6981 80.1356 58.5839 80.466 55.6335 81.7878C52.6831 82.9444 49.7328 85.2576 46.2907 84.4315C44.6516 83.9358 43.1764 83.1096 42.0291 81.7878C40.8817 80.6312 40.0622 79.3094 39.2426 77.9876C37.2757 75.344 34.8171 73.0308 31.375 72.7003C27.769 72.3699 24.6547 74.8483 21.0487 73.8569C18.2623 73.0308 17.1149 70.0567 15.9675 67.7435C14.6563 65.2651 13.0172 62.291 10.2307 61.1345C8.75554 60.6388 7.11645 60.6388 5.64127 61.1345C4.00218 61.2997 4.65781 63.4476 5.96908 62.952Z" fill="#E5E5B7"/>
    <path opacity="0.1" d="M47.4375 66.7521C44.1593 64.4389 40.5533 62.6214 36.7834 60.9692C32.8496 59.1517 22.0316 51.8817 18.5895 56.6733C3.83769 61.1344 16.7865 87.2402 22.8511 95.9973C26.621 101.45 40.7172 113.016 46.7818 103.928C48.9126 100.624 48.0931 95.3364 48.4209 91.7014C48.7487 87.2402 48.7487 82.9443 49.4044 78.4832C50.2239 73.1959 52.1908 70.2219 47.4375 66.7521Z" fill="white"/>
    <path d="M67.4345 22.141C66.615 22.8019 66.2871 23.7933 66.7789 24.6194C67.1067 25.1151 67.5984 25.4455 68.0901 25.6108C69.7292 26.4369 71.6961 27.263 72.3518 28.9153C73.1713 30.7328 72.024 32.8808 70.7127 34.533C69.2375 36.1853 67.4345 37.5071 65.4676 38.3332C63.009 39.3246 60.0586 39.8203 57.9278 41.6378C57.4361 42.1335 56.9443 42.6291 56.9443 43.2901C56.9443 44.1162 57.9278 44.7771 58.7473 45.1075C63.5007 46.925 69.0736 45.9337 73.0074 42.7944C73.9909 41.9682 74.9743 41.1421 76.1217 40.4812C77.5969 39.6551 79.3999 39.6551 81.0389 39.4898C84.3171 38.9942 87.4314 38.0028 90.3818 36.5157C91.5291 36.0201 92.5126 35.1939 93.3321 34.3678C93.496 34.0373 93.8238 33.7069 93.8238 33.3764C93.9878 32.7155 93.3321 32.0546 92.6765 31.7242C92.0208 31.3937 91.2013 31.3937 90.5457 31.3937C88.5788 31.3937 86.7758 31.2285 84.9728 30.5676C83.1698 29.9067 81.6946 28.5849 80.875 26.9326C80.5472 26.1065 80.3833 25.2803 79.8916 24.6194C79.2359 23.4628 78.2525 22.8019 77.269 22.141C74.4826 20.8192 69.8931 20.1583 67.4345 22.141Z" fill="#F2DCA5"/>
    <path d="M93.7723 77.1348C88.1994 77.1348 82.6265 77.6304 77.0536 77.7957C65.9078 78.2914 54.762 78.2914 43.6161 78.2914C39.5184 78.2914 35.5846 78.1261 31.6508 78.1261C29.6839 78.1261 27.717 78.1261 25.7501 78.1261C24.7666 78.1261 21.4884 78.4566 22.1441 78.6218V79.1175C22.1441 82.2568 22.4719 86.057 24.6027 88.3702C26.4057 105.058 31.9786 145.373 35.7485 148.513C45.747 156.774 78.5288 157.27 87.2159 148.182C90.4941 144.713 95.5753 107.537 97.3783 89.8572C99.3452 88.5354 98.0339 85.3961 98.3617 82.5873C99.1813 77.1348 98.6896 77.3 93.7723 77.1348Z" fill="#EFE0CB"/>
    <path d="M59.5158 64.4138C39.355 64.7443 21.4889 70.5272 21.9806 78.1276C22.4723 85.7281 34.1099 93.9894 59.8436 93.9894C88.6916 93.9894 97.8705 89.3631 99.1817 78.9538C100.657 69.7011 81.8074 64.2486 59.5158 64.4138Z" fill="#EF6A60"/>
    <path d="M87.2165 148.183C90.1669 145.044 94.7563 113.981 96.8871 95.1455C94.4285 95.9716 91.9699 96.963 90.4947 97.2935C85.2496 98.4501 79.8406 99.111 74.5955 99.9371C69.5143 100.763 64.2693 100.928 58.8603 100.928C53.943 100.928 46.8949 100.598 42.7972 98.1196L42.9611 98.7805C45.2558 100.268 49.6814 101.259 52.6317 101.92C63.2858 104.068 74.1038 104.894 84.594 107.042C84.9218 112.66 84.4301 118.608 83.9383 124.225C83.4466 130.339 81.9714 136.948 80.4962 142.731C78.8572 149.34 70.3339 150.662 64.761 150.662C57.2212 150.662 49.1896 150.827 41.9776 148.679C39.8468 148.018 36.7326 145.87 34.2739 146.035C34.7657 147.357 35.2574 148.349 35.7491 148.679C45.7476 156.94 78.6932 157.436 87.2165 148.183Z" fill="#E8D2BF"/>
    <path d="M101.804 90.8503C99.8369 87.5457 101.968 80.6062 97.2143 79.2844C94.7557 78.6235 91.9692 79.1192 90.1662 80.9367C89.1828 81.928 86.3963 88.8675 89.3467 88.2066L89.8384 89.0328C92.6249 88.8675 94.4279 91.1807 95.0835 93.4939C95.7391 95.9723 97.3782 98.1202 99.673 99.6073C101.968 101.094 104.262 100.929 104.754 97.955C105.246 94.8157 103.115 93.1634 101.804 90.8503Z" fill="#EF6A60"/>
    <path opacity="0.3" d="M35.9126 98.4508C34.2735 97.9551 32.4705 97.4594 31.1592 98.1203C30.8314 98.1203 30.6675 98.2855 30.5036 98.7812C30.3397 99.2769 30.1758 99.7726 30.1758 100.599C30.1758 101.425 30.3397 102.416 30.5036 103.242C30.6675 104.729 30.8314 106.051 30.9953 106.382C31.651 110.843 32.7983 115.304 33.454 119.6C34.1096 123.896 34.2735 128.026 34.7652 132.322C35.093 135.131 36.0765 142.732 40.1742 142.401C45.0915 141.905 42.1411 131.331 42.1411 128.192C42.1411 122.243 43.9441 117.287 45.2554 111.669C46.4028 105.225 41.6494 100.433 35.9126 98.4508Z" fill="white"/>
    <path d="M87.0522 116.296C93.1169 125.714 91.4778 137.776 83.2823 143.063C75.0869 148.35 63.9411 143.889 56.0734 135.793C47.5502 127.036 48.5336 112.827 56.7291 107.539C64.7606 102.252 80.8237 106.713 87.0522 116.296Z" fill="white"/>
    <path d="M87.0518 116.296C86.3962 115.14 85.5767 114.148 84.7571 113.322C84.5932 116.957 84.4293 120.592 84.1015 124.062C83.6097 130.175 82.1346 136.784 80.6594 142.567C80.4955 143.394 80.1677 144.054 79.8398 144.715C80.9872 144.385 82.1346 143.724 83.2819 143.063C91.3135 137.776 93.1165 125.714 87.0518 116.296Z" fill="#DDDDDD"/>
    <path d="M65.9078 110.348C66.0717 110.017 66.3995 110.017 66.7273 110.017C67.0551 110.182 67.383 110.513 67.2191 110.843C67.2191 111.009 67.0551 111.174 66.8912 111.339L65.4161 112.991L65.2522 113.983C65.0882 114.478 64.7604 114.809 64.2687 114.644C63.777 114.478 63.6131 114.148 63.777 113.652L63.9409 112.661L63.2853 110.513C63.2853 110.348 63.1213 110.182 63.2853 110.017C63.2853 109.687 63.777 109.356 64.1048 109.521C64.4326 109.521 64.5965 109.852 64.7604 110.182L65.0882 111.504L65.9078 110.348Z" fill="#EF6A60"/>
    <path d="M70.6614 111.174C71.8087 111.669 72.6283 112.826 71.9726 114.478C71.317 116.131 70.0057 116.296 68.8584 115.965C67.711 115.47 66.8915 114.313 67.5471 112.661C68.0388 111.174 69.3501 110.843 70.6614 111.174ZM70.1696 112.33C69.514 112.165 69.1862 112.496 68.8584 113.156C68.5305 113.817 68.6945 114.478 69.1862 114.644C69.8418 114.809 70.1696 114.478 70.4975 113.817C70.8253 113.156 70.8253 112.661 70.1696 112.33Z" fill="#EF6A60"/>
    <path d="M74.7583 117.124C74.5944 116.958 74.4305 116.793 74.5944 116.463C74.7583 116.132 75.0862 116.132 75.2501 116.297L76.0696 116.793C76.3974 116.958 76.5613 117.454 76.2335 117.785L75.5779 118.941C75.414 119.272 75.0862 119.437 74.7583 119.272C74.4305 119.106 74.4305 118.776 74.5944 118.611V118.445C74.2666 118.611 73.611 118.445 73.1192 118.28C72.2997 117.785 71.4801 116.628 72.4636 114.976C73.4471 113.489 74.9222 113.489 75.7418 114.15C77.0531 114.976 77.0531 115.802 76.7253 116.132C76.5613 116.463 76.2335 116.628 75.7418 116.297C75.2501 115.967 75.5779 115.471 75.0862 115.141C74.5944 114.81 74.1027 114.976 73.611 115.802C73.1192 116.463 73.1192 116.958 73.7749 117.454C74.1027 117.785 74.4305 117.619 74.7583 117.454V117.124Z" fill="#EF6A60"/>
    <path d="M80.9878 118.773C81.3156 118.443 81.8074 118.278 82.1352 118.608C82.463 118.939 82.463 119.269 82.1352 119.765L80.66 121.417C79.6765 122.574 78.6931 122.243 77.7096 121.417C76.7262 120.591 76.3984 119.434 77.2179 118.443L78.6931 116.791C79.0209 116.46 79.5126 116.295 79.8405 116.625C80.1683 116.956 80.1683 117.286 79.8405 117.782L78.3653 119.434C78.0375 119.765 78.0375 120.26 78.3653 120.591C78.6931 120.921 79.1848 120.921 79.5126 120.426L80.9878 118.773Z" fill="#EF6A60"/>
    <path d="M82.954 120.922C83.4458 120.591 83.7736 120.591 84.2653 121.087L85.4127 122.409C86.0683 123.235 86.0683 124.061 85.4127 124.557C84.921 124.887 84.4292 124.887 83.9375 124.557C84.2653 124.887 84.2653 125.383 83.9375 125.713L83.6097 126.044C83.4458 126.209 83.2819 126.374 83.118 126.539C82.7901 126.705 82.4623 126.705 82.2984 126.374C81.9706 126.044 81.9706 125.713 82.2984 125.383L82.7901 124.887C83.1179 124.557 82.954 124.391 82.7901 124.061L82.4623 123.565L81.4789 124.061C81.151 124.391 80.6593 124.391 80.3315 124.061C80.0037 123.731 80.0037 123.235 80.4954 122.904L82.954 120.922ZM83.4458 123.4C83.7736 123.731 83.9375 123.731 84.2653 123.565C84.5931 123.4 84.4292 123.07 84.2653 122.739L83.7736 122.078L83.118 122.739L83.4458 123.4Z" fill="#EF6A60"/>
    <path d="M86.069 125.549C85.9051 125.219 85.9051 124.888 86.2329 124.723C86.5608 124.558 86.8886 124.558 87.0525 125.053L88.6916 127.862C89.0194 128.193 88.8555 128.523 88.5277 128.688C88.1998 128.854 87.872 128.854 87.7081 128.523L87.2164 127.697L84.9217 129.184C84.4299 129.514 84.1021 129.349 83.7743 129.019C83.6104 128.688 83.6104 128.193 84.1021 127.862L86.3968 126.375L86.069 125.549Z" fill="#EF6A60"/>
    <path d="M76.2336 124.226C75.2501 122.243 72.4637 120.425 70.169 121.417C68.5299 122.078 67.2186 123.4 65.9073 124.226C64.76 124.06 63.1209 124.887 62.4652 125.548C60.9901 127.035 60.4983 129.513 60.9901 131.496C62.1374 135.792 66.2351 138.435 70.169 139.922C71.4802 140.418 73.775 140.748 75.2501 140.253C77.7088 139.261 77.7088 137.113 77.8727 135.296C78.0366 131.661 78.0366 127.365 76.2336 124.226Z" fill="#ED4B48"/>
    <path d="M62.6289 128.025C62.6289 128.686 62.7928 129.512 62.9567 130.173C62.9567 130.338 63.2845 130.834 63.4485 130.504C63.4485 130.338 63.2845 130.173 63.1206 130.504C63.2845 130.504 63.2845 130.504 63.2845 130.338V130.173C63.2845 130.008 63.1206 129.843 63.1206 129.678C63.1206 129.017 62.9567 128.521 62.9567 128.025C62.9567 127.86 62.6289 127.86 62.6289 128.025Z" fill="#EACE49"/>
    <path d="M64.7608 127.364C64.9247 127.529 65.0887 127.859 65.2526 128.025C65.2526 128.19 65.4165 128.19 65.4165 128.355V128.52V128.355H65.5804C65.4165 128.19 65.2526 128.355 65.4165 128.52C65.5804 128.685 65.7443 128.52 65.7443 128.355C65.7443 128.19 65.5804 128.025 65.5804 128.025C65.4165 127.694 65.0887 127.198 64.7608 127.033C64.7608 127.033 64.5969 127.364 64.7608 127.364Z" fill="#EACE49"/>
    <path d="M67.875 126.373C68.2028 126.704 68.5306 126.869 68.6945 127.034C68.8584 127.2 69.0223 126.869 68.8584 126.704C68.5306 126.539 68.2028 126.373 68.0389 126.043C68.0389 126.043 67.7111 126.208 67.875 126.373Z" fill="#EACE49"/>
    <path d="M70.1695 124.888C70.6613 125.219 70.9891 125.384 71.4808 125.714C71.6447 125.714 71.8086 125.549 71.4808 125.384C70.9891 125.219 70.6613 124.888 70.1695 124.723C70.1695 124.558 70.0056 124.888 70.1695 124.888Z" fill="#EACE49"/>
    <path d="M72.9559 122.904C73.1198 122.904 73.1198 122.573 72.9559 122.573C72.792 122.573 72.792 122.904 72.9559 122.904Z" fill="#EACE49"/>
    <path d="M72.9559 122.905C73.2837 123.07 73.6115 123.401 73.9394 123.566C74.1033 123.731 74.2672 123.401 74.1033 123.235C73.9394 123.235 73.7755 123.07 73.7755 122.905C73.6115 122.74 73.4476 122.574 73.2837 122.409C72.9559 122.574 72.792 122.905 72.9559 122.905Z" fill="#EACE49"/>
    <path d="M62.6289 132.653C62.7928 133.148 62.9567 133.644 63.2845 133.975C63.4485 134.14 63.6124 133.975 63.4484 133.809C63.1206 133.479 62.9567 132.983 62.9567 132.653C62.7928 132.322 62.6289 132.487 62.6289 132.653Z" fill="#EACE49"/>
    <path d="M65.2529 131.828C65.4168 132.159 65.5807 132.489 65.9086 132.655C66.0725 132.82 66.2364 132.655 66.0725 132.489C65.9086 132.324 65.5807 131.994 65.4168 131.663C65.4168 131.498 65.2529 131.663 65.2529 131.828Z" fill="#EACE49"/>
    <path d="M68.5298 130.173C68.8576 130.504 69.1855 130.834 69.5133 130.999C69.6772 130.999 69.8411 130.669 69.5133 130.669C69.1855 130.504 68.8576 130.173 68.6937 130.008C68.5298 129.843 68.3659 130.008 68.5298 130.173Z" fill="#EACE49"/>
    <path d="M71.3164 128.854C71.4803 129.184 71.6442 129.515 71.972 129.68C72.136 129.845 72.2999 129.68 72.136 129.515C71.972 129.349 71.8081 129.019 71.4803 128.689C71.4803 128.523 71.1525 128.689 71.3164 128.854Z" fill="#EACE49"/>
    <path d="M73.7751 127.861C73.939 128.026 74.103 128.191 74.2669 128.522C74.4308 128.687 74.5947 128.522 74.5947 128.356C74.4308 128.191 74.2669 128.026 74.103 127.695C73.939 127.53 73.6112 127.695 73.7751 127.861Z" fill="#EACE49"/>
    <path d="M75.7424 126.703C75.9063 127.034 76.0702 127.364 76.0702 127.695C76.0702 127.86 76.398 127.86 76.398 127.695C76.398 127.364 76.2341 127.034 76.0702 126.538C75.9063 126.538 75.5785 126.538 75.7424 126.703Z" fill="#EACE49"/>
    <path d="M66.0718 135.955C66.3996 136.286 66.8913 136.616 67.2192 136.782C67.3831 136.782 67.547 136.616 67.3831 136.451C66.8913 136.286 66.5635 135.955 66.2357 135.625C66.0718 135.625 65.9079 135.79 66.0718 135.955Z" fill="#EACE49"/>
    <path d="M68.8585 134.964C69.1863 135.129 69.3502 135.46 69.678 135.46C69.8419 135.46 70.0059 135.295 69.678 135.129C69.3502 134.964 69.1863 134.799 68.8585 134.634C68.8585 134.634 68.6946 134.799 68.8585 134.964Z" fill="#EACE49"/>
    <path d="M71.8091 133.312C71.973 133.642 72.3008 133.973 72.4647 134.303C72.6286 134.468 72.7925 134.303 72.6286 134.138C72.4647 133.808 72.1369 133.642 71.973 133.312C71.973 132.981 71.6452 133.147 71.8091 133.312Z" fill="#EACE49"/>
    <path d="M74.5956 132.155C74.7595 132.155 74.7595 131.824 74.5956 131.824C74.4317 131.824 74.4317 132.155 74.5956 132.155Z" fill="#EACE49"/>
    <path d="M74.4314 131.992C74.5953 132.323 74.7592 132.653 74.9231 132.984C74.9231 133.149 75.2509 133.149 75.2509 132.984C75.2509 132.653 75.087 132.158 74.7592 131.827C74.5953 131.662 74.2675 131.827 74.4314 131.992Z" fill="#EACE49"/>
    <path d="M76.7263 130.999C76.8902 131.33 76.8902 131.66 76.7263 131.991C76.7263 132.156 77.0541 132.321 77.0541 131.991C77.0541 131.66 77.0541 131.165 77.0541 130.834C76.8902 130.669 76.5624 130.669 76.7263 130.999Z" fill="#EACE49"/>
    <path d="M69.8423 138.768C70.1701 138.933 70.6619 139.263 71.1536 139.263C71.3175 139.263 71.3175 138.933 71.1536 138.933C70.6619 138.933 70.334 138.768 70.0062 138.602C69.8423 138.272 69.6784 138.602 69.8423 138.768Z" fill="#EACE49"/>
    <path d="M71.9722 137.277C72.3 137.607 72.6278 137.772 73.1195 137.937C73.2834 137.937 73.4474 137.607 73.1195 137.607C72.7917 137.607 72.4639 137.277 72.1361 137.111C71.9722 136.946 71.8083 137.111 71.9722 137.277Z" fill="#EACE49"/>
    <path d="M74.2668 136.29C74.4307 136.456 74.4307 136.786 74.5947 136.951C74.7586 137.116 74.9225 136.951 74.9225 136.786C74.7586 136.456 74.7586 136.29 74.5947 136.125C74.4307 135.96 74.1029 136.125 74.2668 136.29Z" fill="#EACE49"/>
    <path d="M76.8896 134.798C76.8896 135.128 77.0536 135.294 76.8896 135.624C76.8896 135.789 77.2175 135.955 77.2175 135.624C77.2175 135.294 77.2175 134.963 77.2175 134.633C77.0536 134.633 76.8896 134.633 76.8896 134.798Z" fill="#EACE49"/>
    <path d="M73.6111 139.423C73.9389 139.589 74.4306 139.754 74.9224 139.754C75.0863 139.754 75.0863 139.423 74.9224 139.423C74.5945 139.423 74.1028 139.258 73.775 139.258C73.4472 139.093 73.4472 139.423 73.6111 139.423Z" fill="#EACE49"/>
    <path d="M74.7596 138.765C74.9235 138.93 75.0874 139.095 75.4152 139.095C75.5792 139.095 75.5792 138.765 75.4152 138.765L75.2513 138.6L75.0874 138.435C74.7596 138.435 74.5957 138.6 74.7596 138.765Z" fill="#EACE49"/>
    <path d="M76.5624 137.61C76.7263 137.61 76.7263 137.279 76.5624 137.279C76.3985 137.279 76.3985 137.61 76.5624 137.61Z" fill="#EACE49"/>
    <path d="M76.3984 137.609C76.3984 137.939 76.3984 138.104 76.3984 138.435C76.3984 138.6 76.7263 138.765 76.7263 138.435C76.7263 138.104 76.7263 137.774 76.7263 137.443C76.5623 137.278 76.3984 137.278 76.3984 137.609Z" fill="#EACE49"/>
    <path d="M66.0725 121.911C65.4169 121.25 65.089 120.093 64.7612 119.267C64.1056 119.432 62.6304 120.093 62.1387 120.754C63.1221 121.415 64.2695 122.241 65.089 123.232C62.9582 122.902 60.4996 124.389 59.0244 125.711C60.1718 125.711 61.1552 125.711 62.3026 125.711C63.1221 125.711 64.9251 125.546 65.5808 124.885L65.253 125.05C66.4003 124.554 67.5477 123.893 68.3672 122.902C68.8589 122.406 69.5146 121.745 69.8424 121.084C70.1702 120.424 70.1702 119.432 70.8259 118.937C68.695 118.937 66.7281 119.928 66.0725 121.911Z" fill="#53B748"/>
    <g opacity="0.5">
        <path opacity="0.5" d="M28.8647 79.7785C29.0287 83.9092 33.9459 85.5615 37.2241 86.5528C42.1414 88.0399 47.3865 88.866 52.4676 89.3617C59.6796 90.0226 66.8916 89.5269 74.1036 88.866C79.1848 88.3703 84.9216 87.7094 89.3471 84.9005C91.314 83.5787 93.117 81.596 93.7727 79.1176C94.2644 76.9697 93.4449 74.8217 91.9697 73.3347C87.872 69.0388 80.9878 68.0474 75.5788 67.3865C68.5307 66.3951 61.6465 66.7256 54.5984 67.056C48.8616 67.2213 42.797 67.5517 37.5519 69.8649C34.6016 71.1867 31.6512 73.3347 30.3399 76.474C30.6677 76.474 31.1595 76.6392 31.4873 76.6392C31.4873 76.474 31.4873 76.3087 31.4873 76.1435C31.4873 75.3174 30.3399 75.3174 30.3399 76.1435C30.3399 76.3087 30.3399 76.474 30.3399 76.6392C30.3399 77.3001 31.3234 77.4653 31.4873 76.8044C32.6347 73.8303 35.7489 71.8476 38.6993 70.691C41.4857 69.5344 44.6 69.0388 47.5504 68.7083C50.5007 68.3779 53.4511 68.2126 56.4014 68.2126C59.8435 68.0474 63.2856 67.8822 66.7277 68.0474C70.4976 68.0474 74.4314 68.3779 78.2013 69.0388C81.3156 69.5344 84.5938 70.3606 87.5441 71.6824C89.8389 72.839 92.2975 74.326 92.9531 76.9697C93.6088 79.7785 91.1501 82.4221 89.0193 83.9092C84.9216 86.718 79.3487 87.2137 74.4314 87.7094C67.8751 88.3703 61.3187 88.866 54.5984 88.3703C49.5173 88.0399 44.4361 87.0485 39.5188 85.8919C36.5685 85.0658 30.6677 83.744 30.5038 79.7785C30.0121 78.9524 28.8647 78.9524 28.8647 79.7785Z" fill="white"/>
    </g>
    <path opacity="0.1" d="M72.7919 68.8736C70.1694 66.7256 65.0882 67.2213 61.81 67.2213C52.795 67.2213 43.1244 67.8822 34.6011 70.8563C31.9786 71.8477 28.5365 73.4999 27.2252 76.1436C26.4057 77.1349 25.75 78.4567 25.914 79.9438C26.0779 83.0831 29.6839 84.2397 32.1425 85.0658C35.2568 86.2224 38.6989 86.8833 41.8131 86.0572C47.0582 84.7354 42.4688 82.4222 42.9605 78.9524C43.6161 74.8217 51.9755 74.4913 54.9258 74.1608C59.5153 73.6652 64.2687 73.1695 68.8581 73.0042C71.1528 73.1695 76.0701 71.5172 72.7919 68.8736Z" fill="white"/>
</svg>
