<svg width="197" height="175" viewBox="0 0 197 175" fill="none" xmlns="http://www.w3.org/2000/svg">
<path d="M192.232 20.3207C184.464 7.82998 157.093 0 91.2538 0C68.8759 0 46.1281 2.60999 25.0448 10.6264C18.202 13.4228 0.632619 20.6935 0.0777962 38.4042C-0.107145 42.1328 2.11215 45.302 2.85191 49.0306L5.44109 59.2841C5.44109 58.9113 5.44109 58.7249 5.44109 58.352C19.1267 122.297 101.61 116.89 149.14 98.8069C166.895 92.0955 180.58 82.5877 189.088 65.0634C192.417 58.1656 195.561 48.6577 196.67 41.0142C197.04 38.5906 196.485 36.5399 196.855 34.1163C196.485 28.8964 194.636 24.2357 192.232 20.3207Z" fill="#688EAD"/>
<path d="M20.0509 35.2328C23.0099 34.4871 26.1539 34.4871 28.9281 33.7414C32.9968 32.6228 36.1408 29.64 39.4697 27.2164C45.2029 23.3014 51.8607 20.6914 58.7036 19.9457C65.9163 19.0136 73.4989 19.9457 80.7116 18.8271C88.1092 17.7086 95.3219 14.5393 102.904 14.9121C110.117 15.285 116.775 18.6407 123.988 19.2C132.125 19.9457 140.817 16.9629 148.585 20.1321C152.284 21.6236 155.428 24.42 159.312 25.5385C161.901 26.2843 164.675 26.2843 167.264 26.4707C173.182 27.2164 178.545 30.1993 183.909 32.9957C187.977 35.2328 192.231 37.6564 194.08 41.9442C196.3 47.3506 193.526 53.6892 189.457 57.977C182.244 65.807 171.703 69.3492 161.346 71.9592C138.598 77.552 114.926 78.6706 91.4381 79.2299C73.3139 79.7891 55.0047 79.9756 37.0655 76.4334C30.4076 75.1284 23.5648 73.0777 18.7563 68.417C10.4339 59.8413 3.77607 39.7071 20.0509 35.2328Z" fill="#F4D09F"/>
<path d="M153.024 29.455C152.654 30.76 151.359 31.6921 150.25 32.4378C148.4 33.7428 146.181 34.8614 143.962 35.7935C143.037 36.1664 142.112 36.5393 141.372 37.285C140.633 38.0307 140.448 39.3357 141.187 39.895C141.557 40.2678 141.927 40.2678 142.297 40.4543C145.071 41.0135 147.475 39.1493 150.25 38.7764C152.284 38.4035 154.318 38.7764 156.353 38.9628C158.387 38.9628 160.606 38.7764 162.086 37.4714C162.641 37.0985 163.011 36.5393 163.011 35.7935C163.011 35.0478 162.641 34.4886 161.901 34.3021C164.49 35.4207 167.449 35.7935 170.408 35.6071C171.148 35.6071 172.073 35.2343 172.443 34.4886C172.628 34.1157 172.443 33.7428 172.443 33.37C171.888 31.1328 169.299 30.0143 167.079 29.6414C164.86 29.2686 162.456 29.2686 160.606 27.9636C159.682 27.4043 159.127 26.4721 158.202 25.9129C156.538 24.7943 153.024 24.0486 151.359 25.3536C152.469 26.2857 153.579 27.7771 153.024 29.455Z" fill="#F2C194"/>
<path d="M118.255 43.4376C117.515 44.929 115.85 45.4883 114.186 46.0476C111.782 46.9797 109.747 48.0983 107.898 49.7761C107.713 49.9626 107.528 50.149 107.343 50.5219C106.788 51.6404 108.268 52.5726 109.562 52.3861C110.672 52.1997 111.782 51.454 112.891 51.454C114.371 51.454 115.48 52.3861 116.775 52.759C117.7 52.9454 118.809 52.9454 119.734 52.759C124.358 52.1997 128.796 51.6404 133.42 51.0811C135.084 50.8947 137.119 50.5219 138.043 49.0304C138.228 48.6576 138.413 48.2847 138.413 47.9119C138.228 47.1662 137.488 46.7933 136.934 46.6069C134.899 46.0476 132.68 45.8612 130.646 46.0476C130.276 44.1833 133.975 43.8104 134.159 41.7597C131.015 41.014 127.687 40.4547 124.543 39.709C121.214 38.9633 117.885 38.404 114.741 38.7769C116.405 39.5226 119.549 40.8276 118.255 43.4376Z" fill="#F2C194"/>
<path d="M139.892 56.6724C142.666 55.181 144.886 52.571 145.44 49.4017C150.619 49.4017 156.352 49.4017 160.421 46.046C161.345 45.3003 162.085 44.3682 163.01 43.8089C164.119 43.0632 165.599 42.8767 167.078 42.6903C170.962 42.131 174.661 41.5717 178.545 40.826C178.915 40.826 179.47 40.6396 179.839 40.826C180.579 41.1989 180.764 42.3174 180.579 43.0632C179.839 45.8596 177.065 47.7239 174.291 48.4696C171.517 49.2153 168.558 49.4017 165.784 50.3339C163.195 51.266 160.975 53.1303 158.756 54.6217C155.612 56.6724 152.283 58.3503 148.584 59.6553C141.002 62.2653 132.864 62.4517 124.727 62.6381C120.473 62.8245 116.405 62.8245 112.336 62.0788C116.405 58.9096 122.138 60.401 126.761 60.0281C131.015 59.4688 136.008 58.9096 139.892 56.6724Z" fill="#F2C194"/>
<path d="M65.9164 38.403C67.0261 38.5894 68.3207 38.5894 69.4303 38.2166C70.5399 37.8437 71.6496 36.9116 71.6496 35.793C71.6496 34.8609 71.2797 34.1152 70.54 33.3695C69.8002 32.8102 69.0604 32.4373 68.1357 32.0645C64.8068 30.9459 57.2242 29.8273 55.5597 34.1152C54.0802 38.7759 63.6971 38.2166 65.9164 38.403Z" fill="#BF9777"/>
<path d="M59.2585 37.1C63.7527 37.1 67.3959 33.4275 67.3959 28.8972C67.3959 24.3669 63.7527 20.6943 59.2585 20.6943C54.7643 20.6943 51.1211 24.3669 51.1211 28.8972C51.1211 33.4275 54.7643 37.1 59.2585 37.1Z" fill="#600C4E"/>
<path d="M63.512 20.8794L63.6969 21.0658C63.6969 21.0658 63.8819 21.0658 64.0668 21.0658C64.6216 20.8794 65.1765 20.693 65.5463 20.5066C65.5463 20.8794 65.3614 21.2523 65.3614 21.6251C65.9162 21.6251 66.656 21.6251 67.2108 21.6251C67.0259 21.998 66.656 22.3708 66.471 22.7437C66.8409 22.7437 67.3957 22.7437 67.7656 22.7437C67.9506 22.7437 68.1355 22.7437 68.1355 22.9301C68.1355 22.9301 68.1355 23.1165 67.9506 23.1165C67.3957 23.6758 66.8409 24.2351 66.2861 24.608C66.1012 24.7944 65.7313 24.9808 65.3614 25.1673C64.9915 25.1673 64.8066 24.9808 64.4367 24.9808C63.512 24.608 62.0325 23.6758 61.6626 22.7437C61.2927 21.8115 62.2174 20.693 62.7722 19.9473C63.327 20.5066 63.327 20.693 63.512 20.8794Z" fill="#600C4E"/>
<path opacity="0.33" d="M56.6692 22.9298C55.7445 23.4891 55.0048 24.2348 54.8198 25.3534C54.8198 25.5398 54.8198 25.9126 54.8198 26.0991C54.8198 26.4719 55.1897 26.6584 55.3746 26.8448C55.5596 27.0312 55.7445 27.2176 55.9295 27.0312C56.2994 27.0312 56.4843 26.6584 56.6692 26.2855C57.409 25.1669 58.7036 24.4212 59.9982 24.7941C60.368 24.7941 60.7379 24.9805 60.9229 24.6077C60.9229 24.6077 60.9229 24.4212 60.9229 24.2348C61.1078 21.9977 58.1488 22.3705 56.6692 22.9298Z" fill="white"/>
<path d="M45.3888 54.9977C46.4984 55.1842 47.793 55.1842 48.9027 54.8113C50.0123 54.4384 51.1219 53.5063 51.1219 52.3877C51.1219 51.4556 50.7521 50.7099 50.0123 49.9642C49.2725 49.4049 48.5328 49.032 47.6081 48.6592C44.2791 47.5406 36.6965 46.422 35.0321 50.7099C33.5525 55.3706 42.9845 54.8113 45.3888 54.9977Z" fill="#BF9777"/>
<path d="M46.5739 47.4071C47.6156 43 44.916 38.5761 40.544 37.526C36.1721 36.4758 31.7835 39.1972 30.7417 43.6043C29.7 48.0113 32.3996 52.4353 36.7715 53.4854C41.1435 54.5355 45.5321 51.8142 46.5739 47.4071Z" fill="#600C4E"/>
<path d="M42.7991 37.4741L42.984 37.6606C42.984 37.6606 43.169 37.6606 43.3539 37.6606C43.9087 37.4741 44.4636 37.2877 44.8334 37.1013C44.8334 37.4741 44.6485 37.847 44.6485 38.2198C45.2033 38.2198 45.9431 38.2198 46.4979 38.2198C46.313 38.5927 45.9431 38.9656 45.7582 39.3384C46.128 39.3384 46.6829 39.3384 47.0527 39.3384C47.2377 39.3384 47.4226 39.3384 47.4226 39.5248C47.4226 39.5248 47.4226 39.7113 47.2377 39.7113C46.6829 40.2706 46.128 40.8298 45.5732 41.2027C45.3883 41.3891 45.0184 41.5755 44.6485 41.762C44.2786 41.762 44.0937 41.5755 43.7238 41.5755C42.7991 41.2027 41.3196 40.2706 40.9497 39.3384C40.5798 38.4063 41.5045 37.2877 42.0593 36.542C42.6142 37.1013 42.7991 37.2877 42.7991 37.4741Z" fill="#600C4E"/>
<path opacity="0.33" d="M36.1399 39.5236C35.2152 40.0828 34.4755 40.8285 34.2905 41.9471C34.2905 42.1335 34.2905 42.5064 34.2905 42.6928C34.2905 43.0657 34.6604 43.2521 34.8454 43.4385C35.0303 43.625 35.2152 43.8114 35.4002 43.625C35.7701 43.625 35.955 43.2521 36.1399 42.8793C36.8797 41.7607 38.1743 41.015 39.4689 41.3878C39.8388 41.3878 40.2086 41.5743 40.3936 41.2014C40.3936 41.2014 40.3936 41.015 40.3936 40.8285C40.5785 38.5914 37.4345 38.9643 36.1399 39.5236Z" fill="white"/>
<path d="M119.179 58.7272C120.288 58.9137 121.583 58.9137 122.693 58.5408C123.802 58.168 124.912 57.2358 124.912 56.1172C124.912 55.1851 124.542 54.4394 123.802 53.6937C123.063 53.1344 122.323 52.7615 121.398 52.3887C118.069 51.2701 110.487 50.1515 108.822 54.4394C107.343 59.1001 116.775 58.5408 119.179 58.7272Z" fill="#BF9777"/>
<path d="M115.048 57.0245C119.323 55.6256 121.663 50.9985 120.275 46.6897C118.887 42.381 114.297 40.0221 110.023 41.4211C105.748 42.82 103.408 47.4471 104.796 51.7558C106.184 56.0646 110.774 58.4235 115.048 57.0245Z" fill="#600C4E"/>
<path d="M116.774 41.2007L116.959 41.3871C116.959 41.3871 117.144 41.3871 117.329 41.3871C117.884 41.2007 118.439 41.0143 118.809 40.8278C118.809 41.2007 118.624 41.5736 118.624 41.9464C119.179 41.9464 119.918 41.9464 120.473 41.9464C120.288 42.3193 119.918 42.6921 119.734 43.065C120.103 43.065 120.658 43.065 121.028 43.065C121.213 43.065 121.398 43.065 121.398 43.2514C121.398 43.2514 121.398 43.4378 121.213 43.4378C120.658 43.9971 120.103 44.5564 119.549 44.9293C119.364 45.1157 118.994 45.3021 118.624 45.4885C118.254 45.4885 118.069 45.3021 117.699 45.3021C116.774 44.9293 115.295 43.9971 114.925 43.065C114.555 42.1328 115.48 41.0143 116.035 40.2686C116.405 40.6414 116.59 41.0143 116.774 41.2007Z" fill="#600C4E"/>
<path opacity="0.33" d="M109.932 43.2522C109.007 43.8115 108.267 44.5572 108.082 45.6758C108.082 45.8622 108.082 46.235 108.082 46.4215C108.082 46.7943 108.452 46.9808 108.637 47.1672C108.822 47.3536 109.007 47.54 109.192 47.3536C109.562 47.3536 109.747 46.9808 109.932 46.6079C110.671 45.4893 111.966 44.7436 113.261 45.1165C113.631 45.1165 114 45.3029 114.185 44.93C114.185 44.93 114.185 44.7436 114.185 44.5572C114.37 42.3201 111.226 42.5065 109.932 43.2522Z" fill="white"/>
<path d="M137.674 41.5729C138.783 41.7594 140.078 41.7594 141.187 41.3865C142.297 41.0137 143.407 40.0815 143.407 38.9629C143.407 38.0308 143.037 37.2851 142.297 36.5394C141.557 35.9801 140.818 35.6072 139.893 35.2344C136.564 34.1158 128.981 32.9972 127.317 37.2851C125.652 41.9458 135.269 41.3865 137.674 41.5729Z" fill="#BF9777"/>
<path d="M131.016 40.2699C135.51 40.2699 139.153 36.5974 139.153 32.0671C139.153 27.5368 135.51 23.8643 131.016 23.8643C126.521 23.8643 122.878 27.5368 122.878 32.0671C122.878 36.5974 126.521 40.2699 131.016 40.2699Z" fill="#600C4E"/>
<path d="M135.085 24.0493L135.27 24.2358C135.27 24.2358 135.455 24.2358 135.64 24.2358C136.195 24.0493 136.749 23.8629 137.119 23.6765C137.119 24.0493 136.934 24.4222 136.934 24.795C137.489 24.795 138.229 24.795 138.784 24.795C138.599 25.1679 138.229 25.5408 138.044 25.9136C138.414 25.9136 138.969 25.9136 139.339 25.9136C139.524 25.9136 139.709 25.9136 139.709 26.1C139.709 26.1 139.709 26.2865 139.524 26.2865C138.969 26.8457 138.414 27.405 137.859 27.7779C137.674 27.9643 137.304 28.1507 136.934 28.3372C136.565 28.3372 136.38 28.1507 136.01 28.1507C135.085 27.7779 133.605 26.8457 133.236 25.9136C132.866 24.9815 133.79 23.8629 134.345 23.1172C134.9 23.6765 135.085 23.8629 135.085 24.0493Z" fill="#600C4E"/>
<path opacity="0.33" d="M128.242 26.0999C127.317 26.6591 126.578 27.4049 126.393 28.5234C126.393 28.7099 126.393 29.0827 126.393 29.2691C126.393 29.642 126.762 29.8284 126.947 30.0149C127.132 30.2013 127.317 30.3877 127.502 30.2013C127.872 30.2013 128.057 29.8284 128.242 29.4556C128.982 28.337 130.276 27.5913 131.571 27.9641C131.941 27.9641 132.311 28.1506 132.496 27.7777C132.496 27.7777 132.496 27.5913 132.496 27.4049C132.866 25.1677 129.722 25.3541 128.242 26.0999Z" fill="white"/>
<path d="M102.719 25.3561C103.829 25.5426 105.123 25.5426 106.233 25.1697C107.343 24.7969 108.452 23.8647 108.452 22.7461C108.452 21.814 108.082 21.0683 107.343 20.3226C106.603 19.7633 105.863 19.3904 104.938 19.0176C101.609 17.899 94.0269 16.7804 92.3624 21.0683C90.8829 25.729 100.315 25.1697 102.719 25.3561Z" fill="#BF9777"/>
<path d="M103.971 17.7739C104.995 13.3627 102.277 8.95052 97.9009 7.91897C93.5249 6.88742 89.1479 9.62713 88.1246 14.0383C87.1013 18.4494 89.8191 22.8616 94.1951 23.8932C98.5711 24.9247 102.948 22.185 103.971 17.7739Z" fill="#600C4E"/>
<path d="M100.316 7.82862L100.501 8.01505C100.501 8.01505 100.686 8.01505 100.871 8.01505C101.425 7.82862 101.98 7.6422 102.35 7.45577C102.35 7.82862 102.165 8.20148 102.165 8.57434C102.72 8.57434 103.46 8.57434 104.015 8.57434C103.83 8.94719 103.46 9.32005 103.275 9.6929C103.645 9.6929 104.199 9.6929 104.569 9.6929C104.754 9.6929 104.939 9.69291 104.939 9.87933C104.939 9.87933 104.939 10.0658 104.754 10.0658C104.199 10.625 103.645 11.1843 103.09 11.5572C102.905 11.7436 102.535 11.93 102.165 12.1165C101.795 12.1165 101.61 11.93 101.24 11.93C100.316 11.5572 98.8362 10.625 98.4663 9.6929C98.0964 8.76076 99.0211 7.6422 99.5759 6.89648C99.9458 7.45577 100.131 7.6422 100.316 7.82862Z" fill="#600C4E"/>
<path opacity="0.33" d="M93.4729 9.88195C92.5482 10.4412 91.8085 11.1869 91.6235 12.3055C91.6235 12.4919 91.6235 12.8648 91.6235 13.0512C91.6235 13.4241 91.9934 13.6105 92.1784 13.7969C92.3633 13.9834 92.5482 14.1698 92.7332 13.9834C93.1031 13.9834 93.288 13.6105 93.4729 13.2377C94.2127 12.1191 95.5073 11.3734 96.8019 11.7462C97.1718 11.7462 97.5417 11.9327 97.7266 11.5598C97.7266 11.5598 97.7266 11.3734 97.7266 11.1869C97.9115 8.94981 94.7675 9.32266 93.4729 9.88195Z" fill="white"/>
<path d="M172.073 62.8268C173.183 63.0133 174.477 63.0133 175.587 62.6404C176.696 62.2676 177.806 61.3354 177.806 60.2168C177.806 59.2847 177.436 58.539 176.696 57.7933C175.957 57.234 175.217 56.8611 174.292 56.4883C170.963 55.3697 163.381 54.2511 161.716 58.539C160.237 63.1997 169.669 62.6404 172.073 62.8268Z" fill="#BF9777"/>
<path d="M173.435 54.9769C174.38 50.5481 171.585 46.1855 167.191 45.2328C162.798 44.28 158.47 47.098 157.525 51.5268C156.58 55.9556 159.375 60.3182 163.769 61.271C168.162 62.2237 172.49 59.4058 173.435 54.9769Z" fill="#600C4E"/>
<path d="M169.483 45.3023L169.668 45.4887C169.668 45.4887 169.853 45.4887 170.038 45.4887C170.593 45.3023 171.148 45.1158 171.518 44.9294C171.518 45.3023 171.333 45.6751 171.333 46.048C171.888 46.048 172.627 46.048 173.182 46.048C172.997 46.4208 172.627 46.7937 172.442 47.1665C172.812 47.1665 173.367 47.1665 173.737 47.1665C173.922 47.1665 174.107 47.1665 174.107 47.353C174.107 47.353 174.107 47.5394 173.922 47.5394C173.367 48.0987 172.812 48.658 172.258 49.0308C172.073 49.2173 171.703 49.4037 171.333 49.5901C170.963 49.5901 170.778 49.4037 170.408 49.4037C169.483 49.0308 168.004 48.0987 167.634 47.1665C167.264 46.2344 168.189 45.1158 168.744 44.3701C169.298 44.743 169.483 45.1158 169.483 45.3023Z" fill="#600C4E"/>
<path opacity="0.33" d="M162.826 47.3528C161.902 47.9121 161.162 48.6578 160.977 49.7764C160.977 49.9628 160.977 50.3357 160.977 50.5221C160.977 50.8949 161.347 51.0814 161.532 51.2678C161.717 51.4542 161.902 51.6407 162.087 51.4542C162.457 51.4542 162.642 51.0814 162.826 50.7085C163.566 49.5899 164.861 48.8442 166.155 49.2171C166.525 49.2171 166.895 49.4035 167.08 49.0306C167.08 49.0306 167.08 48.8442 167.08 48.6578C167.265 46.4206 164.121 46.6071 162.826 47.3528Z" fill="white"/>
<path d="M196.854 33.7412C194.82 39.7069 190.381 43.249 186.497 46.9776C181.319 51.8247 175.956 55.3669 169.483 58.7226C153.023 67.1118 134.714 65.9933 116.774 67.6711C92.3623 69.7218 60.7373 69.7218 37.9896 62.0783C22.2696 56.8583 12.6526 49.0283 0.0766526 38.4019C-0.478171 52.9433 2.111 65.9933 3.59053 74.9418C6.54959 94.1439 14.3171 116.142 28.1877 129.752C31.3317 132.921 34.6606 135.717 37.9896 137.955C40.3938 173.376 102.719 170.952 124.172 170.207C139.337 169.647 153.393 162.004 158.016 154.733C161.16 148.581 161.53 142.988 161.16 137.768C171.332 130.497 179.654 120.99 185.203 109.617C193.895 92.0932 193.34 73.6368 195.744 54.8076C196.854 48.2826 197.224 40.4526 196.854 33.7412Z" fill="#8FBBEF"/>
<path d="M185.573 109.619C194.266 92.0952 193.711 73.6388 196.115 54.8095C196.855 48.2846 197.225 40.641 196.855 33.7432C192.416 40.8274 190.012 43.8103 186.128 47.3524C180.58 52.1996 176.141 55.1824 169.669 58.5381C167.079 59.8431 164.675 60.7752 161.901 61.7074C160.606 66.9274 159.682 72.5202 158.387 77.3674C152.654 100.671 139.708 124.72 117.145 134.601C113.816 136.092 95.1373 137.397 96.8017 142.058C97.5415 144.109 103.46 144.854 104.939 147.651C106.419 150.634 105.679 156.413 105.124 159.769C104.569 162.938 102.535 167.039 103.645 170.581C111.967 170.768 119.365 170.395 124.543 170.209C139.708 169.649 153.764 162.006 158.387 154.735C161.531 148.583 161.901 142.99 161.531 137.77C171.518 130.499 179.84 120.992 185.573 109.619Z" fill="#80ABD6"/>
<path d="M3.77667 58.5379C5.44114 58.3514 7.29055 58.3514 8.77008 59.0971C9.87973 59.6564 10.8044 60.775 11.5442 61.8936C13.5785 65.0628 15.0581 68.4186 18.2021 70.8421C24.3051 75.3164 32.2576 70.2828 38.5456 74.0114C40.2101 74.9435 41.8745 76.435 43.3541 77.74C44.8336 79.045 46.3131 80.35 47.7926 81.4685C50.5668 83.7057 53.7108 85.7564 57.2246 86.8749C61.2933 88.1799 65.547 87.8071 69.8006 86.6885C73.4995 85.7564 77.0133 84.2649 80.8971 83.8921C82.7465 83.7057 84.5959 83.8921 86.4453 84.6378C88.6646 85.3835 90.699 86.8749 92.9183 87.9935C97.1719 90.0442 101.611 91.5356 106.419 91.7221C111.227 91.9085 115.851 90.4171 120.105 87.9935C123.618 85.9428 127.132 84.0785 131.016 83.3328C134.16 82.7735 137.304 83.5192 140.263 84.2649C143.962 85.1971 147.846 86.8749 151.73 86.5021C157.833 85.7564 160.607 80.35 164.49 76.2485C166.525 74.0114 169.114 72.3335 172.073 71.7743C174.662 71.4014 177.066 71.9607 179.656 71.9607C182.245 71.9607 184.649 71.215 186.314 69.1643C187.608 67.6728 188.533 65.995 189.273 64.1307C189.827 62.6393 190.012 61.1479 190.567 59.47C190.937 58.165 191.677 57.6057 193.156 57.7921C193.156 57.0464 193.156 56.1143 193.156 55.3686C192.232 55.555 191.492 55.9279 190.752 56.4871C189.642 57.6057 191.307 59.2836 192.417 58.165C192.602 57.9786 192.786 57.7921 193.156 57.7921C194.636 57.6057 194.821 55.3686 193.156 55.3686C191.492 55.1822 190.012 55.7414 188.903 57.2329C187.978 58.5379 187.793 60.0293 187.423 61.5207C186.683 64.3171 185.019 67.8593 182.43 68.9778C180.395 69.7235 177.991 69.1643 175.772 68.9778C172.813 68.7914 169.854 69.1643 167.265 70.6557C164.49 72.1471 162.456 74.3843 160.422 76.8078C158.757 78.8585 157.093 81.0957 154.874 82.4007C152.284 84.0785 149.14 84.0785 146.181 83.1464C142.482 82.2142 138.784 80.9092 135.085 80.3499C131.756 79.9771 128.612 80.5364 125.653 81.8414C121.214 83.7057 117.33 86.6885 112.707 87.9935C108.268 89.2985 103.645 88.9256 99.2063 87.6206C96.987 86.8749 94.7677 85.9428 92.5484 84.8242C90.514 83.7057 88.4797 82.4007 86.0755 81.8414C82.3766 80.7228 78.8628 81.4685 75.1639 82.4007C71.0952 83.5192 66.8416 85.0107 62.5879 85.0107C54.8204 85.0107 49.2722 79.2314 43.539 74.3843C42.0595 73.0793 40.395 71.7743 38.5456 70.8421C36.8811 70.0964 35.0317 69.7235 33.1823 69.5371C29.8534 69.3507 26.3395 70.2828 23.0105 69.7236C19.1268 68.9778 16.9075 65.995 15.0581 62.6393C13.5785 60.0293 11.9141 57.2329 8.95502 56.1143C7.29055 55.9279 5.44114 55.9279 3.77667 56.1143C2.1122 56.1143 2.1122 58.7243 3.77667 58.5379Z" fill="#E5E5B7"/>
<path d="M6.73503 71.0297C8.3995 70.4705 10.064 70.4705 11.5435 71.4026C12.8381 72.3347 13.7628 73.8262 14.5026 75.1312C16.167 77.9276 17.4616 81.4697 19.8659 83.5204C21.3454 84.639 23.0099 85.1983 24.6743 85.5711C26.7087 85.7576 28.743 85.3847 30.5924 84.8254C32.6268 84.2661 34.4762 83.7069 36.5106 84.4526C38.175 85.0119 39.6545 86.1304 40.7642 87.6219C43.1684 90.4183 44.648 93.774 47.792 95.8247C49.6414 96.9433 51.6757 97.689 53.7101 97.689C55.5595 97.689 57.224 97.1297 58.7035 96.384C62.2174 94.7061 65.7312 92.8418 69.7999 93.0283C72.9439 93.2147 75.7181 95.079 78.3072 96.5704C81.4512 98.4347 84.9651 100.485 88.6639 101.418C92.5477 102.35 96.4315 101.604 100.13 100.299C103.644 98.994 107.343 97.3161 111.042 97.3161C114.741 97.3161 118.255 98.6211 121.399 100.299C124.173 101.604 126.947 103.282 130.091 103.282C134.159 103.468 138.043 101.231 141.557 99.1804C143.407 98.0618 145.256 96.7568 147.105 96.0111C149.14 95.2654 151.359 95.079 153.763 95.2654C155.983 95.4518 158.017 96.0111 160.236 95.8247C162.455 95.6383 164.49 94.7061 166.339 93.2147C169.113 90.7911 170.038 87.0626 172.257 84.0797C173.367 82.7747 174.846 81.4697 176.326 81.0969C177.806 80.724 179.47 80.5376 180.95 80.3512C183.539 79.7919 185.943 78.3004 187.977 76.809C189.272 76.0633 190.382 75.1312 191.491 74.0126C192.231 73.2669 193.156 72.5212 193.526 71.589C194.08 70.6569 193.895 69.5383 192.786 68.979C191.491 68.2333 190.197 70.284 191.491 71.0297C191.676 71.2162 191.306 70.8433 191.306 70.8433C190.936 70.284 191.491 71.0297 191.306 70.4705V70.284C191.306 70.284 191.121 70.6569 191.306 70.284C191.121 70.6569 190.936 70.8433 190.567 71.2162C189.642 72.1483 188.717 72.894 187.607 73.8262C185.758 75.1312 183.354 76.809 181.319 77.5547C179.84 77.9276 178.175 78.114 176.511 78.3004C175.031 78.6733 173.552 79.2326 172.257 80.1647C169.113 82.5883 168.189 86.1304 165.969 89.2997C165.599 91.3504 164.12 92.6554 162.271 93.2147C160.236 93.774 158.017 93.5876 155.798 93.2147C153.578 92.8418 151.359 92.6554 149.14 93.2147C147.105 93.5876 145.071 94.5197 143.407 95.6383C139.893 97.689 136.379 100.485 132.31 101.045C129.351 101.418 126.577 100.113 123.988 98.8075C120.844 97.1297 117.515 95.6383 114.001 95.2654C110.117 94.7061 106.603 95.8247 102.904 97.1297C99.3905 98.4347 95.8766 99.9261 92.1778 99.7397C88.479 99.5533 84.7802 97.689 81.6362 95.8247C78.8621 94.1468 76.0879 92.2826 73.1289 91.3504C69.615 90.4183 66.1011 90.7911 62.7722 92.2826C59.4432 93.5876 56.1143 96.1975 52.2305 95.2654C50.3811 94.7061 48.7167 93.774 47.4221 92.2826C46.1275 90.9776 45.2028 89.4861 44.2781 87.9947C42.0588 85.0119 39.2847 82.4019 35.4009 82.029C31.3322 81.6562 27.8183 84.4526 23.7496 83.334C20.6056 82.4019 19.311 79.0462 18.0164 76.4362C16.5369 73.6397 14.6875 70.284 11.5435 68.979C9.87903 68.4197 8.02962 68.4197 6.36515 68.979C4.51574 69.1655 5.25551 71.589 6.73503 71.0297Z" fill="#E5E5B7"/>
<path opacity="0.1" d="M53.5244 75.3171C49.8255 72.7071 45.7568 70.6564 41.5032 68.7921C37.0646 66.7414 24.8585 58.5386 20.9747 63.945C4.33003 68.9786 18.9404 98.4342 25.7832 108.315C30.0368 114.467 45.9418 127.517 52.7846 117.263C55.1888 113.535 54.2641 107.569 54.634 103.468C55.0039 98.4342 55.0039 93.5871 55.7436 88.5535C56.6684 82.5878 58.8876 79.2321 53.5244 75.3171Z" fill="white"/>
<path d="M76.0877 24.9822C75.163 25.728 74.7931 26.8465 75.3479 27.7787C75.7178 28.3379 76.2726 28.7108 76.8275 28.8972C78.6769 29.8294 80.8962 30.7615 81.6359 32.6258C82.5606 34.6765 81.266 37.1001 79.7865 38.9644C78.122 40.8286 76.0877 42.3201 73.8684 43.2522C71.0943 44.3708 67.7653 44.9301 65.3611 46.9808C64.8063 47.5401 64.2515 48.0993 64.2515 48.845C64.2515 49.7772 65.3611 50.5229 66.2858 50.8958C71.6491 52.9465 77.9371 51.8279 82.3757 48.2858C83.4853 47.3536 84.595 46.4215 85.8896 45.6758C87.554 44.7436 89.5884 44.7436 91.4378 44.5572C95.1366 43.9979 98.6505 42.8793 101.979 41.2015C103.274 40.6422 104.384 39.7101 105.308 38.7779C105.493 38.4051 105.863 38.0322 105.863 37.6594C106.048 36.9136 105.308 36.1679 104.569 35.7951C103.829 35.4222 102.904 35.4222 102.164 35.4222C99.9451 35.4222 97.9107 35.2358 95.8764 34.4901C93.842 33.7444 92.1776 32.2529 91.2529 30.3887C90.883 29.4565 90.698 28.5244 90.1432 27.7787C89.4034 26.4737 88.2938 25.728 87.1842 24.9822C84.0402 23.4908 78.8618 22.7451 76.0877 24.9822Z" fill="#F2DCA5"/>
<path d="M105.804 87.0332C99.5164 87.0332 93.2284 87.5925 86.9404 87.7789C74.3644 88.3382 61.7885 88.3382 49.2125 88.3382C44.5889 88.3382 40.1504 88.1518 35.7118 88.1518C33.4925 88.1518 31.2732 88.1518 29.0539 88.1518C27.9442 88.1518 24.2454 88.5246 24.9852 88.7111V89.2703C24.9852 92.8125 25.3551 97.1003 27.7593 99.7103C29.7937 118.54 36.0817 164.028 40.3353 167.57C51.6167 176.892 88.6049 177.451 98.4068 167.197C102.106 163.282 107.839 121.336 109.873 101.388C112.092 99.8968 110.613 96.3546 110.983 93.1853C111.907 87.0332 111.353 87.2196 105.804 87.0332Z" fill="#EFE0CB"/>
<path d="M67.1523 72.6799C44.4045 73.0528 24.2459 79.5777 24.8007 88.1534C25.3556 96.7291 38.4864 106.051 67.5221 106.051C100.072 106.051 110.428 100.831 111.908 89.0856C113.572 78.6456 92.3043 72.4935 67.1523 72.6799Z" fill="#EF6A60"/>
<path d="M98.4073 167.199C101.736 163.657 106.915 128.608 109.319 107.355C106.545 108.288 103.771 109.406 102.106 109.779C96.1881 111.084 90.085 111.83 84.1669 112.762C78.4337 113.694 72.5156 113.88 66.4125 113.88C60.8643 113.88 52.9118 113.508 48.2883 110.711L48.4733 111.457C51.0624 113.135 56.0558 114.253 59.3848 114.999C71.406 117.423 83.6121 118.355 95.4483 120.778C95.8182 127.117 95.2633 133.828 94.7085 140.167C94.1537 147.065 92.4892 154.522 90.8248 161.047C88.9754 168.504 79.3584 169.995 73.0704 169.995C64.5631 169.995 55.501 170.182 47.3636 167.758C44.9594 167.013 41.4455 164.589 38.6714 164.775C39.2262 166.267 39.781 167.385 40.3359 167.758C51.6173 177.08 88.7904 177.639 98.4073 167.199Z" fill="#E8D2BF"/>
<path d="M114.866 102.509C112.647 98.7803 115.051 90.9503 109.688 89.4589C106.914 88.7132 103.77 89.2725 101.736 91.3232C100.626 92.4418 97.482 100.272 100.811 99.526L101.366 100.458C104.51 100.272 106.544 102.882 107.284 105.492C108.024 108.288 109.873 110.712 112.462 112.39C115.051 114.067 117.641 113.881 118.195 110.525C118.75 106.983 116.346 105.119 114.866 102.509Z" fill="#EF6A60"/>
<path opacity="0.3" d="M40.5203 111.084C38.6709 110.525 36.6365 109.965 35.157 110.711C34.7871 110.711 34.6022 110.897 34.4172 111.457C34.2323 112.016 34.0474 112.575 34.0474 113.507C34.0474 114.44 34.2323 115.558 34.4172 116.49C34.6022 118.168 34.7871 119.66 34.9721 120.032C35.7118 125.066 37.0064 130.1 37.7462 134.947C38.4859 139.794 38.6709 144.454 39.2257 149.302C39.5956 152.471 40.7052 161.047 45.3288 160.674C50.877 160.114 47.5481 148.183 47.5481 144.641C47.5481 137.929 49.5824 132.337 51.0619 125.998C52.3565 118.727 46.9932 113.321 40.5203 111.084Z" fill="white"/>
<path d="M98.2218 131.22C105.065 141.846 103.215 155.456 93.9682 161.421C84.7211 167.387 72.1451 162.353 63.2679 153.219C53.651 143.338 54.7607 127.305 64.0077 121.339C73.0698 115.374 91.1941 120.407 98.2218 131.22Z" fill="white"/>
<path d="M98.2219 131.22C97.4821 129.915 96.5574 128.796 95.6327 127.864C95.4478 131.966 95.2628 136.067 94.8929 139.982C94.3381 146.88 92.6736 154.337 91.0092 160.862C90.8242 161.794 90.4544 162.54 90.0845 163.286C91.3791 162.913 92.6736 162.167 93.9682 161.421C103.03 155.456 105.065 141.846 98.2219 131.22Z" fill="#DDDDDD"/>
<path d="M74.3645 124.508C74.5494 124.135 74.9193 124.135 75.2892 124.135C75.6591 124.322 76.029 124.695 75.844 125.067C75.844 125.254 75.6591 125.44 75.4741 125.627L73.8097 127.491L73.6247 128.61C73.4398 129.169 73.0699 129.542 72.5151 129.355C71.9603 129.169 71.7753 128.796 71.9603 128.237L72.1452 127.118L71.4054 124.695C71.4054 124.508 71.2205 124.322 71.4054 124.135C71.4054 123.762 71.9603 123.39 72.3301 123.576C72.7 123.576 72.885 123.949 73.0699 124.322L73.4398 125.813L74.3645 124.508Z" fill="#EF6A60"/>
<path d="M79.7276 125.44C81.0222 125.999 81.9469 127.304 81.2071 129.168C80.4674 131.033 78.9878 131.219 77.6933 130.846C76.3987 130.287 75.474 128.982 76.2137 127.118C76.7685 125.44 78.2481 125.067 79.7276 125.44ZM79.1728 126.745C78.433 126.558 78.0631 126.931 77.6933 127.677C77.3234 128.423 77.5083 129.168 78.0631 129.355C78.8029 129.541 79.1728 129.168 79.5427 128.423C79.9125 127.677 79.9125 127.118 79.1728 126.745Z" fill="#EF6A60"/>
<path d="M84.3507 132.153C84.1658 131.967 83.9808 131.78 84.1657 131.408C84.3507 131.035 84.7206 131.035 84.9055 131.221L85.8302 131.78C86.2001 131.967 86.385 132.526 86.0152 132.899L85.2754 134.204C85.0905 134.577 84.7206 134.763 84.3507 134.577C83.9808 134.39 83.9808 134.018 84.1657 133.831V133.645C83.7959 133.831 83.0561 133.645 82.5013 133.458C81.5766 132.899 80.6519 131.594 81.7615 129.73C82.8712 128.052 84.5356 128.052 85.4603 128.798C86.9399 129.73 86.9399 130.662 86.57 131.035C86.3851 131.408 86.0152 131.594 85.4603 131.221C84.9055 130.848 85.2754 130.289 84.7206 129.916C84.1658 129.543 83.6109 129.73 83.0561 130.662C82.5013 131.408 82.5013 131.967 83.241 132.526C83.6109 132.899 83.9808 132.713 84.3507 132.526V132.153Z" fill="#EF6A60"/>
<path d="M91.3791 134.014C91.7489 133.642 92.3038 133.455 92.6736 133.828C93.0435 134.201 93.0435 134.574 92.6736 135.133L91.0092 136.997C89.8995 138.302 88.7899 137.929 87.6802 136.997C86.5706 136.065 86.2007 134.76 87.1254 133.642L88.7899 131.777C89.1598 131.405 89.7146 131.218 90.0845 131.591C90.4544 131.964 90.4544 132.337 90.0845 132.896L88.42 134.76C88.0501 135.133 88.0501 135.692 88.42 136.065C88.7899 136.438 89.3447 136.438 89.7146 135.879L91.3791 134.014Z" fill="#EF6A60"/>
<path d="M93.598 136.439C94.1528 136.066 94.5227 136.066 95.0775 136.625L96.3721 138.116C97.1118 139.049 97.1118 139.981 96.3721 140.54C95.8172 140.913 95.2624 140.913 94.7076 140.54C95.0775 140.913 95.0775 141.472 94.7076 141.845L94.3377 142.218C94.1528 142.404 93.9678 142.591 93.7829 142.777C93.413 142.964 93.0431 142.964 92.8582 142.591C92.4883 142.218 92.4883 141.845 92.8582 141.472L93.413 140.913C93.7829 140.54 93.5979 140.354 93.413 139.981L93.0431 139.421L91.9335 139.981C91.5636 140.354 91.0088 140.354 90.6389 139.981C90.269 139.608 90.269 139.049 90.8238 138.676L93.598 136.439ZM94.1528 139.235C94.5227 139.608 94.7076 139.608 95.0775 139.421C95.4474 139.235 95.2624 138.862 95.0775 138.489L94.5227 137.744L93.7829 138.489L94.1528 139.235Z" fill="#EF6A60"/>
<path d="M97.1124 141.66C96.9274 141.287 96.9274 140.914 97.2973 140.728C97.6672 140.541 98.0371 140.541 98.222 141.101L100.071 144.27C100.441 144.643 100.256 145.016 99.8865 145.202C99.5166 145.388 99.1467 145.388 98.9618 145.016L98.407 144.083L95.8178 145.761C95.263 146.134 94.8931 145.948 94.5232 145.575C94.3383 145.202 94.3383 144.643 94.8931 144.27L97.4823 142.592L97.1124 141.66Z" fill="#EF6A60"/>
<path d="M86.0155 140.167C84.9058 137.93 81.7618 135.879 79.1727 136.998C77.3233 137.743 75.8437 139.235 74.3642 140.167C73.0696 139.98 71.2202 140.913 70.4804 141.658C68.816 143.336 68.2611 146.133 68.816 148.37C70.1106 153.217 74.7341 156.2 79.1727 157.878C80.6522 158.437 83.2414 158.81 84.9058 158.25C87.68 157.132 87.68 154.708 87.8649 152.658C88.0498 148.556 88.0498 143.709 86.0155 140.167Z" fill="#ED4B48"/>
<path d="M70.665 144.454C70.665 145.2 70.85 146.132 71.0349 146.878C71.0349 147.064 71.4048 147.624 71.5897 147.251C71.5897 147.064 71.4048 146.878 71.2199 147.251C71.4048 147.251 71.4048 147.251 71.4048 147.064V146.878C71.4048 146.691 71.2199 146.505 71.2199 146.319C71.2199 145.573 71.0349 145.014 71.0349 144.454C71.0349 144.268 70.665 144.268 70.665 144.454Z" fill="#EACE49"/>
<path d="M73.0705 143.707C73.2554 143.893 73.4404 144.266 73.6253 144.453C73.6253 144.639 73.8102 144.639 73.8102 144.825V145.012V144.825H73.9952C73.8102 144.639 73.6253 144.825 73.8102 145.012C73.9952 145.198 74.1801 145.012 74.1801 144.825C74.1801 144.639 73.9952 144.453 73.9952 144.453C73.8102 144.08 73.4404 143.52 73.0705 143.334C73.0705 143.334 72.8855 143.707 73.0705 143.707Z" fill="#EACE49"/>
<path d="M76.584 142.59C76.9539 142.963 77.3238 143.149 77.5087 143.335C77.6936 143.522 77.8786 143.149 77.6936 142.963C77.3238 142.776 76.9539 142.59 76.7689 142.217C76.7689 142.217 76.3991 142.403 76.584 142.59Z" fill="#EACE49"/>
<path d="M79.173 140.914C79.7278 141.287 80.0977 141.474 80.6526 141.847C80.8375 141.847 81.0224 141.66 80.6526 141.474C80.0977 141.287 79.7278 140.914 79.173 140.728C79.173 140.542 78.9881 140.914 79.173 140.914Z" fill="#EACE49"/>
<path d="M82.3172 138.675C82.5021 138.675 82.5021 138.302 82.3172 138.302C82.1322 138.302 82.1322 138.675 82.3172 138.675Z" fill="#EACE49"/>
<path d="M82.3169 138.676C82.6868 138.863 83.0567 139.236 83.4266 139.422C83.6115 139.609 83.7965 139.236 83.6115 139.049C83.4266 139.049 83.2416 138.863 83.2416 138.676C83.0567 138.49 82.8718 138.304 82.6868 138.117C82.3169 138.304 82.132 138.676 82.3169 138.676Z" fill="#EACE49"/>
<path d="M70.665 149.675C70.85 150.235 71.0349 150.794 71.4048 151.167C71.5897 151.353 71.7747 151.167 71.5897 150.98C71.2199 150.607 71.0349 150.048 71.0349 149.675C70.85 149.302 70.665 149.489 70.665 149.675Z" fill="#EACE49"/>
<path d="M73.6255 148.745C73.8104 149.118 73.9954 149.491 74.3652 149.677C74.5502 149.864 74.7351 149.677 74.5502 149.491C74.3653 149.304 73.9954 148.932 73.8104 148.559C73.8104 148.372 73.6255 148.559 73.6255 148.745Z" fill="#EACE49"/>
<path d="M77.3232 146.877C77.6931 147.25 78.063 147.623 78.4328 147.809C78.6178 147.809 78.8027 147.436 78.4328 147.436C78.063 147.25 77.6931 146.877 77.5081 146.691C77.3232 146.504 77.1382 146.691 77.3232 146.877Z" fill="#EACE49"/>
<path d="M80.4673 145.389C80.6523 145.762 80.8372 146.134 81.2071 146.321C81.392 146.507 81.577 146.321 81.392 146.134C81.2071 145.948 81.0221 145.575 80.6523 145.202C80.6523 145.016 80.2824 145.202 80.4673 145.389Z" fill="#EACE49"/>
<path d="M83.2416 144.268C83.4265 144.454 83.6114 144.64 83.7964 145.013C83.9813 145.2 84.1663 145.013 84.1663 144.827C83.9813 144.64 83.7964 144.454 83.6114 144.081C83.4265 143.895 83.0566 144.081 83.2416 144.268Z" fill="#EACE49"/>
<path d="M85.4608 142.962C85.6457 143.335 85.8307 143.708 85.8307 144.08C85.8307 144.267 86.2006 144.267 86.2006 144.08C86.2006 143.708 86.0156 143.335 85.8307 142.775C85.6457 142.775 85.2759 142.775 85.4608 142.962Z" fill="#EACE49"/>
<path d="M74.5497 153.401C74.9196 153.774 75.4745 154.147 75.8443 154.333C76.0293 154.333 76.2142 154.147 76.0293 153.96C75.4745 153.774 75.1046 153.401 74.7347 153.028C74.5498 153.028 74.3648 153.215 74.5497 153.401Z" fill="#EACE49"/>
<path d="M77.6935 152.283C78.0634 152.469 78.2483 152.842 78.6182 152.842C78.8032 152.842 78.9881 152.656 78.6182 152.469C78.2483 152.283 78.0634 152.097 77.6935 151.91C77.6935 151.91 77.5086 152.097 77.6935 152.283Z" fill="#EACE49"/>
<path d="M81.023 150.418C81.2079 150.791 81.5778 151.164 81.7627 151.537C81.9477 151.723 82.1326 151.537 81.9477 151.351C81.7627 150.978 81.3929 150.791 81.2079 150.418C81.2079 150.046 80.838 150.232 81.023 150.418Z" fill="#EACE49"/>
<path d="M84.1668 149.113C84.3517 149.113 84.3517 148.74 84.1668 148.74C83.9818 148.74 83.9818 149.113 84.1668 149.113Z" fill="#EACE49"/>
<path d="M83.9818 148.93C84.1667 149.303 84.3517 149.675 84.5366 150.048C84.5366 150.235 84.9065 150.235 84.9065 150.048C84.9065 149.675 84.7216 149.116 84.3517 148.743C84.1667 148.557 83.7969 148.743 83.9818 148.93Z" fill="#EACE49"/>
<path d="M86.5709 147.809C86.7559 148.182 86.7559 148.555 86.5709 148.927C86.5709 149.114 86.9408 149.3 86.9408 148.927C86.9408 148.555 86.9408 147.995 86.9408 147.622C86.7559 147.436 86.386 147.436 86.5709 147.809Z" fill="#EACE49"/>
<path d="M78.8037 156.574C79.1735 156.761 79.7284 157.134 80.2832 157.134C80.4681 157.134 80.4681 156.761 80.2832 156.761C79.7284 156.761 79.3585 156.574 78.9886 156.388C78.8037 156.015 78.6187 156.388 78.8037 156.574Z" fill="#EACE49"/>
<path d="M81.207 154.893C81.5769 155.265 81.9467 155.452 82.5015 155.638C82.6865 155.638 82.8714 155.265 82.5015 155.265C82.1317 155.265 81.7618 154.893 81.3919 154.706C81.207 154.52 81.022 154.706 81.207 154.893Z" fill="#EACE49"/>
<path d="M83.7965 153.779C83.9814 153.966 83.9814 154.339 84.1664 154.525C84.3513 154.711 84.5363 154.525 84.5363 154.339C84.3513 153.966 84.3513 153.779 84.1664 153.593C83.9814 153.406 83.6116 153.593 83.7965 153.779Z" fill="#EACE49"/>
<path d="M86.7554 152.097C86.7554 152.469 86.9403 152.656 86.7554 153.029C86.7554 153.215 87.1253 153.402 87.1253 153.029C87.1253 152.656 87.1253 152.283 87.1253 151.91C86.9403 151.91 86.7554 151.91 86.7554 152.097Z" fill="#EACE49"/>
<path d="M83.0563 157.315C83.4262 157.501 83.981 157.688 84.5358 157.688C84.7208 157.688 84.7208 157.315 84.5358 157.315C84.1659 157.315 83.6111 157.128 83.2412 157.128C82.8714 156.942 82.8714 157.315 83.0563 157.315Z" fill="#EACE49"/>
<path d="M84.3521 156.571C84.537 156.758 84.722 156.944 85.0918 156.944C85.2768 156.944 85.2768 156.571 85.0918 156.571L84.9069 156.385L84.722 156.198C84.3521 156.198 84.1672 156.385 84.3521 156.571Z" fill="#EACE49"/>
<path d="M86.386 155.268C86.5709 155.268 86.5709 154.896 86.386 154.896C86.2011 154.896 86.2011 155.268 86.386 155.268Z" fill="#EACE49"/>
<path d="M86.2012 155.267C86.2012 155.64 86.2012 155.826 86.2012 156.199C86.2012 156.385 86.5711 156.572 86.5711 156.199C86.5711 155.826 86.5711 155.453 86.5711 155.08C86.3861 154.894 86.2012 154.894 86.2012 155.267Z" fill="#EACE49"/>
<path d="M74.5501 137.555C73.8104 136.809 73.4405 135.504 73.0706 134.572C72.3308 134.758 70.6664 135.504 70.1115 136.25C71.2212 136.996 72.5158 137.928 73.4405 139.046C71.0362 138.673 68.2621 140.351 66.5977 141.843C67.8922 141.843 69.0019 141.843 70.2965 141.843C71.2212 141.843 73.2555 141.656 73.9953 140.911L73.6254 141.097C74.92 140.538 76.2146 139.792 77.1393 138.673C77.6941 138.114 78.4339 137.368 78.8038 136.623C79.1736 135.877 79.1736 134.759 79.9134 134.199C77.5092 134.199 75.2899 135.318 74.5501 137.555Z" fill="#53B748"/>
<g opacity="0.5">
<path opacity="0.5" d="M32.5684 90.0159C32.7533 94.6766 38.3015 96.5409 42.0004 97.6595C47.5486 99.3373 53.4667 100.269 59.1999 100.829C67.3373 101.574 75.4747 101.015 83.6121 100.269C89.3453 99.7102 95.8182 98.9645 100.812 95.7952C103.031 94.3038 105.065 92.0666 105.805 89.2702C106.36 86.8466 105.435 84.4231 103.771 82.7452C99.1471 77.8981 91.3796 76.7795 85.2766 76.0338C77.3241 74.9152 69.5566 75.2881 61.6041 75.6609C55.1312 75.8474 48.2883 76.2202 42.3702 78.8302C39.0413 80.3216 35.7124 82.7452 34.2328 86.2873C34.6027 86.2873 35.1575 86.4738 35.5274 86.4738C35.5274 86.2873 35.5274 86.1009 35.5274 85.9145C35.5274 84.9823 34.2328 84.9823 34.2328 85.9145C34.2328 86.1009 34.2328 86.2873 34.2328 86.4738C34.2328 87.2195 35.3425 87.4059 35.5274 86.6602C36.822 83.3045 40.3359 81.0674 43.6648 79.7624C46.8088 78.4574 50.3227 77.8981 53.6516 77.5252C56.9806 77.1524 60.3095 76.9659 63.6385 76.9659C67.5222 76.7795 71.406 76.5931 75.2897 76.7795C79.5434 76.7795 83.982 77.1524 88.2356 77.8981C91.7495 78.4574 95.4483 79.3895 98.7773 80.8809C101.366 82.1859 104.141 83.8638 104.88 86.8466C105.62 90.0159 102.846 92.9988 100.442 94.6766C95.8182 97.8459 89.5302 98.4052 83.982 98.9645C76.5843 99.7102 69.1867 100.269 61.6041 99.7102C55.8709 99.3373 50.1378 98.2187 44.5895 96.9138C41.2606 95.9816 34.6027 94.4902 34.4178 90.0159C33.8629 89.0838 32.5684 89.0838 32.5684 90.0159Z" fill="white"/>
</g>
<path opacity="0.1" d="M82.1321 77.712C79.1731 75.2885 73.4399 75.8478 69.7411 75.8478C59.5693 75.8478 48.6578 76.5935 39.0409 79.9492C36.0818 81.0678 32.198 82.932 30.7185 85.9149C29.7938 87.0335 29.054 88.5249 29.239 90.2027C29.4239 93.7449 33.4926 95.0499 36.2667 95.982C39.7806 97.287 43.6644 98.0327 47.1783 97.1006C53.0964 95.6091 47.918 92.9992 48.4729 89.0842C49.2126 84.4235 58.6446 84.0506 61.9735 83.6777C67.1519 83.1185 72.5152 82.5592 77.6935 82.3728C80.2827 82.5592 85.8309 80.6949 82.1321 77.712Z" fill="white"/>
</svg>
