<svg width="249" height="172" viewBox="0 0 249 172" fill="none" xmlns="http://www.w3.org/2000/svg">
<g clip-path="url(#clip0_1337_3617)">
<path fill-rule="evenodd" clip-rule="evenodd" d="M249 127.748C249 152.034 193.29 171.724 124.506 171.724C55.7234 171.724 0 152.034 0 127.748C0 103.462 55.7105 83.7725 124.506 83.7725C193.302 83.7725 249 103.462 249 127.748Z" fill="#E2CAB3"/>
<path fill-rule="evenodd" clip-rule="evenodd" d="M249 122.898C249 147.184 193.29 166.873 124.506 166.873C55.7234 166.873 0 147.184 0 122.898C0 98.6115 55.7105 78.9219 124.506 78.9219C193.302 78.9219 249 98.6115 249 122.898Z" fill="white"/>
<path fill-rule="evenodd" clip-rule="evenodd" d="M249 122.201C249 145.727 193.29 164.796 124.506 164.796C55.7234 164.796 0 145.727 0 122.201C0 98.6747 55.7105 79.6182 124.506 79.6182C193.302 79.6182 249 98.6874 249 122.201Z" fill="#E7D8C8"/>
<path fill-rule="evenodd" clip-rule="evenodd" d="M243.48 122.203C243.48 138.993 195.802 152.592 136.995 152.592C78.1878 152.592 30.4971 138.993 30.4971 122.203C30.4971 105.413 78.1749 91.8135 136.995 91.8135C195.815 91.8135 243.48 105.425 243.48 122.203Z" fill="#E2CAB3"/>
<path d="M234.502 123.291C232.235 112.908 221.196 108.514 212.477 107.818C207.1 107.4 201.723 108.514 196.36 108.806C193.379 108.972 190.39 108.854 187.433 108.451C184.168 108.008 181.046 106.856 177.755 106.59C172.041 106.134 166.38 108.071 161.055 110.097C154.797 112.49 148.539 114.668 142.126 116.517C129.476 120.283 116.443 122.691 103.258 123.696C97.8956 124.173 92.4983 124.144 87.1413 123.608C83.3841 123.152 79.6787 122.341 75.9214 121.911C69.3398 121.189 62.0456 122.038 59.3897 129.597C57.3985 129.59 55.4347 130.051 53.6632 130.939C50.9813 132.066 47.3925 134.067 46.0062 136.966C43.117 143.031 52.4842 145.412 55.9564 146.058C59.2601 146.665 62.5898 146.881 65.9065 147.223C70.5188 147.704 74.2242 149.844 78.1239 152.452C87.9575 159.024 101.082 159.454 112.276 158.694C118.45 158.242 124.555 157.125 130.479 155.364C136.737 153.541 143.176 154.643 149.498 155.694C154.929 156.815 160.569 156.482 165.823 154.731C171.109 152.895 175.695 149.54 180.217 146.172C185.49 142.246 191.488 142.006 197.694 141.512C203.812 141.141 209.883 140.23 215.832 138.79C220.827 137.556 225.69 135.86 230.356 133.725C234.321 131.686 235.435 127.887 234.502 123.291Z" fill="#EEBE30"/>
<path d="M199.159 114.262C199.159 130.622 163.621 145.829 120.828 145.829C78.0341 145.829 42.2109 129.495 42.2109 113.135C42.2109 96.7759 78.0341 86.5449 120.828 86.5449C163.621 86.5449 199.159 97.9029 199.159 114.262Z" fill="#E3AC8A"/>
<path d="M198.304 111.108C198.304 127.467 163.621 140.725 120.827 140.725C78.0339 140.725 43.3379 127.467 43.3379 111.108C43.3379 94.7485 78.0339 81.4785 120.827 81.4785C163.621 81.4785 198.304 94.7485 198.304 111.108Z" fill="#DA840D"/>
<path d="M177.186 108.298C177.186 120.441 151.455 130.267 119.7 130.267C87.9453 130.267 62.189 120.441 62.189 108.298C62.189 96.1549 87.9583 86.3291 119.7 86.3291C151.442 86.3291 177.186 96.2309 177.186 108.298Z" fill="#F0A508"/>
<path d="M81.0135 116.401C81.0135 117.667 79.5495 118.769 77.7356 118.769C75.9218 118.769 74.4707 117.705 74.4707 116.401C74.4707 115.097 75.9347 114.033 77.7356 114.033C79.5365 114.033 81.0135 115.097 81.0135 116.401Z" fill="#DA840D"/>
<path d="M74.4711 106.437C74.4534 106.786 74.3314 107.122 74.1201 107.404C73.9089 107.686 73.6178 107.901 73.2829 108.022C72.9479 108.144 72.5838 108.167 72.2356 108.088C71.8874 108.01 71.5705 107.833 71.324 107.58C71.0775 107.328 70.9123 107.01 70.8488 106.666C70.7854 106.322 70.8265 105.968 70.967 105.647C71.1076 105.326 71.3414 105.052 71.6395 104.859C71.9376 104.667 72.287 104.564 72.6443 104.563C72.8905 104.568 73.1332 104.621 73.3585 104.718C73.5838 104.815 73.7872 104.955 73.957 105.129C74.1268 105.303 74.2596 105.508 74.3479 105.733C74.4361 105.958 74.478 106.197 74.4711 106.437Z" fill="#DA840D"/>
<path d="M97.1691 119.275C97.2107 119.891 97.062 120.505 96.7423 121.037C96.4225 121.568 95.9466 121.994 95.3762 122.258C94.8059 122.523 94.1674 122.613 93.5437 122.518C92.9199 122.424 92.3398 122.148 91.8785 121.727C91.4173 121.305 91.0962 120.758 90.9569 120.157C90.8177 119.555 90.8668 118.926 91.0977 118.352C91.3287 117.778 91.7309 117.285 92.2521 116.937C92.7734 116.589 93.3896 116.403 94.0209 116.401C94.4207 116.388 94.8194 116.451 95.1941 116.588C95.5688 116.726 95.9122 116.934 96.2046 117.201C96.497 117.468 96.7327 117.788 96.8982 118.144C97.0637 118.5 97.1558 118.885 97.1691 119.275V119.275Z" fill="#DA840D"/>
<path d="M90.3285 107.869C90.3285 108.654 89.4346 109.3 88.3463 109.3C87.258 109.3 86.3511 108.654 86.3511 107.869C86.3511 107.084 87.245 106.438 88.3463 106.438C89.4475 106.438 90.3285 107.072 90.3285 107.869Z" fill="#DA840D"/>
<path d="M110.358 114.656C110.406 115.054 110.328 115.456 110.136 115.81C109.944 116.163 109.647 116.452 109.283 116.636C108.92 116.821 108.507 116.894 108.101 116.844C107.694 116.795 107.313 116.625 107.007 116.359C106.701 116.093 106.485 115.742 106.387 115.353C106.29 114.964 106.316 114.556 106.462 114.181C106.607 113.807 106.866 113.485 107.203 113.258C107.541 113.03 107.94 112.909 108.35 112.909C108.852 112.884 109.344 113.054 109.72 113.381C110.096 113.707 110.325 114.165 110.358 114.656V114.656Z" fill="#DA840D"/>
<path d="M111.124 125.204C111.124 126.015 110.165 126.673 108.973 126.673C107.781 126.673 106.822 126.015 106.822 125.204C106.822 124.394 107.794 123.735 108.973 123.735C110.152 123.735 111.124 124.394 111.124 125.204Z" fill="#DA840D"/>
<path d="M102.546 109.489C102.523 109.783 102.412 110.064 102.227 110.297C102.042 110.53 101.791 110.705 101.505 110.8C101.219 110.895 100.911 110.906 100.619 110.832C100.327 110.757 100.064 110.6 99.8619 110.381C99.6601 110.161 99.5287 109.889 99.484 109.597C99.4393 109.305 99.4833 109.007 99.6105 108.739C99.7377 108.472 99.9425 108.246 100.199 108.091C100.456 107.937 100.754 107.859 101.056 107.868C101.471 107.897 101.858 108.082 102.136 108.385C102.413 108.687 102.561 109.083 102.546 109.489V109.489Z" fill="#DA840D"/>
<path d="M124.855 112.566C124.855 113.377 123.923 114.035 122.77 114.035C121.616 114.035 120.684 113.377 120.684 112.566C120.684 111.756 121.616 111.11 122.77 111.11C123.923 111.11 124.855 111.756 124.855 112.566Z" fill="#DA840D"/>
<path d="M124.855 120.148C124.855 120.629 123.923 121.022 122.77 121.022C121.616 121.022 120.684 120.629 120.684 120.148C120.684 119.667 121.616 119.274 122.77 119.274C123.923 119.274 124.855 119.667 124.855 120.148Z" fill="#DA840D"/>
<path d="M138.965 115.223C138.965 115.869 138.123 116.401 137.074 116.401C136.024 116.401 135.195 115.869 135.195 115.223C135.195 114.578 136.037 114.033 137.074 114.033C138.11 114.033 138.965 114.565 138.965 115.223Z" fill="#DA840D"/>
<path d="M136.71 123.685C136.799 124.08 136.76 124.491 136.599 124.863C136.438 125.235 136.162 125.549 135.811 125.762C135.46 125.974 135.049 126.075 134.637 126.049C134.224 126.024 133.83 125.875 133.509 125.621C133.187 125.367 132.954 125.023 132.841 124.634C132.729 124.245 132.743 123.832 132.881 123.452C133.019 123.071 133.275 122.742 133.612 122.509C133.95 122.276 134.354 122.152 134.767 122.153C135.231 122.11 135.694 122.247 136.057 122.533C136.421 122.819 136.655 123.233 136.71 123.685V123.685Z" fill="#DA840D"/>
<path d="M152.414 121.227C152.333 121.604 152.144 121.952 151.869 122.228C151.595 122.505 151.245 122.7 150.862 122.791C150.478 122.881 150.076 122.864 149.703 122.74C149.329 122.616 148.999 122.391 148.751 122.092C148.502 121.792 148.346 121.429 148.3 121.046C148.254 120.663 148.321 120.276 148.491 119.928C148.662 119.58 148.93 119.287 149.264 119.082C149.598 118.877 149.985 118.769 150.38 118.771C150.98 118.838 151.53 119.133 151.911 119.592C152.291 120.051 152.472 120.639 152.414 121.227Z" fill="#DA840D"/>
<path d="M151.286 110.162C151.286 110.668 150.626 111.073 149.809 111.073C148.993 111.073 148.345 110.668 148.345 110.162C148.345 109.655 149.006 109.263 149.809 109.263C150.613 109.263 151.286 109.706 151.286 110.162Z" fill="#DA840D"/>
<path d="M163.724 112.857C163.724 114.82 162.83 116.402 161.742 116.402C160.653 116.402 159.746 114.82 159.746 112.857C159.746 110.894 160.64 109.299 161.742 109.299C162.843 109.299 163.724 110.894 163.724 112.857Z" fill="#DA840D"/>
<path d="M168.713 109.248C168.713 109.5 168.611 109.742 168.429 109.92C168.246 110.098 167.999 110.198 167.741 110.198C167.484 110.198 167.237 110.098 167.054 109.92C166.872 109.742 166.77 109.5 166.77 109.248C166.77 108.997 166.872 108.755 167.054 108.577C167.237 108.399 167.484 108.299 167.741 108.299C167.998 108.302 168.243 108.403 168.425 108.581C168.606 108.758 168.71 108.998 168.713 109.248V109.248Z" fill="#DA840D"/>
<path d="M136.037 106.222C136.037 107.121 134.819 107.868 133.329 107.868C131.839 107.868 130.622 107.121 130.622 106.222C130.622 105.323 131.826 104.563 133.329 104.563C134.832 104.563 136.037 105.311 136.037 106.222Z" fill="#DA840D"/>
<path d="M85.2363 97.6868C85.2363 98.2439 84.2906 98.6998 83.1245 98.6998C81.9585 98.6998 81.0127 98.2439 81.0127 97.6868C81.0127 97.1297 81.9585 96.6738 83.1245 96.6738C84.2906 96.6738 85.2363 97.1297 85.2363 97.6868Z" fill="#DA840D"/>
<path d="M97.6736 95.6497C97.6736 96.2195 96.5983 96.6753 95.2767 96.6753C93.9552 96.6753 92.8669 96.2195 92.8669 95.6497C92.8669 95.0799 93.9423 94.6367 95.2767 94.6367C96.6112 94.6367 97.6736 95.0926 97.6736 95.6497Z" fill="#DA840D"/>
<path d="M113.326 98.1426C113.326 98.9403 111.875 99.5988 110.074 99.5988C108.273 99.5988 106.822 98.9403 106.822 98.1426C106.822 97.3449 108.286 96.6738 110.074 96.6738C111.862 96.6738 113.326 97.3323 113.326 98.1426Z" fill="#DA840D"/>
<path d="M124.858 95.6498C124.86 95.8537 124.8 96.0537 124.686 96.2243C124.572 96.3949 124.408 96.5283 124.216 96.6075C124.023 96.6867 123.811 96.7081 123.607 96.6689C123.402 96.6297 123.214 96.5318 123.066 96.3876C122.919 96.2434 122.818 96.0595 122.778 95.8594C122.738 95.6592 122.76 95.452 122.841 95.2641C122.922 95.0761 123.059 94.9161 123.233 94.8044C123.408 94.6926 123.612 94.6343 123.821 94.6368C124.096 94.6368 124.36 94.7435 124.554 94.9335C124.748 95.1235 124.858 95.3811 124.858 95.6498V95.6498Z" fill="#DA840D"/>
<path d="M122.771 103.664C122.771 104.157 121.786 104.563 120.555 104.563C119.324 104.563 118.353 104.157 118.353 103.664C118.353 103.17 119.337 102.765 120.555 102.765C121.773 102.765 122.771 103.17 122.771 103.664Z" fill="#DA840D"/>
<path d="M140.093 95.204C140.088 95.498 139.993 95.7838 139.821 96.025C139.649 96.2662 139.407 96.452 139.127 96.5585C138.846 96.6651 138.54 96.6878 138.246 96.6235C137.953 96.5593 137.685 96.4112 137.478 96.1979C137.271 95.9847 137.133 95.7161 137.083 95.4262C137.033 95.1363 137.072 94.8383 137.195 94.5701C137.318 94.3019 137.521 94.0757 137.776 93.9203C138.031 93.7648 138.328 93.6871 138.629 93.6971C138.826 93.7021 139.021 93.745 139.201 93.8234C139.382 93.9018 139.544 94.0141 139.68 94.1541C139.816 94.294 139.923 94.4588 139.994 94.6389C140.064 94.8191 140.098 95.0111 140.093 95.204V95.204Z" fill="#DA840D"/>
<path d="M148.346 101.183C148.346 101.437 147.582 101.639 146.623 101.639C145.664 101.639 144.913 101.437 144.913 101.183C144.913 100.93 145.677 100.728 146.623 100.728C147.569 100.728 148.346 100.93 148.346 101.183Z" fill="#DA840D"/>
<path d="M153.722 98.1947C153.754 98.3281 153.743 98.468 153.69 98.595C153.637 98.7219 153.545 98.8296 153.426 98.9029C153.308 98.9762 153.169 99.0116 153.029 99.004C152.889 98.9965 152.755 98.9464 152.645 98.8608C152.536 98.7751 152.456 98.6582 152.418 98.5263C152.38 98.3944 152.384 98.2542 152.432 98.1251C152.479 97.996 152.566 97.8845 152.681 97.8062C152.796 97.7278 152.934 97.6866 153.074 97.6882C153.228 97.6738 153.382 97.7186 153.503 97.8132C153.624 97.9077 153.702 98.0445 153.722 98.1947Z" fill="#DA840D"/>
<path d="M148.346 101.181C148.316 101.456 148.205 101.716 148.027 101.931C147.849 102.145 147.612 102.305 147.343 102.39C147.074 102.476 146.786 102.483 146.513 102.412C146.24 102.341 145.994 102.194 145.804 101.989C145.615 101.784 145.49 101.53 145.445 101.257C145.4 100.985 145.437 100.705 145.551 100.452C145.665 100.2 145.851 99.9846 146.087 99.8331C146.323 99.6816 146.599 99.6002 146.882 99.5986C147.085 99.6084 147.283 99.657 147.466 99.7419C147.65 99.8268 147.814 99.9461 147.95 100.093C148.086 100.24 148.191 100.412 148.259 100.599C148.327 100.785 148.357 100.983 148.346 101.181V101.181Z" fill="#DA840D"/>
<path d="M156.662 98.6479C156.662 99.1671 155.859 99.5976 154.861 99.5976C153.864 99.5976 153.073 99.1671 153.073 98.6479C153.073 98.1287 153.877 97.6855 154.861 97.6855C155.846 97.6855 156.662 98.1161 156.662 98.6479Z" fill="#DA840D"/>
<path d="M199.159 102.108C199.159 118.455 163.621 133.675 120.828 133.675C78.0341 133.675 42.2109 117.328 42.2109 100.981C42.2109 84.6343 78.0341 74.3906 120.828 74.3906C163.621 74.3906 199.159 85.7486 199.159 102.108Z" fill="#E3AC8A"/>
<path d="M198.304 98.9429C198.304 115.302 163.621 128.56 120.827 128.56C78.0339 128.56 43.3379 115.302 43.3379 98.9429C43.3379 82.5834 78.0339 69.3262 120.827 69.3262C163.621 69.3262 198.304 82.5834 198.304 98.9429Z" fill="#DA840D"/>
<path d="M119.699 118.112C151.448 118.112 177.185 108.277 177.185 96.1436C177.185 84.0106 151.448 74.1748 119.699 74.1748C87.951 74.1748 62.2139 84.0106 62.2139 96.1436C62.2139 108.277 87.951 118.112 119.699 118.112Z" fill="#F0A508"/>
<path d="M81.0135 104.249C81.0135 105.515 79.5495 106.617 77.7356 106.617C75.9218 106.617 74.4707 105.553 74.4707 104.249C74.4707 102.944 75.9347 101.881 77.7356 101.881C79.5365 101.881 81.0135 102.932 81.0135 104.249Z" fill="#DA840D"/>
<path d="M74.4712 94.2686C74.461 94.6194 74.3452 94.9595 74.1384 95.2464C73.9316 95.5332 73.6429 95.7542 73.3083 95.8816C72.9737 96.009 72.6082 96.0372 72.2573 95.9627C71.9064 95.8882 71.5858 95.7143 71.3355 95.4627C71.0852 95.2111 70.9162 94.893 70.8499 94.5481C70.7835 94.2032 70.8225 93.8469 70.9622 93.5236C71.1019 93.2003 71.3359 92.9244 71.6351 92.7303C71.9343 92.5363 72.2853 92.4328 72.6444 92.4326C73.1347 92.4426 73.6012 92.6408 73.9431 92.9844C74.285 93.328 74.4747 93.7894 74.4712 94.2686Z" fill="#DA840D"/>
<path d="M97.1691 107.12C97.2107 107.735 97.062 108.349 96.7423 108.881C96.4225 109.413 95.9466 109.838 95.3762 110.103C94.8059 110.367 94.1674 110.458 93.5437 110.363C92.9199 110.268 92.3398 109.992 91.8785 109.571C91.4173 109.15 91.0962 108.603 90.9569 108.001C90.8177 107.399 90.8668 106.771 91.0977 106.197C91.3287 105.622 91.7309 105.129 92.2521 104.782C92.7734 104.434 93.3896 104.247 94.0209 104.246C94.8275 104.222 95.6112 104.51 96.201 105.049C96.7907 105.587 97.1387 106.332 97.1691 107.12V107.12Z" fill="#DA840D"/>
<path d="M90.3285 95.712C90.3285 96.4971 89.4346 97.1429 88.3463 97.1429C87.258 97.1429 86.3511 96.4971 86.3511 95.712C86.3511 94.927 87.245 94.2686 88.3463 94.2686C89.4475 94.2686 90.3285 94.965 90.3285 95.712Z" fill="#DA840D"/>
<path d="M110.358 102.564C110.406 102.962 110.328 103.364 110.136 103.718C109.944 104.072 109.647 104.36 109.283 104.545C108.92 104.729 108.507 104.802 108.101 104.752C107.694 104.703 107.313 104.534 107.007 104.267C106.701 104.001 106.485 103.65 106.387 103.261C106.29 102.872 106.316 102.464 106.462 102.09C106.607 101.715 106.866 101.393 107.203 101.166C107.541 100.939 107.94 100.817 108.35 100.817C108.852 100.792 109.344 100.962 109.72 101.289C110.096 101.616 110.325 102.074 110.358 102.564V102.564Z" fill="#DA840D"/>
<path d="M111.124 113.033C111.124 113.844 110.165 114.502 108.973 114.502C107.781 114.502 106.822 113.844 106.822 113.033C106.822 112.223 107.794 111.577 108.973 111.577C110.152 111.577 111.124 112.223 111.124 113.033Z" fill="#DA840D"/>
<path d="M102.547 97.3178C102.526 97.6128 102.417 97.8954 102.234 98.1304C102.05 98.3654 101.8 98.5424 101.514 98.6393C101.228 98.7363 100.919 98.7489 100.626 98.6756C100.333 98.6023 100.069 98.4464 99.8655 98.2272C99.6624 98.008 99.5298 97.7353 99.4842 97.443C99.4386 97.1507 99.4819 96.8517 99.6089 96.5834C99.7359 96.315 99.9409 96.0891 100.198 95.9337C100.456 95.7784 100.754 95.7005 101.057 95.7097C101.47 95.7358 101.857 95.9183 102.135 96.2186C102.413 96.5188 102.561 96.9131 102.547 97.3178Z" fill="#DA840D"/>
<path d="M124.855 100.409C124.855 101.22 123.923 101.878 122.77 101.878C121.616 101.878 120.684 101.22 120.684 100.409C120.684 99.5989 121.616 98.9404 122.77 98.9404C123.923 98.9404 124.855 99.5989 124.855 100.409Z" fill="#DA840D"/>
<path d="M124.855 107.995C124.855 108.476 123.923 108.868 122.77 108.868C121.616 108.868 120.684 108.476 120.684 107.995C120.684 107.514 121.616 107.121 122.77 107.121C123.923 107.121 124.855 107.514 124.855 107.995Z" fill="#DA840D"/>
<path d="M138.965 103.058C138.965 103.717 138.123 104.249 137.074 104.249C136.024 104.249 135.195 103.717 135.195 103.058C135.195 102.4 136.037 101.881 137.074 101.881C138.11 101.881 138.965 102.413 138.965 103.058Z" fill="#DA840D"/>
<path d="M136.71 111.513C136.802 111.907 136.765 112.32 136.607 112.693C136.448 113.066 136.174 113.382 135.823 113.596C135.473 113.811 135.062 113.914 134.649 113.89C134.236 113.867 133.841 113.719 133.518 113.466C133.195 113.214 132.96 112.869 132.846 112.48C132.733 112.092 132.745 111.678 132.882 111.297C133.019 110.915 133.274 110.585 133.612 110.352C133.95 110.118 134.353 109.993 134.767 109.993C135.23 109.947 135.693 110.08 136.057 110.365C136.42 110.649 136.655 111.061 136.71 111.513V111.513Z" fill="#DA840D"/>
<path d="M152.413 109.056C152.332 109.43 152.145 109.775 151.872 110.049C151.6 110.324 151.253 110.517 150.873 110.607C150.492 110.697 150.093 110.68 149.723 110.558C149.352 110.436 149.024 110.213 148.777 109.917C148.53 109.62 148.374 109.261 148.327 108.881C148.28 108.501 148.344 108.116 148.511 107.771C148.679 107.425 148.944 107.133 149.274 106.928C149.605 106.723 149.988 106.613 150.379 106.612C150.978 106.679 151.525 106.973 151.906 107.429C152.286 107.886 152.468 108.47 152.413 109.056V109.056Z" fill="#DA840D"/>
<path d="M151.286 98.0426C151.286 98.5364 150.626 98.9416 149.809 98.9416C148.993 98.9416 148.345 98.5364 148.345 98.0426C148.345 97.5487 149.006 97.1436 149.809 97.1436C150.613 97.1436 151.286 97.4981 151.286 98.0426Z" fill="#DA840D"/>
<path d="M163.724 100.689C163.724 102.652 162.83 104.247 161.742 104.247C160.653 104.247 159.746 102.652 159.746 100.689C159.746 98.7263 160.64 97.1436 161.742 97.1436C162.843 97.1436 163.724 98.7643 163.724 100.689Z" fill="#DA840D"/>
<path d="M168.713 97.0903C168.71 97.3411 168.606 97.5808 168.425 97.7582C168.243 97.9355 167.998 98.0367 167.742 98.0399C167.549 98.0399 167.361 97.9842 167.202 97.8799C167.042 97.7755 166.917 97.6272 166.844 97.4537C166.77 97.2802 166.751 97.0892 166.788 96.905C166.826 96.7208 166.918 96.5516 167.054 96.4188C167.19 96.286 167.363 96.1955 167.552 96.1589C167.74 96.1222 167.936 96.141 168.113 96.2129C168.291 96.2848 168.443 96.4065 168.549 96.5627C168.656 96.7188 168.713 96.9025 168.713 97.0903Z" fill="#DA840D"/>
<path d="M136.037 94.0553C136.037 94.9669 134.819 95.714 133.329 95.714C131.839 95.714 130.622 94.9669 130.622 94.0553C130.622 93.1436 131.826 92.4092 133.329 92.4092C134.832 92.4092 136.037 93.1436 136.037 94.0553Z" fill="#DA840D"/>
<path d="M85.2363 85.5198C85.2363 86.0896 84.2906 86.5454 83.1245 86.5454C81.9585 86.5454 81.0127 86.0896 81.0127 85.5198C81.0127 84.95 81.9585 84.5068 83.1245 84.5068C84.2906 84.5068 85.2363 84.9627 85.2363 85.5198Z" fill="#DA840D"/>
<path d="M97.6736 83.4915C97.6736 84.0486 96.5983 84.5045 95.2767 84.5045C93.9552 84.5045 92.8669 84.0486 92.8669 83.4915C92.8669 82.9344 93.9423 82.4785 95.2767 82.4785C96.6112 82.4785 97.6736 82.9344 97.6736 83.4915Z" fill="#DA840D"/>
<path d="M113.326 85.9757C113.326 86.7861 111.875 87.4445 110.074 87.4445C108.273 87.4445 106.822 86.7861 106.822 85.9757C106.822 85.1653 108.286 84.5068 110.074 84.5068C111.862 84.5068 113.326 85.1653 113.326 85.9757Z" fill="#DA840D"/>
<path d="M124.858 83.4916C124.86 83.6955 124.8 83.8955 124.686 84.0661C124.572 84.2367 124.408 84.3701 124.216 84.4493C124.023 84.5285 123.811 84.5498 123.607 84.5107C123.402 84.4715 123.214 84.3736 123.066 84.2294C122.919 84.0852 122.818 83.9013 122.778 83.7011C122.738 83.501 122.76 83.2938 122.841 83.1059C122.922 82.9179 123.059 82.7579 123.233 82.6462C123.408 82.5344 123.612 82.4761 123.821 82.4786C124.096 82.4786 124.36 82.5853 124.554 82.7753C124.748 82.9653 124.858 83.2229 124.858 83.4916V83.4916Z" fill="#DA840D"/>
<path d="M122.771 91.5083C122.771 92.0021 121.786 92.4073 120.555 92.4073C119.324 92.4073 118.353 92.0021 118.353 91.5083C118.353 91.0145 119.337 90.5967 120.555 90.5967C121.773 90.5967 122.771 91.0019 122.771 91.5083Z" fill="#DA840D"/>
<path d="M140.093 83.0498C140.095 83.3454 140.007 83.635 139.84 83.8813C139.673 84.1276 139.434 84.3193 139.154 84.4317C138.874 84.5442 138.566 84.5722 138.27 84.5123C137.974 84.4523 137.703 84.3071 137.492 84.0953C137.28 83.8835 137.139 83.6148 137.085 83.3238C137.032 83.0328 137.069 82.7328 137.191 82.4624C137.313 82.192 137.516 81.9636 137.772 81.8065C138.028 81.6494 138.327 81.5708 138.629 81.5809C139.022 81.5876 139.396 81.7457 139.67 82.0208C139.945 82.2959 140.097 82.6657 140.093 83.0498V83.0498Z" fill="#DA840D"/>
<path d="M148.346 89.0252C148.346 89.2658 147.582 89.4684 146.623 89.4684C145.664 89.4684 144.913 89.2658 144.913 89.0252C144.913 88.7846 145.677 88.5693 146.623 88.5693C147.569 88.5693 148.346 88.7719 148.346 89.0252Z" fill="#DA840D"/>
<path d="M153.723 86.1027C153.752 86.2363 153.739 86.3755 153.684 86.5011C153.628 86.6268 153.535 86.7325 153.416 86.8038C153.296 86.875 153.157 86.9082 153.018 86.8988C152.878 86.8893 152.745 86.8377 152.637 86.7511C152.529 86.6644 152.451 86.547 152.414 86.4152C152.378 86.2834 152.384 86.1436 152.432 86.0153C152.48 85.887 152.568 85.7765 152.683 85.6991C152.798 85.6218 152.935 85.5814 153.075 85.5835C153.231 85.5694 153.387 85.6159 153.508 85.7131C153.629 85.8103 153.706 85.9503 153.723 86.1027V86.1027Z" fill="#DA840D"/>
<path d="M148.346 89.0271C148.316 89.3017 148.205 89.562 148.027 89.7764C147.849 89.9909 147.612 90.1505 147.343 90.2359C147.074 90.3212 146.786 90.3288 146.513 90.2576C146.24 90.1864 145.994 90.0395 145.804 89.8346C145.615 89.6298 145.49 89.3757 145.445 89.1031C145.4 88.8304 145.437 88.5509 145.551 88.2982C145.665 88.0454 145.851 87.8304 146.087 87.6789C146.323 87.5273 146.599 87.4459 146.882 87.4443C147.085 87.4541 147.283 87.5028 147.466 87.5876C147.65 87.6725 147.814 87.7918 147.95 87.9389C148.086 88.0859 148.191 88.2577 148.259 88.4444C148.327 88.6312 148.357 88.8292 148.346 89.0271V89.0271Z" fill="#DA840D"/>
<path d="M156.662 86.4809C156.662 87.0127 155.859 87.4432 154.861 87.4432C153.864 87.4432 153.073 87.0127 153.073 86.4809C153.073 85.9491 153.877 85.5186 154.861 85.5186C155.846 85.5186 156.662 85.9491 156.662 86.4809Z" fill="#DA840D"/>
<path d="M200.389 80.3787C200.389 96.7255 164.838 111.945 122.045 111.945C79.2511 111.945 43.4409 95.5986 43.4409 79.2391C43.4409 62.8796 79.2511 52.7119 122.045 52.7119C164.838 52.7119 200.389 64.0192 200.389 80.3787Z" fill="#E3AC8A"/>
<path d="M199.52 77.2388C199.52 93.5983 164.824 106.856 122.031 106.856C79.2374 106.856 44.5674 93.573 44.5674 77.2388C44.5674 60.9046 79.2504 47.5967 122.044 47.5967C164.837 47.5967 199.52 60.854 199.52 77.2388Z" fill="#DA840D"/>
<path d="M178.416 74.4151C178.416 86.5454 152.673 96.3839 120.931 96.3839C89.1889 96.3839 63.4844 86.5454 63.4844 74.4151C63.4844 62.2847 89.1889 52.4336 120.931 52.4336C152.673 52.4336 178.416 62.2721 178.416 74.4151Z" fill="#F0A508"/>
<path d="M82.2315 82.5192C82.2315 83.7854 80.7804 84.887 78.9666 84.887C77.1527 84.887 75.7017 83.8234 75.7017 82.5192C75.7017 81.215 77.1657 80.1514 79.0313 80.1514C80.897 80.1514 82.2315 81.2023 82.2315 82.5192Z" fill="#DA840D"/>
<path d="M75.7017 72.541C75.6865 72.8894 75.5672 73.2258 75.3586 73.5087C75.1499 73.7916 74.8611 74.0086 74.5277 74.1329C74.1944 74.2572 73.831 74.2834 73.4826 74.2082C73.1342 74.133 72.816 73.9597 72.5672 73.7097C72.3184 73.4598 72.1499 73.1441 72.0826 72.8016C72.0153 72.4592 72.0521 72.1049 72.1884 71.7827C72.3247 71.4604 72.5546 71.1842 72.8497 70.9882C73.1449 70.7922 73.4922 70.685 73.849 70.6797C74.0962 70.6813 74.3406 70.7309 74.5681 70.8257C74.7955 70.9204 75.0014 71.0584 75.1737 71.2316C75.3461 71.4048 75.4816 71.6097 75.5722 71.8345C75.6628 72.0593 75.7069 72.2994 75.7017 72.541V72.541Z" fill="#DA840D"/>
<path d="M98.4643 85.3933C98.5032 86.006 98.353 86.616 98.033 87.1442C97.713 87.6725 97.238 88.0946 96.6696 88.356C96.1012 88.6173 95.4656 88.7057 94.8452 88.6098C94.2248 88.5139 93.6482 88.2381 93.19 87.8181C92.7319 87.3981 92.4134 86.8533 92.2758 86.2543C92.1383 85.6553 92.1879 85.0298 92.4184 84.4587C92.649 83.8876 93.0497 83.3974 93.5686 83.0515C94.0876 82.7057 94.7009 82.5201 95.329 82.519C96.1344 82.495 96.9167 82.7842 97.5044 83.3229C98.092 83.8617 98.4372 84.6062 98.4643 85.3933Z" fill="#DA840D"/>
<path d="M91.559 73.9709C91.559 74.7686 90.665 75.4143 89.5638 75.4143C88.4625 75.4143 87.5815 74.7686 87.5815 73.9709C87.5815 73.1731 88.4755 72.54 89.5638 72.54C90.6521 72.54 91.559 73.1858 91.559 73.9709Z" fill="#DA840D"/>
<path d="M111.59 80.7721C111.637 81.1698 111.56 81.5722 111.368 81.9259C111.175 82.2796 110.878 82.5679 110.515 82.7526C110.151 82.9373 109.739 83.0097 109.332 82.9602C108.926 82.9107 108.544 82.7416 108.238 82.4754C107.932 82.2091 107.716 81.8583 107.619 81.4694C107.522 81.0804 107.547 80.6718 107.693 80.2976C107.839 79.9234 108.097 79.6013 108.435 79.374C108.772 79.1466 109.172 79.0249 109.582 79.0248C110.084 79.0004 110.576 79.17 110.952 79.4968C111.327 79.8237 111.556 80.2817 111.59 80.7721V80.7721Z" fill="#DA840D"/>
<path d="M112.353 91.3078C112.353 92.1182 111.394 92.7767 110.202 92.7767C109.01 92.7767 108.052 92.1182 108.052 91.3078C108.052 90.4975 109.01 89.9023 110.202 89.9023C111.394 89.9023 112.353 90.5101 112.353 91.3078Z" fill="#DA840D"/>
<path d="M103.778 75.5918C103.778 75.9914 103.615 76.3746 103.326 76.6572C103.037 76.9398 102.645 77.0986 102.236 77.0986C101.827 77.0986 101.435 76.9398 101.146 76.6572C100.857 76.3746 100.694 75.9914 100.694 75.5918C100.694 75.1921 100.857 74.8089 101.146 74.5263C101.435 74.2437 101.827 74.085 102.236 74.085C102.645 74.085 103.037 74.2437 103.326 74.5263C103.615 74.8089 103.778 75.1921 103.778 75.5918V75.5918Z" fill="#DA840D"/>
<path d="M126.087 78.6818C126.087 79.4921 125.154 80.1506 124.001 80.1506C122.848 80.1506 121.915 79.4921 121.915 78.6818C121.915 77.8714 122.848 77.2383 124.001 77.2383C125.154 77.2383 126.087 77.8714 126.087 78.6818Z" fill="#DA840D"/>
<path d="M126.087 86.2663C126.087 86.7474 125.154 87.1399 124.001 87.1399C122.848 87.1399 121.915 86.7474 121.915 86.2663C121.915 85.7851 122.848 85.3926 124.001 85.3926C125.154 85.3926 126.087 85.7851 126.087 86.2663Z" fill="#DA840D"/>
<path d="M140.195 81.3289C140.195 81.9873 139.353 82.5191 138.303 82.5191C137.254 82.5191 136.412 81.9873 136.412 81.3289C136.412 80.6705 137.267 80.1514 138.303 80.1514C139.34 80.1514 140.195 80.6832 140.195 81.3289Z" fill="#DA840D"/>
<path d="M137.942 89.7857C138.036 90.1824 138.001 90.5979 137.843 90.9746C137.685 91.3513 137.411 91.6705 137.058 91.8881C136.706 92.1056 136.293 92.2106 135.877 92.1887C135.461 92.1667 135.062 92.0188 134.736 91.7654C134.41 91.5121 134.173 91.1658 134.057 90.7746C133.941 90.3835 133.952 89.9667 134.09 89.5823C134.227 89.1978 134.483 88.8645 134.823 88.6287C135.163 88.3929 135.569 88.2662 135.986 88.2662C136.451 88.2163 136.917 88.3479 137.284 88.6325C137.65 88.9171 137.887 89.3315 137.942 89.7857Z" fill="#DA840D"/>
<path d="M153.645 87.3683C153.55 87.7374 153.352 88.0734 153.073 88.3381C152.793 88.6029 152.443 88.7859 152.063 88.8665C151.682 88.9471 151.287 88.922 150.92 88.7941C150.553 88.6662 150.231 88.4406 149.988 88.1428C149.746 87.845 149.594 87.4869 149.549 87.109C149.504 86.731 149.568 86.3484 149.735 86.0043C149.901 85.6602 150.162 85.3685 150.489 85.162C150.816 84.9555 151.196 84.8426 151.585 84.8359C151.892 84.8656 152.19 84.9553 152.461 85.0997C152.732 85.244 152.971 85.4401 153.163 85.6762C153.355 85.9124 153.497 86.1839 153.579 86.4745C153.662 86.7652 153.684 87.0691 153.645 87.3683V87.3683Z" fill="#DA840D"/>
<path d="M152.518 76.3141C152.518 76.8079 151.857 77.2131 151.041 77.2131C150.225 77.2131 149.577 76.8079 149.577 76.3141C149.577 75.8202 150.225 75.415 151.041 75.415C151.857 75.415 152.518 75.8202 152.518 76.3141Z" fill="#DA840D"/>
<path d="M164.955 78.9605C164.955 80.9231 164.061 82.5185 162.96 82.5185C161.859 82.5185 160.978 80.9231 160.978 78.9605C160.978 76.9978 161.872 75.415 162.96 75.415C164.049 75.415 164.955 76.9978 164.955 78.9605Z" fill="#DA840D"/>
<path d="M169.931 75.3637C169.928 75.5485 169.87 75.7284 169.763 75.8808C169.656 76.0332 169.506 76.1513 169.33 76.2203C169.155 76.2893 168.962 76.306 168.777 76.2685C168.592 76.2309 168.423 76.1407 168.29 76.0091C168.157 75.8776 168.067 75.7106 168.031 75.5292C167.995 75.3478 168.015 75.1601 168.088 74.9896C168.161 74.8191 168.283 74.6735 168.441 74.5711C168.598 74.4687 168.783 74.4141 168.972 74.4141C169.228 74.4174 169.471 74.5189 169.651 74.6966C169.83 74.8744 169.931 75.114 169.931 75.3637V75.3637Z" fill="#DA840D"/>
<path d="M137.255 72.3258C137.255 73.2375 136.05 73.9719 134.56 73.9719C133.07 73.9719 131.852 73.2375 131.852 72.3258C131.852 71.4141 133.057 70.6797 134.56 70.6797C136.063 70.6797 137.255 71.4141 137.255 72.3258Z" fill="#DA840D"/>
<path d="M86.4685 63.803C86.4685 64.3601 85.5227 64.8159 84.3567 64.8159C83.1907 64.8159 82.2319 64.3601 82.2319 63.803C82.2319 63.2458 83.1777 62.7773 84.3567 62.7773C85.5356 62.7773 86.4685 63.2332 86.4685 63.803Z" fill="#DA840D"/>
<path d="M98.9053 61.7659C98.9053 62.3357 97.8299 62.7789 96.4955 62.7789C95.161 62.7789 94.0986 62.3357 94.0986 61.7659C94.0986 61.1961 95.174 60.7529 96.4955 60.7529C97.817 60.7529 98.9053 61.2088 98.9053 61.7659Z" fill="#DA840D"/>
<path d="M114.556 64.2462C114.556 65.0565 113.105 65.715 111.304 65.715C109.503 65.715 108.052 65.0565 108.052 64.2462C108.052 63.4358 109.516 62.7773 111.304 62.7773C113.092 62.7773 114.556 63.4358 114.556 64.2462Z" fill="#DA840D"/>
<path d="M126.087 61.7634C126.058 62.0142 125.936 62.2458 125.744 62.414C125.551 62.5823 125.302 62.6753 125.044 62.6753C124.786 62.6753 124.537 62.5823 124.344 62.414C124.152 62.2458 124.03 62.0142 124.001 61.7634C124.03 61.5127 124.152 61.281 124.344 61.1128C124.537 60.9446 124.786 60.8516 125.044 60.8516C125.302 60.8516 125.551 60.9446 125.744 61.1128C125.936 61.281 126.058 61.5127 126.087 61.7634V61.7634Z" fill="#DA840D"/>
<path d="M124.001 69.7672C124.001 70.2737 123.016 70.6789 121.785 70.6789C120.554 70.6789 119.57 70.2737 119.57 69.7672C119.57 69.2607 120.567 68.8682 121.785 68.8682C123.003 68.8682 124.001 69.2734 124.001 69.7672Z" fill="#DA840D"/>
<path d="M141.324 61.3206C141.326 61.6141 141.24 61.9018 141.075 62.147C140.91 62.3923 140.674 62.5842 140.397 62.6982C140.12 62.8123 139.815 62.8435 139.52 62.7877C139.225 62.732 138.954 62.5919 138.741 62.3853C138.528 62.1786 138.382 61.9147 138.322 61.6269C138.263 61.3392 138.292 61.0407 138.406 60.7693C138.521 60.4978 138.715 60.2657 138.965 60.1024C139.214 59.939 139.508 59.8518 139.808 59.8518C140.007 59.8484 140.205 59.884 140.389 59.9564C140.574 60.0289 140.742 60.1367 140.883 60.2736C141.024 60.4105 141.136 60.5737 141.212 60.7535C141.287 60.9333 141.326 61.1261 141.324 61.3206V61.3206Z" fill="#DA840D"/>
<path d="M149.575 67.2996C149.575 67.5402 148.798 67.7428 147.852 67.7428C146.906 67.7428 146.142 67.5402 146.142 67.2996C146.142 67.059 146.906 66.8438 147.852 66.8438C148.798 66.8438 149.575 67.1097 149.575 67.2996Z" fill="#DA840D"/>
<path d="M154.953 64.3116C154.913 64.4492 154.828 64.5702 154.711 64.6564C154.594 64.7425 154.452 64.7891 154.305 64.7891C154.159 64.7891 154.016 64.7425 153.9 64.6564C153.783 64.5702 153.698 64.4492 153.657 64.3116C153.698 64.174 153.783 64.0529 153.9 63.9668C154.016 63.8806 154.159 63.834 154.305 63.834C154.452 63.834 154.594 63.8806 154.711 63.9668C154.828 64.0529 154.913 64.174 154.953 64.3116V64.3116Z" fill="#DA840D"/>
<path d="M149.577 67.2976C149.547 67.5722 149.436 67.8325 149.258 68.047C149.08 68.2614 148.842 68.421 148.574 68.5064C148.305 68.5918 148.017 68.5993 147.744 68.5281C147.471 68.4569 147.224 68.31 147.035 68.1052C146.845 67.9003 146.721 67.6462 146.676 67.3736C146.631 67.1009 146.667 66.8214 146.781 66.5687C146.895 66.316 147.082 66.1009 147.318 65.9494C147.554 65.7979 147.83 65.7164 148.113 65.7148C148.315 65.7246 148.514 65.7733 148.697 65.8581C148.88 65.943 149.045 66.0623 149.181 66.2094C149.317 66.3564 149.422 66.5282 149.49 66.7149C149.558 66.9017 149.587 67.0997 149.577 67.2976V67.2976Z" fill="#DA840D"/>
<path d="M157.894 64.7534C157.894 65.2852 157.091 65.7157 156.093 65.7157C155.096 65.7157 154.292 65.2852 154.292 64.7534C154.292 64.2216 155.096 63.8037 156.093 63.8037C157.091 63.8037 157.894 64.2216 157.894 64.7534Z" fill="#DA840D"/>
<path d="M200.389 66.4118C200.389 82.7713 164.838 97.9786 122.045 97.9786C79.2511 97.9786 43.4409 81.6444 43.4409 65.2849C43.4409 48.9254 79.2511 38.6943 122.045 38.6943C164.838 38.6943 200.389 50.0523 200.389 66.4118Z" fill="#E3AC8A"/>
<path d="M199.52 63.3101C199.52 79.6569 164.824 92.9269 122.031 92.9269C79.2374 92.9269 44.5674 79.6063 44.5674 63.3101C44.5674 47.0139 79.2504 33.6807 122.044 33.6807C164.837 33.6807 199.52 46.8493 199.52 63.3101Z" fill="#DA840D"/>
<path d="M178.416 60.4483C178.416 72.5786 152.673 82.4171 120.931 82.4171C89.1889 82.4171 63.4844 72.5786 63.4844 60.4483C63.4844 48.318 89.1889 38.4668 120.931 38.4668C152.673 38.4668 178.416 48.3053 178.416 60.4483Z" fill="#F0A508"/>
<path d="M82.2315 68.5524C82.2315 69.8186 80.7804 70.9202 78.9666 70.9202C77.1527 70.9202 75.7017 69.8566 75.7017 68.5524C75.7017 67.2482 77.1657 66.1846 78.9666 66.1846C80.7674 66.1846 82.2315 67.2482 82.2315 68.5524Z" fill="#DA840D"/>
<path d="M75.7017 58.5742C75.6865 58.9226 75.5672 59.259 75.3586 59.5419C75.1499 59.8248 74.8611 60.0418 74.5277 60.1661C74.1944 60.2904 73.831 60.3166 73.4826 60.2414C73.1342 60.1662 72.816 59.9929 72.5672 59.7429C72.3184 59.493 72.1499 59.1773 72.0826 58.8348C72.0153 58.4924 72.0521 58.1382 72.1884 57.8159C72.3247 57.4936 72.5546 57.2174 72.8497 57.0214C73.1449 56.8254 73.4922 56.7182 73.849 56.7129C74.0962 56.7145 74.3406 56.7641 74.5681 56.8589C74.7955 56.9536 75.0014 57.0916 75.1737 57.2648C75.3461 57.438 75.4816 57.6429 75.5722 57.8677C75.6628 58.0925 75.7069 58.3327 75.7017 58.5742V58.5742Z" fill="#DA840D"/>
<path d="M95.2911 74.2994C97.0227 74.2994 98.4264 73.0125 98.4264 71.4251C98.4264 69.8377 97.0227 68.5508 95.2911 68.5508C93.5595 68.5508 92.1558 69.8377 92.1558 71.4251C92.1558 73.0125 93.5595 74.2994 95.2911 74.2994Z" fill="#DA840D"/>
<path d="M91.559 60.0187C91.559 60.8037 90.665 61.4495 89.5638 61.4495C88.4625 61.4495 87.5815 60.7784 87.5815 60.0187C87.5815 59.259 88.4755 58.5752 89.5638 58.5752C90.6521 58.5752 91.559 59.221 91.559 60.0187Z" fill="#DA840D"/>
<path d="M111.59 66.8053C111.637 67.203 111.56 67.6054 111.368 67.9591C111.175 68.3128 110.878 68.6011 110.515 68.7858C110.151 68.9705 109.739 69.0429 109.332 68.9934C108.926 68.9439 108.544 68.7748 108.238 68.5086C107.932 68.2423 107.716 67.8915 107.619 67.5026C107.522 67.1136 107.547 66.705 107.693 66.3308C107.839 65.9566 108.097 65.6345 108.435 65.4072C108.772 65.1799 109.172 65.0581 109.582 65.058C110.084 65.0336 110.576 65.2032 110.952 65.53C111.327 65.8569 111.556 66.3149 111.59 66.8053V66.8053Z" fill="#DA840D"/>
<path d="M112.353 77.338C112.353 78.1484 111.394 78.8068 110.202 78.8068C109.01 78.8068 108.052 78.1484 108.052 77.338C108.052 76.5276 109.01 75.8818 110.202 75.8818C111.394 75.8818 112.353 76.5403 112.353 77.338Z" fill="#DA840D"/>
<path d="M103.778 61.6373C103.755 61.9295 103.646 62.2088 103.463 62.4412C103.28 62.6735 103.032 62.8488 102.749 62.9456C102.467 63.0424 102.161 63.0564 101.87 62.986C101.579 62.9157 101.315 62.7639 101.111 62.5493C100.907 62.3348 100.771 62.0667 100.721 61.7779C100.67 61.4892 100.707 61.1922 100.826 60.9235C100.945 60.6547 101.142 60.4258 101.393 60.2647C101.643 60.1037 101.936 60.0174 102.236 60.0166C102.66 60.0331 103.06 60.2128 103.349 60.5164C103.637 60.82 103.792 61.223 103.778 61.6373V61.6373Z" fill="#DA840D"/>
<path d="M126.087 64.716C126.087 65.5264 125.154 66.1849 124.001 66.1849C122.848 66.1849 121.915 65.5264 121.915 64.716C121.915 63.9057 122.848 63.3105 124.001 63.3105C125.154 63.3105 126.087 63.9057 126.087 64.716Z" fill="#DA840D"/>
<path d="M126.087 72.2995C126.087 72.7806 125.154 73.1731 124.001 73.1731C122.848 73.1731 121.915 72.7806 121.915 72.2995C121.915 71.8183 122.848 71.4258 124.001 71.4258C125.154 71.4258 126.087 71.8183 126.087 72.2995Z" fill="#DA840D"/>
<path d="M140.195 67.3622C140.195 68.0206 139.353 68.5524 138.303 68.5524C137.254 68.5524 136.412 68.0206 136.412 67.3622C136.412 66.7037 137.267 66.1846 138.303 66.1846C139.34 66.1846 140.195 66.7164 140.195 67.3622Z" fill="#DA840D"/>
<path d="M137.942 75.8208C138.036 76.2176 138.001 76.633 137.843 77.0097C137.685 77.3864 137.411 77.7056 137.058 77.9232C136.706 78.1407 136.293 78.2457 135.877 78.2238C135.461 78.2018 135.062 78.0539 134.736 77.8005C134.41 77.5472 134.173 77.2009 134.057 76.8097C133.941 76.4186 133.952 76.0019 134.09 75.6174C134.227 75.2329 134.483 74.8997 134.823 74.6639C135.163 74.4281 135.569 74.3014 135.986 74.3014C136.451 74.2515 136.917 74.3831 137.284 74.6676C137.65 74.9522 137.887 75.3667 137.942 75.8208Z" fill="#DA840D"/>
<path d="M153.645 73.4397C153.55 73.8088 153.352 74.1448 153.073 74.4095C152.793 74.6743 152.443 74.8573 152.063 74.9379C151.682 75.0185 151.286 74.9934 150.92 74.8655C150.553 74.7376 150.231 74.512 149.988 74.2142C149.746 73.9164 149.594 73.5582 149.549 73.1803C149.504 72.8024 149.568 72.4197 149.735 72.0756C149.901 71.7316 150.162 71.4398 150.489 71.2333C150.816 71.0268 151.196 70.9138 151.585 70.9072C151.893 70.9352 152.192 71.0238 152.464 71.1676C152.735 71.3114 152.975 71.5075 153.167 71.7441C153.36 71.9807 153.501 72.2528 153.583 72.5442C153.665 72.8356 153.686 73.1402 153.645 73.4397V73.4397Z" fill="#DA840D"/>
<path d="M152.518 62.3492C152.518 62.8557 151.857 63.2609 151.041 63.2609C150.225 63.2609 149.577 62.8557 149.577 62.3492C149.577 61.8427 150.225 61.4502 151.041 61.4502C151.857 61.4502 152.518 61.8554 152.518 62.3492Z" fill="#DA840D"/>
<path d="M164.955 64.9956C164.955 66.9582 164.061 68.5537 162.96 68.5537C161.859 68.5537 160.978 66.9582 160.978 64.9956C160.978 63.033 161.872 61.4502 162.96 61.4502C164.049 61.4502 164.955 63.0456 164.955 64.9956Z" fill="#DA840D"/>
<path d="M169.931 61.3999C169.928 61.5847 169.87 61.7646 169.763 61.917C169.656 62.0694 169.506 62.1875 169.33 62.2565C169.155 62.3255 168.962 62.3423 168.777 62.3047C168.592 62.2671 168.423 62.1769 168.29 62.0453C168.157 61.9138 168.067 61.7468 168.031 61.5654C167.995 61.384 168.015 61.1963 168.088 61.0258C168.161 60.8553 168.283 60.7097 168.441 60.6073C168.598 60.5049 168.783 60.4502 168.972 60.4502C169.099 60.4502 169.225 60.4748 169.342 60.5227C169.459 60.5706 169.566 60.6408 169.655 60.7291C169.744 60.8175 169.814 60.9223 169.862 61.0374C169.909 61.1526 169.933 61.2758 169.931 61.3999V61.3999Z" fill="#DA840D"/>
<path d="M137.255 58.359C137.255 59.2707 136.05 60.0177 134.56 60.0177C133.07 60.0177 131.852 59.2707 131.852 58.359C131.852 57.4473 133.057 56.7129 134.56 56.7129C136.063 56.7129 137.255 57.4473 137.255 58.359Z" fill="#DA840D"/>
<path d="M86.4685 49.8382C86.4685 50.3953 85.5227 50.8511 84.3567 50.8511C83.1907 50.8511 82.2319 50.3953 82.2319 49.8382C82.2319 49.281 83.1777 48.8252 84.3567 48.8252C85.5356 48.8252 86.4685 49.281 86.4685 49.8382Z" fill="#DA840D"/>
<path d="M98.9053 47.7981C98.9053 48.3679 97.8299 48.8238 96.4955 48.8238C95.161 48.8238 94.0986 48.3679 94.0986 47.7981C94.0986 47.2283 95.174 46.7852 96.4955 46.7852C97.817 46.7852 98.9053 47.241 98.9053 47.7981Z" fill="#DA840D"/>
<path d="M114.556 50.2813C114.556 51.0917 113.105 51.7501 111.304 51.7501C109.503 51.7501 108.052 51.0917 108.052 50.2813C108.052 49.471 109.516 48.8252 111.304 48.8252C113.092 48.8252 114.556 49.471 114.556 50.2813Z" fill="#DA840D"/>
<path d="M126.086 47.7992C126.089 48.0031 126.029 48.2031 125.915 48.3737C125.801 48.5443 125.637 48.6777 125.444 48.7569C125.252 48.8361 125.04 48.8575 124.835 48.8183C124.631 48.7791 124.442 48.6812 124.295 48.537C124.147 48.3928 124.047 48.2089 124.007 48.0088C123.967 47.8086 123.989 47.6014 124.07 47.4135C124.151 47.2256 124.287 47.0655 124.462 46.9538C124.637 46.842 124.841 46.7837 125.05 46.7862C125.325 46.7862 125.588 46.8929 125.783 47.0829C125.977 47.2729 126.086 47.5305 126.086 47.7992V47.7992Z" fill="#DA840D"/>
<path d="M124.001 55.813C124.001 56.3069 123.016 56.7121 121.785 56.7121C120.554 56.7121 119.57 56.3069 119.57 55.813C119.57 55.3192 120.567 54.9014 121.785 54.9014C123.003 54.9014 124.001 55.3066 124.001 55.813Z" fill="#DA840D"/>
<path d="M141.324 47.3566C141.326 47.6501 141.24 47.9378 141.075 48.1831C140.91 48.4283 140.674 48.6202 140.397 48.7343C140.12 48.8484 139.815 48.8795 139.52 48.8238C139.225 48.7681 138.954 48.628 138.741 48.4213C138.528 48.2146 138.382 47.9507 138.322 47.6629C138.263 47.3752 138.292 47.0767 138.406 46.8053C138.521 46.5338 138.715 46.3017 138.965 46.1383C139.214 45.975 139.508 45.8878 139.808 45.8877C140.006 45.8861 140.203 45.9228 140.387 45.9959C140.571 46.069 140.738 46.1769 140.879 46.3135C141.02 46.45 141.132 46.6125 141.208 46.7915C141.285 46.9706 141.324 47.1626 141.324 47.3566V47.3566Z" fill="#DA840D"/>
<path d="M149.575 53.3328C149.575 53.5734 148.798 53.776 147.852 53.776C146.906 53.776 146.142 53.5734 146.142 53.3328C146.142 53.0922 146.906 52.877 147.852 52.877C148.798 52.877 149.575 53.0795 149.575 53.3328Z" fill="#DA840D"/>
<path d="M154.954 50.3432C154.986 50.4761 154.975 50.6154 154.923 50.742C154.871 50.8686 154.779 50.9762 154.662 51.0498C154.544 51.1234 154.406 51.1594 154.266 51.1528C154.127 51.1463 153.993 51.0975 153.883 51.0132C153.773 50.929 153.692 50.8134 153.653 50.6825C153.613 50.5516 153.616 50.4118 153.661 50.2826C153.706 50.1534 153.791 50.041 153.904 49.9611C154.018 49.8812 154.154 49.8378 154.293 49.8367C154.449 49.8221 154.604 49.8666 154.727 49.9608C154.85 50.0551 154.931 50.192 154.954 50.3432V50.3432Z" fill="#DA840D"/>
<path d="M149.577 53.3308C149.547 53.6054 149.436 53.8656 149.258 54.0801C149.08 54.2946 148.842 54.4542 148.574 54.5395C148.305 54.6249 148.017 54.6325 147.744 54.5613C147.471 54.4901 147.224 54.3432 147.035 54.1383C146.845 53.9335 146.721 53.6794 146.676 53.4068C146.631 53.1341 146.667 52.8546 146.781 52.6019C146.895 52.3492 147.082 52.1341 147.318 51.9826C147.554 51.8311 147.83 51.7496 148.113 51.748C148.315 51.7578 148.514 51.8065 148.697 51.8913C148.88 51.9762 149.045 52.0955 149.181 52.2426C149.317 52.3896 149.422 52.5614 149.49 52.7481C149.558 52.9349 149.587 53.1329 149.577 53.3308V53.3308Z" fill="#DA840D"/>
<path d="M157.894 50.7866C157.894 51.3184 157.091 51.749 156.093 51.749C155.096 51.749 154.292 51.3184 154.292 50.7866C154.292 50.2548 155.096 49.8369 156.093 49.8369C157.091 49.8369 157.894 50.2674 157.894 50.7866Z" fill="#DA840D"/>
<path d="M197.396 52.0296C195.582 36.3032 163.089 23.793 123.262 23.793C86.001 23.793 55.1659 34.7457 49.854 49.016C48.627 50.9446 47.9638 53.1648 47.9365 55.4357C47.9365 71.7952 82.2697 88.142 123.262 88.142C164.255 88.142 198.303 72.9475 198.303 56.5626C198.3 55.0088 197.992 53.47 197.396 52.0296Z" fill="#C66720"/>
<path d="M201.971 49.1922C201.971 65.5517 166.42 80.7716 123.626 80.7716C80.8326 80.7716 45.0225 64.4248 45.0225 48.1159C45.0225 31.8071 80.8326 21.5254 123.626 21.5254C166.42 21.5254 201.971 32.8327 201.971 49.1922Z" fill="#E3AC8A"/>
<path d="M201.283 46.0402C201.283 62.3997 167.598 74.758 124.843 74.758C82.0886 74.758 47.3667 61.5007 47.3667 45.1412C47.3667 28.7817 82.0497 15.5244 124.843 15.5244C167.637 15.5244 201.283 29.6807 201.283 46.0402Z" fill="#DA840D"/>
<path d="M122.512 65.1974C154.26 65.1974 179.997 55.3616 179.997 43.2286C179.997 31.0955 154.26 21.2598 122.512 21.2598C90.7635 21.2598 65.0264 31.0955 65.0264 43.2286C65.0264 55.3616 90.7635 65.1974 122.512 65.1974Z" fill="#F0A508"/>
<path d="M83.812 51.3307C83.812 52.5969 82.348 53.7112 80.5471 53.7112C78.7462 53.7112 77.2822 52.6476 77.2822 51.3307C77.2822 50.0139 78.7462 48.9629 80.5471 48.9629C82.348 48.9629 83.812 50.0265 83.812 51.3307Z" fill="#DA840D"/>
<path d="M77.2818 41.3652C77.264 41.714 77.142 42.0501 76.9308 42.3318C76.7196 42.6135 76.4285 42.8285 76.0935 42.9502C75.7585 43.0718 75.3944 43.0948 75.0462 43.0162C74.698 42.9376 74.381 42.761 74.1345 42.5081C73.888 42.2552 73.7228 41.9373 73.6594 41.5936C73.5959 41.2499 73.637 40.8955 73.7776 40.5744C73.9181 40.2533 74.1519 39.9796 74.4501 39.787C74.7482 39.5945 75.0976 39.4916 75.4549 39.4912C75.7011 39.4961 75.9438 39.5486 76.1691 39.6456C76.3944 39.7426 76.5978 39.8823 76.7676 40.0565C76.9374 40.2307 77.0703 40.436 77.1585 40.6606C77.2468 40.8852 77.2887 41.1247 77.2818 41.3652V41.3652Z" fill="#DA840D"/>
<path d="M100.007 54.2175C100.043 54.8298 99.8906 55.4387 99.5689 55.9654C99.2472 56.4921 98.7711 56.9123 98.2024 57.1716C97.6336 57.431 96.9983 57.5175 96.3787 57.4201C95.759 57.3226 95.1836 57.0457 94.7268 56.625C94.27 56.2044 93.9528 55.6595 93.8164 55.0608C93.68 54.462 93.7306 53.8371 93.9616 53.2667C94.1926 52.6964 94.5935 52.207 95.1123 51.8618C95.6311 51.5166 96.2439 51.3315 96.8715 51.3305C97.2714 51.3186 97.6697 51.384 98.0437 51.5227C98.4178 51.6614 98.7602 51.8708 99.0513 52.1389C99.3425 52.407 99.5768 52.7286 99.7407 53.0853C99.9047 53.4419 99.9951 53.8266 100.007 54.2175Z" fill="#DA840D"/>
<path d="M93.141 42.7961C93.141 43.5938 92.2471 44.2269 91.1458 44.2269C90.0446 44.2269 89.1636 43.5938 89.1636 42.7961C89.1636 41.9983 90.0575 41.3652 91.1458 41.3652C92.2341 41.3652 93.141 42.011 93.141 42.7961Z" fill="#DA840D"/>
<path d="M113.169 49.5843C113.216 49.982 113.139 50.3844 112.947 50.7381C112.755 51.0918 112.457 51.3801 112.094 51.5648C111.73 51.7495 111.318 51.8219 110.912 51.7724C110.505 51.7229 110.124 51.5538 109.818 51.2876C109.512 51.0213 109.296 50.6705 109.198 50.2816C109.101 49.8926 109.127 49.484 109.273 49.1098C109.418 48.7355 109.677 48.4134 110.014 48.1861C110.351 47.9588 110.751 47.837 111.161 47.8369C111.664 47.8092 112.158 47.9776 112.534 48.3051C112.911 48.6327 113.139 49.0926 113.169 49.5843V49.5843Z" fill="#DA840D"/>
<path d="M113.935 60.1309C113.935 60.9413 112.976 61.5997 111.784 61.5997C110.593 61.5997 109.634 60.9413 109.634 60.1309C109.634 59.3205 110.593 58.6621 111.784 58.6621C112.976 58.6621 113.935 59.3205 113.935 60.1309Z" fill="#DA840D"/>
<path d="M105.359 44.4176C105.336 44.7098 105.227 44.9891 105.044 45.2215C104.861 45.4538 104.613 45.6291 104.331 45.7259C104.048 45.8227 103.742 45.8367 103.451 45.7664C103.16 45.696 102.896 45.5442 102.692 45.3296C102.488 45.1151 102.352 44.847 102.302 44.5582C102.251 44.2695 102.288 43.9725 102.407 43.7038C102.526 43.435 102.723 43.2061 102.974 43.045C103.224 42.8839 103.517 42.7977 103.817 42.7969C104.027 42.8034 104.234 42.8506 104.426 42.9358C104.618 43.0209 104.79 43.1424 104.933 43.2931C105.077 43.4438 105.188 43.6208 105.261 43.8138C105.334 44.0068 105.367 44.212 105.359 44.4176Z" fill="#DA840D"/>
<path d="M127.668 47.5059C127.668 48.3163 126.735 48.9621 125.582 48.9621C124.429 48.9621 123.496 48.3163 123.496 47.5059C123.496 46.6955 124.429 46.0371 125.582 46.0371C126.735 46.0371 127.668 46.6955 127.668 47.5059Z" fill="#DA840D"/>
<path d="M127.668 55.0924C127.668 55.5736 126.735 55.9661 125.582 55.9661C124.429 55.9661 123.496 55.5736 123.496 55.0924C123.496 54.6113 124.429 54.2188 125.582 54.2188C126.735 54.2188 127.668 54.6113 127.668 55.0924Z" fill="#DA840D"/>
<path d="M141.777 50.1531C141.777 50.8116 140.922 51.3307 139.886 51.3307C138.849 51.3307 137.994 50.8116 137.994 50.1531C137.994 49.4947 138.849 48.9629 139.886 48.9629C140.922 48.9629 141.777 49.4947 141.777 50.1531Z" fill="#DA840D"/>
<path d="M139.523 58.6126C139.617 59.0093 139.582 59.4248 139.424 59.8015C139.266 60.1782 138.991 60.4974 138.639 60.7149C138.287 60.9325 137.874 61.0375 137.458 61.0155C137.042 60.9936 136.643 60.8457 136.317 60.5923C135.991 60.3389 135.753 59.9927 135.637 59.6015C135.521 59.2103 135.533 58.7936 135.67 58.4091C135.808 58.0246 136.064 57.6914 136.403 57.4556C136.743 57.2198 137.15 57.0931 137.566 57.0931C138.031 57.0465 138.496 57.1794 138.861 57.4634C139.227 57.7473 139.464 58.1598 139.523 58.6126V58.6126Z" fill="#DA840D"/>
<path d="M155.224 56.1557C155.144 56.53 154.956 56.8744 154.683 57.1489C154.411 57.4234 154.064 57.6168 153.684 57.7069C153.303 57.7969 152.905 57.7798 152.534 57.6576C152.163 57.5354 151.835 57.3131 151.588 57.0163C151.341 56.7195 151.185 56.3605 151.138 55.9807C151.091 55.6009 151.155 55.2159 151.323 54.8702C151.49 54.5245 151.755 54.2323 152.085 54.0273C152.416 53.8223 152.799 53.713 153.19 53.7119C153.789 53.7789 154.337 54.0721 154.717 54.5288C155.097 54.9855 155.279 55.5694 155.224 56.1557V56.1557Z" fill="#DA840D"/>
<path d="M154.084 45.1392C154.084 45.633 153.436 46.0382 152.62 46.0382C151.804 46.0382 151.156 45.633 151.156 45.1392C151.156 44.6454 151.804 44.2275 152.62 44.2275C153.436 44.2275 154.084 44.6327 154.084 45.1392Z" fill="#DA840D"/>
<path d="M166.536 47.7856C166.536 49.7482 165.642 51.331 164.541 51.331C163.44 51.331 162.559 49.7482 162.559 47.7856C162.559 45.823 163.453 44.2275 164.541 44.2275C165.629 44.2275 166.536 45.823 166.536 47.7856Z" fill="#DA840D"/>
<path d="M171.511 44.1899C171.506 44.374 171.446 44.5526 171.337 44.7034C171.229 44.8541 171.077 44.9702 170.902 45.0373C170.726 45.1043 170.534 45.1193 170.35 45.0804C170.166 45.0414 169.997 44.9502 169.866 44.8182C169.734 44.6862 169.646 44.5193 169.611 44.3382C169.576 44.1572 169.596 43.9701 169.669 43.8004C169.743 43.6306 169.865 43.4857 170.023 43.3839C170.18 43.282 170.364 43.2276 170.552 43.2275C170.68 43.2292 170.806 43.2554 170.923 43.3047C171.041 43.3539 171.147 43.4253 171.236 43.5146C171.325 43.604 171.395 43.7096 171.442 43.8255C171.489 43.9413 171.513 44.0652 171.511 44.1899V44.1899Z" fill="#DA840D"/>
<path d="M138.835 41.1499C138.835 42.0616 137.63 42.796 136.141 42.796C134.651 42.796 133.446 42.0616 133.446 41.1499C133.446 40.2383 134.651 39.4912 136.154 39.4912C137.656 39.4912 138.835 40.2383 138.835 41.1499Z" fill="#DA840D"/>
<path d="M88.1004 32.6184C88.1004 33.1756 87.1546 33.6314 85.9885 33.6314C84.8225 33.6314 83.8638 33.1756 83.8638 32.6184C83.8638 32.0613 84.8096 31.6055 85.9885 31.6055C87.1675 31.6055 88.1004 32.0613 88.1004 32.6184Z" fill="#DA840D"/>
<path d="M100.487 30.5911C100.487 31.1482 99.4112 31.6041 98.0768 31.6041C96.7423 31.6041 95.6799 31.1482 95.6799 30.5911C95.6799 30.034 96.7553 29.5781 98.0768 29.5781C99.3983 29.5781 100.487 30.034 100.487 30.5911Z" fill="#DA840D"/>
<path d="M116.138 33.0725C116.138 33.8828 114.687 34.5413 112.886 34.5413C111.085 34.5413 109.634 33.8828 109.634 33.0725C109.634 32.2621 111.085 31.6543 112.886 31.6543C114.687 31.6543 116.138 32.2621 116.138 33.0725Z" fill="#DA840D"/>
<path d="M127.667 30.5892C127.67 30.7926 127.61 30.9921 127.497 31.1624C127.383 31.3328 127.22 31.4662 127.028 31.5458C126.837 31.6253 126.625 31.6475 126.421 31.6093C126.217 31.5712 126.028 31.4745 125.88 31.3316C125.732 31.1887 125.631 31.006 125.589 30.8067C125.548 30.6074 125.568 30.4005 125.647 30.2124C125.726 30.0242 125.861 29.8633 126.033 29.75C126.206 29.6368 126.41 29.5763 126.618 29.5763C126.755 29.5746 126.891 29.5995 127.018 29.6497C127.146 29.6998 127.261 29.7742 127.359 29.8684C127.457 29.9627 127.534 30.0749 127.587 30.1986C127.64 30.3224 127.667 30.4551 127.667 30.5892V30.5892Z" fill="#DA840D"/>
<path d="M125.582 38.5934C125.582 39.0998 124.597 39.4924 123.366 39.4924C122.135 39.4924 121.151 39.0998 121.151 38.5934C121.151 38.0869 122.148 37.6943 123.366 37.6943C124.584 37.6943 125.582 38.0995 125.582 38.5934Z" fill="#DA840D"/>
<path d="M142.904 30.1339C142.909 30.428 142.825 30.7169 142.661 30.9638C142.498 31.2107 142.263 31.4045 141.987 31.5206C141.71 31.6366 141.405 31.6696 141.109 31.6153C140.813 31.561 140.541 31.422 140.326 31.2158C140.111 31.0097 139.965 30.7458 139.904 30.4577C139.843 30.1697 139.872 29.8705 139.986 29.5983C140.1 29.3262 140.294 29.0933 140.544 28.9293C140.793 28.7654 141.087 28.6778 141.388 28.6778C141.586 28.6761 141.781 28.7125 141.964 28.7847C142.147 28.857 142.314 28.9638 142.455 29.099C142.596 29.2342 142.708 29.3952 142.785 29.5728C142.862 29.7504 142.902 29.9411 142.904 30.1339V30.1339Z" fill="#DA840D"/>
<path d="M151.157 36.1102C151.157 36.3634 150.38 36.566 149.434 36.566C148.488 36.566 147.724 36.3634 147.724 36.1102C147.724 35.8569 148.488 35.667 149.434 35.667C150.38 35.667 151.157 35.8696 151.157 36.1102Z" fill="#DA840D"/>
<path d="M156.534 33.1245C156.566 33.2573 156.555 33.3967 156.503 33.5233C156.45 33.6499 156.359 33.7574 156.241 33.831C156.124 33.9046 155.986 33.9406 155.846 33.9341C155.706 33.9275 155.572 33.8787 155.463 33.7945C155.353 33.7102 155.272 33.5946 155.232 33.4637C155.193 33.3328 155.196 33.1931 155.241 33.0638C155.286 32.9346 155.371 32.8223 155.484 32.7424C155.597 32.6625 155.733 32.619 155.873 32.618C156.029 32.6034 156.184 32.6478 156.307 32.7421C156.43 32.8364 156.511 32.9733 156.534 33.1245V33.1245Z" fill="#DA840D"/>
<path d="M151.156 36.1112C151.176 36.3095 151.152 36.5096 151.088 36.6986C151.023 36.8876 150.919 37.0613 150.782 37.2087C150.644 37.356 150.477 37.4737 150.291 37.5543C150.104 37.6348 149.903 37.6764 149.699 37.6764C149.495 37.6764 149.293 37.6348 149.107 37.5543C148.921 37.4737 148.753 37.356 148.616 37.2087C148.479 37.0613 148.375 36.8876 148.31 36.6986C148.246 36.5096 148.222 36.3095 148.241 36.1112C148.222 35.9128 148.246 35.7127 148.31 35.5238C148.375 35.3348 148.479 35.161 148.616 35.0137C148.753 34.8663 148.921 34.7486 149.107 34.6681C149.293 34.5875 149.495 34.5459 149.699 34.5459C149.903 34.5459 150.104 34.5875 150.291 34.6681C150.477 34.7486 150.644 34.8663 150.782 35.0137C150.919 35.161 151.023 35.3348 151.088 35.5238C151.152 35.7127 151.176 35.9128 151.156 36.1112V36.1112Z" fill="#DA840D"/>
<path d="M159.461 33.5805C159.461 34.1123 158.671 34.5428 157.673 34.5428C156.676 34.5428 155.873 34.1123 155.873 33.5805C155.873 33.0487 156.676 32.6182 157.673 32.6182C158.671 32.6182 159.461 33.0487 159.461 33.5805Z" fill="#DA840D"/>
<path d="M201.633 33.4167C201.633 43.3944 188.418 52.9417 168.401 58.8676C153.745 63.024 138.549 65.0839 123.289 64.9834C107.392 64.9834 94.3322 60.8935 81.143 59.9186C59.1439 58.2471 44.6851 42.5714 44.6851 32.2897C44.6851 15.9302 80.5082 5.69922 123.289 5.69922C166.069 5.69922 201.633 17.0572 201.633 33.4167Z" fill="#E3AC8A"/>
<path d="M200.649 31.2496C200.649 47.6091 165.953 60.8664 123.16 60.8664C80.3661 60.8664 45.6831 47.6091 45.6831 31.2496C45.6831 14.8901 80.3273 1.63281 123.16 1.63281C165.992 1.63281 200.649 14.8901 200.649 31.2496Z" fill="#DA840D"/>
<path d="M179.531 28.4502C179.531 40.5806 153.788 50.4191 122.046 50.4191C90.3035 50.4191 64.5601 40.5806 64.5601 28.4502C64.5601 16.3199 90.2905 6.46875 122.046 6.46875C153.8 6.46875 179.531 16.3072 179.531 28.4502Z" fill="#F0A508"/>
<path d="M83.3458 36.5553C83.3458 37.8215 81.8817 38.9231 80.0808 38.9231C78.28 38.9231 76.8159 37.8595 76.8159 36.5553C76.8159 35.2511 78.28 34.1875 80.0808 34.1875C81.8817 34.1875 83.3458 35.2385 83.3458 36.5553Z" fill="#DA840D"/>
<path d="M76.8151 26.5908C76.7999 26.9403 76.6799 27.2777 76.4702 27.5612C76.2604 27.8446 75.97 28.0616 75.6352 28.1851C75.3003 28.3087 74.9357 28.3334 74.5866 28.2561C74.2375 28.1789 73.9193 28.0032 73.6715 27.7507C73.4238 27.4983 73.2573 27.1802 73.1929 26.8362C73.1285 26.4921 73.1689 26.137 73.3092 25.8152C73.4495 25.4934 73.6834 25.2189 73.9819 25.0259C74.2804 24.8329 74.6303 24.7298 74.9883 24.7295C75.2333 24.7344 75.4749 24.7865 75.6993 24.8827C75.9238 24.9789 76.1266 25.1174 76.2963 25.2903C76.4659 25.4631 76.599 25.667 76.6881 25.8901C76.7771 26.1133 76.8203 26.3514 76.8151 26.5908V26.5908Z" fill="#DA840D"/>
<path d="M99.5403 39.4294C99.5792 40.0421 99.429 40.6521 99.109 41.1804C98.789 41.7086 98.314 42.1308 97.7456 42.3921C97.1772 42.6534 96.5416 42.7419 95.9212 42.6459C95.3007 42.55 94.7241 42.2742 94.266 41.8542C93.8078 41.4342 93.4893 40.8894 93.3518 40.2905C93.2142 39.6915 93.2639 39.0659 93.4944 38.4948C93.7249 37.9238 94.1256 37.4335 94.6446 37.0877C95.1635 36.7418 95.7768 36.5563 96.405 36.5551C97.2104 36.5312 97.9926 36.8203 98.5803 37.3591C99.1681 37.8978 99.5133 38.6423 99.5403 39.4294V39.4294Z" fill="#DA840D"/>
<path d="M92.6747 28.0207C92.6747 28.8057 91.7808 29.4515 90.6795 29.4515C89.5783 29.4515 88.6973 28.8057 88.6973 28.0207C88.6973 27.2356 89.5912 26.5898 90.6925 26.5898C91.7937 26.5898 92.6747 27.2229 92.6747 28.0207Z" fill="#DA840D"/>
<path d="M112.717 34.8053C112.762 35.2003 112.683 35.5992 112.49 35.9493C112.298 36.2994 112.001 36.5842 111.64 36.7659C111.278 36.9477 110.868 37.0179 110.465 36.9672C110.062 36.9165 109.684 36.7474 109.381 36.4822C109.078 36.217 108.865 35.8682 108.769 35.4819C108.674 35.0957 108.7 34.6902 108.846 34.319C108.991 33.9479 109.248 33.6286 109.583 33.4034C109.918 33.1782 110.315 33.0578 110.722 33.0579C111.223 33.0337 111.713 33.2036 112.087 33.5308C112.461 33.858 112.687 34.316 112.717 34.8053Z" fill="#DA840D"/>
<path d="M113.469 45.3409C113.469 46.1513 112.51 46.8097 111.318 46.8097C110.126 46.8097 109.167 46.1513 109.167 45.3409C109.167 44.5305 110.126 43.8848 111.318 43.8848C112.51 43.8848 113.469 44.5432 113.469 45.3409Z" fill="#DA840D"/>
<path d="M104.944 29.6286C104.923 29.9215 104.816 30.2022 104.635 30.4364C104.454 30.6705 104.206 30.8478 103.924 30.9464C103.641 31.0451 103.334 31.0609 103.042 30.9918C102.751 30.9227 102.486 30.7718 102.28 30.5576C102.075 30.3434 101.938 30.0752 101.886 29.786C101.835 29.4968 101.871 29.1992 101.99 28.9297C102.109 28.6602 102.306 28.4306 102.557 28.2691C102.808 28.1076 103.101 28.0212 103.402 28.0205C103.611 28.0271 103.817 28.0739 104.008 28.1582C104.199 28.2426 104.371 28.3629 104.514 28.5123C104.657 28.6616 104.769 28.8371 104.842 29.0286C104.916 29.2202 104.95 29.4241 104.944 29.6286V29.6286Z" fill="#DA840D"/>
<path d="M127.202 32.7178C127.202 33.5282 126.269 34.1866 125.116 34.1866C123.963 34.1866 123.082 33.5282 123.082 32.7178C123.082 31.9075 124.015 31.249 125.168 31.249C126.321 31.249 127.202 31.9075 127.202 32.7178Z" fill="#DA840D"/>
<path d="M127.202 40.3014C127.202 40.7826 126.269 41.1751 125.116 41.1751C123.963 41.1751 123.082 40.7826 123.082 40.3014C123.082 39.8203 124.015 39.4277 125.168 39.4277C126.321 39.4277 127.202 39.8203 127.202 40.3014Z" fill="#DA840D"/>
<path d="M141.311 35.3651C141.311 36.0235 140.456 36.5553 139.419 36.5553C138.383 36.5553 137.528 36.0235 137.528 35.3651C137.528 34.7067 138.383 34.1875 139.419 34.1875C140.456 34.1875 141.311 34.7193 141.311 35.3651Z" fill="#DA840D"/>
<path d="M139.057 43.8217C138.945 44.2421 138.693 44.6143 138.341 44.88C137.99 45.1457 137.558 45.2898 137.113 45.2898C136.669 45.2898 136.237 45.1457 135.885 44.88C135.533 44.6143 135.282 44.2421 135.17 43.8217C135.282 43.4013 135.533 43.029 135.885 42.7633C136.237 42.4977 136.669 42.3535 137.113 42.3535C137.558 42.3535 137.99 42.4977 138.341 42.7633C138.693 43.029 138.945 43.4013 139.057 43.8217V43.8217Z" fill="#DA840D"/>
<path d="M154.758 41.3789C154.817 41.6724 154.809 41.9751 154.734 42.2652C154.659 42.5552 154.52 42.8255 154.325 43.0565C154.131 43.2875 153.886 43.4736 153.61 43.6013C153.333 43.7291 153.03 43.7953 152.724 43.7953C152.418 43.7953 152.116 43.7291 151.839 43.6013C151.562 43.4736 151.318 43.2875 151.124 43.0565C150.929 42.8255 150.789 42.5552 150.714 42.2652C150.64 41.9751 150.631 41.6724 150.69 41.3789C150.621 41.0804 150.621 40.7705 150.691 40.4721C150.761 40.1738 150.899 39.8946 151.094 39.6554C151.29 39.4162 151.538 39.2231 151.82 39.0903C152.102 38.9576 152.411 38.8887 152.724 38.8887C153.038 38.8887 153.347 38.9576 153.629 39.0903C153.911 39.2231 154.159 39.4162 154.355 39.6554C154.55 39.8946 154.688 40.1738 154.758 40.4721C154.828 40.7705 154.828 41.0804 154.758 41.3789V41.3789Z" fill="#DA840D"/>
<path d="M153.618 30.3883C153.618 30.8821 152.97 31.2873 152.154 31.2873C151.338 31.2873 150.69 30.8821 150.69 30.3883C150.69 29.8944 151.338 29.4893 152.154 29.4893C152.97 29.4893 153.618 29.8565 153.618 30.3883Z" fill="#DA840D"/>
<path d="M166.068 32.9976C166.068 34.9602 165.175 36.5556 164.073 36.5556C162.972 36.5556 162.091 34.9602 162.091 32.9976C162.091 31.0349 162.972 29.4521 164.073 29.4521C165.175 29.4521 166.068 31.0349 166.068 32.9976Z" fill="#DA840D"/>
<path d="M171.018 29.4018C171.015 29.5866 170.957 29.7665 170.85 29.9189C170.743 30.0713 170.593 30.1894 170.417 30.2584C170.242 30.3274 170.05 30.3441 169.864 30.3066C169.679 30.269 169.51 30.1788 169.377 30.0472C169.244 29.9157 169.154 29.7487 169.118 29.5673C169.082 29.3859 169.102 29.1982 169.175 29.0277C169.248 28.8572 169.371 28.7116 169.528 28.6092C169.685 28.5068 169.87 28.4522 170.059 28.4521C170.315 28.4555 170.559 28.557 170.738 28.7347C170.917 28.9125 171.018 29.1521 171.018 29.4018V29.4018Z" fill="#DA840D"/>
<path d="M138.369 26.3619C138.369 27.2736 137.165 28.0207 135.662 28.0207C134.159 28.0207 132.967 27.2736 132.967 26.3619C132.967 25.4502 134.172 24.7158 135.662 24.7158C137.152 24.7158 138.369 25.4502 138.369 26.3619Z" fill="#DA840D"/>
<path d="M87.5828 17.8411C87.5828 18.3982 86.637 18.854 85.458 18.854C84.279 18.854 83.3462 18.3982 83.3462 17.8411C83.3462 17.2839 84.292 16.8154 85.458 16.8154C86.624 16.8154 87.5828 17.2713 87.5828 17.8411Z" fill="#DA840D"/>
<path d="M100.02 15.8011C100.02 16.3709 98.9447 16.814 97.6102 16.814C96.2758 16.814 95.2004 16.3709 95.2004 15.8011C95.2004 15.2313 96.2887 14.7881 97.6102 14.7881C98.9317 14.7881 100.02 15.1933 100.02 15.8011Z" fill="#DA840D"/>
<path d="M115.671 18.2842C115.671 19.0946 114.22 19.753 112.419 19.753C110.618 19.753 109.167 19.0946 109.167 18.2842C109.167 17.4739 110.618 16.8154 112.419 16.8154C114.22 16.8154 115.671 17.4739 115.671 18.2842Z" fill="#DA840D"/>
<path d="M127.201 15.8011C127.203 16.0045 127.144 16.204 127.03 16.3744C126.917 16.5447 126.754 16.6781 126.562 16.7577C126.371 16.8372 126.159 16.8594 125.955 16.8212C125.75 16.7831 125.562 16.6864 125.414 16.5435C125.266 16.4006 125.165 16.2179 125.123 16.0186C125.082 15.8193 125.102 15.6124 125.181 15.4243C125.26 15.2361 125.394 15.0752 125.567 14.9619C125.74 14.8487 125.943 14.7882 126.151 14.7882C126.289 14.7865 126.425 14.8115 126.552 14.8616C126.679 14.9118 126.795 14.9861 126.893 15.0803C126.99 15.1746 127.068 15.2868 127.121 15.4105C127.174 15.5343 127.201 15.667 127.201 15.8011Z" fill="#DA840D"/>
<path d="M125.115 23.816C125.115 24.3098 124.117 24.715 122.899 24.715C121.681 24.715 120.684 24.3098 120.684 23.816C120.684 23.3221 121.681 22.9043 122.899 22.9043C124.117 22.9043 125.115 23.3095 125.115 23.816Z" fill="#DA840D"/>
<path d="M142.425 15.3596C142.433 15.6516 142.351 15.9392 142.191 16.1857C142.031 16.4322 141.799 16.6263 141.525 16.7434C141.251 16.8604 140.948 16.8949 140.654 16.8426C140.36 16.7903 140.088 16.6535 139.874 16.4497C139.66 16.2459 139.513 15.9843 139.452 15.6984C139.391 15.4125 139.418 15.1152 139.53 14.8446C139.643 14.574 139.836 14.3423 140.083 14.1792C140.331 14.0161 140.623 13.9289 140.922 13.9288C141.315 13.9254 141.694 14.0738 141.975 14.3418C142.257 14.6098 142.418 14.9756 142.425 15.3596V15.3596Z" fill="#DA840D"/>
<path d="M150.69 21.3357C150.69 21.5763 149.912 21.7789 148.967 21.7789C148.021 21.7789 147.243 21.5763 147.243 21.3357C147.243 21.0951 148.021 20.8799 148.967 20.8799C149.912 20.8799 150.69 21.0825 150.69 21.3357Z" fill="#DA840D"/>
<path d="M156.067 18.3461C156.099 18.479 156.088 18.6184 156.036 18.7449C155.983 18.8715 155.892 18.979 155.774 19.0526C155.657 19.1262 155.519 19.1623 155.379 19.1557C155.239 19.1492 155.105 19.1004 154.995 19.0161C154.886 18.9319 154.805 18.8163 154.765 18.6854C154.726 18.5545 154.729 18.4148 154.774 18.2855C154.819 18.1563 154.904 18.0439 155.017 17.9641C155.13 17.8842 155.266 17.8407 155.406 17.8396C155.562 17.825 155.717 17.8695 155.84 17.9638C155.963 18.058 156.044 18.1949 156.067 18.3461V18.3461Z" fill="#DA840D"/>
<path d="M150.69 21.3357C150.66 21.6103 150.55 21.8706 150.372 22.085C150.194 22.2995 149.956 22.4591 149.687 22.5445C149.418 22.6298 149.13 22.6374 148.857 22.5662C148.584 22.495 148.338 22.3481 148.148 22.1432C147.959 21.9384 147.834 21.6843 147.789 21.4117C147.744 21.139 147.781 20.8595 147.895 20.6068C148.009 20.354 148.195 20.139 148.431 19.9874C148.668 19.8359 148.944 19.7545 149.226 19.7529C149.429 19.7627 149.627 19.8113 149.811 19.8962C149.994 19.9811 150.158 20.1004 150.294 20.2474C150.43 20.3945 150.535 20.5663 150.603 20.753C150.671 20.9398 150.701 21.1378 150.69 21.3357V21.3357Z" fill="#DA840D"/>
<path d="M158.994 18.7895C158.994 19.3213 158.191 19.7518 157.206 19.7518C156.222 19.7518 155.406 19.3213 155.406 18.7895C155.406 18.2577 156.209 17.8398 157.206 17.8398C158.204 17.8398 158.994 18.2577 158.994 18.7895Z" fill="#DA840D"/>
<path d="M134.923 97.9166C134.629 96.823 133.946 95.8675 132.996 95.2223C132.046 94.577 130.891 94.2842 129.74 94.3966C121.967 94.941 121.319 107.666 124.052 113.225C124.866 113.84 125.89 114.128 126.914 114.029C127.938 113.93 128.884 113.452 129.559 112.693C132.046 109.971 132.837 106.033 133.718 102.564C134.15 101.027 134.551 99.4783 134.923 97.9166Z" fill="#EEBE30"/>
<path d="M192.629 31.7937C189.926 30.7728 187.434 29.2844 185.27 27.4C182.685 24.9499 180.302 22.3037 178.145 19.4861C174.919 15.6115 170.228 14.0921 165.305 13.5223C159.825 12.8765 154.163 14.0667 148.644 13.7882C145.684 13.7094 142.783 12.9595 140.171 11.5976C137.58 10.1541 135.545 7.79897 133.33 5.76036C128.99 1.96171 123.483 1.96171 118.003 1.10069C114.373 0.474402 110.701 0.106234 107.017 -0.00092064C103.246 -0.0895557 96.6518 -0.140204 94.1254 3.36721C91.3269 4.63343 90.3422 8.00156 89.7074 10.8379C89.3498 13.1782 88.7818 15.4832 88.0102 17.7261C86.859 20.2769 85.0784 22.5088 82.8278 24.2218C77.8916 28.2357 71.7893 30.3882 66.2053 33.1866C61.6708 35.4531 56.1127 38.6693 53.677 43.215C52.2129 45.9374 52.3814 50.597 54.9726 52.6103C58.1727 55.0161 60.6084 50.4831 61.295 48.1912C61.9299 46.1146 62.1631 44.0001 63.8862 42.4426C66.2075 40.4731 68.9668 39.0597 71.9448 38.3148C74.4453 37.631 77.1272 37.631 79.5888 36.8839C82.5436 35.7969 85.3231 34.3001 87.8417 32.4395C90.7957 30.5149 93.6719 28.6409 97.183 27.8052C100.098 27.1467 104.607 27.248 106.9 29.4259C108.158 30.9148 109.24 32.5373 110.126 34.2629C111.308 35.8723 112.873 37.1762 114.686 38.0615C118.34 40.1001 122.525 40.9991 126.347 42.8478C127.625 43.4972 128.726 44.4347 129.56 45.5828C129.689 45.7728 129.806 45.9627 129.923 46.1653C130.017 46.3087 130.103 46.4566 130.182 46.6085C134.354 54.1298 129.106 62.0943 129.249 70.0334C129.249 74.3133 132.423 81.3154 137.787 77.884C138.15 77.6561 138.486 77.4028 138.823 77.1496C139.432 71.6036 139.925 65.9182 141.894 60.6888C143.747 55.8265 146.273 51.3314 146.001 45.9754C145.845 43.0251 144.407 40.3154 144.058 37.4031C143.565 33.3512 147.296 31.5152 150.652 30.7175C155.44 29.4723 160.515 29.8106 165.085 31.6798C173.688 35.1366 180.632 42.2653 190.194 43.4429C193.977 43.9114 199.457 43.329 200.96 39.2897C202.463 35.2505 195.324 32.9207 192.629 31.7937Z" fill="#EEBE30"/>
<path opacity="0.5" d="M139.988 37.0759C139.596 35.7109 138.871 34.4591 137.876 33.4272C136.881 32.3953 135.646 31.614 134.275 31.15C132.305 30.6435 129.196 31.9224 129.442 34.2522C129.446 34.2989 129.459 34.3443 129.481 34.3856C129.504 34.427 129.534 34.4635 129.572 34.4928C128.276 37.1898 132.033 41.8368 133.329 43.8121C134.278 45.0768 134.876 46.5599 135.065 48.1173C135.285 50.1306 134.625 52.1185 134.819 54.1065C134.897 54.9928 135.583 58.7788 137.41 57.2594C139.496 55.5373 139.716 51.6374 140.144 49.1809C141.006 45.184 140.953 41.0504 139.988 37.0759V37.0759Z" fill="white"/>
<path opacity="0.5" d="M177.664 23.9681C175.546 20.5335 172.169 18.0162 168.219 16.9279C164.229 15.801 154.655 14.5854 153.644 20.2961C153.636 20.4114 153.665 20.5263 153.728 20.6242C153.791 20.722 153.884 20.7978 153.994 20.8405C154.249 21.0226 154.476 21.2402 154.667 21.4863C154.722 21.5896 154.808 21.6738 154.914 21.7269V21.7269C155.018 21.7636 155.133 21.7636 155.238 21.7269C155.977 22.3894 156.864 22.8748 157.829 23.1451C160.204 23.6592 162.626 23.9391 165.058 23.9808C168.427 24.2973 170.305 25.7155 172.65 27.9187C173.946 29.1849 177.496 31.844 179.323 29.8307C180.722 28.4125 178.429 25.133 177.664 23.9681Z" fill="white"/>
<path opacity="0.5" d="M62.5259 39.8737C61.9581 39.8043 61.3836 39.8043 60.8157 39.8737C60.818 39.8487 60.8145 39.8236 60.8053 39.8002C60.7961 39.7768 60.7816 39.7557 60.7629 39.7386C60.7442 39.7215 60.7217 39.7088 60.6971 39.7015C60.6726 39.6942 60.6467 39.6924 60.6214 39.6964C59.6744 39.8439 58.7755 40.2043 57.9953 40.7493C57.2152 41.2942 56.5751 42.0087 56.1257 42.8366C55.8148 43.4697 55.2058 45.6856 56.5403 45.7995C57.8747 45.9135 58.9242 44.5333 59.6756 43.8116C60.7647 42.713 61.794 41.5591 62.7591 40.3548C62.7878 40.3098 62.8044 40.2586 62.8075 40.2057C62.8106 40.1528 62.8 40.0999 62.7768 40.0521C62.7536 40.0042 62.7185 39.9628 62.6747 39.9316C62.6308 39.9004 62.5797 39.8805 62.5259 39.8737Z" fill="white"/>
<path opacity="0.5" d="M218.8 112.882C217.651 112.643 216.466 112.632 215.313 112.849C214.161 113.066 213.065 113.507 212.09 114.146C211.115 114.785 210.281 115.609 209.637 116.568C208.994 117.528 208.554 118.604 208.344 119.732C208.336 119.773 208.338 119.815 208.349 119.855C208.36 119.894 208.379 119.931 208.407 119.963C208.434 119.994 208.468 120.02 208.507 120.037C208.545 120.054 208.587 120.062 208.629 120.062C208.635 120.146 208.635 120.23 208.629 120.315C208.176 122.29 205.779 123.202 204.263 124.037C203.136 124.645 201.97 125.19 200.804 125.747C196.917 127.671 190.802 130.153 189.597 135.256C189.578 135.312 189.576 135.372 189.592 135.428C189.608 135.485 189.642 135.535 189.688 135.573C192.02 137.143 194.701 134.8 196.528 133.331C200.215 130.477 204.538 128.511 209.147 127.596C214.252 126.507 223.775 126.836 225.614 119.998C226.729 115.756 221.792 113.401 218.8 112.882Z" fill="white"/>
<path d="M135.298 14.6738C134.845 14.0533 133.692 12.7238 132.914 12.6351C132.474 12.6351 132.306 11.7741 131.891 11.9007C131.476 12.0274 130.842 12.3439 130.271 11.9007C130.08 11.7267 129.877 11.5659 129.663 11.4196C129.543 11.3379 129.407 11.2831 129.264 11.259C129.121 11.2349 128.974 11.2422 128.833 11.2803C128.471 11.4196 128.328 11.9514 127.888 11.6095C127.447 11.2676 126.398 11.7868 126.138 12.2933C126.051 12.4322 125.982 12.581 125.931 12.7364C124.389 12.9517 122.835 15.2689 122.252 16.3452C121.707 17.3809 121.452 18.5392 121.513 19.7024C121.575 20.8655 121.95 21.9921 122.602 22.9675C124.014 25.3226 126.89 25.6392 129.429 25.7152C130.43 25.8285 131.444 25.7423 132.409 25.4619C133.302 25.0791 134.076 24.4718 134.651 23.7019C137.216 20.6123 137.708 17.9279 135.298 14.6738Z" fill="#48264C"/>
<path d="M135.299 14.6754C134.856 14.0662 134.334 13.517 133.744 13.042C133.798 15.1343 133.106 17.18 131.788 18.8292C130.469 20.4783 128.605 21.6284 126.514 22.0828C125.04 22.3996 123.508 22.3517 122.058 21.9435C122.213 22.3102 122.395 22.6657 122.602 23.0071C124.014 25.3623 126.89 25.6788 129.43 25.7548C130.43 25.8681 131.444 25.782 132.409 25.5015C133.303 25.1187 134.076 24.5114 134.651 23.7415C137.216 20.614 137.708 17.9296 135.299 14.6754Z" fill="#300D33"/>
<path d="M137.579 140.712C137.162 139.667 136.49 138.736 135.622 138.002C135.48 137.217 135.298 136.445 135.13 135.66C135.116 135.583 135.086 135.51 135.039 135.447C134.993 135.383 134.933 135.331 134.864 135.293C134.794 135.256 134.716 135.234 134.637 135.229C134.558 135.225 134.478 135.238 134.404 135.267C133.238 135.799 132.979 135.115 132.176 134.495C132.047 134.418 131.899 134.377 131.748 134.377C131.597 134.377 131.449 134.418 131.321 134.495C130.025 135.356 128.652 133.317 127.641 134.495C127.05 135.382 126.397 136.229 125.685 137.027C124.844 137.547 124.07 138.163 123.379 138.863C122.882 139.295 122.447 139.789 122.083 140.332C122.083 140.332 122.083 140.332 122.083 140.332C121.937 140.561 121.803 140.798 121.682 141.041C121.578 141.269 121.487 141.51 121.41 141.738C121.404 141.763 121.404 141.789 121.41 141.814C120.885 143.468 120.917 145.243 121.5 146.878C122.485 149.803 125.594 150.842 128.38 151.513C129.457 151.875 130.599 152.021 131.735 151.943C132.823 151.725 133.833 151.232 134.663 150.513C138.239 147.727 139.431 144.878 137.579 140.712Z" fill="#48264C"/>
<path d="M137.579 140.712C137.248 139.937 136.812 139.209 136.283 138.547C135.826 140.874 134.555 142.973 132.687 144.484C130.82 145.995 128.473 146.823 126.048 146.828C124.333 146.831 122.645 146.413 121.138 145.612C121.22 146.042 121.332 146.465 121.475 146.879C122.459 149.804 125.569 150.842 128.354 151.513C129.432 151.875 130.573 152.022 131.71 151.943C132.797 151.725 133.807 151.232 134.638 150.513C138.24 147.727 139.432 144.878 137.579 140.712Z" fill="#300D33"/>
<path d="M114.154 12.4711C113.753 11.6987 112.716 10.0146 111.861 9.77402C111.421 9.66006 111.421 8.86235 110.993 8.78638C110.864 7.64678 110.332 6.45654 108.972 6.69712C108.661 6.69712 107.832 7.54548 107.508 7.06432C107.349 6.78004 107.092 6.56017 106.782 6.44388C106.148 6.2033 105.591 6.74777 105.228 7.16562C104.619 7.86204 103.841 6.8364 103.051 7.16562C102.673 7.38384 102.365 7.70099 102.161 8.08132C101.957 8.46165 101.866 8.89003 101.898 9.31819C101.898 9.39416 101.898 9.44481 101.898 9.52078C100.92 10.2455 100.048 11.0976 99.3069 12.0532C98.5049 13.1077 98.0033 14.3511 97.853 15.6568C97.7028 16.9624 97.9094 18.2837 98.4518 19.4859C99.5919 22.3602 102.753 23.2845 105.565 23.7784C106.625 24.0703 107.733 24.1648 108.829 24.0569C109.898 23.7817 110.876 23.2408 111.667 22.4868C115.178 19.4353 116.214 16.5356 114.154 12.4711Z" fill="#48264C"/>
<path d="M114.155 12.4701C113.766 11.7143 113.283 11.0083 112.717 10.3682C112.393 12.7257 111.24 14.8997 109.455 16.517C107.67 18.1342 105.365 19.094 102.935 19.2317C101.229 19.318 99.528 18.9872 97.9858 18.2693C98.0887 18.7002 98.2229 19.1234 98.3875 19.5356C99.5276 22.4099 102.689 23.3342 105.5 23.828C106.585 24.111 107.715 24.1883 108.83 24.0559C109.899 23.7807 110.876 23.2398 111.667 22.4858C115.178 19.4343 116.215 16.5346 114.155 12.4701Z" fill="#300D33"/>
<path d="M164.539 22.7022C164.137 21.7272 163.036 19.5873 162.052 19.2328C161.494 19.0429 161.52 17.8906 160.95 17.9666C160.173 18.0426 159.434 18.2452 158.826 17.5234C158.633 17.2356 158.421 16.9607 158.191 16.7004C158.065 16.5524 157.906 16.4344 157.726 16.3554C157.547 16.2765 157.351 16.2385 157.154 16.2445C156.636 16.3332 156.286 17.0169 155.859 16.4091C155.25 15.5988 153.863 16.2065 153.371 16.8143C153.219 16.9776 153.084 17.1558 152.969 17.3461C150.897 17.1815 148.163 19.8786 147.087 21.1448C146.062 22.4002 145.381 23.8903 145.109 25.4745C144.837 27.0587 144.983 28.6845 145.533 30.1982C146.647 33.8069 150.314 35.1111 153.578 35.9848C154.823 36.4202 156.145 36.6054 157.465 36.5293C158.757 36.2737 159.953 35.6782 160.924 34.8073C165.278 31.3125 166.729 27.8557 164.539 22.7022Z" fill="#48264C"/>
<path d="M164.54 22.703C164.148 21.7528 163.634 20.855 163.011 20.0312C162.506 22.8304 161.014 25.3683 158.794 27.2048C156.574 29.0412 153.767 30.0602 150.859 30.085C148.843 30.0718 146.866 29.5483 145.119 28.5655C145.206 29.1012 145.331 29.6301 145.495 30.1483C146.609 33.757 150.276 35.0612 153.54 35.9349C154.785 36.3703 156.107 36.5555 157.427 36.4794C158.719 36.2237 159.915 35.6283 160.886 34.7573C165.279 31.3132 166.73 27.8565 164.54 22.703Z" fill="#300D33"/>
<path d="M162.636 129.887C162.13 128.76 160.796 126.303 159.617 125.911C158.943 125.696 158.943 124.353 158.321 124.429C157.402 124.531 156.521 124.771 155.73 123.948C155.497 123.612 155.237 123.295 154.953 122.999C154.79 122.824 154.589 122.688 154.364 122.601C154.14 122.513 153.898 122.476 153.657 122.492C153.035 122.593 152.621 123.378 152.064 122.695C151.312 121.758 149.667 122.479 149.071 123.176C148.893 123.373 148.732 123.585 148.592 123.809C146.104 123.632 142.852 126.797 141.569 128.215C140.359 129.652 139.558 131.376 139.249 133.213C138.939 135.05 139.132 136.934 139.807 138.674C141.194 142.828 145.612 144.284 149.537 145.246C151.069 145.757 152.691 145.96 154.305 145.841C155.841 145.539 157.267 144.845 158.438 143.828C163.569 139.801 165.253 135.775 162.636 129.887Z" fill="#48264C"/>
<path d="M162.637 129.887C162.157 128.786 161.529 127.751 160.771 126.811C160.12 130.103 158.32 133.073 155.679 135.214C153.037 137.355 149.718 138.533 146.286 138.548C143.87 138.552 141.492 137.964 139.368 136.839C139.471 137.463 139.627 138.077 139.834 138.675C141.22 142.828 145.638 144.284 149.564 145.247C151.096 145.758 152.718 145.96 154.332 145.842C155.867 145.54 157.294 144.845 158.465 143.828C163.569 139.802 165.254 135.775 162.637 129.887Z" fill="#300D33"/>
<path d="M104.05 120.771C104.05 120.771 107.509 119.505 109.518 123.974C111.526 128.444 112.251 132.838 114.259 134.927C114.811 135.396 115.246 135.982 115.532 136.641C115.817 137.299 115.944 138.012 115.905 138.726C115.905 138.726 110.243 135.7 108.792 134.092C106.639 131.907 104.796 129.45 103.312 126.785C101.679 123.569 100.526 120.556 100.526 120.556L104.05 120.771Z" fill="#5F825C"/>
<path d="M102.69 119.985C102.69 119.985 103.558 116.477 98.8028 115.046C94.0479 113.616 89.4745 113.4 87.1424 111.691C86.5965 111.204 85.9432 110.847 85.2331 110.647C84.5231 110.447 83.7755 110.41 83.0483 110.539C83.0483 110.539 86.7667 115.692 88.5676 116.87C91.0391 118.702 93.7491 120.205 96.6262 121.34C100.072 122.606 103.273 123.34 103.273 123.34L102.69 119.985Z" fill="#5F825C"/>
<path d="M102.016 121.697C102.016 121.697 108.404 126.154 108.222 132.219C108.041 138.284 108.041 141.311 104.335 144.692C100.63 148.072 93.582 148.262 89.9284 149.858C86.2748 151.453 81.9087 152.897 80.8592 153.783C79.8098 154.669 77.5814 155.568 74.3035 153.783C71.0257 151.998 69.1211 152.188 69.743 147.186C70.6728 140.749 72.2614 134.42 74.4849 128.294C76.2987 123.66 77.9053 120.089 83.0358 118.671C87.9541 117.435 93.1512 117.809 97.8315 119.734C101.058 121.343 102.016 121.697 102.016 121.697Z" fill="#ED6366"/>
<path d="M70.506 142.361C73.4055 143.426 76.4778 143.971 79.5752 143.969C92.272 143.969 102.559 135.245 102.559 124.495C102.562 123.609 102.493 122.724 102.352 121.849C103.725 122.925 108.324 126.913 108.169 132.08C107.987 138.132 107.987 141.171 104.282 144.552C100.577 147.933 93.5287 148.123 89.8751 149.718C86.2216 151.314 81.8554 152.757 80.806 153.643C79.7565 154.53 77.5281 155.429 74.2503 153.643C70.9724 151.858 69.0679 152.035 69.6898 147.046C69.8841 145.73 70.1562 144.121 70.506 142.361Z" fill="#C73A54"/>
<path d="M104.852 134.99C105.72 135.104 105.927 133.648 105.992 132.584C106.058 132.318 106.058 132.04 105.992 131.774V131.685C105.992 131.584 105.849 131.559 105.836 131.685C105.807 131.688 105.779 131.697 105.754 131.712C105.729 131.728 105.708 131.749 105.694 131.774C105.538 132.116 103.647 134.838 104.852 134.99Z" fill="#E7D8C8"/>
<path d="M103.038 129.495C103.05 129.511 103.066 129.524 103.084 129.533C103.102 129.541 103.122 129.546 103.142 129.546C103.162 129.546 103.182 129.541 103.2 129.533C103.218 129.524 103.233 129.511 103.245 129.495C103.5 129.293 103.706 129.038 103.849 128.749C103.992 128.46 104.069 128.145 104.075 127.824C104.144 127.65 104.184 127.466 104.191 127.279C104.194 127.253 104.189 127.226 104.178 127.202C104.166 127.177 104.148 127.157 104.126 127.141C104.104 127.126 104.078 127.116 104.05 127.114C104.023 127.111 103.996 127.116 103.971 127.127C103.971 127.127 103.816 127.127 103.829 127.127C103.457 127.39 103.181 127.76 103.039 128.186C102.897 128.611 102.897 129.07 103.038 129.495Z" fill="#E7D8C8"/>
<path d="M99.2945 126.619C100.046 127.201 100.396 125.872 100.59 124.998C100.701 124.734 100.779 124.457 100.823 124.175C100.826 124.143 100.819 124.111 100.802 124.083C100.785 124.055 100.76 124.034 100.73 124.021C100.7 124.008 100.666 124.005 100.634 124.013C100.602 124.02 100.573 124.037 100.551 124.061C100.188 124.479 98.5561 126.087 99.2945 126.619Z" fill="#E7D8C8"/>
<path d="M98.8151 132.268C98.826 132.281 98.8398 132.292 98.8555 132.299C98.8712 132.307 98.8884 132.31 98.9058 132.31C98.9232 132.31 98.9403 132.307 98.956 132.299C98.9717 132.292 98.9855 132.281 98.9965 132.268C99.2439 132.033 99.4614 131.769 99.6443 131.483C100.095 130.989 100.376 130.369 100.447 129.71C100.447 129.609 100.344 129.482 100.227 129.533L99.9941 129.685C99.1649 130.28 98.1803 131.432 98.8151 132.268Z" fill="#E7D8C8"/>
<path d="M100.11 137.93C100.589 138.221 100.874 137.55 101.03 136.853C101.242 136.498 101.366 136.099 101.392 135.689C101.395 135.662 101.39 135.635 101.379 135.611C101.367 135.587 101.35 135.566 101.327 135.55C101.305 135.535 101.279 135.525 101.252 135.523C101.224 135.521 101.197 135.525 101.172 135.537C101.172 135.537 101.017 135.537 101.017 135.537C101.017 135.537 101.017 135.537 101.017 135.625C100.676 135.967 100.407 136.372 100.226 136.815C100.097 137.107 99.7599 137.74 100.11 137.93Z" fill="#E7D8C8"/>
<path d="M102.559 141.068C103.077 141.397 103.621 140.928 103.855 140.472C103.983 140.162 104.078 139.839 104.14 139.51C104.294 139.255 104.387 138.97 104.412 138.674V138.674C104.443 138.642 104.46 138.599 104.46 138.554C104.46 138.51 104.443 138.467 104.412 138.434V138.345C104.412 138.244 104.243 138.143 104.14 138.231C103.712 138.535 101.769 140.548 102.559 141.068Z" fill="#E7D8C8"/>
<path d="M97.533 142.814C97.9735 143.409 98.4011 142.814 98.6991 142.232C98.8817 142.073 99.0272 141.878 99.1256 141.659C99.224 141.441 99.2729 141.204 99.2691 140.965C99.2686 140.943 99.2626 140.921 99.2515 140.901C99.2405 140.882 99.2248 140.865 99.2057 140.852C99.1866 140.84 99.1648 140.832 99.142 140.83C99.1192 140.827 99.0961 140.831 99.0748 140.839C98.4658 141.067 96.9888 142.08 97.533 142.814Z" fill="#E7D8C8"/>
<path d="M95.095 135.484C95.4706 135.04 95.9065 134.648 96.3906 134.319C96.417 134.299 96.4491 134.286 96.4828 134.284C96.5165 134.281 96.5502 134.289 96.5795 134.305C96.6089 134.321 96.6325 134.346 96.6473 134.376C96.6622 134.405 96.6675 134.439 96.6627 134.471C96.6491 134.66 96.6008 134.844 96.5202 135.016V135.206C96.4544 135.735 96.2289 136.233 95.8724 136.637C95.6003 136.94 94.9655 137.092 94.7063 136.637C94.4472 136.181 94.8618 135.7 95.095 135.484Z" fill="#E7D8C8"/>
<path d="M94.371 131.016C94.4746 131.408 94.9928 131.37 95.252 131.168C95.4252 131.015 95.5661 130.83 95.6665 130.623C95.9073 130.335 96.052 129.982 96.0811 129.61C96.0823 129.582 96.0766 129.554 96.0645 129.529C96.0523 129.503 96.0341 129.48 96.0113 129.463C95.9884 129.446 95.9617 129.434 95.9333 129.429C95.9049 129.424 95.8756 129.425 95.8479 129.433C95.4793 129.575 95.1506 129.801 94.8892 130.092C94.656 130.307 94.2673 130.661 94.371 131.016Z" fill="#E7D8C8"/>
<path d="M96.5993 121.558C96.6423 121.545 96.6887 121.548 96.7294 121.567C96.7701 121.585 96.8022 121.618 96.8196 121.659C96.9171 122.036 96.9005 122.434 96.7717 122.802C96.6429 123.171 96.4075 123.495 96.094 123.735C96.0697 123.753 96.0415 123.765 96.0116 123.77C95.9818 123.775 95.9512 123.773 95.9223 123.764C95.8934 123.755 95.8669 123.74 95.845 123.72C95.823 123.7 95.8063 123.675 95.796 123.647C95.7565 123.558 95.7303 123.464 95.7183 123.368C95.5999 123.014 95.6252 122.628 95.7892 122.291C95.9531 121.954 96.2431 121.692 96.5993 121.558Z" fill="#E7D8C8"/>
<path d="M92.1289 128.52C92.5176 128.837 92.8415 128.52 93.0747 128.014C93.3708 127.725 93.5886 127.369 93.7085 126.978C93.8284 126.587 93.8466 126.172 93.7613 125.772C93.7437 125.737 93.716 125.707 93.6815 125.687C93.647 125.667 93.6072 125.657 93.567 125.658C92.984 125.734 92.4917 126.532 92.2714 126.925C92.0512 127.317 91.6366 128.14 92.1289 128.52Z" fill="#E7D8C8"/>
<path d="M91.9869 121.25C92.0622 121.159 92.1445 121.074 92.2331 120.996C92.2622 120.976 92.2961 120.964 92.3315 120.961C92.3668 120.958 92.4025 120.963 92.435 120.977C92.4675 120.991 92.4958 121.013 92.5172 121.041C92.5385 121.069 92.5522 121.101 92.557 121.136C92.5935 121.428 92.5611 121.725 92.4623 122.004C92.3635 122.283 92.2009 122.536 91.9869 122.744C91.9892 122.777 91.9892 122.811 91.9869 122.845C91.9474 122.923 91.8882 122.989 91.8149 123.038C91.7416 123.087 91.6566 123.117 91.5682 123.124C91.4798 123.132 91.3908 123.117 91.3098 123.082C91.2289 123.046 91.1587 122.991 91.1059 122.921C90.5488 122.364 91.3391 121.553 91.9869 121.25Z" fill="#E7D8C8"/>
<path d="M87.5817 125.886C87.8405 125.361 88.2502 124.921 88.7606 124.62C88.7901 124.599 88.8253 124.587 88.8618 124.586C88.8983 124.585 88.9343 124.595 88.965 124.614C88.9958 124.633 89.02 124.661 89.0344 124.693C89.0487 124.726 89.0527 124.762 89.0456 124.797C89.0297 125.033 88.9727 125.264 88.8772 125.481C88.8772 125.557 88.8772 125.633 88.8772 125.696C88.8492 125.977 88.7884 126.253 88.6958 126.519C88.6126 126.777 88.432 126.995 88.1906 127.127C88.1727 127.159 88.1464 127.185 88.1145 127.204C88.0826 127.222 88.0462 127.232 88.0092 127.232C87.9722 127.232 87.9358 127.222 87.9039 127.204C87.872 127.185 87.8458 127.159 87.8278 127.127V127.127C87.3226 126.861 87.478 126.203 87.5817 125.886Z" fill="#E7D8C8"/>
<path d="M86.661 122.823C86.6821 122.836 86.7069 122.844 86.7322 122.844C86.7575 122.844 86.7823 122.836 86.8035 122.823C86.9763 122.662 87.1365 122.488 87.2829 122.304C87.6099 122.036 87.8862 121.715 88.0991 121.354C88.1877 121.196 88.2239 121.014 88.2027 120.835V120.746C88.2027 120.658 88.2027 120.594 88.0732 120.632C88.025 120.575 87.9632 120.53 87.8932 120.501C87.8232 120.473 87.7471 120.461 87.6715 120.468C86.8035 120.48 85.8965 122.202 86.661 122.823Z" fill="#E7D8C8"/>
<path d="M81.428 124.406C81.6871 124.887 82.2961 124.406 82.5163 124.14C82.8693 123.742 83.1143 123.263 83.2289 122.748C83.3195 122.575 83.3682 122.384 83.3714 122.19C83.3754 122.162 83.3729 122.134 83.364 122.107C83.3552 122.08 83.3403 122.055 83.3204 122.034C83.3006 122.014 83.2762 121.998 83.2492 121.987C83.2221 121.977 83.1931 121.973 83.1641 121.975C82.8615 122.017 82.5742 122.131 82.3278 122.308C82.0814 122.485 81.8836 122.719 81.7519 122.988C81.5317 123.355 81.1948 123.976 81.428 124.406Z" fill="#E7D8C8"/>
<path d="M82.7103 129.496C82.8658 129.888 83.2804 129.698 83.4358 129.496C83.5913 129.293 83.5784 129.23 83.6431 129.103C83.8995 128.829 84.0814 128.497 84.1719 128.136C84.2625 127.775 84.2589 127.398 84.1614 127.039C84.1524 127.015 84.1378 126.993 84.1187 126.976C84.0996 126.958 84.0766 126.945 84.0514 126.938C84.0262 126.93 83.9996 126.929 83.9737 126.933C83.9478 126.938 83.9233 126.948 83.9023 126.963C83.5392 127.285 83.2557 127.684 83.0731 128.128C82.9176 128.457 82.5289 129.04 82.7103 129.496Z" fill="#E7D8C8"/>
<path d="M87.9832 131.686C88.1218 131.05 88.4839 130.481 89.0068 130.078C89.0297 130.054 89.0589 130.037 89.0913 130.028C89.1237 130.019 89.1579 130.019 89.1902 130.029C89.2224 130.038 89.2514 130.056 89.2739 130.08C89.2964 130.104 89.3116 130.134 89.3177 130.166C89.3395 130.402 89.3085 130.64 89.227 130.863C89.1947 131.143 89.0846 131.409 88.9088 131.632C88.7329 131.855 88.498 132.027 88.2294 132.129H88.0998C88.0682 132.133 88.036 132.13 88.0058 132.12C87.9755 132.11 87.948 132.094 87.9255 132.072C87.9029 132.05 87.8858 132.023 87.8756 131.993C87.8654 131.964 87.8623 131.932 87.8666 131.901L87.9832 131.686Z" fill="#E7D8C8"/>
<path d="M91.7669 133.179C91.7939 133.162 91.8248 133.152 91.8569 133.149C91.889 133.146 91.9213 133.152 91.9509 133.164C91.9804 133.177 92.0063 133.196 92.0262 133.221C92.0461 133.246 92.0594 133.275 92.0649 133.306V133.306C92.0649 133.306 92.0649 133.306 92.0649 133.395C92.0649 134.104 91.5596 135.243 90.7693 135.307C90.7478 135.31 90.7259 135.309 90.7048 135.304C90.6838 135.299 90.664 135.29 90.6469 135.276C90.6298 135.263 90.6158 135.247 90.6056 135.228C90.5954 135.209 90.5894 135.189 90.5879 135.167C90.6101 134.769 90.7285 134.381 90.9334 134.035C91.1383 133.69 91.4239 133.397 91.7669 133.179Z" fill="#E7D8C8"/>
<path d="M87.3227 135.482C87.485 135.324 87.6679 135.188 87.8668 135.077C87.9705 135.077 88.1519 135.077 88.1519 135.191C88.126 135.698 87.9145 136.179 87.5559 136.546C87.4075 136.78 87.1909 136.965 86.934 137.078C86.8996 137.09 86.8615 137.089 86.8277 137.075C86.7939 137.061 86.767 137.035 86.7526 137.002C86.7526 137.002 86.7526 136.913 86.7526 136.862C86.7453 136.829 86.7453 136.794 86.7526 136.761C86.7091 136.517 86.7399 136.265 86.8412 136.038C86.9426 135.811 87.11 135.617 87.3227 135.482V135.482Z" fill="#E7D8C8"/>
<path d="M83.9154 131.926C83.9683 131.923 84.0207 131.939 84.0617 131.972C84.1026 132.005 84.1291 132.052 84.1356 132.104C84.155 132.212 84.155 132.324 84.1356 132.433C84.1601 132.617 84.1426 132.805 84.0844 132.982C84.0261 133.16 83.9286 133.322 83.7988 133.458C83.626 133.767 83.3587 134.015 83.0343 134.167C82.9566 134.167 82.8659 134.167 82.8271 134.079C82.542 133.42 82.9825 131.914 83.9154 131.926Z" fill="#E7D8C8"/>
<path d="M78.0725 131.129C78.0811 131.156 78.0952 131.18 78.1138 131.201C78.1324 131.221 78.1551 131.238 78.1806 131.25C78.2061 131.262 78.2337 131.269 78.2619 131.27C78.2901 131.271 78.3182 131.266 78.3445 131.256C78.746 131.073 79.0707 130.76 79.2642 130.37C79.4576 129.981 79.508 129.538 79.4069 129.116C79.3947 129.09 79.3769 129.066 79.3548 129.047C79.3326 129.028 79.3066 129.014 79.2784 129.006C79.2502 128.997 79.2205 128.995 79.1913 128.999C79.162 129.002 79.1339 129.012 79.1089 129.027C78.8159 129.229 78.5689 129.488 78.3834 129.787C78.2281 129.972 78.1191 130.189 78.0651 130.422C78.0111 130.655 78.0136 130.897 78.0725 131.129V131.129Z" fill="#E7D8C8"/>
<path d="M78.6431 136.017C78.6412 135.756 78.7127 135.5 78.8499 135.277C78.987 135.053 79.1844 134.871 79.4204 134.75C79.4493 134.738 79.4808 134.733 79.5122 134.735C79.5436 134.737 79.5739 134.747 79.6007 134.763C79.6275 134.779 79.6498 134.801 79.6658 134.828C79.6818 134.854 79.691 134.884 79.6925 134.915C79.7278 135.167 79.7017 135.423 79.6161 135.663C79.5305 135.903 79.388 136.119 79.2002 136.295C79.1443 136.371 79.0739 136.435 78.9929 136.485C78.9684 136.498 78.9414 136.506 78.9136 136.509C78.8858 136.511 78.8577 136.508 78.8311 136.5C78.8044 136.492 78.7798 136.478 78.7586 136.461C78.7375 136.443 78.7202 136.421 78.7079 136.396V136.396C78.7018 136.382 78.6987 136.367 78.6987 136.352C78.6987 136.337 78.7018 136.322 78.7079 136.308C78.6727 136.214 78.6509 136.116 78.6431 136.017Z" fill="#E7D8C8"/>
<path d="M90.511 137.853C90.5342 137.851 90.5575 137.854 90.5794 137.862C90.6014 137.869 90.6215 137.881 90.6386 137.897C90.6556 137.912 90.6692 137.931 90.6784 137.952C90.6877 137.972 90.6924 137.995 90.6924 138.018C90.6909 138.355 90.5915 138.685 90.4058 138.97C90.2201 139.255 89.9556 139.482 89.643 139.626C89.6008 139.638 89.5556 139.638 89.5134 139.626H89.332C89.3113 139.629 89.2899 139.629 89.2695 139.623C89.2491 139.618 89.2302 139.608 89.214 139.595C89.1979 139.582 89.185 139.565 89.1763 139.546C89.1676 139.528 89.1632 139.507 89.1636 139.486C89.2348 139.127 89.3948 138.791 89.6296 138.506C89.8645 138.221 90.1671 137.997 90.511 137.853Z" fill="#E7D8C8"/>
<path d="M91.8842 141.384C91.8802 141.418 91.885 141.452 91.8982 141.483C91.9114 141.515 91.9325 141.543 91.9597 141.564C91.9868 141.586 92.0191 141.6 92.0534 141.606C92.0878 141.612 92.1232 141.61 92.1563 141.599H92.247C92.2661 141.611 92.2887 141.618 92.3117 141.618C92.3348 141.618 92.3573 141.611 92.3765 141.599L92.4672 141.51C92.7188 141.338 92.9322 141.118 93.0948 140.864C93.2573 140.609 93.3655 140.325 93.413 140.029C93.4178 140 93.4145 139.97 93.4035 139.942C93.3924 139.915 93.374 139.891 93.3501 139.873C93.3263 139.854 93.2979 139.843 93.2679 139.839C93.238 139.835 93.2075 139.84 93.1798 139.851C92.7654 140.04 92.4213 140.35 92.1951 140.738C92.0478 140.93 91.942 141.15 91.8842 141.384V141.384Z" fill="#E7D8C8"/>
<path d="M91.118 145.843C91.2823 145.505 91.5212 145.207 91.8176 144.97C91.9435 144.835 92.0823 144.712 92.2322 144.603C92.2743 144.589 92.3197 144.589 92.3618 144.603C92.3881 144.582 92.4203 144.57 92.454 144.567C92.4876 144.564 92.5214 144.572 92.5507 144.588C92.5801 144.604 92.6037 144.629 92.6185 144.659C92.6333 144.688 92.6387 144.722 92.6338 144.755C92.5838 145.054 92.4457 145.334 92.2365 145.559C92.0272 145.783 91.7557 145.944 91.4548 146.021H91.3512C91.324 146.039 91.2918 146.048 91.259 146.047C91.2263 146.045 91.1948 146.034 91.1689 146.015C91.1431 145.995 91.1242 145.968 91.1151 145.937C91.1059 145.906 91.1069 145.874 91.118 145.843Z" fill="#E7D8C8"/>
<path d="M86.9208 143.663C86.9324 143.48 86.9847 143.301 87.0742 143.139C87.1637 142.977 87.2882 142.836 87.4391 142.726C87.6393 142.525 87.8891 142.377 88.1646 142.296C88.2812 142.296 88.4367 142.296 88.4367 142.448C88.4164 142.808 88.2801 143.152 88.0474 143.432C87.8147 143.712 87.4975 143.912 87.1411 144.005C87.1138 144.009 87.0861 144.007 87.0596 144C87.033 143.993 87.0082 143.981 86.9865 143.964C86.9648 143.948 86.9467 143.927 86.9332 143.904C86.9197 143.881 86.9111 143.855 86.9079 143.828C86.8952 143.818 86.8852 143.805 86.8788 143.79C86.8723 143.775 86.8696 143.759 86.8709 143.743C86.8722 143.726 86.8774 143.711 86.8861 143.697C86.8947 143.683 86.9067 143.672 86.9208 143.663V143.663Z" fill="#E7D8C8"/>
<path d="M83.9284 138.473H84.032C84.0737 138.457 84.1187 138.451 84.1633 138.455C84.208 138.46 84.2509 138.474 84.2888 138.497C84.3267 138.521 84.3583 138.553 84.3813 138.59C84.4042 138.628 84.4177 138.67 84.4207 138.714C84.343 139.36 83.7859 140.195 83.1251 140.233C83.0215 140.233 82.879 140.157 82.8919 140.044C82.8868 139.711 82.9825 139.385 83.1669 139.105C83.3514 138.826 83.6163 138.606 83.9284 138.473V138.473Z" fill="#E7D8C8"/>
<path d="M81.8297 144.348C82.0924 143.972 82.4681 143.684 82.9051 143.525C82.9388 143.512 82.9757 143.507 83.012 143.512C83.0483 143.516 83.0826 143.53 83.1116 143.552C83.1405 143.574 83.163 143.603 83.1768 143.636C83.1906 143.669 83.1952 143.705 83.1901 143.741C82.9501 144.478 82.4311 145.099 81.739 145.475C81.7098 145.498 81.6747 145.513 81.6375 145.518C81.6003 145.524 81.5624 145.519 81.5278 145.504C81.4932 145.49 81.4633 145.467 81.4411 145.437C81.419 145.408 81.4055 145.373 81.4022 145.336C81.3894 145.15 81.4214 144.964 81.4957 144.792C81.5699 144.621 81.6843 144.469 81.8297 144.348V144.348Z" fill="#E7D8C8"/>
<path d="M78.409 140.296C78.4185 140.04 78.492 139.792 78.6231 139.571C78.7541 139.35 78.9386 139.164 79.1605 139.029C79.2641 139.029 79.4585 139.029 79.4973 139.118C79.5448 139.453 79.4932 139.794 79.3486 140.102C79.204 140.409 78.9724 140.67 78.6811 140.853C78.6443 140.881 78.5993 140.899 78.5523 140.902C78.5052 140.905 78.4582 140.895 78.4175 140.871C78.3768 140.848 78.3443 140.813 78.3243 140.771C78.3043 140.73 78.2977 140.683 78.3054 140.637C78.3327 140.522 78.3673 140.407 78.409 140.296V140.296Z" fill="#E7D8C8"/>
<path d="M75.1439 136.359C75.1859 136.209 75.2768 136.075 75.403 135.979L75.4807 135.891C75.5714 135.777 75.8176 135.815 75.8176 135.979C75.8087 136.256 75.7187 136.524 75.5585 136.752C75.5496 136.918 75.5047 137.081 75.4265 137.23C75.3483 137.378 75.2387 137.509 75.105 137.613C75.0804 137.628 75.0522 137.637 75.023 137.639C74.9938 137.64 74.9647 137.634 74.9385 137.622C74.9124 137.609 74.8901 137.59 74.8739 137.566C74.8576 137.542 74.848 137.515 74.8459 137.486C74.8126 137.088 74.9176 136.691 75.1439 136.359V136.359Z" fill="#E7D8C8"/>
<path d="M78.3697 125.419L78.5381 125.204C78.6288 125.115 78.8361 125.204 78.8361 125.292C78.8604 125.545 78.8252 125.799 78.7331 126.036C78.641 126.273 78.4945 126.487 78.3049 126.66V126.66V126.736C78.2851 126.754 78.2605 126.768 78.2338 126.774C78.207 126.78 78.1791 126.779 78.1527 126.772C78.1264 126.764 78.1026 126.749 78.0838 126.73C78.065 126.71 78.0519 126.686 78.0458 126.66C78.033 126.58 78.033 126.499 78.0458 126.419C77.9933 126.24 77.996 126.049 78.0536 125.871C78.1112 125.694 78.2211 125.536 78.3697 125.419V125.419Z" fill="#E7D8C8"/>
<path d="M76.8152 146.286C76.8286 146.31 76.8483 146.33 76.8723 146.344C76.8962 146.357 76.9235 146.365 76.9512 146.365C76.979 146.365 77.0063 146.357 77.0302 146.344C77.0541 146.33 77.0738 146.31 77.0873 146.286L77.1909 146.172C77.4533 145.972 77.6689 145.72 77.8231 145.431C77.9773 145.143 78.0665 144.826 78.0849 144.501C78.0881 144.466 78.0812 144.43 78.0649 144.398C78.0485 144.367 78.0234 144.34 77.9924 144.322C77.9613 144.303 77.9256 144.294 77.8893 144.294C77.853 144.294 77.8175 144.305 77.7869 144.324C77.2298 144.716 76.569 145.615 76.8152 146.286Z" fill="#E7D8C8"/>
<path d="M73.7187 143.627C73.7504 143.461 73.8369 143.31 73.9648 143.196C74.0147 143.113 74.0757 143.036 74.1462 142.968C74.1654 142.942 74.1907 142.921 74.22 142.906C74.2493 142.891 74.2817 142.884 74.3146 142.884C74.3476 142.884 74.38 142.891 74.4093 142.906C74.4386 142.921 74.4639 142.942 74.4831 142.968C74.586 143.246 74.586 143.551 74.4831 143.829C74.4145 144.115 74.2613 144.375 74.0426 144.576C74.0215 144.592 73.997 144.602 73.9711 144.607C73.9452 144.611 73.9186 144.609 73.8935 144.602C73.8683 144.595 73.8452 144.582 73.8261 144.564C73.807 144.546 73.7924 144.525 73.7835 144.5C73.7082 144.368 73.6634 144.221 73.6522 144.071C73.641 143.92 73.6637 143.768 73.7187 143.627V143.627Z" fill="#E7D8C8"/>
<path d="M74.2504 147.944C74.2784 147.923 74.3115 147.91 74.3464 147.906C74.3813 147.903 74.4165 147.908 74.4484 147.923C74.4802 147.937 74.5076 147.959 74.5274 147.987C74.5473 148.016 74.559 148.049 74.5613 148.083C74.5942 148.388 74.5591 148.697 74.4584 148.987C74.3578 149.278 74.194 149.544 73.9783 149.767C73.9783 149.767 73.9783 149.767 73.9783 149.767C73.9783 149.767 73.9783 149.843 73.9783 149.868C73.9655 149.898 73.9439 149.924 73.9163 149.942C73.8886 149.96 73.8561 149.969 73.8228 149.969C73.7896 149.969 73.7571 149.96 73.7294 149.942C73.7017 149.924 73.6802 149.898 73.6674 149.868C73.5811 149.526 73.5896 149.167 73.6921 148.829C73.7945 148.49 73.9872 148.185 74.2504 147.944V147.944Z" fill="#E7D8C8"/>
<path d="M79.031 149.806C79.0745 149.794 79.1208 149.796 79.1629 149.812C79.2049 149.828 79.2405 149.857 79.2642 149.894C79.2782 149.915 79.2856 149.939 79.2856 149.964C79.2856 149.989 79.2782 150.013 79.2642 150.033C79.2685 150.063 79.2685 150.093 79.2642 150.122C79.2627 150.369 79.2022 150.612 79.0875 150.832C78.9727 151.052 78.807 151.242 78.6035 151.388C78.58 151.406 78.5526 151.418 78.5234 151.424C78.4943 151.43 78.4642 151.429 78.4354 151.422C78.4066 151.415 78.3799 151.401 78.3574 151.382C78.3349 151.363 78.3171 151.339 78.3055 151.312C78.2994 151.287 78.2994 151.261 78.3055 151.236V151.236C78.2816 151.239 78.2576 151.236 78.2352 151.227C78.2128 151.219 78.1926 151.206 78.1763 151.189C78.16 151.171 78.148 151.151 78.1412 151.128C78.1344 151.106 78.133 151.082 78.1371 151.059C78.1702 150.795 78.269 150.542 78.4248 150.324C78.5806 150.105 78.7887 149.927 79.031 149.806V149.806Z" fill="#E7D8C8"/>
<path d="M85.1979 146.754C85.2248 146.736 85.2558 146.726 85.2879 146.723C85.32 146.721 85.3523 146.726 85.3818 146.738C85.4114 146.751 85.4373 146.771 85.4572 146.795C85.4771 146.82 85.4904 146.849 85.4959 146.88C85.5087 147.265 85.4064 147.644 85.2016 147.973C84.9967 148.301 84.6983 148.564 84.3428 148.729C84.2802 148.752 84.211 148.752 84.1484 148.729L83.9929 148.83C83.9698 148.838 83.9451 148.841 83.9208 148.838C83.8964 148.835 83.8732 148.826 83.853 148.812C83.8328 148.799 83.8161 148.781 83.8044 148.76C83.7927 148.739 83.7863 148.715 83.7856 148.691C83.8407 148.28 83.9983 147.888 84.2445 147.55C84.4908 147.212 84.8182 146.939 85.1979 146.754V146.754Z" fill="#E7D8C8"/>
<path d="M95.7179 145.879C95.7448 145.82 95.7796 145.765 95.8216 145.714C95.8008 145.623 95.8008 145.528 95.8216 145.436C95.9676 145.16 96.2052 144.942 96.4953 144.815C96.599 144.815 96.7415 144.815 96.7804 144.891C96.8319 145.069 96.8319 145.258 96.7804 145.436V145.436C96.7394 145.642 96.6207 145.825 96.4479 145.949C96.2751 146.074 96.0608 146.13 95.8475 146.107C95.8019 146.09 95.7639 146.058 95.7402 146.016C95.7165 145.974 95.7086 145.926 95.7179 145.879V145.879Z" fill="#E7D8C8"/>
</g>
<defs>
<clipPath id="clip0_1337_3617">
<rect width="249" height="171.724" fill="white"/>
</clipPath>
</defs>
</svg>
