<svg width="188" height="141" viewBox="0 0 188 141" fill="none" xmlns="http://www.w3.org/2000/svg">
    <path d="M4.73535 44.946C5.51795 57.7921 37.6045 69.0904 91.9167 69.0904C148.107 69.0904 178.629 60.578 179.098 44.946C179.568 29.3141 149.203 18.0157 93.1689 18.1705C46.213 18.3253 6.77011 21.5755 4.73535 44.946Z" fill="#F7D3B0"/>
    <path d="M8.49219 44.7919C9.27479 56.245 39.9526 66.3052 91.9171 66.3052C145.603 66.3052 174.872 58.7214 175.342 44.7919C175.812 30.8624 146.699 20.6475 93.1693 20.957C48.0916 21.1118 10.3704 24.0525 8.49219 44.7919Z" fill="#E2BFA3"/>
    <path d="M8.49219 44.7928C9.11827 53.9243 28.8397 62.282 63.5871 65.2227C61.7088 63.9845 59.9871 62.5916 58.1089 61.1986C47.4656 52.6862 38.857 41.5426 33.3788 29.0061C32.9092 27.9227 32.4397 26.8393 31.9701 25.7559C18.1964 29.1608 9.4313 35.0422 8.49219 44.7928Z" fill="#CEAD97"/>
    <path d="M47.4646 58.1008C46.8385 57.4817 46.0559 56.8626 45.5863 55.934C45.1168 55.0054 44.9602 54.0768 44.8037 53.1481C44.1776 50.517 42.1429 48.3502 39.4821 47.4216C38.856 47.112 38.0734 46.9573 37.6038 46.4929C37.1343 45.8739 37.1343 45.2548 37.1343 44.4809C36.8212 41.695 34.7865 39.3734 32.1256 38.4448C31.343 38.1353 30.4039 37.9805 29.7778 37.5162C28.2126 36.4328 28.5257 34.1112 27.5866 32.4087C27.117 31.4801 26.1779 30.861 25.3953 30.0871C23.9866 29.0037 22.5779 27.7656 21.1693 26.6821C19.7606 25.444 18.1954 24.3606 16.3172 24.051C15.378 23.8963 14.2824 24.051 13.4998 23.4319C12.7172 22.9676 12.5607 22.039 12.0911 21.2651C10.3694 17.8602 5.20428 16.9315 2.2304 19.4079C-0.743468 21.8842 -0.743468 26.9917 2.2304 29.468C0.195649 31.1705 0.0391299 34.4207 1.13477 36.7423C2.2304 39.0639 4.42168 40.9212 6.61295 42.4689C7.08251 42.9332 7.70859 43.2427 8.02163 43.8618C8.49119 44.7904 8.33467 45.7191 8.33467 46.6477C8.33467 50.9813 11.6216 55.1602 16.0041 56.0888L49.4993 68.9349C51.0645 65.3751 50.1254 60.8867 47.4646 58.1008Z" fill="#6FB56B"/>
    <path d="M39.6386 33.8013C37.7604 31.4797 36.0387 29.1582 34.943 26.527C33.8474 23.8959 33.5344 20.6457 34.63 18.0146C34.943 17.3955 35.4126 16.6216 35.4126 16.0026C35.5691 15.0739 35.2561 14.3001 35.0996 13.3714C34.4735 10.276 35.7256 7.02579 38.0734 5.01375C40.4212 3.00172 43.8647 2.38263 46.8385 3.46604C48.7168 1.91832 51.5341 1.60877 53.7254 2.69218C55.9167 3.77558 57.3253 6.25193 57.1688 8.57351C59.5166 7.95442 61.8644 9.50214 63.1166 11.5142C64.3687 13.5262 64.5252 16.0026 64.6818 18.3241C68.1252 18.1694 71.5686 19.7171 73.7599 22.3482C75.7946 24.9793 76.5772 28.8486 75.4816 32.0988C78.7685 34.7299 81.8989 37.8254 82.6815 42.0042C83.4641 46.0283 80.8033 50.981 76.5772 51.1358C78.925 51.2905 80.0207 54.386 78.925 56.5528C77.9859 58.5648 75.6381 59.803 73.6034 60.7316C69.2208 62.5889 64.6818 63.827 59.9862 64.4461C57.1688 64.7557 54.3515 64.9104 51.6906 63.9818C45.8994 61.815 43.2386 55.6241 41.2038 50.3619C39.1691 45.7187 33.3778 37.6706 39.6386 33.8013Z" fill="#81CC7A"/>
    <path d="M121.342 21.2654C122.907 18.9438 126.037 17.8604 128.698 18.6343C129.011 15.2293 131.829 12.2886 135.115 11.8243C138.402 11.36 142.002 13.372 143.411 16.4675C145.602 14.765 149.046 16.777 149.672 19.4081C150.298 22.0392 148.889 24.8251 147.167 26.9919C149.359 27.611 150.454 30.3969 150.141 32.5637C149.828 34.7305 148.42 36.7426 147.011 38.7546C149.985 40.9214 150.454 45.4098 148.733 48.5052C147.011 51.6007 143.254 53.4579 139.655 53.6127C135.898 53.7675 132.768 52.2197 129.324 50.672C117.585 64.911 102.09 31.6351 121.498 29.1587C120.09 26.6824 119.777 23.587 121.342 21.2654Z" fill="#6FB56B"/>
    <path d="M137.62 35.0388C139.185 32.4077 141.063 30.0861 143.411 28.2289C145.133 26.8359 147.167 25.9073 149.202 24.9787C154.68 22.3475 161.411 19.5617 166.576 22.6571C167.515 23.2762 168.454 23.8953 169.393 24.5144C171.584 25.5978 174.245 25.2882 176.75 25.2882C179.254 25.2882 181.915 25.5978 183.949 26.9907C186.141 28.3836 187.549 30.7052 187.393 33.1816C187.236 34.4197 186.61 35.6579 186.61 37.0509C186.61 38.1343 187.08 39.2177 187.236 40.4558C187.706 43.2417 185.828 46.4919 182.854 46.9563C181.915 47.111 180.819 46.9563 179.723 47.111C175.184 47.7301 173.306 53.4567 169.237 55.1592C167.984 55.6235 166.732 55.7783 165.48 56.0878C164.228 56.5521 162.976 57.1712 161.724 57.7903C153.898 61.35 143.724 59.4928 137.776 53.3019C132.455 47.5754 134.02 40.9202 137.62 35.0388Z" fill="#81CC7A"/>
    <path d="M122.751 55.9339C123.22 56.0886 123.533 56.2434 124.003 56.0886C124.472 55.9339 124.629 55.3148 124.785 54.8505C125.725 52.0646 129.168 50.3621 132.142 51.2907C132.768 51.4455 133.394 51.755 134.02 51.755C134.959 51.6002 135.585 50.8264 136.368 50.3621C138.246 48.9691 141.063 49.1239 142.785 50.6716C143.255 51.1359 143.724 51.6002 144.194 51.9098C144.82 52.2193 145.603 52.0646 146.229 52.3741C148.576 52.9932 149.046 56.3982 151.394 57.0173C152.959 54.5409 156.715 54.0766 159.22 55.7791C161.724 57.4816 162.663 60.577 162.507 63.5177C162.037 70.0181 155.62 75.4351 149.202 74.9708C146.229 74.816 143.411 73.4231 140.437 73.4231C137.62 73.4231 134.959 74.6612 132.298 75.5899C125.881 78.0662 119.464 77.2924 117.586 70.0181C116.333 65.8393 114.612 54.0766 122.751 55.9339Z" fill="#6FB56B"/>
    <path d="M128.228 21.2646C128.228 21.2646 121.185 34.7298 139.498 42.6231C157.811 50.5165 162.976 35.1941 162.976 35.1941L128.228 21.2646Z" fill="#E24C24"/>
    <path d="M162.657 35.5C164.225 31.7934 157.802 25.6074 148.311 21.6831C138.821 17.7588 129.856 17.5822 128.289 21.2887C126.722 24.9953 133.145 31.1813 142.635 35.1056C152.126 39.0299 161.09 39.2065 162.657 35.5Z" fill="#FF5A27"/>
    <path d="M161.213 34.9017C162.58 31.6684 156.641 26.1333 147.948 22.5388C139.255 18.9442 131.1 18.6514 129.732 21.8848C128.365 25.1181 134.304 30.6532 142.997 34.2478C151.69 37.8423 159.845 38.1351 161.213 34.9017Z" fill="#FF8B78"/>
    <path d="M140.28 23.5859C139.498 23.5859 138.559 23.7407 138.402 24.5146C138.245 24.8241 138.245 25.1337 138.089 25.4432C137.932 25.7527 137.619 25.7527 137.463 26.0623C137.306 26.2171 137.463 26.5266 137.463 26.6814C137.776 28.0743 139.341 28.6934 140.75 29.003C144.193 30.0864 147.637 31.3245 151.08 32.4079C152.019 32.7175 153.115 33.027 153.741 32.4079C154.367 31.9436 154.367 31.015 154.054 30.2411C153.741 29.4673 153.115 29.003 152.489 28.5386C150.61 27.1457 148.576 25.7527 146.384 24.9789C144.506 24.3598 142.628 23.5859 140.28 23.5859Z" fill="#FF5A27"/>
    <path d="M132.767 23.2755C133.393 23.4303 134.019 23.7398 134.645 23.8946C134.802 23.8946 134.958 23.8946 134.958 23.7398C135.115 23.7398 135.115 23.585 135.115 23.4303C135.115 23.1207 134.958 22.9659 134.645 22.8112C134.489 22.8112 134.176 22.6564 134.019 22.6564H134.176C133.706 22.5016 133.393 22.5016 132.924 22.3469C132.611 22.1921 132.298 22.3469 132.298 22.6564C132.454 22.8112 132.454 23.2755 132.767 23.2755Z" fill="#FFB164"/>
    <path d="M134.959 22.0368C135.585 22.3464 136.055 21.4177 135.429 21.1082C134.802 20.7987 134.333 21.7273 134.959 22.0368Z" fill="#FFB164"/>
    <path d="M134.959 22.0375C135.272 22.1923 135.585 22.347 136.054 22.5018C136.211 22.5018 136.367 22.5018 136.524 22.5018C136.68 22.5018 136.837 22.347 136.837 22.1923C136.837 22.0375 136.837 21.8827 136.837 21.728C136.837 21.5732 136.68 21.5732 136.524 21.4184C136.211 21.2636 135.898 21.1089 135.428 20.9541C135.272 20.9541 135.115 20.9541 134.959 20.9541C134.802 20.9541 134.646 21.1089 134.646 21.2636C134.646 21.4184 134.646 21.5732 134.646 21.728C134.802 21.8827 134.802 21.8827 134.959 22.0375Z" fill="#FFB164"/>
    <path d="M139.028 20.9537C139.028 21.1085 139.028 21.1085 139.028 21.2633C139.028 21.418 139.028 21.418 139.184 21.5728C139.341 21.7276 139.341 21.8824 139.654 22.0371C139.654 22.0371 139.81 22.0371 139.81 22.1919H139.967H140.123C140.123 22.1919 140.28 22.1919 140.28 22.0371V21.8824C140.28 21.7276 140.28 21.7276 140.28 21.5728C140.28 21.418 140.123 21.2633 140.123 21.2633C140.123 21.2633 140.123 21.2633 140.28 21.418L140.123 21.2633C140.123 21.2633 140.123 21.2633 140.123 21.418C140.123 21.418 140.123 21.2633 139.967 21.2633V21.418V21.2633V21.418V21.2633C139.967 21.2633 139.967 21.1085 139.81 21.1085L139.654 20.9537H139.497C139.341 20.9537 139.184 20.9537 139.184 21.1085C139.184 20.799 139.028 20.9537 139.028 20.9537Z" fill="#FFB164"/>
    <path d="M142.628 21.8828C142.628 22.0375 142.472 22.1923 142.472 22.5018V22.6566C142.472 22.6566 142.472 22.8114 142.628 22.8114L142.785 22.9662H142.941C143.098 22.9662 143.254 22.9662 143.254 22.8114C143.254 22.8114 143.254 22.8114 143.411 22.6566C143.411 22.6566 143.567 22.5018 143.567 22.3471C143.567 22.1923 143.724 22.0375 143.724 21.728V21.5732C143.724 21.5732 143.724 21.4184 143.567 21.4184L143.411 21.2637H143.254C143.098 21.2637 142.941 21.2637 142.941 21.4184C142.941 21.4184 142.941 21.4184 142.785 21.5732C142.628 21.728 142.628 21.728 142.628 21.8828Z" fill="#FFB164"/>
    <path d="M148.733 25.1337C148.889 24.9789 149.202 24.9789 149.359 24.8241C149.359 24.8241 149.515 24.8241 149.515 24.6694L149.672 24.5146V24.3598V24.2051C149.672 24.2051 149.672 24.2051 149.672 24.0503L149.515 23.8955H149.359C149.202 23.8955 149.202 23.8955 149.046 23.8955C148.889 24.0503 148.576 24.0503 148.42 24.2051C148.42 24.2051 148.263 24.2051 148.263 24.3598L148.107 24.5146V24.6694V24.8241C148.107 24.8241 148.107 24.8241 148.107 24.9789L148.263 25.1337H148.42C148.576 25.1337 148.733 25.1337 148.733 25.1337Z" fill="#FFB164"/>
    <path d="M152.802 27.6103C153.115 27.6103 153.428 27.765 153.898 27.765C154.054 27.765 154.211 27.765 154.211 27.6103C154.367 27.6103 154.367 27.4555 154.367 27.3007C154.367 27.146 154.367 26.9912 154.211 26.9912C154.054 26.8364 154.054 26.8364 153.898 26.8364C153.585 26.8364 153.272 26.6816 152.802 26.6816C152.646 26.6816 152.489 26.6816 152.489 26.8364C152.333 26.8364 152.333 26.9912 152.333 27.146C152.333 27.3007 152.333 27.4555 152.489 27.4555C152.646 27.4555 152.646 27.6103 152.802 27.6103Z" fill="#FFB164"/>
    <path d="M155.62 30.2393C156.089 30.5489 156.715 30.7037 157.185 30.7037C157.342 30.7037 157.498 30.7037 157.498 30.5489C157.655 30.5489 157.655 30.3941 157.655 30.2393C157.655 30.0846 157.655 29.9298 157.498 29.9298C157.342 29.775 157.342 29.775 157.185 29.775C157.028 29.775 157.028 29.775 156.872 29.775H157.028C156.715 29.6203 156.246 29.4655 155.933 29.3107C155.62 29.1559 155.307 29.3107 155.307 29.6203C155.15 29.775 155.307 30.0846 155.62 30.2393Z" fill="#FFB164"/>
    <path d="M156.559 33.1816C157.028 33.4911 157.341 33.8006 157.811 34.1102C157.967 34.265 158.124 34.265 158.124 34.265C158.28 34.265 158.437 34.1102 158.437 34.1102C158.593 33.9554 158.593 33.4911 158.28 33.3363C157.811 33.0268 157.498 32.7172 157.028 32.4077C156.872 32.2529 156.715 32.2529 156.715 32.2529C156.559 32.2529 156.402 32.4077 156.402 32.4077C156.246 32.7172 156.246 33.0268 156.559 33.1816Z" fill="#FFB164"/>
    <path d="M153.741 33.9555C153.898 34.265 154.054 34.5746 154.211 34.8841C154.211 34.8841 154.211 35.0389 154.368 35.0389L154.524 35.1937C154.681 35.1937 154.837 35.1937 154.994 35.1937C155.15 35.1937 155.15 35.0389 155.307 34.8841C155.307 34.7294 155.307 34.5746 155.307 34.4198C155.15 34.1103 154.994 33.8007 154.837 33.4912C154.837 33.4912 154.837 33.3364 154.681 33.3364L154.524 33.1816C154.368 33.1816 154.211 33.1816 154.054 33.1816C153.898 33.1816 153.898 33.3364 153.741 33.4912C153.741 33.646 153.585 33.8007 153.741 33.9555Z" fill="#FFB164"/>
    <path d="M149.671 33.9555V34.1103C149.671 34.1103 149.671 34.1103 149.671 33.9555C149.671 34.1103 149.671 34.265 149.671 34.265V34.1103C149.671 34.1103 149.671 34.1103 149.671 34.265V34.4198V34.5746C149.671 34.5746 149.671 34.7294 149.828 34.7294L149.985 34.8841C150.141 34.8841 150.298 34.8841 150.454 34.8841C150.611 34.8841 150.767 34.7294 150.767 34.5746C150.767 34.4198 150.924 34.265 150.924 34.1103C150.924 33.9555 150.924 33.8007 150.924 33.646C150.924 33.4912 150.767 33.3364 150.767 33.3364C150.767 33.3364 150.611 33.3364 150.611 33.1816H150.454C150.298 33.1816 150.141 33.3364 150.141 33.3364V33.4912C149.671 33.8007 149.515 33.9555 149.671 33.9555Z" fill="#FFB164"/>
    <path d="M144.193 32.5625C144.193 32.7172 144.193 32.7172 144.193 32.872V32.7172C144.193 32.872 144.037 33.0268 144.037 33.0268V33.1816V33.3363C144.037 33.4911 144.193 33.6459 144.35 33.6459C144.506 33.6459 144.663 33.6459 144.819 33.6459C144.819 33.6459 144.819 33.6459 144.976 33.6459L145.132 33.4911C145.132 33.3363 145.289 33.1816 145.289 33.1816C145.289 33.0268 145.446 32.872 145.446 32.7172C145.446 32.5625 145.446 32.4077 145.289 32.4077L145.132 32.2529H144.976C144.819 32.2529 144.663 32.2529 144.663 32.4077C144.193 32.2529 144.193 32.4077 144.193 32.5625Z" fill="#FFB164"/>
    <path d="M140.437 30.8595V31.0143V30.8595C140.437 31.0143 140.28 31.0143 140.28 31.0143C140.28 31.0143 140.437 31.0143 140.437 30.8595C140.28 31.0143 140.28 31.169 140.124 31.169C140.124 31.169 140.124 31.169 140.28 31.169C140.28 31.169 140.124 31.1691 140.124 31.3238C140.124 31.3238 139.967 31.3238 139.967 31.4786L139.811 31.6334C139.811 31.7881 139.811 31.9429 139.811 32.0977C139.811 32.2525 139.967 32.2524 140.124 32.4072H140.28C140.437 32.4072 140.437 32.4072 140.593 32.4072C140.75 32.4072 140.75 32.2524 140.906 32.2524L141.063 32.0977C141.219 31.9429 141.219 31.9429 141.219 31.7881C141.219 31.6334 141.376 31.6334 141.376 31.4786C141.376 31.3238 141.376 31.169 141.376 31.0143C141.376 30.8595 141.219 30.7047 141.063 30.7047C140.906 30.7047 140.75 30.7047 140.593 30.7047C140.593 30.55 140.437 30.7047 140.437 30.8595Z" fill="#FFB164"/>
    <path d="M137.15 27.6103C136.994 27.6103 136.837 27.7651 136.681 27.7651H136.837C136.524 27.7651 136.368 27.9199 136.055 27.9199C135.898 27.9199 135.741 28.0746 135.741 28.0746C135.585 28.2294 135.585 28.3842 135.585 28.3842C135.585 28.539 135.741 28.6937 135.741 28.6937H135.898C136.055 28.6937 136.055 28.6937 136.211 28.6937C136.681 28.6937 137.15 28.539 137.62 28.3842C137.776 28.3842 137.776 28.2294 137.933 28.0746C137.933 27.9199 137.933 27.7651 137.933 27.6103C137.933 27.4556 137.776 27.4556 137.62 27.3008C137.463 27.6103 137.307 27.6103 137.15 27.6103Z" fill="#FFB164"/>
    <path d="M132.924 26.0609C133.08 26.0609 133.237 25.9062 133.393 25.9062C133.393 25.9062 133.55 25.9062 133.55 25.7514L133.707 25.5966V25.4419V25.2871C133.707 25.2871 133.707 25.2871 133.707 25.1323L133.55 24.9775H133.393C133.237 24.9775 133.237 24.9775 133.08 24.9775C132.924 24.9775 132.767 25.1323 132.611 25.1323C132.611 25.1323 132.454 25.1323 132.454 25.2871L132.298 25.4419V25.5966V25.7514C132.298 25.7514 132.298 25.7514 132.298 25.9062L132.454 26.0609H132.611C132.767 26.0609 132.767 26.0609 132.924 26.0609Z" fill="#FFB164"/>
    <path opacity="0.24" d="M130.106 33.8008C130.889 34.8842 131.515 35.9676 132.767 36.4319C133.237 36.5867 133.706 36.7415 134.019 36.2772C134.176 35.9676 134.019 35.5033 133.863 35.1938C133.393 34.5747 132.924 33.8008 132.767 33.027C132.454 31.634 132.141 28.6934 129.95 28.6934C127.602 28.8481 129.48 33.027 130.106 33.8008Z" fill="white"/>
    <path d="M73.2901 44.6352C71.7249 41.385 71.5684 37.3609 73.7597 34.4202C75.6379 31.9439 78.7683 30.5509 81.7422 29.3128C77.8292 25.753 76.8901 19.7169 79.5509 15.2285C82.2117 10.7402 88.1595 8.26381 93.4811 9.34721C92.229 5.47792 95.5159 1.14431 99.8984 0.215676C104.124 -0.712955 108.82 1.45385 111.168 4.85883C114.142 3.15634 118.524 3.77543 120.716 6.25178C122.907 8.8829 122.75 12.907 120.246 15.2285C124.472 18.7883 124.942 25.4435 121.185 29.4675C123.533 31.3248 124.785 34.1107 124.315 36.8966C124.002 39.6825 122.124 42.1588 119.463 43.5518C120.089 45.409 120.559 47.4211 119.62 49.1236C118.524 51.1356 115.863 51.9095 113.516 51.9095C111.168 51.9095 108.664 51.4451 106.316 51.9095C107.255 54.0763 105.377 56.5526 103.029 57.4812C100.681 58.4099 98.0202 58.1003 95.5159 57.9456C92.6985 57.636 89.8812 57.3265 86.9073 57.1717C85.3421 57.0169 83.6204 56.8621 82.3683 55.9335C80.8031 54.8501 80.3335 52.3738 78.9248 50.9808C76.8901 48.9688 74.6988 47.4211 73.2901 44.6352Z" fill="#89E269"/>
    <path d="M126.35 44.6352L126.037 50.207C126.037 50.207 128.854 58.1004 141.063 59.6481C154.68 61.3506 164.697 57.017 164.853 48.9688C164.853 47.5759 163.132 44.1709 163.132 44.1709L126.193 44.4804L126.35 44.6352Z" fill="#59B24F"/>
    <path d="M163.326 46.1752C163.599 40.9678 155.562 36.323 145.375 35.8008C135.188 35.2786 126.708 39.0767 126.435 44.2841C126.162 49.4915 134.199 54.1362 144.386 54.6584C154.573 55.1806 163.053 51.3826 163.326 46.1752Z" fill="#84D17D"/>
    <path d="M162.194 45.8729C162.35 49.897 154.837 53.4567 145.289 53.1472C135.898 52.8377 127.603 48.5041 127.446 44.48C127.29 40.4559 135.585 36.4319 144.976 36.7414C154.524 37.2057 162.037 41.8489 162.194 45.8729Z" fill="#B0EDA9"/>
    <path d="M134.332 43.7063C134.019 43.3968 133.706 43.0872 133.55 42.7777C133.55 42.1586 134.332 41.849 134.958 41.849C136.367 41.6943 137.619 42.0038 138.871 42.4681C138.402 42.0038 138.089 41.3847 137.932 40.9204C137.932 40.7656 137.776 40.6109 137.932 40.6109C138.089 40.3013 138.402 40.3013 138.715 40.4561C140.123 41.0752 141.532 41.849 142.941 42.7777C142.628 42.1586 142.315 41.5395 142.158 40.9204C142.158 40.3013 142.315 39.5275 142.941 39.2179C143.723 38.7536 144.662 39.2179 145.289 39.837C145.915 40.4561 146.228 41.3847 146.384 42.1586C147.48 41.23 149.045 40.7656 150.61 40.9204C150.923 40.9204 151.393 41.0752 151.549 41.3847C151.862 41.849 151.393 42.3134 150.923 42.6229C152.645 42.1586 154.68 42.6229 156.088 43.8611C156.245 44.0158 156.401 44.1706 156.401 44.4802C156.401 44.6349 156.245 44.7897 156.245 44.7897C155.619 45.5636 154.68 46.0279 153.741 46.1827C152.801 46.3374 151.706 46.3374 150.767 46.3374C151.706 46.647 152.645 47.1113 153.584 47.7304C153.741 47.7304 153.741 47.8851 153.897 48.0399C153.897 48.1947 153.897 48.1947 153.741 48.3495C153.115 49.4329 151.706 49.7424 150.454 49.2781C149.202 48.9685 148.262 48.1947 147.167 47.4208C147.636 48.0399 148.106 48.8138 147.949 49.5876C147.793 50.3615 147.167 50.9806 146.384 50.8258C146.071 50.671 145.758 50.5163 145.602 50.2067C144.819 49.4329 144.193 48.5042 143.88 47.5756C143.88 48.8138 142.784 49.8972 141.376 50.052C141.063 50.052 140.749 50.0519 140.436 49.7424C140.123 49.4329 140.123 48.9685 140.28 48.659C140.436 48.3495 140.749 48.0399 141.063 47.7304C140.123 48.3495 139.028 48.8138 138.089 48.1947C137.776 48.0399 137.619 47.7304 137.619 47.4208C137.619 47.2661 137.932 47.1113 138.089 46.9565C138.558 46.647 139.654 46.3374 139.81 45.8731C137.619 45.254 135.897 44.9445 134.332 43.7063Z" fill="#C1FFB8"/>
    <path d="M65.6209 73.7312L71.7252 78.3744C71.7252 78.3744 84.0902 82.2437 98.6466 73.2669C115.081 63.2067 120.872 51.4441 111.638 44.9436C110.072 43.8602 104.125 42.6221 104.125 42.6221L64.9949 73.5764L65.6209 73.7312Z" fill="#59B24F"/>
    <path d="M92.308 69.3077C104.723 62.1932 112.012 51.6894 108.588 45.847C105.164 40.0045 92.3236 41.0357 79.9083 48.1502C67.493 55.2647 60.2042 65.7685 63.6283 71.611C67.0524 77.4535 79.8927 76.4223 92.308 69.3077Z" fill="#84D17D"/>
    <path d="M105.22 44.7893C109.916 47.8847 106.159 57.0162 95.6725 64.6001C85.1856 72.1839 71.4119 75.7436 66.5598 72.6482C61.8642 69.5528 65.9337 59.6474 76.264 52.0635C86.5943 44.4797 100.525 41.6938 105.22 44.7893Z" fill="#B0EDA9"/>
    <path d="M72.9769 66.4569C72.3508 66.6117 71.5682 66.6117 71.0987 66.3021C70.3161 65.8378 70.7856 64.9092 71.4117 64.2901C72.6639 63.0519 74.3856 62.1233 76.2638 61.3494C75.3247 61.3494 74.2291 61.1947 73.4465 60.8851C73.2899 60.8851 72.9769 60.7303 72.9769 60.5756C72.6639 60.266 73.2899 59.9565 73.7595 59.8017C75.9508 59.0279 78.4551 58.4088 80.8029 58.0992C79.7073 57.9445 78.7681 57.7897 77.9855 57.3254C77.2029 56.8611 76.7334 56.0872 76.8899 55.3133C77.2029 54.3847 78.6116 53.7656 80.0203 53.7656C81.429 53.7656 82.6811 54.2299 83.9333 54.6942C84.0898 52.9918 85.1854 51.2893 86.9072 50.2059C87.3767 49.8963 87.8463 49.7415 88.4724 49.7415C89.255 49.8963 89.4115 50.6702 89.255 51.2893C90.5071 49.432 93.3245 48.1938 96.1418 48.0391C96.4549 48.0391 96.9244 48.0391 97.2375 48.1938C97.394 48.3486 97.394 48.5034 97.5505 48.6581C97.8635 49.7416 97.394 50.9797 96.4549 51.9084C95.6723 52.837 94.5766 53.7656 93.481 54.5395C94.8897 53.9204 96.4549 53.6108 98.1766 53.3013C98.3331 53.3013 98.6461 53.3013 98.8026 53.3013C98.9592 53.3013 98.9592 53.4561 99.1157 53.6108C99.5852 55.0038 98.4896 56.3967 96.7679 57.1706C95.0462 57.9445 93.0114 58.0992 91.1332 58.4088C92.3853 58.4088 93.6375 58.7183 94.4201 59.4922C95.2027 60.1113 95.0462 61.3494 94.1071 61.8138C93.6375 61.9685 93.0114 62.1233 92.5419 62.1233C90.8201 62.1233 89.255 61.9685 87.6898 61.5042C89.0984 62.5876 89.255 64.2901 87.8463 65.5283C87.5332 65.8378 87.0637 66.1474 86.4376 66.1474C85.8115 66.1474 85.1854 65.8378 85.0289 65.3735C84.7159 64.9092 84.8724 64.4449 84.8724 63.9806C84.5594 65.2187 83.9333 66.6117 82.2116 66.9212C81.742 67.076 81.1159 66.9212 80.8029 66.6117C80.6464 66.4569 80.6464 66.1474 80.8029 65.9926C80.9594 65.3735 81.742 64.1353 81.429 63.671C78.2986 64.7544 76.1073 65.9926 72.9769 66.4569Z" fill="#C1FFB8"/>
    <path d="M73.7598 9.19236L68.1251 11.6687C68.1251 11.6687 61.5512 18.3239 65.4642 30.8604C69.8468 44.9446 78.6119 52.6832 86.5944 48.8139C87.8465 48.1948 90.5074 44.6351 90.5074 44.6351L73.9163 8.88281L73.7598 9.19236Z" fill="#59B24F"/>
    <path d="M88.4443 46.3115C93.7936 44.3499 94.9868 34.3787 91.1096 24.0401C87.2323 13.7015 79.7527 6.91053 74.4035 8.87209C69.0542 10.8337 67.8609 20.8049 71.7382 31.1435C75.6155 41.4822 83.095 48.2731 88.4443 46.3115Z" fill="#84D17D"/>
    <path d="M88.4719 44.79C84.5589 46.802 77.672 41.2302 73.7591 31.9439C69.8461 22.6576 70.4721 12.2879 74.3851 10.2759C78.2981 8.26383 85.8111 14.2999 89.7241 23.5862C93.637 32.8725 92.3849 42.7779 88.4719 44.79Z" fill="#B0EDA9"/>
    <path d="M78.1418 16.466C78.2983 16.0017 78.2983 15.5374 78.7678 15.2278C79.3939 14.9183 80.02 15.5374 80.333 16.1565C80.9591 17.3946 81.4287 18.7876 81.5852 20.3353C81.8982 19.7162 82.2113 19.0971 82.6808 18.6328C82.8373 18.478 82.8373 18.478 82.9939 18.3233C83.3069 18.3233 83.4634 18.6328 83.4634 19.0971C83.6199 20.7996 83.4634 22.5021 82.9939 24.3594C83.3069 23.7403 83.7765 23.1212 84.4025 22.8117C85.0286 22.5021 85.8112 22.3473 86.4373 22.8117C87.2199 23.276 87.2199 24.5141 86.9069 25.4428C86.5938 26.3714 85.8112 26.9905 85.1851 27.6096C86.5938 28.2287 87.846 29.4668 88.3155 31.0146C88.472 31.3241 88.472 31.7884 88.3155 32.098C88.0025 32.5623 87.2199 32.4075 86.7503 32.098C88.0025 33.4909 88.4721 35.8125 87.846 37.6697C87.846 37.9793 87.6895 38.1341 87.3764 38.2888C87.2199 38.2888 87.0634 38.2888 86.9069 38.2888C85.8112 38.1341 85.0286 37.3602 84.4025 36.5863C83.7765 35.6577 83.3069 34.7291 82.9939 33.6457C83.1504 34.7291 82.9939 35.9673 82.8373 37.0507C82.8373 37.2054 82.8373 37.3602 82.6808 37.515C82.5243 37.515 82.5243 37.515 82.3678 37.515C81.1156 37.3602 80.1765 36.122 79.8635 34.7291C79.707 33.3361 80.02 31.9432 80.333 30.5502C80.02 31.3241 79.3939 32.098 78.6113 32.4075C77.8287 32.7171 76.8896 32.2527 76.7331 31.4789C76.7331 31.1693 76.7331 30.705 76.8896 30.3955C77.3592 29.3121 77.8287 28.2287 78.6113 27.4548C77.3592 28.0739 75.794 27.4548 75.1679 26.2166C75.0114 25.9071 74.8548 25.4428 75.0114 25.1332C75.1679 24.6689 75.6374 24.5141 76.107 24.5141C76.5766 24.5141 76.8896 24.6689 77.3592 24.8237C76.42 24.2046 75.3244 23.276 75.4809 22.0378C75.4809 21.7283 75.794 21.2639 76.107 21.2639C76.2635 21.2639 76.5766 21.2639 76.7331 21.4187C77.2026 21.7283 78.1418 22.6569 78.6113 22.6569C78.1418 20.4901 77.6722 18.6328 78.1418 16.466Z" fill="#C1FFB8"/>
    <path d="M48.5601 52.3745C48.5601 52.3745 49.6557 67.5421 69.3772 64.7562C89.2551 61.9703 85.4987 46.1836 85.4987 46.1836L48.5601 52.3745Z" fill="#E24C24"/>
    <path d="M68.1683 56.6261C78.3306 55.0495 86.0582 50.554 85.4285 46.5851C84.7987 42.6163 76.0501 40.677 65.8878 42.2536C55.7255 43.8303 47.9978 48.3258 48.6275 52.2946C49.2573 56.2635 58.006 58.2028 68.1683 56.6261Z" fill="#FF5A27"/>
    <path d="M68.0233 55.707C77.3316 54.2629 84.4321 50.2855 83.8828 46.8233C83.3334 43.3611 75.3422 41.7252 66.0339 43.1693C56.7256 44.6135 49.625 48.5908 50.1744 52.053C50.7237 55.5152 58.7149 57.1512 68.0233 55.707Z" fill="#FF8B78"/>
    <path d="M60.1427 48.0408C59.5166 48.5051 58.8905 49.1242 59.047 49.898C59.047 50.2076 59.3601 50.5171 59.3601 50.8267C59.3601 51.1362 59.2036 51.4458 59.2036 51.7553C59.2036 51.9101 59.3601 52.2196 59.5166 52.3744C60.6122 53.303 62.1774 52.9935 63.5861 52.6839C67.1861 51.9101 70.6295 50.9814 74.2294 50.2076C75.1686 50.0528 76.2642 49.5885 76.4207 48.8146C76.7338 48.0408 76.2642 47.2669 75.4816 46.8026C74.8555 46.3383 74.0729 46.1835 73.2903 46.1835C70.9425 45.874 68.5947 45.874 66.2469 46.3383C64.0557 46.4931 62.0209 46.8026 60.1427 48.0408Z" fill="#FF5A27"/>
    <path d="M53.5685 51.7567C54.1945 51.6019 54.8206 51.4472 55.4467 51.2924C55.6032 51.2924 55.6032 51.1376 55.7597 50.9828C55.7597 50.8281 55.7597 50.6733 55.7597 50.5185C55.6032 50.209 55.2902 50.209 55.1336 50.209C54.9771 50.209 54.8206 50.3638 54.5076 50.3638H54.6641C54.1945 50.5185 53.8815 50.5185 53.4119 50.6733C53.0989 50.6733 52.9424 50.9828 52.9424 51.2924C53.0989 51.6019 53.2554 51.7567 53.5685 51.7567Z" fill="#FFB164"/>
    <path d="M54.8209 49.433C55.447 49.2782 55.2905 48.3496 54.6644 48.3496C53.8818 48.5044 54.0383 49.5878 54.8209 49.433Z" fill="#FFB164"/>
    <path d="M54.8214 49.433C55.2909 49.433 55.604 49.433 56.0735 49.2782C56.23 49.2782 56.3866 49.1235 56.3866 49.1235C56.3866 48.9687 56.5431 48.8139 56.5431 48.8139C56.5431 48.6592 56.3866 48.5044 56.3866 48.5044C56.23 48.3496 56.0735 48.3496 56.0735 48.3496C55.604 48.3496 55.2909 48.3496 54.8214 48.5044C54.6649 48.5044 54.5083 48.6592 54.5083 48.6592C54.5083 48.8139 54.3518 48.9687 54.3518 48.9687C54.3518 49.1235 54.5083 49.2782 54.5083 49.2782C54.5083 49.433 54.6649 49.433 54.8214 49.433Z" fill="#FFB164"/>
    <path d="M57.7949 46.4926C57.7949 46.6474 57.9514 46.6474 57.9514 46.8022C57.9514 46.9569 58.1079 46.9569 58.2644 46.9569C58.421 47.1117 58.734 47.1117 58.8905 47.2665H59.047C59.047 47.2665 59.2036 47.2665 59.2036 47.1117L59.3601 46.9569V46.8022V46.6474C59.3601 46.4926 59.3601 46.4926 59.2036 46.3378C59.047 46.1831 59.047 46.1831 58.8905 46.1831C58.8905 46.1831 58.8905 46.1831 58.734 46.1831H58.8905C58.8905 46.1831 58.734 46.1831 58.734 46.0283C58.734 46.0283 58.734 46.0283 58.8905 46.0283L58.734 45.8735C58.734 45.8735 58.734 45.8735 58.8905 46.0283L58.734 45.8735C58.734 45.8735 58.734 45.8735 58.734 46.0283C58.734 46.0283 58.734 45.8735 58.5775 45.8735L58.421 45.7188H58.2644H58.1079C57.9514 45.7188 57.9514 45.8735 57.7949 46.0283C57.6384 46.1831 57.6384 46.3378 57.7949 46.4926Z" fill="#FFB164"/>
    <path d="M61.0813 45.4096C61.0813 45.5644 61.2378 45.7191 61.2378 46.0287C61.2378 46.0287 61.2378 46.1835 61.3943 46.1835L61.5509 46.3382H61.7074H61.8639C62.0204 46.3382 62.0204 46.1835 62.1769 46.0287V45.8739C62.1769 45.7191 62.1769 45.7191 62.1769 45.5644C62.1769 45.4096 62.0204 45.2548 62.0204 44.9453C62.0204 44.9453 62.0204 44.7905 61.8639 44.7905L61.7074 44.6357H61.5509H61.3943C61.2378 44.6357 61.2378 44.7905 61.0813 44.9453V45.1001C61.0813 45.2548 61.0813 45.2548 61.0813 45.4096Z" fill="#FFB164"/>
    <path d="M68.1252 44.9462C68.2817 44.7914 68.4382 44.6366 68.5947 44.3271C68.5947 44.3271 68.5947 44.1723 68.7512 44.1723V44.0176V43.8628C68.7512 43.8628 68.7512 43.708 68.5947 43.708C68.5947 43.708 68.5947 43.708 68.4382 43.708C68.2817 43.708 68.2817 43.708 68.1252 43.708H67.9686C67.8121 43.708 67.8121 43.8628 67.8121 43.8628C67.6556 44.0175 67.4991 44.1723 67.3426 44.4819C67.3426 44.4819 67.3426 44.6366 67.186 44.6366V44.7914V44.9462C67.186 44.9462 67.186 45.101 67.3426 45.101C67.3426 45.101 67.3426 45.101 67.4991 45.101C67.6556 45.101 67.6556 45.101 67.8121 45.101H67.9686L68.1252 44.9462Z" fill="#FFB164"/>
    <path d="M72.9774 44.9452C73.2905 44.7904 73.6035 44.6356 73.9165 44.4809C74.0731 44.4809 74.0731 44.3261 74.2296 44.1713C74.2296 44.0165 74.2296 43.8618 74.2296 43.707C74.2296 43.5522 74.0731 43.5522 73.9165 43.3975C73.76 43.3975 73.6035 43.3975 73.447 43.3975C73.1339 43.5522 72.8209 43.707 72.5079 43.8618C72.3513 43.8618 72.3513 44.0165 72.1948 44.1713C72.1948 44.3261 72.1948 44.4809 72.1948 44.6356C72.1948 44.7904 72.3513 44.7904 72.5079 44.9452C72.6644 44.9452 72.8209 44.9452 72.9774 44.9452Z" fill="#FFB164"/>
    <path d="M76.7338 45.7201C77.3598 45.7201 77.8294 45.5653 78.299 45.4106C78.4555 45.4106 78.4555 45.2558 78.612 45.101C78.612 44.9462 78.612 44.7915 78.612 44.6367C78.612 44.4819 78.4555 44.4819 78.299 44.3271C78.1424 44.3271 77.9859 44.3271 77.8294 44.3271C77.6729 44.3271 77.6729 44.3271 77.5164 44.4819H77.6729C77.3598 44.6367 76.8903 44.6367 76.4207 44.6367C76.1077 44.6367 75.9512 44.9462 75.9512 45.2558C76.1077 45.7201 76.4207 45.8749 76.7338 45.7201Z" fill="#FFB164"/>
    <path d="M79.0814 47.8861C79.5509 47.8861 80.177 47.8861 80.6466 48.0409C80.8031 48.0409 80.9596 48.0409 80.9596 47.8861C81.1161 47.7314 81.1161 47.7314 81.1161 47.5766C81.1161 47.2671 80.9596 46.9575 80.6466 46.9575C80.177 46.9575 79.5509 46.9575 79.0814 46.8027C78.9249 46.8027 78.7683 46.8027 78.7683 46.9575C78.6118 47.1123 78.6118 47.1123 78.6118 47.267C78.6118 47.5766 78.7683 47.8861 79.0814 47.8861Z" fill="#FFB164"/>
    <path d="M77.0471 49.8979C77.3602 50.0527 77.6732 50.2074 77.9863 50.3622C77.9863 50.3622 78.1428 50.3622 78.1428 50.517H78.2993C78.4558 50.517 78.6123 50.3622 78.6123 50.3622C78.6123 50.2074 78.7689 50.0527 78.7689 50.0527C78.7689 49.8979 78.6123 49.7431 78.6123 49.7431C78.2993 49.5883 77.9863 49.4336 77.6732 49.2788C77.6732 49.2788 77.5167 49.2788 77.5167 49.124H77.3602C77.2037 49.124 77.0471 49.2788 77.0471 49.2788C77.0471 49.4336 76.8906 49.5883 76.8906 49.5883C76.8906 49.7431 76.8906 49.8979 77.0471 49.8979Z" fill="#FFB164"/>
    <path d="M73.6033 52.0644L73.7598 52.2192C73.6033 52.2192 73.6033 52.2192 73.6033 52.0644C73.7598 52.2192 73.7598 52.3739 73.7598 52.3739V52.2192C73.7598 52.2192 73.7598 52.2192 73.7598 52.3739V52.5287C73.7598 52.5287 73.7598 52.6835 73.9163 52.6835C73.9163 52.6835 74.0729 52.6835 74.0729 52.8383H74.2294C74.3859 52.8383 74.5424 52.6835 74.5424 52.6835C74.5424 52.5287 74.6989 52.3739 74.6989 52.3739C74.6989 52.2192 74.6989 52.0644 74.5424 51.9096C74.5424 51.7549 74.3859 51.6001 74.2294 51.6001C74.0729 51.4453 74.0729 51.4453 73.9163 51.4453H73.7598C73.7598 51.4453 73.6033 51.4453 73.6033 51.6001C73.4468 51.7549 73.4468 51.7549 73.4468 51.9096V52.0644C73.4468 51.9096 73.4468 52.0644 73.6033 52.0644Z" fill="#FFB164"/>
    <path d="M68.125 53.6122C68.125 53.767 68.2815 53.767 68.2815 53.9218V53.767C68.2815 53.9218 68.2815 54.0766 68.2815 54.2313V54.3861C68.2815 54.3861 68.2815 54.5409 68.4381 54.5409C68.5946 54.5409 68.7511 54.6957 68.7511 54.6957C68.9076 54.6957 69.0641 54.5409 69.0641 54.5409C69.0641 54.5409 69.0641 54.5409 69.0641 54.3861C69.0641 54.2313 69.0641 54.2313 69.0641 54.0766C69.0641 53.9218 69.0641 53.767 69.0641 53.767C69.0641 53.6123 68.9076 53.4575 68.9076 53.3027C68.9076 53.1479 68.7511 53.1479 68.5946 52.9932H68.4381H68.2815C68.125 52.9932 68.125 53.1479 67.9685 53.3027C68.125 53.3027 68.125 53.4575 68.125 53.6122Z" fill="#FFB164"/>
    <path d="M64.0552 54.0771V54.2319C64.0552 54.2319 64.0552 54.2319 64.0552 54.0771C64.0552 54.2319 64.0552 54.2319 64.0552 54.3866C64.0552 54.3866 64.0552 54.3866 64.0552 54.0771C64.0552 54.2319 64.0552 54.3866 64.0552 54.3866C64.0552 54.3866 64.0552 54.3866 64.0552 54.2319C64.0552 54.2319 64.0552 54.3866 63.8987 54.3866C63.8987 54.3866 63.8987 54.5414 63.7422 54.5414V54.6962C63.7422 54.851 63.8987 55.0057 63.8987 55.0057C64.0552 55.0057 64.2117 55.1605 64.2117 55.1605H64.3683C64.5248 55.1605 64.5248 55.0057 64.5248 55.0057C64.6813 54.851 64.6813 54.851 64.6813 54.6962C64.6813 54.6962 64.6813 54.5414 64.8378 54.5414C64.8378 54.3866 64.8378 54.3866 64.8378 54.2319C64.8378 54.0771 64.8378 53.9223 64.8378 53.9223C64.8378 53.7676 64.6813 53.6128 64.6813 53.6128C64.5248 53.6128 64.3683 53.458 64.3683 53.458C64.2117 53.458 64.0552 53.6128 64.0552 53.6128C64.0552 53.9223 64.0552 54.0771 64.0552 54.0771Z" fill="#FFB164"/>
    <path d="M59.5168 53.1489C59.3602 53.3037 59.3602 53.4584 59.2037 53.6132C59.2037 53.6132 59.2037 53.6132 59.3602 53.4584C59.2037 53.6132 58.8907 53.768 58.7342 53.9227C58.5776 53.9227 58.5776 54.0775 58.5776 54.2323C58.5776 54.3871 58.5776 54.5418 58.7342 54.5418C58.8907 54.6966 58.8907 54.6966 59.0472 54.6966H59.2037C59.3602 54.6966 59.3602 54.6966 59.5168 54.5418C59.9863 54.2323 60.2993 53.9227 60.6124 53.4584C60.6124 53.3037 60.7689 53.1489 60.7689 53.1489C60.7689 52.9941 60.6124 52.8393 60.6124 52.8393C60.4559 52.8393 60.2994 52.6846 60.2994 52.6846C59.8298 52.9941 59.6733 52.9941 59.5168 53.1489Z" fill="#FFB164"/>
    <path d="M55.1342 53.9218C55.2907 53.767 55.2907 53.6122 55.4472 53.6122C55.4472 53.6122 55.4472 53.4575 55.6037 53.4575V53.3027V53.1479C55.6037 53.1479 55.6037 52.9932 55.4472 52.9932C55.4472 52.9932 55.4472 52.9932 55.2907 52.9932C55.1342 52.9932 55.1342 52.9932 54.9777 52.9932H54.8211C54.6646 52.9932 54.6646 53.1479 54.6646 53.1479C54.5081 53.3027 54.5081 53.4575 54.3516 53.4575C54.3516 53.4575 54.3516 53.6122 54.1951 53.6122V53.767V53.9218C54.1951 53.9218 54.1951 54.0766 54.3516 54.0766C54.3516 54.0766 54.3516 54.0766 54.5081 54.0766C54.6646 54.0766 54.6646 54.0766 54.8211 54.0766H54.9777C54.9777 54.0766 54.9777 54.0766 55.1342 53.9218Z" fill="#FFB164"/>
    <path opacity="0.24" d="M56.8554 62.1257C57.951 62.59 59.2031 63.2091 60.4553 63.0543C60.9249 63.0543 61.3944 62.7448 61.3944 62.2805C61.3944 61.9709 60.9249 61.6614 60.6118 61.5066C59.8292 61.1971 59.0466 60.8875 58.5771 60.2684C57.6379 59.3398 55.7597 56.8634 53.8815 57.9469C52.1598 59.185 55.9162 61.6614 56.8554 62.1257Z" fill="white"/>
    <path d="M90.3518 41.5407C90.3518 41.5407 99.8995 53.3034 114.612 39.993C129.325 26.6827 117.273 15.8486 117.273 15.8486L90.3518 41.5407Z" fill="#E24C24"/>
    <path d="M108.975 34.1049C116.45 27.1168 120.247 19.0851 117.456 16.1657C114.665 13.2462 106.342 16.5444 98.8669 23.5325C91.3915 30.5206 87.5942 38.5523 90.3854 41.4718C93.1766 44.3913 101.499 41.093 108.975 34.1049Z" fill="#FF5A27"/>
    <path d="M108.33 33.4308C115.177 27.03 118.754 19.7765 116.319 17.2297C113.884 14.6829 106.359 17.8072 99.5122 24.2081C92.665 30.6089 89.0881 37.8624 91.5229 40.4092C93.9578 42.956 101.482 39.8317 108.33 33.4308Z" fill="#FF8B78"/>
    <path d="M97.3948 31.6339C97.0817 32.253 96.9252 33.1816 97.5513 33.8007C97.7078 33.9555 98.0208 34.1103 98.3339 34.4198C98.4904 34.7293 98.4904 35.0389 98.6469 35.1937C98.8034 35.3484 98.96 35.5032 99.273 35.5032C100.682 35.658 101.777 34.5746 102.716 33.4912C105.221 30.86 107.569 28.2289 110.073 25.443C110.699 24.8239 111.325 23.8953 111.169 22.9667C111.012 22.1928 110.073 21.7285 109.29 21.7285C108.508 21.7285 107.725 22.0381 107.099 22.5024C105.064 23.5858 103.029 24.824 101.308 26.5264C99.7426 28.2289 98.3339 29.6219 97.3948 31.6339Z" fill="#FF5A27"/>
    <path d="M94.1075 38.2895C94.5771 37.8252 95.0466 37.3609 95.3597 36.7418C95.3597 36.587 95.5162 36.4322 95.3597 36.4322C95.3597 36.2775 95.2031 36.1227 95.0466 36.1227C94.7336 35.9679 94.5771 36.1227 94.264 36.2775C94.1075 36.4322 93.951 36.587 93.951 36.7418C93.951 36.7418 93.951 36.7418 94.1075 36.587C93.7945 36.8966 93.6379 37.2061 93.3249 37.5156C93.1684 37.6704 93.1684 37.98 93.3249 38.2895C93.4814 38.4443 93.951 38.4443 94.1075 38.2895Z" fill="#FFB164"/>
    <path d="M93.7943 35.8135C94.2639 35.3492 93.6378 34.5753 93.0117 35.0397C92.5422 35.504 93.3248 36.2778 93.7943 35.8135Z" fill="#FFB164"/>
    <path d="M93.7943 35.8124C94.1074 35.5028 94.4204 35.3481 94.7334 35.0385C94.89 34.8837 94.89 34.729 94.89 34.729C94.89 34.5742 94.89 34.4194 94.7334 34.4194C94.5769 34.2646 94.5769 34.2646 94.4204 34.2646C94.2639 34.2646 94.1074 34.2646 94.1074 34.4194C93.7943 34.729 93.4813 34.8837 93.1682 35.1933C93.0117 35.3481 93.0117 35.5028 93.0117 35.5028C93.0117 35.6576 93.0117 35.8124 93.1682 35.8124C93.3248 35.9671 93.3248 35.9671 93.4813 35.9671C93.4813 35.9671 93.6378 35.8124 93.7943 35.8124Z" fill="#FFB164"/>
    <path d="M94.5773 31.6337C94.7338 31.6337 94.7338 31.7885 94.8903 31.7885C95.0468 31.7885 95.0468 31.7885 95.2033 31.7885C95.3599 31.7885 95.6729 31.7885 95.8294 31.6337C95.8294 31.6337 95.9859 31.6337 95.9859 31.4789L96.1425 31.3242V31.1694V31.0146C96.1425 31.0146 96.1425 31.0146 95.9859 30.8599L95.8294 30.7051C95.6729 30.7051 95.5164 30.7051 95.5164 30.7051C95.5164 30.7051 95.5164 30.7051 95.3599 30.7051H95.5164H95.3599H95.5164H95.3599H95.5164H95.3599H95.5164H95.3599H95.2033C95.2033 30.7051 95.0468 30.7051 95.0468 30.8599L94.8903 31.0146C94.8903 31.1694 94.7338 31.3242 94.8903 31.3242C94.2642 31.4789 94.4207 31.6337 94.5773 31.6337Z" fill="#FFB164"/>
    <path d="M96.6121 28.8495C96.7686 29.0043 96.9251 29.1591 97.0816 29.1591H97.2382H97.3947C97.3947 29.1591 97.5512 29.1591 97.5512 29.0043L97.7077 28.8495C97.7077 28.6948 97.8642 28.54 97.7077 28.54V28.3852C97.7077 28.2304 97.5512 28.2304 97.5512 28.2304C97.3947 28.0757 97.2382 27.9209 97.0816 27.9209H96.9251H96.7686C96.7686 27.9209 96.6121 27.9209 96.6121 28.0757L96.4556 28.2304C96.4556 28.3852 96.299 28.54 96.4556 28.54V28.6948C96.6121 28.6948 96.6121 28.8495 96.6121 28.8495Z" fill="#FFB164"/>
    <path d="M102.247 24.5145C102.247 24.205 102.247 24.0502 102.247 23.7407V23.5859C102.247 23.5859 102.247 23.4311 102.09 23.4311L101.933 23.2764H101.777H101.62C101.464 23.2764 101.464 23.2764 101.307 23.4311C101.307 23.4311 101.307 23.4311 101.151 23.5859C101.151 23.7407 101.151 23.7407 101.151 23.8955C101.151 24.205 101.151 24.3598 101.151 24.6693V24.8241C101.151 24.8241 101.151 24.9789 101.307 24.9789L101.464 25.1336H101.62H101.777C101.933 25.1336 101.933 25.1336 102.09 24.9789C102.09 24.9789 102.09 24.9789 102.247 24.8241C102.247 24.8241 102.247 24.6693 102.247 24.5145Z" fill="#FFB164"/>
    <path d="M106.161 21.8812C106.317 21.5716 106.474 21.2621 106.63 20.9525C106.63 20.7978 106.787 20.643 106.63 20.643C106.63 20.4882 106.474 20.3334 106.317 20.3334C106.161 20.3334 106.004 20.1787 106.004 20.3334C105.847 20.3334 105.691 20.4882 105.691 20.643C105.534 20.9525 105.378 21.2621 105.221 21.5716C105.221 21.7264 105.065 21.8812 105.221 21.8812C105.221 22.0359 105.378 22.1907 105.534 22.1907C105.691 22.1907 105.847 22.3455 105.847 22.1907C106.004 22.0359 106.161 22.0359 106.161 21.8812Z" fill="#FFB164"/>
    <path d="M109.76 20.4905C110.229 20.181 110.542 19.7166 110.855 19.2523C110.855 19.0976 111.012 18.9428 110.855 18.9428C110.855 18.788 110.699 18.6332 110.542 18.6332C110.386 18.6332 110.229 18.4785 110.229 18.6332C110.073 18.6332 109.916 18.788 109.916 18.9428C109.916 19.0976 109.76 19.0976 109.76 19.2523C109.76 19.2523 109.76 19.2523 109.916 19.0976C109.603 19.4071 109.447 19.7166 109.134 19.8714C108.977 20.0262 108.977 20.4905 109.134 20.6453C109.29 20.6453 109.447 20.6453 109.76 20.4905Z" fill="#FFB164"/>
    <path d="M112.89 20.8003C113.36 20.4908 113.829 20.336 114.142 20.0264C114.299 20.0264 114.299 19.8717 114.455 19.7169C114.455 19.5621 114.455 19.4074 114.455 19.4074C114.299 19.2526 113.986 19.0978 113.829 19.2526C113.36 19.5621 112.89 19.7169 112.577 20.0264C112.421 20.0264 112.421 20.1812 112.264 20.336C112.264 20.4908 112.264 20.6455 112.264 20.6455C112.264 20.8003 112.734 20.9551 112.89 20.8003Z" fill="#FFB164"/>
    <path d="M112.421 23.7431C112.734 23.7431 113.203 23.7431 113.516 23.7431H113.673C113.673 23.7431 113.829 23.7431 113.829 23.5883C113.986 23.4335 113.986 23.4335 113.986 23.2788C113.986 23.124 113.986 22.9692 113.829 22.9692C113.673 22.8145 113.673 22.8145 113.516 22.8145C113.203 22.8145 112.734 22.8145 112.421 22.8145H112.264C112.264 22.8145 112.108 22.8145 112.108 22.9692C111.951 23.124 111.951 23.124 111.951 23.2788C111.951 23.4335 111.951 23.5883 112.108 23.5883C112.108 23.5883 112.264 23.7431 112.421 23.7431Z" fill="#FFB164"/>
    <path d="M110.855 27.4555H111.012H110.855C111.012 27.4555 111.168 27.6102 111.168 27.6102C111.168 27.6102 111.168 27.6102 111.012 27.4555L111.168 27.6102H111.325H111.481C111.481 27.6102 111.638 27.6102 111.638 27.4555C111.794 27.3007 111.794 27.3007 111.794 27.1459C111.794 26.9912 111.794 26.8364 111.638 26.8364C111.481 26.6816 111.481 26.6816 111.325 26.5268C111.168 26.5268 111.012 26.3721 110.855 26.3721C110.699 26.3721 110.542 26.3721 110.542 26.3721C110.542 26.3721 110.386 26.3721 110.386 26.5268L110.229 26.6816C110.229 26.8364 110.229 26.9912 110.229 26.9912C110.229 26.9912 110.229 26.9912 110.386 27.1459C110.542 27.3007 110.699 27.4555 110.855 27.4555Z" fill="#FFB164"/>
    <path d="M107.255 31.7889C107.412 31.7889 107.412 31.9437 107.568 31.9437C107.568 31.9437 107.568 31.9437 107.412 31.7889C107.568 31.9437 107.568 31.9437 107.725 32.0985L107.881 32.2532H108.038C108.194 32.2532 108.351 32.2532 108.351 32.0985C108.507 31.9437 108.507 31.9437 108.507 31.7889V31.6341C108.507 31.4794 108.507 31.4794 108.351 31.3246C108.194 31.1698 108.194 31.1698 108.038 31.0151C107.881 30.8603 107.725 30.8603 107.568 30.7055C107.412 30.7055 107.255 30.5507 107.255 30.7055C107.255 30.7055 107.099 30.7055 107.099 30.8603L106.942 31.0151C106.942 31.1698 106.786 31.3246 106.942 31.3246C106.942 31.6341 107.099 31.6341 107.255 31.7889Z" fill="#FFB164"/>
    <path d="M104.125 34.4193C104.125 34.4193 104.282 34.5741 104.125 34.4193C104.282 34.5741 104.282 34.4193 104.125 34.4193C104.282 34.5741 104.282 34.5741 104.282 34.5741C104.282 34.5741 104.282 34.5741 104.125 34.4193C104.282 34.5741 104.282 34.7289 104.282 34.7289V34.5741V34.7289V34.8837C104.282 34.8837 104.282 35.0384 104.438 35.0384C104.595 35.1932 104.595 35.1932 104.751 35.1932C104.908 35.1932 105.064 35.1932 105.064 35.0384C105.064 35.0384 105.064 35.0384 105.221 34.8837C105.221 34.7289 105.221 34.7289 105.221 34.5741C105.221 34.4193 105.221 34.4193 105.221 34.2646V34.1098C105.221 33.955 105.221 33.955 105.064 33.8003C105.064 33.6455 104.908 33.6455 104.908 33.4907C104.751 33.3359 104.751 33.3359 104.595 33.3359C104.438 33.3359 104.282 33.3359 104.282 33.4907C104.125 33.6455 104.125 33.6455 104.125 33.8003C103.969 34.2646 104.125 34.2646 104.125 34.4193Z" fill="#FFB164"/>
    <path d="M99.8994 36.1225C99.8994 36.2773 99.8994 36.4321 99.8994 36.7416V36.5868C99.8994 36.8964 99.7429 37.0512 99.7429 37.3607C99.7429 37.5155 99.7429 37.6702 99.7429 37.6702C99.7429 37.825 99.8994 37.825 100.056 37.9798C100.212 37.9798 100.369 37.9798 100.369 37.9798C100.369 37.9798 100.369 37.9798 100.526 37.825L100.682 37.6702C100.839 37.2059 100.995 36.7416 100.995 36.2773C100.995 36.1225 100.995 35.9677 100.839 35.9677C100.682 35.6582 100.526 35.6582 100.369 35.6582C100.212 35.6582 100.056 35.6582 100.056 35.813C99.8994 35.813 99.8994 35.9677 99.8994 36.1225Z" fill="#FFB164"/>
    <path d="M96.6122 39.3739C96.6122 39.2192 96.6122 39.0644 96.6122 38.9096V38.7549C96.6122 38.7549 96.6122 38.6001 96.4557 38.6001L96.2992 38.4453H96.1427H95.9862C95.8296 38.4453 95.8296 38.4453 95.6731 38.6001C95.6731 38.6001 95.6731 38.6001 95.5166 38.7549C95.5166 38.9096 95.5166 38.9096 95.5166 39.0644C95.5166 39.2192 95.5166 39.3739 95.5166 39.5287V39.6835C95.5166 39.6835 95.5166 39.8383 95.6731 39.8383L95.8296 39.993H95.9862H96.1427C96.2992 39.993 96.2992 39.993 96.4557 39.8383C96.4557 39.8383 96.4557 39.8383 96.6122 39.6835C96.6122 39.5287 96.6122 39.3739 96.6122 39.3739Z" fill="#FFB164"/>
    <path opacity="0.24" d="M102.716 44.944C103.968 44.7893 105.22 44.4797 106.316 43.7059C106.629 43.3963 106.942 42.932 106.785 42.4677C106.629 42.1581 106.159 42.1581 105.69 42.3129C104.907 42.4677 104.124 42.6225 103.185 42.4677C101.777 42.3129 98.8028 41.2295 98.0202 43.2415C97.0811 45.2536 101.777 45.0988 102.716 44.944Z" fill="white"/>
    <path d="M108.35 58.8767C108.35 58.8767 112.733 73.4253 131.515 66.4605C150.298 59.4958 142.941 44.9473 142.941 44.9473L108.35 58.8767Z" fill="#E24C24"/>
    <path d="M128.411 58.8483C137.987 55.1335 144.547 49.0903 143.063 45.3505C141.579 41.6106 132.614 41.5903 123.038 45.3051C113.462 49.0198 106.902 55.063 108.386 58.8029C109.869 62.5427 118.835 62.5631 128.411 58.8483Z" fill="#FF5A27"/>
    <path d="M128.069 57.9825C136.84 54.5798 142.901 49.1768 141.607 45.9143C140.313 42.6519 132.153 42.7655 123.381 46.1681C114.61 49.5707 108.549 54.9738 109.843 58.2363C111.138 61.4987 119.297 61.3851 128.069 57.9825Z" fill="#FF8B78"/>
    <path d="M118.681 52.2204C118.212 52.6847 117.585 53.4586 117.898 54.2324C118.055 54.542 118.212 54.6968 118.368 55.0063C118.368 55.3158 118.212 55.6254 118.368 55.9349C118.368 56.0897 118.681 56.2445 118.838 56.3992C120.09 57.0183 121.498 56.554 122.907 55.9349C126.194 54.3872 129.481 52.8395 132.768 51.2918C133.55 50.8275 134.646 50.3631 134.646 49.4345C134.646 48.6607 134.177 47.8868 133.394 47.732C132.611 47.4225 131.829 47.4225 131.046 47.5772C128.698 47.8868 126.351 48.1963 124.159 49.2797C122.125 49.8988 120.246 50.6727 118.681 52.2204Z" fill="#FF5A27"/>
    <path d="M113.046 57.1747C113.672 56.8652 114.299 56.5557 114.768 56.2461C114.925 56.2461 114.925 56.0913 114.925 55.9366C114.925 55.7818 114.925 55.627 114.768 55.4723C114.612 55.1627 114.299 55.1627 113.986 55.3175C113.829 55.4723 113.672 55.4723 113.516 55.627H113.672C113.359 55.7818 112.89 56.0913 112.577 56.2461C112.264 56.4009 112.107 56.7104 112.264 56.8652C112.577 57.1747 112.89 57.3295 113.046 57.1747Z" fill="#FFB164"/>
    <path d="M113.672 54.6989C114.298 54.3894 113.985 53.4608 113.359 53.7703C112.733 53.9251 113.046 55.0085 113.672 54.6989Z" fill="#FFB164"/>
    <path d="M113.672 54.6967C113.986 54.5419 114.455 54.5419 114.768 54.3871C114.925 54.3871 115.081 54.2323 115.081 54.0776C115.081 53.9228 115.081 53.768 115.081 53.6132C115.081 53.4585 114.925 53.3037 114.768 53.3037C114.612 53.3037 114.455 53.3037 114.299 53.3037C113.986 53.4585 113.516 53.4585 113.203 53.6132C113.046 53.6132 112.89 53.768 112.89 53.9228C112.89 54.0776 112.89 54.2323 112.89 54.3871C112.89 54.5419 113.046 54.6967 113.203 54.6967C113.516 54.6967 113.516 54.6967 113.672 54.6967Z" fill="#FFB164"/>
    <path d="M116.021 51.1381C116.021 51.2929 116.178 51.2929 116.334 51.2929C116.491 51.2929 116.491 51.4477 116.647 51.4477C116.804 51.6024 117.117 51.6024 117.273 51.6024H117.43C117.43 51.6024 117.586 51.6024 117.586 51.4477C117.586 51.4477 117.586 51.2929 117.743 51.2929V51.1381V50.9833C117.743 50.8286 117.586 50.8286 117.586 50.8286C117.43 50.6738 117.273 50.6738 117.273 50.6738C117.273 50.6738 117.273 50.6738 117.117 50.6738H117.273H117.117H117.273C117.273 50.6738 117.117 50.6738 117.117 50.519C117.117 50.519 117.117 50.519 117.273 50.519L117.117 50.3643C117.117 50.3643 117.117 50.3643 117.273 50.519L117.117 50.3643H116.96H116.804C116.804 50.3643 116.647 50.3643 116.647 50.519C116.491 50.6738 116.491 50.6738 116.491 50.8286C115.865 50.9833 115.865 51.1381 116.021 51.1381Z" fill="#FFB164"/>
    <path d="M118.995 49.4335C119.151 49.5883 119.151 49.7431 119.308 49.8978L119.464 50.0526H119.621H119.777C119.777 50.0526 119.934 50.0526 119.934 49.8978C120.09 49.7431 120.09 49.7431 120.09 49.5883V49.4335C120.09 49.2787 120.09 49.2787 119.934 49.124C119.777 48.9692 119.777 48.8144 119.621 48.6597L119.464 48.5049H119.308H119.151C119.151 48.5049 118.995 48.5049 118.995 48.6597C118.838 48.8144 118.838 48.8144 118.838 48.9692V49.124C118.995 49.2787 118.995 49.2787 118.995 49.4335Z" fill="#FFB164"/>
    <path d="M125.881 47.4218C126.037 47.267 126.037 46.9575 126.194 46.8027V46.6479V46.4931C126.194 46.4931 126.194 46.3384 126.037 46.3384L125.881 46.1836H125.724C125.568 46.1836 125.568 46.1836 125.411 46.1836H125.255L125.098 46.3384C124.942 46.4931 124.942 46.8027 124.785 46.9575V47.1122V47.267C124.785 47.267 124.785 47.4218 124.942 47.4218L125.098 47.5765H125.255C125.411 47.5765 125.411 47.5765 125.568 47.5765H125.724C125.724 47.5765 125.724 47.5765 125.881 47.4218Z" fill="#FFB164"/>
    <path d="M130.42 46.3387C130.733 46.184 131.046 45.8744 131.202 45.7196C131.359 45.5649 131.359 45.5649 131.359 45.4101C131.359 45.2553 131.359 45.1006 131.202 44.9458C131.046 44.791 131.046 44.791 130.889 44.791C130.733 44.791 130.576 44.791 130.42 44.9458C130.107 45.1006 129.794 45.4101 129.637 45.5649C129.48 45.7196 129.48 45.7196 129.48 45.8744C129.48 46.0292 129.48 46.184 129.637 46.3387C129.794 46.4935 129.794 46.4935 129.95 46.4935C130.263 46.4935 130.42 46.4935 130.42 46.3387Z" fill="#FFB164"/>
    <path d="M134.333 46.495C134.802 46.3402 135.428 46.0307 135.898 45.8759C136.055 45.8759 136.055 45.7211 136.055 45.5664C136.055 45.4116 136.055 45.2568 135.898 45.102C135.741 44.9473 135.741 44.9473 135.585 44.9473C135.428 44.9473 135.272 44.9473 135.115 45.102C134.959 45.102 134.959 45.2568 134.802 45.2568H134.959C134.646 45.4116 134.176 45.5664 133.863 45.7211C133.55 45.8759 133.394 46.1854 133.55 46.3402C133.707 46.3402 134.02 46.495 134.333 46.495Z" fill="#FFB164"/>
    <path d="M137.15 47.8876C137.62 47.7328 138.246 47.7328 138.715 47.578C138.872 47.578 139.028 47.4233 139.028 47.4233C139.028 47.2685 139.185 47.1137 139.185 47.1137C139.185 46.8042 138.872 46.6494 138.559 46.6494C138.089 46.8042 137.463 46.8042 136.994 46.959C136.837 46.959 136.681 47.1137 136.681 47.1137C136.681 47.2685 136.524 47.4233 136.524 47.4233C136.524 47.7328 136.837 48.0424 137.15 47.8876Z" fill="#FFB164"/>
    <path d="M135.586 50.3637C135.899 50.5184 136.212 50.5184 136.681 50.6732H136.838H136.994C137.151 50.6732 137.307 50.5184 137.307 50.3637C137.307 50.2089 137.307 50.0541 137.307 49.8994C137.307 49.7446 137.151 49.5898 136.994 49.5898C136.681 49.435 136.368 49.435 135.899 49.2803H135.742H135.586C135.429 49.2803 135.273 49.435 135.273 49.5898C135.273 49.7446 135.273 49.8994 135.273 50.0541C135.429 50.2089 135.429 50.3637 135.586 50.3637Z" fill="#FFB164"/>
    <path d="M132.611 53.3036L132.768 53.4584C132.768 53.3036 132.768 53.3036 132.611 53.3036C132.768 53.4584 132.768 53.4584 132.924 53.6132V53.4584C132.924 53.4584 132.924 53.4584 132.924 53.6132C132.924 53.6132 132.924 53.7679 133.081 53.7679L133.237 53.9227H133.394H133.55C133.707 53.9227 133.863 53.7679 133.863 53.6132C133.863 53.4584 133.863 53.3036 133.863 53.1489C133.863 52.9941 133.707 52.8393 133.707 52.8393C133.55 52.6845 133.55 52.6845 133.394 52.5298C133.237 52.375 133.081 52.375 133.081 52.375H132.924C132.924 52.375 132.768 52.375 132.768 52.5298C132.768 52.6845 132.611 52.8393 132.611 52.8393V52.9941C132.611 53.1489 132.611 53.1489 132.611 53.3036Z" fill="#FFB164"/>
    <path d="M127.76 55.9355C127.76 56.0902 127.916 56.0902 127.916 56.245V56.0902C127.916 56.245 128.073 56.3998 128.073 56.3998C128.073 56.3998 128.073 56.5546 128.229 56.5546L128.386 56.7093C128.542 56.7093 128.699 56.7093 128.855 56.7093C129.012 56.7093 129.168 56.5546 129.168 56.3998V56.245C129.168 56.0902 129.168 56.0902 129.168 55.9355C129.168 55.7807 129.012 55.6259 129.012 55.6259C128.855 55.4712 128.855 55.3164 128.699 55.1616C128.542 55.0068 128.542 55.0068 128.386 55.0068H128.229C128.229 55.0068 128.073 55.0068 128.073 55.1616C127.916 55.3164 127.916 55.3164 127.916 55.4711C127.603 55.6259 127.603 55.7807 127.76 55.9355Z" fill="#FFB164"/>
    <path d="M123.846 57.3271V57.4819C123.846 57.3271 123.846 57.3271 123.846 57.3271C123.846 57.4819 123.846 57.4819 123.846 57.6366C124.003 57.4819 124.003 57.4819 123.846 57.3271C123.846 57.4819 123.846 57.6366 123.846 57.6366V57.4819C123.846 57.4819 123.846 57.6366 123.69 57.6366V57.7914V57.9462C123.69 58.101 123.846 58.2557 124.003 58.2557C124.16 58.2557 124.316 58.2557 124.473 58.2557H124.629L124.786 58.101C124.786 57.9462 124.942 57.9462 124.942 57.7914V57.6366C124.942 57.4819 124.942 57.4819 124.942 57.3271C124.942 57.1723 124.942 57.1723 124.786 57.0176C124.786 56.8628 124.629 56.8628 124.473 56.708C124.316 56.708 124.16 56.708 124.003 56.708C123.846 56.708 123.69 56.8628 123.69 57.0176C123.846 57.0176 123.846 57.1723 123.846 57.3271Z" fill="#FFB164"/>
    <path d="M119.307 57.3286C119.307 57.4833 119.151 57.6381 118.994 57.7929C118.994 57.7929 118.994 57.7929 118.994 57.6381C118.837 57.9477 118.681 58.1024 118.524 58.2572C118.368 58.412 118.368 58.5667 118.368 58.5667C118.368 58.7215 118.524 58.8763 118.524 58.8763C118.681 58.8763 118.837 59.0311 118.837 59.0311H118.994C119.151 59.0311 119.151 58.8763 119.151 58.8763C119.464 58.5667 119.777 58.1024 119.933 57.6381C119.933 57.4833 119.933 57.3286 119.933 57.1738C119.933 57.019 119.777 56.8643 119.62 56.8643C119.464 56.8643 119.307 56.8643 119.151 56.8643C119.464 57.019 119.307 57.1738 119.307 57.3286Z" fill="#FFB164"/>
    <path d="M115.082 59.0297C115.082 58.8749 115.238 58.7201 115.238 58.5654V58.4106V58.2558C115.238 58.2558 115.238 58.1011 115.082 58.1011L114.925 57.9463H114.769C114.612 57.9463 114.612 57.9463 114.456 57.9463H114.299L114.143 58.1011C114.143 58.2558 113.986 58.4106 113.986 58.5654V58.7201V58.8749C113.986 58.8749 113.986 59.0297 114.143 59.0297L114.299 59.1845H114.456C114.612 59.1845 114.612 59.1845 114.769 59.1845H114.925C114.925 59.1845 114.925 59.1845 115.082 59.0297Z" fill="#FFB164"/>
    <path opacity="0.24" d="M118.524 66.6144C119.776 66.924 121.029 67.0787 122.281 66.7692C122.75 66.6144 123.22 66.3049 123.063 65.8406C122.907 65.531 122.594 65.3762 122.124 65.2215C121.342 65.0667 120.559 64.9119 119.776 64.4476C118.524 63.6737 116.177 61.6617 114.611 63.2094C113.203 64.7571 117.585 66.3049 118.524 66.6144Z" fill="white"/>
    <path d="M23.2037 33.4912C23.2037 33.4912 8.80388 38.9082 17.0994 56.8618C25.395 74.6605 39.6382 66.6124 39.6382 66.6124L23.2037 33.4912Z" fill="#E24C24"/>
    <path d="M39.2787 66.6738C42.9507 64.9543 42.3583 56.1077 37.9556 46.9144C33.5529 37.721 27.007 31.6623 23.335 33.3817C19.663 35.1012 20.2554 43.9478 24.6581 53.1412C29.0609 62.3345 35.6067 68.3933 39.2787 66.6738Z" fill="#FF5A27"/>
    <path d="M38.6094 65.2756C41.8127 63.7756 41.1402 55.7332 37.1074 47.3124C33.0747 38.8916 27.2088 33.2812 24.0055 34.7811C20.8023 36.2811 21.4748 44.3235 25.5075 52.7443C29.5403 61.1651 35.4062 66.7755 38.6094 65.2756Z" fill="#FF8B78"/>
    <path d="M30.7165 43.2418C30.0904 42.7775 29.3078 42.3131 28.6817 42.6227C28.3687 42.7775 28.2121 43.087 27.8991 43.087C27.5861 43.087 27.273 43.087 26.96 43.087C26.8035 43.2418 26.6469 43.3965 26.4904 43.5513C25.8643 44.7895 26.6469 46.1824 27.273 47.4206C29.1513 50.5161 30.873 53.6115 32.7512 56.7069C33.2208 57.4808 33.8468 58.4094 34.786 58.4094C35.5686 58.4094 36.1946 57.7903 36.5077 57.0165C36.8207 56.2426 36.6642 55.4688 36.5077 54.6949C36.0381 52.3733 35.412 50.0517 34.3164 48.0397C33.2208 46.492 32.2816 44.6347 30.7165 43.2418Z" fill="#FF5A27"/>
    <path d="M25.2379 37.9799C25.551 38.599 25.864 39.0633 26.3336 39.6824C26.3336 39.8372 26.4901 39.8372 26.6466 39.8372C26.8031 39.8372 26.9596 39.8372 26.9596 39.6824C27.1162 39.5276 27.1162 39.2181 26.9596 38.9085C26.8031 38.7538 26.8031 38.599 26.6466 38.4442C26.6466 38.4442 26.6466 38.4442 26.6466 38.599C26.4901 38.2895 26.177 37.8251 26.0205 37.5156C25.864 37.2061 25.551 37.2061 25.3944 37.2061C25.2379 37.3608 25.0814 37.6704 25.2379 37.9799Z" fill="#FFB164"/>
    <path d="M27.7429 38.4451C28.056 39.0642 28.9951 38.5999 28.6821 37.9808C28.369 37.3617 27.4299 37.8261 27.7429 38.4451Z" fill="#FFB164"/>
    <path d="M27.7427 38.4438C27.8992 38.7533 28.0557 39.2176 28.2122 39.5272C28.2122 39.682 28.3688 39.682 28.5253 39.8367C28.6818 39.8367 28.8383 39.8367 28.9948 39.8367C29.1513 39.8367 29.1513 39.682 29.3079 39.5272C29.3079 39.3724 29.3079 39.2176 29.3079 39.0629C29.1513 38.7533 28.9948 38.289 28.8383 37.9795C28.8383 37.8247 28.6818 37.8247 28.5253 37.6699C28.3688 37.6699 28.2122 37.6699 28.0557 37.6699C27.8992 37.6699 27.8992 37.8247 27.7427 37.9795C27.7427 38.1342 27.7427 38.289 27.7427 38.4438Z" fill="#FFB164"/>
    <path d="M31.4993 40.4568C31.4993 40.4568 31.3428 40.6116 31.3428 40.7664C31.3428 40.9211 31.1863 40.9211 31.1863 41.0759C31.1863 41.2307 31.0297 41.5402 31.1863 41.695C31.1863 41.695 31.1863 41.8498 31.3428 41.8498L31.4993 42.0046H31.6558H31.8123H31.9689C32.1254 42.0046 32.1254 41.8498 32.1254 41.8498C32.1254 41.695 32.2819 41.5402 32.2819 41.5402C32.2819 41.5402 32.2819 41.5402 32.2819 41.3855V41.5402V41.3855V41.5402V41.3855V41.5402C32.2819 41.5402 32.2819 41.3855 32.4384 41.3855C32.4384 41.3855 32.4384 41.3855 32.2819 41.5402L32.4384 41.3855V41.2307V41.0759C32.4384 41.0759 32.4384 40.9211 32.2819 40.9211C32.1254 40.7664 32.1254 40.7664 31.9689 40.7664C31.8123 40.302 31.6558 40.3021 31.4993 40.4568Z" fill="#FFB164"/>
    <path d="M33.534 43.396C33.3775 43.5508 33.221 43.5508 33.0645 43.7055L32.908 43.8603V44.0151V44.1698C32.908 44.1698 32.908 44.3246 33.0645 44.3246C33.221 44.4794 33.221 44.4794 33.3775 44.4794H33.534C33.6906 44.4794 33.6906 44.4794 33.8471 44.3246C34.0036 44.1698 34.1601 44.1698 34.3166 44.0151L34.4732 43.8603V43.7055V43.5508C34.4732 43.5508 34.4732 43.396 34.3166 43.396C34.1601 43.2412 34.1601 43.2412 34.0036 43.2412H33.8471C33.6906 43.2412 33.534 43.2412 33.534 43.396Z" fill="#FFB164"/>
    <path d="M35.8816 49.8969C36.0381 50.0517 36.3512 50.0517 36.5077 50.2064H36.6642H36.8207C36.8207 50.2064 36.9773 50.2064 36.9773 50.0516L37.1338 49.8969V49.7421C37.1338 49.5873 37.1338 49.5873 37.1338 49.4326C37.1338 49.4326 37.1338 49.4326 37.1338 49.2778L36.9773 49.123C36.8207 48.9682 36.5077 48.9682 36.3512 48.8135H36.1947H36.0381C36.0381 48.8135 35.8816 48.8135 35.8816 48.9682L35.7251 49.123V49.2778C35.7251 49.4326 35.7251 49.4326 35.7251 49.5873C35.7251 49.5873 35.7251 49.5873 35.7251 49.7421C35.7251 49.7421 35.8816 49.8969 35.8816 49.8969Z" fill="#FFB164"/>
    <path d="M37.2906 54.3852C37.4471 54.6947 37.7601 54.8495 37.9166 55.159C38.0731 55.3138 38.0731 55.3138 38.2297 55.3138C38.3862 55.3138 38.5427 55.3138 38.5427 55.159C38.6992 55.0043 38.6992 55.0043 38.6992 54.8495C38.6992 54.6947 38.6992 54.54 38.5427 54.54C38.3862 54.2304 38.0731 54.0756 37.9166 53.7661C37.7601 53.6113 37.7601 53.6113 37.6036 53.6113C37.4471 53.6113 37.2906 53.6113 37.2906 53.7661C37.134 53.9209 37.134 53.9209 37.134 54.0756C37.134 54.2304 37.2906 54.3852 37.2906 54.3852Z" fill="#FFB164"/>
    <path d="M37.6033 58.2543C37.7598 58.7186 38.0729 59.183 38.3859 59.6473C38.3859 59.802 38.5424 59.802 38.6989 59.802C38.8555 59.802 39.012 59.802 39.012 59.6473C39.1685 59.4925 39.1685 59.4925 39.1685 59.3377C39.1685 59.183 39.1685 59.0282 39.012 59.0282C39.012 58.8734 38.8555 58.8734 38.8555 58.7186C38.8555 58.7186 38.8555 58.7186 38.8555 58.8734C38.6989 58.5639 38.3859 58.2543 38.3859 57.79C38.2294 57.4805 37.9163 57.4805 37.7598 57.4805C37.4468 57.6352 37.4468 57.9448 37.6033 58.2543Z" fill="#FFB164"/>
    <path d="M36.1953 61.04C36.3518 61.5043 36.5084 61.9686 36.5084 62.5877C36.5084 62.7425 36.6649 62.8972 36.6649 62.8972C36.8214 62.8972 36.9779 63.052 36.9779 63.052C37.2909 63.052 37.4475 62.7425 37.4475 62.4329C37.2909 61.9686 37.1344 61.5043 37.1344 60.8852C37.1344 60.7304 36.9779 60.5757 36.9779 60.5757C36.8214 60.5757 36.6649 60.4209 36.6649 60.4209C36.3518 60.5757 36.1953 60.7304 36.1953 61.04Z" fill="#FFB164"/>
    <path d="M33.5333 59.8017C33.3767 60.1113 33.3767 60.4208 33.2202 60.8851V61.0399V61.1947C33.2202 61.3494 33.3767 61.3494 33.5333 61.5042C33.6898 61.5042 33.8463 61.5042 34.0028 61.5042C34.1593 61.5042 34.1593 61.3494 34.3159 61.1947C34.4724 60.8851 34.4724 60.5756 34.6289 60.1113V59.9565V59.8017C34.6289 59.647 34.4724 59.647 34.3159 59.4922C34.1593 59.4922 34.0028 59.4922 33.8463 59.4922C33.6898 59.4922 33.6898 59.647 33.5333 59.8017Z" fill="#FFB164"/>
    <path d="M30.5604 57.0151L30.4039 57.1699C30.4039 57.1699 30.4039 57.1699 30.5604 57.0151C30.4039 57.1699 30.4039 57.1699 30.2474 57.3247C30.2474 57.3247 30.2474 57.3247 30.4039 57.3247C30.4039 57.3247 30.4039 57.3247 30.2474 57.3247C30.2474 57.3247 30.0908 57.3247 30.0908 57.4794L29.9343 57.6342V57.789V57.9438C29.9343 58.0985 30.0908 58.0985 30.2474 58.2533C30.4039 58.2533 30.5604 58.2533 30.7169 58.2533C30.8734 58.2533 31.03 58.0985 31.03 57.9438C31.1865 57.789 31.1865 57.789 31.343 57.6342C31.343 57.4794 31.4995 57.3247 31.4995 57.3247C31.4995 57.3247 31.4995 57.1699 31.343 57.1699L31.1865 57.0151C31.03 57.0151 30.8734 56.8604 30.8734 56.8604H30.7169C30.7169 56.8604 30.5604 57.0151 30.5604 57.0151Z" fill="#FFB164"/>
    <path d="M27.4298 52.3722C27.2733 52.5269 27.2733 52.5269 27.1168 52.5269C27.2733 52.5269 27.2733 52.5269 27.4298 52.3722C27.1168 52.5269 26.9603 52.6817 26.9603 52.6817C26.9603 52.6817 26.8037 52.6817 26.8037 52.8365L26.6472 52.9913C26.6472 53.146 26.6472 53.3008 26.6472 53.4556C26.6472 53.6104 26.8037 53.6104 26.9603 53.7651H27.1168C27.2733 53.7651 27.2733 53.7651 27.4298 53.7651C27.5863 53.7651 27.7429 53.6104 27.7429 53.6104C27.8994 53.4556 28.0559 53.4556 28.2124 53.3008C28.3689 53.146 28.3689 53.146 28.3689 52.9913V52.8365C28.3689 52.8365 28.3689 52.6817 28.2124 52.6817C28.0559 52.5269 28.0559 52.5269 27.8994 52.5269C27.7429 52.2174 27.5863 52.2174 27.4298 52.3722Z" fill="#FFB164"/>
    <path d="M25.8647 48.6581H25.7081C25.7081 48.6581 25.8647 48.6581 25.8647 48.6581C25.7081 48.6581 25.7081 48.6581 25.5516 48.6581C25.7081 48.6581 25.7081 48.6581 25.8647 48.6581C25.7081 48.6581 25.5516 48.6581 25.5516 48.6581H25.7081H25.5516H25.3951H25.2386C25.0821 48.6581 25.0821 48.8128 24.9255 48.9676C24.9255 49.1224 24.9255 49.2772 24.9255 49.4319C24.9255 49.4319 24.9255 49.4319 24.9255 49.5867L25.0821 49.7415C25.2386 49.7415 25.2386 49.7415 25.3951 49.8962H25.5516C25.7081 49.8962 25.7081 49.8962 25.8647 49.8962C26.0212 49.8962 26.0212 49.8962 26.1777 49.7415C26.3342 49.7415 26.3342 49.5867 26.4907 49.4319C26.4907 49.2772 26.4907 49.1224 26.4907 48.9676C26.4907 48.8128 26.3342 48.8128 26.1777 48.6581C26.1777 48.5033 26.0212 48.5033 25.8647 48.6581Z" fill="#FFB164"/>
    <path d="M25.5518 44.0156C25.3953 44.0156 25.2388 43.8608 25.0823 43.8608H25.2388C24.9257 43.706 24.7692 43.5513 24.6127 43.3965C24.4562 43.3965 24.2997 43.3965 24.1431 43.3965C23.9866 43.3965 23.8301 43.5513 23.8301 43.5513C23.8301 43.706 23.6736 43.8608 23.6736 43.8608V44.0156C23.6736 44.1703 23.8301 44.1703 23.8301 44.1703C24.1431 44.4799 24.6127 44.7894 25.0823 44.9442C25.2388 44.9442 25.3953 44.9442 25.5518 44.9442C25.7083 44.9442 25.7083 44.7894 25.8649 44.6347C25.8649 44.4799 25.8649 44.3251 25.8649 44.1703C25.8649 44.1703 25.7083 44.1703 25.5518 44.0156Z" fill="#FFB164"/>
    <path d="M23.5171 39.9906C23.6736 39.9906 23.8302 40.1454 23.9867 40.1454H24.1432H24.2997C24.2997 40.1454 24.4562 40.1454 24.4562 39.9906L24.6127 39.8359V39.6811C24.6127 39.5263 24.6127 39.5263 24.6127 39.3715C24.6127 39.3715 24.6127 39.3715 24.6127 39.2168L24.4562 39.062C24.2997 39.062 24.1432 38.9072 23.9867 38.9072H23.8302H23.6736C23.6736 38.9072 23.5171 38.9072 23.5171 39.062L23.3606 39.2168V39.3715C23.3606 39.5263 23.3606 39.5263 23.3606 39.6811C23.3606 39.6811 23.3606 39.6811 23.3606 39.8359C23.3606 39.9906 23.3606 39.9906 23.5171 39.9906Z" fill="#FFB164"/>
    <path opacity="0.24" d="M16.1607 44.0159C16.0042 45.2541 15.8476 46.647 16.3172 47.7304C16.4737 48.1947 16.9433 48.659 17.2563 48.5043C17.5693 48.3495 17.7259 47.8852 17.7259 47.5756C17.8824 46.8018 17.8824 45.8731 18.3519 45.2541C18.978 44.0159 20.8563 41.5395 19.2911 40.1466C17.5693 38.7536 16.3172 43.0873 16.1607 44.0159Z" fill="white"/>
    <path d="M33.3782 49.4319C35.4129 48.1938 38.5433 48.6581 39.952 50.5154C41.6737 48.039 45.5867 47.5747 48.091 49.1224C50.7519 50.6701 52.1605 53.7656 52.1605 56.7062C56.3866 55.3133 60.9256 58.4087 63.4299 62.1232C63.8995 62.7423 64.2125 63.3614 64.8386 63.8257C65.6212 64.29 66.5603 64.4448 67.4995 64.4448C75.0124 65.3734 81.5862 71.5643 82.9949 78.9934C83.4645 81.3149 83.3079 83.7913 82.0558 85.6486C80.9601 87.1963 79.2384 88.1249 77.6732 88.8988C75.795 89.8274 73.9168 90.9108 71.7255 91.0656C65.6212 91.5299 61.5517 84.8747 56.0735 82.3984C51.5345 80.3863 46.2128 81.1602 41.6737 79.1481C38.0738 77.6004 34.6303 74.505 31.5 72.1834C28.8391 70.1714 27.1174 68.1593 26.1783 65.0639C24.9261 61.1946 25.5522 53.7656 31.6565 55.6228C30.7174 53.456 31.3434 50.6701 33.3782 49.4319Z" fill="#89E269"/>
    <path d="M179.097 45.5635H175.341C174.715 59.3382 145.445 66.922 91.9158 66.922C40.1078 66.922 9.42997 57.0166 8.49085 45.5635H4.73438C4.73438 45.5635 3.3257 63.2075 13.343 84.566C28.3688 116.604 49.1859 122.485 49.1859 122.485L91.6027 123.259L134.02 122.485C134.02 122.485 154.68 116.759 169.706 84.7207C179.567 63.2075 179.097 45.5635 179.097 45.5635Z" fill="#EDCEB9"/>
    <path d="M134.646 129.451V122.022L91.9163 116.76L49.1865 122.486V129.451C49.1865 129.451 48.8734 132.856 61.8645 137.19C79.5512 143.226 108.507 141.214 122.281 137.19C135.272 133.32 134.646 129.451 134.646 129.451Z" fill="#EDCEB9"/>
    <path d="M122.125 137.189C135.272 133.32 134.803 129.45 134.803 129.45V122.021L115.238 119.545C115.238 119.545 115.238 119.545 115.081 119.545C112.89 120.938 110.699 122.021 110.542 124.807C110.386 127.748 111.951 131.308 110.699 134.093C109.916 135.796 107.881 136.415 106.003 136.879C91.6033 140.13 76.8904 138.118 62.8037 134.713C58.4211 133.629 53.882 132.391 50.2821 129.915C49.9691 129.76 49.656 129.45 49.1865 129.296C49.1865 129.296 48.8734 132.701 61.8645 137.034C79.3947 143.225 108.351 141.213 122.125 137.189Z" fill="#EABFAC"/>
    <path opacity="0.38" d="M25.7079 72.8038C24.7688 75.1254 25.5513 77.7565 26.4905 80.2328C28.9948 86.7333 32.4382 92.7694 36.3512 98.6507C39.1686 102.83 42.612 107.163 47.6206 108.092C49.3423 108.401 51.2206 108.247 52.7858 107.473C54.351 106.699 55.4466 104.996 55.6031 103.294C55.6031 101.437 54.664 99.8889 53.7249 98.3411C51.3771 94.6266 49.4988 90.6025 48.4032 86.4237C47.7771 83.6378 47.4641 80.5424 46.0554 78.066C43.3946 73.4229 28.5252 65.22 25.7079 72.8038Z" fill="white"/>
    <path opacity="0.38" d="M55.7598 125.272C55.2903 125.272 54.9772 125.272 54.5077 125.581C53.7251 126.045 53.7251 127.129 54.0381 127.903C54.5077 128.677 55.2903 129.141 55.9163 129.45C59.0467 130.998 62.4902 131.927 66.0901 132.546C67.4988 132.855 68.9075 133.01 70.1596 132.391C71.4118 131.927 72.3509 130.379 71.7248 129.141C71.0987 128.057 69.5335 127.748 68.2814 127.748C64.2119 127.284 59.8293 125.117 55.7598 125.272Z" fill="white"/>
    <path d="M178.941 45.5635H175.185C174.872 53.3021 165.48 59.0286 147.95 62.7431C147.011 69.0888 144.976 76.5178 140.907 84.4112C128.542 107.472 116.959 113.973 102.873 118.616C85.3424 124.497 64.8384 123.104 64.8384 123.104C64.8384 123.104 85.499 127.747 101.934 127.747C118.368 127.747 133.707 122.485 133.707 122.485C133.707 122.485 154.368 116.758 169.393 84.7207C179.411 63.2075 178.941 45.5635 178.941 45.5635Z" fill="#EABFAC"/>
    <path d="M179.1 44.3262H175.344C175.344 44.7905 175.344 45.1 175.344 45.5643C174.874 59.4938 145.605 67.0776 91.9189 67.0776C39.9544 67.0776 9.27662 57.0175 8.49402 45.5643C8.49402 45.1 8.65054 44.7905 8.65054 44.3262H4.89407C4.89407 44.7905 4.73755 45.2548 4.73755 45.7191C5.52015 58.4104 37.6066 69.7088 91.9189 69.7088C148.109 69.7088 178.631 61.1963 179.1 45.5643C179.1 45.1 179.1 44.6357 179.1 44.3262Z" fill="#FFDFCA"/>
    <path d="M20.3859 30.0869L19.6033 36.123C19.6033 36.123 21.9511 45.0997 34.9422 48.35C49.4985 51.9097 60.6114 48.6595 61.394 39.8375C61.5505 38.4446 59.9853 34.4205 59.9853 34.4205L20.2294 29.7773L20.3859 30.0869Z" fill="#59B24F"/>
    <path d="M60.1664 37.014C61.2566 31.4763 53.267 25.2788 42.321 23.1716C31.375 21.0644 21.6176 23.8454 20.5273 29.3832C19.4371 34.9209 27.4267 41.1184 38.3727 43.2256C49.3187 45.3328 59.0761 42.5518 60.1664 37.014Z" fill="#84D17D"/>
    <path d="M58.8898 36.1221C58.5767 40.4557 50.2812 43.3964 40.1074 41.8487C29.9337 40.301 21.4816 34.4196 21.6381 30.086C21.9512 25.7524 31.0293 22.5022 41.2031 24.0499C51.2203 25.5976 59.0463 31.7885 58.8898 36.1221Z" fill="#B0EDA9"/>
    <path d="M28.995 30.0873C28.6819 29.7778 28.3689 29.4683 28.3689 29.0039C28.3689 28.2301 29.308 28.0753 29.9341 28.0753C31.3428 28.2301 32.908 28.5396 34.1601 29.1587C33.6906 28.5396 33.3775 27.9205 33.221 27.3015C33.221 27.1467 33.0645 26.9919 33.221 26.8371C33.3775 26.5276 33.8471 26.6824 34.1601 26.8371C35.7253 27.611 37.134 28.6944 38.3861 29.9326C37.9166 29.3135 37.7601 28.5396 37.7601 27.9205C37.7601 27.1467 38.0731 26.5276 38.6992 26.2181C39.4818 25.9085 40.5774 26.3728 41.2035 27.1467C41.8296 27.9205 41.9861 28.8492 42.1426 29.7778C43.3948 28.8492 45.1165 28.5396 46.6817 29.0039C46.9947 29.1587 47.4643 29.3135 47.6208 29.623C47.9338 30.2421 47.3078 30.7064 46.8382 31.016C48.7164 30.7064 50.9077 31.4803 52.3164 33.028C52.4729 33.1828 52.6294 33.4923 52.6294 33.6471C52.6294 33.8019 52.4729 33.9566 52.4729 33.9566C51.6903 34.7305 50.7512 35.04 49.6556 35.1948C48.5599 35.3496 47.4643 35.04 46.3686 34.8853C47.4643 35.3496 48.4034 35.9687 49.3425 36.7425C49.499 36.8973 49.499 36.8973 49.6556 37.0521C49.6556 37.2068 49.6556 37.2068 49.499 37.3616C48.7164 38.445 47.1512 38.5998 45.8991 37.9807C44.6469 37.5164 43.5513 36.433 42.6122 35.5044C43.0817 36.2782 43.3948 37.0521 43.2383 37.9807C43.0817 38.7546 42.1426 39.3737 41.36 39.0641C41.047 38.9093 40.7339 38.5998 40.4209 38.2902C39.6383 37.3616 39.1687 36.2782 38.8557 35.1948C38.6992 36.5878 37.447 37.6712 36.0384 37.5164C35.7253 37.5164 35.2558 37.3616 35.0992 37.0521C34.7862 36.7425 34.7862 36.1234 35.0992 35.8139C35.2558 35.5044 35.5688 35.1948 36.0384 34.8853C34.9427 35.3496 33.6906 35.8139 32.7514 35.04C32.4384 34.7305 32.2819 34.421 32.4384 34.1114C32.5949 33.9566 32.7514 33.8019 32.908 33.6471C33.3775 33.3376 34.7862 33.1828 34.9427 32.7185C32.4384 32.2542 30.7167 31.4803 28.995 30.0873Z" fill="#C1FFB8"/>
    <path d="M89.099 51.1344C91.6034 50.051 94.7338 50.051 97.0816 51.2892C97.5511 51.5988 98.3337 51.9083 98.6467 51.444C98.8033 51.2892 98.8033 50.9797 98.8033 50.6701C98.3337 47.7295 95.6729 45.4079 92.5425 45.2531C90.3512 45.0983 88.1599 46.1817 86.1252 47.2651C84.7165 48.039 83.3078 48.9676 82.0557 49.8963C80.334 51.1344 78.6122 52.5274 77.8296 54.5394C77.2036 55.9324 76.8905 59.0278 78.9253 59.4921C80.96 59.9564 81.8992 57.0158 82.9948 55.7776C84.7165 53.7656 86.7513 52.0631 89.099 51.1344Z" fill="#0A0B0C"/>
    <path d="M94.8905 44.9451C91.6036 44.4808 88.3166 45.4094 85.3428 46.9572C82.5254 48.5049 80.0211 50.6717 77.5168 52.8385C74.8559 55.1601 75.0125 59.6485 76.5777 62.4343C77.9863 65.0655 80.9602 66.768 83.9341 67.0775C86.908 67.387 89.7253 66.1489 92.3862 64.9107C95.2035 63.5177 98.0209 61.97 99.8991 59.4937C101.934 57.0173 102.873 53.7671 101.934 50.8265C101.151 47.5763 98.1774 45.4094 94.8905 44.9451ZM95.9861 53.4576C95.2035 55.0053 93.6383 56.2435 92.0731 57.1721C90.5079 58.1007 88.9427 58.7198 87.3775 59.3389C85.9688 59.8032 84.5602 60.2675 83.1515 60.1128C81.7428 59.958 80.1776 59.3389 79.5515 58.1007C76.5777 53.3028 84.2471 49.5883 87.534 48.1953C89.4123 47.4215 91.447 47.1119 93.3253 47.5763C94.1079 47.731 94.7339 48.0406 95.36 48.5049C96.7687 49.7431 96.9252 51.9099 95.9861 53.4576Z" fill="#36383F"/>
    <path d="M50.4386 19.8747C52.943 18.7913 56.0734 18.7913 58.4211 20.0294C58.8907 20.339 59.6733 20.6485 59.9863 20.1842C60.1429 20.0294 60.1429 19.7199 60.1429 19.4104C59.6733 16.4697 57.0125 14.1481 53.8821 13.9933C51.6908 13.8386 49.4995 14.922 47.4648 16.0054C46.0561 16.7792 44.6474 17.7079 43.3953 18.6365C41.6735 19.8747 39.9518 21.2676 39.1692 23.2797C38.5432 24.6726 38.2301 27.768 40.2649 28.2323C42.2996 28.6967 43.2387 25.756 44.3344 24.5178C46.0561 22.5058 48.0909 20.8033 50.4386 19.8747Z" fill="#0A0B0C"/>
    <path d="M56.23 13.5272C52.9431 13.0628 49.6562 13.9915 46.6824 15.5392C43.865 17.0869 41.3607 19.2537 38.8564 21.4205C36.1955 23.7421 36.3521 28.2305 37.9173 31.0164C39.3259 33.6475 42.2998 35.35 45.2737 35.6595C48.2475 35.9691 51.0649 34.7309 53.7257 33.4927C56.5431 32.0998 59.3604 30.5521 61.2387 28.0757C63.2734 25.5994 64.2125 22.3492 63.2734 19.4085C62.4908 16.1583 59.517 13.9915 56.23 13.5272ZM57.3257 22.1944C56.5431 23.7421 54.9779 24.8255 53.4127 25.7541C51.8475 26.6828 50.2823 27.3019 48.7171 27.9209C47.3084 28.3853 45.8998 28.8496 44.4911 28.6948C43.0824 28.54 41.5172 27.9209 40.8911 26.6828C37.9173 21.8848 45.5867 18.1703 48.8736 16.7774C50.7519 16.0035 52.7866 15.694 54.6649 16.1583C55.4474 16.3131 56.0735 16.6226 56.6996 17.0869C58.1083 18.3251 58.2648 20.4919 57.3257 22.1944Z" fill="#36383F"/>
    <path d="M161.724 29.465C163.759 31.3223 165.167 33.9534 165.167 36.5845C165.167 37.2036 165.167 37.9774 165.794 38.1322C166.107 38.1322 166.42 37.9774 166.576 37.8227C169.08 36.1202 170.02 32.5604 168.767 29.9293C167.828 27.9173 165.95 26.3696 164.072 25.1314C162.663 24.2028 161.254 23.4289 159.846 22.655C157.968 21.7264 155.933 20.7978 153.742 20.9525C152.176 21.1073 149.202 22.1907 149.672 24.2028C150.142 26.2148 153.272 25.7505 154.837 26.2148C157.498 26.6791 159.846 27.7625 161.724 29.465Z" fill="#0A0B0C"/>
    <path d="M170.019 31.787C169.08 28.6916 166.732 26.0604 164.071 24.2032C161.41 22.3459 158.28 21.1077 155.306 19.8696C152.176 18.6314 147.95 20.6434 146.228 23.2745C144.506 25.7509 144.193 29.0011 145.289 31.787C146.384 34.5729 148.732 36.5849 151.08 38.4422C153.584 40.2994 156.245 42.0019 159.376 42.7758C162.349 43.3949 165.949 42.9306 168.141 40.9185C170.332 38.597 170.958 35.0372 170.019 31.787ZM162.662 36.5849C160.784 36.5849 159.063 35.6563 157.654 34.7277C156.245 33.799 154.836 32.7156 153.584 31.4774C152.489 30.5488 151.55 29.4654 151.08 28.0725C150.61 26.6795 150.454 25.1318 151.237 23.8936C154.367 19.2505 161.097 24.2032 163.758 26.6795C165.323 28.0725 166.419 29.6202 166.888 31.6322C167.045 32.4061 167.045 33.1799 166.888 33.799C166.419 35.6563 164.541 36.7397 162.662 36.5849Z" fill="#36383F"/>
    <path d="M101.464 40.6103C101.464 40.6103 108.038 56.7066 126.977 52.0634C145.916 47.4203 153.585 35.8124 155.307 33.8003C158.907 29.4667 158.75 23.1211 158.75 23.1211L101.464 40.6103Z" fill="#FFECD7"/>
    <path d="M110.073 37.9797C109.916 37.9797 114.925 48.9685 123.847 47.266C141.533 43.861 138.716 29.3125 138.716 29.3125L110.073 37.9797Z" fill="#FFDC31"/>
    <path opacity="0.52" d="M149.673 31.3239C148.577 35.0385 144.82 37.2053 142.16 39.8364C141.69 40.3007 141.064 41.0746 141.377 41.6937C141.534 42.158 142.16 42.4675 142.786 42.3127C143.255 42.3127 143.725 42.0032 144.194 41.6937C146.386 40.1459 148.264 38.2887 149.986 36.2766C151.864 34.1098 153.899 31.7883 154.212 28.8476C154.212 28.538 154.212 28.2285 154.212 27.919C153.742 26.6808 152.02 27.2999 151.238 27.919C150.299 28.8476 149.986 30.0858 149.673 31.3239Z" fill="white"/>
</svg>
