<svg width="227" height="171" viewBox="0 0 227 171" fill="none" xmlns="http://www.w3.org/2000/svg">
<path d="M5.73584 54.4424C6.68379 70.0026 45.5496 83.6881 111.337 83.6881C179.4 83.6881 216.37 73.3771 216.938 54.4424C217.507 35.5077 180.727 21.8222 112.854 22.0097C55.977 22.1972 8.2005 26.1341 5.73584 54.4424Z" fill="#F7D3B0"/>
<path d="M10.2861 54.256C11.2341 68.1289 48.3936 80.3146 111.337 80.3146C176.366 80.3146 211.82 71.1285 212.388 54.256C212.957 37.3835 177.694 25.0103 112.854 25.3853C58.2522 25.5727 12.5612 29.1347 10.2861 54.256Z" fill="#E2BFA3"/>
<path d="M10.2861 54.2564C11.0445 65.3172 34.9328 75.4407 77.0216 79.0027C74.7465 77.5029 72.661 75.8157 70.386 74.1284C57.4939 63.8175 47.0665 50.3194 40.4308 35.1342C39.8621 33.8219 39.2933 32.5096 38.7245 31.1973C22.0407 35.3217 11.4237 42.4456 10.2861 54.2564Z" fill="#CEAD97"/>
<path d="M57.493 70.3763C56.7346 69.6264 55.7867 68.8765 55.2179 67.7516C54.6491 66.6268 54.4595 65.502 54.27 64.3771C53.5116 61.1901 51.0469 58.5655 47.8239 57.4407C47.0656 57.0657 46.1176 56.8782 45.5488 56.3158C44.9801 55.5659 44.9801 54.816 44.9801 53.8787C44.6009 50.5042 42.1362 47.6921 38.9132 46.5673C37.9653 46.1923 36.8277 46.0048 36.0694 45.4424C34.1735 44.1301 34.5527 41.318 33.4151 39.2558C32.8464 38.131 31.7088 37.3811 30.7609 36.4438C29.0546 35.1314 27.3483 33.6317 25.642 32.3194C23.9357 30.8196 22.0398 29.5073 19.7647 29.1323C18.6272 28.9449 17.3 29.1323 16.3521 28.3824C15.4041 27.82 15.2145 26.6952 14.6458 25.7578C12.5603 21.6334 6.30385 20.5086 2.70165 23.5082C-0.90055 26.5077 -0.90055 32.6943 2.70165 35.6939C0.236987 37.7561 0.0473974 41.693 1.37452 44.5051C2.70165 47.3172 5.3559 49.5668 8.01015 51.4415C8.57892 52.004 9.33728 52.3789 9.71646 53.1288C10.2852 54.2536 10.0956 55.3785 10.0956 56.5033C10.0956 61.7525 14.077 66.8143 19.3855 67.9391L59.9576 83.4993C61.8535 79.1875 60.716 73.7508 57.493 70.3763Z" fill="#6FB56B"/>
<path d="M48.0133 40.9432C45.7382 38.1311 43.6527 35.3191 42.3256 32.132C40.9985 28.945 40.6193 25.0081 41.9464 21.821C42.3256 21.0712 42.8944 20.1338 42.8944 19.3839C43.0839 18.2591 42.7048 17.3217 42.5152 16.1969C41.7568 12.4474 43.2735 8.51051 46.1174 6.07337C48.9612 3.63623 53.1322 2.88634 56.7344 4.19865C59.0094 2.32392 62.4221 1.94898 65.0763 3.26129C67.7306 4.57359 69.4369 7.57315 69.2473 10.3852C72.0911 9.63535 74.935 11.5101 76.4517 13.9472C77.9684 16.3844 78.158 19.3839 78.3476 22.196C82.5185 22.0085 86.6895 23.8832 89.3438 27.0703C91.8084 30.2573 92.7564 34.9441 91.4292 38.881C95.4106 42.0681 99.2024 45.8175 100.15 50.8793C101.098 55.7535 97.8753 61.7527 92.7564 61.9401C95.6002 62.1276 96.9273 65.8771 95.6002 68.5017C94.4627 70.9388 91.6188 72.4386 89.1542 73.5634C83.8457 75.8131 78.3476 77.3129 72.6599 78.0628C69.2473 78.4377 65.8347 78.6252 62.6117 77.5003C55.5968 74.8757 52.3738 67.3768 49.9092 61.0028C47.4445 55.3786 40.4297 45.63 48.0133 40.9432Z" fill="#81CC7A"/>
<path d="M146.979 25.7585C148.875 22.9465 152.667 21.6341 155.89 22.5715C156.269 18.4471 159.682 14.8851 163.663 14.3227C167.644 13.7603 172.005 16.1974 173.711 19.9469C176.366 17.8847 180.536 20.3218 181.295 23.5089C182.053 26.6959 180.347 30.0704 178.261 32.695C180.916 33.4449 182.243 36.8194 181.864 39.444C181.484 42.0686 179.778 44.5058 178.072 46.9429C181.674 49.5675 182.243 55.0042 180.157 58.7537C178.072 62.5031 173.522 64.7528 169.161 64.9403C164.611 65.1277 160.819 63.253 156.648 61.3783C142.429 78.6257 123.66 38.3192 147.169 35.3196C145.462 32.3201 145.083 28.5706 146.979 25.7585Z" fill="#6FB56B"/>
<path d="M166.696 42.4419C168.592 39.2549 170.867 36.4428 173.711 34.1931C175.796 32.5059 178.261 31.381 180.726 30.2562C187.361 27.0692 195.514 23.6947 201.77 27.4441C202.908 28.194 204.045 28.9439 205.183 29.6938C207.837 31.0061 211.06 30.6312 214.093 30.6312C217.127 30.6312 220.35 31.0061 222.814 32.6933C225.469 34.3806 227.175 37.1927 226.985 40.1922C226.796 41.692 226.037 43.1918 226.037 44.879C226.037 46.1914 226.606 47.5037 226.796 49.0034C227.365 52.3779 225.089 56.3149 221.487 56.8773C220.35 57.0647 219.023 56.8773 217.695 57.0647C212.197 57.8146 209.922 64.7511 204.993 66.8133C203.476 67.3757 201.96 67.5632 200.443 67.9381C198.926 68.5006 197.409 69.2504 195.893 70.0003C186.413 74.3122 174.09 72.0625 166.886 64.5636C160.44 57.6272 162.335 49.5659 166.696 42.4419Z" fill="#81CC7A"/>
<path d="M148.686 67.7513C149.254 67.9388 149.634 68.1262 150.202 67.9388C150.771 67.7513 150.961 67.0014 151.15 66.439C152.288 63.0645 156.459 61.0023 160.061 62.1271C160.819 62.3146 161.578 62.6895 162.336 62.6895C163.474 62.5021 164.232 61.5647 165.18 61.0023C167.455 59.315 170.868 59.5025 172.953 61.3772C173.522 61.9396 174.091 62.5021 174.659 62.877C175.418 63.252 176.366 63.0645 177.124 63.4394C179.968 64.1893 180.537 68.3137 183.38 69.0636C185.276 66.064 189.826 65.5016 192.86 67.5638C195.893 69.626 197.031 73.3755 196.841 76.9374C196.272 84.8113 188.499 91.3728 180.726 90.8104C177.124 90.6229 173.711 88.9357 170.109 88.9357C166.697 88.9357 163.474 90.4354 160.251 91.5603C152.477 94.5598 144.704 93.6225 142.429 84.8113C140.912 79.7495 138.827 65.5016 148.686 67.7513Z" fill="#6FB56B"/>
<path d="M155.321 25.7568C155.321 25.7568 146.79 42.0669 168.972 51.628C191.154 61.1891 197.41 42.6293 197.41 42.6293L155.321 25.7568Z" fill="#E24C24"/>
<path d="M197.024 42.9996C198.923 38.51 191.143 31.017 179.647 26.2635C168.151 21.5101 157.293 21.2962 155.394 25.7858C153.496 30.2755 161.276 37.7685 172.771 42.5219C184.267 47.2754 195.125 47.4892 197.024 42.9996Z" fill="#FF5A27"/>
<path d="M195.274 42.2754C196.93 38.3589 189.737 31.6543 179.207 27.3003C168.677 22.9463 158.799 22.5917 157.142 26.5082C155.486 30.4247 162.68 37.1292 173.209 41.4832C183.739 45.8372 193.618 46.1919 195.274 42.2754Z" fill="#FF8B78"/>
<path d="M169.919 28.5693C168.971 28.5693 167.833 28.7568 167.644 29.6942C167.454 30.0691 167.454 30.4441 167.264 30.819C167.075 31.1939 166.696 31.1939 166.506 31.5689C166.317 31.7564 166.506 32.1313 166.506 32.3188C166.885 34.006 168.781 34.7559 170.488 35.1309C174.658 36.4432 178.829 37.943 183 39.2553C184.138 39.6302 185.465 40.0051 186.223 39.2553C186.982 38.6928 186.982 37.568 186.603 36.6306C186.223 35.6933 185.465 35.1309 184.707 34.5685C182.432 32.8812 179.967 31.194 177.313 30.2566C175.038 29.5067 172.763 28.5693 169.919 28.5693Z" fill="#FF5A27"/>
<path d="M160.819 28.1925C161.577 28.38 162.335 28.7549 163.094 28.9424C163.283 28.9424 163.473 28.9424 163.473 28.7549C163.663 28.7549 163.663 28.5675 163.663 28.38C163.663 28.005 163.473 27.8176 163.094 27.6301C162.904 27.6301 162.525 27.4426 162.335 27.4426H162.525C161.956 27.2552 161.577 27.2552 161.008 27.0677C160.629 26.8802 160.25 27.0677 160.25 27.4426C160.44 27.6301 160.44 28.1925 160.819 28.1925Z" fill="#FFB164"/>
<path d="M163.473 26.6935C164.232 27.0684 164.8 25.9436 164.042 25.5686C163.284 25.1937 162.715 26.3185 163.473 26.6935Z" fill="#FFB164"/>
<path d="M163.473 26.6932C163.852 26.8806 164.231 27.0681 164.8 27.2556C164.99 27.2556 165.179 27.2556 165.369 27.2556C165.558 27.2556 165.748 27.0681 165.748 26.8806C165.748 26.6932 165.748 26.5057 165.748 26.3182C165.748 26.1307 165.558 26.1307 165.369 25.9433C164.99 25.7558 164.61 25.5683 164.042 25.3809C163.852 25.3809 163.663 25.3809 163.473 25.3809C163.283 25.3809 163.094 25.5683 163.094 25.7558C163.094 25.9433 163.094 26.1307 163.094 26.3182C163.283 26.5057 163.283 26.5057 163.473 26.6932Z" fill="#FFB164"/>
<path d="M168.402 25.3809C168.402 25.5683 168.402 25.5683 168.402 25.7558C168.402 25.9433 168.402 25.9433 168.591 26.1307C168.781 26.3182 168.781 26.5057 169.16 26.6932C169.16 26.6932 169.35 26.6932 169.35 26.8806H169.539H169.729C169.729 26.8806 169.919 26.8806 169.919 26.6932V26.5057C169.919 26.3182 169.919 26.3182 169.919 26.1307C169.919 25.9433 169.729 25.7558 169.729 25.7558C169.729 25.7558 169.729 25.7558 169.919 25.9433L169.729 25.7558C169.729 25.7558 169.729 25.7558 169.729 25.9433C169.729 25.9433 169.729 25.7558 169.539 25.7558V25.9433V25.7558V25.9433V25.7558C169.539 25.7558 169.539 25.5683 169.35 25.5683L169.16 25.3809H168.971C168.781 25.3809 168.591 25.3809 168.591 25.5683C168.591 25.1934 168.402 25.3809 168.402 25.3809Z" fill="#FFB164"/>
<path d="M172.763 26.5058C172.763 26.6932 172.573 26.8807 172.573 27.2556V27.4431C172.573 27.4431 172.573 27.6306 172.763 27.6306L172.952 27.8181H173.142C173.332 27.8181 173.521 27.8181 173.521 27.6306C173.521 27.6306 173.521 27.6306 173.711 27.4431C173.711 27.4431 173.9 27.2556 173.9 27.0682C173.9 26.8807 174.09 26.6932 174.09 26.3183V26.1308C174.09 26.1308 174.09 25.9433 173.9 25.9433L173.711 25.7559H173.521C173.332 25.7559 173.142 25.7559 173.142 25.9433C173.142 25.9433 173.142 25.9433 172.952 26.1308C172.763 26.3183 172.763 26.3183 172.763 26.5058Z" fill="#FFB164"/>
<path d="M180.157 30.4441C180.347 30.2566 180.726 30.2566 180.916 30.0692C180.916 30.0692 181.105 30.0692 181.105 29.8817L181.295 29.6942V29.5068V29.3193C181.295 29.3193 181.295 29.3193 181.295 29.1318L181.105 28.9443H180.916C180.726 28.9443 180.726 28.9443 180.536 28.9443C180.347 29.1318 179.968 29.1318 179.778 29.3193C179.778 29.3193 179.589 29.3193 179.589 29.5068L179.399 29.6942V29.8817V30.0692C179.399 30.0692 179.399 30.0692 179.399 30.2566L179.589 30.4441H179.778C179.968 30.4441 180.157 30.4441 180.157 30.4441Z" fill="#FFB164"/>
<path d="M185.086 33.4432C185.466 33.4432 185.845 33.6307 186.413 33.6307C186.603 33.6307 186.793 33.6307 186.793 33.4432C186.982 33.4432 186.982 33.2557 186.982 33.0682C186.982 32.8808 186.982 32.6933 186.793 32.6933C186.603 32.5058 186.603 32.5058 186.413 32.5058C186.034 32.5058 185.655 32.3184 185.086 32.3184C184.897 32.3184 184.707 32.3184 184.707 32.5058C184.518 32.5058 184.518 32.6933 184.518 32.8808C184.518 33.0682 184.518 33.2557 184.707 33.2557C184.897 33.2557 184.897 33.4432 185.086 33.4432Z" fill="#FFB164"/>
<path d="M188.499 36.6281C189.068 37.003 189.827 37.1905 190.395 37.1905C190.585 37.1905 190.775 37.1905 190.775 37.003C190.964 37.003 190.964 36.8155 190.964 36.6281C190.964 36.4406 190.964 36.2531 190.775 36.2531C190.585 36.0656 190.585 36.0657 190.395 36.0657C190.206 36.0657 190.206 36.0657 190.016 36.0657H190.206C189.827 35.8782 189.258 35.6907 188.879 35.5032C188.499 35.3158 188.12 35.5032 188.12 35.8782C187.931 36.0657 188.12 36.4406 188.499 36.6281Z" fill="#FFB164"/>
<path d="M189.637 40.1922C190.206 40.5672 190.585 40.9421 191.154 41.3171C191.343 41.5045 191.533 41.5045 191.533 41.5045C191.722 41.5045 191.912 41.3171 191.912 41.3171C192.102 41.1296 192.102 40.5672 191.722 40.3797C191.154 40.0047 190.774 39.6298 190.206 39.2549C190.016 39.0674 189.826 39.0674 189.826 39.0674C189.637 39.0674 189.447 39.2549 189.447 39.2549C189.258 39.6298 189.258 40.0047 189.637 40.1922Z" fill="#FFB164"/>
<path d="M186.224 41.1288C186.414 41.5037 186.604 41.8787 186.793 42.2536C186.793 42.2536 186.793 42.4411 186.983 42.4411L187.172 42.6285C187.362 42.6285 187.552 42.6285 187.741 42.6285C187.931 42.6285 187.931 42.4411 188.12 42.2536C188.12 42.0661 188.12 41.8787 188.12 41.6912C187.931 41.3162 187.741 40.9413 187.552 40.5664C187.552 40.5664 187.552 40.3789 187.362 40.3789L187.172 40.1914C186.983 40.1914 186.793 40.1914 186.604 40.1914C186.414 40.1914 186.414 40.3789 186.224 40.5664C186.224 40.7538 186.035 40.9413 186.224 41.1288Z" fill="#FFB164"/>
<path d="M181.295 41.1288V41.3162C181.295 41.3162 181.295 41.3162 181.295 41.1288C181.295 41.3162 181.295 41.5037 181.295 41.5037V41.3162C181.295 41.3162 181.295 41.3162 181.295 41.5037V41.6912V41.8787C181.295 41.8787 181.295 42.0661 181.484 42.0661L181.674 42.2536C181.863 42.2536 182.053 42.2536 182.243 42.2536C182.432 42.2536 182.622 42.0661 182.622 41.8787C182.622 41.6912 182.811 41.5037 182.811 41.3162C182.811 41.1288 182.811 40.9413 182.811 40.7538C182.811 40.5664 182.622 40.3789 182.622 40.3789C182.622 40.3789 182.432 40.3789 182.432 40.1914H182.243C182.053 40.1914 181.864 40.3789 181.864 40.3789V40.5664C181.295 40.9413 181.105 41.1288 181.295 41.1288Z" fill="#FFB164"/>
<path d="M174.659 39.4423C174.659 39.6298 174.659 39.6298 174.659 39.8173V39.6298C174.659 39.8173 174.469 40.0047 174.469 40.0047V40.1922V40.3797C174.469 40.5672 174.659 40.7546 174.848 40.7546C175.038 40.7546 175.228 40.7546 175.417 40.7546C175.417 40.7546 175.417 40.7546 175.607 40.7546L175.796 40.5672C175.796 40.3797 175.986 40.1922 175.986 40.1922C175.986 40.0047 176.176 39.8173 176.176 39.6298C176.176 39.4423 176.176 39.2549 175.986 39.2549L175.796 39.0674H175.607C175.417 39.0674 175.228 39.0674 175.228 39.2549C174.659 39.0674 174.659 39.2549 174.659 39.4423Z" fill="#FFB164"/>
<path d="M170.108 37.3794V37.5669V37.3794C170.108 37.5669 169.919 37.5669 169.919 37.5669C169.919 37.5669 170.108 37.5669 170.108 37.3794C169.919 37.5669 169.919 37.7543 169.729 37.7543C169.729 37.7543 169.729 37.7543 169.919 37.7543C169.919 37.7543 169.729 37.7543 169.729 37.9418C169.729 37.9418 169.54 37.9418 169.54 38.1293L169.35 38.3167C169.35 38.5042 169.35 38.6917 169.35 38.8792C169.35 39.0666 169.54 39.0666 169.729 39.2541H169.919C170.108 39.2541 170.108 39.2541 170.298 39.2541C170.488 39.2541 170.488 39.0666 170.677 39.0666L170.867 38.8792C171.056 38.6917 171.056 38.6917 171.056 38.5042C171.056 38.3167 171.246 38.3167 171.246 38.1293C171.246 37.9418 171.246 37.7543 171.246 37.5669C171.246 37.3794 171.056 37.1919 170.867 37.1919C170.677 37.1919 170.488 37.1919 170.298 37.1919C170.298 37.0044 170.108 37.1919 170.108 37.3794Z" fill="#FFB164"/>
<path d="M166.128 33.4433C165.938 33.4433 165.749 33.6308 165.559 33.6308H165.749C165.369 33.6308 165.18 33.8182 164.801 33.8182C164.611 33.8182 164.422 34.0057 164.422 34.0057C164.232 34.1932 164.232 34.3807 164.232 34.3807C164.232 34.5681 164.422 34.7556 164.422 34.7556H164.611C164.801 34.7556 164.801 34.7556 164.99 34.7556C165.559 34.7556 166.128 34.5681 166.697 34.3807C166.886 34.3807 166.886 34.1932 167.076 34.0057C167.076 33.8182 167.076 33.6308 167.076 33.4433C167.076 33.2558 166.886 33.2558 166.697 33.0684C166.507 33.4433 166.317 33.4433 166.128 33.4433Z" fill="#FFB164"/>
<path d="M161.008 31.5662C161.198 31.5662 161.388 31.3787 161.577 31.3787C161.577 31.3787 161.767 31.3787 161.767 31.1913L161.956 31.0038V30.8163V30.6288C161.956 30.6288 161.956 30.6289 161.956 30.4414L161.767 30.2539H161.577C161.388 30.2539 161.388 30.2539 161.198 30.2539C161.008 30.2539 160.819 30.4414 160.629 30.4414C160.629 30.4414 160.44 30.4414 160.44 30.6288L160.25 30.8163V31.0038V31.1913C160.25 31.1913 160.25 31.1913 160.25 31.3787L160.44 31.5662H160.629C160.819 31.5662 160.819 31.5662 161.008 31.5662Z" fill="#FFB164"/>
<path opacity="0.24" d="M157.596 40.9415C158.544 42.2538 159.302 43.5661 160.819 44.1285C161.388 44.316 161.957 44.5034 162.336 43.941C162.525 43.5661 162.336 43.0037 162.146 42.6287C161.577 41.8788 161.009 40.9415 160.819 40.0041C160.44 38.3169 160.061 34.7549 157.406 34.7549C154.563 34.9424 156.838 40.0041 157.596 40.9415Z" fill="white"/>
<path d="M88.775 54.0658C86.8791 50.1289 86.6895 45.2546 89.3438 41.6926C91.6188 38.6931 95.4106 37.0058 99.0128 35.506C94.2731 31.1942 93.1355 23.8828 96.3586 18.4461C99.5816 13.0094 106.786 10.0098 113.232 11.3221C111.715 6.6353 115.697 1.38608 121.005 0.261244C126.124 -0.86359 131.812 1.76102 134.656 5.88541C138.258 3.82322 143.566 4.57311 146.221 7.57266C148.875 10.7597 148.685 15.634 145.652 18.4461C150.771 22.7579 151.339 30.8192 146.789 35.6935C149.633 37.9432 151.15 41.3177 150.581 44.6922C150.202 48.0667 147.927 51.0662 144.704 52.7535C145.462 55.0032 146.031 57.4403 144.893 59.5025C143.566 61.9396 140.343 62.877 137.499 62.877C134.656 62.877 131.622 62.3146 128.778 62.877C129.916 65.5016 127.641 68.5012 124.797 69.626C121.953 70.7508 118.73 70.3759 115.697 70.1884C112.284 69.8135 108.871 69.4385 105.269 69.2511C103.373 69.0636 101.288 68.8761 99.7712 67.7513C97.8753 66.439 97.3065 63.4394 95.6002 61.7522C93.1355 59.315 90.4813 57.4403 88.775 54.0658Z" fill="#89E269"/>
<path d="M153.045 54.0653L152.666 60.8144C152.666 60.8144 156.079 70.3754 170.867 72.2502C187.361 74.3124 199.495 69.0631 199.684 59.3146C199.684 57.6273 197.599 53.5029 197.599 53.5029L152.856 53.8779L153.045 54.0653Z" fill="#59B24F"/>
<path d="M197.834 55.9312C198.165 49.6236 188.43 43.9975 176.09 43.365C163.751 42.7324 153.48 47.333 153.149 53.6406C152.818 59.9482 162.553 65.5743 174.893 66.2068C187.232 66.8394 197.503 62.2388 197.834 55.9312Z" fill="#84D17D"/>
<path d="M196.463 55.5656C196.652 60.4399 187.552 64.7517 175.987 64.3768C164.612 64.0018 154.563 58.7526 154.374 53.8783C154.184 49.004 164.232 44.1298 175.608 44.5047C187.173 45.0671 196.273 50.6913 196.463 55.5656Z" fill="#B0EDA9"/>
<path d="M162.715 52.9406C162.335 52.5656 161.956 52.1907 161.767 51.8157C161.767 51.0658 162.715 50.6909 163.473 50.6909C165.179 50.5034 166.696 50.8784 168.213 51.4408C167.644 50.8784 167.265 50.1285 167.075 49.5661C167.075 49.3786 166.886 49.1911 167.075 49.1911C167.265 48.8162 167.644 48.8162 168.023 49.0036C169.729 49.7535 171.436 50.6909 173.142 51.8157C172.763 51.0658 172.384 50.316 172.194 49.5661C172.194 48.8162 172.384 47.8788 173.142 47.5039C174.09 46.9415 175.227 47.5039 175.986 48.2538C176.744 49.0036 177.123 50.1285 177.313 51.0658C178.64 49.941 180.536 49.3786 182.432 49.5661C182.811 49.5661 183.38 49.7535 183.569 50.1285C183.949 50.6909 183.38 51.2533 182.811 51.6283C184.897 51.0658 187.361 51.6283 189.067 53.128C189.257 53.3155 189.447 53.503 189.447 53.8779C189.447 54.0654 189.257 54.2529 189.257 54.2529C188.499 55.1902 187.361 55.7527 186.224 55.9401C185.086 56.1276 183.759 56.1276 182.621 56.1276C183.759 56.5025 184.897 57.065 186.034 57.8148C186.224 57.8148 186.224 58.0023 186.413 58.1898C186.413 58.3773 186.413 58.3773 186.224 58.5647C185.465 59.877 183.759 60.252 182.242 59.6896C180.726 59.3146 179.588 58.3773 178.261 57.4399C178.83 58.1898 179.398 59.1272 179.209 60.0645C179.019 61.0019 178.261 61.7518 177.313 61.5643C176.934 61.3768 176.555 61.1894 176.365 60.8144C175.417 59.8771 174.659 58.7522 174.28 57.6274C174.28 59.1272 172.952 60.4395 171.246 60.6269C170.867 60.6269 170.488 60.6269 170.109 60.252C169.729 59.877 169.729 59.3146 169.919 58.9397C170.109 58.5647 170.488 58.1898 170.867 57.8148C169.729 58.5647 168.402 59.1272 167.265 58.3773C166.886 58.1898 166.696 57.8149 166.696 57.4399C166.696 57.2524 167.075 57.065 167.265 56.8775C167.833 56.5025 169.161 56.1276 169.35 55.5652C166.696 54.8153 164.61 54.4403 162.715 52.9406Z" fill="#C1FFB8"/>
<path d="M79.4854 89.3089L86.8794 94.9331C86.8794 94.9331 101.857 99.6199 119.489 88.7465C139.396 76.5608 146.41 62.3129 135.225 54.439C133.329 53.1267 126.124 51.627 126.124 51.627L78.7271 89.1214L79.4854 89.3089Z" fill="#59B24F"/>
<path d="M111.811 83.9517C126.849 75.334 135.678 62.611 131.531 55.5341C127.383 48.4572 111.83 49.7062 96.7914 58.324C81.753 66.9417 72.9242 79.6647 77.0718 86.7416C81.2193 93.8185 96.7725 92.5694 111.811 83.9517Z" fill="#84D17D"/>
<path d="M127.451 54.2529C133.139 58.0024 128.589 69.0632 115.886 78.2494C103.184 87.4355 86.4998 91.7474 80.6225 87.998C74.9349 84.2485 79.8642 72.2503 92.3771 63.0641C104.89 53.878 121.763 50.5035 127.451 54.2529Z" fill="#B0EDA9"/>
<path d="M88.3957 80.4987C87.6373 80.6861 86.6894 80.6861 86.1206 80.3112C85.1726 79.7488 85.7414 78.6239 86.4998 77.874C88.0165 76.3743 90.102 75.2494 92.377 74.3121C91.2395 74.3121 89.9124 74.1246 88.9644 73.7497C88.7748 73.7497 88.3957 73.5622 88.3957 73.3747C88.0165 72.9998 88.7748 72.6248 89.3436 72.4373C91.9979 71.5 95.0313 70.7501 97.8751 70.3752C96.548 70.1877 95.4105 70.0002 94.4625 69.4378C93.5146 68.8754 92.9458 67.938 93.1354 67.0007C93.5146 65.8758 95.2209 65.1259 96.9272 65.1259C98.6335 65.1259 100.15 65.6883 101.667 66.2508C101.857 64.1886 103.184 62.1264 105.269 60.8141C105.838 60.4391 106.407 60.2516 107.165 60.2516C108.113 60.4391 108.303 61.3765 108.113 62.1264C109.63 59.8767 113.042 58.3769 116.455 58.1895C116.834 58.1895 117.403 58.1895 117.782 58.3769C117.972 58.5644 117.972 58.7519 118.161 58.9393C118.54 60.2516 117.972 61.7514 116.834 62.8763C115.886 64.0011 114.559 65.1259 113.232 66.0633C114.938 65.3134 116.834 64.9385 118.92 64.5635C119.109 64.5635 119.488 64.5635 119.678 64.5635C119.868 64.5635 119.868 64.751 120.057 64.9385C120.626 66.6257 119.299 68.313 117.213 69.2503C115.128 70.1877 112.663 70.3752 110.388 70.7501C111.905 70.7501 113.421 71.125 114.369 72.0624C115.317 72.8123 115.128 74.3121 113.99 74.8745C113.421 75.062 112.663 75.2494 112.094 75.2494C110.009 75.2494 108.113 75.062 106.217 74.4995C107.923 75.8119 108.113 77.874 106.407 79.3738C106.027 79.7488 105.459 80.1237 104.7 80.1237C103.942 80.1237 103.184 79.7488 102.994 79.1864C102.615 78.6239 102.804 78.0615 102.804 77.4991C102.425 78.9989 101.667 80.6861 99.5814 81.0611C99.0127 81.2486 98.2543 81.0611 97.8751 80.6861C97.6855 80.4987 97.6855 80.1237 97.8751 79.9362C98.0647 79.1864 99.0127 77.6866 98.6335 77.1242C94.8417 78.4365 92.1875 79.9362 88.3957 80.4987Z" fill="#C1FFB8"/>
<path d="M89.3442 11.1347L82.519 14.1343C82.519 14.1343 74.5563 22.1956 79.296 37.3808C84.6045 54.4408 95.2215 63.8144 104.891 59.1276C106.407 58.3777 109.63 54.0659 109.63 54.0659L89.5338 10.7598L89.3442 11.1347Z" fill="#59B24F"/>
<path d="M107.131 56.0964C113.611 53.7204 115.056 41.6424 110.36 29.1194C105.663 16.5964 96.6032 8.37066 90.1237 10.7467C83.6442 13.1227 82.1988 25.2007 86.8953 37.7237C91.5918 50.2467 100.652 58.4724 107.131 56.0964Z" fill="#84D17D"/>
<path d="M107.165 54.2538C102.425 56.691 94.083 49.942 89.3433 38.6936C84.6036 27.4453 85.3619 14.8847 90.1017 12.4475C94.8414 10.0104 103.942 17.3218 108.681 28.5701C113.421 39.8185 111.904 51.8167 107.165 54.2538Z" fill="#B0EDA9"/>
<path d="M94.6521 19.9452C94.8416 19.3828 94.8416 18.8204 95.4104 18.4454C96.1688 18.0705 96.9271 18.8204 97.3063 19.5703C98.0647 21.07 98.6334 22.7573 98.823 24.632C99.2022 23.8821 99.5814 23.1322 100.15 22.5698C100.34 22.3824 100.34 22.3824 100.529 22.1949C100.909 22.1949 101.098 22.5698 101.098 23.1322C101.288 25.1944 101.098 27.2566 100.529 29.5063C100.909 28.7564 101.477 28.0065 102.236 27.6316C102.994 27.2566 103.942 27.0692 104.7 27.6316C105.648 28.194 105.648 29.6938 105.269 30.8186C104.89 31.9434 103.942 32.6933 103.184 33.4432C104.89 34.1931 106.407 35.6929 106.975 37.5676C107.165 37.9426 107.165 38.505 106.975 38.8799C106.596 39.4423 105.648 39.2549 105.079 38.8799C106.596 40.5672 107.165 43.3792 106.407 45.6289C106.407 46.0039 106.217 46.1913 105.838 46.3788C105.648 46.3788 105.459 46.3788 105.269 46.3788C103.942 46.1913 102.994 45.254 102.236 44.3166C101.477 43.1918 100.909 42.0669 100.529 40.7546C100.719 42.0669 100.529 43.5667 100.34 44.879C100.34 45.0665 100.34 45.254 100.15 45.4414C99.9606 45.4414 99.9606 45.4414 99.771 45.4414C98.2543 45.254 97.1167 43.7542 96.7375 42.0669C96.548 40.3797 96.9271 38.6924 97.3063 37.0052C96.9271 37.9426 96.1688 38.8799 95.2208 39.2549C94.2729 39.6298 93.1353 39.0674 92.9458 38.13C92.9458 37.7551 92.9458 37.1927 93.1353 36.8177C93.7041 35.5054 94.2729 34.1931 95.2208 33.2557C93.7041 34.0056 91.8082 33.2557 91.0499 31.756C90.8603 31.381 90.6707 30.8186 90.8603 30.4437C91.0499 29.8812 91.6186 29.6938 92.1874 29.6938C92.7562 29.6938 93.1353 29.8812 93.7041 30.0687C92.5666 29.3188 91.2394 28.194 91.429 26.6942C91.429 26.3193 91.8082 25.7569 92.1874 25.7569C92.377 25.7569 92.7562 25.7569 92.9458 25.9443C93.5145 26.3193 94.6521 27.4441 95.2208 27.4441C94.6521 24.8195 94.0833 22.5698 94.6521 19.9452Z" fill="#C1FFB8"/>
<path d="M58.8198 63.4393C58.8198 63.4393 60.147 81.8116 84.0352 78.4371C108.113 75.0626 103.563 55.9404 103.563 55.9404L58.8198 63.4393Z" fill="#E24C24"/>
<path d="M82.5705 68.5889C94.8799 66.6792 104.24 61.2338 103.477 56.4264C102.715 51.619 92.1176 49.27 79.8082 51.1798C67.4988 53.0895 58.1384 58.5349 58.9012 63.3423C59.664 68.1497 70.2611 70.4987 82.5705 68.5889Z" fill="#FF5A27"/>
<path d="M82.3952 67.4764C93.6702 65.7271 102.271 60.9094 101.606 56.7157C100.94 52.522 91.2605 50.5404 79.9855 52.2897C68.7105 54.039 60.1097 58.8567 60.7752 63.0504C61.4406 67.2441 71.1202 69.2257 82.3952 67.4764Z" fill="#FF8B78"/>
<path d="M72.8493 58.1907C72.0909 58.7531 71.3326 59.503 71.5221 60.4403C71.5221 60.8153 71.9013 61.1902 71.9013 61.5652C71.9013 61.9401 71.7117 62.3151 71.7117 62.69C71.7117 62.8775 71.9013 63.2524 72.0909 63.4399C73.418 64.5647 75.3139 64.1898 77.0202 63.8149C81.3808 62.8775 85.5518 61.7527 89.9123 60.8153C91.0499 60.6278 92.377 60.0654 92.5666 59.128C92.9458 58.1907 92.377 57.2533 91.429 56.6909C90.6707 56.1285 89.7227 55.941 88.7748 55.941C85.9309 55.5661 83.0871 55.5661 80.2433 56.1285C77.589 56.3159 75.1243 56.6909 72.8493 58.1907Z" fill="#FF5A27"/>
<path d="M64.8858 62.6911C65.6441 62.5037 66.4025 62.3162 67.1609 62.1287C67.3505 62.1287 67.3505 61.9412 67.54 61.7538C67.54 61.5663 67.54 61.3788 67.54 61.1913C67.3505 60.8164 66.9713 60.8164 66.7817 60.8164C66.5921 60.8164 66.4025 61.0039 66.0233 61.0039H66.2129C65.6442 61.1913 65.265 61.1913 64.6962 61.3788C64.317 61.3788 64.1274 61.7538 64.1274 62.1287C64.317 62.5037 64.5066 62.6911 64.8858 62.6911Z" fill="#FFB164"/>
<path d="M66.4032 59.8767C67.1615 59.6893 66.9719 58.5645 66.2136 58.5645C65.2656 58.7519 65.4552 60.0642 66.4032 59.8767Z" fill="#FFB164"/>
<path d="M66.4037 59.8768C66.9725 59.8768 67.3517 59.8768 67.9204 59.6893C68.11 59.6893 68.2996 59.5018 68.2996 59.5018C68.2996 59.3143 68.4892 59.1269 68.4892 59.1269C68.4892 58.9394 68.2996 58.7519 68.2996 58.7519C68.11 58.5645 67.9204 58.5645 67.9204 58.5645C67.3517 58.5645 66.9725 58.5645 66.4037 58.7519C66.2141 58.7519 66.0246 58.9394 66.0246 58.9394C66.0246 59.1269 65.835 59.3143 65.835 59.3143C65.835 59.5018 66.0246 59.6893 66.0246 59.6893C66.0246 59.8768 66.2141 59.8768 66.4037 59.8768Z" fill="#FFB164"/>
<path d="M70.0055 56.3153C70.0055 56.5028 70.1951 56.5028 70.1951 56.6902C70.1951 56.8777 70.3847 56.8777 70.5742 56.8777C70.7638 57.0652 71.143 57.0652 71.3326 57.2527H71.5222C71.5222 57.2527 71.7118 57.2527 71.7118 57.0652L71.9014 56.8777V56.6902V56.5028C71.9014 56.3153 71.9014 56.3153 71.7118 56.1278C71.5222 55.9403 71.5222 55.9403 71.3326 55.9403C71.3326 55.9403 71.3326 55.9403 71.143 55.9403H71.3326C71.3326 55.9403 71.143 55.9403 71.143 55.7529C71.143 55.7529 71.143 55.7529 71.3326 55.7529L71.143 55.5654C71.143 55.5654 71.143 55.5654 71.3326 55.7529L71.143 55.5654C71.143 55.5654 71.143 55.5654 71.143 55.7529C71.143 55.7529 71.143 55.5654 70.9534 55.5654L70.7638 55.3779H70.5742H70.3847C70.1951 55.3779 70.1951 55.5654 70.0055 55.7529C69.8159 55.9403 69.8159 56.1278 70.0055 56.3153Z" fill="#FFB164"/>
<path d="M73.9863 55.0028C73.9863 55.1903 74.1759 55.3777 74.1759 55.7527C74.1759 55.7527 74.1759 55.9402 74.3655 55.9402L74.5551 56.1276H74.7447H74.9343C75.1239 56.1276 75.1239 55.9402 75.3134 55.7527V55.5652C75.3134 55.3777 75.3134 55.3777 75.3134 55.1903C75.3134 55.0028 75.1239 54.8153 75.1239 54.4404C75.1239 54.4404 75.1239 54.2529 74.9343 54.2529L74.7447 54.0654H74.5551H74.3655C74.1759 54.0654 74.1759 54.2529 73.9863 54.4404V54.6278C73.9863 54.8153 73.9863 54.8153 73.9863 55.0028Z" fill="#FFB164"/>
<path d="M82.5184 54.4412C82.708 54.2537 82.8976 54.0662 83.0872 53.6913C83.0872 53.6913 83.0872 53.5038 83.2768 53.5038V53.3163V53.1289C83.2768 53.1289 83.2768 52.9414 83.0872 52.9414C83.0872 52.9414 83.0872 52.9414 82.8976 52.9414C82.708 52.9414 82.708 52.9414 82.5184 52.9414H82.3288C82.1392 52.9414 82.1392 53.1289 82.1392 53.1289C81.9496 53.3163 81.76 53.5038 81.5705 53.8788C81.5705 53.8788 81.5704 54.0662 81.3809 54.0662V54.2537V54.4412C81.3809 54.4412 81.3809 54.6287 81.5705 54.6287C81.5705 54.6287 81.5705 54.6287 81.76 54.6287C81.9496 54.6287 81.9496 54.6287 82.1392 54.6287H82.3288L82.5184 54.4412Z" fill="#FFB164"/>
<path d="M88.3962 54.4402C88.7754 54.2527 89.1545 54.0652 89.5337 53.8777C89.7233 53.8777 89.7233 53.6903 89.9129 53.5028C89.9129 53.3153 89.9129 53.1278 89.9129 52.9404C89.9129 52.7529 89.7233 52.7529 89.5337 52.5654C89.3441 52.5654 89.1545 52.5654 88.965 52.5654C88.5858 52.7529 88.2066 52.9404 87.8274 53.1278C87.6378 53.1278 87.6378 53.3153 87.4482 53.5028C87.4482 53.6903 87.4482 53.8777 87.4482 54.0652C87.4482 54.2527 87.6378 54.2527 87.8274 54.4402C88.017 54.4402 88.2066 54.4402 88.3962 54.4402Z" fill="#FFB164"/>
<path d="M92.946 55.3787C93.7044 55.3787 94.2731 55.1912 94.8419 55.0037C95.0315 55.0037 95.0315 54.8162 95.2211 54.6288C95.2211 54.4413 95.2211 54.2538 95.2211 54.0664C95.2211 53.8789 95.0315 53.8789 94.8419 53.6914C94.6523 53.6914 94.4627 53.6914 94.2731 53.6914C94.0835 53.6914 94.0835 53.6914 93.8939 53.8789H94.0835C93.7043 54.0664 93.1356 54.0664 92.5668 54.0664C92.1876 54.0664 91.998 54.4413 91.998 54.8162C92.1876 55.3787 92.5668 55.5661 92.946 55.3787Z" fill="#FFB164"/>
<path d="M95.7895 58.0027C96.3582 58.0027 97.1166 58.0027 97.6854 58.1902C97.875 58.1902 98.0645 58.1902 98.0645 58.0027C98.2541 57.8153 98.2541 57.8153 98.2541 57.6278C98.2541 57.2528 98.0645 56.8779 97.6854 56.8779C97.1166 56.8779 96.3582 56.8779 95.7895 56.6904C95.5999 56.6904 95.4103 56.6904 95.4103 56.8779C95.2207 57.0654 95.2207 57.0654 95.2207 57.2528C95.2207 57.6278 95.4103 58.0027 95.7895 58.0027Z" fill="#FFB164"/>
<path d="M93.3258 60.4393C93.705 60.6268 94.0842 60.8143 94.4634 61.0017C94.4634 61.0017 94.653 61.0017 94.653 61.1892H94.8425C95.0321 61.1892 95.2217 61.0017 95.2217 61.0017C95.2217 60.8143 95.4113 60.6268 95.4113 60.6268C95.4113 60.4393 95.2217 60.2518 95.2217 60.2518C94.8425 60.0644 94.4634 59.8769 94.0842 59.6894C94.0842 59.6894 93.8946 59.6894 93.8946 59.502H93.705C93.5154 59.502 93.3258 59.6894 93.3258 59.6894C93.3258 59.8769 93.1362 60.0644 93.1362 60.0644C93.1362 60.2518 93.1362 60.4393 93.3258 60.4393Z" fill="#FFB164"/>
<path d="M89.1539 63.0643L89.3435 63.2518C89.1539 63.2518 89.1539 63.2518 89.1539 63.0643C89.3435 63.2518 89.3435 63.4393 89.3435 63.4393V63.2518C89.3435 63.2518 89.3435 63.2518 89.3435 63.4393V63.6268C89.3435 63.6268 89.3435 63.8142 89.5331 63.8142C89.5331 63.8142 89.7227 63.8142 89.7227 64.0017H89.9123C90.1019 64.0017 90.2915 63.8142 90.2915 63.8142C90.2915 63.6268 90.4811 63.4393 90.4811 63.4393C90.4811 63.2518 90.4811 63.0643 90.2915 62.8769C90.2915 62.6894 90.1019 62.5019 89.9123 62.5019C89.7227 62.3145 89.7227 62.3145 89.5331 62.3145H89.3435C89.3435 62.3145 89.1539 62.3145 89.1539 62.5019C88.9644 62.6894 88.9644 62.6894 88.9644 62.8769V63.0643C88.9644 62.8769 88.9644 63.0643 89.1539 63.0643Z" fill="#FFB164"/>
<path d="M82.5182 64.9393C82.5182 65.1268 82.7078 65.1268 82.7078 65.3143V65.1268C82.7078 65.3143 82.7078 65.5018 82.7078 65.6892V65.8767C82.7078 65.8767 82.7078 66.0642 82.8974 66.0642C83.087 66.0642 83.2766 66.2517 83.2766 66.2517C83.4661 66.2517 83.6557 66.0642 83.6557 66.0642C83.6557 66.0642 83.6557 66.0642 83.6557 65.8767C83.6557 65.6892 83.6557 65.6892 83.6557 65.5018C83.6557 65.3143 83.6557 65.1268 83.6557 65.1268C83.6557 64.9393 83.4661 64.7519 83.4661 64.5644C83.4661 64.3769 83.2766 64.3769 83.087 64.1895H82.8974H82.7078C82.5182 64.1895 82.5182 64.3769 82.3286 64.5644C82.5182 64.5644 82.5182 64.7519 82.5182 64.9393Z" fill="#FFB164"/>
<path d="M77.5887 65.5018V65.6893C77.5887 65.6893 77.5887 65.6893 77.5887 65.5018C77.5887 65.6893 77.5887 65.6893 77.5887 65.8768C77.5887 65.8768 77.5887 65.8768 77.5887 65.5018C77.5887 65.6893 77.5887 65.8768 77.5887 65.8768C77.5887 65.8768 77.5887 65.8768 77.5887 65.6893C77.5887 65.6893 77.5887 65.8768 77.3991 65.8768C77.3991 65.8768 77.3991 66.0643 77.2095 66.0643V66.2517C77.2095 66.4392 77.3991 66.6267 77.3991 66.6267C77.5887 66.6267 77.7782 66.8141 77.7782 66.8141H77.9678C78.1574 66.8141 78.1574 66.6267 78.1574 66.6267C78.347 66.4392 78.347 66.4392 78.347 66.2517C78.347 66.2517 78.347 66.0643 78.5366 66.0643C78.5366 65.8768 78.5366 65.8768 78.5366 65.6893C78.5366 65.5018 78.5366 65.3144 78.5366 65.3144C78.5366 65.1269 78.347 64.9394 78.347 64.9394C78.1574 64.9394 77.9678 64.752 77.9678 64.752C77.7782 64.752 77.5887 64.9394 77.5887 64.9394C77.5887 65.3144 77.5887 65.5018 77.5887 65.5018Z" fill="#FFB164"/>
<path d="M72.0912 64.3778C71.9016 64.5653 71.9016 64.7528 71.712 64.9403C71.712 64.9403 71.712 64.9403 71.9016 64.7528C71.712 64.9403 71.3328 65.1277 71.1432 65.3152C70.9536 65.3152 70.9536 65.5027 70.9536 65.6902C70.9536 65.8776 70.9536 66.0651 71.1432 66.0651C71.3328 66.2526 71.3328 66.2526 71.5224 66.2526H71.712C71.9016 66.2526 71.9016 66.2526 72.0912 66.0651C72.6599 65.6902 73.0391 65.3152 73.4183 64.7528C73.4183 64.5653 73.6079 64.3778 73.6079 64.3778C73.6079 64.1904 73.4183 64.0029 73.4183 64.0029C73.2287 64.0029 73.0391 63.8154 73.0391 63.8154C72.4703 64.1904 72.2807 64.1904 72.0912 64.3778Z" fill="#FFB164"/>
<path d="M66.7826 65.3143C66.9721 65.1268 66.9721 64.9393 67.1617 64.9393C67.1617 64.9393 67.1617 64.7519 67.3513 64.7519V64.5644V64.3769C67.3513 64.3769 67.3513 64.1895 67.1617 64.1895C67.1617 64.1895 67.1617 64.1895 66.9721 64.1895C66.7826 64.1895 66.7826 64.1895 66.593 64.1895H66.4034C66.2138 64.1895 66.2138 64.3769 66.2138 64.3769C66.0242 64.5644 66.0242 64.7519 65.8346 64.7519C65.8346 64.7519 65.8346 64.9393 65.645 64.9393V65.1268V65.3143C65.645 65.3143 65.645 65.5018 65.8346 65.5018C65.8346 65.5018 65.8346 65.5018 66.0242 65.5018C66.2138 65.5018 66.2138 65.5018 66.4034 65.5018H66.593C66.593 65.5018 66.593 65.5018 66.7826 65.3143Z" fill="#FFB164"/>
<path opacity="0.24" d="M68.8676 75.251C70.1948 75.8134 71.7115 76.5633 73.2282 76.3758C73.797 76.3758 74.3657 76.0009 74.3657 75.4385C74.3657 75.0635 73.797 74.6886 73.4178 74.5011C72.4698 74.1262 71.5219 73.7512 70.9531 73.0013C69.8156 71.8765 67.5405 68.877 65.2654 70.1893C63.18 71.689 67.7301 74.6886 68.8676 75.251Z" fill="white"/>
<path d="M109.441 50.3167C109.441 50.3167 121.006 64.5646 138.827 48.442C156.649 32.3193 142.05 19.1963 142.05 19.1963L109.441 50.3167Z" fill="#E24C24"/>
<path d="M131.999 41.3108C141.054 32.8463 145.653 23.1176 142.272 19.5813C138.891 16.045 128.81 20.0401 119.756 28.5046C110.701 36.9692 106.101 46.6978 109.482 50.2342C112.863 53.7705 122.944 49.7754 131.999 41.3108Z" fill="#FF5A27"/>
<path d="M131.217 40.4942C139.511 32.741 143.844 23.9549 140.895 20.87C137.945 17.7851 128.831 21.5696 120.537 29.3228C112.243 37.0761 107.91 45.8621 110.86 48.947C113.809 52.0319 122.923 48.2474 131.217 40.4942Z" fill="#FF8B78"/>
<path d="M117.972 38.3176C117.593 39.0674 117.404 40.1923 118.162 40.9422C118.352 41.1296 118.731 41.3171 119.11 41.6921C119.3 42.067 119.3 42.4419 119.489 42.6294C119.679 42.8169 119.868 43.0044 120.247 43.0044C121.954 43.1918 123.281 41.8795 124.418 40.5672C127.452 37.3802 130.296 34.1932 133.329 30.8187C134.088 30.0688 134.846 28.9439 134.656 27.8191C134.467 26.8818 133.329 26.3193 132.381 26.3193C131.433 26.3193 130.485 26.6943 129.727 27.2567C127.262 28.569 124.798 30.0688 122.712 32.131C120.816 34.1932 119.11 35.8804 117.972 38.3176Z" fill="#FF5A27"/>
<path d="M113.991 46.379C114.559 45.8166 115.128 45.2542 115.507 44.5043C115.507 44.3168 115.697 44.1294 115.507 44.1294C115.507 43.9419 115.318 43.7544 115.128 43.7544C114.749 43.5669 114.559 43.7544 114.18 43.9419C113.991 44.1294 113.801 44.3168 113.801 44.5043C113.801 44.5043 113.801 44.5043 113.991 44.3168C113.611 44.6918 113.422 45.0667 113.043 45.4417C112.853 45.6291 112.853 46.0041 113.043 46.379C113.232 46.5665 113.801 46.5665 113.991 46.379Z" fill="#FFB164"/>
<path d="M113.611 43.3803C114.18 42.8179 113.422 41.8805 112.663 42.443C112.094 43.0054 113.042 43.9427 113.611 43.3803Z" fill="#FFB164"/>
<path d="M113.612 43.3786C113.991 43.0037 114.37 42.8162 114.749 42.4413C114.939 42.2538 114.939 42.0663 114.939 42.0663C114.939 41.8789 114.939 41.6914 114.749 41.6914C114.559 41.5039 114.559 41.5039 114.37 41.5039C114.18 41.5039 113.991 41.5039 113.991 41.6914C113.612 42.0663 113.232 42.2538 112.853 42.6287C112.664 42.8162 112.664 43.0037 112.664 43.0037C112.664 43.1912 112.664 43.3786 112.853 43.3786C113.043 43.5661 113.043 43.5661 113.232 43.5661C113.232 43.5661 113.422 43.3786 113.612 43.3786Z" fill="#FFB164"/>
<path d="M114.56 38.3172C114.749 38.3172 114.749 38.5047 114.939 38.5047C115.128 38.5047 115.128 38.5047 115.318 38.5047C115.508 38.5047 115.887 38.5047 116.076 38.3172C116.076 38.3172 116.266 38.3172 116.266 38.1297L116.456 37.9423V37.7548V37.5673C116.456 37.5673 116.456 37.5673 116.266 37.3799L116.076 37.1924C115.887 37.1924 115.697 37.1924 115.697 37.1924C115.697 37.1924 115.697 37.1924 115.508 37.1924H115.697H115.508H115.697H115.508H115.697H115.508H115.697H115.508H115.318C115.318 37.1924 115.128 37.1924 115.128 37.3799L114.939 37.5673C114.939 37.7548 114.749 37.9423 114.939 37.9423C114.181 38.1297 114.37 38.3172 114.56 38.3172Z" fill="#FFB164"/>
<path d="M117.024 34.9442C117.213 35.1316 117.403 35.3191 117.593 35.3191H117.782H117.972C117.972 35.3191 118.161 35.3191 118.161 35.1316L118.351 34.9442C118.351 34.7567 118.541 34.5692 118.351 34.5692V34.3818C118.351 34.1943 118.161 34.1943 118.161 34.1943C117.972 34.0068 117.782 33.8193 117.593 33.8193H117.403H117.213C117.213 33.8193 117.024 33.8193 117.024 34.0068L116.834 34.1943C116.834 34.3818 116.645 34.5692 116.834 34.5692V34.7567C117.024 34.7567 117.024 34.9442 117.024 34.9442Z" fill="#FFB164"/>
<path d="M123.849 29.6941C123.849 29.3192 123.849 29.1317 123.849 28.7568V28.5693C123.849 28.5693 123.849 28.3818 123.66 28.3818L123.47 28.1943H123.28H123.091C122.901 28.1943 122.901 28.1943 122.712 28.3818C122.712 28.3818 122.712 28.3818 122.522 28.5693C122.522 28.7568 122.522 28.7568 122.522 28.9442C122.522 29.3192 122.522 29.5066 122.522 29.8816V30.0691C122.522 30.0691 122.522 30.2565 122.712 30.2565L122.901 30.444H123.091H123.28C123.47 30.444 123.47 30.444 123.66 30.2565C123.66 30.2565 123.66 30.2565 123.849 30.0691C123.849 30.0691 123.849 29.8816 123.849 29.6941Z" fill="#FFB164"/>
<path d="M128.59 26.5049C128.78 26.13 128.969 25.755 129.159 25.3801C129.159 25.1926 129.348 25.0051 129.159 25.0051C129.159 24.8177 128.969 24.6302 128.78 24.6302C128.59 24.6302 128.4 24.4427 128.4 24.6302C128.211 24.6302 128.021 24.8177 128.021 25.0051C127.832 25.3801 127.642 25.755 127.452 26.13C127.452 26.3174 127.263 26.5049 127.452 26.5049C127.452 26.6924 127.642 26.8799 127.832 26.8799C128.021 26.8799 128.211 27.0673 128.211 26.8799C128.4 26.6924 128.59 26.6924 128.59 26.5049Z" fill="#FFB164"/>
<path d="M132.95 24.8193C133.519 24.4444 133.898 23.882 134.277 23.3195C134.277 23.1321 134.467 22.9446 134.277 22.9446C134.277 22.7571 134.087 22.5696 133.898 22.5696C133.708 22.5696 133.519 22.3822 133.519 22.5696C133.329 22.5696 133.139 22.7571 133.139 22.9446C133.139 23.1321 132.95 23.1321 132.95 23.3195C132.95 23.3195 132.95 23.3195 133.139 23.1321C132.76 23.507 132.571 23.882 132.192 24.0694C132.002 24.2569 132.002 24.8193 132.192 25.0068C132.381 25.0068 132.571 25.0068 132.95 24.8193Z" fill="#FFB164"/>
<path d="M136.742 25.1946C137.311 24.8196 137.879 24.6321 138.258 24.2572C138.448 24.2572 138.448 24.0697 138.638 23.8823C138.638 23.6948 138.638 23.5073 138.638 23.5073C138.448 23.3198 138.069 23.1324 137.879 23.3198C137.311 23.6948 136.742 23.8823 136.363 24.2572C136.173 24.2572 136.173 24.4447 135.983 24.6321C135.983 24.8196 135.983 25.0071 135.983 25.0071C135.983 25.1946 136.552 25.382 136.742 25.1946Z" fill="#FFB164"/>
<path d="M136.173 28.7586C136.552 28.7586 137.121 28.7586 137.5 28.7586H137.69C137.69 28.7586 137.88 28.7586 137.88 28.5711C138.069 28.3837 138.069 28.3837 138.069 28.1962C138.069 28.0087 138.069 27.8213 137.88 27.8213C137.69 27.6338 137.69 27.6338 137.5 27.6338C137.121 27.6338 136.552 27.6338 136.173 27.6338H135.984C135.984 27.6338 135.794 27.6338 135.794 27.8213C135.604 28.0087 135.604 28.0087 135.604 28.1962C135.604 28.3837 135.604 28.5711 135.794 28.5711C135.794 28.5711 135.984 28.7586 136.173 28.7586Z" fill="#FFB164"/>
<path d="M134.276 33.2557H134.466H134.276C134.466 33.2557 134.656 33.4431 134.656 33.4431C134.656 33.4431 134.656 33.4431 134.466 33.2557L134.656 33.4431H134.845H135.035C135.035 33.4431 135.224 33.4431 135.224 33.2557C135.414 33.0682 135.414 33.0682 135.414 32.8807C135.414 32.6932 135.414 32.5058 135.224 32.5058C135.035 32.3183 135.035 32.3183 134.845 32.1308C134.656 32.1308 134.466 31.9434 134.276 31.9434C134.087 31.9434 133.897 31.9434 133.897 31.9434C133.897 31.9434 133.708 31.9434 133.708 32.1308L133.518 32.3183C133.518 32.5058 133.518 32.6932 133.518 32.6932C133.518 32.6932 133.518 32.6932 133.708 32.8807C133.897 33.0682 134.087 33.2557 134.276 33.2557Z" fill="#FFB164"/>
<path d="M129.916 38.505C130.106 38.505 130.106 38.6925 130.295 38.6925C130.295 38.6925 130.295 38.6925 130.106 38.505C130.295 38.6925 130.295 38.6925 130.485 38.8799L130.674 39.0674H130.864C131.054 39.0674 131.243 39.0674 131.243 38.8799C131.433 38.6925 131.433 38.6925 131.433 38.505V38.3175C131.433 38.1301 131.433 38.1301 131.243 37.9426C131.054 37.7551 131.054 37.7551 130.864 37.5676C130.674 37.3802 130.485 37.3802 130.295 37.1927C130.106 37.1927 129.916 37.0052 129.916 37.1927C129.916 37.1927 129.727 37.1927 129.727 37.3802L129.537 37.5676C129.537 37.7551 129.347 37.9426 129.537 37.9426C129.537 38.3175 129.727 38.3175 129.916 38.505Z" fill="#FFB164"/>
<path d="M126.125 41.6922C126.125 41.6922 126.314 41.8797 126.125 41.6922C126.314 41.8797 126.314 41.6922 126.125 41.6922C126.314 41.8797 126.314 41.8797 126.314 41.8797C126.314 41.8797 126.314 41.8797 126.125 41.6922C126.314 41.8797 126.314 42.0671 126.314 42.0671V41.8797V42.0671V42.2546C126.314 42.2546 126.314 42.4421 126.504 42.4421C126.694 42.6295 126.694 42.6295 126.883 42.6295C127.073 42.6295 127.262 42.6295 127.262 42.4421C127.262 42.4421 127.262 42.4421 127.452 42.2546C127.452 42.0671 127.452 42.0671 127.452 41.8797C127.452 41.6922 127.452 41.6922 127.452 41.5047V41.3172C127.452 41.1298 127.452 41.1298 127.262 40.9423C127.262 40.7548 127.073 40.7548 127.073 40.5674C126.883 40.3799 126.883 40.3799 126.694 40.3799C126.504 40.3799 126.314 40.3799 126.314 40.5674C126.125 40.7548 126.125 40.7548 126.125 40.9423C125.935 41.5047 126.125 41.5047 126.125 41.6922Z" fill="#FFB164"/>
<path d="M121.006 43.7538C121.006 43.9413 121.006 44.1288 121.006 44.5037V44.3162C121.006 44.6912 120.816 44.8787 120.816 45.2536C120.816 45.4411 120.816 45.6285 120.816 45.6285C120.816 45.816 121.006 45.816 121.196 46.0035C121.385 46.0035 121.575 46.0035 121.575 46.0035C121.575 46.0035 121.575 46.0035 121.764 45.816L121.954 45.6285C122.144 45.0661 122.333 44.5037 122.333 43.9413C122.333 43.7538 122.333 43.5664 122.144 43.5664C121.954 43.1914 121.764 43.1914 121.575 43.1914C121.385 43.1914 121.196 43.1914 121.196 43.3789C121.006 43.3789 121.006 43.5663 121.006 43.7538Z" fill="#FFB164"/>
<path d="M117.024 47.6922C117.024 47.5047 117.024 47.3173 117.024 47.1298V46.9423C117.024 46.9423 117.024 46.7549 116.835 46.7549L116.645 46.5674H116.456H116.266C116.076 46.5674 116.076 46.5674 115.887 46.7549C115.887 46.7549 115.887 46.7549 115.697 46.9423C115.697 47.1298 115.697 47.1298 115.697 47.3173C115.697 47.5047 115.697 47.6922 115.697 47.8797V48.0672C115.697 48.0672 115.697 48.2546 115.887 48.2546L116.076 48.4421H116.266H116.456C116.645 48.4421 116.645 48.4421 116.835 48.2546C116.835 48.2546 116.835 48.2546 117.024 48.0672C117.024 47.8797 117.024 47.6922 117.024 47.6922Z" fill="#FFB164"/>
<path opacity="0.24" d="M124.418 54.4399C125.935 54.2524 127.451 53.8774 128.778 52.9401C129.158 52.5651 129.537 52.0027 129.347 51.4403C129.158 51.0653 128.589 51.0653 128.02 51.2528C127.072 51.4403 126.124 51.6278 124.987 51.4403C123.28 51.2528 119.678 49.9405 118.73 52.3777C117.593 54.8148 123.28 54.6273 124.418 54.4399Z" fill="white"/>
<path d="M131.243 71.3159C131.243 71.3159 136.552 88.9383 159.302 80.502C182.053 72.0658 173.142 54.4434 173.142 54.4434L131.243 71.3159Z" fill="#E24C24"/>
<path d="M155.542 71.2818C167.141 66.7821 175.087 59.4621 173.29 54.9321C171.493 50.4021 160.633 50.3775 149.033 54.8771C137.434 59.3767 129.488 66.6967 131.285 71.2268C133.083 75.7568 143.943 75.7814 155.542 71.2818Z" fill="#FF5A27"/>
<path d="M155.127 70.2326C165.752 66.1111 173.094 59.5664 171.526 55.6147C169.958 51.6629 160.074 51.8006 149.45 55.9221C138.825 60.0436 131.483 66.5883 133.051 70.54C134.619 74.4917 144.503 74.3541 155.127 70.2326Z" fill="#FF8B78"/>
<path d="M143.757 63.2532C143.188 63.8156 142.429 64.753 142.809 65.6903C142.998 66.0653 143.188 66.2527 143.377 66.6277C143.377 67.0026 143.188 67.3776 143.377 67.7525C143.377 67.94 143.757 68.1275 143.946 68.3149C145.463 69.0648 147.169 68.5024 148.875 67.7525C152.857 65.8778 156.838 64.0031 160.82 62.1283C161.768 61.5659 163.095 61.0035 163.095 59.8787C163.095 58.9413 162.526 58.0039 161.578 57.8165C160.63 57.4415 159.682 57.4415 158.734 57.629C155.89 58.0039 153.046 58.3789 150.392 59.6912C147.928 60.4411 145.652 61.3784 143.757 63.2532Z" fill="#FF5A27"/>
<path d="M136.931 69.2546C137.689 68.8797 138.448 68.5048 139.017 68.1298C139.206 68.1298 139.206 67.9423 139.206 67.7549C139.206 67.5674 139.206 67.3799 139.017 67.1924C138.827 66.8175 138.448 66.8175 138.069 67.005C137.879 67.1925 137.689 67.1925 137.5 67.3799H137.689C137.31 67.5674 136.741 67.9423 136.362 68.1298C135.983 68.3173 135.793 68.6922 135.983 68.8797C136.362 69.2546 136.741 69.4421 136.931 69.2546Z" fill="#FFB164"/>
<path d="M137.689 66.255C138.448 65.88 138.069 64.7552 137.31 65.1302C136.552 65.3176 136.931 66.6299 137.689 66.255Z" fill="#FFB164"/>
<path d="M137.69 66.2527C138.069 66.0652 138.638 66.0652 139.017 65.8777C139.206 65.8777 139.396 65.6903 139.396 65.5028C139.396 65.3153 139.396 65.1278 139.396 64.9404C139.396 64.7529 139.206 64.5654 139.017 64.5654C138.827 64.5654 138.638 64.5654 138.448 64.5654C138.069 64.7529 137.5 64.7529 137.121 64.9404C136.931 64.9404 136.742 65.1278 136.742 65.3153C136.742 65.5028 136.742 65.6903 136.742 65.8777C136.742 66.0652 136.931 66.2527 137.121 66.2527C137.5 66.2527 137.5 66.2527 137.69 66.2527Z" fill="#FFB164"/>
<path d="M140.534 61.9422C140.534 62.1297 140.724 62.1297 140.913 62.1297C141.103 62.1297 141.103 62.3172 141.292 62.3172C141.482 62.5047 141.861 62.5047 142.051 62.5047H142.24C142.24 62.5047 142.43 62.5047 142.43 62.3172C142.43 62.3172 142.43 62.1297 142.62 62.1297V61.9422V61.7548C142.62 61.5673 142.43 61.5673 142.43 61.5673C142.24 61.3798 142.051 61.3798 142.051 61.3798C142.051 61.3798 142.051 61.3798 141.861 61.3798H142.051H141.861H142.051C142.051 61.3798 141.861 61.3798 141.861 61.1924C141.861 61.1924 141.861 61.1924 142.051 61.1924L141.861 61.0049C141.861 61.0049 141.861 61.0049 142.051 61.1924L141.861 61.0049H141.672H141.482C141.482 61.0049 141.292 61.0049 141.292 61.1924C141.103 61.3798 141.103 61.3798 141.103 61.5673C140.344 61.7548 140.344 61.9422 140.534 61.9422Z" fill="#FFB164"/>
<path d="M144.136 59.8778C144.325 60.0652 144.325 60.2527 144.515 60.4402L144.705 60.6277H144.894H145.084C145.084 60.6277 145.273 60.6277 145.273 60.4402C145.463 60.2527 145.463 60.2527 145.463 60.0652V59.8778C145.463 59.6903 145.463 59.6903 145.273 59.5028C145.084 59.3154 145.084 59.1279 144.894 58.9404L144.705 58.7529H144.515H144.325C144.325 58.7529 144.136 58.7529 144.136 58.9404C143.946 59.1279 143.946 59.1279 143.946 59.3154V59.5028C144.136 59.6903 144.136 59.6903 144.136 59.8778Z" fill="#FFB164"/>
<path d="M152.477 57.4412C152.667 57.2537 152.667 56.8788 152.856 56.6913V56.5038V56.3164C152.856 56.3164 152.856 56.1289 152.667 56.1289L152.477 55.9414H152.287C152.098 55.9414 152.098 55.9414 151.908 55.9414H151.719L151.529 56.1289C151.339 56.3164 151.339 56.6913 151.15 56.8788V57.0662V57.2537C151.15 57.2537 151.15 57.4412 151.339 57.4412L151.529 57.6287H151.719C151.908 57.6287 151.908 57.6287 152.098 57.6287H152.287C152.287 57.6287 152.287 57.6287 152.477 57.4412Z" fill="#FFB164"/>
<path d="M157.975 56.1286C158.354 55.9412 158.733 55.5662 158.923 55.3787C159.113 55.1913 159.113 55.1913 159.113 55.0038C159.113 54.8163 159.113 54.6289 158.923 54.4414C158.733 54.2539 158.733 54.2539 158.544 54.2539C158.354 54.2539 158.165 54.2539 157.975 54.4414C157.596 54.6289 157.217 55.0038 157.027 55.1913C156.837 55.3787 156.837 55.3787 156.837 55.5662C156.837 55.7537 156.837 55.9412 157.027 56.1286C157.217 56.3161 157.217 56.3161 157.406 56.3161C157.785 56.3161 157.975 56.3161 157.975 56.1286Z" fill="#FFB164"/>
<path d="M162.715 56.3181C163.283 56.1306 164.042 55.7557 164.611 55.5682C164.8 55.5682 164.8 55.3807 164.8 55.1933C164.8 55.0058 164.8 54.8183 164.611 54.6308C164.421 54.4434 164.421 54.4434 164.231 54.4434C164.042 54.4434 163.852 54.4434 163.663 54.6308C163.473 54.6308 163.473 54.8183 163.283 54.8183H163.473C163.094 55.0058 162.525 55.1933 162.146 55.3807C161.767 55.5682 161.577 55.9431 161.767 56.1306C161.956 56.1306 162.336 56.3181 162.715 56.3181Z" fill="#FFB164"/>
<path d="M166.128 58.0047C166.696 57.8172 167.455 57.8172 168.023 57.6297C168.213 57.6297 168.403 57.4422 168.403 57.4422C168.403 57.2548 168.592 57.0673 168.592 57.0673C168.592 56.6924 168.213 56.5049 167.834 56.5049C167.265 56.6924 166.507 56.6924 165.938 56.8798C165.748 56.8798 165.559 57.0673 165.559 57.0673C165.559 57.2548 165.369 57.4422 165.369 57.4422C165.369 57.8172 165.748 58.1921 166.128 58.0047Z" fill="#FFB164"/>
<path d="M164.232 61.0047C164.611 61.1922 164.991 61.1922 165.559 61.3796H165.749H165.939C166.128 61.3796 166.318 61.1922 166.318 61.0047C166.318 60.8172 166.318 60.6297 166.318 60.4423C166.318 60.2548 166.128 60.0673 165.939 60.0673C165.559 59.8799 165.18 59.8799 164.611 59.6924H164.422H164.232C164.043 59.6924 163.853 59.8799 163.853 60.0673C163.853 60.2548 163.853 60.4423 163.853 60.6297C164.043 60.8172 164.043 61.0047 164.232 61.0047Z" fill="#FFB164"/>
<path d="M160.629 64.5653L160.819 64.7527C160.819 64.5653 160.819 64.5653 160.629 64.5653C160.819 64.7527 160.819 64.7527 161.009 64.9402V64.7527C161.009 64.7527 161.009 64.7527 161.009 64.9402C161.009 64.9402 161.009 65.1277 161.198 65.1277L161.388 65.3152H161.577H161.767C161.957 65.3152 162.146 65.1277 162.146 64.9402C162.146 64.7527 162.146 64.5653 162.146 64.3778C162.146 64.1903 161.957 64.0028 161.957 64.0028C161.767 63.8154 161.767 63.8154 161.577 63.6279C161.388 63.4404 161.198 63.4404 161.198 63.4404H161.009C161.009 63.4404 160.819 63.4404 160.819 63.6279C160.819 63.8154 160.629 64.0028 160.629 64.0028V64.1903C160.629 64.3778 160.629 64.3778 160.629 64.5653Z" fill="#FFB164"/>
<path d="M154.753 67.7537C154.753 67.9412 154.943 67.9412 154.943 68.1287V67.9412C154.943 68.1287 155.132 68.3162 155.132 68.3162C155.132 68.3162 155.132 68.5036 155.322 68.5036L155.511 68.6911C155.701 68.6911 155.89 68.6911 156.08 68.6911C156.27 68.6911 156.459 68.5036 156.459 68.3162V68.1287C156.459 67.9412 156.459 67.9412 156.459 67.7537C156.459 67.5663 156.27 67.3788 156.27 67.3788C156.08 67.1913 156.08 67.0038 155.89 66.8164C155.701 66.6289 155.701 66.6289 155.511 66.6289H155.322C155.322 66.6289 155.132 66.6289 155.132 66.8164C154.943 67.0038 154.943 67.0038 154.943 67.1913C154.563 67.3788 154.563 67.5663 154.753 67.7537Z" fill="#FFB164"/>
<path d="M150.013 69.4393V69.6268C150.013 69.4393 150.013 69.4393 150.013 69.4393C150.013 69.6268 150.013 69.6268 150.013 69.8143C150.203 69.6268 150.203 69.6268 150.013 69.4393C150.013 69.6268 150.013 69.8143 150.013 69.8143V69.6268C150.013 69.6268 150.013 69.8143 149.824 69.8143V70.0018V70.1892C149.824 70.3767 150.013 70.5642 150.203 70.5642C150.393 70.5642 150.582 70.5642 150.772 70.5642H150.961L151.151 70.3767C151.151 70.1892 151.34 70.1892 151.34 70.0018V69.8143C151.34 69.6268 151.34 69.6268 151.34 69.4393C151.34 69.2519 151.34 69.2519 151.151 69.0644C151.151 68.8769 150.961 68.8769 150.772 68.6895C150.582 68.6895 150.393 68.6895 150.203 68.6895C150.013 68.6895 149.824 68.8769 149.824 69.0644C150.013 69.0644 150.013 69.2519 150.013 69.4393Z" fill="#FFB164"/>
<path d="M144.514 69.4403C144.514 69.6278 144.325 69.8153 144.135 70.0028C144.135 70.0028 144.135 70.0028 144.135 69.8153C143.946 70.1902 143.756 70.3777 143.567 70.5652C143.377 70.7526 143.377 70.9401 143.377 70.9401C143.377 71.1276 143.567 71.3151 143.567 71.3151C143.756 71.3151 143.946 71.5025 143.946 71.5025H144.135C144.325 71.5025 144.325 71.3151 144.325 71.3151C144.704 70.9401 145.083 70.3777 145.273 69.8153C145.273 69.6278 145.273 69.4403 145.273 69.2529C145.273 69.0654 145.083 68.8779 144.894 68.8779C144.704 68.8779 144.514 68.8779 144.325 68.8779C144.704 69.0654 144.514 69.2529 144.514 69.4403Z" fill="#FFB164"/>
<path d="M139.396 71.5008C139.396 71.3133 139.586 71.1258 139.586 70.9384V70.7509V70.5634C139.586 70.5634 139.586 70.3759 139.396 70.3759L139.206 70.1885H139.017C138.827 70.1885 138.827 70.1885 138.638 70.1885H138.448L138.258 70.3759C138.258 70.5634 138.069 70.7509 138.069 70.9384V71.1258V71.3133C138.069 71.3133 138.069 71.5008 138.258 71.5008L138.448 71.6883H138.638C138.827 71.6883 138.827 71.6883 139.017 71.6883H139.206C139.206 71.6883 139.206 71.6883 139.396 71.5008Z" fill="#FFB164"/>
<path opacity="0.24" d="M143.567 80.6886C145.083 81.0635 146.6 81.251 148.117 80.8761C148.685 80.6886 149.254 80.3136 149.065 79.7512C148.875 79.3763 148.496 79.1888 147.927 79.0013C146.979 78.8139 146.031 78.6264 145.083 78.064C143.567 77.1266 140.723 74.6895 138.827 76.5642C137.12 78.4389 142.429 80.3136 143.567 80.6886Z" fill="white"/>
<path d="M28.1061 40.5674C28.1061 40.5674 10.6639 47.1289 20.7121 68.8757C30.7604 90.435 48.013 80.6865 48.013 80.6865L28.1061 40.5674Z" fill="#E24C24"/>
<path d="M47.5777 80.761C52.0256 78.6782 51.308 67.9625 45.9751 56.8267C40.6421 45.691 32.7132 38.3521 28.2654 40.4349C23.8176 42.5176 24.5351 53.2334 29.8681 64.3691C35.201 75.5049 43.1299 82.8438 47.5777 80.761Z" fill="#FF5A27"/>
<path d="M46.7666 79.0675C50.6466 77.2506 49.8321 67.5091 44.9473 57.3091C40.0625 47.1091 32.9572 40.3133 29.0771 42.1302C25.1971 43.947 26.0117 53.6886 30.8965 63.8886C35.7813 74.0886 42.8866 80.8844 46.7666 79.0675Z" fill="#FF8B78"/>
<path d="M37.2063 52.3781C36.448 51.8157 35.5 51.2533 34.7416 51.6282C34.3625 51.8157 34.1729 52.1907 33.7937 52.1907C33.4145 52.1907 33.0353 52.1907 32.6562 52.1907C32.4666 52.3781 32.277 52.5656 32.0874 52.7531C31.329 54.2529 32.277 55.9401 33.0353 57.4399C35.3104 61.1893 37.3959 64.9388 39.671 68.6882C40.2397 69.6256 40.9981 70.7504 42.1356 70.7504C43.0836 70.7504 43.8419 70.0005 44.2211 69.0632C44.6003 68.1258 44.4107 67.1884 44.2211 66.2511C43.6523 63.439 42.894 60.6269 41.5669 58.1898C40.2397 56.315 39.1022 54.0654 37.2063 52.3781Z" fill="#FF5A27"/>
<path d="M30.5702 46.0038C30.9494 46.7537 31.3286 47.3161 31.8974 48.066C31.8974 48.2534 32.0869 48.2534 32.2765 48.2534C32.4661 48.2534 32.6557 48.2534 32.6557 48.066C32.8453 47.8785 32.8453 47.5035 32.6557 47.1286C32.4661 46.9411 32.4661 46.7537 32.2765 46.5662C32.2765 46.5662 32.2765 46.5662 32.2765 46.7537C32.0869 46.3787 31.7078 45.8163 31.5182 45.4414C31.3286 45.0664 30.9494 45.0664 30.7598 45.0664C30.5702 45.2539 30.3806 45.6288 30.5702 46.0038Z" fill="#FFB164"/>
<path d="M33.6046 46.5679C33.9838 47.3178 35.1214 46.7554 34.7422 46.0055C34.363 45.2556 33.2255 45.818 33.6046 46.5679Z" fill="#FFB164"/>
<path d="M33.604 46.5663C33.7936 46.9412 33.9832 47.5036 34.1728 47.8786C34.1728 48.066 34.3624 48.066 34.5519 48.2535C34.7415 48.2535 34.9311 48.2535 35.1207 48.2535C35.3103 48.2535 35.3103 48.066 35.4999 47.8786C35.4999 47.6911 35.4999 47.5036 35.4999 47.3162C35.3103 46.9412 35.1207 46.3788 34.9311 46.0039C34.9311 45.8164 34.7415 45.8164 34.5519 45.6289C34.3624 45.6289 34.1728 45.6289 33.9832 45.6289C33.7936 45.6289 33.7936 45.8164 33.604 46.0039C33.604 46.1913 33.604 46.3788 33.604 46.5663Z" fill="#FFB164"/>
<path d="M38.1548 49.0047C38.1548 49.0047 37.9653 49.1922 37.9653 49.3796C37.9653 49.5671 37.7757 49.5671 37.7757 49.7546C37.7757 49.9421 37.5861 50.317 37.7757 50.5045C37.7757 50.5045 37.7757 50.692 37.9653 50.692L38.1548 50.8794H38.3444H38.534H38.7236C38.9132 50.8794 38.9132 50.692 38.9132 50.692C38.9132 50.5045 39.1028 50.317 39.1028 50.317C39.1028 50.317 39.1028 50.317 39.1028 50.1295V50.317V50.1295V50.317V50.1295V50.317C39.1028 50.317 39.1028 50.1295 39.2924 50.1295C39.2924 50.1295 39.2924 50.1295 39.1028 50.317L39.2924 50.1295V49.9421V49.7546C39.2924 49.7546 39.2924 49.5671 39.1028 49.5671C38.9132 49.3796 38.9132 49.3796 38.7236 49.3796C38.534 48.8172 38.3444 48.8172 38.1548 49.0047Z" fill="#FFB164"/>
<path d="M40.6192 52.5654C40.4296 52.7529 40.24 52.7529 40.0504 52.9403L39.8608 53.1278V53.3153V53.5028C39.8608 53.5028 39.8608 53.6902 40.0504 53.6902C40.24 53.8777 40.24 53.8777 40.4296 53.8777H40.6192C40.8088 53.8777 40.8088 53.8777 40.9984 53.6902C41.188 53.5028 41.3776 53.5028 41.5671 53.3153L41.7567 53.1278V52.9403V52.7529C41.7567 52.7529 41.7567 52.5654 41.5671 52.5654C41.3776 52.3779 41.3776 52.3779 41.188 52.3779H40.9984C40.8088 52.3779 40.6192 52.3779 40.6192 52.5654Z" fill="#FFB164"/>
<path d="M43.463 60.4393C43.6526 60.6267 44.0318 60.6267 44.2214 60.8142H44.411H44.6006C44.6006 60.8142 44.7902 60.8142 44.7902 60.6267L44.9797 60.4393V60.2518C44.9797 60.0643 44.9797 60.0643 44.9797 59.8768C44.9797 59.8768 44.9797 59.8768 44.9797 59.6894L44.7902 59.5019C44.6006 59.3144 44.2214 59.3144 44.0318 59.127H43.8422H43.6526C43.6526 59.127 43.463 59.127 43.463 59.3144L43.2734 59.5019V59.6894C43.2734 59.8768 43.2734 59.8768 43.2734 60.0643C43.2734 60.0643 43.2734 60.0643 43.2734 60.2518C43.2734 60.2518 43.463 60.4393 43.463 60.4393Z" fill="#FFB164"/>
<path d="M45.1696 65.8758C45.3592 66.2508 45.7383 66.4383 45.9279 66.8132C46.1175 67.0007 46.1175 67.0007 46.3071 67.0007C46.4967 67.0007 46.6863 67.0007 46.6863 66.8132C46.8759 66.6257 46.8759 66.6257 46.8759 66.4383C46.8759 66.2508 46.8759 66.0633 46.6863 66.0633C46.4967 65.6884 46.1175 65.5009 45.9279 65.126C45.7383 64.9385 45.7383 64.9385 45.5487 64.9385C45.3592 64.9385 45.1696 64.9385 45.1696 65.126C44.98 65.3134 44.98 65.3134 44.98 65.5009C44.98 65.6884 45.1696 65.8758 45.1696 65.8758Z" fill="#FFB164"/>
<path d="M45.5484 70.5624C45.7379 71.1248 46.1171 71.6872 46.4963 72.2496C46.4963 72.4371 46.6859 72.4371 46.8755 72.4371C47.0651 72.4371 47.2547 72.4371 47.2547 72.2496C47.4442 72.0621 47.4442 72.0621 47.4442 71.8747C47.4442 71.6872 47.4442 71.4997 47.2547 71.4997C47.2547 71.3123 47.0651 71.3123 47.0651 71.1248C47.0651 71.1248 47.0651 71.1248 47.0651 71.3123C46.8755 70.9373 46.4963 70.5624 46.4963 69.9999C46.3067 69.625 45.9275 69.625 45.7379 69.625C45.3588 69.8125 45.3588 70.1874 45.5484 70.5624Z" fill="#FFB164"/>
<path d="M43.8423 73.9374C44.0319 74.4998 44.2215 75.0622 44.2215 75.8121C44.2215 75.9996 44.4111 76.1871 44.4111 76.1871C44.6006 76.1871 44.7902 76.3745 44.7902 76.3745C45.1694 76.3745 45.359 75.9996 45.359 75.6246C45.1694 75.0622 44.9798 74.4998 44.9798 73.7499C44.9798 73.5624 44.7902 73.375 44.7902 73.375C44.6006 73.375 44.4111 73.1875 44.4111 73.1875C44.0319 73.375 43.8423 73.5624 43.8423 73.9374Z" fill="#FFB164"/>
<path d="M40.6184 72.4374C40.4288 72.8124 40.4288 73.1873 40.2393 73.7497V73.9372V74.1247C40.2393 74.3122 40.4288 74.3122 40.6184 74.4996C40.808 74.4996 40.9976 74.4996 41.1872 74.4996C41.3768 74.4996 41.3768 74.3122 41.5664 74.1247C41.756 73.7497 41.756 73.3748 41.9456 72.8124V72.6249V72.4374C41.9456 72.25 41.756 72.25 41.5664 72.0625C41.3768 72.0625 41.1872 72.0625 40.9976 72.0625C40.808 72.0625 40.808 72.25 40.6184 72.4374Z" fill="#FFB164"/>
<path d="M37.0171 69.0615L36.8276 69.249C36.8276 69.249 36.8276 69.249 37.0171 69.0615C36.8276 69.249 36.8276 69.249 36.638 69.4364C36.638 69.4364 36.638 69.4364 36.8276 69.4364C36.8276 69.4364 36.8276 69.4364 36.638 69.4364C36.638 69.4364 36.4484 69.4364 36.4484 69.6239L36.2588 69.8114V69.9989V70.1863C36.2588 70.3738 36.4484 70.3738 36.638 70.5613C36.8276 70.5613 37.0171 70.5613 37.2067 70.5613C37.3963 70.5613 37.5859 70.3738 37.5859 70.1863C37.7755 69.9989 37.7755 69.9989 37.9651 69.8114C37.9651 69.6239 38.1547 69.4364 38.1547 69.4364C38.1547 69.4364 38.1547 69.249 37.9651 69.249L37.7755 69.0615C37.5859 69.0615 37.3963 68.874 37.3963 68.874H37.2067C37.2067 68.874 37.0171 69.0615 37.0171 69.0615Z" fill="#FFB164"/>
<path d="M33.2253 63.4376C33.0357 63.6251 33.0357 63.6251 32.8461 63.6251C33.0357 63.6251 33.0357 63.6251 33.2253 63.4376C32.8461 63.6251 32.6565 63.8125 32.6565 63.8125C32.6565 63.8125 32.4669 63.8125 32.4669 64L32.2773 64.1875C32.2773 64.375 32.2773 64.5624 32.2773 64.7499C32.2773 64.9374 32.4669 64.9374 32.6565 65.1249H32.8461C33.0357 65.1249 33.0357 65.1249 33.2253 65.1249C33.4149 65.1249 33.6045 64.9374 33.6045 64.9374C33.7941 64.7499 33.9836 64.7499 34.1732 64.5624C34.3628 64.375 34.3628 64.375 34.3628 64.1875V64C34.3628 64 34.3628 63.8125 34.1732 63.8125C33.9836 63.6251 33.9837 63.6251 33.7941 63.6251C33.6045 63.2501 33.4149 63.2501 33.2253 63.4376Z" fill="#FFB164"/>
<path d="M31.3294 58.9385H31.1398C31.1398 58.9385 31.3294 58.9385 31.3294 58.9385C31.1398 58.9385 31.1398 58.9385 30.9503 58.9385C31.1398 58.9385 31.1398 58.9385 31.3294 58.9385C31.1398 58.9385 30.9503 58.9385 30.9503 58.9385H31.1398H30.9503H30.7607H30.5711C30.3815 58.9385 30.3815 59.1259 30.1919 59.3134C30.1919 59.5009 30.1919 59.6883 30.1919 59.8758C30.1919 59.8758 30.1919 59.8758 30.1919 60.0633L30.3815 60.2507C30.5711 60.2507 30.5711 60.2508 30.7607 60.4382H30.9503C31.1398 60.4382 31.1398 60.4382 31.3294 60.4382C31.519 60.4382 31.519 60.4382 31.7086 60.2507C31.8982 60.2507 31.8982 60.0633 32.0878 59.8758C32.0878 59.6883 32.0878 59.5009 32.0878 59.3134C32.0878 59.1259 31.8982 59.1259 31.7086 58.9385C31.7086 58.751 31.519 58.751 31.3294 58.9385Z" fill="#FFB164"/>
<path d="M30.9504 53.3153C30.7608 53.3153 30.5712 53.1278 30.3816 53.1278H30.5712C30.192 52.9404 30.0024 52.7529 29.8128 52.5654C29.6232 52.5654 29.4337 52.5654 29.2441 52.5654C29.0545 52.5654 28.8649 52.7529 28.8649 52.7529C28.8649 52.9404 28.6753 53.1278 28.6753 53.1278V53.3153C28.6753 53.5028 28.8649 53.5028 28.8649 53.5028C29.2441 53.8777 29.8128 54.2527 30.3816 54.4401C30.5712 54.4401 30.7608 54.4401 30.9504 54.4401C31.14 54.4401 31.14 54.2527 31.3295 54.0652C31.3295 53.8777 31.3295 53.6903 31.3295 53.5028C31.3295 53.5028 31.14 53.5028 30.9504 53.3153Z" fill="#FFB164"/>
<path d="M28.486 48.4402C28.6756 48.4402 28.8652 48.6277 29.0547 48.6277H29.2443H29.4339C29.4339 48.6277 29.6235 48.6277 29.6235 48.4402L29.8131 48.2528V48.0653C29.8131 47.8778 29.8131 47.8778 29.8131 47.6903C29.8131 47.6903 29.8131 47.6903 29.8131 47.5029L29.6235 47.3154C29.4339 47.3154 29.2443 47.1279 29.0547 47.1279H28.8652H28.6756C28.6756 47.1279 28.486 47.1279 28.486 47.3154L28.2964 47.5029V47.6903C28.2964 47.8778 28.2964 47.8778 28.2964 48.0653C28.2964 48.0653 28.2964 48.0653 28.2964 48.2528C28.2964 48.4402 28.2964 48.4402 28.486 48.4402Z" fill="#FFB164"/>
<path opacity="0.24" d="M19.5753 53.316C19.3857 54.8158 19.1962 56.503 19.7649 57.8153C19.9545 58.3777 20.5233 58.9402 20.9025 58.7527C21.2816 58.5652 21.4712 58.0028 21.4712 57.6279C21.6608 56.6905 21.6608 55.5657 22.2296 54.8158C22.9879 53.316 25.263 50.3164 23.3671 48.6292C21.2816 46.9419 19.7649 52.1912 19.5753 53.316Z" fill="white"/>
<path d="M40.4304 59.8764C42.8951 58.3767 46.6869 58.9391 48.3932 61.1887C50.4787 58.1892 55.2184 57.6268 58.2518 59.5015C61.4748 61.3762 63.1812 65.1257 63.1812 68.6876C68.3001 67.0004 73.7982 70.7498 76.8316 75.2492C77.4004 75.9991 77.7795 76.749 78.5379 77.3114C79.4858 77.8738 80.6234 78.0613 81.7609 78.0613C90.8612 79.1861 98.824 86.685 100.53 95.6837C101.099 98.4957 100.909 101.495 99.3927 103.745C98.0656 105.62 95.9801 106.745 94.0842 107.682C91.8091 108.807 89.5341 110.119 86.8798 110.307C79.4858 110.869 74.5565 102.808 67.9209 99.8081C62.4228 97.3709 55.9768 98.3083 50.4787 95.8711C46.1181 93.9964 41.9471 90.247 38.1553 87.4349C34.9323 84.9977 32.8468 82.5606 31.7093 78.8111C30.1926 74.1243 30.951 65.1257 38.3449 67.3753C37.2074 64.7507 37.9658 61.3762 40.4304 59.8764Z" fill="#89E269"/>
<path d="M216.938 55.1914H212.387C211.629 71.8764 176.176 81.0626 111.336 81.0626C48.5823 81.0626 11.4227 69.0644 10.2852 55.1914H5.73505C5.73505 55.1914 4.02875 76.5633 16.1625 102.434C34.363 141.241 59.5784 148.365 59.5784 148.365L110.957 149.303L162.336 148.365C162.336 148.365 187.362 141.429 205.562 102.622C217.506 76.5633 216.938 55.1914 216.938 55.1914Z" fill="#EDCEB9"/>
<path d="M163.095 156.802V147.804L111.337 141.43L59.5789 148.366V156.802C59.5789 156.802 59.1998 160.927 74.9357 166.176C96.3593 173.487 131.433 171.05 148.117 166.176C163.853 161.489 163.095 156.802 163.095 156.802Z" fill="#EDCEB9"/>
<path d="M147.928 166.176C163.853 161.489 163.284 156.802 163.284 156.802V147.803L139.586 144.804C139.586 144.804 139.586 144.804 139.396 144.804C136.742 146.491 134.088 147.803 133.898 151.178C133.708 154.74 135.604 159.052 134.088 162.426C133.14 164.488 130.675 165.238 128.4 165.801C110.958 169.738 93.1363 167.3 76.0732 163.176C70.7647 161.864 65.2666 160.364 60.9061 157.364C60.5269 157.177 60.1477 156.802 59.5789 156.614C59.5789 156.614 59.1998 160.739 74.9357 165.988C96.1697 173.487 131.244 171.05 147.928 166.176Z" fill="#EABFAC"/>
<path opacity="0.38" d="M31.14 88.1865C30.0024 90.9986 30.9504 94.1856 32.0879 97.1852C35.1213 105.059 39.2923 112.37 44.0321 119.494C47.4447 124.556 51.6156 129.805 57.6825 130.93C59.768 131.305 62.043 131.118 63.9389 130.18C65.8348 129.243 67.162 127.181 67.3516 125.119C67.3516 122.869 66.214 120.994 65.0765 119.119C62.2326 114.62 59.9576 109.746 58.6304 104.684C57.8721 101.31 57.4929 97.5601 55.7866 94.5605C52.5636 88.9364 34.5526 79.0003 31.14 88.1865Z" fill="white"/>
<path opacity="0.38" d="M67.5411 151.74C66.9724 151.74 66.5932 151.74 66.0244 152.115C65.0765 152.677 65.0765 153.99 65.4556 154.927C66.0244 155.864 66.9724 156.427 67.7307 156.802C71.5225 158.676 75.6935 159.801 80.054 160.551C81.7603 160.926 83.4666 161.114 84.9833 160.364C86.5001 159.801 87.6376 157.927 86.8792 156.427C86.1209 155.115 84.225 154.74 82.7083 154.74C77.7789 154.177 72.4704 151.553 67.5411 151.74Z" fill="white"/>
<path d="M216.748 55.1914H212.198C211.819 64.565 200.444 71.5015 179.21 76.0008C178.072 83.6872 175.607 92.6859 170.678 102.247C155.7 130.18 141.671 138.054 124.608 143.678C103.374 150.802 78.5376 149.115 78.5376 149.115C78.5376 149.115 103.563 154.739 123.47 154.739C143.377 154.739 161.957 148.365 161.957 148.365C161.957 148.365 186.983 141.429 205.183 102.622C217.317 76.5633 216.748 55.1914 216.748 55.1914Z" fill="#EABFAC"/>
<path d="M216.941 53.6924H212.391C212.391 54.2548 212.391 54.6297 212.391 55.1922C211.822 72.0647 176.369 81.2508 111.34 81.2508C48.3964 81.2508 11.2369 69.0651 10.2889 55.1922C10.2889 54.6297 10.4785 54.2548 10.4785 53.6924H5.92836C5.92836 54.2548 5.73877 54.8172 5.73877 55.3796C6.68672 70.7524 45.5525 84.4379 111.34 84.4379C179.403 84.4379 216.373 74.1269 216.941 55.1922C216.941 54.6297 216.941 54.0673 216.941 53.6924Z" fill="#FFDFCA"/>
<path d="M24.6931 36.4443L23.7451 43.7557C23.7451 43.7557 26.589 54.6291 42.3249 58.566C59.9567 62.8779 73.4175 58.941 74.3655 48.255C74.5551 46.5678 72.6592 41.6935 72.6592 41.6935L24.5035 36.0693L24.6931 36.4443Z" fill="#59B24F"/>
<path d="M72.8784 44.8349C74.199 38.1271 64.5213 30.6203 51.2626 28.0678C38.0039 25.5154 26.185 28.884 24.8644 35.5918C23.5437 42.2996 33.2215 49.8064 46.4802 52.3589C59.7389 54.9113 71.5578 51.5427 72.8784 44.8349Z" fill="#84D17D"/>
<path d="M71.3324 43.7545C70.9532 49.0038 60.905 52.5657 48.5817 50.691C36.2583 48.8163 26.0205 41.6923 26.2101 36.4431C26.5893 31.1939 37.5855 27.257 49.9088 29.1317C62.0425 31.0064 71.522 38.5053 71.3324 43.7545Z" fill="#B0EDA9"/>
<path d="M35.1211 36.4439C34.742 36.069 34.3628 35.694 34.3628 35.1316C34.3628 34.1942 35.5003 34.0068 36.2587 34.0068C37.965 34.1942 39.8609 34.5692 41.3776 35.3191C40.8088 34.5692 40.4297 33.8193 40.2401 33.0694C40.2401 32.8819 40.0505 32.6945 40.2401 32.507C40.4297 32.132 40.9984 32.3195 41.3776 32.507C43.2735 33.4443 44.9798 34.7566 46.4965 36.2564C45.9277 35.5065 45.7382 34.5692 45.7382 33.8193C45.7382 32.8819 46.1173 32.132 46.8757 31.7571C47.8236 31.3821 49.1508 31.9446 49.9091 32.8819C50.6675 33.8193 50.8571 34.9441 51.0467 36.069C52.5634 34.9441 54.6489 34.5692 56.5448 35.1316C56.9239 35.3191 57.4927 35.5065 57.6823 35.8815C58.0615 36.6314 57.3031 37.1938 56.7343 37.5687C59.0094 37.1938 61.6637 38.1311 63.37 40.0059C63.5596 40.1933 63.7491 40.5683 63.7491 40.7558C63.7491 40.9432 63.5596 41.1307 63.5596 41.1307C62.6116 42.0681 61.4741 42.443 60.147 42.6305C58.8198 42.818 57.4927 42.443 56.1656 42.2555C57.4927 42.818 58.6302 43.5678 59.7678 44.5052C59.9574 44.6927 59.9574 44.6927 60.147 44.8802C60.147 45.0676 60.147 45.0676 59.9574 45.2551C59.0094 46.5674 57.1135 46.7549 55.5968 46.005C54.0801 45.4426 52.753 44.1303 51.6154 43.0054C52.1842 43.9428 52.5634 44.8802 52.3738 46.005C52.1842 46.9423 51.0467 47.6922 50.0987 47.3173C49.7195 47.1298 49.3404 46.7549 48.9612 46.3799C48.0132 45.2551 47.4445 43.9428 47.0653 42.6305C46.8757 44.3177 45.359 45.63 43.6527 45.4426C43.2735 45.4426 42.7047 45.2551 42.5151 44.8802C42.136 44.5052 42.136 43.7553 42.5151 43.3804C42.7047 43.0054 43.0839 42.6305 43.6527 42.2555C42.3255 42.818 40.8088 43.3804 39.6713 42.443C39.2921 42.0681 39.1025 41.6931 39.2921 41.3182C39.4817 41.1307 39.6713 40.9432 39.8609 40.7558C40.4297 40.3808 42.136 40.1933 42.3255 39.6309C39.2921 39.0685 37.2066 38.1311 35.1211 36.4439Z" fill="#C1FFB8"/>
<path d="M107.924 61.9388C110.957 60.6265 114.749 60.6265 117.593 62.1263C118.162 62.5012 119.11 62.8761 119.489 62.3137C119.678 62.1263 119.678 61.7513 119.678 61.3764C119.11 57.8144 115.887 55.0023 112.095 54.8148C109.441 54.6274 106.786 55.9397 104.322 57.252C102.615 58.1893 100.909 59.3142 99.3924 60.439C97.3069 61.9388 95.2214 63.626 94.2735 66.0632C93.5151 67.7504 93.1359 71.4999 95.6006 72.0623C98.0652 72.6247 99.2028 69.0627 100.53 67.563C102.615 65.1258 105.08 63.0636 107.924 61.9388Z" fill="#0A0B0C"/>
<path d="M114.939 54.4412C110.958 53.8788 106.976 55.0036 103.374 56.8783C99.9615 58.753 96.9281 61.3776 93.8946 64.0023C90.6716 66.8143 90.8612 72.251 92.7571 75.6255C94.4634 78.8126 98.0656 80.8748 101.668 81.2497C105.27 81.6247 108.683 80.1249 111.906 78.6251C115.318 76.9379 118.731 75.0631 121.006 72.0636C123.471 69.064 124.608 65.1271 123.471 61.5651C122.523 57.6282 118.92 55.0036 114.939 54.4412ZM116.266 64.7522C115.318 66.6269 113.422 68.1267 111.526 69.2515C109.631 70.3763 107.735 71.1262 105.839 71.8761C104.132 72.4385 102.426 73.0009 100.72 72.8135C99.0136 72.626 97.1177 71.8761 96.3593 70.3763C92.7571 64.5647 102.047 60.0653 106.028 58.3781C108.303 57.4407 110.768 57.0658 113.043 57.6282C113.991 57.8157 114.749 58.1906 115.508 58.753C117.214 60.2528 117.404 62.8774 116.266 64.7522Z" fill="#36383F"/>
<path d="M61.0953 24.0726C64.1287 22.7603 67.9205 22.7603 70.7643 24.26C71.3331 24.635 72.2811 25.0099 72.6602 24.4475C72.8498 24.26 72.8498 23.8851 72.8498 23.5102C72.281 19.9482 69.058 17.1361 65.2662 16.9486C62.612 16.7612 59.9577 18.0735 57.4931 19.3858C55.7868 20.3231 54.0805 21.448 52.5638 22.5728C50.4783 24.0726 48.3928 25.7598 47.4448 28.197C46.6865 29.8842 46.3073 33.6337 48.772 34.1961C51.2366 34.7585 52.3742 31.1965 53.7013 29.6967C55.7868 27.2596 58.2514 25.1974 61.0953 24.0726Z" fill="#0A0B0C"/>
<path d="M68.1104 16.3845C64.1291 15.8221 60.1477 16.947 56.5455 18.8217C53.1329 20.6964 50.0995 23.321 47.066 25.9456C43.843 28.7577 44.0326 34.1944 45.9285 37.5689C47.6348 40.7559 51.237 42.8181 54.8392 43.1931C58.4414 43.568 61.854 42.0683 65.077 40.5685C68.4896 38.8812 71.9022 37.0065 74.1773 34.0069C76.642 31.0074 77.7795 27.0705 76.642 23.5085C75.694 19.5716 72.0918 16.947 68.1104 16.3845ZM69.4376 26.883C68.4896 28.7577 66.5937 30.07 64.6978 31.1949C62.8019 32.3197 60.906 33.0696 59.0102 33.8195C57.3039 34.3819 55.5975 34.9443 53.8912 34.7568C52.1849 34.5694 50.289 33.8195 49.5307 32.3197C45.9285 26.508 55.2184 22.0087 59.1997 20.3215C61.4748 19.3841 63.9395 19.0091 66.2145 19.5716C67.1625 19.759 67.9208 20.134 68.6792 20.6964C70.3855 22.1962 70.5751 24.8208 69.4376 26.883Z" fill="#36383F"/>
<path d="M195.893 35.6909C198.358 37.9406 200.064 41.1276 200.064 44.3147C200.064 45.0646 200.064 46.0019 200.822 46.1894C201.201 46.1894 201.581 46.0019 201.77 45.8145C204.804 43.7523 205.941 39.4404 204.424 36.2534C203.287 33.8162 201.012 31.9415 198.737 30.4417C197.03 29.3169 195.324 28.3795 193.618 27.4422C191.343 26.3173 188.878 25.1925 186.224 25.38C184.328 25.5674 180.726 26.8797 181.295 29.3169C181.863 31.754 185.655 31.1916 187.551 31.754C190.774 32.3164 193.618 33.6288 195.893 35.6909Z" fill="#0A0B0C"/>
<path d="M205.941 38.5032C204.803 34.7537 201.959 31.5667 198.736 29.317C195.513 27.0674 191.722 25.5676 188.119 24.0678C184.328 22.568 179.209 25.0052 177.123 28.1922C175.038 31.1918 174.658 35.1287 175.986 38.5032C177.313 41.8777 180.157 44.3148 183 46.5645C186.034 48.8142 189.257 50.8764 193.049 51.8137C196.651 52.5636 201.011 52.0012 203.666 49.5641C206.32 46.752 207.078 42.4401 205.941 38.5032ZM197.03 44.3148C194.755 44.3148 192.669 43.19 190.963 42.0652C189.257 40.9403 187.551 39.628 186.034 38.1282C184.707 37.0034 183.569 35.6911 183 34.0039C182.432 32.3166 182.242 30.4419 183.19 28.9421C186.982 23.3179 195.134 29.317 198.357 32.3166C200.253 34.0039 201.58 35.8786 202.149 38.3157C202.339 39.2531 202.339 40.1904 202.149 40.9403C201.58 43.19 199.305 44.5023 197.03 44.3148Z" fill="#36383F"/>
<path d="M122.902 49.1912C122.902 49.1912 130.865 68.6883 153.805 63.0642C176.745 57.44 186.035 43.3796 188.121 40.9424C192.481 35.6932 192.292 28.0068 192.292 28.0068L122.902 49.1912Z" fill="#FFECD7"/>
<path d="M133.33 46.0043C133.14 46.0043 139.207 59.3148 150.013 57.2526C171.437 53.1283 168.024 35.5059 168.024 35.5059L133.33 46.0043Z" fill="#FFDC31"/>
<path opacity="0.52" d="M181.296 37.9424C179.969 42.4418 175.419 45.0664 172.196 48.2534C171.627 48.8158 170.868 49.7532 171.248 50.5031C171.437 51.0655 172.196 51.4404 172.954 51.253C173.523 51.253 174.091 50.878 174.66 50.5031C177.314 48.6284 179.59 46.3787 181.675 43.9416C183.95 41.3169 186.415 38.5049 186.794 34.9429C186.794 34.5679 186.794 34.193 186.794 33.818C186.225 32.3183 184.14 33.0682 183.192 33.818C182.054 34.9429 181.675 36.4427 181.296 37.9424Z" fill="white"/>
</svg>
