<svg width="283" height="117" viewBox="0 0 283 117" fill="none" xmlns="http://www.w3.org/2000/svg">
<g clip-path="url(#clip0_1337_3302)">
<path d="M1.64918 88.7471C2.63869 91.0738 3.95804 93.0681 5.60723 94.3976C13.1935 101.045 27.7063 96.3919 36.9417 98.0539C46.507 99.7158 55.0827 105.699 64.3182 108.69C65.9674 109.355 67.6165 109.687 68.9359 110.02C77.5117 111.682 84.1084 117 93.3438 116.668C104.228 116.003 113.464 112.014 124.019 109.687C133.584 107.361 142.49 106.364 152.385 106.031C162.28 106.031 169.536 108.025 178.772 110.02C181.08 110.352 183.059 111.017 185.368 111.349C201.53 114.673 218.352 117 234.184 111.017C235.833 110.352 237.483 109.687 239.462 109.355C252.655 105.034 266.838 101.045 275.414 89.0794C277.393 86.4204 278.712 83.4289 280.031 80.105C282.34 73.7897 283.33 66.1448 283.33 60.1618C283.33 52.8493 281.021 48.5283 277.393 45.5368C273.435 42.5454 267.827 41.2158 260.901 40.551C255.294 39.8863 250.016 41.8806 244.739 42.213C241.441 42.5454 238.142 42.5454 234.844 42.5454C220.001 42.5454 204.829 41.2158 190.316 37.8919C181.41 35.8976 173.164 33.2385 165.248 29.9147C145.458 21.605 123.689 16.2868 102.579 16.6192C92.6841 16.6192 82.1294 16.6192 72.5641 17.9488C67.6165 18.6135 62.9988 20.2755 58.3811 21.605C55.7424 22.2698 53.4336 22.9346 50.7949 23.267C40.2401 24.9289 31.3345 25.2613 22.7587 32.2414C17.8112 36.23 11.8741 42.5454 8.90559 47.8635C2.96853 57.1704 -2.96853 76.7812 1.64918 88.7471Z" fill="#B0502E"/>
<path d="M184.049 102.376C184.049 105.367 184.379 108.691 185.369 111.683C201.531 115.006 218.352 117.333 234.184 111.35C235.834 110.685 237.483 110.021 239.462 109.688C242.76 107.029 246.059 103.705 248.367 100.049C253.645 91.7393 254.634 81.4354 256.613 71.4638C257.273 68.1399 258.263 64.4837 257.603 61.1598C256.613 55.5092 251.666 51.853 246.718 48.8615C242.76 46.5348 238.802 44.5405 234.514 42.8785C223.96 38.5575 212.415 35.8984 200.871 35.8984C196.913 35.8984 192.955 36.2308 189.656 38.2251C189.327 38.2251 188.997 38.5575 188.997 38.8899C184.049 42.5462 183.39 49.5263 183.39 55.8416C182.73 71.1314 183.06 86.7535 184.049 102.376Z" fill="#C75A34"/>
<path d="M44.198 68.8051C67.6165 70.1347 89.0558 83.4301 112.474 82.1006C126.987 81.4358 140.84 74.7881 155.353 74.7881C171.185 74.7881 185.698 81.7682 201.2 83.0978C224.949 85.0921 247.048 73.7909 267.168 62.8222C273.105 59.4983 279.702 55.5097 280.031 49.5267C280.031 45.2057 276.733 41.2171 272.115 38.8904C267.827 36.5637 262.55 35.8989 257.602 34.9017C220.001 27.2569 184.709 12.2995 146.777 4.32219C130.285 0.665941 112.804 -1.32838 95.6526 0.998327C74.543 3.9898 56.0722 13.9614 37.9311 23.2682C29.0256 27.9216 20.12 32.9074 14.8426 40.2199C9.56518 47.8648 9.56518 58.8336 17.4813 64.1517C24.4078 69.4699 34.9626 68.4728 44.198 68.8051Z" fill="#D8774A"/>
<path d="M147.107 6.98034C130.285 3.65648 112.804 1.99455 95.6524 4.32125C74.5429 6.98034 56.072 15.6224 37.931 24.2644C34.6326 25.9264 31.3343 27.2559 28.3657 28.9178C31.6641 26.9235 34.9625 25.2616 37.931 23.5997C56.072 13.9605 74.5429 3.98887 95.6524 0.997388C112.804 -1.32932 130.285 0.665002 146.777 3.98887C174.813 9.97182 201.2 19.611 228.577 27.5883C201.2 20.6082 174.813 11.9661 147.107 6.98034Z" fill="#BF8E7D"/>
<path d="M17.1517 60.4947C24.4081 64.8157 34.9629 63.8185 44.1983 64.1509C67.6168 65.1481 89.0561 77.114 112.475 75.7844C126.987 75.1197 140.841 69.4691 155.353 69.1367C171.186 69.1367 185.698 75.4521 201.201 76.4492C224.949 78.1112 247.048 68.1396 267.498 58.5004C273.105 55.8413 279.372 52.185 280.032 47.1992C280.032 47.864 280.361 48.1964 280.032 48.8612C279.702 54.8441 273.105 59.1651 267.168 62.1566C247.048 73.1254 224.949 84.4265 201.201 82.4322C185.698 81.1026 171.186 73.7901 155.353 74.1225C140.841 74.1225 126.987 80.7702 112.475 81.435C89.0561 82.7646 67.6168 69.4691 44.1983 68.1396C34.9629 67.8072 24.4081 68.8043 17.1517 63.8185C12.534 60.4947 10.555 55.5089 10.8848 50.1907C11.2147 54.5117 13.1937 58.168 17.1517 60.4947Z" fill="#BF8E7D"/>
<path d="M1.64941 88.7478C2.63892 91.0745 3.95827 93.0688 5.60746 94.3984C13.1937 101.046 27.7065 96.3927 36.942 98.0546C48.1564 100.049 58.0515 108.026 68.9361 110.353C77.5119 112.015 84.1086 117.333 93.344 117.001C104.229 116.336 113.464 112.347 124.019 110.021C133.584 107.694 142.49 106.697 152.385 106.364C162.28 106.364 169.536 108.359 178.772 110.353C196.913 114.009 216.373 117.998 234.184 111.35C248.697 106.364 265.519 103.04 275.084 89.7449C277.063 87.0859 278.382 84.0944 279.702 80.7705C256.283 104.038 221.321 115.006 188.997 108.691C171.845 105.367 153.704 101.711 136.223 104.702C118.741 107.694 101.26 112.347 83.7788 109.688C68.6063 107.361 55.083 99.3841 39.9105 96.3927C31.3347 94.7307 22.4291 94.7307 13.8534 93.0688C9.89533 92.0716 5.60746 90.7421 1.64941 88.7478Z" fill="#6B301C"/>
<path d="M207.797 30.5802C218.682 31.9097 229.896 33.5716 240.781 35.2336C247.048 36.2307 254.304 37.8927 257.273 43.5432C260.241 49.1938 257.273 56.8387 251.995 60.8273C246.718 64.8159 240.121 65.8131 233.854 66.4779C227.258 67.1427 220.661 67.475 214.064 67.475C211.755 67.475 209.776 67.475 207.467 67.1427C205.488 66.8103 203.509 66.1455 201.53 65.4807C193.614 63.154 185.698 60.4949 177.782 58.1682C175.143 57.1711 171.845 55.5091 172.175 52.85C172.505 50.191 175.473 49.1938 177.782 48.529C185.368 46.2023 192.295 41.5489 197.572 35.566C199.221 33.5716 200.871 31.5773 203.179 30.9126C204.499 30.2478 206.148 30.5802 207.797 30.5802Z" fill="#C96F45"/>
<path d="M109.505 60.8263C110.165 54.8434 110.825 49.1928 111.484 43.2098C111.814 40.5508 112.144 37.8917 111.484 35.2326C110.495 30.5792 106.537 26.9229 103.898 22.9343C101.26 18.9456 99.6103 12.9627 103.239 9.30643C107.197 5.31779 113.793 7.6445 119.071 9.63882C137.212 16.9513 157.332 16.2865 176.792 17.9485C180.75 18.2809 185.038 18.9456 188.007 21.6047C190.975 24.2638 191.635 29.9144 188.007 32.2411C185.368 33.903 182.399 32.9059 179.431 33.2382C175.473 33.903 172.834 37.2269 170.525 40.5507C166.567 46.5337 161.62 53.1814 161.62 60.4939C154.693 61.4911 147.767 57.5025 140.51 57.1701C130.285 56.8377 119.73 63.8178 109.505 60.8263Z" fill="#C96F45"/>
<path d="M100.93 61.8231C99.9408 62.8203 98.2916 63.1527 96.9723 63.1527C81.7998 64.8146 67.6168 50.8544 52.4443 53.8459C47.1669 54.843 41.8895 57.8345 36.942 55.8402C34.6331 54.843 32.9839 52.5163 31.3348 50.1896C29.6856 47.5305 28.3662 44.8714 27.0469 41.88C34.6331 41.5476 41.8895 38.2237 49.4758 37.2265C58.7112 36.2294 67.6168 38.8885 76.5224 41.5476C79.8208 36.5618 75.5329 29.914 75.5329 23.5987C75.5329 15.9538 83.7788 9.63848 91.0352 11.6328C88.3965 17.6158 93.3441 23.9311 96.9723 29.5817C101.92 37.5589 103.899 47.5305 102.58 56.8373C102.58 58.8317 102.25 60.4936 100.93 61.8231Z" fill="#C96F45"/>
<path d="M108.846 13.6282C114.783 13.6282 119.071 15.9549 118.082 17.6168C122.699 19.2788 122.699 21.2731 125.338 23.2674C127.977 25.2617 133.584 26.2589 136.223 28.2532C138.861 30.2475 137.542 32.5742 140.181 34.5685C143.149 36.8952 146.777 37.8924 149.086 40.2191C154.364 44.5401 159.311 49.1935 164.589 53.5146C166.568 55.1765 173.164 57.5032 174.154 59.4975C175.143 61.1594 171.845 61.8242 171.845 63.1538C171.845 64.4833 175.143 65.8129 175.473 66.81C170.526 67.1424 166.897 63.8185 164.589 62.489C160.63 60.1623 161.95 59.1651 159.971 56.506C158.651 54.5117 153.044 52.5174 150.406 50.8555C148.097 49.1935 147.107 47.1992 145.458 45.5373C141.83 41.5487 134.573 38.5572 130.945 34.9009C129.296 33.239 128.306 30.9123 125.998 29.2504C122.369 27.256 117.752 26.9237 116.762 23.9322C111.155 23.5998 109.506 19.9435 108.516 17.9492C103.899 17.2844 102.909 15.2901 105.218 13.6282C106.207 13.2958 107.857 13.6282 108.846 13.6282Z" fill="#642917"/>
<path d="M73.8833 14.2931C76.522 12.6312 85.0978 15.2903 86.4171 16.9522C88.726 19.6113 84.1083 21.938 89.7155 24.9295C94.3332 27.2562 102.249 28.2534 105.877 30.9125C108.846 33.2392 107.856 35.8983 110.825 38.5574C114.123 40.8841 118.411 42.8784 120.72 45.5375C123.029 48.5289 123.359 50.8556 128.306 53.5147C135.893 57.5034 140.181 62.8216 140.84 67.8073C137.212 66.1454 135.233 63.4863 134.243 61.492C125.668 60.8272 120.06 53.5147 116.762 50.5233C112.474 46.2022 106.867 42.546 100.6 38.8897C96.642 36.563 98.6211 34.2363 95.6525 31.9096C92.3542 29.5829 86.7469 28.5858 83.7784 25.9267C80.8099 23.2676 79.8204 21.938 79.1607 19.2789C78.1712 16.2875 74.8728 14.9579 72.564 12.2988L73.8833 14.2931Z" fill="#642917"/>
<path d="M50.7947 20.276C55.0826 20.276 62.9987 27.5885 66.297 29.5828C71.9043 33.239 71.9043 37.8925 74.8728 41.8811C77.8413 45.8697 86.7469 49.526 91.6945 53.1822C96.9719 57.1709 100.6 59.8299 100.6 64.4834C101.26 62.1566 90.3751 56.1737 86.7469 54.1794C81.4695 51.1879 70.9148 48.1964 69.9252 44.2078C64.9777 43.543 65.9672 39.5544 65.3075 37.8924C63.9882 34.5686 61.3495 33.5714 57.0616 31.2447C53.1036 29.5828 38.9206 19.9436 50.7947 20.276Z" fill="#803018"/>
<path d="M151.725 17.2843C165.578 23.932 167.557 33.2388 181.41 39.8865C185.368 41.8809 186.028 42.878 188.666 45.2047C190.975 47.5314 196.253 48.861 198.891 51.1877C200.87 52.8496 200.87 55.1763 203.509 57.1706C205.488 58.8326 208.786 59.8297 209.116 61.4917C210.765 61.4917 214.394 61.1593 216.043 60.8269C213.074 57.1706 203.509 54.1792 199.881 50.5229C195.923 46.5343 194.933 41.8809 189.656 37.8922C188.666 37.2274 185.368 36.8951 184.049 35.8979C182.729 34.9007 183.719 33.2388 183.059 32.2417C181.41 29.9149 177.452 27.9206 174.483 25.9263C168.876 21.9377 162.939 17.949 152.054 16.2871C150.075 16.9519 149.746 16.6195 151.725 17.2843Z" fill="#7A2E17"/>
<path d="M202.52 29.9159C202.85 29.5835 201.86 28.9188 203.18 28.9188C206.148 32.575 208.787 36.5636 212.085 39.8875C215.714 43.2114 219.342 44.2085 223.959 46.5352C227.917 48.5295 229.567 51.8534 232.535 54.8449C234.184 56.1744 234.844 56.8392 236.493 57.504C237.813 58.1687 239.792 57.1716 241.111 58.8335C241.111 58.8335 241.771 57.8364 241.771 58.1687C238.802 54.8449 234.514 53.1829 231.546 49.8591C228.577 46.5352 224.949 43.8761 220.991 40.8847C216.703 37.2284 209.447 22.9358 201.201 24.5977C200.211 27.9216 202.19 29.2511 204.169 31.5778L202.52 29.9159Z" fill="#803018"/>
<path d="M257.932 52.85C256.942 50.5233 251.335 47.5319 249.356 44.5404C248.037 42.2137 247.377 41.2165 245.398 39.2222C243.419 36.8955 241.44 36.2307 240.451 33.2393C249.026 38.2251 256.942 44.208 257.932 52.85Z" fill="#732F1B"/>
<path d="M30.0149 31.5776C34.3028 34.5691 39.2503 39.5549 41.889 43.5435C44.5277 47.8646 46.5067 52.8503 49.1454 56.839C47.8261 54.5123 44.1979 53.8475 41.889 52.1856C39.5802 50.1913 38.2608 47.5322 36.9415 45.2055C33.9729 39.8873 29.0254 36.5634 29.0254 30.9129C30.0149 30.5805 29.6851 31.2452 30.0149 31.5776Z" fill="#803018"/>
</g>
<defs>
<clipPath id="clip0_1337_3302">
<rect width="283" height="117" fill="white"/>
</clipPath>
</defs>
</svg>
