<svg width="275" height="325" viewBox="0 0 275 325" fill="none" xmlns="http://www.w3.org/2000/svg">
<path d="M141.181 138.129C141.001 141.696 140.539 145.827 139.872 150.395C138.666 158.453 136.818 167.64 134.739 176.57C130.172 197.048 124.731 215.936 124.731 215.936C124.266 227.999 122.885 240.009 120.6 251.862C120.369 253.171 120.138 254.429 119.881 255.712C119.111 259.843 118.29 263.821 117.52 267.49C114.672 280.527 112.08 289.945 112.08 289.945L99.5826 287.789C98.9924 280.706 98.7614 273.932 98.7871 267.593C98.7871 263.641 98.7871 259.895 99.0437 256.251C99.0437 254.352 99.249 252.504 99.3773 250.733C100.84 229.126 104.51 214.806 104.51 211.958C104.51 197.51 105.459 184.91 106.614 174.158C109.847 144.518 115.57 129.07 115.57 129.07C123.654 110.491 135.766 111.774 139.769 125.452C140.927 129.572 141.403 133.854 141.181 138.129V138.129Z" fill="#FFEDE5"/>
<path d="M180.93 271.545C180.93 276.677 180.622 282.092 180.161 287.686L167.663 290.073C167.663 290.073 165.456 281.989 162.864 270.39C161.915 266.13 160.914 261.408 159.965 256.43C159.708 255.019 159.426 253.556 159.169 252.119C156.871 240.18 155.481 228.084 155.012 215.935C155.012 215.935 149.52 196.869 144.901 176.288C142.899 167.46 141.052 158.324 139.769 150.343C139.076 145.801 138.639 141.618 138.46 138.077C138.185 133.757 138.628 129.422 139.769 125.246C143.823 111.568 155.91 110.311 163.993 128.864C163.993 128.864 169.69 144.262 172.898 173.721C174.252 186.354 174.963 199.048 175.028 211.752C175.028 214.601 178.723 228.638 180.161 249.937C180.161 251.734 180.391 253.556 180.494 255.429C180.905 260.536 181.007 265.874 180.93 271.545Z" fill="#FFEDE5"/>
<path d="M180.34 250.04C173.316 251.104 166.241 251.798 159.144 252.118C156.854 240.179 155.473 228.083 155.012 215.935C155.012 215.935 149.52 196.868 144.901 176.287C142.9 167.46 141.052 158.324 139.769 150.343C138.563 158.401 136.715 167.588 134.636 176.518C130.171 197.048 124.731 215.935 124.731 215.935C124.265 227.998 122.884 240.008 120.599 251.862C112.901 251.503 105.536 251.015 99.377 250.502C100.84 228.894 104.509 214.575 104.509 211.727C104.509 197.279 105.459 184.679 106.614 173.927C109.847 144.287 115.57 128.838 115.57 128.838C123.653 110.259 135.766 111.542 139.769 125.22C142.848 114.776 150.624 111.568 157.732 118.907C160.385 121.825 162.505 125.187 163.994 128.838C165.59 133.556 166.91 138.363 167.946 143.235C170.209 153.327 171.896 163.54 173.001 173.824C174.355 186.457 175.066 199.15 175.131 211.855C175.157 214.703 178.826 228.766 180.34 250.04Z" fill="#AB8DA8"/>
<path d="M168.048 143.363C161.017 135.69 130.197 133.817 130.197 133.817L157.835 119.164C160.488 122.082 162.607 125.443 164.096 129.095C165.688 133.771 167.007 138.535 168.048 143.363V143.363Z" fill="#826B80"/>
<path d="M113.722 302.673C113.736 302.801 113.736 302.93 113.722 303.058C113.311 308.832 108.589 307.959 101.609 308.19C96.0406 308.19 93.0638 305.085 93.3974 301.723C93.5068 300.705 93.8781 299.733 94.4752 298.901C96.0643 296.417 97.2266 293.685 97.9139 290.817C98.216 289.519 98.9486 288.361 99.9925 287.532C104.381 283.991 108.589 286.711 110.694 288.661C111.634 289.501 112.289 290.614 112.567 291.844C113.358 295.398 113.745 299.031 113.722 302.673V302.673Z" fill="#3B2645"/>
<path d="M178.211 308.062C171.051 308.062 166.175 308.883 166.047 302.673V302.134C166.033 298.732 166.412 295.339 167.176 292.023C167.471 290.615 168.208 289.339 169.28 288.379C170.486 286.994 172.146 286.086 173.963 285.817C175.779 285.549 177.631 285.939 179.186 286.916C180.572 287.875 181.558 289.308 181.957 290.945C182.652 293.682 183.796 296.283 185.345 298.644C185.68 299.127 185.948 299.654 186.14 300.209C187.372 304.11 184.472 308.165 178.211 308.062Z" fill="#3B2645"/>
<path d="M152.754 38.8679C153.438 38.0691 153.875 37.0882 154.011 36.0451C154.084 34.3861 154.386 32.7452 154.909 31.1693C155.372 30.4717 155.751 29.7224 156.039 28.9367C156.133 28.5188 156.122 28.0838 156.005 27.6714C155.889 27.259 155.671 26.8823 155.371 26.5758C154.935 26.1396 154.319 25.8316 154.114 25.2414C154.062 24.8668 154.062 24.4868 154.114 24.1123C154.035 23.5573 153.817 23.0312 153.48 22.5827C153.144 22.1341 152.7 21.7776 152.189 21.5461C151.143 21.0354 150.028 20.6809 148.879 20.4939C147.749 20.3534 146.667 19.949 145.722 19.3135C145.334 18.9509 144.913 18.6245 144.465 18.3383C143.614 17.9737 142.667 17.9015 141.77 18.133C140.069 18.4281 138.407 18.9189 136.818 19.5958C136.245 19.8965 135.631 20.1126 134.996 20.2373C134.046 20.2373 133.045 20.0577 132.096 20.2373C131.385 20.4642 130.731 20.8434 130.182 21.3487C129.632 21.854 129.2 22.4731 128.914 23.1628C128.741 23.5604 128.477 23.912 128.144 24.1893C127.724 24.4029 127.274 24.5501 126.81 24.6255C126.222 24.8563 125.7 25.2271 125.289 25.7057C124.877 26.1842 124.589 26.756 124.449 27.3713C124.206 28.643 124.206 29.949 124.449 31.2206C124.495 32.4778 124.632 33.7299 124.859 34.9673C127.425 45.2321 128.17 42.3836 128.17 42.3836L135.868 41.5881C139.358 41.2031 142.823 40.7925 146.287 40.305C147.673 40.0997 149.058 39.8174 150.444 39.5864C151.276 39.6393 152.099 39.3835 152.754 38.8679V38.8679Z" fill="#3B2645"/>
<path d="M127.451 37.9182C127.196 37.5682 126.863 37.2835 126.477 37.0872C126.091 36.8909 125.664 36.7886 125.231 36.7886C124.799 36.7886 124.372 36.8909 123.986 37.0872C123.6 37.2835 123.266 37.5682 123.012 37.9182C120.882 40.664 124.808 45.6167 127.708 45.7707C127.78 43.1504 127.695 40.5281 127.451 37.9182V37.9182Z" fill="#E0855C"/>
<path d="M169.768 67.5577C166.968 74.8048 164.712 82.2502 163.019 89.8322C162.813 90.8074 162.659 91.7569 162.48 92.6807C162.3 93.6046 162.223 94.2974 162.12 95.0416C162.018 95.7858 162.12 96.0938 161.915 96.8123C161.12 104.511 159.631 125.887 159.349 129.531C159.349 129.891 159.349 130.07 159.349 130.07C139.41 136.203 118.29 131.328 118.29 131.328L118.136 130.198C117.674 126.657 113.363 88.7801 113.209 87.2661C112.311 78.2587 111.669 69.9699 111.618 64.8118C111.618 64.042 112.285 63.6057 113.286 63.3234C114.902 62.8615 117.186 62.7845 118.983 62.4766C122.328 61.9174 125.705 61.566 129.093 61.4245H129.915C130.086 61.4143 130.257 61.4143 130.428 61.4245H131.044L131.685 51.1597H132.686C133.34 51.261 134.001 51.3124 134.662 51.3137C135.451 51.3249 136.24 51.2821 137.023 51.1853L138.126 51.057C138.665 51.057 139.153 50.8774 139.641 50.7491C140.427 50.5677 141.199 50.3275 141.95 50.0306C142.181 49.9808 142.405 49.9032 142.617 49.7996H142.823L143.336 49.5686C144.278 49.1596 145.187 48.6791 146.056 48.1316L147.262 47.3104L147.467 47.1308C147.631 47.0237 147.785 46.9035 147.929 46.7715L148.212 46.5405C148.212 46.9255 148.212 47.0794 148.212 47.2334C147.988 49.2274 147.868 51.2318 147.852 53.2383C147.852 54.701 147.852 56.1638 147.852 57.4469C147.852 59.6281 147.852 61.2192 147.852 61.2192H149.289C149.316 61.2004 149.347 61.1903 149.379 61.1903C149.411 61.1903 149.443 61.2004 149.469 61.2192C151.549 61.2473 153.625 61.4274 155.679 61.7581C159.582 62.2708 163.419 63.1999 167.124 64.5296C167.689 64.7605 168.1 64.9658 168.459 65.1454C168.818 65.3251 169.947 67.0958 169.768 67.5577Z" fill="#FFEDE5"/>
<path d="M148.314 46.5664C148.023 48.4136 147.326 50.1734 146.274 51.7189C145.221 53.2645 143.838 54.5574 142.226 55.5047C140.614 56.452 138.811 57.03 136.949 57.1973C135.086 57.3645 133.21 57.1168 131.455 56.4719L131.788 51.1599C134.711 51.6193 137.699 51.447 140.549 50.6546C143.4 49.8622 146.048 48.4682 148.314 46.5664Z" fill="#E0855C"/>
<path d="M127.733 30.1942C126.296 31.7852 126.271 35.3266 126.271 39.0475C126.271 50.5698 129.812 54.0598 135.714 54.4447C141.616 54.8296 147.724 52.4431 148.545 41.6137C149.033 36.2504 149.546 31.349 147.544 29.0394C144.644 25.883 132.096 25.3441 127.733 30.1942Z" fill="#FFEDE5"/>
<path d="M147.801 40.2791C147.801 40.2791 149.443 35.4547 152.369 37.8926C155.294 40.3305 151.573 47.6698 147.236 47.2592C147.211 47.2592 146.466 41.9472 147.801 40.2791Z" fill="#FFEDE5"/>
<path d="M151.111 40.0995C150.451 40.3337 149.866 40.7415 149.418 41.28C148.894 41.7428 148.474 42.3113 148.186 42.948C148.186 43.1276 148.391 43.2303 148.52 43.1276C148.648 43.025 149.161 42.3321 149.495 41.9728C149.723 42.2438 150.014 42.4552 150.342 42.5887C150.4 42.6145 150.465 42.6201 150.526 42.6044C150.588 42.5887 150.642 42.5527 150.681 42.5023C150.719 42.4519 150.74 42.3899 150.739 42.3264C150.738 42.263 150.715 42.2017 150.675 42.1525C150.497 41.8883 150.259 41.6688 149.982 41.5109C150.454 41.1866 150.9 40.8262 151.317 40.4331C151.345 40.4001 151.363 40.3588 151.366 40.3153C151.37 40.2717 151.359 40.2282 151.337 40.191C151.314 40.1537 151.28 40.1248 151.239 40.1084C151.199 40.0919 151.154 40.0888 151.111 40.0995V40.0995Z" fill="#E0855C"/>
<path d="M131.326 38.6115C131.326 38.6115 130.351 38.9964 130.428 37.2514C130.505 35.5064 131.249 35.84 131.249 35.84C131.249 35.84 131.942 35.84 131.865 37.2001C131.788 38.5601 131.326 38.6115 131.326 38.6115Z" fill="#3B2645"/>
<path d="M141.411 38.3034C141.411 38.3034 140.436 38.6883 140.539 36.9177C140.641 35.147 141.334 35.5319 141.334 35.5319C141.334 35.5319 142.027 35.5319 141.976 36.892C141.925 38.2521 141.411 38.3034 141.411 38.3034Z" fill="#3B2645"/>
<path d="M136.047 43.1789C135.534 43.1789 134.379 43.4355 134.123 42.8966C134.191 41.6692 134.407 40.4545 134.764 39.2783C135.18 37.697 135.514 36.0953 135.765 34.4795C135.765 34.4795 135.765 34.4795 135.585 34.4795C134.65 37.3351 133.946 40.2615 133.481 43.2302C133.468 43.2661 133.465 43.3046 133.47 43.3423C133.476 43.38 133.491 43.4157 133.514 43.4462C133.537 43.4767 133.567 43.501 133.601 43.5171C133.636 43.5331 133.674 43.5404 133.712 43.5382C134.456 43.5382 135.175 43.5382 135.919 43.5382C136.201 43.6151 136.253 43.2046 136.047 43.1789Z" fill="#E0855C"/>
<path d="M133.303 33.2991C132.688 33.2474 132.07 33.2474 131.455 33.2991C130.823 33.1507 130.179 33.0648 129.53 33.0425C129.456 33.0434 129.384 33.0655 129.323 33.1063C129.261 33.147 129.212 33.2047 129.182 33.2724C129.153 33.34 129.143 33.4148 129.155 33.4878C129.166 33.5608 129.199 33.6289 129.248 33.684C129.844 34.1054 130.534 34.3768 131.257 34.475C131.981 34.5733 132.718 34.4956 133.405 34.2486C133.512 34.2142 133.604 34.1441 133.665 34.05C133.726 33.9559 133.753 33.8436 133.741 33.732C133.729 33.6205 133.678 33.5165 133.599 33.4376C133.519 33.3588 133.414 33.3098 133.303 33.2991V33.2991Z" fill="#3B2645"/>
<path d="M144.131 31.9392C143.267 32.4243 142.317 32.738 141.334 32.863C140.693 32.863 139.923 32.7347 139.409 33.171C139.377 33.2207 139.36 33.2786 139.36 33.3378C139.36 33.3969 139.377 33.4548 139.409 33.5046C140.41 34.9673 143.695 33.248 144.542 32.2215C144.567 32.0418 144.311 31.8622 144.131 31.9392Z" fill="#3B2645"/>
<path d="M139.82 46.1815C138.739 46.0274 137.642 46.0274 136.561 46.1815C135.817 46.1815 134.764 46.0532 134.226 46.669C134.816 47.2079 135.817 46.977 136.561 46.9513C137.645 47.0542 138.736 47.0542 139.82 46.9513C139.922 46.9513 140.02 46.9108 140.092 46.8386C140.164 46.7664 140.205 46.6685 140.205 46.5664C140.205 46.4643 140.164 46.3664 140.092 46.2942C140.02 46.222 139.922 46.1815 139.82 46.1815V46.1815Z" fill="#E0855C"/>
<path d="M227.687 179.803H47.668C47.2256 179.803 46.8014 179.628 46.4886 179.315C46.1757 179.002 46 178.578 46 178.135C46 177.693 46.1757 177.269 46.4886 176.956C46.8014 176.643 47.2256 176.467 47.668 176.467H227.687C228.129 176.467 228.553 176.643 228.866 176.956C229.179 177.269 229.355 177.693 229.355 178.135C229.355 178.578 229.179 179.002 228.866 179.315C228.553 179.628 228.129 179.803 227.687 179.803V179.803Z" fill="#3B2645"/>
<path d="M53.3651 186.732C52.6096 186.732 51.8851 186.432 51.3509 185.898C50.8167 185.363 50.5166 184.639 50.5166 183.883V172.31C50.5166 171.554 50.8167 170.83 51.3509 170.296C51.8851 169.762 52.6096 169.461 53.3651 169.461C54.1205 169.461 54.8451 169.762 55.3793 170.296C55.9134 170.83 56.2136 171.554 56.2136 172.31V183.832C56.2239 184.211 56.1577 184.589 56.0189 184.942C55.8801 185.295 55.6715 185.617 55.4056 185.887C55.1397 186.158 54.8219 186.372 54.4713 186.517C54.1207 186.663 53.7445 186.736 53.3651 186.732V186.732Z" fill="#3B2645"/>
<path d="M59.0619 196.817C58.3064 196.817 57.5819 196.517 57.0477 195.983C56.5135 195.449 56.2134 194.724 56.2134 193.969V162.302C56.2809 161.59 56.6115 160.929 57.1407 160.447C57.6698 159.966 58.3594 159.699 59.0747 159.699C59.79 159.699 60.4796 159.966 61.0087 160.447C61.5379 160.929 61.8685 161.59 61.936 162.302V193.969C61.9292 194.727 61.6234 195.451 61.0852 195.985C60.5469 196.518 59.8197 196.817 59.0619 196.817V196.817Z" fill="#291B30"/>
<path d="M64.7841 201.59C64.4091 201.594 64.0372 201.523 63.69 201.381C63.3429 201.239 63.0275 201.029 62.7623 200.764C62.4971 200.499 62.2874 200.183 62.1455 199.836C62.0036 199.489 61.9322 199.117 61.9357 198.742V158.478C61.9357 157.723 62.2358 156.998 62.77 156.464C63.3042 155.93 64.0287 155.63 64.7841 155.63C65.5396 155.63 66.2641 155.93 66.7983 156.464C67.3325 156.998 67.6326 157.723 67.6326 158.478V198.742C67.6326 199.497 67.3325 200.222 66.7983 200.756C66.2641 201.29 65.5396 201.59 64.7841 201.59Z" fill="#3B2645"/>
<path d="M219.5 186.732C220.256 186.732 220.98 186.432 221.514 185.898C222.049 185.363 222.349 184.639 222.349 183.883V172.31C222.349 171.554 222.049 170.83 221.514 170.296C220.98 169.762 220.256 169.461 219.5 169.461C218.745 169.461 218.02 169.762 217.486 170.296C216.952 170.83 216.652 171.554 216.652 172.31V183.832C216.645 184.21 216.714 184.586 216.854 184.938C216.994 185.289 217.203 185.61 217.468 185.88C217.733 186.15 218.049 186.364 218.398 186.51C218.747 186.657 219.122 186.732 219.5 186.732V186.732Z" fill="#3B2645"/>
<path d="M213.804 196.817C214.559 196.817 215.284 196.517 215.818 195.983C216.352 195.449 216.652 194.724 216.652 193.969V162.302C216.585 161.59 216.254 160.929 215.725 160.447C215.196 159.966 214.506 159.699 213.791 159.699C213.076 159.699 212.386 159.966 211.857 160.447C211.328 160.929 210.997 161.59 210.93 162.302V193.969C210.936 194.727 211.242 195.451 211.781 195.985C212.319 196.518 213.046 196.817 213.804 196.817V196.817Z" fill="#291B30"/>
<path d="M208.081 201.59C208.456 201.594 208.828 201.523 209.175 201.381C209.522 201.239 209.838 201.029 210.103 200.764C210.368 200.499 210.578 200.183 210.72 199.836C210.861 199.489 210.933 199.117 210.929 198.742V158.478C210.929 157.723 210.629 156.998 210.095 156.464C209.561 155.93 208.836 155.63 208.081 155.63C207.325 155.63 206.601 155.93 206.067 156.464C205.533 156.998 205.232 157.723 205.232 158.478V198.742C205.232 199.497 205.533 200.222 206.067 200.756C206.601 201.29 207.325 201.59 208.081 201.59V201.59Z" fill="#3B2645"/>
<path d="M122.755 84.1868C121.704 87.852 120.249 91.3893 118.418 94.7339C117.674 96.2736 114.671 102.792 114.543 103.048C109.873 113.287 103.277 128.402 102.687 130.199C101.225 135.998 98.0938 169.744 98.0681 169.744C94.8604 174.568 88.7528 172.31 88.7528 172.31C88.7528 172.31 88.7528 171.283 88.4705 169.538C87.7777 162.071 86.1353 141.079 88.0343 128.659C88.5732 125.22 90.6005 116.88 93.1667 107.462C95.2196 99.7636 96.1178 92.4499 98.5557 84.9566C100.609 78.5092 103.704 72.4413 107.717 66.9933C109.22 65.2781 111.191 64.0385 113.388 63.4263C114.338 63.4263 114.748 64.658 115.544 65.0173C117.804 66.0725 119.621 67.8894 120.676 70.1497C122.912 74.4669 123.644 79.4068 122.755 84.1868V84.1868Z" fill="#FFEDE5"/>
<path d="M88.1367 175.775C88.1367 174.646 88.3677 173.491 88.3933 172.362C88.3933 170.591 88.3933 169.436 88.3933 169.436C89.491 168.37 90.8916 167.669 92.4032 167.43C93.9147 167.191 95.4631 167.426 96.8361 168.102C97.4542 168.553 98.0221 169.069 98.5298 169.641C99.5563 170.617 100.737 171.386 101.712 172.413C102.219 172.902 102.608 173.501 102.848 174.164C103.088 174.827 103.174 175.536 103.098 176.237C101.881 176.371 100.753 176.935 99.9156 177.828C98.9661 179.008 99.3767 180.086 98.9147 181.395C98.4528 182.703 97.3237 182.832 96.3485 182.986C93.0638 183.473 88.3677 183.627 88.0854 179.393C88.0137 178.187 88.0308 176.978 88.1367 175.775V175.775Z" fill="#FFEDE5"/>
<path d="M190.862 169.359C190.708 171.104 190.579 172.13 190.579 172.13C190.579 172.13 184.472 174.466 181.238 169.564C181.238 169.564 178.108 135.921 176.542 130.122C176.286 129.147 174.284 124.399 171.769 118.651C169.254 112.903 161.171 95.3241 160.914 94.7339C159.072 91.3945 157.617 87.8559 156.577 84.1868C155.603 79.3442 156.3 74.3145 158.553 69.9188C159.623 67.6685 161.435 65.8559 163.686 64.7864C164.48 64.3876 165.364 64.2019 166.252 64.2475C166.533 64.2467 166.811 64.2989 167.073 64.4015C167.548 64.533 167.999 64.741 168.407 65.0173C169.036 65.4562 169.62 65.9546 170.152 66.5057C174.753 71.4077 178.153 77.311 180.084 83.7506C182.65 91.4492 184.164 99.738 186.114 107.154C188.68 116.572 190.682 124.912 191.246 128.351C193.197 140.9 191.529 161.891 190.862 169.359Z" fill="#FFEDE5"/>
<path d="M191.093 175.8C191.093 174.517 190.939 173.234 190.913 172.362C190.913 170.591 190.913 169.436 190.913 169.436C189.821 168.369 188.425 167.667 186.917 167.428C185.409 167.189 183.864 167.424 182.496 168.102C181.875 168.559 181.299 169.075 180.777 169.641C179.776 170.617 178.57 171.386 177.62 172.413C177.108 172.899 176.716 173.497 176.475 174.161C176.235 174.825 176.152 175.535 176.234 176.236C177.411 176.547 178.561 176.95 179.673 177.443C180.623 178.418 179.904 179.29 179.904 180.419C179.904 181.985 180.982 182.524 182.47 182.78L185.344 183.294C186.869 183.66 188.471 183.525 189.912 182.909C190.119 182.79 190.302 182.633 190.451 182.447C190.573 182.259 190.66 182.05 190.708 181.831C191.199 179.86 191.329 177.817 191.093 175.8Z" fill="#FFEDE5"/>
<path d="M163.018 89.8325L164.456 129.993C140.744 139.257 115.108 130.609 115.108 130.609L114.543 92.1164L113.773 91.8854C112.618 91.5262 111.387 91.1412 110.129 90.628C109.411 90.3457 108.666 90.0634 107.922 89.7042C104.711 88.2372 101.584 86.5923 98.5557 84.7771C100.609 78.3296 103.704 72.2617 107.717 66.8137C109.227 65.1064 111.195 63.8684 113.388 63.2467C115.005 62.8104 117.289 62.7078 119.085 62.3998C122.431 61.8407 125.807 61.4893 129.196 61.3477L138.511 84.4435C142.5 76.9155 146.006 69.1413 149.007 61.1681H149.264C149.29 61.1493 149.321 61.1392 149.354 61.1392C149.386 61.1392 149.417 61.1493 149.443 61.1681C151.524 61.1962 153.599 61.3763 155.654 61.707C159.567 62.238 163.412 63.1842 167.124 64.5298C167.6 64.6613 168.05 64.8693 168.459 65.1457C169.087 65.5845 169.671 66.0829 170.204 66.6341C174.805 71.536 178.204 77.4393 180.135 83.8789C177.047 85.2947 173.886 86.5453 170.666 87.6255C166.406 88.96 163.018 89.8325 163.018 89.8325Z" fill="#3B2645"/>
<path d="M114.543 78.8491V92.1164L113.773 91.8854C112.619 91.5261 111.387 91.1412 110.129 90.628C111.802 86.7801 113.275 82.8486 114.543 78.8491V78.8491Z" fill="#27192E"/>
<path d="M108 293.819C105.972 292.69 102.174 291.818 100.301 293.383C100.265 293.446 100.246 293.516 100.246 293.588C100.246 293.661 100.265 293.731 100.301 293.794V293.948C100.301 294.153 100.583 294.204 100.737 294.127C100.891 294.05 100.737 294.127 100.917 294.127C101.356 293.848 101.86 293.689 102.38 293.665C103.043 293.635 103.708 293.695 104.356 293.845C105.559 294.2 106.799 294.415 108.051 294.487C108.139 294.48 108.222 294.438 108.279 294.371C108.337 294.303 108.366 294.216 108.359 294.127C108.352 294.039 108.31 293.957 108.243 293.899C108.176 293.841 108.088 293.813 108 293.819Z" fill="#27192E"/>
<path d="M109.308 297.438C108.161 296.508 106.73 296.001 105.254 296.001C103.792 295.651 102.255 295.805 100.891 296.437C100.711 296.591 100.609 296.976 100.891 297.104C102.089 297.412 103.325 297.542 104.561 297.489C106.036 297.897 107.55 298.146 109.077 298.234C109.162 298.218 109.241 298.18 109.305 298.122C109.369 298.065 109.416 297.99 109.44 297.908C109.464 297.825 109.464 297.737 109.441 297.654C109.418 297.571 109.372 297.496 109.308 297.438V297.438Z" fill="#27192E"/>
<path d="M178.39 292.434C177.011 291.675 175.434 291.357 173.869 291.522C172.305 291.687 170.828 292.328 169.639 293.357C169.382 293.691 169.639 294.333 170.024 294.281C171.333 294.281 172.59 293.511 173.873 293.383C175.156 293.255 176.568 293.742 177.902 293.588C178.415 293.537 178.877 292.921 178.39 292.434Z" fill="#27192E"/>
<path d="M179.468 295.795C177.788 295.395 176.049 295.3 174.336 295.513C173.73 295.435 173.116 295.486 172.532 295.663C171.948 295.84 171.408 296.139 170.948 296.54C170.589 297.001 170.948 297.874 171.59 297.643C174.156 296.745 177.056 298.079 179.596 297.155C179.735 297.095 179.852 296.992 179.929 296.862C180.006 296.731 180.04 296.58 180.025 296.429C180.011 296.278 179.95 296.135 179.849 296.022C179.749 295.908 179.616 295.829 179.468 295.795V295.795Z" fill="#27192E"/>
<path d="M90.9082 44.6676C82.2601 46.2586 73.2784 44.9242 64.8613 48.1576C64.2968 48.3886 64.3224 49.3381 65.0153 49.2867C70.1477 49.0045 75.1518 47.978 80.2585 47.67C83.9538 47.4391 88.2907 48.2346 91.6524 46.4126C92.6276 45.848 91.909 44.4879 90.9082 44.6676Z" fill="#F7F8F8"/>
<path d="M94.0391 32.6319C89.822 30.4592 85.4673 28.5647 81.0028 26.9606C80.2329 26.704 79.7967 27.8588 80.4639 28.2694C84.4943 30.5925 88.6589 32.6748 92.9356 34.5053C94.1931 35.0442 95.3222 33.2478 94.0391 32.6319Z" fill="#F7F8F8"/>
</svg>
