<svg width="275" height="325" viewBox="0 0 275 325" fill="none" xmlns="http://www.w3.org/2000/svg">
<path d="M115.082 144.908C115.082 144.908 119.684 107.76 118.645 94.193C118.112 87.2343 114.722 85.66 109.54 86.0568C104.359 86.4537 74.7266 102.098 74.7266 102.098L78.9493 112.218L103.593 104.519C103.593 104.519 101.082 118.972 100.502 121.717C99.9229 124.462 98.7107 128.16 97.7449 131.474C97.272 133.107 96.6126 135.224 96.6126 136.249C96.626 138.67 115.082 144.908 115.082 144.908Z" fill="#FFEDE5"/>
<path d="M103.593 104.519C107.029 103.857 110.459 101.84 111.538 100.232C110.984 102.04 109.761 103.572 108.115 104.519C106.548 105.522 104.889 106.375 103.16 107.065L103.593 104.519Z" fill="#F28F8F"/>
<path d="M161.731 144.247C161.218 142.355 157.875 140.364 147.911 138.704C137.947 137.043 128.882 138.704 128.829 139.874C128.776 141.045 131.287 148.87 142.776 150.299C154.265 151.728 162.784 148.401 161.731 144.247Z" fill="#263238"/>
<path d="M131.76 160.328C131.76 160.328 125.266 118.497 126.199 109.957C127.164 101.133 130.534 97.0384 136.189 96.4629C143.576 100.723 147.512 110.903 152.234 120.937C156.956 130.972 162.071 152.496 162.345 162.782C162.618 173.068 154.425 180.397 145.147 181.733C135.869 183.07 131.76 160.328 131.76 160.328Z" fill="#FFEDE5"/>
<path d="M141.964 127.578C138.967 125.186 136.942 121.798 136.262 118.04L145.553 114.825L151.821 120.005L152.007 120.408C152.087 120.58 152.167 120.752 152.254 120.924C152.434 121.308 152.614 121.711 152.793 122.121C152.84 122.24 152.893 122.359 152.947 122.485C153.086 122.803 153.22 123.147 153.359 123.477L153.499 123.821C153.686 124.278 153.866 124.747 154.052 125.23C154.232 125.713 154.412 126.209 154.592 126.712C154.632 126.824 154.672 126.93 154.705 127.036L155.184 128.425C155.184 128.491 155.231 128.564 155.258 128.63C155.631 129.755 156.004 130.919 156.363 132.109L156.423 132.301C156.603 132.89 156.776 133.485 156.949 134.087C156.949 134.087 148.318 132.857 141.964 127.578Z" fill="#F28F8F"/>
<path d="M134.231 96.8206C137.761 95.4381 142.057 98.6727 144.328 100.128C148.944 103.065 177.164 124.907 183.745 130.027C185.17 130.886 186.622 131.713 188.1 132.494L180.348 144.533C179.711 142.803 178.715 141.225 177.424 139.902C170.39 134.915 156.777 132.196 148.012 128.809C141.191 126.164 139.766 124.682 137.468 120.812C135.71 117.75 129.362 99.1093 134.231 96.8206Z" fill="#FFEDE5"/>
<path d="M131.62 160.559L128.829 139.875C128.829 139.875 131.333 145.577 144.228 147.078C157.122 148.58 162.058 146.417 161.731 144.247C161.731 144.247 165.102 157.199 163.796 165.613C162.491 174.027 149.55 182.99 149.55 182.99L131.62 160.559Z" fill="#3B2645"/>
<path opacity="0.15" d="M137.328 163.39C136.142 163.39 135.03 163.463 133.998 163.529L148.331 181.435H151.661C155.377 178.505 162.83 171.917 163.803 165.633C164.762 159.461 163.203 150.862 162.304 146.708C162.817 151.484 152.061 163.079 137.328 163.39Z" fill="black"/>
<path d="M201.881 114.99C197.218 114.13 195.054 117.471 193.335 120.229C191.617 122.987 188.74 128.048 187.454 128.901C186.169 129.754 185.456 128.901 183.624 130.27C181.793 131.64 180.454 134.239 181.02 135.185L182.352 137.487C181.584 137.403 180.807 137.501 180.084 137.771C179.361 138.041 178.712 138.476 178.189 139.041C176.191 141.026 177.23 141.357 178.356 142.481C179.482 143.606 182.126 148.686 184.777 150.068C184.777 150.068 191.917 147.945 197.092 139.901C202.267 131.858 201.881 114.99 201.881 114.99Z" fill="#3B2645"/>
<path d="M186.248 151.133C185.975 151.085 185.715 150.981 185.485 150.827C185.255 150.674 185.059 150.474 184.91 150.241C184.762 150.009 184.664 149.748 184.622 149.475C184.581 149.203 184.597 148.925 184.67 148.659C185.459 146.179 186.644 143.84 188.18 141.734C189.972 139.207 193.328 134.457 193.895 131.858C194.461 129.258 195.68 121.975 197.671 118.926C199.663 115.877 201.707 114.117 204.331 115.103C206.956 116.088 198.67 135.608 196.239 138.916C193.808 142.223 186.248 151.133 186.248 151.133Z" fill="#37474F"/>
<path d="M187.78 150.71C194.341 147.237 196.499 143.864 198.437 139.465C200.375 135.066 204.904 131.011 206.076 127.062C207.249 123.113 207.369 112.986 202.859 115.44C198.35 117.894 197.411 126.95 195.433 132.182C193.455 137.414 181.346 154.13 187.78 150.71Z" fill="#263238"/>
<path d="M148.351 161.406C151.348 160.949 157.109 162.18 162.338 169.429C167.952 177.215 168.998 190.802 165.475 191.92C165.475 191.92 157.309 190.967 151.701 188.05C146.093 185.133 136.668 165.428 148.351 161.406Z" fill="#263238"/>
<path d="M244.127 226.231C235.429 222.837 228.309 217.003 222.148 210.481C217.193 203.8 195.959 175.191 192.276 171.163C190.944 169.734 187.787 166.056 183.411 165.137C167.919 161.83 139.233 162.319 139.233 162.319L128.203 160.474L106.224 181.019C109.254 184.227 113.057 187.025 118.619 189.903C124.18 192.78 130.194 194.87 138.307 194.189C154.545 192.826 164.282 188.269 172.974 186.251C175.492 185.669 178.103 185.133 180.081 189.235C182.059 193.336 182.219 195.393 188.073 199.752C195.58 205.348 207.975 211.606 213.383 218.273C214.274 219.908 214.805 221.711 214.941 223.565C215.454 230.596 221.395 229.214 226.184 232.27C228.795 233.937 230.733 235.961 233.877 236.649C236.739 237.234 239.697 237.18 242.535 236.49C245.093 235.888 248.756 234.056 250.015 231.582C251.667 228.288 246.632 227.203 244.127 226.231Z" fill="#FFEDE5"/>
<path d="M244.127 226.231C235.429 222.837 228.309 217.003 222.148 210.481C217.193 203.8 195.959 175.191 192.276 171.163C190.944 169.734 187.787 166.056 183.411 165.137C167.919 161.83 139.233 162.319 139.233 162.319L128.203 160.474L106.224 181.019C109.254 184.227 113.057 187.025 118.619 189.903C124.18 192.78 130.194 194.87 138.307 194.189C154.545 192.826 164.282 188.269 172.974 186.251C175.492 185.669 178.103 185.133 180.081 189.235C182.059 193.336 182.219 195.393 188.073 199.752C195.58 205.348 207.975 211.606 213.383 218.273C214.274 219.908 214.805 221.711 214.941 223.565C215.454 230.596 221.395 229.214 226.184 232.27C228.795 233.937 230.733 235.961 233.877 236.649C236.739 237.234 239.697 237.18 242.535 236.49C245.093 235.888 248.756 234.056 250.015 231.582C251.667 228.288 246.632 227.203 244.127 226.231Z" fill="#FFEDE5"/>
<path d="M187.574 196.418C185.925 194.602 184.673 192.467 183.897 190.147C183.301 188.207 182.534 186.324 181.606 184.518C178.902 179.887 160.959 185.794 153.013 188.215C152.567 188.877 150.702 190.861 150.036 192.515C159.66 190.564 166.587 187.726 172.961 186.244C175.478 185.662 178.089 185.126 180.067 189.227C182.046 193.328 182.205 195.386 188.06 199.745C191.11 202.02 194.967 204.375 198.836 206.882C194.514 203.548 191.257 200.208 187.574 196.418Z" fill="#F28F8F"/>
<path d="M129.908 160.474C129.908 160.474 145.673 161.241 148.351 161.433C148.351 161.433 142.416 163.02 149.636 177.513C156.856 192.006 165.481 191.927 165.481 191.927C154.159 195.525 148.278 199.567 133.844 197.88C116.641 195.413 106.21 182.62 106.21 182.62L129.908 160.474Z" fill="#3B2645"/>
<path opacity="0.15" d="M165.441 191.926C165.311 191.935 165.179 191.935 165.048 191.926V191.926C163.763 191.781 159.94 190.947 155.657 186.416C152.258 187.317 148.809 188.022 145.327 188.527C132.459 190.398 122.808 188.143 108.428 180.529L106.21 182.606C111.917 188.998 119.238 193.761 127.417 196.405V196.405C127.917 196.557 128.43 196.709 128.949 196.848C129.435 196.974 129.928 197.099 130.421 197.212L130.554 197.245C131.007 197.351 131.473 197.443 131.94 197.536L132.186 197.582C132.732 197.688 133.278 197.781 133.838 197.86C134.744 197.966 135.609 198.045 136.449 198.111C137.288 198.177 138.094 198.21 138.88 198.237H140.032C140.412 198.237 140.785 198.237 141.151 198.237C142.25 198.237 143.296 198.151 144.301 198.052C144.967 197.986 145.62 197.906 146.259 197.814C147.799 197.582 149.325 197.264 150.828 196.861C151.415 196.702 151.994 196.537 152.567 196.358C154.012 195.922 155.437 195.432 156.903 194.903L158.681 194.242C160.786 193.474 162.997 192.667 165.475 191.88L165.441 191.926Z" fill="black"/>
<path d="M77.1908 140.741C70.7835 142.951 64.7292 146.814 69.8644 158.118C77.1908 174.443 110.4 192.568 127.45 196.417C118.792 183.406 125.998 169.615 131.653 160.559L130.128 149.499C130.128 149.499 125.013 147.058 116.54 140.556C108.068 134.054 104.552 132.288 91.9436 136.098C83.2784 138.717 77.1908 140.741 77.1908 140.741Z" fill="#AB8DA8"/>
<path opacity="0.05" d="M103.147 177.639C85.7097 167.717 80.2281 158.879 73.3879 150.393L68.9121 155.817C69.032 156.167 69.1652 156.524 69.3117 156.895C69.3092 156.915 69.3092 156.935 69.3117 156.954C69.4583 157.331 69.6248 157.722 69.8046 158.119C73.0549 165.262 81.2139 172.75 90.8049 179.266C92.1369 180.192 93.5756 181.098 94.9876 181.978C95.7003 182.421 96.4129 182.858 97.1322 183.301C102.01 186.201 107.059 188.808 112.251 191.106C117.123 193.34 122.197 195.112 127.404 196.398C125.507 193.599 124.24 190.427 123.687 187.098C117.626 185.285 111.126 182.183 103.147 177.639Z" fill="black"/>
<path d="M72.3821 142.958C72.3821 142.958 50.8757 131.541 47.4722 130L66.2945 119.026L62.2983 108.727C62.2983 108.727 34.3246 118.603 28.9962 121.441C26.2055 122.942 25 124.179 25 126.309C25 129.861 28.4035 134.465 33.119 138.454C43.1429 146.94 56.7435 154.845 69.991 162.068C73.0282 164.304 76.1852 167.115 76.1852 167.115C79.6686 168.848 84.7372 152.854 72.3821 142.958Z" fill="#FFEDE5"/>
<path d="M92.5167 103.275C91.1733 100.178 88.646 97.7373 85.4909 96.4906C82.3357 95.2439 78.8112 95.2931 75.6925 96.6272C72.5738 97.9614 70.1166 100.471 68.8612 103.605C67.6059 106.738 67.6554 110.239 68.9988 113.336C69.0854 113.548 69.1919 113.74 69.2918 113.938L66.0416 120.963L61.2394 112.172C61.2414 111.479 60.9842 110.811 60.5177 110.296C60.0512 109.782 59.4087 109.458 58.7151 109.387C58.3634 109.357 58.0092 109.399 57.6741 109.509C57.339 109.619 57.03 109.796 56.7659 110.029C56.5018 110.262 56.288 110.545 56.1376 110.862C55.9873 111.18 55.9034 111.524 55.8911 111.874L59.561 112.192C58.7557 112.722 58.1383 113.49 57.796 114.388C56.9235 116.65 59.9606 121.261 64.0301 125.309C64.0301 125.309 69.7914 133.385 71.1901 134.516C72.0913 135.198 73.221 135.51 74.3471 135.39L74.6934 119.514C77.0328 120.768 79.7073 121.267 82.3453 120.942C84.9834 120.617 87.454 119.484 89.414 117.701C91.3739 115.917 92.7258 113.572 93.2818 110.99C93.8379 108.408 93.5704 105.719 92.5167 103.295V103.275Z" fill="#263238"/>
<path d="M68.8719 123.702C68.3391 124.437 66.7139 123.504 65.4285 122.962C64.143 122.419 60.6996 122.399 60.5664 126.044C60.4332 129.689 64.9422 132.659 67.5331 132.388C71.9956 131.931 71.5294 129.173 71.5294 129.173L78.0832 143.586C85.6694 147.714 99.7895 141.218 91.3174 137.137L89.4459 132.857C91.0652 132.425 92.6295 131.81 94.1081 131.025C96.7723 129.345 97.6448 126.302 97.1719 122.816C96.4193 117.227 95.1738 112.967 89.7522 103.633C83.7579 93.4334 71.1031 98.712 66.1611 105.876C61.2191 113.039 68.8719 123.702 68.8719 123.702Z" fill="#FFEDE5"/>
<path d="M69.3988 124.926C69.0391 125.091 66.6746 123.411 65.4025 122.981C63.6775 122.392 60.8734 111.551 60.8734 111.551C60.8734 111.551 58.5823 109.533 59.8411 105.895C60.8734 102.912 64.6832 100.914 67.3207 99.5915C72.0762 97.2036 77.3979 94.4849 79.729 89.4842C79.9155 89.0873 80.1819 88.6375 80.6215 88.6309C80.7581 88.643 80.8908 88.6819 81.012 88.7455C81.1333 88.8091 81.2405 88.8961 81.3275 89.0013C82.4256 90.2255 83.0448 91.8005 83.0726 93.4398C83.0726 93.5919 83.1192 93.7837 83.2724 93.83C83.4256 93.8763 83.5388 93.7507 83.632 93.6382C84.1157 93.05 84.4839 92.3769 84.7177 91.6538C85.0374 90.6682 86.7158 93.1752 86.8357 93.5191C87.2284 94.6074 87.3977 95.7627 87.3336 96.9169C87.2696 98.0711 86.9734 99.201 86.4627 100.24C85.4237 102.31 83.2857 103.593 81.3275 104.725C76.965 107.251 69.5053 109.659 68.4663 109.944C67.0543 110.334 67.3274 111.743 68.1266 115.559C68.8593 118.933 70.6043 124.364 69.3988 124.926Z" fill="#263238"/>
<path d="M89.4461 132.857C89.4461 132.857 81.6535 134.491 78.8827 134.286C77.2573 134.169 75.7059 133.564 74.4336 132.553C75.3379 133.719 76.4708 134.691 77.7638 135.41C80.3214 136.799 90.1788 134.583 90.1788 134.583L89.4461 132.857Z" fill="#F28F8F"/>
<path d="M77.2706 112.715L74.9528 115.229C74.6189 114.907 74.4235 114.468 74.4073 114.006C74.3912 113.544 74.5556 113.093 74.8662 112.748C75.0204 112.587 75.2055 112.458 75.4108 112.368C75.6161 112.279 75.8373 112.231 76.0614 112.228C76.2855 112.225 76.508 112.267 76.7156 112.35C76.9233 112.434 77.112 112.558 77.2706 112.715V112.715Z" fill="#263238"/>
<path d="M84.7373 125.554L88.1674 125.395C88.1884 125.619 88.1636 125.845 88.0946 126.059C88.0255 126.274 87.9137 126.472 87.7657 126.643C87.6177 126.813 87.4366 126.952 87.2333 127.051C87.0299 127.151 86.8085 127.208 86.5822 127.221C86.1174 127.234 85.6655 127.067 85.3215 126.757C84.9775 126.446 84.7681 126.015 84.7373 125.554V125.554Z" fill="#F28F8F"/>
<path d="M91.3776 108.726L88.0474 107.879C88.0926 107.659 88.1825 107.45 88.3115 107.266C88.4404 107.081 88.6058 106.924 88.7977 106.805C88.9895 106.685 89.2037 106.606 89.4274 106.571C89.651 106.536 89.8794 106.547 90.0988 106.603C90.544 106.729 90.9242 107.018 91.1618 107.413C91.3994 107.807 91.4766 108.277 91.3776 108.726V108.726Z" fill="#263238"/>
<path d="M84.271 113.906L86.5422 122.022L90.5384 119.614L84.271 113.906Z" fill="#F28F8F"/>
<path d="M77.9502 117.544C77.9515 117.837 78.0401 118.123 78.2049 118.365C78.3696 118.608 78.6031 118.797 78.8758 118.908C79.1485 119.019 79.4483 119.048 79.7373 118.99C80.0262 118.932 80.2914 118.79 80.4994 118.583C80.7074 118.375 80.8488 118.111 80.9059 117.824C80.9629 117.537 80.933 117.239 80.8199 116.969C80.7067 116.698 80.5155 116.467 80.2703 116.305C80.0251 116.142 79.7369 116.056 79.4421 116.056C79.2457 116.056 79.0511 116.094 78.8697 116.169C78.6882 116.244 78.5235 116.354 78.3848 116.492C78.2462 116.63 78.1364 116.794 78.0619 116.975C77.9873 117.155 77.9493 117.349 77.9502 117.544V117.544Z" fill="#263238"/>
<path d="M88.7466 113.344C88.7453 113.629 88.8291 113.907 88.9874 114.144C89.1457 114.381 89.3714 114.566 89.6357 114.676C89.9001 114.785 90.1913 114.814 90.4722 114.759C90.7532 114.704 91.0114 114.567 91.2139 114.366C91.4164 114.165 91.5542 113.908 91.6098 113.629C91.6653 113.35 91.6361 113.061 91.5259 112.799C91.4157 112.536 91.2294 112.312 90.9907 112.155C90.752 111.997 90.4717 111.914 90.1853 111.916C89.8042 111.917 89.4393 112.068 89.1699 112.336C88.9005 112.604 88.7483 112.966 88.7466 113.344V113.344Z" fill="#263238"/>
<path d="M214.076 225.04C213.51 225.423 214.389 227.844 214.902 228.44C215.97 229.471 217.29 230.209 218.732 230.583C221.354 231.38 223.804 232.654 225.958 234.34C228.615 236.476 231.705 238.017 235.016 238.858C238.946 239.724 243.488 238.62 247.451 236.285C251.607 233.844 251.221 231.502 250.655 229.941L214.076 225.04Z" fill="#37474F"/>
<path d="M223.067 211.454C224.399 212.856 231.646 219.973 237.207 221.786C241.637 223.228 247.398 224.604 249.922 227.283C252.546 230.074 248.637 233.646 243.262 235.697C237.654 237.827 233.844 236.107 230.121 234.248C227.503 232.925 223.647 230.279 221.709 229.214C219.77 228.149 216.181 227.567 214.682 225.986C213.856 225.113 213.263 222.679 212.904 220.542C212.577 218.558 211.259 216.765 211.931 216.659L213.023 217.843C218.085 218.77 223.36 214.126 223.067 211.454Z" fill="#3B2645"/>
<path d="M47.4721 129.999C44.2803 131.711 40.8333 132.906 37.2617 133.537C37.2617 133.537 42.9164 134.946 49.6434 131.077L47.4721 129.999Z" fill="#F28F8F"/>
</svg>
