<svg width="275" height="325" viewBox="0 0 275 325" fill="none" xmlns="http://www.w3.org/2000/svg">
<path d="M251.396 241.273C251.207 244.812 250.559 252.081 245.668 252.081H245.425C244.815 252.025 244.22 251.86 243.669 251.594C243.415 251.48 243.171 251.344 242.939 251.189C241.797 250.254 240.91 249.046 240.362 247.675C239.814 246.305 239.622 244.818 239.805 243.353C239.833 242.445 239.743 241.536 239.535 240.651C239.455 240.23 239.347 239.815 239.211 239.408C239.199 239.328 239.199 239.246 239.211 239.165C238.994 238.679 238.805 238.301 238.616 237.949C238.506 237.733 238.38 237.525 238.238 237.328C238.256 237.275 238.256 237.218 238.238 237.166C238.163 237.038 238.072 236.92 237.968 236.815C237.679 236.424 237.354 236.062 236.995 235.734C236.995 235.734 236.995 235.734 236.995 235.734L236.833 235.572C236.428 235.22 236.049 234.869 235.671 234.572C234.239 233.356 232.969 232.518 233.131 230.978C233.347 227.358 235.833 222.683 239.265 223.71C239.265 223.71 240.129 219.387 237.752 218.306C236.238 217.55 237.752 217.144 238.67 217.063C240.237 216.928 241.804 217.55 243.48 217.415C243.583 217.319 243.691 217.229 243.804 217.144C244.467 217.05 245.14 217.05 245.803 217.144H245.965C246.684 217.298 247.355 217.625 247.92 218.096C248.485 218.566 248.927 219.167 249.208 219.846C249.675 221.221 249.912 222.663 249.91 224.115C250.181 229.979 251.721 235.356 251.396 241.273Z" fill="#3B2645"/>
<path d="M241.318 233.356C241.102 233.923 240.642 234.167 240.156 234.491C239.595 234.885 239.062 235.318 238.562 235.788C238.278 236.084 238.017 236.4 237.778 236.733C237.49 236.342 237.164 235.981 236.806 235.653C236.806 235.653 236.806 235.653 236.806 235.653L236.644 235.491C236.827 235.236 237.025 234.992 237.238 234.761C238.049 233.869 239.643 232.221 240.94 232.626C241.085 232.676 241.205 232.779 241.275 232.915C241.346 233.051 241.361 233.209 241.318 233.356V233.356Z" fill="#E8CEE5"/>
<path d="M242.561 236.49C241.502 237.494 240.353 238.398 239.13 239.192C238.913 238.706 238.724 238.328 238.535 237.976C239.466 236.862 240.756 236.107 242.183 235.842C242.256 235.848 242.327 235.872 242.389 235.911C242.451 235.951 242.503 236.004 242.54 236.068C242.577 236.132 242.598 236.203 242.602 236.277C242.606 236.35 242.592 236.423 242.561 236.49Z" fill="#E8CEE5"/>
<path d="M251.396 241.273C251.207 244.813 250.558 252.081 245.668 252.081H245.425C244.815 252.025 244.22 251.861 243.668 251.594C250.883 248.892 249.289 239.382 248.613 232.681C248.549 227.406 247.702 222.17 246.1 217.145C246.796 217.314 247.442 217.648 247.982 218.118C248.523 218.588 248.943 219.181 249.207 219.846C249.675 221.221 249.912 222.664 249.91 224.116C250.18 229.979 251.72 235.356 251.396 241.273Z" fill="#E8CEE5"/>
<path d="M106.004 97.6908C106.004 97.6908 105.275 100.906 104.059 105.797C101.555 116.223 98.2487 126.439 94.1698 136.356C93.0553 138.992 91.6313 141.486 89.9277 143.786C82.3352 153.405 51.8031 131.384 47.9123 128.52C47.6557 128.323 47.3442 128.209 47.0207 128.196C44.8591 128.196 36.2128 127.737 36.402 121.765C36.5641 115.254 41.0493 107.067 50.8574 116.361C56.9098 122.062 78.2823 129.142 78.2823 129.142L85.2263 84.127C85.3137 83.5727 85.5509 83.0529 85.9123 82.6236C86.2736 82.1943 86.7453 81.8719 87.2765 81.6911C87.8077 81.5103 88.3782 81.4781 88.9264 81.5979C89.4746 81.7176 89.9796 81.9849 90.387 82.3707C94.1968 85.9103 100.087 91.6114 106.004 97.6908Z" fill="#FFEDE5"/>
<path d="M104.031 105.688C101.541 116.15 98.2442 126.404 94.1691 136.356C94.034 123.386 93.7368 105.526 93.7368 105.526C95.337 104.716 97.1105 104.307 98.9041 104.335C100.698 104.364 102.457 104.828 104.031 105.688V105.688Z" fill="#E0855C"/>
<path d="M128.376 176.75C122.729 180.749 116.433 184.613 110.165 188.423C107.166 190.233 104.302 192.043 101.6 193.827C93.638 199.114 85.971 204.833 78.6332 210.957C81.7944 214.74 85.0908 223.44 88.063 233.329C94.0343 253.216 98.8708 277.993 98.8708 277.993C93.4669 282.937 88.9006 280.695 88.9006 280.695C84.6585 272.589 75.5259 255.053 67.8253 238.922C60.6111 223.926 54.6668 209.957 55.2613 205.526C55.8557 201.095 67.5281 188.288 79.5788 175.967C93.0886 162.457 106.923 149.434 106.923 149.434C112.106 143.878 117.982 139.011 124.404 134.951C130.862 131.141 137.914 128.953 143.318 132.519C146.072 134.46 148.143 137.222 149.235 140.409C149.434 140.876 149.606 141.354 149.749 141.841C153.883 155 143.183 166.348 128.376 176.75Z" fill="#FFEDE5"/>
<path d="M237.779 230.33C222.918 231.032 207.49 232.734 194.98 233.707C184.172 234.572 175.634 234.95 171.527 233.707C163.421 231.383 150.478 212.416 141.805 198.582C136.698 190.314 133.024 183.856 133.024 183.856C133.024 183.856 130.889 181.154 128.295 176.75C121.459 165.321 111.489 143.462 130.997 137.545C139.373 135.005 145.047 136.896 149.56 141.841C155.612 148.461 159.584 160.538 165.231 174.994L180.767 213.605C185.342 212.649 190.011 212.222 194.682 212.335C209.522 212.91 224.271 214.918 238.724 218.333C243.372 224.115 237.779 230.33 237.779 230.33Z" fill="#FFEDE5"/>
<path d="M100.357 55.4594C106.058 53.8923 111.732 52.2171 117.352 50.3798C120.648 49.299 124.269 49.2449 125.458 45.4352C125.908 43.8582 125.994 42.1993 125.709 40.5843C125.423 38.9692 124.774 37.4403 123.81 36.1134C121.933 33.7522 119.299 32.1108 116.352 31.4661C113.422 30.8446 110.393 30.8446 107.463 31.4661C105.348 31.7334 103.314 32.4445 101.493 33.5527C99.6729 34.6609 98.1069 36.1412 96.8982 37.8967C95.6057 40.4771 95.0984 43.3799 95.4391 46.2458C95.6669 48.7586 96.5216 51.174 97.9249 53.2708C98.1141 53.5681 99.384 56.1619 100.032 55.9728C100.222 55.8647 100.33 55.4864 100.357 55.4594Z" fill="#3B2645"/>
<path d="M98.8438 50.947C98.5047 50.6437 98.0989 50.4246 97.6593 50.3076C97.2196 50.1907 96.7586 50.1791 96.3136 50.2739C95.8687 50.3687 95.4524 50.5671 95.0986 50.8531C94.7448 51.1391 94.4634 51.5045 94.2775 51.9197C92.5752 55.1621 97.6009 59.5933 100.6 59.188C100.189 56.4068 99.602 53.6543 98.8438 50.947V50.947Z" fill="#E0855C"/>
<path d="M148.29 73.6976C146.613 82.6942 145.664 91.8113 145.453 100.96C145.453 101.852 145.453 102.636 145.453 103.419C145.804 109.066 148.695 135.68 149.236 139.868C149.236 140.22 149.236 140.409 149.236 140.409C131.051 149.866 110.03 149.46 107.355 149.433H107.058C106.962 149.049 106.844 148.67 106.707 148.299C105.086 143.408 98.8171 123.278 93.7645 105.527C93.7645 105.256 93.6023 105.013 93.5213 104.716C90.8193 95.5835 87.0096 88.5043 85.9828 83.2896C85.6046 81.3171 91.819 79.0475 94.8452 77.8857C95.2775 77.6965 95.7369 77.5614 96.2232 77.3993C98.6009 76.5617 101.06 75.8592 103.032 75.3458L107.112 74.4001L105.842 63.5923H106.923C107.602 63.5633 108.279 63.4911 108.949 63.3762C109.78 63.2406 110.602 63.0511 111.408 62.8088L112.543 62.4575L114.029 61.8361C114.821 61.5033 115.589 61.1151 116.326 60.6742C116.492 60.6022 116.655 60.521 116.812 60.431C116.837 60.4453 116.865 60.4528 116.893 60.4528C116.922 60.4528 116.95 60.4453 116.974 60.431L117.488 60.1068C118.394 59.5105 119.245 58.8322 120.027 58.0803C120.46 57.675 120.838 57.3238 121.135 56.9996L121.324 56.7834C121.466 56.6541 121.593 56.509 121.703 56.3511C121.807 56.2557 121.898 56.1466 121.973 56.0269V56.27C121.973 56.4321 121.973 56.5943 121.973 56.7834C121.973 58.5667 122.351 60.8093 122.729 63.0519C122.946 64.592 123.189 66.1051 123.432 67.4291C123.864 69.6987 124.215 71.3469 124.215 71.3469C124.705 71.2284 125.201 71.1382 125.702 71.0767H125.864H126.674C128.581 70.7934 130.503 70.622 132.429 70.5634C133.24 70.5634 134.024 70.5634 134.78 70.5634C139.057 70.6302 143.3 71.3313 147.371 72.6439C147.618 72.696 147.841 72.827 148.007 73.0171C148.173 73.2072 148.272 73.4461 148.29 73.6976Z" fill="#FFEDE5"/>
<path d="M122.215 55.9189C122.268 57.8937 121.882 59.8557 121.085 61.6631C120.288 63.4706 119.099 65.0786 117.605 66.371C116.111 67.6634 114.349 68.6081 112.445 69.1369C110.542 69.6657 108.545 69.7653 106.598 69.4287L105.95 63.8357C109.072 63.7694 112.143 63.0274 114.951 61.6607C117.759 60.2941 120.237 58.3352 122.215 55.9189Z" fill="#E0855C"/>
<path d="M97.6823 42.8955C96.4934 44.8139 97.1419 48.2994 97.8444 52.3254C100.006 64.295 104.329 67.2401 110.544 66.5917C116.758 65.9432 122.594 62.2685 121.541 50.9744C121.027 45.3273 120.649 40.1666 118.136 38.1401C114.38 35.222 101.303 37.0593 97.6823 42.8955Z" fill="#FFEDE5"/>
<path d="M120.379 49.6232C120.379 49.6232 121.162 44.2193 124.648 46.2728C128.133 48.3262 125.674 56.5672 121.081 57.0806C121.081 56.9185 119.298 51.5416 120.379 49.6232Z" fill="#FFEDE5"/>
<path d="M103.005 50.92C103.005 50.92 102.059 51.5415 101.816 49.6771C101.573 47.8128 102.383 48.083 102.383 48.083C102.383 48.083 103.086 47.9209 103.302 49.3799C103.518 50.839 103.005 50.92 103.005 50.92Z" fill="#3B2645"/>
<path d="M113.408 48.7046C113.408 48.7046 112.462 49.2991 112.219 47.4617C111.976 45.6244 112.786 45.8676 112.786 45.8676C112.786 45.8676 113.489 45.7055 113.705 47.1645C113.921 48.6236 113.408 48.7046 113.408 48.7046Z" fill="#3B2645"/>
<path d="M108.706 54.7838C108.192 54.7838 107.058 55.3782 106.679 54.7838C106.517 53.501 106.517 52.2028 106.679 50.92C106.823 49.2038 106.868 47.4807 106.814 45.7593C106.814 45.7593 106.652 45.7593 106.625 45.7593C106.156 48.9161 105.949 52.1062 106.004 55.2972C105.996 55.3394 106 55.3828 106.015 55.423C106.03 55.4632 106.055 55.4988 106.088 55.5263C106.121 55.5537 106.16 55.5719 106.202 55.5791C106.245 55.5864 106.288 55.5823 106.328 55.5674C107.085 55.4053 107.868 55.4053 108.625 55.2431C108.976 55.1891 108.976 54.7568 108.706 54.7838Z" fill="#E0855C"/>
<path d="M102.95 45.1649C102.113 44.9487 100.735 45.1649 100.248 46.0295C100.23 46.0684 100.223 46.1121 100.229 46.1549C100.235 46.1977 100.254 46.2377 100.283 46.2697C100.312 46.3018 100.35 46.3243 100.392 46.3345C100.434 46.3446 100.478 46.3419 100.519 46.3267C100.87 46.3267 101.167 45.9755 101.518 45.8674C101.911 45.7866 102.315 45.7866 102.707 45.8674C102.8 45.8996 102.903 45.8936 102.991 45.8505C103.08 45.8074 103.148 45.7309 103.18 45.6377C103.212 45.5446 103.206 45.4424 103.163 45.3537C103.12 45.2651 103.044 45.1971 102.95 45.1649Z" fill="#3B2645"/>
<path d="M113.947 43.7598C113.735 43.5592 113.484 43.4032 113.21 43.3012C112.936 43.1991 112.644 43.153 112.352 43.1656C112.06 43.1782 111.773 43.2492 111.509 43.3745C111.244 43.4997 111.008 43.6767 110.813 43.8949C110.786 43.9415 110.771 43.9941 110.769 44.0481C110.767 44.1021 110.779 44.1557 110.803 44.204C110.827 44.2524 110.863 44.2939 110.907 44.3248C110.951 44.3558 111.003 44.3752 111.056 44.3812C111.532 44.3212 112.002 44.2218 112.461 44.084C112.856 44.0293 113.256 44.0293 113.65 44.084C113.866 44.2191 114.11 43.9489 113.947 43.7598Z" fill="#3B2645"/>
<path d="M111.976 56.7025C110.814 57.2969 110.192 58.1886 108.814 58.4317C108.141 58.608 107.434 58.608 106.761 58.4317C106.383 58.4317 106.383 58.2426 106.004 58.2696C105.976 58.2724 105.95 58.2813 105.926 58.2957C105.902 58.3101 105.881 58.3296 105.866 58.3529C105.85 58.3762 105.84 58.4026 105.836 58.4302C105.832 58.4578 105.834 58.4861 105.842 58.5128C106.166 59.6746 108.004 59.4855 108.895 59.3504C109.6 59.2738 110.276 59.0273 110.864 58.6319C111.452 58.2366 111.936 57.7043 112.273 57.0808C112.354 56.8646 112.165 56.6214 111.976 56.7025Z" fill="#E0855C"/>
<path d="M169.5 185.315C168.689 185.91 167.933 186.477 167.149 186.99C166.366 187.504 165.906 187.855 165.285 188.26C158.197 193.166 150.237 196.669 141.832 198.582C136.698 190.314 133.024 183.856 133.024 183.856C133.024 183.856 130.889 181.154 128.295 176.75C122.648 180.749 116.353 184.613 110.084 188.422C107.085 190.233 104.221 192.043 101.519 193.826C98.952 192.286 96.6283 190.746 94.5207 189.26C88.996 185.491 83.9827 181.023 79.606 175.966C93.1157 162.457 106.95 149.433 106.95 149.433C112.133 143.878 118.009 139.011 124.431 134.951C130.511 132.889 136.941 132.063 143.345 132.519C146.089 134.464 148.15 137.225 149.235 140.409C149.435 140.875 149.606 141.354 149.749 141.841C155.801 148.46 159.773 160.538 165.42 174.994C166.852 178.614 168.149 182.019 169.5 185.315Z" fill="#AB8DA8"/>
<path d="M98.8169 277.992C93.413 282.937 88.8467 280.694 88.8467 280.694C84.6047 272.588 75.4721 255.053 67.7715 238.922C74.7187 237.815 81.5234 235.949 88.0632 233.356C94.0345 253.215 98.8169 277.992 98.8169 277.992Z" fill="#E8CEE5"/>
<path d="M101.654 281.613C101.695 281.863 101.695 282.119 101.654 282.369C101.465 283.561 100.839 284.64 99.898 285.395C98.7174 286.252 97.415 286.926 96.0342 287.395C90.6303 289.584 86.0099 292.799 80.2818 294.231C76.8773 295.123 69.8252 296.744 68.2581 292.096C68.2526 292.015 68.2526 291.934 68.2581 291.853C68.1946 291.378 68.1946 290.896 68.2581 290.421C68.2856 290.02 68.3489 289.622 68.4472 289.232C68.9606 287.449 70.5548 285.233 74.9319 283.828C75.8027 283.562 76.6375 283.19 77.4177 282.721C77.7826 282.517 78.1346 282.292 78.4715 282.045L78.6876 281.856C79.0881 281.539 79.4588 281.186 79.7954 280.802L80.1467 280.397L80.2818 280.235L80.6601 279.64C80.8753 279.313 81.065 278.97 81.2275 278.614V278.614C81.5247 277.992 81.7408 277.479 81.93 277.019C82.6055 275.29 83.0648 273.885 84.6319 273.507C88.1445 272.588 93.3322 273.507 93.4673 277.073C93.4673 277.073 97.8445 276.56 98.1957 273.939C98.4389 272.264 99.3306 273.561 99.6818 274.426C100.276 275.885 100.195 277.56 100.844 279.073C100.844 279.289 101.033 279.451 101.114 279.667C101.438 280.258 101.666 280.896 101.789 281.559C101.747 281.584 101.702 281.602 101.654 281.613Z" fill="#3B2645"/>
<path d="M237.779 230.33C222.918 231.032 207.49 232.735 194.98 233.707C195.885 229.265 196.221 224.725 195.98 220.198C195.941 217.512 195.56 214.843 194.845 212.254C209.684 212.829 224.434 214.838 238.887 218.252C243.372 224.115 237.779 230.33 237.779 230.33Z" fill="#E8CEE5"/>
<path d="M82.4432 286.017C81.2544 284.774 80.1736 283.45 78.9307 282.234L78.5254 281.856C78.9258 281.539 79.2966 281.186 79.6332 280.802C79.7953 280.964 79.9304 281.126 80.0925 281.262C81.3345 282.418 82.4487 283.704 83.4159 285.098C83.8212 285.72 82.9836 286.584 82.4432 286.017Z" fill="#E8CEE5"/>
<path d="M85.6043 282.424C85.6461 282.528 85.6559 282.643 85.6322 282.754C85.6085 282.864 85.5525 282.965 85.4713 283.043C85.3901 283.121 85.2874 283.173 85.1763 283.193C85.0653 283.213 84.9508 283.199 84.8477 283.153C83.6499 282.358 82.5283 281.453 81.4973 280.451C81.1808 280.178 80.8468 279.925 80.4976 279.695C80.7128 279.368 80.9025 279.024 81.065 278.668V278.668C81.4659 278.825 81.8398 279.044 82.1728 279.316C83.5809 280.016 84.7684 281.092 85.6043 282.424V282.424Z" fill="#E8CEE5"/>
<path d="M101.627 282.37C101.437 283.561 100.811 284.64 99.8706 285.396C98.6901 286.252 97.3876 286.926 96.0068 287.395C90.6029 289.584 85.9826 292.799 80.2544 294.231C76.85 295.123 69.7979 296.744 68.2308 292.097C68.2252 292.016 68.2252 291.934 68.2308 291.853C68.1672 291.378 68.1672 290.897 68.2308 290.421C75.0127 294.988 81.5244 290.827 88.4143 288.611C93.44 286.963 98.5197 285.99 101.627 282.37Z" fill="#E8CEE5"/>
<path d="M167.149 186.99C166.528 187.45 165.906 187.855 165.285 188.26C158.692 172.4 152.721 156.08 143.967 141.49C143.507 140.733 144.561 139.922 145.101 140.679C150.505 148.109 153.829 157.296 157.638 165.645C160.881 172.616 164.177 179.776 167.149 186.99Z" fill="#E8CEE5"/>
<path d="M128.376 176.75C122.729 180.749 116.434 184.613 110.165 188.422C107.166 190.233 104.302 192.043 101.6 193.826C99.0333 192.286 96.7096 190.746 94.6021 189.26C113.948 178.236 127.998 176.777 128.376 176.75Z" fill="#826B80"/>
<path d="M149.235 140.409C131.051 149.866 110.03 149.515 107.355 149.434H107.058L106.707 148.38C105.085 143.489 98.8168 123.36 93.7642 105.608C96.4661 96.5293 96.4661 82.4521 96.2229 77.5616C98.6007 76.7239 101.059 76.0214 103.032 75.5081C103.167 80.2635 104.437 92.1251 113.569 92.4493C124.377 92.8276 126.458 77.5345 126.836 70.8337C128.743 70.5503 130.664 70.3789 132.591 70.3203C133.402 70.3203 134.185 70.3203 134.942 70.3203C134.378 74.8194 134.533 79.3797 135.401 83.8301C136.836 91.2601 140.339 98.1344 145.507 103.662C145.669 106.526 146.452 114.632 147.263 122.576C148.073 130.52 149.235 140.409 149.235 140.409Z" fill="#3B2645"/>
<path d="M145.533 103.662C145.533 106.364 146.452 114.47 147.262 122.576C139.254 111.307 135.086 97.7596 135.374 83.938C136.836 91.3326 140.347 98.1673 145.506 103.662H145.533Z" fill="#291B30"/>
<path d="M53.8836 119.496C52.8299 123.306 50.9385 126.737 49.8037 130.466C49.2093 132.411 51.9653 133.168 53.0731 131.979C55.7488 128.546 57.5979 124.542 58.477 120.279C59.1525 117.442 54.6672 116.686 53.8836 119.496Z" fill="#AB8DA8"/>
<path d="M101.546 69.6987C102.194 70.5903 102.87 71.4009 103.545 72.2385C103.803 72.5263 104.037 72.8334 104.248 73.1572C108.355 78.8853 109.057 85.4781 111.111 91.8277L111.84 90.6929C111.246 88.2071 110.732 85.7213 110.057 83.2895C110.687 79.5051 112.237 75.9332 114.569 72.887C116.395 71.0795 118.05 69.1078 119.514 66.9967C120.733 64.7273 121.443 62.2193 121.594 59.6474C121.649 57.1427 122.134 54.6661 123.026 52.3251C123.126 52.1287 123.199 51.9197 123.242 51.7037C123.251 51.4258 123.192 51.1499 123.069 50.9003C122.947 50.6507 122.765 50.4348 122.54 50.2717C122.371 50.1279 122.165 50.0343 121.945 50.0015C121.832 49.9881 121.717 50.0093 121.616 50.0623C121.515 50.1154 121.432 50.1977 121.378 50.2987C121.35 50.4414 121.35 50.5882 121.378 50.731C121.436 52.3121 121.346 53.8952 121.108 55.4594C120.946 57.1076 120.865 58.7828 120.676 60.458C120.208 64.301 118.423 67.8629 115.623 70.5363C112.431 73.6157 110.341 77.6609 109.679 82.0466C109.042 79.7756 108.135 77.5894 106.977 75.5349C105.382 72.833 103.221 70.4552 101.573 67.8073C100.379 65.9629 99.5447 63.9094 99.1139 61.755C98.8155 60.7644 98.6608 59.7362 98.6546 58.7017C98.6546 57.675 99.1409 55.6215 98.4925 54.7569C97.4927 53.4059 97.1145 54.9731 97.2496 55.9187C97.5738 57.9722 97.5468 60.0527 97.9791 62.0792C98.5709 64.5335 99.6055 66.8593 101.032 68.9422L101.546 69.6987Z" fill="#AB8DA8"/>
<path d="M123.756 121.901C122.08 123.846 122.405 127.304 122.459 129.574C122.724 131.553 122.842 133.549 122.81 135.545C122.797 136.408 122.595 137.257 122.217 138.033C121.838 138.808 121.294 139.49 120.621 140.031C120.094 140.273 119.525 140.41 118.946 140.436C118.438 140.544 117.914 140.544 117.406 140.436C116.683 140.132 116.063 139.626 115.623 138.977C113.731 136.599 114.11 134.492 113.974 131.655C113.961 130.449 113.696 129.26 113.199 128.163C112.701 127.065 111.981 126.083 111.083 125.278C106.139 120.09 108.733 115.659 110.219 109.85C112.137 102.338 112.921 92.6924 109.624 85.5322C110.322 90.1938 110.71 94.8965 110.786 99.6094C110.38 104.713 109.354 109.749 107.733 114.605C107.171 115.958 106.882 117.409 106.882 118.874C106.882 120.34 107.171 121.79 107.733 123.143C108.333 124.141 109.07 125.051 109.922 125.845C112.623 128.547 112.624 131.087 112.921 134.789C113.218 138.491 117.163 143.759 121.513 140.652C122.347 139.908 122.99 138.976 123.39 137.932C123.79 136.888 123.933 135.764 123.81 134.654C123.81 132.708 123.404 130.79 123.296 128.845C123.125 127.204 123.197 125.546 123.512 123.927C123.595 123.604 123.742 123.301 123.945 123.035C124.358 122.587 124.91 122.292 125.512 122.198C125.817 122.063 126.152 122.008 126.485 122.036C126.913 122.083 127.312 122.274 127.619 122.576C128.369 123.46 128.98 124.453 129.43 125.521C129.43 125.764 129.619 126.278 129.889 126.386C130.159 126.494 130.591 126.251 130.51 125.899C129.835 123.197 126.917 118.28 123.756 121.901Z" fill="#AB8DA8"/>
<path d="M134.256 123.199L128.162 126.175C126.714 126.883 126.113 128.63 126.821 130.078L134.255 145.301C134.962 146.749 136.71 147.35 138.158 146.642L144.252 143.666C145.7 142.959 146.301 141.212 145.593 139.764L138.159 124.541C137.452 123.093 135.704 122.492 134.256 123.199Z" fill="#E8CEE5"/>
<path d="M146.29 72.4276C146.716 72.3384 147.157 72.3532 147.575 72.4708C147.994 72.5884 148.378 72.8053 148.695 73.1031C154.099 78.2098 179.957 103.77 182.253 114.902C184.658 126.548 149.371 135.491 144.831 136.518C144.523 136.587 144.247 136.759 144.048 137.004C142.697 138.571 137.023 144.651 132.672 140.868C128.322 137.085 124.567 128.277 137.617 126.737C145.588 125.791 164.123 114.335 164.123 114.335L141.859 97.2856C141.859 97.2856 134.618 74.9945 146.29 72.4276Z" fill="#FFEDE5"/>
<path d="M175.039 213.659C164.42 213.038 153.667 213.659 143.048 213.659C132.429 213.659 121.648 213.254 111.057 214.01C111.009 214.027 110.968 214.058 110.939 214.099C110.909 214.14 110.894 214.189 110.894 214.24C110.894 214.29 110.909 214.34 110.939 214.381C110.968 214.422 111.009 214.453 111.057 214.47C121.648 215.226 132.429 214.767 143.048 214.794C153.667 214.821 164.42 215.388 175.039 214.794C175.19 214.794 175.334 214.734 175.44 214.628C175.547 214.521 175.606 214.377 175.606 214.226C175.606 214.076 175.547 213.932 175.44 213.825C175.334 213.719 175.19 213.659 175.039 213.659V213.659Z" fill="#F7F8F8"/>
<path d="M251.612 170.833C239.859 170.212 227.997 170.644 216.244 170.644C204.49 170.644 192.548 169.914 180.875 170.968C180.761 170.968 180.651 171.014 180.569 171.095C180.488 171.176 180.443 171.286 180.443 171.4C180.443 171.515 180.488 171.625 180.569 171.706C180.651 171.787 180.761 171.833 180.875 171.833C192.548 172.86 204.544 172.103 216.244 172.13C227.943 172.157 239.859 172.562 251.612 171.968C251.763 171.968 251.907 171.908 252.014 171.802C252.12 171.695 252.18 171.551 252.18 171.4C252.18 171.25 252.12 171.106 252.014 170.999C251.907 170.893 251.763 170.833 251.612 170.833V170.833Z" fill="#F7F8F8"/>
<path d="M71.419 155.567C63.4482 155.08 55.3424 155.432 47.3446 155.567C39.3102 155.233 31.2632 155.359 23.2432 155.945C23.1787 155.945 23.1168 155.971 23.0712 156.016C23.0256 156.062 23 156.124 23 156.188C23 156.253 23.0256 156.315 23.0712 156.36C23.1168 156.406 23.1787 156.431 23.2432 156.431C31.2638 157.004 39.31 157.13 47.3446 156.81C55.4505 156.81 63.5563 157.161 71.419 156.81C71.5838 156.81 71.7419 156.744 71.8584 156.628C71.975 156.511 72.0405 156.353 72.0405 156.188C72.0405 156.023 71.975 155.865 71.8584 155.749C71.7419 155.632 71.5838 155.567 71.419 155.567V155.567Z" fill="#F7F8F8"/>
<path d="M79.5247 161.484C70.9715 160.7 62.3598 160.808 53.8291 161.808C53.8291 161.808 53.8291 162.051 53.8291 162.078C62.3616 163.056 70.9719 163.155 79.5247 162.376C79.6243 162.351 79.7127 162.294 79.7759 162.213C79.8391 162.132 79.8734 162.032 79.8734 161.93C79.8734 161.827 79.8391 161.728 79.7759 161.647C79.7127 161.566 79.6243 161.509 79.5247 161.484V161.484Z" fill="#F7F8F8"/>
<path d="M220.513 55.0269C209.38 54.4055 198.113 54.8378 186.954 54.8648C175.795 54.8918 164.528 54.4865 153.396 55.2701C153.31 55.2701 153.228 55.3042 153.167 55.365C153.106 55.4258 153.072 55.5083 153.072 55.5943C153.072 55.6803 153.106 55.7628 153.167 55.8236C153.228 55.8844 153.31 55.9185 153.396 55.9185C164.528 56.7021 175.822 56.3238 186.954 56.3509C198.086 56.3779 209.38 56.8102 220.513 56.1887C220.645 56.16 220.764 56.0866 220.849 55.9809C220.934 55.8753 220.981 55.7436 220.981 55.6078C220.981 55.4721 220.934 55.3404 220.849 55.2347C220.764 55.129 220.645 55.0557 220.513 55.0269Z" fill="#F7F8F8"/>
</svg>
