<svg width="275" height="325" viewBox="0 0 275 325" fill="none" xmlns="http://www.w3.org/2000/svg">
<path d="M121.59 75.4433C121.59 75.4433 123.271 64 136.151 64C149.032 64 155.279 78.6383 158.187 87.2265C161.095 95.8146 168.592 103.904 178.36 108.685C188.128 113.467 195.511 118.611 194.262 129.442C194.262 129.442 215.162 145.757 175.339 148.771C135.515 151.785 115.956 126.791 118.364 113.92C120.772 101.049 105.233 83.6009 121.59 75.4433Z" fill="#3B2645"/>
<path d="M145.693 102.907C145.693 102.907 143.875 120.491 151.599 122.032C151.599 122.032 154.802 153.597 136.788 153.597C118.773 153.597 120.613 122.984 120.613 122.984C120.613 122.984 128.291 120.967 127.678 103.994C127.065 87.0221 145.943 91.1009 145.693 102.907Z" fill="#FFEDE5"/>
<path d="M140.331 104.472C141.853 98.6934 134.016 97.5151 128.746 97.3564C127.996 99.0559 127.564 101.254 127.655 103.996C127.769 106.398 127.655 108.822 127.36 111.224C130.359 111.451 138.491 111.428 140.331 104.472Z" fill="#E0855C"/>
<path d="M125.486 99.0779C127.111 98.5205 127.583 95.6125 126.538 92.5827C125.494 89.5529 123.33 87.5486 121.704 88.106C120.079 88.6634 119.608 91.5714 120.652 94.6012C121.696 97.631 123.86 99.6353 125.486 99.0779Z" fill="#E0855C"/>
<path d="M152.542 94.575C153.586 91.5452 153.115 88.6372 151.489 88.0798C149.864 87.5224 147.699 89.5267 146.655 92.5565C145.611 95.5863 146.082 98.4943 147.708 99.0517C149.333 99.6091 151.498 97.6048 152.542 94.575Z" fill="#E0855C"/>
<path d="M122.566 78.2754C122.566 78.2754 121.317 108.617 135.72 108.685C146.919 108.73 150.122 95.1118 150.304 79.771C150.486 64.4302 122.748 66.4922 122.566 78.2754Z" fill="#FFEDE5"/>
<path d="M136.856 99.8025C134.448 99.8025 132.335 98.3523 132.312 98.3296C132.199 98.2616 132.176 98.1257 132.267 98.0124C132.335 97.8991 132.471 97.8764 132.585 97.9671C132.63 97.9897 136.72 100.777 139.741 98.3976C139.832 98.3296 139.991 98.3296 140.059 98.4429C140.127 98.5562 140.127 98.6922 140.014 98.7602C138.991 99.5306 137.901 99.8025 136.856 99.8025Z" fill="#472938"/>
<path d="M127.496 87.249C127.496 87.249 129.382 88.45 132.562 87.4756C132.562 87.453 129.859 90.2175 127.496 87.249Z" fill="#472938"/>
<path d="M145.58 87.498C145.58 87.498 143.694 88.699 140.514 87.7246C140.514 87.7246 143.217 90.4892 145.58 87.498Z" fill="#472938"/>
<path d="M126.406 83.5554C126.406 83.5554 128.791 80.9269 132.267 81.7426C134.039 82.1505 133.357 79.9751 130.154 80.1111C126.951 80.2471 126.406 83.5554 126.406 83.5554Z" fill="#472938"/>
<path d="M146.851 83.5554C146.851 83.5554 144.466 80.9269 140.99 81.7426C139.218 82.1505 139.9 79.9751 143.103 80.1111C146.306 80.2471 146.851 83.5554 146.851 83.5554Z" fill="#472938"/>
<path d="M136.31 94.727C135.629 94.727 134.175 94.2285 133.675 93.7299C133.493 93.5487 133.425 93.3674 133.448 93.1861C133.493 92.9142 133.698 92.0531 133.993 90.9654C134.379 89.4019 134.879 87.4758 135.038 86.524C135.197 85.6176 135.038 84.6659 134.607 83.8502C134.538 83.7369 134.584 83.6009 134.698 83.5329C134.811 83.4649 134.947 83.5103 135.016 83.6236C135.493 84.53 135.674 85.5723 135.493 86.592C135.334 87.5664 134.834 89.5152 134.448 91.0787C134.175 92.1211 133.948 93.0275 133.925 93.2541C133.925 93.2767 133.948 93.322 134.016 93.4127C134.493 93.8886 135.992 94.3418 136.424 94.2738C136.992 94.1831 138.173 93.6393 138.582 93.1634C138.673 93.0728 138.809 93.0728 138.9 93.1408C138.991 93.2314 138.991 93.3674 138.923 93.458C138.423 94.0019 137.151 94.6137 136.492 94.7043C136.401 94.727 136.356 94.727 136.31 94.727Z" fill="#472938"/>
<path d="M122.771 86.0482C122.771 86.0482 123.68 78.8197 125.929 76.1685C125.929 76.1685 129.7 74.4916 135.697 78.0492C141.695 81.6069 145.897 84.598 151.463 83.7142C151.463 83.7142 151.985 66.47 137.605 67.399C123.225 68.3281 120.272 75.8285 122.771 86.0482Z" fill="#3B2645"/>
<path d="M217.797 192.596C217.57 192.234 216.888 192.845 216.888 192.845C216.888 192.845 216.184 192.052 214.276 192.619C212.368 193.185 206.711 198.035 206.711 198.035C204.167 197.989 200.01 200.482 200.01 200.482C200.01 200.482 196.875 199.19 194.035 194.93C191.195 190.67 188.106 188.585 188.106 188.585C188.106 188.585 181.45 161.892 176.952 145.237C172.386 147.163 166.456 154.754 162.231 160.872C162.322 163.75 162.413 165.585 162.413 165.585C162.413 165.585 177.224 204.787 179.133 205.966C181.041 207.144 202.827 209.772 203.054 209.614C203.281 209.455 205.28 209.976 206.098 209.614C206.916 209.251 207.915 209.84 208.915 209.161C209.914 208.481 211.641 209.523 212.345 208.866C213.049 208.209 214.276 208.481 215.094 208.096C215.912 207.71 220.478 201.275 220.569 200.119C220.66 198.964 218.024 192.959 217.797 192.596Z" fill="#FFEDE5"/>
<path d="M166.047 153.054C166.047 153.054 173.793 166.242 167.66 179.226L162.389 165.54L166.047 153.054Z" fill="#E0855C"/>
<path d="M176.928 145.192C175.316 139.209 173.975 134.519 173.316 132.819C170.818 126.293 166.206 125.999 166.206 125.999C161.662 126.067 161.89 150.358 162.208 160.827C166.433 154.709 172.362 147.14 176.928 145.192Z" fill="#AB8DA8"/>
<path d="M183.062 189.967C182.971 189.967 182.88 189.899 182.835 189.809C182.812 189.695 182.88 189.559 182.994 189.537L187.446 188.358C187.56 188.336 187.696 188.404 187.719 188.517C187.742 188.63 187.674 188.766 187.56 188.789L183.108 189.967C183.108 189.967 183.085 189.967 183.062 189.967Z" fill="#472938"/>
<path d="M205.097 205.398C204.983 205.398 204.87 205.308 204.87 205.172C204.756 202.407 201.485 202.294 201.349 202.294C201.212 202.294 201.122 202.181 201.122 202.067C201.122 201.931 201.235 201.841 201.349 201.841C201.394 201.841 205.165 201.977 205.302 205.149C205.347 205.285 205.233 205.398 205.097 205.398C205.12 205.398 205.12 205.398 205.097 205.398Z" fill="#472938"/>
<path d="M204.098 207.461C204.075 207.461 204.03 207.461 204.007 207.438C203.893 207.393 203.848 207.257 203.893 207.144C204.166 206.554 206.619 201.252 207.642 200.572C208.482 200.006 209.505 200.187 209.913 200.55C210.186 200.776 210.095 201.003 210.072 201.071C209.959 201.32 208.641 204.583 207.982 206.26C207.937 206.373 207.801 206.441 207.687 206.396C207.574 206.35 207.505 206.215 207.551 206.101C207.619 205.897 209.391 201.501 209.641 200.935C209.595 200.889 209.482 200.799 209.255 200.753C209.073 200.708 208.482 200.595 207.892 200.98C207.119 201.501 205.029 205.761 204.28 207.37C204.257 207.416 204.189 207.461 204.098 207.461Z" fill="#472938"/>
<path d="M211.276 205.761C211.14 205.761 211.049 205.67 211.049 205.534C211.049 205.489 211.049 205.489 211.685 203.245C212.208 201.41 213.048 198.419 213.139 197.943C213.003 197.807 212.367 197.535 211.935 197.671C211.594 197.784 210.549 199.325 209.777 200.685C209.709 200.798 209.573 200.821 209.459 200.775C209.345 200.707 209.323 200.571 209.368 200.458C209.777 199.756 211.14 197.444 211.776 197.218C212.321 197.036 213.026 197.286 213.344 197.512C213.503 197.626 213.594 197.762 213.594 197.875C213.594 198.011 213.275 199.166 212.117 203.336C211.822 204.401 211.526 205.421 211.504 205.534C211.504 205.67 211.39 205.761 211.276 205.761Z" fill="#472938"/>
<path d="M214.48 205.286C214.457 205.286 214.457 205.286 214.434 205.286C214.321 205.263 214.23 205.127 214.252 205.014C215.047 201.479 216.206 196.086 216.229 195.496C216.138 195.36 215.729 195.134 215.025 195.134C214.639 195.134 213.662 196.425 213.003 197.626C212.935 197.74 212.798 197.785 212.685 197.717C212.571 197.649 212.526 197.513 212.594 197.4C212.958 196.765 214.184 194.681 215.025 194.681C215.82 194.681 216.479 194.953 216.66 195.338C216.706 195.428 216.819 195.678 214.684 205.104C214.684 205.218 214.593 205.286 214.48 205.286Z" fill="#472938"/>
<path d="M216.183 195.36C216.092 195.36 216.002 195.292 215.956 195.201C215.593 194.045 216.66 192.754 216.706 192.708C216.797 192.618 216.933 192.595 217.024 192.686C217.115 192.776 217.137 192.912 217.047 193.003C217.047 193.026 216.092 194.159 216.388 195.088C216.433 195.201 216.365 195.337 216.229 195.382C216.229 195.36 216.206 195.36 216.183 195.36Z" fill="#472938"/>
<path d="M214.98 203.087C214.934 203.087 214.889 203.065 214.866 203.042C214.753 202.974 214.73 202.838 214.798 202.725L216.661 199.915L216.116 196.516C216.093 196.403 216.184 196.267 216.297 196.267C216.411 196.244 216.547 196.335 216.547 196.448L217.138 200.028L215.184 202.997C215.116 203.042 215.048 203.087 214.98 203.087Z" fill="#472938"/>
<path d="M57.4364 196.379C57.6409 196.017 58.3451 196.583 58.3451 196.583C58.3451 196.583 59.0266 195.767 60.9576 196.266C62.8885 196.764 68.7269 201.364 68.7269 201.364C71.2485 201.229 75.542 203.54 75.542 203.54C75.542 203.54 78.6315 202.112 81.3122 197.739C83.9928 193.365 86.9915 191.145 86.9915 191.145C86.9915 191.145 92.5572 164.225 96.3964 147.366C101.031 149.111 107.255 156.452 111.73 162.389C111.753 165.267 111.753 167.103 111.753 167.103C111.753 167.103 98.5318 206.848 96.669 208.117C94.8062 209.386 73.134 212.853 72.9295 212.717C72.7251 212.581 70.726 213.17 69.8854 212.83C69.0449 212.491 68.0908 213.148 67.0458 212.491C66.0008 211.833 64.3424 212.944 63.5928 212.332C62.8431 211.72 61.6618 212.015 60.7986 211.675C59.9353 211.335 55.142 205.081 55.0057 203.925C54.8694 202.769 57.232 196.742 57.4364 196.379Z" fill="#FFEDE5"/>
<path d="M107.573 154.821C107.573 154.821 100.372 168.326 107.005 181.038L111.708 167.148L107.573 154.821Z" fill="#E0855C"/>
<path d="M96.374 147.389C97.7371 141.361 98.8956 136.625 99.4863 134.88C101.713 128.264 106.324 127.765 106.324 127.765C110.868 127.652 111.595 151.943 111.708 162.412C107.233 156.498 101.008 149.156 96.374 147.389Z" fill="#AB8DA8"/>
<path d="M92.0343 192.368C92.0116 192.368 92.0116 192.368 91.9889 192.368L87.4909 191.371C87.3773 191.349 87.2865 191.213 87.3092 191.099C87.3319 190.986 87.4682 190.895 87.5818 190.918L92.0798 191.915C92.1934 191.938 92.2842 192.074 92.2615 192.187C92.2388 192.3 92.1252 192.368 92.0343 192.368Z" fill="#472938"/>
<path d="M70.6124 208.66C70.4761 208.66 70.3853 208.547 70.3853 208.434C70.408 205.239 74.1563 204.967 74.2017 204.967C74.3153 204.967 74.4289 205.057 74.4516 205.171C74.4516 205.307 74.3608 205.397 74.2472 205.42C74.1109 205.42 70.8623 205.669 70.8623 208.434C70.8396 208.57 70.7487 208.66 70.6124 208.66Z" fill="#472938"/>
<path d="M71.7252 210.677C71.6343 210.677 71.5661 210.632 71.5207 210.564C70.7256 209 68.4539 204.808 67.6588 204.31C67.0454 203.947 66.4548 204.083 66.273 204.129C66.0686 204.197 65.955 204.287 65.9096 204.333C66.1822 204.899 68.1131 209.227 68.204 209.431C68.2494 209.544 68.204 209.68 68.0904 209.726C67.9768 209.771 67.8405 209.726 67.7951 209.612C67.0454 207.958 65.6142 204.74 65.5007 204.491C65.4098 204.333 65.4779 204.129 65.637 203.97C66.0232 203.607 67.0454 203.381 67.9087 203.902C68.9764 204.536 71.6343 209.748 71.9296 210.337C71.975 210.451 71.9523 210.587 71.8387 210.632C71.7933 210.677 71.7479 210.677 71.7252 210.677Z" fill="#472938"/>
<path d="M64.4557 209.25C64.3422 209.25 64.2513 209.182 64.2286 209.069C64.2058 208.956 63.9105 208.049 63.5698 206.984C62.2067 202.792 61.8433 201.614 61.8433 201.478C61.8433 201.342 61.9114 201.229 62.0704 201.115C62.3885 200.866 63.07 200.594 63.6379 200.753C64.2967 200.934 65.7506 203.2 66.1822 203.88C66.2504 203.993 66.205 204.129 66.1141 204.197C66.0005 204.265 65.8642 204.22 65.7961 204.129C64.9555 202.792 63.8424 201.297 63.5243 201.206C63.07 201.07 62.4566 201.387 62.3203 201.523C62.4339 201.931 63.4107 205.013 64.0241 206.871C64.7056 208.978 64.7056 208.978 64.7056 209.024C64.7056 209.137 64.592 209.25 64.4557 209.25C64.4785 209.25 64.4785 209.25 64.4557 209.25Z" fill="#472938"/>
<path d="M61.2526 208.933C61.1617 208.933 61.0708 208.865 61.0254 208.774C58.5265 199.416 58.6401 199.166 58.6628 199.076C58.8218 198.668 59.4579 198.373 60.2757 198.351H60.2984C61.139 198.351 62.4339 200.367 62.82 200.979C62.8882 201.092 62.8428 201.228 62.7519 201.296C62.6383 201.364 62.502 201.319 62.4339 201.228C61.7296 200.073 60.7073 198.804 60.3212 198.804C59.6396 198.826 59.2307 199.076 59.1399 199.212C59.1853 199.801 60.571 205.149 61.5024 208.638C61.5252 208.752 61.457 208.888 61.3434 208.91C61.2753 208.91 61.2526 208.933 61.2526 208.933Z" fill="#472938"/>
<path d="M59.1631 199.099C59.1404 199.099 59.1177 199.099 59.095 199.099C58.9814 199.076 58.8905 198.94 58.9359 198.827C59.1858 197.875 58.209 196.787 58.1863 196.765C58.0954 196.674 58.1181 196.538 58.209 196.447C58.2999 196.357 58.4362 196.379 58.527 196.47C58.5725 196.515 59.6856 197.762 59.3676 198.94C59.3448 199.031 59.254 199.099 59.1631 199.099Z" fill="#472938"/>
<path d="M60.6621 206.735C60.5939 206.735 60.5258 206.712 60.4803 206.644L58.4131 203.766L58.8447 200.163C58.8674 200.05 58.981 199.959 59.0946 199.959C59.2082 199.982 59.2991 200.095 59.2991 200.209L58.8901 203.63L60.8665 206.372C60.9347 206.463 60.912 206.622 60.8211 206.689C60.753 206.735 60.7075 206.735 60.6621 206.735Z" fill="#472938"/>
<path d="M151.577 122.032L166.206 125.998C166.206 125.998 164.434 149.587 167.456 154.459C170.477 159.331 168.796 170.411 165.139 175.918C165.139 175.918 159.278 194.725 160.868 199.144C162.458 203.563 167.797 213.329 167.797 213.329C167.797 213.329 143.966 225.384 109.482 214.666C109.482 214.666 116.32 200.3 115.252 194.793C114.184 189.287 106.801 173.946 106.892 166.695C106.983 159.444 109.3 140.092 105.915 127.856L120.545 122.984C120.545 122.984 120.795 151.717 137.446 151.717C154.098 151.717 151.577 122.032 151.577 122.032Z" fill="#AB8DA8"/>
<path d="M165.161 175.918C165.161 175.918 163.344 179.544 151.804 181.062C151.804 181.062 162.912 181.9 161.799 188.562L165.161 175.918Z" fill="#A286A0"/>
<path d="M108.482 174.897C108.482 174.897 111.208 179.996 123.543 181.152C123.543 181.152 110.027 179.112 112.548 186.499L108.482 174.897Z" fill="#A286A0"/>
<path d="M106.96 167.964C106.847 167.964 106.733 167.873 106.733 167.76C106.711 167.375 106.688 167.035 106.711 166.695C106.733 165.064 106.87 162.843 107.006 160.26C107.21 156.725 107.46 152.329 107.528 147.819C107.528 147.683 107.619 147.593 107.756 147.593C107.892 147.593 107.983 147.706 107.983 147.819C107.915 152.329 107.665 156.747 107.46 160.282C107.301 162.866 107.188 165.086 107.165 166.718C107.165 167.035 107.165 167.375 107.188 167.737C107.188 167.828 107.097 167.941 106.96 167.964Z" fill="#472938"/>
<path d="M167.456 154.685C167.388 154.685 167.297 154.64 167.252 154.572C166.252 152.963 165.661 149.27 165.502 143.605C165.502 143.469 165.593 143.378 165.73 143.378C165.843 143.378 165.957 143.469 165.957 143.605C166.116 149.202 166.684 152.827 167.638 154.345C167.706 154.459 167.661 154.595 167.57 154.663C167.547 154.663 167.502 154.685 167.456 154.685Z" fill="#472938"/>
<path d="M110.276 212.989C110.276 212.989 123.111 217.861 138.127 217.34C153.143 216.819 183.198 205.987 197.237 208.208C211.277 210.429 210.368 216.388 209.891 219.13C209.414 221.872 180.268 263 154.665 263H115.433C115.433 263 67.227 232.703 65.6595 223.957C64.092 215.21 65.2279 209.975 78.6765 209.726C92.125 209.477 106.664 211.811 110.276 212.989Z" fill="#3B2645"/>
<path d="M137.627 226.336C137.627 226.336 156.801 218.382 172.816 215.641C172.816 215.641 183.13 231.593 180.109 245.076C180.086 245.076 143.42 237.054 137.627 226.336Z" fill="#FFEDE5"/>
<path d="M137.627 226.336C137.627 226.336 184.016 232.386 180.086 245.076C176.156 257.765 137.627 226.336 137.627 226.336Z" fill="#E0855C"/>
<path d="M158.482 249.291C158.482 249.291 110.935 253.37 100.508 255.5C90.0804 257.63 79.5169 256.678 73.0652 258.922C66.6135 261.165 63.0469 262.887 62.2745 262.978C61.5021 263.068 59.7302 253.075 62.9788 249.54C62.9788 249.54 61.9792 245.937 66.5226 243.15C71.0661 240.363 78.6082 244.034 81.4024 243.15C84.1966 242.266 86.1957 241.451 89.1717 242.085C92.1476 242.72 99.4171 244.51 99.4171 244.51C99.4171 244.51 136.855 220.785 158.482 249.291Z" fill="#FFEDE5"/>
<path d="M99.4404 244.51L127.678 252.169L158.482 249.291C158.482 249.291 144.443 234.879 125.065 236.216C105.688 237.553 99.4404 244.51 99.4404 244.51Z" fill="#E0855C"/>
<path d="M109.277 216.025C109.277 216.025 123.861 218.971 144.943 229.984C166.025 240.997 183.471 236.487 189.628 238.617C195.784 240.747 207.461 239.093 209.369 240.747C211.277 242.402 212.527 245.302 211.391 246.548C211.391 246.548 216.479 258.196 216.002 258.966C215.525 259.737 213.753 259.669 212.913 259.487C212.072 259.306 204.666 255.635 196.148 254.117C187.629 252.599 164.139 249.336 145.42 248.384C126.701 247.432 99.4404 245.551 99.4404 245.551C99.4404 245.551 100.077 222.642 109.277 216.025Z" fill="#FFEDE5"/>
<path d="M209.845 247.024C209.118 247.024 208.142 246.889 206.892 246.458C206.779 246.413 206.71 246.277 206.756 246.163C206.801 246.05 206.938 245.982 207.051 246.027C209.868 247.024 211.231 246.345 211.254 246.345C211.367 246.277 211.504 246.322 211.549 246.435C211.617 246.549 211.572 246.685 211.458 246.73C211.436 246.73 210.913 247.024 209.845 247.024Z" fill="#472938"/>
<path d="M65.2738 250.243C63.6836 250.243 62.9112 249.744 62.8658 249.722C62.7522 249.654 62.7295 249.518 62.7976 249.405C62.8658 249.291 63.0021 249.269 63.1157 249.337C63.1157 249.337 63.9335 249.835 65.5237 249.767C67.182 249.722 68.9767 248.906 68.9994 248.906C69.113 248.861 69.2493 248.906 69.2947 249.019C69.3402 249.133 69.2947 249.269 69.1811 249.314C69.113 249.359 67.2729 250.152 65.5464 250.22C65.4555 250.243 65.3647 250.243 65.2738 250.243Z" fill="#472938"/>
</svg>
